<svg width="222" height="2330" viewBox="0 0 222 2330" fill="none" xmlns="http://www.w3.org/2000/svg">
<line x1="153" y1="28" x2="153" y2="2306" stroke="#536666" stroke-width="2" stroke-linecap="square"/>
<line x1="171" y1="11" x2="191" y2="11" stroke="#536666" stroke-width="2" stroke-linecap="square"/>
<path d="M188 15L192 11L188 7" stroke="#536666" stroke-width="2" stroke-linecap="round" stroke-linejoin="round"/>
<path d="M169 11V11C160.163 11 153 18.1634 153 27V27" stroke="#536666" stroke-width="2" stroke-linecap="square" stroke-linejoin="round"/>
<line x1="171" y1="153" x2="191" y2="153" stroke="#536666" stroke-width="2" stroke-linecap="square"/>
<path d="M188 157L192 153L188 149" stroke="#536666" stroke-width="2" stroke-linecap="round" stroke-linejoin="round"/>
<path d="M169 153V153C160.163 153 153 160.163 153 169V169" stroke="#536666" stroke-width="2" stroke-linecap="square" stroke-linejoin="round"/>
<line x1="171" y1="82" x2="191" y2="82" stroke="#536666" stroke-width="2" stroke-linecap="square"/>
<path d="M188 86L192 82L188 78" stroke="#536666" stroke-width="2" stroke-linecap="round" stroke-linejoin="round"/>
<path d="M169 82V82C160.163 82 153 89.1634 153 98V98" stroke="#536666" stroke-width="2" stroke-linecap="square" stroke-linejoin="round"/>
<line x1="1" y1="-1" x2="21" y2="-1" transform="matrix(1 -8.74228e-08 -8.74228e-08 -1 170 526)" stroke="#536666" stroke-width="2" stroke-linecap="square"/>
<path d="M188 523L192 527L188 531" stroke="#536666" stroke-width="2" stroke-linecap="round" stroke-linejoin="round"/>
<path d="M169 527V527C160.163 527 153 519.837 153 511V511" stroke="#536666" stroke-width="2" stroke-linecap="square" stroke-linejoin="round"/>
<line x1="1" y1="-1" x2="21" y2="-1" transform="matrix(1 -8.74228e-08 -8.74228e-08 -1 170 597)" stroke="#536666" stroke-width="2" stroke-linecap="square"/>
<path d="M188 594L192 598L188 602" stroke="#536666" stroke-width="2" stroke-linecap="round" stroke-linejoin="round"/>
<path d="M169 598V598C160.163 598 153 590.837 153 582V582" stroke="#536666" stroke-width="2" stroke-linecap="square" stroke-linejoin="round"/>
<line x1="1" y1="-1" x2="21" y2="-1" transform="matrix(1 -8.74228e-08 -8.74228e-08 -1 170 668)" stroke="#536666" stroke-width="2" stroke-linecap="square"/>
<path d="M188 665L192 669L188 673" stroke="#536666" stroke-width="2" stroke-linecap="round" stroke-linejoin="round"/>
<path d="M169 669V669C160.163 669 153 661.837 153 653V653" stroke="#536666" stroke-width="2" stroke-linecap="square" stroke-linejoin="round"/>
<line x1="1" y1="-1" x2="21" y2="-1" transform="matrix(1 -8.74228e-08 -8.74228e-08 -1 170 739)" stroke="#536666" stroke-width="2" stroke-linecap="square"/>
<path d="M188 736L192 740L188 744" stroke="#536666" stroke-width="2" stroke-linecap="round" stroke-linejoin="round"/>
<path d="M169 740V740C160.163 740 153 732.837 153 724V724" stroke="#536666" stroke-width="2" stroke-linecap="square" stroke-linejoin="round"/>
<line x1="1" y1="-1" x2="21" y2="-1" transform="matrix(1 -8.74228e-08 -8.74228e-08 -1 170 882)" stroke="#536666" stroke-width="2" stroke-linecap="square"/>
<path d="M188 879L192 883L188 887" stroke="#536666" stroke-width="2" stroke-linecap="round" stroke-linejoin="round"/>
<path d="M169 883V883C160.163 883 153 875.837 153 867V867" stroke="#536666" stroke-width="2" stroke-linecap="square" stroke-linejoin="round"/>
<line x1="1" y1="-1" x2="21" y2="-1" transform="matrix(1 -8.74228e-08 -8.74228e-08 -1 170 953)" stroke="#536666" stroke-width="2" stroke-linecap="square"/>
<path d="M188 950L192 954L188 958" stroke="#536666" stroke-width="2" stroke-linecap="round" stroke-linejoin="round"/>
<path d="M169 954V954C160.163 954 153 946.837 153 938V938" stroke="#536666" stroke-width="2" stroke-linecap="square" stroke-linejoin="round"/>
<line x1="1" y1="-1" x2="21" y2="-1" transform="matrix(1 -8.74228e-08 -8.74228e-08 -1 170 1611)" stroke="#536666" stroke-width="2" stroke-linecap="square"/>
<path d="M188 1608L192 1612L188 1616" stroke="#536666" stroke-width="2" stroke-linecap="round" stroke-linejoin="round"/>
<path d="M169 1612V1612C160.163 1612 153 1604.84 153 1596V1596" stroke="#536666" stroke-width="2" stroke-linecap="square" stroke-linejoin="round"/>
<line x1="1" y1="-1" x2="21" y2="-1" transform="matrix(1 -8.74228e-08 -8.74228e-08 -1 170 1540)" stroke="#536666" stroke-width="2" stroke-linecap="square"/>
<path d="M188 1537L192 1541L188 1545" stroke="#536666" stroke-width="2" stroke-linecap="round" stroke-linejoin="round"/>
<path d="M169 1541V1541C160.163 1541 153 1533.84 153 1525V1525" stroke="#536666" stroke-width="2" stroke-linecap="square" stroke-linejoin="round"/>
<line x1="1" y1="-1" x2="21" y2="-1" transform="matrix(1 -8.74228e-08 -8.74228e-08 -1 170 1469)" stroke="#536666" stroke-width="2" stroke-linecap="square"/>
<path d="M188 1466L192 1470L188 1474" stroke="#536666" stroke-width="2" stroke-linecap="round" stroke-linejoin="round"/>
<path d="M169 1470V1470C160.163 1470 153 1462.84 153 1454V1454" stroke="#536666" stroke-width="2" stroke-linecap="square" stroke-linejoin="round"/>
<line x1="1" y1="-1" x2="21" y2="-1" transform="matrix(1 -8.74228e-08 -8.74228e-08 -1 170 1398)" stroke="#536666" stroke-width="2" stroke-linecap="square"/>
<path d="M188 1395L192 1399L188 1403" stroke="#536666" stroke-width="2" stroke-linecap="round" stroke-linejoin="round"/>
<path d="M169 1399V1399C160.163 1399 153 1391.84 153 1383V1383" stroke="#536666" stroke-width="2" stroke-linecap="square" stroke-linejoin="round"/>
<line x1="1" y1="-1" x2="21" y2="-1" transform="matrix(1 -8.74228e-08 -8.74228e-08 -1 170 2323)" stroke="#536666" stroke-width="2" stroke-linecap="square"/>
<path d="M188 2320L192 2324L188 2328" stroke="#536666" stroke-width="2" stroke-linecap="round" stroke-linejoin="round"/>
<path d="M169 2324V2324C160.163 2324 153 2316.84 153 2308V2308" stroke="#536666" stroke-width="2" stroke-linecap="square" stroke-linejoin="round"/>
<line x1="1" y1="-1" x2="21" y2="-1" transform="matrix(1 -8.74228e-08 -8.74228e-08 -1 170 2189)" stroke="#536666" stroke-width="2" stroke-linecap="square"/>
<path d="M188 2186L192 2190L188 2194" stroke="#536666" stroke-width="2" stroke-linecap="round" stroke-linejoin="round"/>
<path d="M169 2190V2190C160.163 2190 153 2182.84 153 2174V2174" stroke="#536666" stroke-width="2" stroke-linecap="square" stroke-linejoin="round"/>
<line x1="1" y1="267" x2="151" y2="267" stroke="#536666" stroke-width="2" stroke-linecap="square"/>
<path d="M0 264C1.65685 264 3 265.343 3 267C3 268.657 1.65685 270 0 270V264Z" fill="#536666"/>
</svg>
