<svg width="56" height="367" viewBox="0 0 56 367" fill="none" xmlns="http://www.w3.org/2000/svg">
<g clip-path="url(#clip0_2801_189616)">
<line x1="1" y1="-1" x2="21" y2="-1" transform="matrix(1 -8.74228e-08 -8.74228e-08 -1 33 70)" stroke="#536666" stroke-width="2" stroke-linecap="square"/>
<path d="M51 67L55 71L51 75" stroke="#536666" stroke-width="2" stroke-linecap="round" stroke-linejoin="round"/>
<path d="M32 71V71C23.1634 71 16 63.8366 16 55V55" stroke="#536666" stroke-width="2" stroke-linecap="square" stroke-linejoin="round"/>
<line x1="1" y1="-1" x2="21" y2="-1" transform="matrix(1 -8.74228e-08 -8.74228e-08 -1 33 141)" stroke="#536666" stroke-width="2" stroke-linecap="square"/>
<path d="M51 138L55 142L51 146" stroke="#536666" stroke-width="2" stroke-linecap="round" stroke-linejoin="round"/>
<path d="M32 142V142C23.1634 142 16 134.837 16 126V126" stroke="#536666" stroke-width="2" stroke-linecap="square" stroke-linejoin="round"/>
<line x1="1" y1="-1" x2="21" y2="-1" transform="matrix(1 -8.74228e-08 -8.74228e-08 -1 33 213)" stroke="#536666" stroke-width="2" stroke-linecap="square"/>
<path d="M51 210L55 214L51 218" stroke="#536666" stroke-width="2" stroke-linecap="round" stroke-linejoin="round"/>
<line x1="1" y1="-1" x2="21" y2="-1" transform="matrix(1 -8.74228e-08 -8.74228e-08 -1 33 285)" stroke="#536666" stroke-width="2" stroke-linecap="square"/>
<path d="M51 282L55 286L51 290" stroke="#536666" stroke-width="2" stroke-linecap="round" stroke-linejoin="round"/>
<line x1="1" y1="-1" x2="21" y2="-1" transform="matrix(1 -8.74228e-08 -8.74228e-08 -1 33 357)" stroke="#536666" stroke-width="2" stroke-linecap="square"/>
<path d="M51 354L55 358L51 362" stroke="#536666" stroke-width="2" stroke-linecap="round" stroke-linejoin="round"/>
<path d="M32 214V214C23.1634 214 16 206.837 16 198V198" stroke="#536666" stroke-width="2" stroke-linecap="square" stroke-linejoin="round"/>
<path d="M32 286V286C23.1634 286 16 278.837 16 270V270" stroke="#536666" stroke-width="2" stroke-linecap="square" stroke-linejoin="round"/>
<path d="M32 358V358C23.1634 358 16 350.837 16 342V342" stroke="#536666" stroke-width="2" stroke-linecap="square" stroke-linejoin="round"/>
<line x1="16" y1="17" x2="16" y2="343" stroke="#536666" stroke-width="2" stroke-linecap="square"/>
<path d="M16 15.5V15.5C16 6.66344 8.83656 -0.5 -1.19209e-07 -0.500001V-0.500001" stroke="#536666" stroke-width="2" stroke-linecap="square" stroke-linejoin="round"/>
</g>
<defs>
<clipPath id="clip0_2801_189616">
<rect width="56" height="367" fill="white"/>
</clipPath>
</defs>
</svg>
