<svg width="56" height="324" viewBox="0 0 56 324" fill="none" xmlns="http://www.w3.org/2000/svg">
<g clip-path="url(#clip0_2801_191188)">
<line x1="1" y1="-1" x2="21" y2="-1" transform="matrix(1 -8.74228e-08 -8.74228e-08 -1 33 70)" stroke="#536666" stroke-width="2" stroke-linecap="square"/>
<path d="M51 67L55 71L51 75" stroke="#536666" stroke-width="2" stroke-linecap="round" stroke-linejoin="round"/>
<path d="M32 71V71C23.1634 71 16 63.8366 16 55V55" stroke="#536666" stroke-width="2" stroke-linecap="square" stroke-linejoin="round"/>
<line x1="1" y1="-1" x2="21" y2="-1" transform="matrix(1 -8.74228e-08 -8.74228e-08 -1 33 141)" stroke="#536666" stroke-width="2" stroke-linecap="square"/>
<path d="M51 138L55 142L51 146" stroke="#536666" stroke-width="2" stroke-linecap="round" stroke-linejoin="round"/>
<path d="M32 142V142C23.1634 142 16 134.837 16 126V126" stroke="#536666" stroke-width="2" stroke-linecap="square" stroke-linejoin="round"/>
<line x1="1" y1="-1" x2="21" y2="-1" transform="matrix(1 -8.74228e-08 -8.74228e-08 -1 33 303)" stroke="#536666" stroke-width="2" stroke-linecap="square"/>
<path d="M51 300L55 304L51 308" stroke="#536666" stroke-width="2" stroke-linecap="round" stroke-linejoin="round"/>
<path d="M32 304V304C23.1634 304 16 296.837 16 288V288" stroke="#536666" stroke-width="2" stroke-linecap="square" stroke-linejoin="round"/>
<line x1="16" y1="17" x2="16" y2="289" stroke="#536666" stroke-width="2" stroke-linecap="square"/>
<path d="M16 15.5V15.5C16 6.66344 8.83656 -0.5 -1.19209e-07 -0.500001V-0.500001" stroke="#536666" stroke-width="2" stroke-linecap="square" stroke-linejoin="round"/>
</g>
<defs>
<clipPath id="clip0_2801_191188">
<rect width="56" height="324" fill="white"/>
</clipPath>
</defs>
</svg>
