<svg width="1102" height="209" viewBox="0 0 1102 209" fill="none" xmlns="http://www.w3.org/2000/svg">
<g filter="url(#filter0_b_1649_1496)">
<path d="M58.0536 0H1102V174L1034.78 209H0V28L58.0536 0Z" fill="white" fill-opacity="0.08"/>
<path d="M1.01456 28.6371L58.2855 1.01456H1100.99V173.384L1034.53 207.985H1.01456V28.6371Z" stroke="#0FB56F" stroke-width="2.02913"/>
</g>
<g opacity="0.15">
<mask id="mask0_1649_1496" style="mask-type:alpha" maskUnits="userSpaceOnUse" x="28" y="16" width="1046" height="177">
<rect x="28.5176" y="16" width="1044.96" height="177" fill="#C4C4C4"/>
</mask>
<g mask="url(#mask0_1649_1496)">
<line x1="1.01456" y1="-1.01456" x2="826.973" y2="-1.01456" transform="matrix(-0.893973 0.44812 -0.893973 -0.44812 1309.75 -149.376)" stroke="white" stroke-width="2.02913" stroke-linecap="round"/>
<line x1="1.01456" y1="-1.01456" x2="993.579" y2="-1.01456" transform="matrix(-0.893837 0.448393 -0.89411 -0.447847 1171.28 -218.786)" stroke="white" stroke-width="2.02913" stroke-linecap="round"/>
<line x1="1.01456" y1="-1.01456" x2="876.405" y2="-1.01456" transform="matrix(-0.893973 0.44812 -0.893973 -0.44812 317.727 -10.958)" stroke="white" stroke-width="2.02913" stroke-linecap="round"/>
<line x1="1.01456" y1="-1.01456" x2="895.536" y2="-1.01456" transform="matrix(-0.894371 0.447326 -0.893575 -0.448915 1263.6 -172.512)" stroke="white" stroke-width="2.02913" stroke-linecap="round"/>
<line x1="1.01456" y1="-1.01456" x2="771.362" y2="-1.01456" transform="matrix(-0.893973 0.44812 -0.893973 -0.44812 1647.39 -17.8462)" stroke="white" stroke-width="2.02913" stroke-linecap="round"/>
<line x1="1.01456" y1="-1.01456" x2="987.627" y2="-1.01456" transform="matrix(-0.893973 0.44812 -0.893973 -0.44812 509.477 -14.5259)" stroke="white" stroke-width="2.02913" stroke-linecap="round"/>
<line x1="1.01456" y1="-1.01456" x2="729.275" y2="-1.01456" transform="matrix(-0.893974 0.44812 -0.893973 -0.44812 1402.06 -103.103)" stroke="white" stroke-width="2.02913" stroke-linecap="round"/>
<line x1="1.01456" y1="-1.01456" x2="932.016" y2="-1.01456" transform="matrix(-0.893973 0.44812 -0.893973 -0.44812 1217.44 -195.649)" stroke="white" stroke-width="2.02913" stroke-linecap="round"/>
<line x1="1.01456" y1="-1.01456" x2="729.275" y2="-1.01456" transform="matrix(-0.893974 0.44812 -0.893973 -0.44812 1563.61 -22.1235)" stroke="white" stroke-width="2.02913" stroke-linecap="round"/>
<line x1="1.01456" y1="-1.01456" x2="932.016" y2="-1.01456" transform="matrix(-0.893973 0.44812 -0.893973 -0.44812 413.604 -12.7412)" stroke="white" stroke-width="2.02913" stroke-linecap="round"/>
<line x1="1.01456" y1="-1.01456" x2="1030.88" y2="-1.01456" transform="matrix(-0.893973 0.44812 -0.893973 -0.44812 1125.12 -241.922)" stroke="white" stroke-width="2.02913" stroke-linecap="round"/>
<line x1="1.01456" y1="-1.01456" x2="729.275" y2="-1.01456" transform="matrix(-0.893974 0.44812 -0.893973 -0.44812 1471.3 -68.397)" stroke="white" stroke-width="2.02913" stroke-linecap="round"/>
<line x1="1.01456" y1="-1.01456" x2="820.794" y2="-1.01456" transform="matrix(-0.893973 0.44812 -0.893973 -0.44812 221.863 -9.17456)" stroke="white" stroke-width="2.02913" stroke-linecap="round"/>
<line x1="1.01456" y1="-1.01456" x2="857.868" y2="-1.01456" transform="matrix(-0.893973 0.44812 -0.893973 -0.44812 1321.29 -143.592)" stroke="white" stroke-width="2.02913" stroke-linecap="round"/>
<line x1="1.01456" y1="-1.01456" x2="808.436" y2="-1.01456" transform="matrix(-0.893973 0.44812 -0.893973 -0.44812 1726.69 -11.3237)" stroke="white" stroke-width="2.02913" stroke-linecap="round"/>
<line x1="1.01456" y1="-1.01456" x2="1043.24" y2="-1.01456" transform="matrix(-0.893973 0.44812 -0.893973 -0.44812 605.342 -16.3088)" stroke="white" stroke-width="2.02913" stroke-linecap="round"/>
<line x1="1.01456" y1="-1.01456" x2="777.541" y2="-1.01456" transform="matrix(-0.893973 0.44812 -0.893973 -0.44812 1355.9 -126.24)" stroke="white" stroke-width="2.02913" stroke-linecap="round"/>
<line x1="1.01456" y1="-1.01456" x2="962.911" y2="-1.01456" transform="matrix(-0.893973 0.44812 -0.893973 -0.44812 1194.36 -207.218)" stroke="white" stroke-width="2.02913" stroke-linecap="round"/>
<line x1="1.01456" y1="-1.01456" x2="729.275" y2="-1.01456" transform="matrix(-0.893974 0.44812 -0.893973 -0.44812 1540.53 -33.6921)" stroke="white" stroke-width="2.02913" stroke-linecap="round"/>
<line x1="1.01456" y1="-1.01456" x2="907.3" y2="-1.01456" transform="matrix(-0.893973 0.44812 -0.893973 -0.44812 368.426 -13.2349)" stroke="white" stroke-width="2.02913" stroke-linecap="round"/>
<line x1="1.01456" y1="-1.01456" x2="729.275" y2="-1.01456" transform="matrix(-0.893974 0.44812 -0.893973 -0.44812 1448.22 -79.9658)" stroke="white" stroke-width="2.02913" stroke-linecap="round"/>
<line x1="1.01456" y1="-1.01456" x2="796.078" y2="-1.01456" transform="matrix(-0.893973 0.44812 -0.893973 -0.44812 176.684 -9.66699)" stroke="white" stroke-width="2.02913" stroke-linecap="round"/>
<line x1="1.01456" y1="-1.01456" x2="863.379" y2="-1.01456" transform="matrix(-0.89351 0.449043 -0.894435 -0.447197 1286.67 -160.944)" stroke="white" stroke-width="2.02913" stroke-linecap="round"/>
<line x1="1.01456" y1="-1.01456" x2="802.257" y2="-1.01456" transform="matrix(-0.893973 0.44812 -0.893973 -0.44812 1698.09 -20.1238)" stroke="white" stroke-width="2.02913" stroke-linecap="round"/>
<line x1="1.01456" y1="-1.01456" x2="1006.16" y2="-1.01456" transform="matrix(-0.893973 0.44812 -0.893973 -0.44812 549.127 -11.2644)" stroke="white" stroke-width="2.02913" stroke-linecap="round"/>
<line x1="1.01456" y1="-1.01456" x2="729.275" y2="-1.01456" transform="matrix(-0.893974 0.44812 -0.893973 -0.44812 1425.14 -91.5342)" stroke="white" stroke-width="2.02913" stroke-linecap="round"/>
<line x1="1.01456" y1="-1.01456" x2="783.72" y2="-1.01456" transform="matrix(-0.893973 0.44812 -0.893973 -0.44812 142.561 -15.6975)" stroke="white" stroke-width="2.02913" stroke-linecap="round"/>
<line x1="1.01456" y1="-1.01456" x2="919.554" y2="-1.01456" transform="matrix(-0.893906 0.448256 -0.894041 -0.447984 1240.52 -184.081)" stroke="white" stroke-width="2.02913" stroke-linecap="round"/>
<line x1="1.01456" y1="-1.01456" x2="729.275" y2="-1.01456" transform="matrix(-0.893974 0.44812 -0.893973 -0.44812 1586.69 -10.5552)" stroke="white" stroke-width="2.02913" stroke-linecap="round"/>
<line x1="1.01456" y1="-1.01456" x2="950.553" y2="-1.01456" transform="matrix(-0.893973 0.44812 -0.893973 -0.44812 453.254 -9.47998)" stroke="white" stroke-width="2.02913" stroke-linecap="round"/>
<line x1="1.01456" y1="-1.01456" x2="1018.52" y2="-1.01456" transform="matrix(-0.893973 0.44812 -0.893973 -0.44812 1148.2 -230.355)" stroke="white" stroke-width="2.02913" stroke-linecap="round"/>
<line x1="1.01456" y1="-1.01456" x2="729.275" y2="-1.01456" transform="matrix(-0.893974 0.44812 -0.893973 -0.44812 1494.37 -56.8293)" stroke="white" stroke-width="2.02913" stroke-linecap="round"/>
<line x1="1.01456" y1="-1.01456" x2="851.689" y2="-1.01456" transform="matrix(-0.893973 0.44812 -0.893973 -0.44812 272.561 -11.4507)" stroke="white" stroke-width="2.02913" stroke-linecap="round"/>
<line x1="1.01456" y1="-1.01456" x2="783.542" y2="-1.01456" transform="matrix(-0.893837 0.448392 -0.894109 -0.447848 1367.45 -120.455)" stroke="white" stroke-width="2.02913" stroke-linecap="round"/>
<line x1="1.01456" y1="-1.01456" x2="729.275" y2="-1.01456" transform="matrix(-0.893974 0.44812 -0.893973 -0.44812 36.1914 -20.2207)" stroke="white" stroke-width="2.02913" stroke-linecap="round"/>
<line x1="1.01456" y1="-1.01456" x2="833.152" y2="-1.01456" transform="matrix(-0.893973 0.44812 -0.893973 -0.44812 1332.83 -137.807)" stroke="white" stroke-width="2.02913" stroke-linecap="round"/>
<line x1="1.01456" y1="-1.01456" x2="999.985" y2="-1.01456" transform="matrix(-0.893973 0.44812 -0.893973 -0.44812 1182.82 -213.002)" stroke="white" stroke-width="2.02913" stroke-linecap="round"/>
<line x1="1.01456" y1="-1.01456" x2="888.763" y2="-1.01456" transform="matrix(-0.893973 0.44812 -0.893973 -0.44812 340.32 -10.7119)" stroke="white" stroke-width="2.02913" stroke-linecap="round"/>
<line x1="1.01456" y1="-1.01456" x2="870.226" y2="-1.01456" transform="matrix(-0.893973 0.44812 -0.893973 -0.44812 1275.13 -166.728)" stroke="white" stroke-width="2.02913" stroke-linecap="round"/>
<line x1="1.01456" y1="-1.01456" x2="789.899" y2="-1.01456" transform="matrix(-0.893973 0.44812 -0.893973 -0.44812 1675.5 -20.3691)" stroke="white" stroke-width="2.02913" stroke-linecap="round"/>
<line x1="1.01456" y1="-1.01456" x2="993.806" y2="-1.01456" transform="matrix(-0.893973 0.44812 -0.893973 -0.44812 526.537 -11.5105)" stroke="white" stroke-width="2.02913" stroke-linecap="round"/>
<line x1="1.01456" y1="-1.01456" x2="729.275" y2="-1.01456" transform="matrix(-0.893974 0.44812 -0.893973 -0.44812 1413.6 -97.3186)" stroke="white" stroke-width="2.02913" stroke-linecap="round"/>
<line x1="1.01456" y1="-1.01456" x2="919.658" y2="-1.01456" transform="matrix(-0.893973 0.44812 -0.893973 -0.44812 1228.97 -189.865)" stroke="white" stroke-width="2.02913" stroke-linecap="round"/>
<line x1="1.01456" y1="-1.01456" x2="729.275" y2="-1.01456" transform="matrix(-0.893974 0.44812 -0.893973 -0.44812 1575.15 -16.3396)" stroke="white" stroke-width="2.02913" stroke-linecap="round"/>
<line x1="1.01456" y1="-1.01456" x2="938.195" y2="-1.01456" transform="matrix(-0.893973 0.44812 -0.893973 -0.44812 430.668 -9.72656)" stroke="white" stroke-width="2.02913" stroke-linecap="round"/>
<line x1="1.01456" y1="-1.01456" x2="1018.52" y2="-1.01456" transform="matrix(-0.893973 0.44812 -0.893973 -0.44812 1136.66 -236.139)" stroke="white" stroke-width="2.02913" stroke-linecap="round"/>
<line x1="1.01456" y1="-1.01456" x2="729.275" y2="-1.01456" transform="matrix(-0.893974 0.44812 -0.893973 -0.44812 1482.84 -62.6133)" stroke="white" stroke-width="2.02913" stroke-linecap="round"/>
<line x1="1.01456" y1="-1.01456" x2="845.51" y2="-1.01456" transform="matrix(-0.893973 0.44812 -0.893973 -0.44812 255.496 -14.4666)" stroke="white" stroke-width="2.02913" stroke-linecap="round"/>
<line x1="1.01456" y1="-1.01456" x2="796.078" y2="-1.01456" transform="matrix(-0.893973 0.44812 -0.893973 -0.44812 1344.37 -132.023)" stroke="white" stroke-width="2.02913" stroke-linecap="round"/>
<line x1="1.01456" y1="-1.01456" x2="820.794" y2="-1.01456" transform="matrix(-0.893973 0.44812 -0.893973 -0.44812 1749.28 -11.0769)" stroke="white" stroke-width="2.02913" stroke-linecap="round"/>
<line x1="1.01456" y1="-1.01456" x2="1043.24" y2="-1.01456" transform="matrix(-0.893973 0.44812 -0.893973 -0.44812 616.887 -10.5254)" stroke="white" stroke-width="2.02913" stroke-linecap="round"/>
<line x1="1.01456" y1="-1.01456" x2="765.183" y2="-1.01456" transform="matrix(-0.893973 0.44812 -0.893973 -0.44812 1378.98 -114.671)" stroke="white" stroke-width="2.02913" stroke-linecap="round"/>
<line x1="1.01456" y1="-1.01456" x2="729.275" y2="-1.01456" transform="matrix(-0.893974 0.44812 -0.893973 -0.44812 47.7305 -14.4368)" stroke="white" stroke-width="2.02913" stroke-linecap="round"/>
<line x1="1.01456" y1="-1.01456" x2="944.374" y2="-1.01456" transform="matrix(-0.893973 0.44812 -0.893973 -0.44812 1205.9 -201.433)" stroke="white" stroke-width="2.02913" stroke-linecap="round"/>
<line x1="1.01456" y1="-1.01456" x2="729.275" y2="-1.01456" transform="matrix(-0.893974 0.44812 -0.893973 -0.44812 1552.07 -27.9077)" stroke="white" stroke-width="2.02913" stroke-linecap="round"/>
<line x1="1.01456" y1="-1.01456" x2="919.658" y2="-1.01456" transform="matrix(-0.893973 0.44812 -0.893973 -0.44812 391.018 -12.9885)" stroke="white" stroke-width="2.02913" stroke-linecap="round"/>
<line x1="1.01456" y1="-1.01456" x2="1055.6" y2="-1.01456" transform="matrix(-0.893974 0.44812 -0.893973 -0.44812 1113.59 -247.706)" stroke="white" stroke-width="2.02913" stroke-linecap="round"/>
<line x1="1.01456" y1="-1.01456" x2="729.275" y2="-1.01456" transform="matrix(-0.893974 0.44812 -0.893973 -0.44812 1459.76 -74.1814)" stroke="white" stroke-width="2.02913" stroke-linecap="round"/>
<line x1="1.01456" y1="-1.01456" x2="814.615" y2="-1.01456" transform="matrix(-0.893973 0.44812 -0.893973 -0.44812 204.799 -12.1895)" stroke="white" stroke-width="2.02913" stroke-linecap="round"/>
<line x1="1.01456" y1="-1.01456" x2="845.51" y2="-1.01456" transform="matrix(-0.893973 0.44812 -0.893973 -0.44812 1298.21 -155.159)" stroke="white" stroke-width="2.02913" stroke-linecap="round"/>
<line x1="1.01456" y1="-1.01456" x2="808.436" y2="-1.01456" transform="matrix(-0.893973 0.44812 -0.893973 -0.44812 1715.15 -17.1082)" stroke="white" stroke-width="2.02913" stroke-linecap="round"/>
<line x1="1.01456" y1="-1.01456" x2="1012.34" y2="-1.01456" transform="matrix(-0.893973 0.44812 -0.893973 -0.44812 566.186 -8.24854)" stroke="white" stroke-width="2.02913" stroke-linecap="round"/>
<line x1="1.01456" y1="-1.01456" x2="729.275" y2="-1.01456" transform="matrix(-0.893974 0.44812 -0.893973 -0.44812 1436.68 -85.7498)" stroke="white" stroke-width="2.02913" stroke-linecap="round"/>
<line x1="1.01456" y1="-1.01456" x2="783.72" y2="-1.01456" transform="matrix(-0.893973 0.44812 -0.893973 -0.44812 154.102 -9.91309)" stroke="white" stroke-width="2.02913" stroke-linecap="round"/>
<line x1="1.01456" y1="-1.01456" x2="894.942" y2="-1.01456" transform="matrix(-0.893973 0.44812 -0.893973 -0.44812 1252.05 -178.297)" stroke="white" stroke-width="2.02913" stroke-linecap="round"/>
<line x1="1.01456" y1="-1.01456" x2="765.183" y2="-1.01456" transform="matrix(-0.893973 0.44812 -0.893973 -0.44812 1630.33 -20.8623)" stroke="white" stroke-width="2.02913" stroke-linecap="round"/>
<line x1="1.01456" y1="-1.01456" x2="981.448" y2="-1.01456" transform="matrix(-0.893973 0.44812 -0.893973 -0.44812 492.414 -17.5408)" stroke="white" stroke-width="2.02913" stroke-linecap="round"/>
<line x1="1.01456" y1="-1.01456" x2="987.627" y2="-1.01456" transform="matrix(-0.893973 0.44812 -0.893973 -0.44812 1159.74 -224.571)" stroke="white" stroke-width="2.02913" stroke-linecap="round"/>
<line x1="1.01456" y1="-1.01456" x2="729.275" y2="-1.01456" transform="matrix(-0.893974 0.44812 -0.893973 -0.44812 1505.92 -51.0449)" stroke="white" stroke-width="2.02913" stroke-linecap="round"/>
<line x1="1.01456" y1="-1.01456" x2="857.868" y2="-1.01456" transform="matrix(-0.893973 0.44812 -0.893973 -0.44812 289.619 -8.43506)" stroke="white" stroke-width="2.02913" stroke-linecap="round"/>
<line x1="1.01456" y1="-1.01456" x2="729.275" y2="-1.01456" transform="matrix(-0.893974 0.44812 -0.893973 -0.44812 1390.53 -108.887)" stroke="white" stroke-width="2.02913" stroke-linecap="round"/>
<line x1="1.01456" y1="-1.01456" x2="746.646" y2="-1.01456" transform="matrix(-0.893973 0.44812 -0.893973 -0.44812 74.8027 -16.4365)" stroke="white" stroke-width="2.02913" stroke-linecap="round"/>
</g>
</g>
<path d="M178 59H184.667H218L208 69H188V89L178 99V59Z" fill="#0FB56F"/>
<path d="M269.45 134H261.85V99.1H278.4C280 99.1 281.45 99.3667 282.75 99.9C284.05 100.433 285.15 101.2 286.05 102.2C286.983 103.167 287.7 104.333 288.2 105.7C288.7 107.067 288.95 108.583 288.95 110.25C288.95 112.617 288.417 114.683 287.35 116.45C286.317 118.217 284.733 119.5 282.6 120.3L289.45 134H281L274.9 121.2H269.45V134ZM277.45 114.8C278.583 114.8 279.467 114.517 280.1 113.95C280.767 113.35 281.1 112.483 281.1 111.35V109.15C281.1 108.017 280.767 107.167 280.1 106.6C279.467 106 278.583 105.7 277.45 105.7H269.45V114.8H277.45ZM295.541 134V99.1H319.291V105.85H303.141V113H316.991V119.7H303.141V127.25H319.291V134H295.541ZM337.213 134.6C334.146 134.6 331.546 134.083 329.412 133.05C327.279 131.983 325.463 130.617 323.963 128.95L328.963 123.9C331.329 126.567 334.246 127.9 337.713 127.9C339.579 127.9 340.963 127.517 341.863 126.75C342.763 125.983 343.213 124.967 343.213 123.7C343.213 122.733 342.946 121.933 342.413 121.3C341.879 120.633 340.796 120.183 339.163 119.95L335.713 119.5C332.013 119.033 329.296 117.917 327.563 116.15C325.863 114.383 325.013 112.033 325.013 109.1C325.013 107.533 325.313 106.1 325.913 104.8C326.513 103.5 327.363 102.383 328.463 101.45C329.596 100.517 330.963 99.8 332.563 99.3C334.196 98.7667 336.046 98.5 338.113 98.5C340.746 98.5 343.063 98.9167 345.063 99.75C347.063 100.583 348.779 101.8 350.213 103.4L345.163 108.5C344.329 107.533 343.313 106.75 342.113 106.15C340.946 105.517 339.463 105.2 337.663 105.2C335.963 105.2 334.696 105.5 333.863 106.1C333.029 106.7 332.613 107.533 332.613 108.6C332.613 109.8 332.929 110.667 333.563 111.2C334.229 111.733 335.296 112.117 336.762 112.35L340.213 112.9C343.813 113.467 346.479 114.583 348.213 116.25C349.946 117.883 350.813 120.217 350.813 123.25C350.813 124.917 350.513 126.45 349.913 127.85C349.313 129.25 348.429 130.45 347.263 131.45C346.129 132.45 344.713 133.233 343.013 133.8C341.313 134.333 339.379 134.6 337.213 134.6ZM357.114 134V99.1H373.614C375.247 99.1 376.714 99.3833 378.014 99.95C379.314 100.483 380.414 101.233 381.314 102.2C382.247 103.167 382.964 104.35 383.464 105.75C383.964 107.117 384.214 108.617 384.214 110.25C384.214 111.917 383.964 113.433 383.464 114.8C382.964 116.167 382.247 117.333 381.314 118.3C380.414 119.267 379.314 120.033 378.014 120.6C376.714 121.133 375.247 121.4 373.614 121.4H364.714V134H357.114ZM364.714 114.8H372.714C373.847 114.8 374.73 114.517 375.364 113.95C376.03 113.35 376.364 112.483 376.364 111.35V109.15C376.364 108.017 376.03 107.167 375.364 106.6C374.73 106 373.847 105.7 372.714 105.7H364.714V114.8ZM403.926 134.6C401.626 134.6 399.526 134.217 397.626 133.45C395.726 132.683 394.11 131.55 392.776 130.05C391.443 128.517 390.41 126.633 389.676 124.4C388.943 122.133 388.576 119.517 388.576 116.55C388.576 113.583 388.943 110.983 389.676 108.75C390.41 106.483 391.443 104.6 392.776 103.1C394.11 101.567 395.726 100.417 397.626 99.65C399.526 98.8833 401.626 98.5 403.926 98.5C406.226 98.5 408.326 98.8833 410.226 99.65C412.126 100.417 413.743 101.567 415.076 103.1C416.41 104.6 417.443 106.483 418.176 108.75C418.91 110.983 419.276 113.583 419.276 116.55C419.276 119.517 418.91 122.133 418.176 124.4C417.443 126.633 416.41 128.517 415.076 130.05C413.743 131.55 412.126 132.683 410.226 133.45C408.326 134.217 406.226 134.6 403.926 134.6ZM403.926 127.85C406.226 127.85 408.01 127.1 409.276 125.6C410.576 124.1 411.226 121.95 411.226 119.15V113.95C411.226 111.15 410.576 109 409.276 107.5C408.01 106 406.226 105.25 403.926 105.25C401.626 105.25 399.826 106 398.526 107.5C397.26 109 396.626 111.15 396.626 113.95V119.15C396.626 121.95 397.26 124.1 398.526 125.6C399.826 127.1 401.626 127.85 403.926 127.85ZM436.27 117.5L432.92 110.5H432.77V134H425.62V99.1H433.92L443.47 115.6L446.82 122.6H446.97V99.1H454.12V134H445.82L436.27 117.5ZM473.101 134.6C470.035 134.6 467.435 134.083 465.301 133.05C463.168 131.983 461.351 130.617 459.851 128.95L464.851 123.9C467.218 126.567 470.135 127.9 473.601 127.9C475.468 127.9 476.851 127.517 477.751 126.75C478.651 125.983 479.101 124.967 479.101 123.7C479.101 122.733 478.835 121.933 478.301 121.3C477.768 120.633 476.685 120.183 475.051 119.95L471.601 119.5C467.901 119.033 465.185 117.917 463.451 116.15C461.751 114.383 460.901 112.033 460.901 109.1C460.901 107.533 461.201 106.1 461.801 104.8C462.401 103.5 463.251 102.383 464.351 101.45C465.485 100.517 466.851 99.8 468.451 99.3C470.085 98.7667 471.935 98.5 474.001 98.5C476.635 98.5 478.951 98.9167 480.951 99.75C482.951 100.583 484.668 101.8 486.101 103.4L481.051 108.5C480.218 107.533 479.201 106.75 478.001 106.15C476.835 105.517 475.351 105.2 473.551 105.2C471.851 105.2 470.585 105.5 469.751 106.1C468.918 106.7 468.501 107.533 468.501 108.6C468.501 109.8 468.818 110.667 469.451 111.2C470.118 111.733 471.185 112.117 472.651 112.35L476.101 112.9C479.701 113.467 482.368 114.583 484.101 116.25C485.835 117.883 486.701 120.217 486.701 123.25C486.701 124.917 486.401 126.45 485.801 127.85C485.201 129.25 484.318 130.45 483.151 131.45C482.018 132.45 480.601 133.233 478.901 133.8C477.201 134.333 475.268 134.6 473.101 134.6ZM491.652 134V127.95H496.152V105.15H491.652V99.1H508.252V105.15H503.752V127.95H508.252V134H491.652ZM522.684 134L511.434 99.1H519.134L524.334 115.85L527.084 126.8H527.234L529.884 115.85L535.084 99.1H542.534L531.184 134H522.684ZM547.104 134V99.1H570.854V105.85H554.704V113H568.554V119.7H554.704V127.25H570.854V134H547.104ZM606.608 134L598.708 99.1H606.208L609.508 115.85L611.358 125.55H611.508L613.708 115.85L617.558 99.1H625.858L629.758 115.85L631.908 125.55H632.058L633.908 115.85L637.258 99.1H644.458L636.358 134H627.708L623.308 115.1L621.608 107.45H621.458L619.708 115.1L615.308 134H606.608ZM649.741 134V99.1H673.491V105.85H657.341V113H671.191V119.7H657.341V127.25H673.491V134H649.741ZM680.112 99.1H697.062C699.962 99.1 702.212 99.9167 703.812 101.55C705.445 103.183 706.262 105.35 706.262 108.05C706.262 109.383 706.078 110.517 705.712 111.45C705.378 112.383 704.912 113.15 704.312 113.75C703.745 114.35 703.062 114.8 702.262 115.1C701.495 115.367 700.662 115.517 699.762 115.55V115.85C700.595 115.85 701.462 116 702.362 116.3C703.295 116.6 704.145 117.083 704.912 117.75C705.678 118.383 706.312 119.217 706.812 120.25C707.345 121.283 707.612 122.55 707.612 124.05C707.612 125.417 707.378 126.717 706.912 127.95C706.478 129.15 705.862 130.2 705.062 131.1C704.262 132 703.312 132.717 702.212 133.25C701.112 133.75 699.912 134 698.612 134H680.112V99.1ZM687.712 127.6H696.462C697.462 127.6 698.245 127.333 698.812 126.8C699.412 126.233 699.712 125.45 699.712 124.45V122.75C699.712 121.75 699.412 120.983 698.812 120.45C698.245 119.883 697.462 119.6 696.462 119.6H687.712V127.6ZM687.712 113.4H695.262C696.262 113.4 697.045 113.117 697.612 112.55C698.178 111.983 698.462 111.2 698.462 110.2V108.7C698.462 107.7 698.178 106.917 697.612 106.35C697.045 105.783 696.262 105.5 695.262 105.5H687.712V113.4ZM725.278 99.1H738.428C740.728 99.1 742.828 99.4667 744.728 100.2C746.628 100.933 748.244 102.033 749.578 103.5C750.911 104.933 751.944 106.75 752.678 108.95C753.411 111.117 753.778 113.65 753.778 116.55C753.778 119.45 753.411 122 752.678 124.2C751.944 126.367 750.911 128.183 749.578 129.65C748.244 131.083 746.628 132.167 744.728 132.9C742.828 133.633 740.728 134 738.428 134H725.278V99.1ZM738.428 127.25C740.694 127.25 742.478 126.617 743.778 125.35C745.078 124.083 745.728 122.05 745.728 119.25V113.85C745.728 111.05 745.078 109.017 743.778 107.75C742.478 106.483 740.694 105.85 738.428 105.85H732.878V127.25H738.428ZM760.141 134V99.1H783.891V105.85H767.741V113H781.591V119.7H767.741V127.25H783.891V134H760.141ZM801.812 134.6C798.745 134.6 796.145 134.083 794.012 133.05C791.879 131.983 790.062 130.617 788.562 128.95L793.562 123.9C795.929 126.567 798.845 127.9 802.312 127.9C804.179 127.9 805.562 127.517 806.462 126.75C807.362 125.983 807.812 124.967 807.812 123.7C807.812 122.733 807.545 121.933 807.012 121.3C806.479 120.633 805.395 120.183 803.762 119.95L800.312 119.5C796.612 119.033 793.895 117.917 792.162 116.15C790.462 114.383 789.612 112.033 789.612 109.1C789.612 107.533 789.912 106.1 790.512 104.8C791.112 103.5 791.962 102.383 793.062 101.45C794.195 100.517 795.562 99.8 797.162 99.3C798.795 98.7667 800.645 98.5 802.712 98.5C805.345 98.5 807.662 98.9167 809.662 99.75C811.662 100.583 813.379 101.8 814.812 103.4L809.762 108.5C808.929 107.533 807.912 106.75 806.712 106.15C805.545 105.517 804.062 105.2 802.262 105.2C800.562 105.2 799.295 105.5 798.462 106.1C797.629 106.7 797.212 107.533 797.212 108.6C797.212 109.8 797.529 110.667 798.162 111.2C798.829 111.733 799.895 112.117 801.362 112.35L804.812 112.9C808.412 113.467 811.079 114.583 812.812 116.25C814.545 117.883 815.412 120.217 815.412 123.25C815.412 124.917 815.112 126.45 814.512 127.85C813.912 129.25 813.029 130.45 811.862 131.45C810.729 132.45 809.312 133.233 807.612 133.8C805.912 134.333 803.979 134.6 801.812 134.6ZM820.363 134V127.95H824.863V105.15H820.363V99.1H836.963V105.15H832.463V127.95H836.963V134H820.363ZM865.445 128.45H865.195C864.929 130.217 864.029 131.683 862.495 132.85C860.962 134.017 858.879 134.6 856.245 134.6C854.245 134.6 852.379 134.217 850.645 133.45C848.912 132.683 847.395 131.55 846.095 130.05C844.795 128.55 843.779 126.683 843.045 124.45C842.312 122.217 841.945 119.633 841.945 116.7C841.945 113.767 842.329 111.167 843.095 108.9C843.862 106.633 844.929 104.733 846.295 103.2C847.695 101.667 849.362 100.5 851.295 99.7C853.229 98.9 855.379 98.5 857.745 98.5C860.879 98.5 863.579 99.1833 865.845 100.55C868.112 101.883 869.895 103.9 871.195 106.6L864.995 110.15C864.462 108.783 863.629 107.633 862.495 106.7C861.362 105.733 859.779 105.25 857.745 105.25C855.379 105.25 853.495 105.933 852.095 107.3C850.695 108.667 849.995 110.817 849.995 113.75V119.35C849.995 122.25 850.695 124.4 852.095 125.8C853.495 127.167 855.379 127.85 857.745 127.85C858.679 127.85 859.562 127.75 860.395 127.55C861.229 127.317 861.962 126.983 862.595 126.55C863.229 126.083 863.712 125.533 864.045 124.9C864.412 124.267 864.595 123.517 864.595 122.65V120.9H858.095V114.55H871.845V134H865.445V128.45ZM889.883 117.5L886.533 110.5H886.383V134H879.233V99.1H887.533L897.083 115.6L900.433 122.6H900.583V99.1H907.733V134H899.433L889.883 117.5Z" fill="white"/>
<defs>
<filter id="filter0_b_1649_1496" x="-33" y="-33" width="1168" height="275" filterUnits="userSpaceOnUse" color-interpolation-filters="sRGB">
<feFlood flood-opacity="0" result="BackgroundImageFix"/>
<feGaussianBlur in="BackgroundImageFix" stdDeviation="16.5"/>
<feComposite in2="SourceAlpha" operator="in" result="effect1_backgroundBlur_1649_1496"/>
<feBlend mode="normal" in="SourceGraphic" in2="effect1_backgroundBlur_1649_1496" result="shape"/>
</filter>
</defs>
</svg>
