<svg width="250" height="32" viewBox="0 0 250 32" fill="none" xmlns="http://www.w3.org/2000/svg">
<path d="M33 5.60584L27.0985 0L16.5 10.3942L5.78102 0L0 5.60584L10.719 16L0 26.2774L5.78102 32L16.5 21.6058L27.0985 32L33 26.2774L22.281 16L33 5.60584Z" fill="#0FB56F"/>
<path d="M51.2489 32H40V0H51.2489C60.5415 0 68 7.12409 68 16C68 24.8759 60.5415 32 51.2489 32Z" fill="#0FB56F"/>
<path d="M87.2232 16L99 27.0222C95.9957 30.2222 91.6695 32 87.2232 32C78.3305 32 71 24.7704 71 16C71 7.22963 78.3305 0 87.2232 0C91.5494 0 95.7554 1.65926 98.7597 4.74074L87.2232 16Z" fill="#0FB56F"/>
<path d="M145 5.93455L139.194 0L116.331 20.48L106.29 10.0073L100 15.5927L115.847 32L145 5.93455Z" fill="#0FB56F"/>
<path d="M147 25H140V32H147V25Z" fill="white"/>
<path d="M166.011 23.5055V25.0182C166.011 26.2982 164.923 27.3455 163.593 27.3455H159.967C158.637 27.3455 157.549 26.2982 157.549 25.0182V13.4982H166.011V8.61091H157.549V0H152.956V8.61091H148V13.4982H152.956V25.6C152.956 29.0909 155.978 32 159.604 32H163.352C166.978 32 170 29.0909 170 25.6L166.011 23.5055Z" fill="white"/>
<path d="M197 20.5C197 14.175 191.6 9 185 9C178.4 9 173 14.175 173 20.5C173 26.825 178.4 32 185 32C188.96 32 192.68 30.16 194.96 26.94L191.24 24.525C189.92 26.365 187.64 27.63 185.12 27.63C181.88 27.63 179 25.56 178.04 22.685H196.88C196.88 21.995 197 21.305 197 20.5ZM185 13.37C188.24 13.37 191 15.325 192.08 18.085H177.92C179 15.325 181.76 13.37 185 13.37Z" fill="white"/>
<path d="M213.048 9C205.099 9 201.124 12.5748 201.124 12.5748C201.248 12.6901 204.602 16.0343 204.602 16.0343C204.602 16.0343 205.596 13.4973 212.427 13.4973C217.768 13.4973 217.147 18.11 217.147 18.11C217.147 18.11 201 16.3803 201 25.4903C201 34.6003 212.924 31.4867 212.924 31.4867C212.924 31.4867 215.284 30.4489 217.023 28.6038C217.023 30.1029 217.023 31.948 217.023 31.948H221.991V16.0343C222.115 16.0343 220.998 9 213.048 9ZM217.147 25.1443C217.147 25.1443 207.459 31.3714 205.72 26.8741C203.112 20.4163 217.147 21.6848 217.147 21.6848V25.1443Z" fill="white"/>
<path d="M248.308 10.5233C245.459 6.82838 241.494 10.8697 240.627 12.3708C240.379 11.7934 240.008 11.2161 239.636 10.5233C237.158 7.29025 233.814 9.94597 232.451 11.678V10.1769H227V32H232.451V17.1049C232.451 13.0636 235.92 13.2945 235.92 15.8347V16.0657V32H241.247V18.0286C241.247 17.5667 241.247 16.9894 241.247 16.5275C241.247 12.9481 244.715 12.9481 244.715 15.8347V16.0657V32H249.918V18.0286C250.042 15.2574 250.29 13.179 248.308 10.5233Z" fill="white"/>
</svg>
