<svg width="106" height="25" viewBox="0 0 106 25" fill="none" xmlns="http://www.w3.org/2000/svg">
<path d="M65.4993 7.80029C65.4993 8.62886 66.1707 9.30029 66.9987 9.30029C67.8266 9.30029 68.498 8.62886 68.498 7.80029C68.498 6.97172 67.8266 6.30029 66.9987 6.30029C66.1707 6.30029 65.4993 6.97172 65.4993 7.80029Z" stroke="#0FB56F" stroke-linecap="round" stroke-linejoin="round"/>
<path d="M65 7.80029H26.5551C24.548 7.80029 22.5915 8.42934 20.9605 9.599L0.599999 24.2003" stroke="#0FB56F" stroke-linecap="round"/>
<path d="M75.5088 10.2002L78.0388 4.1502H75.3988V5.4402H74.4288V3.2202H79.1588V4.2002L76.6988 10.2002H75.5088ZM82.8149 10.3202C82.4283 10.3202 82.0816 10.2569 81.7749 10.1302C81.4749 10.0035 81.2183 9.82353 81.0049 9.5902C80.7983 9.3502 80.6383 9.06353 80.5249 8.7302C80.4116 8.39686 80.3549 8.0202 80.3549 7.6002C80.3549 7.09353 80.4316 6.61686 80.5849 6.1702C80.7383 5.72353 80.9349 5.31353 81.1749 4.9402C81.4149 4.56686 81.6816 4.23686 81.9749 3.9502C82.2749 3.65686 82.5683 3.41353 82.8549 3.2202H84.3549C83.9616 3.50686 83.6083 3.78353 83.2949 4.0502C82.9816 4.31686 82.7083 4.59019 82.4749 4.87019C82.2416 5.15019 82.0449 5.44686 81.8849 5.76019C81.7316 6.07353 81.6116 6.41686 81.5249 6.7902L81.5949 6.8102C81.6683 6.6702 81.7516 6.5402 81.8449 6.4202C81.9449 6.29353 82.0583 6.18353 82.1849 6.0902C82.3183 5.99686 82.4683 5.92353 82.6349 5.8702C82.8016 5.81686 82.9949 5.7902 83.2149 5.7902C83.5083 5.7902 83.7783 5.8402 84.0249 5.9402C84.2783 6.0402 84.4949 6.18686 84.6749 6.3802C84.8616 6.56686 85.0049 6.79353 85.1049 7.0602C85.2116 7.32686 85.2649 7.62353 85.2649 7.9502C85.2649 8.30353 85.2049 8.62686 85.0849 8.9202C84.9716 9.20686 84.8083 9.45353 84.5949 9.6602C84.3816 9.86686 84.1216 10.0302 83.8149 10.1502C83.5149 10.2635 83.1816 10.3202 82.8149 10.3202ZM82.8149 9.4002C83.2216 9.4002 83.5383 9.29353 83.7649 9.0802C83.9916 8.8602 84.1049 8.5402 84.1049 8.1202V7.9802C84.1049 7.5602 83.9916 7.24353 83.7649 7.0302C83.5383 6.8102 83.2216 6.7002 82.8149 6.7002C82.4083 6.7002 82.0916 6.8102 81.8649 7.0302C81.6383 7.24353 81.5249 7.5602 81.5249 7.9802V8.1202C81.5249 8.5402 81.6383 8.8602 81.8649 9.0802C82.0916 9.29353 82.4083 9.4002 82.8149 9.4002ZM88.791 10.3202C88.3843 10.3202 88.0243 10.2702 87.711 10.1702C87.4043 10.0635 87.1443 9.9202 86.931 9.7402C86.7243 9.5602 86.5643 9.34686 86.451 9.1002C86.3443 8.85353 86.291 8.58686 86.291 8.3002C86.291 7.83353 86.4177 7.4602 86.671 7.1802C86.931 6.89353 87.271 6.69353 87.691 6.5802V6.5002C87.331 6.37353 87.041 6.17353 86.821 5.9002C86.6077 5.62686 86.501 5.2902 86.501 4.8902C86.501 4.62353 86.551 4.38019 86.651 4.16019C86.7577 3.9402 86.9077 3.75353 87.101 3.6002C87.2943 3.4402 87.5343 3.31686 87.821 3.2302C88.1077 3.14353 88.431 3.10019 88.791 3.10019C89.151 3.10019 89.4743 3.14353 89.761 3.2302C90.0477 3.31686 90.2877 3.4402 90.481 3.6002C90.6743 3.75353 90.821 3.9402 90.921 4.16019C91.0277 4.38019 91.081 4.62353 91.081 4.8902C91.081 5.2902 90.971 5.62686 90.751 5.9002C90.5377 6.17353 90.251 6.37353 89.891 6.5002V6.5802C90.311 6.69353 90.6477 6.89353 90.901 7.1802C91.161 7.4602 91.291 7.83353 91.291 8.3002C91.291 8.58686 91.2343 8.85353 91.121 9.1002C91.0143 9.34686 90.8543 9.5602 90.641 9.7402C90.4343 9.9202 90.1743 10.0635 89.861 10.1702C89.5543 10.2702 89.1977 10.3202 88.791 10.3202ZM88.791 9.4102C89.211 9.4102 89.5343 9.31353 89.761 9.1202C89.9943 8.92686 90.111 8.65686 90.111 8.3102V8.1102C90.111 7.76353 89.9943 7.49353 89.761 7.3002C89.5343 7.10686 89.211 7.0102 88.791 7.0102C88.371 7.0102 88.0443 7.10686 87.811 7.3002C87.5843 7.49353 87.471 7.76353 87.471 8.1102V8.3102C87.471 8.65686 87.5843 8.92686 87.811 9.1202C88.0443 9.31353 88.371 9.4102 88.791 9.4102ZM88.791 6.1402C89.1777 6.1402 89.471 6.05686 89.671 5.8902C89.8777 5.72353 89.981 5.4802 89.981 5.1602V4.9902C89.981 4.6702 89.8777 4.42686 89.671 4.26019C89.471 4.09353 89.1777 4.0102 88.791 4.0102C88.4043 4.0102 88.1077 4.09353 87.901 4.26019C87.701 4.42686 87.601 4.6702 87.601 4.9902V5.1602C87.601 5.4802 87.701 5.72353 87.901 5.8902C88.1077 6.05686 88.4043 6.1402 88.791 6.1402ZM94.9304 5.00019H96.0204V5.8602H96.0704C96.1837 5.54686 96.3671 5.30686 96.6204 5.14019C96.8804 4.96686 97.1837 4.8802 97.5304 4.8802C98.1904 4.8802 98.7004 5.1202 99.0604 5.6002C99.4204 6.07353 99.6004 6.7402 99.6004 7.6002C99.6004 8.4602 99.4204 9.1302 99.0604 9.6102C98.7004 10.0835 98.1904 10.3202 97.5304 10.3202C97.1837 10.3202 96.8804 10.2335 96.6204 10.0602C96.3671 9.88686 96.1837 9.64686 96.0704 9.3402H96.0204V12.2002H94.9304V5.00019ZM97.2004 9.3802C97.5804 9.3802 97.8837 9.2602 98.1104 9.0202C98.3371 8.77353 98.4504 8.4502 98.4504 8.0502V7.1502C98.4504 6.7502 98.3371 6.4302 98.1104 6.1902C97.8837 5.94353 97.5804 5.8202 97.2004 5.8202C96.8671 5.8202 96.5871 5.90353 96.3604 6.0702C96.1337 6.2302 96.0204 6.44353 96.0204 6.7102V8.4902C96.0204 8.75686 96.1337 8.97353 96.3604 9.1402C96.5871 9.3002 96.8671 9.3802 97.2004 9.3802ZM100.132 10.2002L101.962 7.5702L100.182 5.00019H101.442L102.612 6.8102H102.642L103.842 5.00019H105.002L103.222 7.5602L105.032 10.2002H103.772L102.572 8.3102H102.542L101.292 10.2002H100.132Z" fill="#0FB56F"/>
</svg>
