<svg width="196" height="47" viewBox="0 0 196 47" fill="none" xmlns="http://www.w3.org/2000/svg">
<circle cx="3" cy="3" r="2.5" transform="matrix(-1 0 0 1 129 12)" stroke="#0FB56F" stroke-linecap="round" stroke-linejoin="round"/>
<path d="M123 15H50.1796C46.3706 15 42.657 16.1918 39.5594 18.4083L1 46" stroke="#0FB56F" stroke-linecap="round"/>
<path d="M142.078 18L146.632 7.11H141.88V9.432H140.134V5.436H148.648V7.2L144.22 18H142.078ZM155.229 18.216C154.533 18.216 153.909 18.102 153.357 17.874C152.817 17.646 152.355 17.322 151.971 16.902C151.599 16.47 151.311 15.954 151.107 15.354C150.903 14.754 150.801 14.076 150.801 13.32C150.801 12.408 150.939 11.55 151.215 10.746C151.491 9.942 151.845 9.204 152.277 8.532C152.709 7.86 153.189 7.266 153.717 6.75C154.257 6.222 154.785 5.784 155.301 5.436H158.001C157.293 5.952 156.657 6.45 156.093 6.93C155.529 7.41 155.037 7.902 154.617 8.406C154.197 8.91 153.843 9.444 153.555 10.008C153.279 10.572 153.063 11.19 152.907 11.862L153.033 11.898C153.165 11.646 153.315 11.412 153.483 11.196C153.663 10.968 153.867 10.77 154.095 10.602C154.335 10.434 154.605 10.302 154.905 10.206C155.205 10.11 155.553 10.062 155.949 10.062C156.477 10.062 156.963 10.152 157.407 10.332C157.863 10.512 158.253 10.776 158.577 11.124C158.913 11.46 159.171 11.868 159.351 12.348C159.543 12.828 159.639 13.362 159.639 13.95C159.639 14.586 159.531 15.168 159.315 15.696C159.111 16.212 158.817 16.656 158.433 17.028C158.049 17.4 157.581 17.694 157.029 17.91C156.489 18.114 155.889 18.216 155.229 18.216ZM155.229 16.56C155.961 16.56 156.531 16.368 156.939 15.984C157.347 15.588 157.551 15.012 157.551 14.256V14.004C157.551 13.248 157.347 12.678 156.939 12.294C156.531 11.898 155.961 11.7 155.229 11.7C154.497 11.7 153.927 11.898 153.519 12.294C153.111 12.678 152.907 13.248 152.907 14.004V14.256C152.907 15.012 153.111 15.588 153.519 15.984C153.927 16.368 154.497 16.56 155.229 16.56ZM165.986 18.216C165.254 18.216 164.606 18.126 164.042 17.946C163.49 17.754 163.022 17.496 162.638 17.172C162.266 16.848 161.978 16.464 161.774 16.02C161.582 15.576 161.486 15.096 161.486 14.58C161.486 13.74 161.714 13.068 162.17 12.564C162.638 12.048 163.25 11.688 164.006 11.484V11.34C163.358 11.112 162.836 10.752 162.44 10.26C162.056 9.768 161.864 9.162 161.864 8.442C161.864 7.962 161.954 7.524 162.134 7.128C162.326 6.732 162.596 6.396 162.944 6.12C163.292 5.832 163.724 5.61 164.24 5.454C164.756 5.298 165.338 5.22 165.986 5.22C166.634 5.22 167.216 5.298 167.732 5.454C168.248 5.61 168.68 5.832 169.028 6.12C169.376 6.396 169.64 6.732 169.82 7.128C170.012 7.524 170.108 7.962 170.108 8.442C170.108 9.162 169.91 9.768 169.514 10.26C169.13 10.752 168.614 11.112 167.966 11.34V11.484C168.722 11.688 169.328 12.048 169.784 12.564C170.252 13.068 170.486 13.74 170.486 14.58C170.486 15.096 170.384 15.576 170.18 16.02C169.988 16.464 169.7 16.848 169.316 17.172C168.944 17.496 168.476 17.754 167.912 17.946C167.36 18.126 166.718 18.216 165.986 18.216ZM165.986 16.578C166.742 16.578 167.324 16.404 167.732 16.056C168.152 15.708 168.362 15.222 168.362 14.598V14.238C168.362 13.614 168.152 13.128 167.732 12.78C167.324 12.432 166.742 12.258 165.986 12.258C165.23 12.258 164.642 12.432 164.222 12.78C163.814 13.128 163.61 13.614 163.61 14.238V14.598C163.61 15.222 163.814 15.708 164.222 16.056C164.642 16.404 165.23 16.578 165.986 16.578ZM165.986 10.692C166.682 10.692 167.21 10.542 167.57 10.242C167.942 9.942 168.128 9.504 168.128 8.928V8.622C168.128 8.046 167.942 7.608 167.57 7.308C167.21 7.008 166.682 6.858 165.986 6.858C165.29 6.858 164.756 7.008 164.384 7.308C164.024 7.608 163.844 8.046 163.844 8.622V8.928C163.844 9.504 164.024 9.942 164.384 10.242C164.756 10.542 165.29 10.692 165.986 10.692ZM177.037 8.64H178.999V10.188H179.089C179.293 9.624 179.623 9.192 180.079 8.892C180.547 8.58 181.093 8.424 181.717 8.424C182.905 8.424 183.823 8.856 184.471 9.72C185.119 10.572 185.443 11.772 185.443 13.32C185.443 14.868 185.119 16.074 184.471 16.938C183.823 17.79 182.905 18.216 181.717 18.216C181.093 18.216 180.547 18.06 180.079 17.748C179.623 17.436 179.293 17.004 179.089 16.452H178.999V21.6H177.037V8.64ZM181.123 16.524C181.807 16.524 182.353 16.308 182.761 15.876C183.169 15.432 183.373 14.85 183.373 14.13V12.51C183.373 11.79 183.169 11.214 182.761 10.782C182.353 10.338 181.807 10.116 181.123 10.116C180.523 10.116 180.019 10.266 179.611 10.566C179.203 10.854 178.999 11.238 178.999 11.718V14.922C178.999 15.402 179.203 15.792 179.611 16.092C180.019 16.38 180.523 16.524 181.123 16.524ZM186.399 18L189.693 13.266L186.489 8.64H188.757L190.863 11.898H190.917L193.077 8.64H195.165L191.961 13.248L195.219 18H192.951L190.791 14.598H190.737L188.487 18H186.399Z" fill="#0FB56F"/>
</svg>
