<svg width="187" height="48" viewBox="0 0 187 48" fill="none" xmlns="http://www.w3.org/2000/svg">
<path d="M120.7 17.7998C120.7 16.9712 120.029 16.2998 119.201 16.2998C118.373 16.2998 117.701 16.9712 117.701 17.7998C117.701 18.6284 118.373 19.2998 119.201 19.2998C120.029 19.2998 120.7 18.6284 120.7 17.7998Z" stroke="#0FB56F" stroke-linecap="round" stroke-linejoin="round"/>
<path d="M121.199 17.8003H159.644C161.651 17.8003 163.608 17.1712 165.239 16.0016L185.599 1.40029" stroke="#0FB56F" stroke-linecap="round"/>
<path d="M0.86 11.8208H6.13V18.8008H5V12.8208H1.99V18.8008H0.86V11.8208ZM9.81219 18.9208C9.43885 18.9208 9.10552 18.8574 8.81219 18.7308C8.51885 18.6041 8.26885 18.4241 8.06219 18.1908C7.85552 17.9508 7.69552 17.6641 7.58219 17.3308C7.47552 16.9908 7.42219 16.6141 7.42219 16.2008C7.42219 15.7874 7.47552 15.4141 7.58219 15.0808C7.69552 14.7408 7.85552 14.4541 8.06219 14.2208C8.26885 13.9808 8.51885 13.7974 8.81219 13.6708C9.10552 13.5441 9.43885 13.4808 9.81219 13.4808C10.1922 13.4808 10.5255 13.5474 10.8122 13.6808C11.1055 13.8141 11.3489 14.0008 11.5422 14.2408C11.7355 14.4741 11.8789 14.7474 11.9722 15.0608C12.0722 15.3741 12.1222 15.7108 12.1222 16.0708V16.4808H8.55219V16.6508C8.55219 17.0508 8.66885 17.3808 8.90219 17.6408C9.14219 17.8941 9.48219 18.0208 9.92219 18.0208C10.2422 18.0208 10.5122 17.9508 10.7322 17.8108C10.9522 17.6708 11.1389 17.4808 11.2922 17.2408L11.9322 17.8708C11.7389 18.1908 11.4589 18.4474 11.0922 18.6408C10.7255 18.8274 10.2989 18.9208 9.81219 18.9208ZM9.81219 14.3308C9.62552 14.3308 9.45219 14.3641 9.29219 14.4308C9.13885 14.4974 9.00552 14.5908 8.89219 14.7108C8.78552 14.8308 8.70219 14.9741 8.64219 15.1408C8.58219 15.3074 8.55219 15.4908 8.55219 15.6908V15.7608H10.9722V15.6608C10.9722 15.2608 10.8689 14.9408 10.6622 14.7008C10.4555 14.4541 10.1722 14.3308 9.81219 14.3308ZM13.3288 13.6008H14.4188V14.4608H14.4688C14.5822 14.1474 14.7655 13.9074 15.0188 13.7408C15.2788 13.5674 15.5822 13.4808 15.9288 13.4808C16.5888 13.4808 17.0988 13.7208 17.4588 14.2008C17.8188 14.6741 17.9988 15.3408 17.9988 16.2008C17.9988 17.0608 17.8188 17.7308 17.4588 18.2108C17.0988 18.6841 16.5888 18.9208 15.9288 18.9208C15.5822 18.9208 15.2788 18.8341 15.0188 18.6608C14.7655 18.4874 14.5822 18.2474 14.4688 17.9408H14.4188V20.8008H13.3288V13.6008ZM15.5988 17.9808C15.9788 17.9808 16.2822 17.8608 16.5088 17.6208C16.7355 17.3741 16.8488 17.0508 16.8488 16.6508V15.7508C16.8488 15.3508 16.7355 15.0308 16.5088 14.7908C16.2822 14.5441 15.9788 14.4208 15.5988 14.4208C15.2655 14.4208 14.9855 14.5041 14.7588 14.6708C14.5322 14.8308 14.4188 15.0441 14.4188 15.3108V17.0908C14.4188 17.3574 14.5322 17.5741 14.7588 17.7408C14.9855 17.9008 15.2655 17.9808 15.5988 17.9808ZM21.2868 18.9208C20.9135 18.9208 20.5801 18.8574 20.2868 18.7308C19.9935 18.6041 19.7435 18.4241 19.5368 18.1908C19.3301 17.9508 19.1701 17.6641 19.0568 17.3308C18.9501 16.9908 18.8968 16.6141 18.8968 16.2008C18.8968 15.7874 18.9501 15.4141 19.0568 15.0808C19.1701 14.7408 19.3301 14.4541 19.5368 14.2208C19.7435 13.9808 19.9935 13.7974 20.2868 13.6708C20.5801 13.5441 20.9135 13.4808 21.2868 13.4808C21.6668 13.4808 22.0001 13.5474 22.2868 13.6808C22.5801 13.8141 22.8235 14.0008 23.0168 14.2408C23.2101 14.4741 23.3535 14.7474 23.4468 15.0608C23.5468 15.3741 23.5968 15.7108 23.5968 16.0708V16.4808H20.0268V16.6508C20.0268 17.0508 20.1435 17.3808 20.3768 17.6408C20.6168 17.8941 20.9568 18.0208 21.3968 18.0208C21.7168 18.0208 21.9868 17.9508 22.2068 17.8108C22.4268 17.6708 22.6135 17.4808 22.7668 17.2408L23.4068 17.8708C23.2135 18.1908 22.9335 18.4474 22.5668 18.6408C22.2001 18.8274 21.7735 18.9208 21.2868 18.9208ZM21.2868 14.3308C21.1001 14.3308 20.9268 14.3641 20.7668 14.4308C20.6135 14.4974 20.4801 14.5908 20.3668 14.7108C20.2601 14.8308 20.1768 14.9741 20.1168 15.1408C20.0568 15.3074 20.0268 15.4908 20.0268 15.6908V15.7608H22.4468V15.6608C22.4468 15.2608 22.3435 14.9408 22.1368 14.7008C21.9301 14.4541 21.6468 14.3308 21.2868 14.3308ZM26.8134 18.9208C26.4401 18.9208 26.1068 18.8574 25.8134 18.7308C25.5201 18.6041 25.2734 18.4241 25.0734 18.1908C24.8734 17.9508 24.7201 17.6641 24.6134 17.3308C24.5068 16.9908 24.4534 16.6141 24.4534 16.2008C24.4534 15.7874 24.5068 15.4141 24.6134 15.0808C24.7201 14.7408 24.8734 14.4541 25.0734 14.2208C25.2734 13.9808 25.5201 13.7974 25.8134 13.6708C26.1068 13.5441 26.4401 13.4808 26.8134 13.4808C27.3334 13.4808 27.7601 13.5974 28.0934 13.8308C28.4268 14.0641 28.6701 14.3741 28.8234 14.7608L27.9234 15.1808C27.8501 14.9408 27.7201 14.7508 27.5334 14.6108C27.3534 14.4641 27.1134 14.3908 26.8134 14.3908C26.4134 14.3908 26.1101 14.5174 25.9034 14.7708C25.7034 15.0174 25.6034 15.3408 25.6034 15.7408V16.6708C25.6034 17.0708 25.7034 17.3974 25.9034 17.6508C26.1101 17.8974 26.4134 18.0208 26.8134 18.0208C27.1334 18.0208 27.3868 17.9441 27.5734 17.7908C27.7668 17.6308 27.9201 17.4208 28.0334 17.1608L28.8634 17.6008C28.6901 18.0274 28.4301 18.3541 28.0834 18.5808C27.7368 18.8074 27.3134 18.9208 26.8134 18.9208ZM31.0397 14.4908H29.3797V13.6008H33.7897V14.4908H32.1297V18.8008H31.0397V14.4908ZM34.7741 13.6008H35.8641V14.4608H35.9141C36.0275 14.1474 36.2108 13.9074 36.4641 13.7408C36.7241 13.5674 37.0275 13.4808 37.3741 13.4808C38.0341 13.4808 38.5441 13.7208 38.9041 14.2008C39.2641 14.6741 39.4441 15.3408 39.4441 16.2008C39.4441 17.0608 39.2641 17.7308 38.9041 18.2108C38.5441 18.6841 38.0341 18.9208 37.3741 18.9208C37.0275 18.9208 36.7241 18.8341 36.4641 18.6608C36.2108 18.4874 36.0275 18.2474 35.9141 17.9408H35.8641V20.8008H34.7741V13.6008ZM37.0441 17.9808C37.4241 17.9808 37.7275 17.8608 37.9541 17.6208C38.1808 17.3741 38.2941 17.0508 38.2941 16.6508V15.7508C38.2941 15.3508 38.1808 15.0308 37.9541 14.7908C37.7275 14.5441 37.4241 14.4208 37.0441 14.4208C36.7108 14.4208 36.4308 14.5041 36.2041 14.6708C35.9775 14.8308 35.8641 15.0441 35.8641 15.3108V17.0908C35.8641 17.3574 35.9775 17.5741 36.2041 17.7408C36.4308 17.9008 36.7108 17.9808 37.0441 17.9808ZM42.7321 18.9208C42.3721 18.9208 42.0421 18.8574 41.7421 18.7308C41.4488 18.6041 41.1988 18.4241 40.9921 18.1908C40.7854 17.9508 40.6254 17.6641 40.5121 17.3308C40.3988 16.9908 40.3421 16.6141 40.3421 16.2008C40.3421 15.7874 40.3988 15.4141 40.5121 15.0808C40.6254 14.7408 40.7854 14.4541 40.9921 14.2208C41.1988 13.9808 41.4488 13.7974 41.7421 13.6708C42.0421 13.5441 42.3721 13.4808 42.7321 13.4808C43.0921 13.4808 43.4188 13.5441 43.7121 13.6708C44.0121 13.7974 44.2654 13.9808 44.4721 14.2208C44.6788 14.4541 44.8388 14.7408 44.9521 15.0808C45.0654 15.4141 45.1221 15.7874 45.1221 16.2008C45.1221 16.6141 45.0654 16.9908 44.9521 17.3308C44.8388 17.6641 44.6788 17.9508 44.4721 18.1908C44.2654 18.4241 44.0121 18.6041 43.7121 18.7308C43.4188 18.8574 43.0921 18.9208 42.7321 18.9208ZM42.7321 18.0208C43.1054 18.0208 43.4054 17.9074 43.6321 17.6808C43.8588 17.4474 43.9721 17.1008 43.9721 16.6408V15.7608C43.9721 15.3008 43.8588 14.9574 43.6321 14.7308C43.4054 14.4974 43.1054 14.3808 42.7321 14.3808C42.3588 14.3808 42.0588 14.4974 41.8321 14.7308C41.6054 14.9574 41.4921 15.3008 41.4921 15.7608V16.6408C41.4921 17.1008 41.6054 17.4474 41.8321 17.6808C42.0588 17.9074 42.3588 18.0208 42.7321 18.0208ZM48.3766 18.9208C48.0033 18.9208 47.67 18.8574 47.3766 18.7308C47.0833 18.6041 46.8333 18.4241 46.6266 18.1908C46.42 17.9508 46.26 17.6641 46.1466 17.3308C46.04 16.9908 45.9866 16.6141 45.9866 16.2008C45.9866 15.7874 46.04 15.4141 46.1466 15.0808C46.26 14.7408 46.42 14.4541 46.6266 14.2208C46.8333 13.9808 47.0833 13.7974 47.3766 13.6708C47.67 13.5441 48.0033 13.4808 48.3766 13.4808C48.7566 13.4808 49.09 13.5474 49.3766 13.6808C49.67 13.8141 49.9133 14.0008 50.1066 14.2408C50.3 14.4741 50.4433 14.7474 50.5366 15.0608C50.6366 15.3741 50.6866 15.7108 50.6866 16.0708V16.4808H47.1166V16.6508C47.1166 17.0508 47.2333 17.3808 47.4666 17.6408C47.7066 17.8941 48.0466 18.0208 48.4866 18.0208C48.8066 18.0208 49.0766 17.9508 49.2966 17.8108C49.5166 17.6708 49.7033 17.4808 49.8566 17.2408L50.4966 17.8708C50.3033 18.1908 50.0233 18.4474 49.6566 18.6408C49.29 18.8274 48.8633 18.9208 48.3766 18.9208ZM48.3766 14.3308C48.19 14.3308 48.0166 14.3641 47.8566 14.4308C47.7033 14.4974 47.57 14.5908 47.4566 14.7108C47.35 14.8308 47.2666 14.9741 47.2066 15.1408C47.1466 15.3074 47.1166 15.4908 47.1166 15.6908V15.7608H49.5366V15.6608C49.5366 15.2608 49.4333 14.9408 49.2266 14.7008C49.02 14.4541 48.7366 14.3308 48.3766 14.3308ZM51.8933 13.6008H52.9833V15.6908H55.2233V13.6008H56.3133V18.8008H55.2233V16.5808H52.9833V18.8008H51.8933V13.6008ZM57.8698 13.6008H58.9398V16.1408L58.8398 17.3708H58.8798L59.4998 16.2608L61.2998 13.6008H62.2898V18.8008H61.2198V16.2608L61.3198 15.0308H61.2798L60.6598 16.1408L58.8598 18.8008H57.8698V13.6008ZM65.8864 18.9208C65.5131 18.9208 65.1797 18.8574 64.8864 18.7308C64.5931 18.6041 64.3431 18.4241 64.1364 18.1908C63.9297 17.9508 63.7697 17.6641 63.6564 17.3308C63.5497 16.9908 63.4964 16.6141 63.4964 16.2008C63.4964 15.7874 63.5497 15.4141 63.6564 15.0808C63.7697 14.7408 63.9297 14.4541 64.1364 14.2208C64.3431 13.9808 64.5931 13.7974 64.8864 13.6708C65.1797 13.5441 65.5131 13.4808 65.8864 13.4808C66.2664 13.4808 66.5997 13.5474 66.8864 13.6808C67.1797 13.8141 67.4231 14.0008 67.6164 14.2408C67.8097 14.4741 67.9531 14.7474 68.0464 15.0608C68.1464 15.3741 68.1964 15.7108 68.1964 16.0708V16.4808H64.6264V16.6508C64.6264 17.0508 64.7431 17.3808 64.9764 17.6408C65.2164 17.8941 65.5564 18.0208 65.9964 18.0208C66.3164 18.0208 66.5864 17.9508 66.8064 17.8108C67.0264 17.6708 67.2131 17.4808 67.3664 17.2408L68.0064 17.8708C67.8131 18.1908 67.5331 18.4474 67.1664 18.6408C66.7997 18.8274 66.3731 18.9208 65.8864 18.9208ZM65.8864 14.3308C65.6997 14.3308 65.5264 14.3641 65.3664 14.4308C65.2131 14.4974 65.0797 14.5908 64.9664 14.7108C64.8597 14.8308 64.7764 14.9741 64.7164 15.1408C64.6564 15.3074 64.6264 15.4908 64.6264 15.6908V15.7608H67.0464V15.6608C67.0464 15.2608 66.9431 14.9408 66.7364 14.7008C66.5297 14.4541 66.2464 14.3308 65.8864 14.3308ZM71.7663 13.6008H74.5363C74.983 13.6008 75.3263 13.7208 75.5663 13.9608C75.813 14.2008 75.9363 14.5208 75.9363 14.9208C75.9363 15.5741 75.5863 15.9441 74.8863 16.0308V16.0808C75.3063 16.1141 75.6163 16.2374 75.8163 16.4508C76.023 16.6574 76.1263 16.9308 76.1263 17.2708C76.1263 17.4908 76.0897 17.6941 76.0163 17.8808C75.9497 18.0674 75.8497 18.2308 75.7163 18.3708C75.5897 18.5041 75.433 18.6108 75.2463 18.6908C75.0597 18.7641 74.8497 18.8008 74.6163 18.8008H71.7663V13.6008ZM74.3663 17.9708C74.5597 17.9708 74.713 17.9208 74.8263 17.8208C74.9397 17.7208 74.9963 17.5741 74.9963 17.3808V17.1108C74.9963 16.9174 74.9397 16.7708 74.8263 16.6708C74.713 16.5641 74.5597 16.5108 74.3663 16.5108H72.8363V17.9708H74.3663ZM74.2263 15.7608C74.413 15.7608 74.5563 15.7141 74.6563 15.6208C74.7563 15.5274 74.8063 15.3941 74.8063 15.2208V14.9708C74.8063 14.7974 74.7563 14.6641 74.6563 14.5708C74.5563 14.4774 74.413 14.4308 74.2263 14.4308H72.8363V15.7608H74.2263ZM81.8337 18.9208C81.4737 18.9208 81.1437 18.8574 80.8437 18.7308C80.5503 18.6041 80.3003 18.4241 80.0937 18.1908C79.887 17.9508 79.727 17.6641 79.6137 17.3308C79.5003 16.9908 79.4437 16.6141 79.4437 16.2008C79.4437 15.7874 79.5003 15.4141 79.6137 15.0808C79.727 14.7408 79.887 14.4541 80.0937 14.2208C80.3003 13.9808 80.5503 13.7974 80.8437 13.6708C81.1437 13.5441 81.4737 13.4808 81.8337 13.4808C82.1937 13.4808 82.5203 13.5441 82.8137 13.6708C83.1137 13.7974 83.367 13.9808 83.5737 14.2208C83.7803 14.4541 83.9403 14.7408 84.0537 15.0808C84.167 15.4141 84.2237 15.7874 84.2237 16.2008C84.2237 16.6141 84.167 16.9908 84.0537 17.3308C83.9403 17.6641 83.7803 17.9508 83.5737 18.1908C83.367 18.4241 83.1137 18.6041 82.8137 18.7308C82.5203 18.8574 82.1937 18.9208 81.8337 18.9208ZM81.8337 18.0208C82.207 18.0208 82.507 17.9074 82.7337 17.6808C82.9603 17.4474 83.0737 17.1008 83.0737 16.6408V15.7608C83.0737 15.3008 82.9603 14.9574 82.7337 14.7308C82.507 14.4974 82.207 14.3808 81.8337 14.3808C81.4603 14.3808 81.1603 14.4974 80.9337 14.7308C80.707 14.9574 80.5937 15.3008 80.5937 15.7608V16.6408C80.5937 17.1008 80.707 17.4474 80.9337 17.6808C81.1603 17.9074 81.4603 18.0208 81.8337 18.0208ZM84.7189 17.9108H85.3489C85.5422 17.6108 85.6922 17.2341 85.7989 16.7808C85.9122 16.3208 85.9689 15.7574 85.9689 15.0908V13.6008H89.7689V17.9108H90.6489V20.2008H89.6589V18.8008H85.7089V20.2008H84.7189V17.9108ZM88.6789 17.9108V14.4908H87.0089V15.1508C87.0089 15.8508 86.9589 16.4241 86.8589 16.8708C86.7589 17.3108 86.6422 17.6574 86.5089 17.9108H88.6789ZM91.6394 13.6008H92.7294V15.6908H94.9694V13.6008H96.0594V18.8008H94.9694V16.5808H92.7294V18.8008H91.6394V13.6008ZM100.806 13.6008H101.856L99.6659 19.8308C99.6059 20.0041 99.5359 20.1508 99.4559 20.2708C99.3826 20.3974 99.2926 20.4974 99.1859 20.5708C99.0859 20.6508 98.9626 20.7074 98.8159 20.7408C98.6693 20.7808 98.4959 20.8008 98.2959 20.8008H97.6659V19.9108H98.5459L98.8459 19.0308L96.9559 13.6008H98.0459L99.0859 16.6608L99.3859 17.7908H99.4359L99.7659 16.6608L100.806 13.6008ZM0.78 26.6008H1.87V28.7008H2.79L3.65 27.2508C3.79667 27.0041 3.94333 26.8341 4.09 26.7408C4.23667 26.6474 4.42333 26.6008 4.65 26.6008H5.18V27.4908H4.6L3.94 28.5908C3.84 28.7641 3.75 28.8841 3.67 28.9508C3.59667 29.0174 3.49667 29.0674 3.37 29.1008V29.1408C3.50333 29.1674 3.62 29.2174 3.72 29.2908C3.82 29.3574 3.91667 29.4774 4.01 29.6508L4.71 30.9108H5.28V31.8008H4.66C4.44 31.8008 4.25 31.7508 4.09 31.6508C3.93667 31.5508 3.79 31.3741 3.65 31.1208L2.79 29.5808H1.87V31.8008H0.78V26.6008ZM8.36688 31.9208C8.00688 31.9208 7.67688 31.8574 7.37688 31.7308C7.08354 31.6041 6.83354 31.4241 6.62688 31.1908C6.42021 30.9508 6.26021 30.6641 6.14688 30.3308C6.03354 29.9908 5.97688 29.6141 5.97688 29.2008C5.97688 28.7874 6.03354 28.4141 6.14688 28.0808C6.26021 27.7408 6.42021 27.4541 6.62688 27.2208C6.83354 26.9808 7.08354 26.7974 7.37688 26.6708C7.67688 26.5441 8.00688 26.4808 8.36688 26.4808C8.72688 26.4808 9.05354 26.5441 9.34688 26.6708C9.64688 26.7974 9.90021 26.9808 10.1069 27.2208C10.3135 27.4541 10.4735 27.7408 10.5869 28.0808C10.7002 28.4141 10.7569 28.7874 10.7569 29.2008C10.7569 29.6141 10.7002 29.9908 10.5869 30.3308C10.4735 30.6641 10.3135 30.9508 10.1069 31.1908C9.90021 31.4241 9.64688 31.6041 9.34688 31.7308C9.05354 31.8574 8.72688 31.9208 8.36688 31.9208ZM8.36688 31.0208C8.74021 31.0208 9.04021 30.9074 9.26688 30.6808C9.49354 30.4474 9.60688 30.1008 9.60688 29.6408V28.7608C9.60688 28.3008 9.49354 27.9574 9.26688 27.7308C9.04021 27.4974 8.74021 27.3808 8.36688 27.3808C7.99354 27.3808 7.69354 27.4974 7.46688 27.7308C7.24021 27.9574 7.12688 28.3008 7.12688 28.7608V29.6408C7.12688 30.1008 7.24021 30.4474 7.46688 30.6808C7.69354 30.9074 7.99354 31.0208 8.36688 31.0208ZM11.2428 30.9108H11.9228C12.0028 30.8041 12.0728 30.6774 12.1328 30.5308C12.1928 30.3774 12.2428 30.1908 12.2828 29.9708C12.3228 29.7508 12.3528 29.4941 12.3728 29.2008C12.3995 28.9008 12.4128 28.5508 12.4128 28.1508V26.6008H16.1928V31.8008H15.1028V27.4908H13.4628V28.2008C13.4628 28.6808 13.4428 29.1008 13.4028 29.4608C13.3695 29.8208 13.3195 30.1308 13.2528 30.3908C13.1928 30.6508 13.1161 30.8674 13.0228 31.0408C12.9361 31.2074 12.8428 31.3408 12.7428 31.4408C12.6028 31.5808 12.4428 31.6808 12.2628 31.7408C12.0828 31.8008 11.8661 31.8308 11.6128 31.8308H11.2428V30.9108ZM19.8024 31.9208C19.4424 31.9208 19.1124 31.8574 18.8124 31.7308C18.5191 31.6041 18.2691 31.4241 18.0624 31.1908C17.8558 30.9508 17.6958 30.6641 17.5824 30.3308C17.4691 29.9908 17.4124 29.6141 17.4124 29.2008C17.4124 28.7874 17.4691 28.4141 17.5824 28.0808C17.6958 27.7408 17.8558 27.4541 18.0624 27.2208C18.2691 26.9808 18.5191 26.7974 18.8124 26.6708C19.1124 26.5441 19.4424 26.4808 19.8024 26.4808C20.1624 26.4808 20.4891 26.5441 20.7824 26.6708C21.0824 26.7974 21.3358 26.9808 21.5424 27.2208C21.7491 27.4541 21.9091 27.7408 22.0224 28.0808C22.1358 28.4141 22.1924 28.7874 22.1924 29.2008C22.1924 29.6141 22.1358 29.9908 22.0224 30.3308C21.9091 30.6641 21.7491 30.9508 21.5424 31.1908C21.3358 31.4241 21.0824 31.6041 20.7824 31.7308C20.4891 31.8574 20.1624 31.9208 19.8024 31.9208ZM19.8024 31.0208C20.1758 31.0208 20.4758 30.9074 20.7024 30.6808C20.9291 30.4474 21.0424 30.1008 21.0424 29.6408V28.7608C21.0424 28.3008 20.9291 27.9574 20.7024 27.7308C20.4758 27.4974 20.1758 27.3808 19.8024 27.3808C19.4291 27.3808 19.1291 27.4974 18.9024 27.7308C18.6758 27.9574 18.5624 28.3008 18.5624 28.7608V29.6408C18.5624 30.1008 18.6758 30.4474 18.9024 30.6808C19.1291 30.9074 19.4291 31.0208 19.8024 31.0208ZM23.407 26.6008H24.497V28.6908H26.737V26.6008H27.827V31.8008H26.737V29.5808H24.497V31.8008H23.407V26.6008ZM29.3835 26.6008H30.4735V28.7008H31.3935L32.2535 27.2508C32.4002 27.0041 32.5468 26.8341 32.6935 26.7408C32.8402 26.6474 33.0268 26.6008 33.2535 26.6008H33.7835V27.4908H33.2035L32.5435 28.5908C32.4435 28.7641 32.3535 28.8841 32.2735 28.9508C32.2002 29.0174 32.1002 29.0674 31.9735 29.1008V29.1408C32.1068 29.1674 32.2235 29.2174 32.3235 29.2908C32.4235 29.3574 32.5202 29.4774 32.6135 29.6508L33.3135 30.9108H33.8835V31.8008H33.2635C33.0435 31.8008 32.8535 31.7508 32.6935 31.6508C32.5402 31.5508 32.3935 31.3741 32.2535 31.1208L31.3935 29.5808H30.4735V31.8008H29.3835V26.6008ZM38.2571 26.6008H39.3071L37.1171 32.8308C37.0571 33.0041 36.9871 33.1508 36.9071 33.2708C36.8338 33.3974 36.7438 33.4974 36.6371 33.5708C36.5371 33.6508 36.4138 33.7074 36.2671 33.7408C36.1204 33.7808 35.9471 33.8008 35.7471 33.8008H35.1171V32.9108H35.9971L36.2971 32.0308L34.4071 26.6008H35.4971L36.5371 29.6608L36.8371 30.7908H36.8871L37.2171 29.6608L38.2571 26.6008ZM42.5671 26.6008H43.6571V28.6908H45.8971V26.6008H46.9871V31.8008H45.8971V29.5808H43.6571V31.8008H42.5671V26.6008ZM52.3537 31.8008C52.067 31.8008 51.847 31.7208 51.6937 31.5608C51.5403 31.3941 51.447 31.1841 51.4137 30.9308H51.3637C51.2637 31.2574 51.0803 31.5041 50.8137 31.6708C50.547 31.8374 50.2237 31.9208 49.8437 31.9208C49.3037 31.9208 48.887 31.7808 48.5937 31.5008C48.307 31.2208 48.1637 30.8441 48.1637 30.3708C48.1637 29.8508 48.3503 29.4608 48.7237 29.2008C49.1037 28.9408 49.657 28.8108 50.3837 28.8108H51.3237V28.3708C51.3237 28.0508 51.237 27.8041 51.0637 27.6308C50.8903 27.4574 50.6203 27.3708 50.2537 27.3708C49.947 27.3708 49.697 27.4374 49.5037 27.5708C49.3103 27.7041 49.147 27.8741 49.0137 28.0808L48.3637 27.4908C48.537 27.1974 48.7803 26.9574 49.0937 26.7708C49.407 26.5774 49.817 26.4808 50.3237 26.4808C50.997 26.4808 51.5137 26.6374 51.8737 26.9508C52.2337 27.2641 52.4137 27.7141 52.4137 28.3008V30.9108H52.9637V31.8008H52.3537ZM50.1537 31.0908C50.4937 31.0908 50.7737 31.0174 50.9937 30.8708C51.2137 30.7174 51.3237 30.5141 51.3237 30.2608V29.5108H50.4037C49.6503 29.5108 49.2737 29.7441 49.2737 30.2108V30.3908C49.2737 30.6241 49.3503 30.8008 49.5037 30.9208C49.6637 31.0341 49.8803 31.0908 50.1537 31.0908ZM56.3952 26.6008H57.7152L59.1852 29.0608H59.2052L60.6752 26.6008H61.9352V31.8008H60.8652V27.9408H60.8252L60.4852 28.5808L59.1652 30.7808L57.8452 28.5808L57.5052 27.9408H57.4652V31.8008H56.3952V26.6008ZM65.5348 31.9208C65.1748 31.9208 64.8448 31.8574 64.5448 31.7308C64.2515 31.6041 64.0015 31.4241 63.7948 31.1908C63.5882 30.9508 63.4282 30.6641 63.3148 30.3308C63.2015 29.9908 63.1448 29.6141 63.1448 29.2008C63.1448 28.7874 63.2015 28.4141 63.3148 28.0808C63.4282 27.7408 63.5882 27.4541 63.7948 27.2208C64.0015 26.9808 64.2515 26.7974 64.5448 26.6708C64.8448 26.5441 65.1748 26.4808 65.5348 26.4808C65.8948 26.4808 66.2215 26.5441 66.5148 26.6708C66.8148 26.7974 67.0682 26.9808 67.2748 27.2208C67.4815 27.4541 67.6415 27.7408 67.7548 28.0808C67.8682 28.4141 67.9248 28.7874 67.9248 29.2008C67.9248 29.6141 67.8682 29.9908 67.7548 30.3308C67.6415 30.6641 67.4815 30.9508 67.2748 31.1908C67.0682 31.4241 66.8148 31.6041 66.5148 31.7308C66.2215 31.8574 65.8948 31.9208 65.5348 31.9208ZM65.5348 31.0208C65.9082 31.0208 66.2082 30.9074 66.4348 30.6808C66.6615 30.4474 66.7748 30.1008 66.7748 29.6408V28.7608C66.7748 28.3008 66.6615 27.9574 66.4348 27.7308C66.2082 27.4974 65.9082 27.3808 65.5348 27.3808C65.1615 27.3808 64.8615 27.4974 64.6348 27.7308C64.4082 27.9574 64.2948 28.3008 64.2948 28.7608V29.6408C64.2948 30.1008 64.4082 30.4474 64.6348 30.6808C64.8615 30.9074 65.1615 31.0208 65.5348 31.0208ZM71.2487 31.9208C70.8753 31.9208 70.542 31.8608 70.2487 31.7408C69.9553 31.6141 69.7053 31.4174 69.4987 31.1508C69.292 30.8841 69.132 30.5474 69.0187 30.1408C68.912 29.7274 68.8587 29.2308 68.8587 28.6508C68.8587 27.9441 68.9087 27.3374 69.0087 26.8308C69.1153 26.3174 69.2787 25.8941 69.4987 25.5608C69.7253 25.2208 70.0087 24.9608 70.3487 24.7808C70.6953 24.6008 71.1087 24.4908 71.5887 24.4508L73.2487 24.3008V25.3708L71.5287 25.5308C71.2553 25.5574 71.0253 25.6108 70.8387 25.6908C70.6587 25.7708 70.5087 25.8941 70.3887 26.0608C70.2753 26.2208 70.1887 26.4374 70.1287 26.7108C70.0687 26.9774 70.0253 27.3108 69.9987 27.7108H70.0487C70.182 27.3641 70.362 27.1041 70.5887 26.9308C70.822 26.7574 71.1353 26.6708 71.5287 26.6708C71.8353 26.6708 72.1153 26.7308 72.3687 26.8508C72.6287 26.9641 72.852 27.1308 73.0387 27.3508C73.2253 27.5708 73.3687 27.8408 73.4687 28.1608C73.5753 28.4741 73.6287 28.8341 73.6287 29.2408C73.6287 29.6474 73.572 30.0174 73.4587 30.3508C73.3453 30.6774 73.1853 30.9574 72.9787 31.1908C72.772 31.4241 72.522 31.6041 72.2287 31.7308C71.9353 31.8574 71.6087 31.9208 71.2487 31.9208ZM71.2487 31.0208C71.6287 31.0208 71.9287 30.9041 72.1487 30.6708C72.3687 30.4308 72.4787 30.0808 72.4787 29.6208V28.9708C72.4787 28.5108 72.3687 28.1641 72.1487 27.9308C71.9287 27.6908 71.6287 27.5708 71.2487 27.5708C70.8487 27.5708 70.542 27.6774 70.3287 27.8908C70.122 28.1041 70.0187 28.3908 70.0187 28.7508V29.6208C70.0187 30.0808 70.1287 30.4308 70.3487 30.6708C70.5687 30.9041 70.8687 31.0208 71.2487 31.0208ZM74.8425 26.6008H75.9125V29.1408L75.8125 30.3708H75.8525L76.4725 29.2608L78.2725 26.6008H79.2625V31.8008H78.1925V29.2608L78.2925 28.0308H78.2525L77.6325 29.1408L75.8325 31.8008H74.8425V26.6008ZM80.1491 30.9108H80.8291C80.9091 30.8041 80.9791 30.6774 81.0391 30.5308C81.0991 30.3774 81.1491 30.1908 81.1891 29.9708C81.2291 29.7508 81.2591 29.4941 81.2791 29.2008C81.3057 28.9008 81.3191 28.5508 81.3191 28.1508V26.6008H85.0991V31.8008H84.0091V27.4908H82.3691V28.2008C82.3691 28.6808 82.3491 29.1008 82.3091 29.4608C82.2757 29.8208 82.2257 30.1308 82.1591 30.3908C82.0991 30.6508 82.0224 30.8674 81.9291 31.0408C81.8424 31.2074 81.7491 31.3408 81.6491 31.4408C81.5091 31.5808 81.3491 31.6808 81.1691 31.7408C80.9891 31.8008 80.7724 31.8308 80.5191 31.8308H80.1491V30.9108ZM86.6687 26.6008H87.7587V28.3408H89.1887C89.7087 28.3408 90.1287 28.4941 90.4487 28.8008C90.7753 29.1008 90.9387 29.5241 90.9387 30.0708C90.9387 30.6241 90.7787 31.0508 90.4587 31.3508C90.1387 31.6508 89.7187 31.8008 89.1987 31.8008H86.6687V26.6008ZM88.9887 30.9508C89.242 30.9508 89.442 30.8974 89.5887 30.7908C89.7353 30.6774 89.8087 30.5041 89.8087 30.2708V29.8608C89.8087 29.6274 89.7353 29.4574 89.5887 29.3508C89.442 29.2441 89.242 29.1908 88.9887 29.1908H87.7587V30.9508H88.9887ZM92.0495 26.6008H93.1395V28.6908H95.3795V26.6008H96.4695V31.8008H95.3795V29.5808H93.1395V31.8008H92.0495V26.6008ZM100.066 31.9208C99.7061 31.9208 99.3761 31.8574 99.0761 31.7308C98.7828 31.6041 98.5328 31.4241 98.3261 31.1908C98.1194 30.9508 97.9594 30.6641 97.8461 30.3308C97.7328 29.9908 97.6761 29.6141 97.6761 29.2008C97.6761 28.7874 97.7328 28.4141 97.8461 28.0808C97.9594 27.7408 98.1194 27.4541 98.3261 27.2208C98.5328 26.9808 98.7828 26.7974 99.0761 26.6708C99.3761 26.5441 99.7061 26.4808 100.066 26.4808C100.426 26.4808 100.753 26.5441 101.046 26.6708C101.346 26.7974 101.599 26.9808 101.806 27.2208C102.013 27.4541 102.173 27.7408 102.286 28.0808C102.399 28.4141 102.456 28.7874 102.456 29.2008C102.456 29.6141 102.399 29.9908 102.286 30.3308C102.173 30.6641 102.013 30.9508 101.806 31.1908C101.599 31.4241 101.346 31.6041 101.046 31.7308C100.753 31.8574 100.426 31.9208 100.066 31.9208ZM100.066 31.0208C100.439 31.0208 100.739 30.9074 100.966 30.6808C101.193 30.4474 101.306 30.1008 101.306 29.6408V28.7608C101.306 28.3008 101.193 27.9574 100.966 27.7308C100.739 27.4974 100.439 27.3808 100.066 27.3808C99.6928 27.3808 99.3928 27.4974 99.1661 27.7308C98.9394 27.9574 98.8261 28.3008 98.8261 28.7608V29.6408C98.8261 30.1008 98.9394 30.4474 99.1661 30.6808C99.3928 30.9074 99.6928 31.0208 100.066 31.0208ZM103.671 26.6008H104.741V29.1408L104.641 30.3708H104.681L105.301 29.2608L107.101 26.6008H108.091V31.8008H107.021V29.2608L107.121 28.0308H107.081L106.461 29.1408L104.661 31.8008H103.671V26.6008ZM105.891 25.9108C105.491 25.9108 105.171 25.8308 104.931 25.6708C104.697 25.5041 104.511 25.2774 104.371 24.9908L104.171 24.5508L105.061 24.1908L105.401 25.0908C105.467 25.1108 105.544 25.1274 105.631 25.1408C105.724 25.1541 105.811 25.1608 105.891 25.1608C105.971 25.1608 106.054 25.1541 106.141 25.1408C106.234 25.1274 106.314 25.1108 106.381 25.0908L106.721 24.1908L107.611 24.5508L107.411 24.9908C107.271 25.2774 107.081 25.5041 106.841 25.6708C106.607 25.8308 106.291 25.9108 105.891 25.9108ZM0.78 39.6008H3.55C3.99667 39.6008 4.34 39.7208 4.58 39.9608C4.82667 40.2008 4.95 40.5208 4.95 40.9208C4.95 41.5741 4.6 41.9441 3.9 42.0308V42.0808C4.32 42.1141 4.63 42.2374 4.83 42.4508C5.03667 42.6574 5.14 42.9308 5.14 43.2708C5.14 43.4908 5.10333 43.6941 5.03 43.8808C4.96333 44.0674 4.86333 44.2308 4.73 44.3708C4.60333 44.5041 4.44667 44.6108 4.26 44.6908C4.07333 44.7641 3.86333 44.8008 3.63 44.8008H0.78V39.6008ZM3.38 43.9708C3.57333 43.9708 3.72667 43.9208 3.84 43.8208C3.95333 43.7208 4.01 43.5741 4.01 43.3808V43.1108C4.01 42.9174 3.95333 42.7708 3.84 42.6708C3.72667 42.5641 3.57333 42.5108 3.38 42.5108H1.85V43.9708H3.38ZM3.24 41.7608C3.42667 41.7608 3.57 41.7141 3.67 41.6208C3.77 41.5274 3.82 41.3941 3.82 41.2208V40.9708C3.82 40.7974 3.77 40.6641 3.67 40.5708C3.57 40.4774 3.42667 40.4308 3.24 40.4308H1.85V41.7608H3.24ZM8.48406 44.9208C8.11073 44.9208 7.7774 44.8574 7.48406 44.7308C7.19073 44.6041 6.94073 44.4241 6.73406 44.1908C6.5274 43.9508 6.3674 43.6641 6.25406 43.3308C6.1474 42.9908 6.09406 42.6141 6.09406 42.2008C6.09406 41.7874 6.1474 41.4141 6.25406 41.0808C6.3674 40.7408 6.5274 40.4541 6.73406 40.2208C6.94073 39.9808 7.19073 39.7974 7.48406 39.6708C7.7774 39.5441 8.11073 39.4808 8.48406 39.4808C8.86406 39.4808 9.1974 39.5474 9.48406 39.6808C9.7774 39.8141 10.0207 40.0008 10.2141 40.2408C10.4074 40.4741 10.5507 40.7474 10.6441 41.0608C10.7441 41.3741 10.7941 41.7108 10.7941 42.0708V42.4808H7.22406V42.6508C7.22406 43.0508 7.34073 43.3808 7.57406 43.6408C7.81406 43.8941 8.15406 44.0208 8.59406 44.0208C8.91406 44.0208 9.18406 43.9508 9.40406 43.8108C9.62406 43.6708 9.81073 43.4808 9.96406 43.2408L10.6041 43.8708C10.4107 44.1908 10.1307 44.4474 9.76406 44.6408C9.3974 44.8274 8.97073 44.9208 8.48406 44.9208ZM8.48406 40.3308C8.2974 40.3308 8.12406 40.3641 7.96406 40.4308C7.81073 40.4974 7.6774 40.5908 7.56406 40.7108C7.4574 40.8308 7.37406 40.9741 7.31406 41.1408C7.25406 41.3074 7.22406 41.4908 7.22406 41.6908V41.7608H9.64406V41.6608C9.64406 41.2608 9.54073 40.9408 9.33406 40.7008C9.1274 40.4541 8.84406 40.3308 8.48406 40.3308ZM12.0007 39.6008H13.0907V40.4608H13.1407C13.254 40.1474 13.4374 39.9074 13.6907 39.7408C13.9507 39.5674 14.254 39.4808 14.6007 39.4808C15.2607 39.4808 15.7707 39.7208 16.1307 40.2008C16.4907 40.6741 16.6707 41.3408 16.6707 42.2008C16.6707 43.0608 16.4907 43.7308 16.1307 44.2108C15.7707 44.6841 15.2607 44.9208 14.6007 44.9208C14.254 44.9208 13.9507 44.8341 13.6907 44.6608C13.4374 44.4874 13.254 44.2474 13.1407 43.9408H13.0907V46.8008H12.0007V39.6008ZM14.2707 43.9808C14.6507 43.9808 14.954 43.8608 15.1807 43.6208C15.4074 43.3741 15.5207 43.0508 15.5207 42.6508V41.7508C15.5207 41.3508 15.4074 41.0308 15.1807 40.7908C14.954 40.5441 14.6507 40.4208 14.2707 40.4208C13.9374 40.4208 13.6574 40.5041 13.4307 40.6708C13.204 40.8308 13.0907 41.0441 13.0907 41.3108V43.0908C13.0907 43.3574 13.204 43.5741 13.4307 43.7408C13.6574 43.9008 13.9374 43.9808 14.2707 43.9808ZM19.9287 44.9208C19.5553 44.9208 19.222 44.8574 18.9287 44.7308C18.6353 44.6041 18.3887 44.4241 18.1887 44.1908C17.9887 43.9508 17.8353 43.6641 17.7287 43.3308C17.622 42.9908 17.5687 42.6141 17.5687 42.2008C17.5687 41.7874 17.622 41.4141 17.7287 41.0808C17.8353 40.7408 17.9887 40.4541 18.1887 40.2208C18.3887 39.9808 18.6353 39.7974 18.9287 39.6708C19.222 39.5441 19.5553 39.4808 19.9287 39.4808C20.4487 39.4808 20.8753 39.5974 21.2087 39.8308C21.542 40.0641 21.7853 40.3741 21.9387 40.7608L21.0387 41.1808C20.9653 40.9408 20.8353 40.7508 20.6487 40.6108C20.4687 40.4641 20.2287 40.3908 19.9287 40.3908C19.5287 40.3908 19.2253 40.5174 19.0187 40.7708C18.8187 41.0174 18.7187 41.3408 18.7187 41.7408V42.6708C18.7187 43.0708 18.8187 43.3974 19.0187 43.6508C19.2253 43.8974 19.5287 44.0208 19.9287 44.0208C20.2487 44.0208 20.502 43.9441 20.6887 43.7908C20.882 43.6308 21.0353 43.4208 21.1487 43.1608L21.9787 43.6008C21.8053 44.0274 21.5453 44.3541 21.1987 44.5808C20.852 44.8074 20.4287 44.9208 19.9287 44.9208ZM23.0163 39.6008H24.0863V42.1408L23.9863 43.3708H24.0263L24.6463 42.2608L26.4463 39.6008H27.4363V44.8008H26.3663V42.2608L26.4663 41.0308H26.4263L25.8063 42.1408L24.0063 44.8008H23.0163V39.6008ZM28.9929 39.6008H30.0629V42.1408L29.9629 43.3708H30.0029L30.6229 42.2608L32.4229 39.6008H33.4129V44.8008H32.3429V42.2608L32.4429 41.0308H32.4029L31.7829 42.1408L29.9829 44.8008H28.9929V39.6008Z" fill="#0FB56F"/>
</svg>
