<svg width="347" height="86" viewBox="0 0 347 86" fill="none" xmlns="http://www.w3.org/2000/svg">
<circle cx="3" cy="3" r="2.5" transform="matrix(1 0 0 -1 218 35)" stroke="#0FB56F" stroke-linecap="round" stroke-linejoin="round"/>
<path d="M224 32H296.82C300.629 32 304.343 30.8082 307.441 28.5917L346 1" stroke="#0FB56F" stroke-linecap="round"/>
<path d="M1.548 22.436H11.034V35H9V24.236H3.582V35H1.548V22.436ZM17.6619 35.216C16.9899 35.216 16.3899 35.102 15.8619 34.874C15.3339 34.646 14.8839 34.322 14.5119 33.902C14.1399 33.47 13.8519 32.954 13.6479 32.354C13.4559 31.742 13.3599 31.064 13.3599 30.32C13.3599 29.576 13.4559 28.904 13.6479 28.304C13.8519 27.692 14.1399 27.176 14.5119 26.756C14.8839 26.324 15.3339 25.994 15.8619 25.766C16.3899 25.538 16.9899 25.424 17.6619 25.424C18.3459 25.424 18.9459 25.544 19.4619 25.784C19.9899 26.024 20.4279 26.36 20.7759 26.792C21.1239 27.212 21.3819 27.704 21.5499 28.268C21.7299 28.832 21.8199 29.438 21.8199 30.086V30.824H15.3939V31.13C15.3939 31.85 15.6039 32.444 16.0239 32.912C16.4559 33.368 17.0679 33.596 17.8599 33.596C18.4359 33.596 18.9219 33.47 19.3179 33.218C19.7139 32.966 20.0499 32.624 20.3259 32.192L21.4779 33.326C21.1299 33.902 20.6259 34.364 19.9659 34.712C19.3059 35.048 18.5379 35.216 17.6619 35.216ZM17.6619 26.954C17.3259 26.954 17.0139 27.014 16.7259 27.134C16.4499 27.254 16.2099 27.422 16.0059 27.638C15.8139 27.854 15.6639 28.112 15.5559 28.412C15.4479 28.712 15.3939 29.042 15.3939 29.402V29.528H19.7499V29.348C19.7499 28.628 19.5639 28.052 19.1919 27.62C18.8199 27.176 18.3099 26.954 17.6619 26.954ZM23.9919 25.64H25.9539V27.188H26.0439C26.2479 26.624 26.5779 26.192 27.0339 25.892C27.5019 25.58 28.0479 25.424 28.6719 25.424C29.8599 25.424 30.7779 25.856 31.4259 26.72C32.0739 27.572 32.3979 28.772 32.3979 30.32C32.3979 31.868 32.0739 33.074 31.4259 33.938C30.7779 34.79 29.8599 35.216 28.6719 35.216C28.0479 35.216 27.5019 35.06 27.0339 34.748C26.5779 34.436 26.2479 34.004 26.0439 33.452H25.9539V38.6H23.9919V25.64ZM28.0779 33.524C28.7619 33.524 29.3079 33.308 29.7159 32.876C30.1239 32.432 30.3279 31.85 30.3279 31.13V29.51C30.3279 28.79 30.1239 28.214 29.7159 27.782C29.3079 27.338 28.7619 27.116 28.0779 27.116C27.4779 27.116 26.9739 27.266 26.5659 27.566C26.1579 27.854 25.9539 28.238 25.9539 28.718V31.922C25.9539 32.402 26.1579 32.792 26.5659 33.092C26.9739 33.38 27.4779 33.524 28.0779 33.524ZM38.3162 35.216C37.6442 35.216 37.0442 35.102 36.5162 34.874C35.9882 34.646 35.5382 34.322 35.1662 33.902C34.7942 33.47 34.5062 32.954 34.3022 32.354C34.1102 31.742 34.0142 31.064 34.0142 30.32C34.0142 29.576 34.1102 28.904 34.3022 28.304C34.5062 27.692 34.7942 27.176 35.1662 26.756C35.5382 26.324 35.9882 25.994 36.5162 25.766C37.0442 25.538 37.6442 25.424 38.3162 25.424C39.0002 25.424 39.6002 25.544 40.1162 25.784C40.6442 26.024 41.0822 26.36 41.4302 26.792C41.7782 27.212 42.0362 27.704 42.2042 28.268C42.3842 28.832 42.4742 29.438 42.4742 30.086V30.824H36.0482V31.13C36.0482 31.85 36.2582 32.444 36.6782 32.912C37.1102 33.368 37.7222 33.596 38.5142 33.596C39.0902 33.596 39.5762 33.47 39.9722 33.218C40.3682 32.966 40.7042 32.624 40.9802 32.192L42.1322 33.326C41.7842 33.902 41.2802 34.364 40.6202 34.712C39.9602 35.048 39.1922 35.216 38.3162 35.216ZM38.3162 26.954C37.9802 26.954 37.6682 27.014 37.3802 27.134C37.1042 27.254 36.8642 27.422 36.6602 27.638C36.4682 27.854 36.3182 28.112 36.2102 28.412C36.1022 28.712 36.0482 29.042 36.0482 29.402V29.528H40.4042V29.348C40.4042 28.628 40.2182 28.052 39.8462 27.62C39.4742 27.176 38.9642 26.954 38.3162 26.954ZM48.2642 35.216C47.5922 35.216 46.9922 35.102 46.4642 34.874C45.9362 34.646 45.4922 34.322 45.1322 33.902C44.7722 33.47 44.4962 32.954 44.3042 32.354C44.1122 31.742 44.0162 31.064 44.0162 30.32C44.0162 29.576 44.1122 28.904 44.3042 28.304C44.4962 27.692 44.7722 27.176 45.1322 26.756C45.4922 26.324 45.9362 25.994 46.4642 25.766C46.9922 25.538 47.5922 25.424 48.2642 25.424C49.2002 25.424 49.9682 25.634 50.5682 26.054C51.1682 26.474 51.6062 27.032 51.8822 27.728L50.2622 28.484C50.1302 28.052 49.8962 27.71 49.5602 27.458C49.2362 27.194 48.8042 27.062 48.2642 27.062C47.5442 27.062 46.9982 27.29 46.6262 27.746C46.2662 28.19 46.0862 28.772 46.0862 29.492V31.166C46.0862 31.886 46.2662 32.474 46.6262 32.93C46.9982 33.374 47.5442 33.596 48.2642 33.596C48.8402 33.596 49.2962 33.458 49.6322 33.182C49.9802 32.894 50.2562 32.516 50.4602 32.048L51.9542 32.84C51.6422 33.608 51.1742 34.196 50.5502 34.604C49.9262 35.012 49.1642 35.216 48.2642 35.216ZM55.8714 27.242H52.8834V25.64H60.8214V27.242H57.8334V35H55.8714V27.242ZM62.5935 25.64H64.5555V27.188H64.6455C64.8495 26.624 65.1795 26.192 65.6355 25.892C66.1035 25.58 66.6495 25.424 67.2735 25.424C68.4615 25.424 69.3795 25.856 70.0275 26.72C70.6755 27.572 70.9995 28.772 70.9995 30.32C70.9995 31.868 70.6755 33.074 70.0275 33.938C69.3795 34.79 68.4615 35.216 67.2735 35.216C66.6495 35.216 66.1035 35.06 65.6355 34.748C65.1795 34.436 64.8495 34.004 64.6455 33.452H64.5555V38.6H62.5935V25.64ZM66.6795 33.524C67.3635 33.524 67.9095 33.308 68.3175 32.876C68.7255 32.432 68.9295 31.85 68.9295 31.13V29.51C68.9295 28.79 68.7255 28.214 68.3175 27.782C67.9095 27.338 67.3635 27.116 66.6795 27.116C66.0795 27.116 65.5755 27.266 65.1675 27.566C64.7595 27.854 64.5555 28.238 64.5555 28.718V31.922C64.5555 32.402 64.7595 32.792 65.1675 33.092C65.5755 33.38 66.0795 33.524 66.6795 33.524ZM76.9178 35.216C76.2698 35.216 75.6758 35.102 75.1358 34.874C74.6078 34.646 74.1578 34.322 73.7858 33.902C73.4138 33.47 73.1258 32.954 72.9218 32.354C72.7178 31.742 72.6158 31.064 72.6158 30.32C72.6158 29.576 72.7178 28.904 72.9218 28.304C73.1258 27.692 73.4138 27.176 73.7858 26.756C74.1578 26.324 74.6078 25.994 75.1358 25.766C75.6758 25.538 76.2698 25.424 76.9178 25.424C77.5658 25.424 78.1538 25.538 78.6818 25.766C79.2218 25.994 79.6778 26.324 80.0498 26.756C80.4218 27.176 80.7098 27.692 80.9138 28.304C81.1178 28.904 81.2198 29.576 81.2198 30.32C81.2198 31.064 81.1178 31.742 80.9138 32.354C80.7098 32.954 80.4218 33.47 80.0498 33.902C79.6778 34.322 79.2218 34.646 78.6818 34.874C78.1538 35.102 77.5658 35.216 76.9178 35.216ZM76.9178 33.596C77.5898 33.596 78.1298 33.392 78.5378 32.984C78.9458 32.564 79.1498 31.94 79.1498 31.112V29.528C79.1498 28.7 78.9458 28.082 78.5378 27.674C78.1298 27.254 77.5898 27.044 76.9178 27.044C76.2458 27.044 75.7058 27.254 75.2978 27.674C74.8898 28.082 74.6858 28.7 74.6858 29.528V31.112C74.6858 31.94 74.8898 32.564 75.2978 32.984C75.7058 33.392 76.2458 33.596 76.9178 33.596ZM87.078 35.216C86.406 35.216 85.806 35.102 85.278 34.874C84.75 34.646 84.3 34.322 83.928 33.902C83.556 33.47 83.268 32.954 83.064 32.354C82.872 31.742 82.776 31.064 82.776 30.32C82.776 29.576 82.872 28.904 83.064 28.304C83.268 27.692 83.556 27.176 83.928 26.756C84.3 26.324 84.75 25.994 85.278 25.766C85.806 25.538 86.406 25.424 87.078 25.424C87.762 25.424 88.362 25.544 88.878 25.784C89.406 26.024 89.844 26.36 90.192 26.792C90.54 27.212 90.798 27.704 90.966 28.268C91.146 28.832 91.236 29.438 91.236 30.086V30.824H84.81V31.13C84.81 31.85 85.02 32.444 85.44 32.912C85.872 33.368 86.484 33.596 87.276 33.596C87.852 33.596 88.338 33.47 88.734 33.218C89.13 32.966 89.466 32.624 89.742 32.192L90.894 33.326C90.546 33.902 90.042 34.364 89.382 34.712C88.722 35.048 87.954 35.216 87.078 35.216ZM87.078 26.954C86.742 26.954 86.43 27.014 86.142 27.134C85.866 27.254 85.626 27.422 85.422 27.638C85.23 27.854 85.08 28.112 84.972 28.412C84.864 28.712 84.81 29.042 84.81 29.402V29.528H89.166V29.348C89.166 28.628 88.98 28.052 88.608 27.62C88.236 27.176 87.726 26.954 87.078 26.954ZM93.4079 25.64H95.3699V29.402H99.4019V25.64H101.364V35H99.4019V31.004H95.3699V35H93.4079V25.64ZM104.166 25.64H106.092V30.212L105.912 32.426H105.984L107.1 30.428L110.34 25.64H112.122V35H110.196V30.428L110.376 28.214H110.304L109.188 30.212L105.948 35H104.166V25.64ZM118.596 35.216C117.924 35.216 117.324 35.102 116.796 34.874C116.268 34.646 115.818 34.322 115.446 33.902C115.074 33.47 114.786 32.954 114.582 32.354C114.39 31.742 114.294 31.064 114.294 30.32C114.294 29.576 114.39 28.904 114.582 28.304C114.786 27.692 115.074 27.176 115.446 26.756C115.818 26.324 116.268 25.994 116.796 25.766C117.324 25.538 117.924 25.424 118.596 25.424C119.28 25.424 119.88 25.544 120.396 25.784C120.924 26.024 121.362 26.36 121.71 26.792C122.058 27.212 122.316 27.704 122.484 28.268C122.664 28.832 122.754 29.438 122.754 30.086V30.824H116.328V31.13C116.328 31.85 116.538 32.444 116.958 32.912C117.39 33.368 118.002 33.596 118.794 33.596C119.37 33.596 119.856 33.47 120.252 33.218C120.648 32.966 120.984 32.624 121.26 32.192L122.412 33.326C122.064 33.902 121.56 34.364 120.9 34.712C120.24 35.048 119.472 35.216 118.596 35.216ZM118.596 26.954C118.26 26.954 117.948 27.014 117.66 27.134C117.384 27.254 117.144 27.422 116.94 27.638C116.748 27.854 116.598 28.112 116.49 28.412C116.382 28.712 116.328 29.042 116.328 29.402V29.528H120.684V29.348C120.684 28.628 120.498 28.052 120.126 27.62C119.754 27.176 119.244 26.954 118.596 26.954ZM129.179 25.64H134.165C134.969 25.64 135.587 25.856 136.019 26.288C136.463 26.72 136.685 27.296 136.685 28.016C136.685 29.192 136.055 29.858 134.795 30.014V30.104C135.551 30.164 136.109 30.386 136.469 30.77C136.841 31.142 137.027 31.634 137.027 32.246C137.027 32.642 136.961 33.008 136.829 33.344C136.709 33.68 136.529 33.974 136.289 34.226C136.061 34.466 135.779 34.658 135.443 34.802C135.107 34.934 134.729 35 134.309 35H129.179V25.64ZM133.859 33.506C134.207 33.506 134.483 33.416 134.687 33.236C134.891 33.056 134.993 32.792 134.993 32.444V31.958C134.993 31.61 134.891 31.346 134.687 31.166C134.483 30.974 134.207 30.878 133.859 30.878H131.105V33.506H133.859ZM133.607 29.528C133.943 29.528 134.201 29.444 134.381 29.276C134.561 29.108 134.651 28.868 134.651 28.556V28.106C134.651 27.794 134.561 27.554 134.381 27.386C134.201 27.218 133.943 27.134 133.607 27.134H131.105V29.528H133.607ZM147.301 35.216C146.653 35.216 146.059 35.102 145.519 34.874C144.991 34.646 144.541 34.322 144.169 33.902C143.797 33.47 143.509 32.954 143.305 32.354C143.101 31.742 142.999 31.064 142.999 30.32C142.999 29.576 143.101 28.904 143.305 28.304C143.509 27.692 143.797 27.176 144.169 26.756C144.541 26.324 144.991 25.994 145.519 25.766C146.059 25.538 146.653 25.424 147.301 25.424C147.949 25.424 148.537 25.538 149.065 25.766C149.605 25.994 150.061 26.324 150.433 26.756C150.805 27.176 151.093 27.692 151.297 28.304C151.501 28.904 151.603 29.576 151.603 30.32C151.603 31.064 151.501 31.742 151.297 32.354C151.093 32.954 150.805 33.47 150.433 33.902C150.061 34.322 149.605 34.646 149.065 34.874C148.537 35.102 147.949 35.216 147.301 35.216ZM147.301 33.596C147.973 33.596 148.513 33.392 148.921 32.984C149.329 32.564 149.533 31.94 149.533 31.112V29.528C149.533 28.7 149.329 28.082 148.921 27.674C148.513 27.254 147.973 27.044 147.301 27.044C146.629 27.044 146.089 27.254 145.681 27.674C145.273 28.082 145.069 28.7 145.069 29.528V31.112C145.069 31.94 145.273 32.564 145.681 32.984C146.089 33.392 146.629 33.596 147.301 33.596ZM152.494 33.398H153.628C153.976 32.858 154.246 32.18 154.438 31.364C154.642 30.536 154.744 29.522 154.744 28.322V25.64H161.584V33.398H163.168V37.52H161.386V35H154.276V37.52H152.494V33.398ZM159.622 33.398V27.242H156.616V28.43C156.616 29.69 156.526 30.722 156.346 31.526C156.166 32.318 155.956 32.942 155.716 33.398H159.622ZM164.951 25.64H166.913V29.402H170.945V25.64H172.907V35H170.945V31.004H166.913V35H164.951V25.64ZM181.451 25.64H183.341L179.399 36.854C179.291 37.166 179.165 37.43 179.021 37.646C178.889 37.874 178.727 38.054 178.535 38.186C178.355 38.33 178.133 38.432 177.869 38.492C177.605 38.564 177.293 38.6 176.933 38.6H175.799V36.998H177.383L177.923 35.414L174.521 25.64H176.483L178.355 31.148L178.895 33.182H178.985L179.579 31.148L181.451 25.64ZM1.404 48.64H3.366V52.42H5.022L6.57 49.81C6.834 49.366 7.098 49.06 7.362 48.892C7.626 48.724 7.962 48.64 8.37 48.64H9.324V50.242H8.28L7.092 52.222C6.912 52.534 6.75 52.75 6.606 52.87C6.474 52.99 6.294 53.08 6.066 53.14V53.212C6.306 53.26 6.516 53.35 6.696 53.482C6.876 53.602 7.05 53.818 7.218 54.13L8.478 56.398H9.504V58H8.388C7.992 58 7.65 57.91 7.362 57.73C7.086 57.55 6.822 57.232 6.57 56.776L5.022 54.004H3.366V58H1.404V48.64ZM15.0604 58.216C14.4124 58.216 13.8184 58.102 13.2784 57.874C12.7504 57.646 12.3004 57.322 11.9284 56.902C11.5564 56.47 11.2684 55.954 11.0644 55.354C10.8604 54.742 10.7584 54.064 10.7584 53.32C10.7584 52.576 10.8604 51.904 11.0644 51.304C11.2684 50.692 11.5564 50.176 11.9284 49.756C12.3004 49.324 12.7504 48.994 13.2784 48.766C13.8184 48.538 14.4124 48.424 15.0604 48.424C15.7084 48.424 16.2964 48.538 16.8244 48.766C17.3644 48.994 17.8204 49.324 18.1924 49.756C18.5644 50.176 18.8524 50.692 19.0564 51.304C19.2604 51.904 19.3624 52.576 19.3624 53.32C19.3624 54.064 19.2604 54.742 19.0564 55.354C18.8524 55.954 18.5644 56.47 18.1924 56.902C17.8204 57.322 17.3644 57.646 16.8244 57.874C16.2964 58.102 15.7084 58.216 15.0604 58.216ZM15.0604 56.596C15.7324 56.596 16.2724 56.392 16.6804 55.984C17.0884 55.564 17.2924 54.94 17.2924 54.112V52.528C17.2924 51.7 17.0884 51.082 16.6804 50.674C16.2724 50.254 15.7324 50.044 15.0604 50.044C14.3884 50.044 13.8484 50.254 13.4404 50.674C13.0324 51.082 12.8284 51.7 12.8284 52.528V54.112C12.8284 54.94 13.0324 55.564 13.4404 55.984C13.8484 56.392 14.3884 56.596 15.0604 56.596ZM20.2371 56.398H21.4611C21.6051 56.206 21.7311 55.978 21.8391 55.714C21.9471 55.438 22.0371 55.102 22.1091 54.706C22.1811 54.31 22.2351 53.848 22.2711 53.32C22.3191 52.78 22.3431 52.15 22.3431 51.43V48.64H29.1471V58H27.1851V50.242H24.2331V51.52C24.2331 52.384 24.1971 53.14 24.1251 53.788C24.0651 54.436 23.9751 54.994 23.8551 55.462C23.7471 55.93 23.6091 56.32 23.4411 56.632C23.2851 56.932 23.1171 57.172 22.9371 57.352C22.6851 57.604 22.3971 57.784 22.0731 57.892C21.7491 58 21.3591 58.054 20.9031 58.054H20.2371V56.398ZM35.6444 58.216C34.9964 58.216 34.4024 58.102 33.8624 57.874C33.3344 57.646 32.8844 57.322 32.5124 56.902C32.1404 56.47 31.8524 55.954 31.6484 55.354C31.4444 54.742 31.3424 54.064 31.3424 53.32C31.3424 52.576 31.4444 51.904 31.6484 51.304C31.8524 50.692 32.1404 50.176 32.5124 49.756C32.8844 49.324 33.3344 48.994 33.8624 48.766C34.4024 48.538 34.9964 48.424 35.6444 48.424C36.2924 48.424 36.8804 48.538 37.4084 48.766C37.9484 48.994 38.4044 49.324 38.7764 49.756C39.1484 50.176 39.4364 50.692 39.6404 51.304C39.8444 51.904 39.9464 52.576 39.9464 53.32C39.9464 54.064 39.8444 54.742 39.6404 55.354C39.4364 55.954 39.1484 56.47 38.7764 56.902C38.4044 57.322 37.9484 57.646 37.4084 57.874C36.8804 58.102 36.2924 58.216 35.6444 58.216ZM35.6444 56.596C36.3164 56.596 36.8564 56.392 37.2644 55.984C37.6724 55.564 37.8764 54.94 37.8764 54.112V52.528C37.8764 51.7 37.6724 51.082 37.2644 50.674C36.8564 50.254 36.3164 50.044 35.6444 50.044C34.9724 50.044 34.4324 50.254 34.0244 50.674C33.6164 51.082 33.4124 51.7 33.4124 52.528V54.112C33.4124 54.94 33.6164 55.564 34.0244 55.984C34.4324 56.392 34.9724 56.596 35.6444 56.596ZM42.1325 48.64H44.0945V52.402H48.1265V48.64H50.0885V58H48.1265V54.004H44.0945V58H42.1325V48.64ZM52.8903 48.64H54.8523V52.42H56.5083L58.0563 49.81C58.3203 49.366 58.5843 49.06 58.8483 48.892C59.1123 48.724 59.4483 48.64 59.8563 48.64H60.8103V50.242H59.7663L58.5783 52.222C58.3983 52.534 58.2363 52.75 58.0923 52.87C57.9603 52.99 57.7803 53.08 57.5523 53.14V53.212C57.7923 53.26 58.0023 53.35 58.1823 53.482C58.3623 53.602 58.5363 53.818 58.7043 54.13L59.9643 56.398H60.9903V58H59.8743C59.4783 58 59.1363 57.91 58.8483 57.73C58.5723 57.55 58.3083 57.232 58.0563 56.776L56.5083 54.004H54.8523V58H52.8903V48.64ZM68.8628 48.64H70.7528L66.8108 59.854C66.7028 60.166 66.5768 60.43 66.4328 60.646C66.3008 60.874 66.1388 61.054 65.9468 61.186C65.7668 61.33 65.5448 61.432 65.2808 61.492C65.0168 61.564 64.7048 61.6 64.3448 61.6H63.2108V59.998H64.7948L65.3348 58.414L61.9328 48.64H63.8948L65.7668 54.148L66.3068 56.182H66.3968L66.9908 54.148L68.8628 48.64ZM76.6208 48.64H78.5828V52.402H82.6148V48.64H84.5768V58H82.6148V54.004H78.5828V58H76.6208V48.64ZM94.2366 58C93.7206 58 93.3246 57.856 93.0486 57.568C92.7726 57.268 92.6046 56.89 92.5446 56.434H92.4546C92.2746 57.022 91.9446 57.466 91.4646 57.766C90.9846 58.066 90.4026 58.216 89.7186 58.216C88.7466 58.216 87.9966 57.964 87.4686 57.46C86.9526 56.956 86.6946 56.278 86.6946 55.426C86.6946 54.49 87.0306 53.788 87.7026 53.32C88.3866 52.852 89.3826 52.618 90.6906 52.618H92.3826V51.826C92.3826 51.25 92.2266 50.806 91.9146 50.494C91.6026 50.182 91.1166 50.026 90.4566 50.026C89.9046 50.026 89.4546 50.146 89.1066 50.386C88.7586 50.626 88.4646 50.932 88.2246 51.304L87.0546 50.242C87.3666 49.714 87.8046 49.282 88.3686 48.946C88.9326 48.598 89.6706 48.424 90.5826 48.424C91.7946 48.424 92.7246 48.706 93.3726 49.27C94.0206 49.834 94.3446 50.644 94.3446 51.7V56.398H95.3346V58H94.2366ZM90.2766 56.722C90.8886 56.722 91.3926 56.59 91.7886 56.326C92.1846 56.05 92.3826 55.684 92.3826 55.228V53.878H90.7266C89.3706 53.878 88.6926 54.298 88.6926 55.138V55.462C88.6926 55.882 88.8306 56.2 89.1066 56.416C89.3946 56.62 89.7846 56.722 90.2766 56.722ZM101.511 48.64H103.887L106.533 53.068H106.569L109.215 48.64H111.483V58H109.557V51.052H109.485L108.873 52.204L106.497 56.164L104.121 52.204L103.509 51.052H103.437V58H101.511V48.64ZM117.963 58.216C117.315 58.216 116.721 58.102 116.181 57.874C115.653 57.646 115.203 57.322 114.831 56.902C114.459 56.47 114.171 55.954 113.967 55.354C113.763 54.742 113.661 54.064 113.661 53.32C113.661 52.576 113.763 51.904 113.967 51.304C114.171 50.692 114.459 50.176 114.831 49.756C115.203 49.324 115.653 48.994 116.181 48.766C116.721 48.538 117.315 48.424 117.963 48.424C118.611 48.424 119.199 48.538 119.727 48.766C120.267 48.994 120.723 49.324 121.095 49.756C121.467 50.176 121.755 50.692 121.959 51.304C122.163 51.904 122.265 52.576 122.265 53.32C122.265 54.064 122.163 54.742 121.959 55.354C121.755 55.954 121.467 56.47 121.095 56.902C120.723 57.322 120.267 57.646 119.727 57.874C119.199 58.102 118.611 58.216 117.963 58.216ZM117.963 56.596C118.635 56.596 119.175 56.392 119.583 55.984C119.991 55.564 120.195 54.94 120.195 54.112V52.528C120.195 51.7 119.991 51.082 119.583 50.674C119.175 50.254 118.635 50.044 117.963 50.044C117.291 50.044 116.751 50.254 116.343 50.674C115.935 51.082 115.731 51.7 115.731 52.528V54.112C115.731 54.94 115.935 55.564 116.343 55.984C116.751 56.392 117.291 56.596 117.963 56.596ZM128.248 58.216C127.576 58.216 126.976 58.108 126.448 57.892C125.92 57.664 125.47 57.31 125.098 56.83C124.726 56.35 124.438 55.744 124.234 55.012C124.042 54.268 123.946 53.374 123.946 52.33C123.946 51.058 124.036 49.966 124.216 49.054C124.408 48.13 124.702 47.368 125.098 46.768C125.506 46.156 126.016 45.688 126.628 45.364C127.252 45.04 127.996 44.842 128.86 44.77L131.848 44.5V46.426L128.752 46.714C128.26 46.762 127.846 46.858 127.51 47.002C127.186 47.146 126.916 47.368 126.7 47.668C126.496 47.956 126.34 48.346 126.232 48.838C126.124 49.318 126.046 49.918 125.998 50.638H126.088C126.328 50.014 126.652 49.546 127.06 49.234C127.48 48.922 128.044 48.766 128.752 48.766C129.304 48.766 129.808 48.874 130.264 49.09C130.732 49.294 131.134 49.594 131.47 49.99C131.806 50.386 132.064 50.872 132.244 51.448C132.436 52.012 132.532 52.66 132.532 53.392C132.532 54.124 132.43 54.79 132.226 55.39C132.022 55.978 131.734 56.482 131.362 56.902C130.99 57.322 130.54 57.646 130.012 57.874C129.484 58.102 128.896 58.216 128.248 58.216ZM128.248 56.596C128.932 56.596 129.472 56.386 129.868 55.966C130.264 55.534 130.462 54.904 130.462 54.076V52.906C130.462 52.078 130.264 51.454 129.868 51.034C129.472 50.602 128.932 50.386 128.248 50.386C127.528 50.386 126.976 50.578 126.592 50.962C126.22 51.346 126.034 51.862 126.034 52.51V54.076C126.034 54.904 126.232 55.534 126.628 55.966C127.024 56.386 127.564 56.596 128.248 56.596ZM134.717 48.64H136.643V53.212L136.463 55.426H136.535L137.651 53.428L140.891 48.64H142.673V58H140.747V53.428L140.927 51.214H140.855L139.739 53.212L136.499 58H134.717V48.64ZM144.268 56.398H145.492C145.636 56.206 145.762 55.978 145.87 55.714C145.978 55.438 146.068 55.102 146.14 54.706C146.212 54.31 146.266 53.848 146.302 53.32C146.35 52.78 146.374 52.15 146.374 51.43V48.64H153.178V58H151.216V50.242H148.264V51.52C148.264 52.384 148.228 53.14 148.156 53.788C148.096 54.436 148.006 54.994 147.886 55.462C147.778 55.93 147.64 56.32 147.472 56.632C147.316 56.932 147.148 57.172 146.968 57.352C146.716 57.604 146.428 57.784 146.104 57.892C145.78 58 145.39 58.054 144.934 58.054H144.268V56.398ZM156.004 48.64H157.966V51.772H160.54C161.476 51.772 162.232 52.048 162.808 52.6C163.396 53.14 163.69 53.902 163.69 54.886C163.69 55.882 163.402 56.65 162.826 57.19C162.25 57.73 161.494 58 160.558 58H156.004V48.64ZM160.18 56.47C160.636 56.47 160.996 56.374 161.26 56.182C161.524 55.978 161.656 55.666 161.656 55.246V54.508C161.656 54.088 161.524 53.782 161.26 53.59C160.996 53.398 160.636 53.302 160.18 53.302H157.966V56.47H160.18ZM165.689 48.64H167.651V52.402H171.683V48.64H173.645V58H171.683V54.004H167.651V58H165.689V48.64ZM180.119 58.216C179.471 58.216 178.877 58.102 178.337 57.874C177.809 57.646 177.359 57.322 176.987 56.902C176.615 56.47 176.327 55.954 176.123 55.354C175.919 54.742 175.817 54.064 175.817 53.32C175.817 52.576 175.919 51.904 176.123 51.304C176.327 50.692 176.615 50.176 176.987 49.756C177.359 49.324 177.809 48.994 178.337 48.766C178.877 48.538 179.471 48.424 180.119 48.424C180.767 48.424 181.355 48.538 181.883 48.766C182.423 48.994 182.879 49.324 183.251 49.756C183.623 50.176 183.911 50.692 184.115 51.304C184.319 51.904 184.421 52.576 184.421 53.32C184.421 54.064 184.319 54.742 184.115 55.354C183.911 55.954 183.623 56.47 183.251 56.902C182.879 57.322 182.423 57.646 181.883 57.874C181.355 58.102 180.767 58.216 180.119 58.216ZM180.119 56.596C180.791 56.596 181.331 56.392 181.739 55.984C182.147 55.564 182.351 54.94 182.351 54.112V52.528C182.351 51.7 182.147 51.082 181.739 50.674C181.331 50.254 180.791 50.044 180.119 50.044C179.447 50.044 178.907 50.254 178.499 50.674C178.091 51.082 177.887 51.7 177.887 52.528V54.112C177.887 54.94 178.091 55.564 178.499 55.984C178.907 56.392 179.447 56.596 180.119 56.596ZM186.607 48.64H188.533V53.212L188.353 55.426H188.425L189.541 53.428L192.781 48.64H194.563V58H192.637V53.428L192.817 51.214H192.745L191.629 53.212L188.389 58H186.607V48.64ZM190.603 47.398C189.883 47.398 189.307 47.254 188.875 46.966C188.455 46.666 188.119 46.258 187.867 45.742L187.507 44.95L189.109 44.302L189.721 45.922C189.841 45.958 189.979 45.988 190.135 46.012C190.303 46.036 190.459 46.048 190.603 46.048C190.747 46.048 190.897 46.036 191.053 46.012C191.221 45.988 191.365 45.958 191.485 45.922L192.097 44.302L193.699 44.95L193.339 45.742C193.087 46.258 192.745 46.666 192.313 46.966C191.893 47.254 191.323 47.398 190.603 47.398ZM1.404 71.64H6.39C7.194 71.64 7.812 71.856 8.244 72.288C8.688 72.72 8.91 73.296 8.91 74.016C8.91 75.192 8.28 75.858 7.02 76.014V76.104C7.776 76.164 8.334 76.386 8.694 76.77C9.066 77.142 9.252 77.634 9.252 78.246C9.252 78.642 9.186 79.008 9.054 79.344C8.934 79.68 8.754 79.974 8.514 80.226C8.286 80.466 8.004 80.658 7.668 80.802C7.332 80.934 6.954 81 6.534 81H1.404V71.64ZM6.084 79.506C6.432 79.506 6.708 79.416 6.912 79.236C7.116 79.056 7.218 78.792 7.218 78.444V77.958C7.218 77.61 7.116 77.346 6.912 77.166C6.708 76.974 6.432 76.878 6.084 76.878H3.33V79.506H6.084ZM5.832 75.528C6.168 75.528 6.426 75.444 6.606 75.276C6.786 75.108 6.876 74.868 6.876 74.556V74.106C6.876 73.794 6.786 73.554 6.606 73.386C6.426 73.218 6.168 73.134 5.832 73.134H3.33V75.528H5.832ZM15.2713 81.216C14.5993 81.216 13.9993 81.102 13.4713 80.874C12.9433 80.646 12.4933 80.322 12.1213 79.902C11.7493 79.47 11.4613 78.954 11.2573 78.354C11.0653 77.742 10.9693 77.064 10.9693 76.32C10.9693 75.576 11.0653 74.904 11.2573 74.304C11.4613 73.692 11.7493 73.176 12.1213 72.756C12.4933 72.324 12.9433 71.994 13.4713 71.766C13.9993 71.538 14.5993 71.424 15.2713 71.424C15.9553 71.424 16.5553 71.544 17.0713 71.784C17.5993 72.024 18.0373 72.36 18.3853 72.792C18.7333 73.212 18.9913 73.704 19.1593 74.268C19.3393 74.832 19.4293 75.438 19.4293 76.086V76.824H13.0033V77.13C13.0033 77.85 13.2133 78.444 13.6333 78.912C14.0653 79.368 14.6773 79.596 15.4693 79.596C16.0453 79.596 16.5313 79.47 16.9273 79.218C17.3233 78.966 17.6593 78.624 17.9353 78.192L19.0873 79.326C18.7393 79.902 18.2353 80.364 17.5753 80.712C16.9153 81.048 16.1473 81.216 15.2713 81.216ZM15.2713 72.954C14.9353 72.954 14.6233 73.014 14.3353 73.134C14.0593 73.254 13.8193 73.422 13.6153 73.638C13.4233 73.854 13.2733 74.112 13.1653 74.412C13.0573 74.712 13.0033 75.042 13.0033 75.402V75.528H17.3593V75.348C17.3593 74.628 17.1733 74.052 16.8013 73.62C16.4293 73.176 15.9193 72.954 15.2713 72.954ZM21.6013 71.64H23.5633V73.188H23.6533C23.8573 72.624 24.1873 72.192 24.6433 71.892C25.1113 71.58 25.6573 71.424 26.2813 71.424C27.4693 71.424 28.3873 71.856 29.0353 72.72C29.6833 73.572 30.0073 74.772 30.0073 76.32C30.0073 77.868 29.6833 79.074 29.0353 79.938C28.3873 80.79 27.4693 81.216 26.2813 81.216C25.6573 81.216 25.1113 81.06 24.6433 80.748C24.1873 80.436 23.8573 80.004 23.6533 79.452H23.5633V84.6H21.6013V71.64ZM25.6873 79.524C26.3713 79.524 26.9173 79.308 27.3253 78.876C27.7333 78.432 27.9373 77.85 27.9373 77.13V75.51C27.9373 74.79 27.7333 74.214 27.3253 73.782C26.9173 73.338 26.3713 73.116 25.6873 73.116C25.0873 73.116 24.5833 73.266 24.1753 73.566C23.7673 73.854 23.5633 74.238 23.5633 74.718V77.922C23.5633 78.402 23.7673 78.792 24.1753 79.092C24.5833 79.38 25.0873 79.524 25.6873 79.524ZM35.8716 81.216C35.1996 81.216 34.5996 81.102 34.0716 80.874C33.5436 80.646 33.0996 80.322 32.7396 79.902C32.3796 79.47 32.1036 78.954 31.9116 78.354C31.7196 77.742 31.6236 77.064 31.6236 76.32C31.6236 75.576 31.7196 74.904 31.9116 74.304C32.1036 73.692 32.3796 73.176 32.7396 72.756C33.0996 72.324 33.5436 71.994 34.0716 71.766C34.5996 71.538 35.1996 71.424 35.8716 71.424C36.8076 71.424 37.5756 71.634 38.1756 72.054C38.7756 72.474 39.2136 73.032 39.4896 73.728L37.8696 74.484C37.7376 74.052 37.5036 73.71 37.1676 73.458C36.8436 73.194 36.4116 73.062 35.8716 73.062C35.1516 73.062 34.6056 73.29 34.2336 73.746C33.8736 74.19 33.6936 74.772 33.6936 75.492V77.166C33.6936 77.886 33.8736 78.474 34.2336 78.93C34.6056 79.374 35.1516 79.596 35.8716 79.596C36.4476 79.596 36.9036 79.458 37.2396 79.182C37.5876 78.894 37.8636 78.516 38.0676 78.048L39.5616 78.84C39.2496 79.608 38.7816 80.196 38.1576 80.604C37.5336 81.012 36.7716 81.216 35.8716 81.216ZM41.4294 71.64H43.3554V76.212L43.1754 78.426H43.2474L44.3634 76.428L47.6034 71.64H49.3854V81H47.4594V76.428L47.6394 74.214H47.5674L46.4514 76.212L43.2114 81H41.4294V71.64ZM52.1872 71.64H54.1132V76.212L53.9332 78.426H54.0052L55.1212 76.428L58.3612 71.64H60.1432V81H58.2172V76.428L58.3972 74.214H58.3252L57.2092 76.212L53.9692 81H52.1872V71.64Z" fill="#0FB56F"/>
</svg>
