<svg width="106" height="23" viewBox="0 0 106 23" fill="none" xmlns="http://www.w3.org/2000/svg">
<path d="M40.4988 17.3994C40.4988 16.5708 39.8273 15.8994 38.9994 15.8994C38.1714 15.8994 37.5 16.5708 37.5 17.3994C37.5 18.228 38.1714 18.8994 38.9994 18.8994C39.8273 18.8994 40.4988 18.228 40.4988 17.3994Z" stroke="#0FB56F" stroke-linecap="round" stroke-linejoin="round"/>
<path d="M40.998 17.3999H79.443C81.45 17.3999 83.4066 16.7709 85.0376 15.6012L105.398 0.999903" stroke="#0FB56F" stroke-linecap="round"/>
<path d="M3.98328 15.2899C4.41661 15.2899 4.73661 15.1999 4.94328 15.0199C5.14995 14.8332 5.25328 14.5966 5.25328 14.3099V14.2399C5.25328 13.9199 5.15328 13.6766 4.95328 13.5099C4.75328 13.3366 4.48328 13.2499 4.14328 13.2499C3.80995 13.2499 3.52661 13.3266 3.29328 13.4799C3.05995 13.6266 2.86328 13.8332 2.70328 14.0999L1.95328 13.4499C2.05995 13.2966 2.17995 13.1499 2.31328 13.0099C2.44661 12.8699 2.60328 12.7499 2.78328 12.6499C2.96328 12.5432 3.16661 12.4599 3.39328 12.3999C3.61995 12.3332 3.87995 12.2999 4.17328 12.2999C4.49995 12.2999 4.80328 12.3399 5.08328 12.4199C5.36328 12.4999 5.60328 12.6199 5.80328 12.7799C6.00328 12.9332 6.15995 13.1232 6.27328 13.3499C6.38661 13.5699 6.44328 13.8199 6.44328 14.0999C6.44328 14.3199 6.40661 14.5199 6.33328 14.6999C6.26661 14.8799 6.16995 15.0399 6.04328 15.1799C5.92328 15.3132 5.77995 15.4232 5.61328 15.5099C5.45328 15.5966 5.28328 15.6599 5.10328 15.6999V15.7499C5.30328 15.7899 5.48995 15.8566 5.66328 15.9499C5.84328 16.0366 5.99995 16.1532 6.13328 16.2999C6.26661 16.4399 6.36995 16.6099 6.44328 16.8099C6.52328 17.0032 6.56328 17.2266 6.56328 17.4799C6.56328 17.7866 6.50328 18.0666 6.38328 18.3199C6.26328 18.5666 6.09328 18.7799 5.87328 18.9599C5.65995 19.1399 5.39995 19.2799 5.09328 19.3799C4.78661 19.4732 4.44661 19.5199 4.07328 19.5199C3.74661 19.5199 3.45995 19.4832 3.21328 19.4099C2.96661 19.3432 2.74661 19.2532 2.55328 19.1399C2.36661 19.0199 2.19995 18.8866 2.05328 18.7399C1.91328 18.5866 1.78995 18.4299 1.68328 18.2699L2.51328 17.6199C2.59995 17.7599 2.68995 17.8899 2.78328 18.0099C2.88328 18.1232 2.99328 18.2232 3.11328 18.3099C3.23995 18.3899 3.37995 18.4532 3.53328 18.4999C3.69328 18.5466 3.87328 18.5699 4.07328 18.5699C4.49995 18.5699 4.82661 18.4699 5.05328 18.2699C5.27995 18.0632 5.39328 17.7799 5.39328 17.4199V17.3499C5.39328 16.9899 5.27328 16.7166 5.03328 16.5299C4.79328 16.3432 4.45328 16.2499 4.01328 16.2499H3.27328V15.2899H3.98328ZM12.7694 19.3999H8.02938V18.3199L10.2594 16.3299C10.6127 16.0099 10.8827 15.7066 11.0694 15.4199C11.2627 15.1266 11.3594 14.8199 11.3594 14.4999V14.3699C11.3594 14.0299 11.256 13.7632 11.0494 13.5699C10.8494 13.3766 10.576 13.2799 10.2294 13.2799C10.036 13.2799 9.86604 13.3099 9.71938 13.3699C9.57938 13.4232 9.45604 13.4999 9.34938 13.5999C9.24271 13.6999 9.15271 13.8166 9.07938 13.9499C9.01271 14.0832 8.95938 14.2266 8.91938 14.3799L7.92938 13.9999C8.00271 13.7799 8.10271 13.5699 8.22938 13.3699C8.35604 13.1632 8.51604 12.9799 8.70938 12.8199C8.90271 12.6599 9.12938 12.5332 9.38938 12.4399C9.65604 12.3466 9.96604 12.2999 10.3194 12.2999C10.6727 12.2999 10.9894 12.3532 11.2694 12.4599C11.5494 12.5599 11.7827 12.7032 11.9694 12.8899C12.1627 13.0699 12.3094 13.2866 12.4094 13.5399C12.5094 13.7932 12.5594 14.0699 12.5594 14.3699C12.5594 14.6499 12.516 14.9099 12.4294 15.1499C12.3427 15.3899 12.2227 15.6166 12.0694 15.8299C11.916 16.0432 11.736 16.2466 11.5294 16.4399C11.3294 16.6332 11.116 16.8299 10.8894 17.0299L9.24938 18.4399H12.7694V19.3999ZM16.3555 19.5199C15.9221 19.5199 15.5455 19.4399 15.2255 19.2799C14.9055 19.1132 14.6421 18.8766 14.4355 18.5699C14.2288 18.2632 14.0755 17.8866 13.9755 17.4399C13.8755 16.9932 13.8255 16.4832 13.8255 15.9099C13.8255 15.3432 13.8755 14.8366 13.9755 14.3899C14.0755 13.9366 14.2288 13.5566 14.4355 13.2499C14.6421 12.9432 14.9055 12.7099 15.2255 12.5499C15.5455 12.3832 15.9221 12.2999 16.3555 12.2999C17.2221 12.2999 17.8588 12.6166 18.2655 13.2499C18.6788 13.8832 18.8855 14.7699 18.8855 15.9099C18.8855 17.0499 18.6788 17.9366 18.2655 18.5699C17.8588 19.2032 17.2221 19.5199 16.3555 19.5199ZM16.3555 18.5599C16.5955 18.5599 16.7988 18.5132 16.9655 18.4199C17.1388 18.3199 17.2788 18.1799 17.3855 17.9999C17.4921 17.8199 17.5688 17.6066 17.6155 17.3599C17.6621 17.1066 17.6855 16.8266 17.6855 16.5199V15.2999C17.6855 14.9932 17.6621 14.7166 17.6155 14.4699C17.5688 14.2166 17.4921 13.9999 17.3855 13.8199C17.2788 13.6399 17.1388 13.5032 16.9655 13.4099C16.7988 13.3099 16.5955 13.2599 16.3555 13.2599C16.1155 13.2599 15.9088 13.3099 15.7355 13.4099C15.5688 13.5032 15.4321 13.6399 15.3255 13.8199C15.2188 13.9999 15.1421 14.2166 15.0955 14.4699C15.0488 14.7166 15.0255 14.9932 15.0255 15.2999V16.5199C15.0255 16.8266 15.0488 17.1066 15.0955 17.3599C15.1421 17.6066 15.2188 17.8199 15.3255 17.9999C15.4321 18.1799 15.5688 18.3199 15.7355 18.4199C15.9088 18.5132 16.1155 18.5599 16.3555 18.5599ZM22.4948 14.1999H23.5848V15.0599H23.6348C23.7482 14.7466 23.9315 14.5066 24.1848 14.3399C24.4448 14.1666 24.7482 14.0799 25.0948 14.0799C25.7548 14.0799 26.2648 14.3199 26.6248 14.7999C26.9848 15.2732 27.1648 15.9399 27.1648 16.7999C27.1648 17.6599 26.9848 18.3299 26.6248 18.8099C26.2648 19.2832 25.7548 19.5199 25.0948 19.5199C24.7482 19.5199 24.4448 19.4332 24.1848 19.2599C23.9315 19.0866 23.7482 18.8466 23.6348 18.5399H23.5848V21.3999H22.4948V14.1999ZM24.7648 18.5799C25.1448 18.5799 25.4482 18.4599 25.6748 18.2199C25.9015 17.9732 26.0148 17.6499 26.0148 17.2499V16.3499C26.0148 15.9499 25.9015 15.6299 25.6748 15.3899C25.4482 15.1432 25.1448 15.0199 24.7648 15.0199C24.4315 15.0199 24.1515 15.1032 23.9248 15.2699C23.6982 15.4299 23.5848 15.6432 23.5848 15.9099V17.6899C23.5848 17.9566 23.6982 18.1732 23.9248 18.3399C24.1515 18.4999 24.4315 18.5799 24.7648 18.5799ZM27.6961 19.3999L29.5261 16.7699L27.7461 14.1999H29.0061L30.1761 16.0099H30.2061L31.4061 14.1999H32.5661L30.7861 16.7599L32.5961 19.3999H31.3361L30.1361 17.5099H30.1061L28.8561 19.3999H27.6961Z" fill="#0FB56F"/>
</svg>
