<svg width="198" height="41" viewBox="0 0 198 41" fill="none" xmlns="http://www.w3.org/2000/svg">
<circle cx="3.04167" cy="3.04167" r="2.54167" transform="matrix(1 0 0 -1 68.418 35.5732)" stroke="#0FB56F" stroke-linecap="round" stroke-linejoin="round"/>
<path d="M74.502 32.5312H147.587C151.403 32.5312 155.122 31.3354 158.223 29.1118L196.929 1.35417" stroke="#0FB56F" stroke-linecap="round"/>
<path d="M6.11053 27.9252C6.89053 27.9252 7.46653 27.7632 7.83853 27.4392C8.21053 27.1032 8.39653 26.6772 8.39653 26.1612V26.0352C8.39653 25.4592 8.21653 25.0212 7.85653 24.7212C7.49653 24.4092 7.01053 24.2532 6.39853 24.2532C5.79853 24.2532 5.28853 24.3912 4.86853 24.6672C4.44853 24.9312 4.09453 25.3032 3.80653 25.7832L2.45653 24.6132C2.64853 24.3372 2.86453 24.0732 3.10453 23.8212C3.34453 23.5692 3.62653 23.3532 3.95053 23.1732C4.27453 22.9812 4.64053 22.8312 5.04853 22.7232C5.45653 22.6032 5.92453 22.5432 6.45253 22.5432C7.04053 22.5432 7.58653 22.6152 8.09053 22.7592C8.59453 22.9032 9.02653 23.1192 9.38653 23.4072C9.74653 23.6832 10.0285 24.0252 10.2325 24.4332C10.4365 24.8292 10.5385 25.2792 10.5385 25.7832C10.5385 26.1792 10.4725 26.5392 10.3405 26.8632C10.2205 27.1872 10.0465 27.4752 9.81853 27.7272C9.60253 27.9672 9.34453 28.1652 9.04453 28.3212C8.75653 28.4772 8.45053 28.5912 8.12653 28.6632V28.7532C8.48653 28.8252 8.82253 28.9452 9.13453 29.1132C9.45853 29.2692 9.74053 29.4792 9.98053 29.7432C10.2205 29.9952 10.4065 30.3012 10.5385 30.6612C10.6825 31.0092 10.7545 31.4112 10.7545 31.8672C10.7545 32.4192 10.6465 32.9232 10.4305 33.3792C10.2145 33.8232 9.90853 34.2072 9.51253 34.5312C9.12853 34.8552 8.66053 35.1072 8.10853 35.2872C7.55653 35.4552 6.94453 35.5392 6.27253 35.5392C5.68453 35.5392 5.16853 35.4732 4.72453 35.3412C4.28053 35.2212 3.88453 35.0592 3.53653 34.8552C3.20053 34.6392 2.90053 34.3992 2.63653 34.1352C2.38453 33.8592 2.16253 33.5772 1.97053 33.2892L3.46453 32.1192C3.62053 32.3712 3.78253 32.6052 3.95053 32.8212C4.13053 33.0252 4.32853 33.2052 4.54453 33.3612C4.77253 33.5052 5.02453 33.6192 5.30053 33.7032C5.58853 33.7872 5.91253 33.8292 6.27253 33.8292C7.04053 33.8292 7.62853 33.6492 8.03653 33.2892C8.44453 32.9172 8.64853 32.4072 8.64853 31.7592V31.6332C8.64853 30.9852 8.43253 30.4932 8.00053 30.1572C7.56853 29.8212 6.95653 29.6532 6.16453 29.6532H4.83253V27.9252H6.11053ZM21.9255 35.3232H13.3935V33.3792L17.4075 29.7972C18.0435 29.2212 18.5295 28.6752 18.8655 28.1592C19.2135 27.6312 19.3875 27.0792 19.3875 26.5032V26.2692C19.3875 25.6572 19.2015 25.1772 18.8295 24.8292C18.4695 24.4812 17.9775 24.3072 17.3535 24.3072C17.0055 24.3072 16.6995 24.3612 16.4355 24.4692C16.1835 24.5652 15.9615 24.7032 15.7695 24.8832C15.5775 25.0632 15.4155 25.2732 15.2835 25.5132C15.1635 25.7532 15.0675 26.0112 14.9955 26.2872L13.2135 25.6032C13.3455 25.2072 13.5255 24.8292 13.7535 24.4692C13.9815 24.0972 14.2695 23.7672 14.6175 23.4792C14.9655 23.1912 15.3735 22.9632 15.8415 22.7952C16.3215 22.6272 16.8795 22.5432 17.5155 22.5432C18.1515 22.5432 18.7215 22.6392 19.2255 22.8312C19.7295 23.0112 20.1495 23.2692 20.4855 23.6052C20.8335 23.9292 21.0975 24.3192 21.2775 24.7752C21.4575 25.2312 21.5475 25.7292 21.5475 26.2692C21.5475 26.7732 21.4695 27.2412 21.3135 27.6732C21.1575 28.1052 20.9415 28.5132 20.6655 28.8972C20.3895 29.2812 20.0655 29.6472 19.6935 29.9952C19.3335 30.3432 18.9495 30.6972 18.5415 31.0572L15.5895 33.5952H21.9255V35.3232ZM28.3805 35.5392C27.6005 35.5392 26.9225 35.3952 26.3465 35.1072C25.7705 34.8072 25.2965 34.3812 24.9245 33.8292C24.5525 33.2772 24.2765 32.5992 24.0965 31.7952C23.9165 30.9912 23.8265 30.0732 23.8265 29.0412C23.8265 28.0212 23.9165 27.1092 24.0965 26.3052C24.2765 25.4892 24.5525 24.8052 24.9245 24.2532C25.2965 23.7012 25.7705 23.2812 26.3465 22.9932C26.9225 22.6932 27.6005 22.5432 28.3805 22.5432C29.9405 22.5432 31.0865 23.1132 31.8185 24.2532C32.5625 25.3932 32.9345 26.9892 32.9345 29.0412C32.9345 31.0932 32.5625 32.6892 31.8185 33.8292C31.0865 34.9692 29.9405 35.5392 28.3805 35.5392ZM28.3805 33.8112C28.8125 33.8112 29.1785 33.7272 29.4785 33.5592C29.7905 33.3792 30.0425 33.1272 30.2345 32.8032C30.4265 32.4792 30.5645 32.0952 30.6485 31.6512C30.7325 31.1952 30.7745 30.6912 30.7745 30.1392V27.9432C30.7745 27.3912 30.7325 26.8932 30.6485 26.4492C30.5645 25.9932 30.4265 25.6032 30.2345 25.2792C30.0425 24.9552 29.7905 24.7092 29.4785 24.5412C29.1785 24.3612 28.8125 24.2712 28.3805 24.2712C27.9485 24.2712 27.5765 24.3612 27.2645 24.5412C26.9645 24.7092 26.7185 24.9552 26.5265 25.2792C26.3345 25.6032 26.1965 25.9932 26.1125 26.4492C26.0285 26.8932 25.9865 27.3912 25.9865 27.9432V30.1392C25.9865 30.6912 26.0285 31.1952 26.1125 31.6512C26.1965 32.0952 26.3345 32.4792 26.5265 32.8032C26.7185 33.1272 26.9645 33.3792 27.2645 33.5592C27.5765 33.7272 27.9485 33.8112 28.3805 33.8112ZM39.4313 25.9632H41.3933V27.5112H41.4833C41.6873 26.9472 42.0173 26.5152 42.4733 26.2152C42.9413 25.9032 43.4873 25.7472 44.1113 25.7472C45.2993 25.7472 46.2173 26.1792 46.8653 27.0432C47.5133 27.8952 47.8373 29.0952 47.8373 30.6432C47.8373 32.1912 47.5133 33.3972 46.8653 34.2612C46.2173 35.1132 45.2993 35.5392 44.1113 35.5392C43.4873 35.5392 42.9413 35.3832 42.4733 35.0712C42.0173 34.7592 41.6873 34.3272 41.4833 33.7752H41.3933V38.9232H39.4313V25.9632ZM43.5173 33.8472C44.2013 33.8472 44.7473 33.6312 45.1553 33.1992C45.5633 32.7552 45.7673 32.1732 45.7673 31.4532V29.8332C45.7673 29.1132 45.5633 28.5372 45.1553 28.1052C44.7473 27.6612 44.2013 27.4392 43.5173 27.4392C42.9173 27.4392 42.4133 27.5892 42.0053 27.8892C41.5973 28.1772 41.3933 28.5612 41.3933 29.0412V32.2452C41.3933 32.7252 41.5973 33.1152 42.0053 33.4152C42.4133 33.7032 42.9173 33.8472 43.5173 33.8472ZM48.7936 35.3232L52.0876 30.5892L48.8836 25.9632H51.1516L53.2576 29.2212H53.3116L55.4716 25.9632H57.5596L54.3556 30.5712L57.6136 35.3232H55.3456L53.1856 31.9212H53.1316L50.8816 35.3232H48.7936Z" fill="#0FB56F"/>
</svg>
