<svg width="255" height="273" viewBox="0 0 255 273" fill="none" xmlns="http://www.w3.org/2000/svg">
<rect x="0.822102" y="0.822102" width="252.95" height="271.345" stroke="url(#paint0_linear_1607_10743)" stroke-width="1.6442"/>
<g opacity="0.2">
<mask id="mask0_1607_10743" style="mask-type:alpha" maskUnits="userSpaceOnUse" x="8" y="9" width="239" height="255">
<rect x="8.48828" y="9.10046" width="237.621" height="254.79" fill="white"/>
</mask>
<g mask="url(#mask0_1607_10743)">
<line x1="0.616577" y1="-0.616577" x2="430.326" y2="-0.616577" transform="matrix(-0.682037 0.731317 -0.682037 -0.731317 182.443 -118.119)" stroke="#0FB56F" stroke-width="1.23315" stroke-linecap="round"/>
<line x1="0.616577" y1="-0.616577" x2="430.326" y2="-0.616577" transform="matrix(-0.682037 0.731317 -0.682037 -0.731317 330.965 41.1318)" stroke="#0FB56F" stroke-width="1.23315" stroke-linecap="round"/>
<line x1="0.616577" y1="-0.616577" x2="430.326" y2="-0.616577" transform="matrix(-0.682037 0.731317 -0.682037 -0.731317 128.436 -176.03)" stroke="#0FB56F" stroke-width="1.23315" stroke-linecap="round"/>
<line x1="0.616577" y1="-0.616577" x2="430.326" y2="-0.616577" transform="matrix(-0.682037 0.731317 -0.682037 -0.731317 276.959 -16.7772)" stroke="#0FB56F" stroke-width="1.23315" stroke-linecap="round"/>
<line x1="0.616577" y1="-0.616577" x2="430.326" y2="-0.616577" transform="matrix(-0.682037 0.731317 -0.682037 -0.731317 263.457 -31.2551)" stroke="#0FB56F" stroke-width="1.23315" stroke-linecap="round"/>
<line x1="0.616577" y1="-0.616577" x2="430.326" y2="-0.616577" transform="matrix(-0.682037 0.731317 -0.682037 -0.731317 411.975 127.998)" stroke="#0FB56F" stroke-width="1.23315" stroke-linecap="round"/>
<line x1="0.616577" y1="-0.616577" x2="430.326" y2="-0.616577" transform="matrix(-0.682037 0.731317 -0.682037 -0.731317 164.439 -137.424)" stroke="#0FB56F" stroke-width="1.23315" stroke-linecap="round"/>
<line x1="0.616577" y1="-0.616577" x2="430.326" y2="-0.616577" transform="matrix(-0.682037 0.731317 -0.682037 -0.731317 312.961 21.8293)" stroke="#0FB56F" stroke-width="1.23315" stroke-linecap="round"/>
<line x1="0.616577" y1="-0.616577" x2="430.326" y2="-0.616577" transform="matrix(-0.682037 0.731317 -0.682037 -0.731317 218.447 -79.5134)" stroke="#0FB56F" stroke-width="1.23315" stroke-linecap="round"/>
<line x1="0.616577" y1="-0.616577" x2="430.326" y2="-0.616577" transform="matrix(-0.682037 0.731317 -0.682037 -0.731317 366.971 79.7388)" stroke="#0FB56F" stroke-width="1.23315" stroke-linecap="round"/>
<line x1="0.616577" y1="-0.616577" x2="430.326" y2="-0.616577" transform="matrix(-0.682037 0.731317 -0.682037 -0.731317 146.438 -156.726)" stroke="#0FB56F" stroke-width="1.23315" stroke-linecap="round"/>
<line x1="0.616577" y1="-0.616577" x2="430.326" y2="-0.616577" transform="matrix(-0.682037 0.731317 -0.682037 -0.731317 294.963 2.52466)" stroke="#0FB56F" stroke-width="1.23315" stroke-linecap="round"/>
<line x1="0.616577" y1="-0.616577" x2="430.326" y2="-0.616577" transform="matrix(-0.682037 0.731317 -0.682037 -0.731317 245.453 -50.5591)" stroke="#0FB56F" stroke-width="1.23315" stroke-linecap="round"/>
<line x1="0.616577" y1="-0.616577" x2="430.326" y2="-0.616577" transform="matrix(-0.682037 0.731317 -0.682037 -0.731317 393.973 108.694)" stroke="#0FB56F" stroke-width="1.23315" stroke-linecap="round"/>
<line x1="0.616577" y1="-0.616577" x2="430.326" y2="-0.616577" transform="matrix(-0.682037 0.731317 -0.682037 -0.731317 186.945 -113.294)" stroke="#0FB56F" stroke-width="1.23315" stroke-linecap="round"/>
<line x1="0.616577" y1="-0.616577" x2="430.326" y2="-0.616577" transform="matrix(-0.682037 0.731317 -0.682037 -0.731317 335.467 45.9584)" stroke="#0FB56F" stroke-width="1.23315" stroke-linecap="round"/>
<line x1="0.616577" y1="-0.616577" x2="430.326" y2="-0.616577" transform="matrix(-0.682037 0.731317 -0.682037 -0.731317 200.441 -98.8159)" stroke="#0FB56F" stroke-width="1.23315" stroke-linecap="round"/>
<line x1="0.616577" y1="-0.616577" x2="430.326" y2="-0.616577" transform="matrix(-0.682037 0.731317 -0.682037 -0.731317 348.965 60.4362)" stroke="#0FB56F" stroke-width="1.23315" stroke-linecap="round"/>
<line x1="0.616577" y1="-0.616577" x2="430.326" y2="-0.616577" transform="matrix(-0.682037 0.731317 -0.682037 -0.731317 272.455 -21.6038)" stroke="#0FB56F" stroke-width="1.23315" stroke-linecap="round"/>
<line x1="0.616577" y1="-0.616577" x2="430.326" y2="-0.616577" transform="matrix(-0.682037 0.731317 -0.682037 -0.731317 420.979 137.647)" stroke="#0FB56F" stroke-width="1.23315" stroke-linecap="round"/>
<line x1="0.616577" y1="-0.616577" x2="430.326" y2="-0.616577" transform="matrix(-0.682037 0.731317 -0.682037 -0.731317 236.451 -60.2104)" stroke="#0FB56F" stroke-width="1.23315" stroke-linecap="round"/>
<line x1="0.616577" y1="-0.616577" x2="430.326" y2="-0.616577" transform="matrix(-0.682037 0.731317 -0.682037 -0.731317 384.975 99.0415)" stroke="#0FB56F" stroke-width="1.23315" stroke-linecap="round"/>
<line x1="0.616577" y1="-0.616577" x2="430.326" y2="-0.616577" transform="matrix(-0.682037 0.731317 -0.682037 -0.731317 173.441 -127.773)" stroke="#0FB56F" stroke-width="1.23315" stroke-linecap="round"/>
<line x1="0.616577" y1="-0.616577" x2="430.326" y2="-0.616577" transform="matrix(-0.682037 0.731317 -0.682037 -0.731317 321.965 31.481)" stroke="#0FB56F" stroke-width="1.23315" stroke-linecap="round"/>
<line x1="0.616577" y1="-0.616577" x2="430.326" y2="-0.616577" transform="matrix(-0.682037 0.731317 -0.682037 -0.731317 227.449 -69.8605)" stroke="#0FB56F" stroke-width="1.23315" stroke-linecap="round"/>
<line x1="0.616577" y1="-0.616577" x2="430.326" y2="-0.616577" transform="matrix(-0.682037 0.731317 -0.682037 -0.731317 375.967 89.3904)" stroke="#0FB56F" stroke-width="1.23315" stroke-linecap="round"/>
<line x1="0.616577" y1="-0.616577" x2="430.326" y2="-0.616577" transform="matrix(-0.682037 0.731317 -0.682037 -0.731317 155.439 -147.075)" stroke="#0FB56F" stroke-width="1.23315" stroke-linecap="round"/>
<line x1="0.616577" y1="-0.616577" x2="430.326" y2="-0.616577" transform="matrix(-0.682037 0.731317 -0.682037 -0.731317 303.963 12.177)" stroke="#0FB56F" stroke-width="1.23315" stroke-linecap="round"/>
<line x1="0.616577" y1="-0.616577" x2="430.326" y2="-0.616577" transform="matrix(-0.682037 0.731317 -0.682037 -0.731317 254.451 -40.908)" stroke="#0FB56F" stroke-width="1.23315" stroke-linecap="round"/>
<line x1="0.616577" y1="-0.616577" x2="430.326" y2="-0.616577" transform="matrix(-0.682037 0.731317 -0.682037 -0.731317 402.975 118.346)" stroke="#0FB56F" stroke-width="1.23315" stroke-linecap="round"/>
<line x1="0.616577" y1="-0.616577" x2="430.436" y2="-0.616577" transform="matrix(-0.681687 0.731693 -0.683956 -0.729254 205.02 -94.0709)" stroke="#0FB56F" stroke-width="1.23315" stroke-linecap="round"/>
<line x1="0.616577" y1="-0.616577" x2="430.436" y2="-0.616577" transform="matrix(-0.681687 0.731693 -0.683956 -0.729254 353.545 65.1804)" stroke="#0FB56F" stroke-width="1.23315" stroke-linecap="round"/>
<line x1="0.616577" y1="-0.616577" x2="430.326" y2="-0.616577" transform="matrix(-0.682037 0.731317 -0.682037 -0.731317 191.443 -108.468)" stroke="#0FB56F" stroke-width="1.23315" stroke-linecap="round"/>
<line x1="0.616577" y1="-0.616577" x2="430.326" y2="-0.616577" transform="matrix(-0.682037 0.731317 -0.682037 -0.731317 339.965 50.7828)" stroke="#0FB56F" stroke-width="1.23315" stroke-linecap="round"/>
<line x1="0.616577" y1="-0.616577" x2="430.326" y2="-0.616577" transform="matrix(-0.682037 0.731317 -0.682037 -0.731317 132.936 -171.204)" stroke="#0FB56F" stroke-width="1.23315" stroke-linecap="round"/>
<line x1="0.616577" y1="-0.616577" x2="430.326" y2="-0.616577" transform="matrix(-0.682037 0.731317 -0.682037 -0.731317 281.457 -11.9515)" stroke="#0FB56F" stroke-width="1.23315" stroke-linecap="round"/>
<line x1="0.616577" y1="-0.616577" x2="430.326" y2="-0.616577" transform="matrix(-0.682037 0.731317 -0.682037 -0.731317 138.756 -167.791)" stroke="#0FB56F" stroke-width="1.23315" stroke-linecap="round"/>
<line x1="0.616577" y1="-0.616577" x2="430.326" y2="-0.616577" transform="matrix(-0.682037 0.731317 -0.682037 -0.731317 287.273 -8.53931)" stroke="#0FB56F" stroke-width="1.23315" stroke-linecap="round"/>
<line x1="0.616577" y1="-0.616577" x2="430.326" y2="-0.616577" transform="matrix(-0.682037 0.731317 -0.682037 -0.731317 267.957 -26.4293)" stroke="#0FB56F" stroke-width="1.23315" stroke-linecap="round"/>
<line x1="0.616577" y1="-0.616577" x2="430.326" y2="-0.616577" transform="matrix(-0.682037 0.731317 -0.682037 -0.731317 416.475 132.823)" stroke="#0FB56F" stroke-width="1.23315" stroke-linecap="round"/>
<line x1="0.616577" y1="-0.616577" x2="430.326" y2="-0.616577" transform="matrix(-0.682037 0.731317 -0.682037 -0.731317 168.943 -132.598)" stroke="#0FB56F" stroke-width="1.23315" stroke-linecap="round"/>
<line x1="0.616577" y1="-0.616577" x2="430.326" y2="-0.616577" transform="matrix(-0.682037 0.731317 -0.682037 -0.731317 317.463 26.655)" stroke="#0FB56F" stroke-width="1.23315" stroke-linecap="round"/>
<line x1="0.616577" y1="-0.616577" x2="430.326" y2="-0.616577" transform="matrix(-0.682037 0.731317 -0.682037 -0.731317 222.947 -74.6877)" stroke="#0FB56F" stroke-width="1.23315" stroke-linecap="round"/>
<line x1="0.616577" y1="-0.616577" x2="430.326" y2="-0.616577" transform="matrix(-0.682037 0.731317 -0.682037 -0.731317 371.469 84.5634)" stroke="#0FB56F" stroke-width="1.23315" stroke-linecap="round"/>
<line x1="0.616577" y1="-0.616577" x2="430.326" y2="-0.616577" transform="matrix(-0.682037 0.731317 -0.682037 -0.731317 150.939 -151.901)" stroke="#0FB56F" stroke-width="1.23315" stroke-linecap="round"/>
<line x1="0.616577" y1="-0.616577" x2="430.326" y2="-0.616577" transform="matrix(-0.682037 0.731317 -0.682037 -0.731317 299.459 7.35132)" stroke="#0FB56F" stroke-width="1.23315" stroke-linecap="round"/>
<line x1="0.616577" y1="-0.616577" x2="430.326" y2="-0.616577" transform="matrix(-0.682037 0.731317 -0.682037 -0.731317 249.951 -45.7336)" stroke="#0FB56F" stroke-width="1.23315" stroke-linecap="round"/>
<line x1="0.616577" y1="-0.616577" x2="430.326" y2="-0.616577" transform="matrix(-0.682037 0.731317 -0.682037 -0.731317 398.475 113.52)" stroke="#0FB56F" stroke-width="1.23315" stroke-linecap="round"/>
<line x1="0.616577" y1="-0.616577" x2="430.326" y2="-0.616577" transform="matrix(-0.682037 0.731317 -0.682037 -0.731317 195.947 -103.643)" stroke="#0FB56F" stroke-width="1.23315" stroke-linecap="round"/>
<line x1="0.616577" y1="-0.616577" x2="430.326" y2="-0.616577" transform="matrix(-0.682037 0.731317 -0.682037 -0.731317 344.467 55.6099)" stroke="#0FB56F" stroke-width="1.23315" stroke-linecap="round"/>
<line x1="0.616577" y1="-0.616577" x2="430.326" y2="-0.616577" transform="matrix(-0.682037 0.731317 -0.682037 -0.731317 209.447 -89.1646)" stroke="#0FB56F" stroke-width="1.23315" stroke-linecap="round"/>
<line x1="0.616577" y1="-0.616577" x2="430.326" y2="-0.616577" transform="matrix(-0.682037 0.731317 -0.682037 -0.731317 357.969 70.087)" stroke="#0FB56F" stroke-width="1.23315" stroke-linecap="round"/>
<line x1="0.616577" y1="-0.616577" x2="430.326" y2="-0.616577" transform="matrix(-0.682037 0.731317 -0.682037 -0.731317 141.939 -161.552)" stroke="#0FB56F" stroke-width="1.23315" stroke-linecap="round"/>
<line x1="0.616577" y1="-0.616577" x2="430.326" y2="-0.616577" transform="matrix(-0.682037 0.731317 -0.682037 -0.731317 290.455 -2.30042)" stroke="#0FB56F" stroke-width="1.23315" stroke-linecap="round"/>
<line x1="0.616577" y1="-0.616577" x2="430.326" y2="-0.616577" transform="matrix(-0.682037 0.731317 -0.682037 -0.731317 240.953 -55.3848)" stroke="#0FB56F" stroke-width="1.23315" stroke-linecap="round"/>
<line x1="0.616577" y1="-0.616577" x2="430.326" y2="-0.616577" transform="matrix(-0.682037 0.731317 -0.682037 -0.731317 389.471 103.867)" stroke="#0FB56F" stroke-width="1.23315" stroke-linecap="round"/>
<line x1="0.616577" y1="-0.616577" x2="430.326" y2="-0.616577" transform="matrix(-0.682037 0.731317 -0.682037 -0.731317 177.943 -122.946)" stroke="#0FB56F" stroke-width="1.23315" stroke-linecap="round"/>
<line x1="0.616577" y1="-0.616577" x2="430.326" y2="-0.616577" transform="matrix(-0.682037 0.731317 -0.682037 -0.731317 326.461 36.3065)" stroke="#0FB56F" stroke-width="1.23315" stroke-linecap="round"/>
<line x1="0.616577" y1="-0.616577" x2="430.326" y2="-0.616577" transform="matrix(-0.682037 0.731317 -0.682037 -0.731317 231.949 -65.0348)" stroke="#0FB56F" stroke-width="1.23315" stroke-linecap="round"/>
<line x1="0.616577" y1="-0.616577" x2="430.326" y2="-0.616577" transform="matrix(-0.682037 0.731317 -0.682037 -0.731317 380.471 94.2153)" stroke="#0FB56F" stroke-width="1.23315" stroke-linecap="round"/>
<line x1="0.616577" y1="-0.616577" x2="430.326" y2="-0.616577" transform="matrix(-0.682037 0.731317 -0.682037 -0.731317 159.939 -142.249)" stroke="#0FB56F" stroke-width="1.23315" stroke-linecap="round"/>
<line x1="0.616577" y1="-0.616577" x2="430.326" y2="-0.616577" transform="matrix(-0.682037 0.731317 -0.682037 -0.731317 308.457 17.0032)" stroke="#0FB56F" stroke-width="1.23315" stroke-linecap="round"/>
<line x1="0.616577" y1="-0.616577" x2="430.326" y2="-0.616577" transform="matrix(-0.682037 0.731317 -0.682037 -0.731317 258.953 -36.0808)" stroke="#0FB56F" stroke-width="1.23315" stroke-linecap="round"/>
<line x1="0.616577" y1="-0.616577" x2="430.326" y2="-0.616577" transform="matrix(-0.682037 0.731317 -0.682037 -0.731317 407.477 123.17)" stroke="#0FB56F" stroke-width="1.23315" stroke-linecap="round"/>
<line x1="0.616577" y1="-0.616577" x2="430.326" y2="-0.616577" transform="matrix(-0.682037 0.731317 -0.682037 -0.731317 213.949 -84.3398)" stroke="#0FB56F" stroke-width="1.23315" stroke-linecap="round"/>
<line x1="0.616577" y1="-0.616577" x2="430.326" y2="-0.616577" transform="matrix(-0.682037 0.731317 -0.682037 -0.731317 362.469 74.9121)" stroke="#0FB56F" stroke-width="1.23315" stroke-linecap="round"/>
</g>
</g>
<path d="M188.141 65.1448H144.323C143.862 65.1448 143.488 64.7711 143.488 64.3101V24.381C143.488 23.9201 143.862 23.5464 144.323 23.5464H231.96C232.421 23.5464 232.795 23.9201 232.795 24.381V64.3101C232.795 64.7711 232.421 65.1448 231.96 65.1448H188.141ZM188.141 65.1448V73.2143M188.141 73.2143H193.156M188.141 73.2143H182.855" stroke="white" stroke-width="1.6442" stroke-linecap="round"/>
<path d="M153.88 34.0473C153.88 33.4417 153.872 32.8345 153.88 32.229C153.892 31.4846 154.234 31.1015 154.92 31.0932C156.088 31.0809 157.257 31.0809 158.427 31.0932C159.122 31.0932 159.478 31.4746 159.485 32.2089C159.497 33.4635 159.497 34.718 159.485 35.9726C159.485 36.717 159.128 37.1 158.444 37.1084C157.274 37.1218 156.105 37.1218 154.937 37.1084C154.242 37.1084 153.892 36.727 153.878 35.9927C153.87 35.3436 153.88 34.6963 153.88 34.0473ZM155.782 33.1256V35.066H157.58V33.1256H155.782Z" fill="white"/>
<path d="M167.006 35.0627V33.129H180.028V35.0627H167.006Z" fill="white"/>
<path d="M165.077 33.1339V35.0576H162.34V33.1339H165.077Z" fill="#0FB56F"/>
<path d="M153.88 44.0971C153.88 43.4915 153.872 42.8843 153.88 42.2788C153.892 41.5344 154.234 41.1514 154.92 41.143C156.088 41.1307 157.257 41.1307 158.427 41.143C159.122 41.143 159.478 41.5244 159.485 42.2587C159.497 43.5133 159.497 44.7678 159.485 46.0224C159.485 46.7668 159.128 47.1498 158.444 47.1582C157.274 47.1716 156.105 47.1716 154.937 47.1582C154.242 47.1582 153.892 46.7768 153.878 46.0425C153.87 45.3934 153.88 44.7461 153.88 44.0971ZM155.782 43.1754V45.1158H157.58V43.1754H155.782Z" fill="white"/>
<path d="M167.006 45.1125V43.1788H180.028V45.1125H167.006Z" fill="white"/>
<path d="M165.077 43.1837V45.1074H162.34V43.1837H165.077Z" fill="#0FB56F"/>
<path d="M153.88 54.1467C153.88 53.5412 153.872 52.934 153.88 52.3285C153.892 51.5841 154.234 51.201 154.92 51.1927C156.088 51.1804 157.257 51.1804 158.427 51.1927C159.122 51.1927 159.478 51.5741 159.485 52.3084C159.497 53.563 159.497 54.8175 159.485 56.0721C159.485 56.8165 159.128 57.1995 158.444 57.2079C157.274 57.2213 156.105 57.2213 154.937 57.2079C154.242 57.2079 153.892 56.8265 153.878 56.0922C153.87 55.4431 153.88 54.7958 153.88 54.1467ZM155.782 53.2251V55.1655H157.58V53.2251H155.782Z" fill="white"/>
<path d="M167.006 55.1622V53.2285H180.028V55.1622H167.006Z" fill="white"/>
<path d="M165.077 53.2334V55.1571H162.34V53.2334H165.077Z" fill="#0FB56F"/>
<path d="M216.555 41.1337H210.932C209.896 41.1337 209.057 40.2338 209.057 39.1238V33.0938C209.057 31.9838 209.896 31.0839 210.932 31.0839H216.555C217.59 31.0839 218.43 31.9838 218.43 33.0938V39.1238C218.43 40.2338 217.59 41.1337 216.555 41.1337ZM216.555 33.0938H210.932V39.1238H216.555V33.0938Z" fill="#0FB56F"/>
<path d="M205.303 41.1337H199.68C198.644 41.1337 197.805 40.2338 197.805 39.1238V33.0938C197.805 31.9838 198.644 31.0839 199.68 31.0839H205.303C206.338 31.0839 207.178 31.9838 207.178 33.0938V39.1238C207.178 40.2338 206.338 41.1337 205.303 41.1337ZM205.303 33.0938H199.68V39.1238H205.303V33.0938Z" fill="#0FB56F"/>
<path d="M216.555 53.1931H210.932C209.896 53.1931 209.057 52.2932 209.057 51.1831V45.1532C209.057 44.0431 209.896 43.1432 210.932 43.1432H216.555C217.59 43.1432 218.43 44.0431 218.43 45.1532V51.1831C218.43 52.2932 217.59 53.1931 216.555 53.1931ZM216.555 45.1532H210.932V51.1831H216.555V45.1532Z" fill="#0FB56F"/>
<path d="M205.303 53.1931H199.68C198.644 53.1931 197.805 52.2932 197.805 51.1831V45.1532C197.805 44.0431 198.644 43.1432 199.68 43.1432H205.303C206.338 43.1432 207.178 44.0431 207.178 45.1532V51.1831C207.178 52.2932 206.338 53.1931 205.303 53.1931ZM205.303 45.1532H199.68V51.1831H205.303V45.1532Z" fill="#0FB56F"/>
<path d="M20.6082 247.256C20.6082 246.65 20.6004 246.043 20.6082 245.437C20.6207 244.693 20.9628 244.31 21.6486 244.302C22.817 244.289 23.986 244.289 25.1555 244.302C25.8506 244.302 26.2068 244.683 26.213 245.417C26.2255 246.672 26.2255 247.927 26.213 249.181C26.213 249.925 25.8569 250.309 25.1727 250.317C24.0021 250.33 22.8332 250.33 21.6657 250.317C20.9706 250.317 20.6207 249.936 20.6066 249.201C20.5988 248.552 20.6082 247.905 20.6082 247.256ZM22.5108 246.334V248.274H24.3088V246.334H22.5108Z" fill="white"/>
<path d="M33.7344 248.271V246.337H46.7561V248.271H33.7344Z" fill="white"/>
<path d="M31.8052 246.342V248.266H29.0684V246.342H31.8052Z" fill="#0FB56F"/>
<path d="M65.493 247.256C65.493 246.65 65.4851 246.043 65.493 245.437C65.5054 244.693 65.8476 244.31 66.5333 244.302C67.7018 244.289 68.8708 244.289 70.0403 244.302C70.7354 244.302 71.0916 244.683 71.0978 245.417C71.1103 246.672 71.1103 247.927 71.0978 249.181C71.0978 249.925 70.7416 250.309 70.0574 250.317C68.8869 250.33 67.7179 250.33 66.5505 250.317C65.8554 250.317 65.5054 249.936 65.4914 249.201C65.4836 248.552 65.493 247.905 65.493 247.256ZM67.3956 246.334V248.274H69.1936V246.334H67.3956Z" fill="white"/>
<path d="M78.6191 248.271V246.337H91.6409V248.271H78.6191Z" fill="white"/>
<path d="M76.6899 246.342V248.266H73.9531V246.342H76.6899Z" fill="#0FB56F"/>
<path d="M116.264 247.256C116.264 246.65 116.257 246.043 116.264 245.437C116.277 244.693 116.619 244.31 117.305 244.302C118.473 244.289 119.642 244.289 120.812 244.302C121.507 244.302 121.863 244.683 121.869 245.417C121.882 246.672 121.882 247.927 121.869 249.181C121.869 249.925 121.513 250.309 120.829 250.317C119.658 250.33 118.489 250.33 117.322 250.317C116.627 250.317 116.277 249.936 116.263 249.201C116.255 248.552 116.264 247.905 116.264 247.256ZM118.167 246.334V248.274H119.965V246.334H118.167Z" fill="white"/>
<path d="M129.391 248.271V246.337H142.412V248.271H129.391Z" fill="white"/>
<path d="M127.461 246.342V248.266H124.725V246.342H127.461Z" fill="#0FB56F"/>
<path d="M165.567 247.256C165.567 246.65 165.559 246.043 165.567 245.437C165.58 244.693 165.922 244.31 166.608 244.302C167.776 244.289 168.945 244.289 170.114 244.302C170.81 244.302 171.166 244.683 171.172 245.417C171.185 246.672 171.185 247.927 171.172 249.181C171.172 249.925 170.816 250.309 170.132 250.317C168.961 250.33 167.792 250.33 166.625 250.317C165.93 250.317 165.58 249.936 165.566 249.201C165.558 248.552 165.567 247.905 165.567 247.256ZM167.47 246.334V248.274H169.268V246.334H167.47Z" fill="white"/>
<path d="M178.693 248.271V246.337H191.715V248.271H178.693Z" fill="white"/>
<path d="M176.764 246.342V248.266H174.027V246.342H176.764Z" fill="#0FB56F"/>
<path d="M212.655 247.256C212.655 246.65 212.647 246.043 212.655 245.437C212.668 244.693 213.01 244.31 213.695 244.302C214.864 244.289 216.033 244.289 217.202 244.302C217.897 244.302 218.254 244.683 218.26 245.417C218.272 246.672 218.272 247.927 218.26 249.181C218.26 249.925 217.904 250.309 217.22 250.317C216.049 250.33 214.88 250.33 213.713 250.317C213.017 250.317 212.668 249.936 212.653 249.201C212.646 248.552 212.655 247.905 212.655 247.256ZM214.558 246.334V248.274H216.356V246.334H214.558Z" fill="white"/>
<path d="M225.781 248.271V246.337H238.803V248.271H225.781Z" fill="white"/>
<path d="M223.852 246.342V248.266H221.115V246.342H223.852Z" fill="#0FB56F"/>
<path d="M239.875 252.387H210.442L201.98 217.067L150.841 217.067" stroke="#0FB56F" stroke-width="0.822102" stroke-linecap="round"/>
<path d="M192.783 252.387H163.35L154.888 217.067L127.295 217.067" stroke="#0FB56F" stroke-width="0.822102" stroke-linecap="round"/>
<path d="M142.744 252.387H113.311L119.934 217.067H127.66V199.04" stroke="#0FB56F" stroke-width="0.822102" stroke-linecap="round"/>
<path d="M64.0137 252.387H93.4465L101.908 217.067L123.615 217.067" stroke="#0FB56F" stroke-width="0.822102" stroke-linecap="round"/>
<path d="M19.1289 252.387H48.5617L57.0237 217.067L108.899 217.067" stroke="#0FB56F" stroke-width="0.822102" stroke-linecap="round"/>
<path d="M26.4356 30.413H29.1288C29.6681 30.413 30.0891 30.5676 30.3916 30.8767C30.7007 31.1792 30.8553 31.6034 30.8553 32.1493C30.8553 32.3861 30.8224 32.5932 30.7566 32.7708C30.6974 32.9484 30.6185 33.0964 30.5198 33.2147C30.4212 33.3331 30.3061 33.4285 30.1746 33.5008C30.0496 33.5732 29.9246 33.6225 29.7997 33.6488V33.6883C29.9575 33.708 30.1154 33.7573 30.2732 33.8363C30.4311 33.9086 30.5725 34.0138 30.6974 34.1519C30.8224 34.2835 30.9243 34.4512 31.0032 34.6551C31.0822 34.8524 31.1216 35.0859 31.1216 35.3555C31.1216 35.6383 31.0789 35.8981 30.9934 36.1349C30.9145 36.3716 30.7961 36.5788 30.6382 36.7564C30.487 36.9274 30.3028 37.0622 30.0858 37.1608C29.8753 37.2529 29.6386 37.299 29.3755 37.299H26.4356V30.413ZM27.0276 36.7761H29.2176C29.632 36.7761 29.9477 36.6643 30.1647 36.4407C30.3817 36.2105 30.4903 35.9145 30.4903 35.5528V35.1878C30.4903 34.8326 30.3817 34.5433 30.1647 34.3197C29.9477 34.0895 29.632 33.9744 29.2176 33.9744H27.0276V36.7761ZM27.0276 33.4614H29.0697C29.4445 33.4614 29.7306 33.3627 29.9279 33.1654C30.1252 32.9615 30.2239 32.7018 30.2239 32.3861V32.0112C30.2239 31.6955 30.1252 31.439 29.9279 31.2417C29.7306 31.0378 29.4445 30.9359 29.0697 30.9359H27.0276V33.4614ZM32.6675 37.299V32.248H33.2298V33.1556H33.2692C33.3679 32.9188 33.5356 32.7083 33.7724 32.5242C34.0091 32.34 34.3446 32.248 34.7786 32.248H35.114V32.8004H34.6701C34.2492 32.8004 33.9039 32.8925 33.6343 33.0766C33.3646 33.2608 33.2298 33.5173 33.2298 33.8461V37.299H32.6675ZM39.6468 37.299C39.4298 37.299 39.2719 37.243 39.1733 37.1312C39.0746 37.0194 39.0187 36.8682 39.0056 36.6774V36.4999H38.9562C38.8444 36.7827 38.6603 37.0063 38.4038 37.1707C38.1473 37.3351 37.8217 37.4173 37.4271 37.4173C36.8944 37.4173 36.4834 37.2891 36.194 37.0326C35.9046 36.7695 35.7599 36.4012 35.7599 35.9277C35.7599 35.4805 35.9177 35.1253 36.2334 34.8622C36.5557 34.5992 37.0818 34.4676 37.8119 34.4676H38.976V33.8757C38.976 33.0405 38.5452 32.6228 37.6836 32.6228C37.3482 32.6228 37.0687 32.6952 36.8451 32.8399C36.6215 32.978 36.4406 33.1786 36.3025 33.4416L35.9473 33.1457C36.0855 32.8497 36.2959 32.6064 36.5787 32.4157C36.8681 32.2249 37.243 32.1296 37.7034 32.1296C38.2953 32.1296 38.7491 32.2775 39.0648 32.5735C39.3804 32.8695 39.5383 33.2838 39.5383 33.8165V36.8057H40.219V37.299H39.6468ZM37.506 36.9339C37.7099 36.9339 37.9007 36.9076 38.0782 36.855C38.2558 36.8024 38.4104 36.7301 38.5419 36.638C38.68 36.5393 38.7852 36.4242 38.8576 36.2927C38.9365 36.1546 38.976 36 38.976 35.829V34.8918H37.7921C37.2857 34.8918 36.9174 34.974 36.6872 35.1385C36.4636 35.2963 36.3518 35.5166 36.3518 35.7994V36.0362C36.3518 36.3322 36.457 36.5558 36.6675 36.707C36.878 36.8583 37.1575 36.9339 37.506 36.9339ZM41.6528 30.8767C41.5213 30.8767 41.4226 30.8438 41.3569 30.778C41.2977 30.7123 41.2681 30.6268 41.2681 30.5215V30.4229C41.2681 30.3177 41.2977 30.2322 41.3569 30.1664C41.4226 30.1006 41.5213 30.0677 41.6528 30.0677C41.7844 30.0677 41.8797 30.1006 41.9389 30.1664C42.0047 30.2322 42.0376 30.3177 42.0376 30.4229V30.5215C42.0376 30.6268 42.0047 30.7123 41.9389 30.778C41.8797 30.8438 41.7844 30.8767 41.6528 30.8767ZM41.3766 32.248H41.9389V37.299H41.3766V32.248ZM43.7755 37.299V32.248H44.3378V33.047H44.3674C44.4792 32.784 44.6535 32.5669 44.8903 32.3959C45.127 32.2184 45.4493 32.1296 45.857 32.1296C46.3963 32.1296 46.814 32.2973 47.1099 32.6327C47.4125 32.9615 47.5637 33.4351 47.5637 34.0533V37.299H47.0014V34.1519C47.0014 33.6389 46.8896 33.2575 46.666 33.0076C46.449 32.7577 46.13 32.6327 45.7091 32.6327C45.5315 32.6327 45.3605 32.6557 45.1961 32.7018C45.0317 32.7478 44.8837 32.8168 44.7521 32.9089C44.6272 33.001 44.5252 33.1194 44.4463 33.2641C44.374 33.4022 44.3378 33.5633 44.3378 33.7475V37.299H43.7755Z" fill="#0FB56F"/>
<path d="M101.021 99.323C105.711 95.7876 111.436 93.8807 117.318 93.8947C119.35 93.8494 121.36 94.3149 123.163 95.2482C124.966 96.1815 126.504 97.5524 127.633 99.234C128.763 97.5524 130.3 96.1815 132.103 95.2482C133.906 94.3149 135.916 93.8494 137.948 93.8947C143.83 93.8807 149.555 95.7876 154.245 99.323C157.855 102.116 160.64 105.983 161.624 110.659C163.879 110.83 165.942 111.761 167.675 113.164C170.302 115.286 172.213 118.469 173.417 121.837C175.301 127.074 175.81 133.748 173.857 139.429C174.352 139.662 174.84 139.936 175.315 140.251C177.206 141.503 178.643 143.297 179.702 145.412C181.785 149.553 182.645 155.331 182.645 162.347C182.645 170.157 179.654 175.401 175.858 178.639C173.759 180.43 171.282 181.729 168.61 182.438C167.922 186.257 165.997 190.679 162.978 194.431C159.059 199.325 152.98 203.418 144.824 203.418C138.36 203.418 133.217 199.859 129.875 196.368C129.076 195.534 128.327 194.654 127.633 193.732C126.939 194.654 126.19 195.534 125.391 196.368C122.049 199.859 116.913 203.418 110.442 203.418C102.286 203.418 96.2143 199.325 92.2879 194.431C89.4668 190.943 87.5347 186.829 86.656 182.438C83.9844 181.729 81.5072 180.43 79.4082 178.639C75.6124 175.401 72.6211 170.151 72.6211 162.347C72.6211 155.331 73.4875 149.546 75.5642 145.412C76.5485 143.338 78.061 141.556 79.9514 140.244C80.4159 139.938 80.9032 139.668 81.4093 139.436C79.4563 133.741 79.9652 127.074 81.8493 121.837C83.0527 118.469 84.9644 115.286 87.5912 113.164C89.3241 111.761 91.387 110.837 93.6425 110.659C94.6327 105.983 97.4177 102.116 101.028 99.323H101.021ZM124.195 111.008V110.939L124.181 110.597C124.08 108.813 123.723 107.052 123.122 105.367C122.694 104.096 121.965 102.946 120.997 102.013C119.982 101.133 118.664 100.677 117.318 100.74C112.965 100.725 108.726 102.124 105.243 104.724C102.052 107.195 100.127 110.542 100.127 114.43C100.127 114.972 99.9969 115.507 99.7486 115.989C99.5002 116.471 99.1403 116.888 98.6985 117.205C98.2567 117.522 97.7456 117.73 97.2073 117.811C96.669 117.893 96.1189 117.846 95.6023 117.675C94.3095 117.251 93.1543 117.49 91.9234 118.476C90.5756 119.571 89.2622 121.515 88.3201 124.137C86.4016 129.49 86.601 135.972 89.2347 139.915C89.6108 140.477 89.8118 141.136 89.8123 141.811H94.9697C99.0732 141.811 103.009 143.434 105.91 146.322C108.812 149.211 110.442 153.128 110.442 157.213V159.506C112.736 160.314 114.669 161.902 115.9 163.992C117.132 166.081 117.581 168.536 117.17 170.923C116.758 173.31 115.512 175.476 113.652 177.037C111.792 178.598 109.437 179.455 107.004 179.455C104.57 179.455 102.215 178.598 100.355 177.037C98.4948 175.476 97.2488 173.31 96.8374 170.923C96.4259 168.536 96.8755 166.081 98.1066 163.992C99.3378 161.902 101.271 160.314 103.565 159.506V157.213C103.565 152.49 99.7145 148.657 94.9697 148.657H82.9358C82.5248 148.656 82.1172 148.582 81.7324 148.438L81.7118 148.479C80.3503 151.182 79.4976 155.673 79.4976 162.347C79.4976 168.227 81.6637 171.54 83.8848 173.436C86.2709 175.476 88.9184 176.038 89.8123 176.038C90.7242 176.038 91.5987 176.398 92.2435 177.04C92.8883 177.682 93.2506 178.552 93.2506 179.46C93.2506 181.979 94.6259 186.381 97.6515 190.159C100.602 193.821 104.844 196.573 110.442 196.573C114.293 196.573 117.745 194.431 120.413 191.645C121.726 190.276 122.751 188.859 123.418 187.695C123.721 187.179 123.981 186.639 124.195 186.079V131.544H116.734C115.923 133.827 114.327 135.752 112.228 136.977C110.129 138.203 107.663 138.65 105.265 138.241C102.867 137.831 100.691 136.591 99.1227 134.739C97.5544 132.887 96.6942 130.543 96.6942 128.121C96.6942 125.699 97.5544 123.355 99.1227 121.503C100.691 119.651 102.867 118.411 105.265 118.001C107.663 117.591 110.129 118.039 112.228 119.264C114.327 120.49 115.923 122.415 116.734 124.698H124.195V111.008ZM131.071 179.453V186.073C131.285 186.632 131.545 187.172 131.848 187.688C132.522 188.852 133.54 190.269 134.846 191.638C137.521 194.424 140.98 196.566 144.824 196.566C150.422 196.566 154.665 193.815 157.615 190.152C160.64 186.374 162.015 181.972 162.015 179.453C162.015 178.546 162.378 177.675 163.023 177.033C163.667 176.391 164.542 176.031 165.454 176.031C166.348 176.031 168.995 175.469 171.381 173.429C173.602 171.533 175.768 168.22 175.768 162.34C175.768 155.666 174.909 151.182 173.554 148.472C173.101 147.462 172.39 146.589 171.491 145.939C170.717 145.446 169.81 145.2 168.892 145.234C168.27 145.234 167.66 145.065 167.126 144.747C166.593 144.429 166.156 143.973 165.863 143.427C165.569 142.881 165.43 142.266 165.459 141.648C165.489 141.029 165.687 140.431 166.031 139.915C168.672 135.972 168.864 129.49 166.946 124.137C166.004 121.515 164.69 119.564 163.343 118.476C162.112 117.49 160.957 117.244 159.664 117.675C159.147 117.846 158.597 117.893 158.059 117.811C157.52 117.73 157.009 117.522 156.568 117.205C156.126 116.888 155.766 116.471 155.518 115.989C155.269 115.507 155.139 114.972 155.139 114.43C155.139 110.542 153.214 107.195 150.016 104.724C146.535 102.125 142.299 100.727 137.948 100.74C136.602 100.677 135.285 101.133 134.269 102.013C133.298 102.944 132.567 104.095 132.137 105.367C131.482 107.155 131.123 109.037 131.071 110.939V172.615H136.229C140.973 172.615 144.824 168.782 144.824 164.058V151.497C142.53 150.69 140.597 149.101 139.366 147.012C138.134 144.923 137.685 142.468 138.096 140.08C138.508 137.693 139.754 135.528 141.614 133.966C143.474 132.405 145.829 131.549 148.263 131.549C150.696 131.549 153.051 132.405 154.911 133.966C156.771 135.528 158.017 137.693 158.429 140.08C158.84 142.468 158.391 144.923 157.159 147.012C155.928 149.101 153.995 150.69 151.701 151.497V164.058C151.701 168.143 150.071 172.061 147.169 174.949C144.267 177.837 140.332 179.46 136.229 179.46H131.071V179.453ZM103.565 128.121C103.565 129.029 103.928 129.899 104.572 130.541C105.217 131.183 106.092 131.544 107.004 131.544C107.915 131.544 108.79 131.183 109.435 130.541C110.08 129.899 110.442 129.029 110.442 128.121C110.442 127.213 110.08 126.343 109.435 125.701C108.79 125.059 107.915 124.698 107.004 124.698C106.092 124.698 105.217 125.059 104.572 125.701C103.928 126.343 103.565 127.213 103.565 128.121ZM148.263 145.234C149.174 145.234 150.049 144.873 150.694 144.232C151.339 143.59 151.701 142.719 151.701 141.811C151.701 140.904 151.339 140.033 150.694 139.391C150.049 138.749 149.174 138.389 148.263 138.389C147.351 138.389 146.476 138.749 145.831 139.391C145.187 140.033 144.824 140.904 144.824 141.811C144.824 142.719 145.187 143.59 145.831 144.232C146.476 144.873 147.351 145.234 148.263 145.234ZM107.004 165.77C106.092 165.77 105.217 166.13 104.572 166.772C103.928 167.414 103.565 168.285 103.565 169.192C103.565 170.1 103.928 170.971 104.572 171.612C105.217 172.254 106.092 172.615 107.004 172.615C107.915 172.615 108.79 172.254 109.435 171.612C110.08 170.971 110.442 170.1 110.442 169.192C110.442 168.285 110.08 167.414 109.435 166.772C108.79 166.13 107.915 165.77 107.004 165.77Z" fill="#0FB56F"/>
<path d="M182.484 119.939H189.005L198.378 166.087H235.463" stroke="white" stroke-width="0.822102" stroke-linecap="round"/>
<line x1="1.23315" y1="-1.23315" x2="32.1844" y2="-1.23315" transform="matrix(-1 0 0 1 235.461 132.288)" stroke="#0FB56F" stroke-width="2.46631" stroke-linecap="round"/>
<line x1="1.23315" y1="-1.23315" x2="32.1844" y2="-1.23315" transform="matrix(-1 0 0 1 235.461 142.688)" stroke="#0FB56F" stroke-width="2.46631" stroke-linecap="round"/>
<line x1="1.23315" y1="-1.23315" x2="18.3283" y2="-1.23315" transform="matrix(-1 0 0 1 235.461 153.087)" stroke="#0FB56F" stroke-width="2.46631" stroke-linecap="round"/>
<path d="M150.109 91.9775L157.88 79.4685L214.862 79.4685" stroke="#0FB56F" stroke-width="0.822102" stroke-linecap="round"/>
<path d="M87.6778 48.1724H92.1663C92.9926 48.1724 93.6625 47.5025 93.6625 46.6762V42.1877C93.6625 41.3614 92.9926 40.6915 92.1663 40.6915H87.6778C86.8515 40.6915 86.1816 41.3614 86.1816 42.1877V46.6762C86.1816 47.5025 86.8515 48.1724 87.6778 48.1724ZM87.6778 42.1877H92.1663V46.6762H87.6778V42.1877Z" fill="#0FB56F"/>
<path d="M96.6544 48.1724H101.143C101.969 48.1724 102.639 47.5025 102.639 46.6762V42.1877C102.639 41.3614 101.969 40.6915 101.143 40.6915H96.6544C95.8281 40.6915 95.1582 41.3614 95.1582 42.1877V46.6762C95.1582 47.5025 95.8281 48.1724 96.6544 48.1724ZM96.6544 42.1877H101.143V46.6762H96.6544V42.1877Z" fill="#0FB56F"/>
<path d="M87.6778 57.1487H92.1663C92.9926 57.1487 93.6625 56.4788 93.6625 55.6525V51.164C93.6625 50.3377 92.9926 49.6678 92.1663 49.6678H87.6778C86.8515 49.6678 86.1816 50.3377 86.1816 51.164V55.6525C86.1816 56.4788 86.8515 57.1487 87.6778 57.1487ZM87.6778 51.164H92.1663V55.6525H87.6778V51.164Z" fill="#0FB56F"/>
<path d="M95.9063 54.1564H98.1505V56.4006C98.1505 56.8138 98.4855 57.1487 98.8986 57.1487C99.3118 57.1487 99.6467 56.8138 99.6467 56.4006V54.1564H101.891C102.304 54.1564 102.639 53.8214 102.639 53.4083C102.639 52.9951 102.304 52.6602 101.891 52.6602H99.6467V50.4159C99.6467 50.0028 99.3118 49.6678 98.8986 49.6678C98.4855 49.6678 98.1505 50.0028 98.1505 50.4159V52.6602H95.9063C95.4931 52.6602 95.1582 52.9951 95.1582 53.4083C95.1582 53.8214 95.4931 54.1564 95.9063 54.1564Z" fill="white"/>
<path d="M104.882 27.2253H83.9357C82.2831 27.2253 80.9434 28.5651 80.9434 30.2177V69.1181C80.9434 70.7707 82.2831 72.1104 83.9357 72.1104H104.882C106.535 72.1104 107.874 70.7707 107.874 69.1181V30.2177C107.874 28.5651 106.535 27.2253 104.882 27.2253ZM100.162 28.7215L99.2041 29.7464C98.9298 30.0384 98.5498 30.2081 98.1493 30.2177H90.7433C90.3297 30.2183 89.9343 30.0477 89.6511 29.7464L88.6561 28.7215H100.162ZM82.4395 30.2177C82.4395 29.3914 83.1094 28.7215 83.9357 28.7215H86.6064L88.5215 30.7713C89.088 31.3738 89.8787 31.7151 90.7059 31.7138H98.1493C98.9764 31.7151 99.7671 31.3738 100.334 30.7713L102.211 28.7215H104.882C105.708 28.7215 106.378 29.3914 106.378 30.2177V65.3776C106.378 66.2039 105.708 66.8738 104.882 66.8738H83.9357C83.1094 66.8738 82.4395 66.2039 82.4395 65.3776V30.2177ZM104.882 70.6142H83.9357C83.1094 70.6142 82.4395 69.9444 82.4395 69.1181V67.951C82.8914 68.223 83.4083 68.3678 83.9357 68.37H104.882C105.409 68.3678 105.926 68.223 106.378 67.951V69.1181C106.378 69.9444 105.708 70.6142 104.882 70.6142Z" fill="white"/>
<path d="M77.2595 114.856L48.5625 100.807L48.5625 176.597" stroke="white" stroke-width="0.822102" stroke-linecap="round"/>
<path d="M38.7594 174.41L29.8018 158.895L20.8442 174.41H38.7594Z" stroke="#0FB56F" stroke-width="1.06188"/>
<path d="M29.8018 163.536L26.5094 169.239H33.0942L29.8018 163.536Z" fill="white"/>
<path d="M39.1481 132.479L29.8018 127.082L20.4555 132.479V143.271L29.8018 148.667L39.1481 143.271V132.479Z" stroke="#0FB56F" stroke-width="1.06188"/>
<path d="M36.9316 133.598L29.8034 129.321L22.6751 133.598L29.8034 137.399L36.9316 133.598Z" fill="white"/>
<mask id="path-120-inside-1_1607_10743" fill="white">
<path d="M29.7996 117.915C31.4914 117.915 33.1452 117.414 34.5519 116.474C35.9586 115.534 37.055 114.198 37.7024 112.635C38.3498 111.072 38.5192 109.352 38.1892 107.693C37.8591 106.033 37.0444 104.509 35.8481 103.313C34.6518 102.117 33.1277 101.302 31.4684 100.972C29.8091 100.642 28.0892 100.811 26.5262 101.459C24.9631 102.106 23.6272 103.202 22.6873 104.609C21.7474 106.016 21.2457 107.67 21.2457 109.361L29.7996 109.361L29.7996 117.915Z"/>
</mask>
<path d="M29.7996 117.915C31.4914 117.915 33.1452 117.414 34.5519 116.474C35.9586 115.534 37.055 114.198 37.7024 112.635C38.3498 111.072 38.5192 109.352 38.1892 107.693C37.8591 106.033 37.0444 104.509 35.8481 103.313C34.6518 102.117 33.1277 101.302 31.4684 100.972C29.8091 100.642 28.0892 100.811 26.5262 101.459C24.9631 102.106 23.6272 103.202 22.6873 104.609C21.7474 106.016 21.2457 107.67 21.2457 109.361L29.7996 109.361L29.7996 117.915Z" stroke="#0FB56F" stroke-width="2.12376" mask="url(#path-120-inside-1_1607_10743)"/>
<path d="M21.3917 110.935C21.693 112.545 22.4502 114.035 23.5732 115.227C24.6962 116.419 26.1378 117.263 27.7268 117.66L28.4803 114.644C27.4689 114.391 26.5513 113.853 25.8365 113.095C25.1218 112.336 24.6398 111.388 24.448 110.363L21.3917 110.935Z" fill="white"/>
<path d="M113.347 89.0343L116.996 76.5254L72.111 76.5254" stroke="#0FB56F" stroke-width="0.822102" stroke-linecap="round"/>
<defs>
<linearGradient id="paint0_linear_1607_10743" x1="254.594" y1="-0.00754129" x2="0" y2="-0.00754128" gradientUnits="userSpaceOnUse">
<stop stop-color="white" stop-opacity="0.12"/>
<stop offset="0.499248" stop-color="white" stop-opacity="0.4"/>
<stop offset="1" stop-color="white" stop-opacity="0.12"/>
</linearGradient>
</defs>
</svg>
