<svg width="48" height="49" viewBox="0 0 48 49" fill="none" xmlns="http://www.w3.org/2000/svg">
<g clip-path="url(#clip0_4301_52381)">
<path d="M16.0814 12.8613H31.9788C34.3891 12.8613 36.3378 14.81 36.3378 17.2203V32.5024C36.3378 34.9126 34.3891 36.8613 31.9788 36.8613H16.0814C13.6711 36.8613 11.7224 34.9126 11.7224 32.5024V17.2203C11.7224 14.81 13.6711 12.8613 16.0814 12.8613Z" fill="#330000"/>
<path d="M23.6506 27.2603H19.8352L19.0557 29.6706C19.0352 29.7629 18.9532 29.8244 18.8609 29.8142H16.9327C16.8198 29.8142 16.7891 29.7526 16.8198 29.6295L20.1224 20.1219C20.1532 20.0193 20.1839 19.9065 20.225 19.7834C20.266 19.568 20.2865 19.3424 20.2865 19.1167C20.2762 19.0654 20.3173 19.0142 20.3685 19.0039C20.3788 19.0039 20.3891 19.0039 20.3993 19.0039H23.025C23.107 19.0039 23.148 19.0347 23.1583 19.086L26.9019 29.6501C26.9327 29.7629 26.9019 29.8142 26.7993 29.8142H24.6557C24.5839 29.8244 24.5121 29.7731 24.4916 29.7013L23.6506 27.2603ZM20.4301 25.1783H23.0352C22.9737 24.9629 22.8916 24.7065 22.7993 24.4398C22.707 24.1629 22.6147 23.8654 22.5224 23.5578C22.4198 23.2398 22.3275 22.9321 22.225 22.6142C22.1224 22.2962 22.0301 21.9988 21.948 21.7013C21.866 21.4142 21.7942 21.1475 21.7224 20.9013H21.7019C21.6096 21.3424 21.4968 21.7834 21.3532 22.2244C21.1993 22.7167 21.0455 23.2295 20.8814 23.7424C20.7378 24.2654 20.5839 24.7475 20.4301 25.1783Z" fill="#FF9A00"/>
<path d="M29.1379 20.758C28.7994 20.7682 28.4712 20.6349 28.225 20.399C27.9891 20.1426 27.8661 19.8041 27.8763 19.4554C27.8661 19.1067 27.9994 18.7785 28.2456 18.5426C28.4917 18.3067 28.8199 18.1836 29.1584 18.1836C29.5584 18.1836 29.8661 18.3067 30.0917 18.5426C30.3174 18.7887 30.4404 19.1169 30.4302 19.4554C30.4404 19.8041 30.3173 20.1426 30.0712 20.399C29.8353 20.6451 29.4866 20.7785 29.1379 20.758ZM27.9891 29.6605V21.7631C27.9891 21.6605 28.0302 21.6195 28.1225 21.6195H30.1532C30.2456 21.6195 30.2866 21.6708 30.2866 21.7631V29.6605C30.2866 29.7733 30.2456 29.8246 30.1532 29.8246H28.143C28.0404 29.8246 27.9891 29.7631 27.9891 29.6605Z" fill="#FF9A00"/>
</g>
<defs>
<clipPath id="clip0_4301_52381">
<rect width="24.6154" height="24" fill="white" transform="translate(11.7224 12.8613)"/>
</clipPath>
</defs>
</svg>
