<svg width="48" height="49" viewBox="0 0 48 49" fill="none" xmlns="http://www.w3.org/2000/svg">
<path d="M16.25 13.3633H31.75C33.8116 13.3633 35.5 15.0774 35.5 17.2262V32.5219C35.5 34.6706 33.8116 36.3847 31.75 36.3847H16.25C14.1884 36.3847 12.5 34.6706 12.5 32.5219V17.2262C12.5 15.0774 14.1884 13.3633 16.25 13.3633Z" fill="#00261A" stroke="#3CF2A6"/>
<path d="M15.4629 30.2796H18.8181C18.8973 30.2796 19.0629 30.2796 19.3221 30.2724C19.5741 30.2724 19.8189 30.2508 20.0565 30.222C20.8917 30.1211 21.5973 29.8328 22.1805 29.35C22.7565 28.8744 23.2029 28.2618 23.5053 27.5195C23.8077 26.7845 23.9589 25.9702 23.9589 25.091C23.9589 24.2118 23.8077 23.4047 23.5053 22.6624C23.2029 21.9274 22.7565 21.3148 22.1805 20.832C21.5973 20.3563 20.8917 20.0609 20.0565 19.96C19.8189 19.9312 19.5741 19.9168 19.3221 19.9096C19.0629 19.9096 18.8973 19.9023 18.8181 19.9023H15.4629V30.2796ZM17.4501 28.4348V21.7472H18.8181C18.9477 21.7472 19.1205 21.7544 19.3437 21.7544C19.5597 21.7616 19.7613 21.7832 19.9413 21.8193C20.3733 21.9057 20.7405 22.1147 21.0285 22.4318C21.3165 22.7561 21.5253 23.1524 21.6693 23.6137C21.8133 24.0821 21.8853 24.5721 21.8853 25.091C21.8853 25.5882 21.8133 26.0711 21.6765 26.5323C21.5397 27.0007 21.3309 27.397 21.0429 27.7285C20.7549 28.06 20.3877 28.2762 19.9413 28.3627C19.7613 28.3987 19.5597 28.4204 19.3437 28.4276C19.1205 28.4348 18.9477 28.4348 18.8181 28.4348H17.4501Z" fill="#D4FCEF"/>
<path d="M30.6975 30.2796H32.6847V25.9125C32.6847 25.7828 32.6703 25.581 32.6559 25.2928C32.6343 25.0117 32.5767 24.7018 32.4903 24.3559C32.3967 24.01 32.2455 23.6785 32.0295 23.3614C31.8135 23.0444 31.5183 22.7849 31.1367 22.5759C30.7479 22.3742 30.2511 22.2661 29.6463 22.2661C28.8831 22.2661 28.2495 22.4318 27.7455 22.7633C27.2415 23.0948 26.8671 23.5344 26.6223 24.0677C26.3703 24.6081 26.2479 25.1847 26.2479 25.7972L27.3711 26.3305C27.3711 25.8477 27.4215 25.4585 27.5295 25.163C27.6375 24.8748 27.7743 24.6514 27.9471 24.5001C28.1127 24.3487 28.2927 24.2478 28.4871 24.1902C28.6743 24.1397 28.8543 24.1109 29.0271 24.1109C29.4447 24.1109 29.7615 24.2046 29.9919 24.392C30.2223 24.5793 30.3879 24.8171 30.4887 25.091C30.5895 25.372 30.6471 25.6531 30.6687 25.9269C30.6831 26.2008 30.6975 26.4314 30.6975 26.6043V30.2796ZM25.3839 30.2796H27.3711V25.0766H27.1263V22.4967H25.3839V30.2796Z" fill="#D4FCEF"/>
</svg>
