<svg width="48" height="49" viewBox="0 0 48 49" fill="none" xmlns="http://www.w3.org/2000/svg">
<path d="M19.75 36.8841C21.9592 36.8841 23.75 35.0917 23.75 32.8805V28.877H19.75C17.5409 28.877 15.75 30.6694 15.75 32.8805C15.75 35.0917 17.5409 36.8841 19.75 36.8841Z" fill="#0ACF83"/>
<path d="M15.75 24.8747C15.75 22.6636 17.5409 20.8711 19.75 20.8711H23.75V28.8783H19.75C17.5409 28.8783 15.75 27.0858 15.75 24.8747Z" fill="#A259FF"/>
<path d="M15.75 16.8669C15.75 14.6557 17.5409 12.8633 19.75 12.8633H23.75V20.8705H19.75C17.5409 20.8705 15.75 19.078 15.75 16.8669Z" fill="#F24E1E"/>
<path d="M23.75 12.8633H27.75C29.9592 12.8633 31.75 14.6557 31.75 16.8669C31.75 19.078 29.9592 20.8705 27.75 20.8705H23.75V12.8633Z" fill="#FF7262"/>
<path d="M31.75 24.8747C31.75 27.0858 29.9592 28.8783 27.75 28.8783C25.5409 28.8783 23.75 27.0858 23.75 24.8747C23.75 22.6636 25.5409 20.8711 27.75 20.8711C29.9592 20.8711 31.75 22.6636 31.75 24.8747Z" fill="#1ABCFE"/>
</svg>
