<svg width="48" height="49" viewBox="0 0 48 49" fill="none" xmlns="http://www.w3.org/2000/svg">
<g clip-path="url(#clip0_4301_52369)">
<path d="M15.9532 12.8613H31.8507C34.2609 12.8613 36.2096 14.81 36.2096 17.2203V32.5024C36.2096 34.9126 34.2609 36.8613 31.8507 36.8613H15.9532C13.543 36.8613 11.5942 34.9126 11.5942 32.5024V17.2203C11.5942 14.81 13.543 12.8613 15.9532 12.8613Z" fill="#001E36"/>
<path d="M17.1328 29.693V19.1392C17.1328 19.0674 17.1636 19.0264 17.2354 19.0264C17.4097 19.0264 17.5738 19.0264 17.8097 19.0161C18.0559 19.0059 18.3123 19.0059 18.5892 18.9956C18.8661 18.9854 19.1636 18.9854 19.4815 18.9751C19.7995 18.9648 20.1072 18.9648 20.4149 18.9648C21.2559 18.9648 21.9533 19.0674 22.5277 19.2828C23.0405 19.4572 23.5123 19.7443 23.902 20.1238C24.2302 20.452 24.4867 20.852 24.6508 21.293C24.8046 21.7238 24.8867 22.1648 24.8867 22.6264C24.8867 23.5084 24.6815 24.2366 24.2713 24.811C23.861 25.3854 23.2867 25.8161 22.62 26.0623C21.9226 26.3187 21.1533 26.411 20.3123 26.411C20.0661 26.411 19.902 26.411 19.7995 26.4007C19.6969 26.3905 19.5533 26.3905 19.3585 26.3905V29.6828C19.3687 29.7546 19.3174 29.8161 19.2456 29.8264C19.2354 29.8264 19.2251 29.8264 19.2046 29.8264H17.2559C17.1738 29.8264 17.1328 29.7854 17.1328 29.693ZM19.3687 21.0059V24.452C19.5123 24.4623 19.6456 24.4725 19.7687 24.4725H20.3123C20.7123 24.4725 21.1123 24.411 21.4918 24.2879C21.82 24.1956 22.1072 24.0007 22.3328 23.7443C22.5482 23.4879 22.6508 23.1392 22.6508 22.6879C22.661 22.37 22.579 22.052 22.4149 21.7751C22.2405 21.5084 21.9944 21.3033 21.6969 21.1905C21.3174 21.0366 20.9072 20.9751 20.4867 20.9854C20.22 20.9854 19.9841 20.9854 19.7892 20.9956C19.5841 20.9854 19.4405 20.9956 19.3687 21.0059Z" fill="#31A8FF"/>
<path d="M31.2868 23.8258C30.9791 23.6617 30.6509 23.5488 30.3022 23.477C29.9227 23.395 29.5432 23.3437 29.1534 23.3437C28.9483 23.3335 28.7329 23.3642 28.5381 23.4155C28.4047 23.4463 28.2919 23.5181 28.2201 23.6206C28.1688 23.7027 28.1381 23.8052 28.1381 23.8976C28.1381 23.9899 28.1791 24.0822 28.2406 24.1642C28.3329 24.277 28.456 24.3694 28.5893 24.4411C28.8252 24.5642 29.0714 24.677 29.3176 24.7796C29.8714 24.9642 30.4047 25.2206 30.897 25.5283C31.2355 25.7437 31.5124 26.0309 31.7073 26.3796C31.8714 26.7078 31.9534 27.0668 31.9432 27.436C31.9534 27.9181 31.8099 28.4001 31.5432 28.8001C31.256 29.2104 30.856 29.5283 30.3945 29.7129C29.8919 29.9283 29.2765 30.0411 28.5381 30.0411C28.0663 30.0411 27.6047 30.0001 27.1432 29.9078C26.7842 29.8463 26.4252 29.7335 26.097 29.5796C26.0252 29.5386 25.974 29.4668 25.9842 29.3847V27.6001C25.9842 27.5694 25.9945 27.5283 26.0252 27.5078C26.056 27.4873 26.0868 27.4976 26.1176 27.5181C26.5176 27.754 26.9381 27.9181 27.3893 28.0206C27.7791 28.1232 28.1893 28.1745 28.5996 28.1745C28.9893 28.1745 29.2663 28.1232 29.4509 28.0309C29.615 27.9591 29.7278 27.7847 29.7278 27.6001C29.7278 27.4565 29.6458 27.3232 29.4817 27.1899C29.3175 27.0565 28.9791 26.9027 28.4765 26.7078C27.9534 26.5232 27.4714 26.277 27.0201 25.9694C26.7022 25.7437 26.4355 25.4463 26.2406 25.0976C26.0765 24.7694 25.9945 24.4104 26.0047 24.0514C26.0047 23.6104 26.1278 23.1899 26.3534 22.8104C26.6099 22.4001 26.9893 22.0719 27.4304 21.8668C27.9124 21.6206 28.5176 21.5078 29.2458 21.5078C29.6663 21.5078 30.097 21.5386 30.5175 21.6001C30.8252 21.6411 31.1227 21.7232 31.3996 21.836C31.4406 21.8463 31.4817 21.8873 31.5022 21.9283C31.5124 21.9694 31.5227 22.0104 31.5227 22.0514V23.7232C31.5227 23.7642 31.5022 23.8052 31.4714 23.8258C31.3791 23.8463 31.3278 23.8463 31.2868 23.8258Z" fill="#31A8FF"/>
</g>
<defs>
<clipPath id="clip0_4301_52369">
<rect width="24.6154" height="24" fill="white" transform="translate(11.5942 12.8613)"/>
</clipPath>
</defs>
</svg>
