<svg width="48" height="49" viewBox="0 0 48 49" fill="none" xmlns="http://www.w3.org/2000/svg">
<g clip-path="url(#clip0_4301_52404)">
<path d="M36.828 24.8769C36.828 23.1312 34.6438 21.4769 31.2951 20.4509C32.0679 17.0348 31.7245 14.3169 30.2111 13.4468C29.8623 13.2427 29.4544 13.146 29.009 13.146V14.3438C29.2559 14.3438 29.4544 14.3921 29.6208 14.4834C30.3506 14.9024 30.6673 16.4977 30.4204 18.5495C30.3614 19.0544 30.2648 19.5862 30.1467 20.1287C29.0949 19.8708 27.9465 19.6721 26.739 19.5432C26.0145 18.5495 25.2632 17.6471 24.5065 16.8576C26.256 15.2301 27.8982 14.3384 29.0144 14.3384V13.1406C27.5386 13.1406 25.6067 14.1934 23.6533 16.0196C21.6999 14.2041 19.7679 13.1621 18.2921 13.1621V14.3599C19.403 14.3599 21.0505 15.2462 22.8 16.8629C22.0487 17.6525 21.2974 18.5495 20.5836 19.5432C19.3708 19.6721 18.2224 19.8708 17.1705 20.134C17.0471 19.5969 16.9559 19.0759 16.8915 18.5764C16.6393 16.5245 16.9505 14.9293 17.675 14.5049C17.836 14.4082 18.0453 14.3653 18.2921 14.3653V13.1675C17.8414 13.1675 17.4335 13.2642 17.0793 13.4683C15.5713 14.3384 15.2332 17.0509 16.0114 20.4563C12.6734 21.4876 10.5 23.1366 10.5 24.8769C10.5 26.6226 12.6842 28.2769 16.0329 29.3028C15.2601 32.719 15.6035 35.4368 17.1169 36.307C17.4657 36.5111 17.8736 36.6078 18.3243 36.6078C19.8001 36.6078 21.7321 35.555 23.6855 33.7288C25.6389 35.5443 27.5708 36.5863 29.0466 36.5863C29.4974 36.5863 29.9052 36.4896 30.2594 36.2855C31.7674 35.4154 32.1055 32.7029 31.3273 29.2975C34.6546 28.2715 36.828 26.6172 36.828 24.8769ZM29.8408 21.2942C29.6423 21.9871 29.3954 22.7015 29.1164 23.4159C28.8963 22.9862 28.6656 22.5565 28.4133 22.1268C28.1665 21.6971 27.9035 21.2781 27.6406 20.8699C28.4026 20.9827 29.1378 21.1224 29.8408 21.2942ZM27.383 27.0147C26.9644 27.7398 26.5351 28.4273 26.0897 29.0665C25.29 29.1363 24.4797 29.1739 23.664 29.1739C22.8537 29.1739 22.0433 29.1363 21.2491 29.0719C20.8037 28.4327 20.369 27.7505 19.9504 27.0308C19.5425 26.3271 19.1722 25.6128 18.8342 24.893C19.1669 24.1732 19.5425 23.4535 19.945 22.7499C20.3636 22.0247 20.7929 21.3372 21.2383 20.698C22.038 20.6282 22.8483 20.5906 23.664 20.5906C24.4743 20.5906 25.2847 20.6282 26.0789 20.6927C26.5243 21.3318 26.959 22.014 27.3776 22.7337C27.7855 23.4374 28.1558 24.1518 28.4938 24.8715C28.1558 25.5913 27.7855 26.311 27.383 27.0147ZM29.1164 26.3164C29.4061 27.0361 29.653 27.7559 29.8569 28.4542C29.1539 28.626 28.4133 28.7711 27.6459 28.8839C27.9089 28.4703 28.1719 28.0459 28.4187 27.6109C28.6656 27.1812 28.8963 26.7461 29.1164 26.3164ZM23.6747 32.0476C23.1757 31.5319 22.6766 30.9572 22.1828 30.3287C22.6658 30.3502 23.1595 30.3663 23.6586 30.3663C24.1631 30.3663 24.6622 30.3556 25.1505 30.3287C24.6675 30.9572 24.1685 31.5319 23.6747 32.0476ZM19.6821 28.8839C18.92 28.7711 18.1848 28.6314 17.4818 28.4595C17.6804 27.7666 17.9272 27.0523 18.2063 26.3379C18.4263 26.7676 18.6571 27.1973 18.9093 27.627C19.1615 28.0567 19.4191 28.4757 19.6821 28.8839ZM23.6479 17.7062C24.147 18.2219 24.6461 18.7966 25.1398 19.425C24.6568 19.4035 24.1631 19.3874 23.664 19.3874C23.1595 19.3874 22.6605 19.3982 22.1721 19.425C22.6551 18.7966 23.1542 18.2219 23.6479 17.7062ZM19.6767 20.8699C19.4137 21.2835 19.1508 21.7078 18.9039 22.1429C18.6571 22.5726 18.4263 23.0023 18.2063 23.432C17.9165 22.7123 17.6696 21.9925 17.4657 21.2942C18.1687 21.1277 18.9093 20.9827 19.6767 20.8699ZM14.82 27.5948C12.9203 26.7837 11.6914 25.7202 11.6914 24.8769C11.6914 24.0336 12.9203 22.9647 14.82 22.159C15.2815 21.9603 15.786 21.783 16.3065 21.6165C16.6124 22.6693 17.0149 23.765 17.514 24.8876C17.0203 26.0049 16.6232 27.0952 16.3226 28.1426C15.7914 27.9761 15.2869 27.7935 14.82 27.5948ZM17.7072 35.2703C16.9774 34.8514 16.6607 33.2561 16.9076 31.2043C16.9666 30.6994 17.0632 30.1676 17.1813 29.6251C18.2331 29.8829 19.3815 30.0817 20.589 30.2106C21.3135 31.2043 22.0648 32.1066 22.8215 32.8962C21.072 34.5237 19.4298 35.4154 18.3136 35.4154C18.0721 35.41 17.8682 35.3616 17.7072 35.2703ZM30.4365 31.1774C30.6887 33.2292 30.3775 34.8245 29.653 35.2488C29.492 35.3455 29.2827 35.3885 29.0359 35.3885C27.925 35.3885 26.2775 34.5022 24.528 32.8855C25.2793 32.0959 26.0306 31.1989 26.7444 30.2052C27.9572 30.0763 29.1056 29.8776 30.1575 29.6144C30.2809 30.1569 30.3775 30.6779 30.4365 31.1774ZM32.5026 27.5948C32.0411 27.7935 31.5366 27.9708 31.0161 28.1373C30.7102 27.0845 30.3077 25.9887 29.8086 24.8661C30.3023 23.7489 30.6995 22.6585 31 21.6111C31.5313 21.7777 32.0357 21.9603 32.508 22.159C34.4077 22.9701 35.6366 24.0336 35.6366 24.8769C35.6313 25.7202 34.4023 26.7891 32.5026 27.5948Z" fill="#61DAFB"/>
<path d="M23.6586 27.3312C25.0131 27.3312 26.1111 26.2322 26.1111 24.8766C26.1111 23.5209 25.0131 22.4219 23.6586 22.4219C22.3041 22.4219 21.2061 23.5209 21.2061 24.8766C21.2061 26.2322 22.3041 27.3312 23.6586 27.3312Z" fill="#61DAFB"/>
</g>
<defs>
<clipPath id="clip0_4301_52404">
<rect width="26.328" height="30.0268" fill="white" transform="translate(10.5 9.86133)"/>
</clipPath>
</defs>
</svg>
