<svg width="48" height="49" viewBox="0 0 48 49" fill="none" xmlns="http://www.w3.org/2000/svg">
<g clip-path="url(#clip0_4301_52410)">
<path d="M23.9999 9.86133L37.2574 17.368V32.3814L23.9999 39.8881L10.7424 32.3814V17.368L23.9999 9.86133Z" fill="white"/>
<path d="M34.89 31.864L24.4375 37.7818V33.1727L30.95 29.587L34.89 31.864ZM35.605 31.2159V18.8399L31.78 21.0494V29.004L35.605 31.2159ZM13.0675 31.864L23.52 37.7818V33.1727L17.0075 29.587L13.0675 31.864ZM12.3525 31.2159V18.8399L16.1775 21.0494V29.004L12.3525 31.2159ZM12.8 18.0392L23.52 11.9688V16.4252L16.6525 20.2061L16.6 20.2361L12.8 18.0392ZM35.1575 18.0392L24.4375 11.9688V16.4252L31.305 20.2061L31.3575 20.2361L35.1575 18.0392Z" fill="#8ED6FB"/>
<path d="M23.5199 32.124L17.095 28.5884V21.5821L23.5199 25.2954V32.124ZM24.4374 32.124L30.8624 28.5884V21.5821L24.4374 25.2954V32.124ZM17.53 20.7714L23.9799 17.2207L30.4299 20.7714L23.9799 24.4997L17.53 20.7714Z" fill="#1C78C0"/>
</g>
<defs>
<clipPath id="clip0_4301_52410">
<rect width="30" height="30.0268" fill="white" transform="translate(9 9.86133)"/>
</clipPath>
</defs>
</svg>
