<svg width="14" height="14" viewBox="0 0 14 14" fill="none" xmlns="http://www.w3.org/2000/svg">
<path d="M8.3664 6.99979L13.7188 1.64929C14.0937 1.27235 14.0937 0.659576 13.7188 0.282703C13.3418 -0.0942342 12.7272 -0.0942342 12.3522 0.282703L6.99982 5.6332L1.64928 0.282703C1.27235 -0.0942342 0.659573 -0.0942342 0.282701 0.282703C-0.0941702 0.65964 -0.0942338 1.27242 0.282701 1.64929L5.63317 6.99979L0.282701 12.3522C-0.0942338 12.7272 -0.0942338 13.3419 0.282701 13.7188C0.659637 14.0937 1.27241 14.0937 1.64928 13.7188L6.99975 8.36637L12.3521 13.7188C12.7271 14.0937 13.3418 14.0937 13.7187 13.7188C14.0937 13.3418 14.0937 12.7272 13.7187 12.3522L8.3664 6.99979Z" fill="#171717"/>
</svg>
