<svg width="91" height="48" viewBox="0 0 91 48" fill="none" xmlns="http://www.w3.org/2000/svg">
<path d="M28.2586 21.0045C25.6241 21.0045 23.6391 22.0511 22.2677 24.1444V15.0857H19.4887V37.2812H22.2316V34.5383C23.603 36.6316 25.588 37.6782 28.2226 37.6782C30.4241 37.6782 32.3368 36.8842 33.8887 35.2602C35.4406 33.6361 36.2346 31.6872 36.2346 29.3414C36.2346 27.0316 35.4406 25.0466 33.8887 23.4226C32.3368 21.7985 30.4602 21.0045 28.2586 21.0045ZM31.9038 33.3835C30.8211 34.4662 29.4857 35.0075 27.8977 35.0075C26.2737 35.0075 24.9383 34.4662 23.8556 33.3835C22.7729 32.3008 22.2316 30.9654 22.2316 29.3414C22.2316 27.7534 22.7729 26.382 23.8556 25.2992C24.9383 24.2165 26.2737 23.6752 27.8977 23.6752C29.4857 23.6752 30.8211 24.2165 31.9038 25.2992C32.9865 26.382 33.5278 27.7534 33.5278 29.3414C33.5278 30.9293 32.9865 32.3008 31.9038 33.3835ZM42.3338 24.0722V21.4015H39.591V37.2451H42.3338V28.8722C42.3338 27.1399 42.803 25.8767 43.7774 25.0827C44.7519 24.2887 45.9068 23.9278 47.2782 24V21.1128C44.8962 21.1128 43.2361 22.1233 42.3338 24.0722ZM60.8842 29.8105C60.8842 31.5789 60.4511 32.9143 59.6211 33.7444C58.791 34.6105 57.6722 35.0436 56.3008 35.0436C55.0737 35.0436 54.0992 34.6827 53.4135 33.997C52.7278 33.3113 52.3669 32.3008 52.3669 31.0015V21.4015H49.6241V31.1459C49.6241 33.1669 50.2015 34.7549 51.3203 35.9098C52.4391 37.0647 53.9188 37.6782 55.7955 37.6782C58.1053 37.6782 59.8015 36.7759 60.9203 34.9714V37.2451H63.6632V21.4015H60.9203V29.8105H60.8842ZM90.2977 8.98647H90.1173L90.1895 8.91428L79.218 0H0V40.0602L9.63609 48L9.70827 47.9278H89.612L75.7173 29.1248L90.2977 8.98647ZM9.56391 44.3188L2.77895 38.7609L2.70677 5.81053L9.56391 11.1158V44.3188ZM3.42857 2.77895L78.2075 2.74286L85.8586 8.98647H11.3323L3.42857 2.77895ZM84.0902 45.1489H12.3429V11.7654H84.8481L73.9128 26.8872L69.8346 21.4015H66.5865L72.3248 29.0887L72.2887 29.1248L66.2256 37.2451H69.4737L73.9128 31.2902L84.0902 45.1489Z" fill="#242B2F"/>
</svg>
