<svg width="237" height="31" viewBox="0 0 237 31" fill="none" xmlns="http://www.w3.org/2000/svg">
<path d="M31.4004 5.37184L25.785 0L15.7002 9.96029L5.5008 0L0 5.37184L10.1994 15.3321L0 25.1805L5.5008 30.6643L15.7002 20.704L25.785 30.6643L31.4004 25.1805L21.201 15.3321L31.4004 5.37184Z" fill="#FFBF1C"/>
<path d="M48.4768 30.6643H37.9336V0H48.4768C57.1864 0 64.177 6.82671 64.177 15.3321C64.177 23.8375 57.1864 30.6643 48.4768 30.6643Z" fill="#FFBF1C"/>
<path d="M82.8558 15.5556L94.0866 25.9635C91.2216 28.9852 87.096 30.6639 82.8558 30.6639C74.3754 30.6639 67.3848 23.8372 67.3848 15.5556C67.3848 7.27398 74.3754 0.447266 82.8558 0.447266C86.9814 0.447266 90.9924 2.01405 93.8574 4.9238L82.8558 15.5556Z" fill="#FFBF1C"/>
<path d="M137.176 5.93219L131.675 0.224609L110.016 19.9214L100.504 9.84916L94.5449 15.221L109.558 31.0008L137.176 5.93219Z" fill="#FFBF1C"/>
<path d="M139.468 24.2852H132.592V31H139.468V24.2852Z" fill="white"/>
<path d="M157.003 22.8311V24.286C157.003 25.517 155.972 26.5242 154.711 26.5242H151.273C150.013 26.5242 148.981 25.517 148.981 24.286V13.2066H157.003V8.5062H148.981V0.224609H144.626V8.5062H139.928V13.2066H144.626V24.8455C144.626 28.2029 147.491 31.0008 150.929 31.0008H154.482C157.92 31.0008 160.785 28.2029 160.785 24.8455L157.003 22.8311Z" fill="white"/>
<path d="M186.684 19.6972C186.684 13.542 181.527 8.50586 175.224 8.50586C168.921 8.50586 163.764 13.542 163.764 19.6972C163.764 25.8524 168.921 30.8885 175.224 30.8885C179.005 30.8885 182.558 29.0979 184.735 25.9643L181.183 23.6142C179.922 25.4048 177.745 26.6358 175.338 26.6358C172.244 26.6358 169.494 24.6214 168.577 21.8236H186.569C186.569 21.1521 186.684 20.4806 186.684 19.6972ZM175.224 12.7586C178.318 12.7586 180.954 14.6611 181.985 17.347H168.462C169.494 14.6611 172.129 12.7586 175.224 12.7586Z" fill="white"/>
<path d="M201.353 8.50586C194.018 8.50586 190.351 11.9752 190.351 11.9752C190.466 12.0871 193.56 15.3326 193.56 15.3326C193.56 15.3326 194.477 12.8705 200.78 12.8705C205.707 12.8705 205.134 17.347 205.134 17.347C205.134 17.347 190.236 15.6683 190.236 24.5095C190.236 33.3506 201.238 30.329 201.238 30.329C201.238 30.329 203.415 29.3217 205.02 27.5311C205.02 28.986 205.02 30.7766 205.02 30.7766H209.604V15.3326C209.718 15.3326 208.687 8.50586 201.353 8.50586ZM205.134 24.1737C205.134 24.1737 196.196 30.217 194.591 25.8524C192.185 19.5853 205.134 20.8163 205.134 20.8163V24.1737Z" fill="white"/>
<path d="M234.586 9.95983C231.95 6.3786 228.283 10.2956 227.481 11.7504C227.252 11.1909 226.908 10.6313 226.564 9.95983C224.272 6.82625 221.178 9.40026 219.917 11.079V9.62409H214.875V30.7757H219.917V16.3389C219.917 12.4219 223.126 12.6457 223.126 15.1078V15.3317V30.7757H228.054V17.2342C228.054 16.7865 228.054 16.227 228.054 15.7793C228.054 12.31 231.263 12.31 231.263 15.1078V15.3317V30.7757H236.076V17.2342C236.191 14.5483 236.42 12.5338 234.586 9.95983Z" fill="white"/>
</svg>
