<svg width="32" height="32" viewBox="0 0 32 32" fill="none" xmlns="http://www.w3.org/2000/svg">
<path d="M5.66691 0.500977H26.3336C29.1789 0.500977 31.5002 2.8634 31.5002 5.81294V26.189C31.5002 29.1386 29.1789 31.501 26.3336 31.501H5.66691C2.82158 31.501 0.500244 29.1386 0.500244 26.189V5.81294C0.500244 2.8634 2.82158 0.500977 5.66691 0.500977Z" fill="#00005B" stroke="#9999FF"/>
<path fill-rule="evenodd" clip-rule="evenodd" d="M8.12519 19.8795H13.42L14.5871 23.0957C14.6156 23.1903 14.7152 23.2579 14.8149 23.2444H17.7896C17.932 23.2444 17.9747 23.1768 17.932 23.0282L12.7368 9.10909C12.7226 9.04152 12.6656 9.00098 12.5518 9.00098H8.90802H8.86532C8.79416 9.01449 8.73722 9.08206 8.75146 9.14963C8.75146 9.44693 8.72299 9.74423 8.66606 10.028C8.62572 10.1429 8.59252 10.251 8.56141 10.3524C8.54861 10.394 8.53617 10.4346 8.52372 10.474L3.94058 23.0011C3.89788 23.1633 3.94058 23.2444 4.09715 23.2444H6.77302C6.90112 23.2579 7.01499 23.1768 7.04345 23.0552L8.12519 19.8795ZM12.5655 17.1362H8.95026C9.16376 16.5686 9.37726 15.9334 9.57653 15.2442C9.71752 14.8259 9.85305 14.4076 9.9865 13.9957C10.0686 13.7423 10.1499 13.4913 10.2313 13.2442C10.4305 12.6631 10.5871 12.082 10.7152 11.501H10.7437C10.7992 11.6817 10.8547 11.8709 10.9127 12.0685C10.9588 12.2254 11.0064 12.3876 11.0568 12.555C11.1707 12.9469 11.2988 13.3388 11.4411 13.7577C11.5123 13.9672 11.5799 14.1733 11.6475 14.3794C11.7151 14.5855 11.7827 14.7915 11.8539 15.001C11.982 15.4064 12.1101 15.7983 12.2382 16.1632C12.3663 16.5145 12.4801 16.8524 12.5655 17.1362Z" fill="#9999FF"/>
<path d="M23.4672 23.2739C24.4548 23.2739 25.3633 23.0153 26.1927 22.4979C27.0284 21.9806 27.6394 21.255 28.0256 20.3213L25.4425 19.5831C25.05 20.4412 24.3409 20.8702 23.3153 20.8702C22.6125 20.8702 22.0585 20.6746 21.6534 20.2834C21.2545 19.8923 21.0076 19.3307 20.9126 18.5989H28.111C28.2186 17.3623 28.092 16.2866 27.7312 15.3718C27.3703 14.457 26.8132 13.7472 26.0598 13.2424C25.3064 12.7377 24.3915 12.4854 23.3153 12.4854C22.3023 12.4854 21.4064 12.7156 20.6277 13.1762C19.849 13.6305 19.2381 14.2708 18.7949 15.0973C18.3517 15.9238 18.1301 16.8954 18.1301 18.0121C18.1301 19.0342 18.3549 19.9427 18.8044 20.7377C19.2602 21.5263 19.887 22.1478 20.6847 22.602C21.4887 23.05 22.4162 23.2739 23.4672 23.2739ZM23.4292 14.7188C24.0497 14.7188 24.5245 14.8734 24.8537 15.1825C25.1892 15.4916 25.4045 15.9932 25.4995 16.6872H20.9791C21.2513 15.3749 22.068 14.7188 23.4292 14.7188Z" fill="#9999FF"/>
</svg>
