<svg width="24" height="26" viewBox="0 0 24 26" fill="none" xmlns="http://www.w3.org/2000/svg">
<g clip-path="url(#clip0)">
<path d="M21.5728 10.5802L21.5727 10.5802L5.19496 1.2185C5.19495 1.2185 5.19495 1.2185 5.19495 1.21849C4.77428 0.978 4.2958 0.850977 3.81124 0.850977C3.32036 0.850977 2.83656 0.981169 2.41198 1.22751C1.55503 1.72465 1.02297 2.64846 1.02297 3.63924V22.3627C1.02297 23.3534 1.55501 24.2771 2.41171 24.7743C2.83633 25.0209 3.32026 25.1511 3.81114 25.1511C4.29552 25.1511 4.77398 25.0239 5.19482 24.7835L5.19484 24.7834L21.5724 15.4217L21.498 15.2914L21.5724 15.4217C22.439 14.9262 22.9771 13.999 22.9771 13.0009C22.9771 12.0029 22.4392 11.0756 21.5728 10.5802ZM3.36553 2.87094L3.36558 2.87091C3.44958 2.82214 3.54171 2.7883 3.63791 2.76953L10.983 13.0009L3.63898 23.2308C3.54201 23.2127 3.44926 23.1795 3.36545 23.1309L3.29016 23.2606L3.36544 23.1309C3.09275 22.9727 2.92302 22.678 2.92302 22.3627V3.63914C2.92302 3.32386 3.09274 3.02918 3.36553 2.87094ZM20.6297 13.7719L20.6297 13.7719L15.8407 16.5094L13.3219 13.0009L15.8407 9.49244L20.6297 12.2299C20.6297 12.2299 20.6297 12.2299 20.6297 12.2299C20.9056 12.3876 21.0771 12.6832 21.0771 13.0009C21.0771 13.3186 20.9056 13.6143 20.6297 13.7719ZM7.29722 4.60879L14.1824 8.54445L12.1525 11.3718L7.29722 4.60879ZM14.1824 17.4574L7.29722 21.3931L12.1525 14.63L14.1824 17.4574Z" fill="#242B2F" stroke="#242B2F" stroke-width="0.3"/>
</g>
<defs>
<clipPath id="clip0">
<rect width="24" height="26" fill="white" transform="translate(0.000244141 0.000976562)"/>
</clipPath>
</defs>
</svg>
