<svg width="26" height="26" viewBox="0 0 26 26" fill="none" xmlns="http://www.w3.org/2000/svg">
<g clip-path="url(#clip0)">
<path d="M20.0784 0.850977H5.92212C3.12535 0.850977 0.850244 3.12609 0.850244 5.92285V20.0791C0.850244 22.8759 3.12535 25.151 5.92212 25.151H20.0784C22.8751 25.151 25.1502 22.8759 25.1502 20.0791V5.92285C25.1502 3.12609 22.8751 0.850977 20.0784 0.850977ZM23.444 20.0791C23.444 21.9348 21.934 23.4447 20.0784 23.4447H5.92212C4.06645 23.4447 2.55649 21.9348 2.55649 20.0791V5.92285C2.55649 4.06718 4.06645 2.55723 5.92212 2.55723H20.0784C21.934 2.55723 23.444 4.06718 23.444 5.92285V20.0791Z" fill="#242B2F" stroke="#242B2F" stroke-width="0.3"/>
<path d="M13.0507 6.43358L13.0003 6.52097L12.9498 6.43353L12.9498 6.43352C12.5921 5.81421 11.806 5.59361 11.1802 5.92958H11.1788L11.144 5.94968C10.5127 6.31421 10.2958 7.12403 10.6602 7.7554L10.6602 7.75541L11.4739 9.16466L8.39855 14.4913H6.17993C5.45092 14.4913 4.85806 15.0842 4.85806 15.8132C4.85806 16.5422 5.45092 17.135 6.17993 17.135H15.0796H15.3394L15.2095 16.91L13.8563 14.5663L13.813 14.4913H13.7264H11.4513L15.3402 7.75545C15.5166 7.44994 15.5636 7.09315 15.4723 6.75235C15.3809 6.41162 15.162 6.1261 14.8564 5.94973C14.2252 5.58524 13.4153 5.80215 13.0507 6.43358Z" fill="#242B2F" stroke="#242B2F" stroke-width="0.3"/>
<path d="M13.4114 12.5213L17.4803 19.5688C17.4803 19.5688 17.4803 19.5688 17.4803 19.5688C17.6567 19.8744 17.9421 20.0935 18.283 20.1848L18.283 20.1848C18.3965 20.2152 18.512 20.2304 18.627 20.2304C18.8565 20.2304 19.0828 20.1701 19.2861 20.0527C19.9175 19.6882 20.1344 18.8783 19.7699 18.247L19.128 17.1354H19.8203C20.5493 17.1354 21.1421 16.5425 21.1421 15.8135C21.1421 15.0845 20.5493 14.4916 19.8203 14.4916H17.6016L15.0243 10.0275L14.8944 9.80254L14.7645 10.0275L13.4114 12.3713L13.3681 12.4463L13.4114 12.5213Z" fill="#242B2F" stroke="#242B2F" stroke-width="0.3"/>
<path d="M6.50401 17.7729H6.59061H9.29694H9.55674L9.42684 17.9979L8.51981 19.5689L8.5198 19.5689C8.27501 19.9928 7.82957 20.2296 7.37308 20.2296L6.50401 17.7729ZM6.50401 17.7729L6.46071 17.8478M6.50401 17.7729L6.46071 17.8478M6.46071 17.8478L6.23022 18.247L6.23022 18.247M6.46071 17.8478L6.23022 18.247M6.23022 18.247C5.86574 18.8784 6.08274 19.6882 6.71408 20.0527L6.71408 20.0527M6.23022 18.247L6.71408 20.0527M6.71408 20.0527C6.92159 20.1725 7.14875 20.2296 7.37305 20.2296L6.71408 20.0527Z" fill="#242B2F" stroke="#242B2F" stroke-width="0.3"/>
</g>
<defs>
<clipPath id="clip0">
<rect width="26" height="26" fill="white" transform="translate(0.000244141 0.000976562)"/>
</clipPath>
</defs>
</svg>
