<svg width="101" height="101" viewBox="0 0 101 101" fill="none" xmlns="http://www.w3.org/2000/svg">
<g clip-path="url(#clip0)">
<path d="M50.4736 0C22.6408 0 0.000106812 22.6429 0.000106812 50.4735C0.000106812 78.3042 22.6408 100.947 50.4736 100.947C78.3064 100.947 100.947 78.3042 100.947 50.4735C100.947 22.6429 78.3064 0 50.4736 0ZM50.4736 96.741C24.9616 96.741 4.20617 75.9855 4.20617 50.4735C4.20617 24.9615 24.9616 4.20606 50.4736 4.20606C75.9856 4.20606 96.7411 24.9615 96.7411 50.4735C96.7411 75.9855 75.9856 96.741 50.4736 96.741Z" fill="white"/>
<path d="M70.539 48.7051L41.0961 29.7776C40.4512 29.3566 39.6174 29.3339 38.952 29.6995C38.2742 30.0692 37.8552 30.7758 37.8552 31.5459V69.4011C37.8552 70.1712 38.2742 70.8778 38.952 71.2475C39.2641 71.418 39.6133 71.5042 39.9583 71.5042C40.3526 71.5042 40.7511 71.3932 41.0961 71.1694L70.539 52.2418C71.1387 51.8558 71.5043 51.1882 71.5043 50.4735C71.5043 49.7588 71.1387 49.0914 70.539 48.7051ZM42.0613 65.5481V35.3989L65.5113 50.4735L42.0613 65.5481Z" fill="white"/>
</g>
<defs>
<clipPath id="clip0">
<rect width="100.947" height="100.947" fill="white" transform="translate(0.000106812)"/>
</clipPath>
</defs>
</svg>
