<svg width="1460" height="628" viewBox="0 0 1460 628" fill="none" xmlns="http://www.w3.org/2000/svg">
<g opacity="0.4">
<path d="M152.751 452.679C174.899 465.453 185.973 484.734 185.973 510.522C185.973 531.973 178.39 549.567 163.223 563.305C148.056 577.043 129.399 583.911 107.251 583.911H0V330.846H99.6672C121.334 330.846 139.51 337.594 154.195 351.091C169.121 364.347 176.584 381.338 176.584 402.066C176.584 423.034 168.64 439.905 152.751 452.679ZM99.6672 377.482H49.8336V433.157H99.6672C107.371 433.157 113.751 430.505 118.806 425.203C124.103 419.901 126.751 413.273 126.751 405.319C126.751 397.366 124.223 390.738 119.167 385.436C114.112 380.133 107.612 377.482 99.6672 377.482ZM107.251 537.275C115.677 537.275 122.658 534.503 128.195 528.96C133.732 523.176 136.501 515.945 136.501 507.269C136.501 498.833 133.732 491.844 128.195 486.3C122.658 480.516 115.677 477.624 107.251 477.624H49.8336V537.275H107.251Z" fill="#F0F5F7"/>
<path d="M532.642 561.497C514.105 579.814 491.475 588.973 464.753 588.973C438.03 588.973 415.401 579.814 396.864 561.497C378.567 542.939 369.419 520.283 369.419 493.531C369.419 466.778 378.567 444.243 396.864 425.926C415.401 407.368 438.03 398.089 464.753 398.089C491.475 398.089 514.105 407.368 532.642 425.926C551.179 444.243 560.448 466.778 560.448 493.531C560.448 520.283 551.179 542.939 532.642 561.497ZM429.725 529.322C439.114 538.721 450.79 543.421 464.753 543.421C478.716 543.421 490.392 538.721 499.781 529.322C509.17 519.922 513.864 507.992 513.864 493.531C513.864 479.07 509.17 467.14 499.781 457.74C490.392 448.34 478.716 443.641 464.753 443.641C450.79 443.641 439.114 448.34 429.725 457.74C420.577 467.14 416.003 479.07 416.003 493.531C416.003 507.992 420.577 519.922 429.725 529.322Z" fill="#F0F5F7"/>
<path d="M604.416 583.911V320H651V583.911H604.416Z" fill="#F0F5F7"/>
<path d="M369.419 369.873H416.003V622.939H369.419V601.609C355.697 619.203 336.197 628 310.919 628C286.604 628 265.78 618.841 248.446 600.524C231.353 581.966 222.807 559.311 222.807 532.558C222.807 505.805 231.353 483.27 248.446 464.953C265.78 446.395 286.604 437.116 310.919 437.116C336.197 437.116 355.697 445.913 369.419 463.507V369.873ZM283.474 569.433C293.104 578.833 305.141 583.533 319.585 583.533C334.03 583.533 345.947 578.833 355.336 569.433C364.725 559.793 369.419 547.501 369.419 532.558C369.419 517.615 364.725 505.444 355.336 496.044C345.947 486.404 334.03 481.583 319.585 481.583C305.141 481.583 293.104 486.404 283.474 496.044C274.085 505.444 269.391 517.615 269.391 532.558C269.391 547.501 274.085 559.793 283.474 569.433Z" fill="#F0F5F7"/>
</g>
<g opacity="0.4">
<path d="M1126.52 0V211.94H1085.02V74.4819L1025.34 172.883H1020.49L960.807 74.7847V211.94H919V0H962.019L1022.91 100.217L1083.5 0H1126.52Z" fill="#F0F5F7"/>
<path d="M1124.81 373.43C1130.06 392.404 1144.3 401.891 1167.53 401.891C1182.47 401.891 1193.78 396.844 1201.46 386.752L1232.97 404.918C1218.02 426.516 1196.01 437.315 1166.92 437.315C1141.88 437.315 1121.78 429.746 1106.64 414.607C1091.49 399.469 1083.91 380.394 1083.91 357.383C1083.91 334.574 1091.39 315.6 1106.33 300.462C1121.28 285.121 1140.47 277.451 1163.89 277.451C1186.11 277.451 1204.39 285.121 1218.73 300.462C1233.27 315.802 1240.54 334.776 1240.54 357.383C1240.54 362.429 1240.04 367.778 1239.03 373.43H1124.81ZM1124.21 343.153H1201.46C1199.24 332.858 1194.59 325.188 1187.52 320.142C1180.66 315.096 1172.78 312.573 1163.89 312.573C1153.39 312.573 1144.71 315.298 1137.84 320.748C1130.97 325.996 1126.43 333.464 1124.21 343.153Z" fill="#F0F5F7"/>
<path d="M1420.92 0.000362715H1460V211.941H1420.92V194.077C1409.41 208.812 1393.05 216.179 1371.84 216.179C1351.44 216.179 1333.97 208.509 1319.43 193.169C1305.09 177.627 1297.92 158.653 1297.92 136.248C1297.92 113.843 1305.09 94.9698 1319.43 79.6294C1333.97 64.0871 1351.44 56.3159 1371.84 56.3159C1393.05 56.3159 1409.41 63.6834 1420.92 78.4183V0.000362715ZM1348.82 167.13C1356.9 175.002 1366.99 178.938 1379.11 178.938C1391.23 178.938 1401.23 175.002 1409.1 167.13C1416.98 159.056 1420.92 148.762 1420.92 136.248C1420.92 123.733 1416.98 113.54 1409.1 105.668C1401.23 97.5938 1391.23 93.5569 1379.11 93.5569C1366.99 93.5569 1356.9 97.5938 1348.82 105.668C1340.94 113.54 1337 123.733 1337 136.248C1337 148.762 1340.94 159.056 1348.82 167.13Z" fill="#F0F5F7"/>
<path d="M988.493 75.073C982.03 75.073 976.375 72.7518 971.528 68.1093C966.882 63.2649 964.56 57.6132 964.56 51.154C964.56 44.6949 966.882 39.0432 971.528 34.1988C976.375 29.3545 982.03 26.9323 988.493 26.9323C995.158 26.9323 1000.81 29.3545 1005.46 34.1988C1010.31 39.0432 1012.73 44.6949 1012.73 51.154C1012.73 57.6132 1010.31 63.2649 1005.46 68.1093C1000.81 72.7518 995.158 75.073 988.493 75.073ZM969.104 244.625V93.2393H1008.18V244.625H969.104Z" fill="#F0F5F7"/>
<path d="M1071.5 314.375H1110.58V465.761H1071.5V448.806C1062.01 462.935 1046.96 470 1026.36 470C1009.8 470 996.067 464.449 985.16 453.348C974.456 442.246 969.104 426.905 969.104 407.326V314.375H1008.18V402.482C1008.18 412.574 1010.91 420.345 1016.36 425.795C1021.82 431.043 1029.09 433.667 1038.18 433.667C1048.28 433.667 1056.35 430.539 1062.41 424.281C1068.47 418.024 1071.5 408.638 1071.5 396.124V314.375Z" fill="#F0F5F7"/>
<path d="M1353.37 89.0009C1370.74 89.0009 1384.57 94.6526 1394.87 105.956C1405.38 117.26 1410.63 132.398 1410.63 151.372V244.626H1371.55V154.097C1371.55 145.014 1369.33 137.949 1364.88 132.903C1360.44 127.857 1354.18 125.333 1346.1 125.333C1337.21 125.333 1330.24 128.26 1325.2 134.114C1320.35 139.967 1317.92 148.445 1317.92 159.547V244.626H1278.84V154.097C1278.84 145.014 1276.62 137.949 1272.18 132.903C1267.74 127.857 1261.47 125.333 1253.4 125.333C1244.71 125.333 1237.74 128.26 1232.49 134.114C1227.44 139.967 1224.92 148.445 1224.92 159.547V244.626H1185.84V93.2397H1224.92V109.287C1234.01 95.7628 1248.04 89.0009 1267.03 89.0009C1285.61 89.0009 1299.34 96.2674 1308.23 110.8C1318.33 96.2674 1333.37 89.0009 1353.37 89.0009Z" fill="#F0F5F7"/>
</g>
</svg>
