<svg width="1872" height="2447" viewBox="0 0 1872 2447" fill="none" xmlns="http://www.w3.org/2000/svg">
<rect width="220" height="220" transform="matrix(-1 0 0 1 1881 2210)" fill="#6735FF" fill-opacity="0.5"/>
<rect width="24" height="24" transform="matrix(-1 0 0 1 1820 2411)" fill="#6735FF"/>
<rect y="2351" width="24" height="24" fill="#6735FF"/>
<rect width="24" height="24" transform="matrix(-1 0 0 1 1799 2423)" fill="#6735FF"/>
<rect x="76" y="1025" width="24" height="24" fill="#6735FF"/>
<rect width="24" height="24" transform="matrix(-1 0 0 1 336 1408)" fill="#6735FF"/>
<rect width="24" height="24" transform="matrix(-1 0 0 1 182 1568)" fill="#6735FF"/>
<rect width="24" height="24" transform="matrix(-1 0 0 1 142 1176)" fill="white"/>
<rect x="130" y="1140" width="48" height="48" fill="#6735FF"/>
<rect width="24" height="24" transform="matrix(-1 0 0 1 200 1188)" fill="#6735FF"/>
<rect x="288" y="926" width="24" height="24" fill="#6735FF"/>
<rect width="24" height="24" transform="matrix(-1 0 0 1 188 1200)" fill="#6735FF"/>
<rect x="135" width="24" height="24" fill="#6735FF"/>
</svg>
