<svg width="1217" height="694" viewBox="0 0 1217 694" fill="none" xmlns="http://www.w3.org/2000/svg">
<rect width="36.5" height="36.5" transform="matrix(1 0 0 -1 89.6873 346.666)" fill="#6735FF"/>
<rect width="74.5208" height="74.5208" transform="matrix(1 0 0 -1 323.135 332.979)" fill="#6735FF"/>
<rect width="15.2083" height="15.2083" transform="matrix(1 0 0 -1 1162.64 15.885)" fill="#6735FF"/>
<rect x="28.0935" y="393.812" width="18.25" height="18.25" transform="rotate(-180 28.0935 393.812)" fill="white"/>
<rect x="18.9685" y="375.562" width="18.25" height="18.25" transform="rotate(-180 18.9685 375.562)" fill="#6735FF"/>
<rect x="164.208" y="189.26" width="18.25" height="18.25" transform="rotate(-180 164.208 189.26)" fill="#6735FF"/>
<rect x="1037.17" y="607.489" width="18.25" height="18.25" fill="#6735FF"/>
<rect x="1078.23" y="656.916" width="36.5" height="36.5" fill="#6735FF"/>
<rect x="1138.3" y="575.552" width="18.25" height="18.25" fill="#6735FF"/>
<rect x="1198.38" y="494.187" width="18.25" height="18.25" fill="#6735FF"/>
<rect x="1147.43" y="593.802" width="18.25" height="18.25" fill="#6735FF"/>
</svg>
