<svg width="1462" height="1381" viewBox="0 0 1462 1381" fill="none" xmlns="http://www.w3.org/2000/svg">
<g opacity="0.05">
<path d="M731.103 1380.95L684.239 1351.33C570.009 1283.19 405.987 1170.62 265.396 1031.38C-80.223 693.657 -48.0043 347.046 133.592 151.523C274.183 3.39833 520.217 -64.7388 728.174 80.4229C936.131 -61.7763 1182.17 3.39833 1325.68 151.523C1510.21 347.046 1542.43 693.657 1199.74 1031.38C1056.22 1170.62 892.197 1283.19 780.896 1351.33L731.103 1380.95ZM476.282 190.035C397.2 190.035 321.047 225.585 268.325 281.872C157.024 400.371 121.876 631.445 391.342 895.106C502.643 1004.72 628.589 1093.59 728.174 1158.77C827.759 1096.55 956.634 1004.72 1065.01 895.106C1334.47 631.445 1299.32 397.409 1188.02 281.872C1094.3 181.147 921.486 142.635 792.611 270.022L731.103 329.272L666.666 267.059C608.086 213.735 540.72 190.035 476.282 190.035Z" fill="white"/>
<path fill-rule="evenodd" clip-rule="evenodd" d="M1006.43 560.339H933.205H842.407H830.691V397.403C830.691 388.515 821.904 379.628 813.117 379.628H643.237C634.45 379.628 625.663 388.515 625.663 397.403V560.339H613.947H467.498H449.924C441.137 560.339 432.35 569.227 432.35 578.114V749.938C432.35 758.826 441.137 767.713 449.924 767.713H467.498H613.947H625.663V921.762C625.663 930.65 634.45 939.537 643.237 939.537H813.117C821.904 939.537 830.691 930.65 830.691 921.762V767.713H842.407H933.205H1006.43C1015.22 767.713 1024 758.826 1024 749.938V578.114C1024 569.227 1015.22 560.339 1006.43 560.339Z" fill="white"/>
</g>
</svg>
