<svg width="417" height="99" viewBox="0 0 417 99" fill="none" xmlns="http://www.w3.org/2000/svg">
<path d="M398.3 44.9018H389.42L393.752 34.6059L398.3 44.9018ZM403.715 58.2647H413.244V56.7312L395.917 18.8333H391.586L374.259 56.7312V58.2647H383.789L385.955 53.4453H401.116L403.715 58.2647ZM354.55 35.4821L360.181 49.5022H349.352L354.55 35.4821ZM343.504 58.4837H366.245V62.865H374.259V49.9403H370.36L356.716 19.0524H352.384L339.172 49.9403H335.274V62.865H343.504V58.4837ZM303.002 58.2647H312.965V43.3684C313.615 43.3684 314.265 43.1493 314.915 43.1493L323.361 58.2647H334.191V56.7312L323.795 39.6443C331.375 34.6059 331.159 27.3768 331.159 19.4905H321.196C321.196 26.5005 321.629 33.7296 312.965 34.1677V19.4905H303.002V34.1677C294.122 33.7296 294.772 26.5005 294.772 19.4905H284.809C284.809 27.3768 284.593 34.8249 292.173 39.6443L281.777 56.7312V58.2647H292.606L301.053 43.1493C301.703 43.3684 302.569 43.3684 303.002 43.3684V58.2647ZM277.229 19.4905C268.132 19.4905 262.068 19.4905 253.188 19.4905C253.188 32.4152 253.188 45.34 253.188 58.4837C262.068 58.4837 268.782 58.4837 277.662 58.4837C277.662 55.6359 277.662 52.569 277.662 49.7212C271.814 49.7212 268.565 49.7212 262.934 49.7212C262.934 47.3115 262.934 45.1209 262.934 42.9303H275.929C275.929 40.0824 275.929 37.0156 275.929 34.1677H262.934V28.6912C268.565 28.6912 271.381 28.6912 277.229 28.6912C277.229 25.4052 277.229 22.3384 277.229 19.4905ZM228.497 35.4821L234.128 49.5022H223.299L228.497 35.4821ZM217.235 58.4837H239.976V62.865H247.99V49.9403H243.875L230.23 19.0524H225.898L212.687 49.9403H208.788V62.865H217.018V58.4837H217.235ZM193.844 44.9018H184.964L189.295 34.6059L193.844 44.9018ZM199.258 58.2647H208.788V56.7312L191.461 18.8333H187.13L169.803 56.7312V58.2647H179.332L181.498 53.4453H196.659L199.258 58.2647ZM165.038 19.4905C161.789 19.4905 158.324 19.4905 155.075 19.4905V33.5106H143.163V19.4905C139.914 19.4905 136.449 19.4905 133.2 19.4905V58.4837C136.449 58.4837 139.914 58.4837 143.163 58.4837V42.9303H155.075V58.4837C158.324 58.4837 161.789 58.4837 165.038 58.4837V19.4905Z" fill="white"/>
<path d="M411.079 87.6182H408.046C408.046 86.3038 408.046 84.1132 408.046 82.7988C409.129 82.7988 410.212 82.7988 411.079 82.7988C413.461 82.7988 413.244 87.6182 411.079 87.6182ZM407.83 95.9426V91.5613H410.862C418.876 91.5613 418.876 78.8557 410.862 78.8557C408.479 78.8557 405.88 78.8557 403.498 78.8557C403.498 84.5513 403.498 90.2469 403.498 95.9426C405.014 95.9426 406.53 95.9426 407.83 95.9426ZM392.452 82.7988V95.9426C393.968 95.9426 395.268 95.9426 396.784 95.9426V82.7988H400.899C400.899 81.4844 400.899 80.17 400.899 78.8557H388.337C388.337 80.17 388.337 81.4844 388.337 82.7988H392.452ZM385.738 78.8557C384.222 78.8557 382.706 78.8557 381.406 78.8557V84.9894H376.208V78.8557C374.692 78.8557 373.176 78.8557 371.877 78.8557V95.9426C373.393 95.9426 374.909 95.9426 376.208 95.9426V89.1516H381.406V95.9426C382.922 95.9426 384.439 95.9426 385.738 95.9426V78.8557ZM367.545 78.8557C363.646 78.8557 360.831 78.8557 356.932 78.8557C356.932 84.5513 356.932 90.2469 356.932 95.9426C360.831 95.9426 363.646 95.9426 367.762 95.9426C367.762 94.6282 367.762 93.3138 367.762 91.9994C365.162 91.9994 363.863 91.9994 361.264 91.9994C361.264 90.9041 361.264 90.0279 361.264 88.9326H367.112C367.112 87.6182 367.112 86.3038 367.112 84.9894H361.264V82.5797C363.646 82.5797 364.946 82.5797 367.545 82.5797C367.545 81.4844 367.545 80.17 367.545 78.8557ZM338.956 95.9426H350.868V97.9141H354.333V92.2185H352.601V78.8557H348.269V91.9994H343.287V78.8557H338.956V95.9426ZM319.896 73.5981C319.03 73.5981 318.164 73.8172 317.514 73.8172C317.514 76.446 319.03 77.9794 321.629 77.9794C324.228 77.9794 325.744 76.446 325.961 73.8172C325.094 73.8172 324.228 73.5981 323.578 73.5981C323.362 74.6935 322.712 74.9125 321.845 74.9125C320.546 74.9125 319.896 74.4744 319.896 73.5981ZM315.131 95.9426H313.615V78.8557C315.131 78.8557 316.647 78.8557 317.947 78.8557V87.1801L326.394 78.6366H327.91V95.7235C326.394 95.7235 324.878 95.7235 323.362 95.7235V87.3991L315.131 95.9426ZM304.735 87.6182V95.9426C306.251 95.9426 307.767 95.9426 309.284 95.9426V78.8557H307.551L299.104 87.3991V79.0747C297.588 79.0747 296.072 79.0747 294.772 79.0747V96.1616H296.288L304.735 87.6182ZM281.994 95.9426V89.3707C282.644 89.3707 283.077 89.3707 283.726 89.3707L287.408 95.9426H292.173V95.2854L287.625 87.8372C290.874 85.6466 290.874 82.3607 290.874 78.8557C289.358 78.8557 287.842 78.8557 286.326 78.8557C286.326 82.1416 286.542 85.4275 282.21 85.4275H281.994V78.8557C280.478 78.8557 278.962 78.8557 277.662 78.8557V95.9426C278.962 95.9426 280.478 95.9426 281.994 95.9426ZM257.52 87.3991C257.52 93.3138 261.851 96.1616 266.183 96.1616C269.865 96.1616 273.547 94.1901 274.197 89.3707C272.681 89.3707 271.381 89.3707 269.865 89.3707C269.432 91.1232 267.916 92.2185 266.183 92.2185C263.584 92.2185 262.068 90.0279 262.068 87.3991C262.068 84.5513 263.801 82.5797 266.183 82.5797C267.916 82.5797 269.215 83.456 269.865 84.9894C271.381 84.9894 272.681 84.9894 274.197 84.9894C273.547 80.3891 269.648 78.4175 266.183 78.4175C261.851 78.6366 257.52 81.7035 257.52 87.3991ZM254.271 78.8557C252.755 78.8557 251.239 78.8557 249.939 78.8557V84.9894H244.741V78.8557C243.225 78.8557 241.709 78.8557 240.409 78.8557V95.9426C241.926 95.9426 243.442 95.9426 244.741 95.9426V89.1516H249.939V95.9426C251.455 95.9426 252.971 95.9426 254.271 95.9426V78.8557ZM231.313 87.6182V95.9426C232.829 95.9426 234.345 95.9426 235.861 95.9426V78.8557H234.345L225.898 87.3991V79.0747C224.382 79.0747 222.866 79.0747 221.567 79.0747V96.1616H223.083L231.313 87.6182ZM203.157 95.9426H215.069V97.9141H218.534V92.2185H216.802V78.8557H212.47V91.9994H207.489V78.8557H203.157V95.9426ZM194.493 87.6182V95.9426C196.01 95.9426 197.526 95.9426 199.042 95.9426V78.8557H197.526L189.079 87.3991V79.0747C187.563 79.0747 186.047 79.0747 184.747 79.0747V96.1616H186.263L194.493 87.6182ZM173.485 86.0847L175.867 92.2185H171.102L173.485 86.0847ZM168.503 96.1616H178.466V98.1332H181.931V92.4376H180.199L174.134 78.8557H172.185L166.771 92.2185H165.038V97.9141H168.72V96.1616H168.503ZM163.089 78.8557C159.19 78.8557 156.374 78.8557 152.476 78.8557C152.476 84.5513 152.476 90.2469 152.476 95.9426C156.374 95.9426 159.19 95.9426 163.305 95.9426C163.305 94.6282 163.305 93.3138 163.305 91.9994C160.706 91.9994 159.407 91.9994 156.808 91.9994C156.808 90.9041 156.808 90.0279 156.808 88.9326H162.655C162.655 87.6182 162.655 86.3038 162.655 84.9894H156.808V82.5797C159.19 82.5797 160.49 82.5797 163.089 82.5797C163.089 81.4844 163.089 80.17 163.089 78.8557ZM140.131 86.3038L133.416 78.8557H131.9V95.9426C133.416 95.9426 134.933 95.9426 136.232 95.9426V88.2754L139.914 91.9994H140.347L144.029 88.2754V95.9426C145.545 95.9426 147.061 95.9426 148.361 95.9426V78.8557H146.845L140.131 86.3038Z" fill="white"/>
<path d="M51.9232 97.9674L48.6004 95.8669C40.5009 91.0356 28.8708 83.0535 18.9022 73.1809C-5.60393 49.2346 -3.31946 24.6582 9.55666 10.7945C19.5253 0.29174 36.9703 -4.53953 51.7156 5.75318C66.4608 -4.32948 83.9058 0.29174 94.0821 10.7945C107.166 24.6582 109.45 49.2346 85.1519 73.1809C74.9756 83.0535 63.3456 91.0356 55.4538 95.8669L51.9232 97.9674ZM33.8551 13.5252C28.2478 13.5252 22.8481 16.0459 19.1099 20.0369C11.2181 28.4391 8.72594 44.8235 27.8324 63.5184C35.7242 71.2904 44.6545 77.5921 51.7156 82.2133C58.7766 77.8021 67.9145 71.2904 75.5987 63.5184C94.7052 44.8235 92.213 28.2291 84.3212 20.0369C77.6755 12.8951 65.4224 10.1643 56.2845 19.1967L51.9232 23.3978L47.3543 18.9867C43.2007 15.2057 38.4241 13.5252 33.8551 13.5252Z" fill="white"/>
<path fill-rule="evenodd" clip-rule="evenodd" d="M71.4453 39.7817H66.2533H59.8153H58.9845V28.2286C58.9845 27.5985 58.3615 26.9683 57.7385 26.9683H45.6931C45.07 26.9683 44.447 27.5985 44.447 28.2286V39.7817H43.6163H33.2323H31.9862C31.3632 39.7817 30.7402 40.4118 30.7402 41.042V53.2252C30.7402 53.8554 31.3632 54.4855 31.9862 54.4855H33.2323H43.6163H44.447V65.4084C44.447 66.0386 45.07 66.6687 45.6931 66.6687H57.7385C58.3615 66.6687 58.9845 66.0386 58.9845 65.4084V54.4855H59.8153H66.2533H71.4453C72.0683 54.4855 72.6914 53.8554 72.6914 53.2252V41.042C72.6914 40.4118 72.0683 39.7817 71.4453 39.7817Z" fill="white"/>
</svg>
