<svg width="24" height="25" viewBox="0 0 24 25" fill="none" xmlns="http://www.w3.org/2000/svg">
<g clip-path="url(#clip0_29_1676)">
<path d="M11.9995 0.5C5.37295 0.5 0 5.87295 0 12.4995C0 19.126 5.37295 24.5 11.9995 24.5C18.626 24.5 24 19.126 24 12.4995C24 5.87295 18.626 0.5 11.9995 0.5ZM14.4975 19.0976C13.8799 19.3414 13.3882 19.5263 13.0194 19.6543C12.6058 19.7894 12.1725 19.8543 11.7374 19.8463C10.9897 19.8463 10.4076 19.6634 9.99314 19.2987C9.57867 18.934 9.37244 18.4718 9.37244 17.91C9.37244 17.6916 9.38768 17.4681 9.41816 17.2406C9.45583 16.9814 9.50566 16.7241 9.56749 16.4695L10.3406 13.7389C10.4086 13.4768 10.4676 13.2279 10.5143 12.9963C10.561 12.7626 10.5834 12.5483 10.5834 12.3532C10.5834 12.0058 10.5112 11.762 10.368 11.6248C10.2227 11.4877 9.94946 11.4206 9.54209 11.4206C9.34298 11.4206 9.13778 11.4501 8.92749 11.5121C8.71924 11.5761 8.53841 11.634 8.39009 11.6909L8.59429 10.8497C9.10019 10.6435 9.58476 10.4667 10.047 10.3204C10.4697 10.179 10.9118 10.1043 11.3575 10.099C12.1001 10.099 12.673 10.2798 13.0763 10.6374C13.4776 10.996 13.6797 11.4623 13.6797 12.0352C13.6797 12.1541 13.6655 12.3634 13.6381 12.662C13.6143 12.9411 13.5625 13.2171 13.4837 13.4859L12.7147 16.2084C12.6457 16.4547 12.5891 16.7042 12.545 16.9561C12.5031 17.1658 12.4783 17.3784 12.4709 17.5921C12.4709 17.9537 12.5511 18.2006 12.7137 18.3316C12.8742 18.4627 13.1556 18.5287 13.5538 18.5287C13.7417 18.5287 13.952 18.4952 14.1897 18.4302C14.4254 18.3651 14.5961 18.3072 14.7037 18.2575L14.4975 19.0976ZM14.3614 8.04692C14.0117 8.37666 13.5467 8.55611 13.0662 8.54673C12.5623 8.54673 12.1275 8.38013 11.7658 8.04692C11.5939 7.89564 11.4565 7.70909 11.363 7.49996C11.2696 7.29083 11.2223 7.06403 11.2244 6.83498C11.2244 6.3626 11.4072 5.95625 11.7658 5.62C12.1163 5.28763 12.5833 5.1063 13.0662 5.11511C13.571 5.11511 14.0038 5.28273 14.3614 5.62C14.72 5.95625 14.8998 6.3626 14.8998 6.83498C14.8998 7.3094 14.72 7.71371 14.3614 8.04692Z" fill="#676D71"/>
</g>
<defs>
<clipPath id="clip0_29_1676">
<rect width="24" height="24" fill="white" transform="translate(0 0.5)"/>
</clipPath>
</defs>
</svg>
