<svg width="24" height="25" viewBox="0 0 24 25" fill="none" xmlns="http://www.w3.org/2000/svg">
<path fill-rule="evenodd" clip-rule="evenodd" d="M0 12.5C0 5.88331 5.38331 0.5 12 0.5C18.6167 0.5 24 5.88331 24 12.5C24 19.1167 18.6167 24.5 12 24.5C5.38331 24.5 0 19.1167 0 12.5ZM10.2924 8.096L15.7924 12.096C15.9218 12.1902 15.9965 12.3401 15.9966 12.5003C15.9966 12.6605 15.918 12.8104 15.7885 12.9046L10.2846 16.9046C10.1977 16.9681 10.0863 17.0003 9.98283 17.0003C9.9052 17.0003 9.81192 16.9822 9.74016 16.9456C9.57267 16.8607 9.43594 16.6883 9.43594 16.5003V8.5003C9.43594 8.31233 9.57267 8.13997 9.74016 8.05498C9.90764 7.96906 10.14 7.98467 10.2924 8.096Z" fill="#676D71"/>
</svg>
