<svg width="120" height="120" viewBox="0 0 120 120" fill="none" xmlns="http://www.w3.org/2000/svg">
<g clip-path="url(#clip0_201_182)">
<path d="M78.9697 57.9789L51.4698 37.979C50.708 37.4224 49.546 37.3443 48.7086 37.7739C47.8712 38.1989 47.1875 39.0607 47.1875 40.0005V80.0006C47.1875 80.9404 47.8712 81.8025 48.7086 82.2271C49.0674 82.4102 49.5338 82.5007 49.922 82.5007C50.4395 82.5007 50.9961 82.3396 51.4309 82.0221L78.9505 62.0221C79.5976 61.551 79.9906 60.8015 79.9906 60.0007C79.9902 59.1996 79.6166 58.45 78.9697 57.9789ZM52.1874 75.0907V44.91L72.9369 60.0004L52.1874 75.0907Z" fill="white"/>
<path d="M60 0C26.9166 0 0 26.9166 0 60C0 93.0834 26.9166 120 60 120C93.0834 120 120 93.0834 120 60C120 26.9166 93.0834 0 60 0ZM60 115C29.6728 115 4.99992 90.3272 4.99992 60C4.99992 29.6728 29.6728 4.99992 60 4.99992C90.3272 4.99992 115 29.6728 115 60C115 90.3272 90.3272 115 60 115Z" fill="white"/>
</g>
<defs>
<clipPath id="clip0_201_182">
<rect width="120" height="120" fill="white"/>
</clipPath>
</defs>
</svg>
