<svg width="660" height="236" viewBox="0 0 660 236" fill="none" xmlns="http://www.w3.org/2000/svg">
<circle cx="258.311" cy="22.9794" r="2.66146" stroke="#0FB56F" stroke-width="0.760417" stroke-linecap="round" stroke-linejoin="round"/>
<path d="M261.354 23.7397H331.648C337.128 23.7397 342.317 26.2016 345.783 30.4454L383.781 76.9689" stroke="#0FB56F" stroke-width="0.760417" stroke-linecap="round"/>
<path d="M2.97555 35.9272V33.5472H6.30755V14.5752H2.97555V12.1952H12.4955V14.5752H9.16355V33.5472H12.4955V35.9272H2.97555ZM17.7108 12.1952H27.4688C29.4408 12.1952 30.9822 12.7506 32.0928 13.8612C33.2262 14.9719 33.7928 16.4566 33.7928 18.3152C33.7928 19.1992 33.6682 19.9472 33.4188 20.5592C33.1695 21.1712 32.8522 21.6812 32.4668 22.0892C32.0815 22.4746 31.6622 22.7692 31.2088 22.9732C30.7555 23.1546 30.3362 23.2792 29.9508 23.3472V23.5512C30.3815 23.5739 30.8575 23.6872 31.3788 23.8912C31.9228 24.0952 32.4328 24.4239 32.9088 24.8772C33.3848 25.3079 33.7815 25.8746 34.0988 26.5772C34.4388 27.2572 34.6088 28.0846 34.6088 29.0592C34.6088 30.0339 34.4502 30.9406 34.1328 31.7792C33.8382 32.6179 33.4188 33.3432 32.8748 33.9552C32.3308 34.5672 31.6848 35.0546 30.9368 35.4172C30.1888 35.7572 29.3728 35.9272 28.4888 35.9272H17.7108V12.1952ZM20.5668 33.4112H27.6048C28.8288 33.4112 29.7922 33.1052 30.4948 32.4932C31.1975 31.8586 31.5488 30.9406 31.5488 29.7392V28.5832C31.5488 27.3819 31.1975 26.4752 30.4948 25.8632C29.7922 25.2286 28.8288 24.9112 27.6048 24.9112H20.5668V33.4112ZM20.5668 22.4632H27.1288C28.2622 22.4632 29.1462 22.1799 29.7808 21.6132C30.4155 21.0466 30.7328 20.2306 30.7328 19.1652V18.0092C30.7328 16.9439 30.4155 16.1279 29.7808 15.5612C29.1462 14.9946 28.2622 14.7112 27.1288 14.7112H20.5668V22.4632ZM58.4197 15.9352H58.2497L56.2437 19.9132L50.5657 30.2492L44.8877 19.9132L42.8817 15.9352H42.7117V35.9272H39.9237V12.1952H43.7317L50.5317 24.9792H50.7017L57.5357 12.1952H61.2077V35.9272H58.4197V15.9352ZM75.5507 35.9272V12.1952H85.0027C87.1333 12.1952 88.7653 12.8072 89.8987 14.0312C91.0547 15.2326 91.6327 16.8872 91.6327 18.9952C91.6327 21.1032 91.0547 22.7692 89.8987 23.9932C88.7653 25.1946 87.1333 25.7952 85.0027 25.7952H78.4067V35.9272H75.5507ZM78.4067 23.2792H85.0027C86.136 23.2792 87.0087 22.9846 87.6207 22.3952C88.2553 21.8059 88.5727 20.9672 88.5727 19.8792V18.1112C88.5727 17.0232 88.2553 16.1846 87.6207 15.5952C87.0087 15.0059 86.136 14.7112 85.0027 14.7112H78.4067V23.2792ZM96.1698 35.9272V12.1952H99.0258V33.4112H109.124V35.9272H96.1698ZM113.203 35.9272V12.1952H127.687V14.7112H116.059V22.6672H127.007V25.1832H116.059V33.4112H127.687V35.9272H113.203ZM149.889 35.9272H146.455L140.233 25.9652H140.165L133.943 35.9272H130.679L138.431 23.8572L130.883 12.1952H134.317L140.267 21.6472H140.335L146.421 12.1952H149.685L142.069 23.7552L149.889 35.9272ZM168.576 36.3352C166.649 36.3352 165.006 35.9726 163.646 35.2472C162.286 34.4992 161.13 33.4792 160.178 32.1872L162.286 30.4192C163.125 31.5299 164.054 32.3799 165.074 32.9692C166.094 33.5359 167.295 33.8192 168.678 33.8192C170.378 33.8192 171.67 33.4112 172.554 32.5952C173.461 31.7792 173.914 30.6912 173.914 29.3312C173.914 28.1979 173.574 27.3252 172.894 26.7132C172.214 26.1012 171.092 25.6139 169.528 25.2512L167.59 24.8092C165.414 24.3106 163.748 23.5626 162.592 22.5652C161.459 21.5452 160.892 20.1172 160.892 18.2812C160.892 17.2386 161.085 16.3092 161.47 15.4932C161.855 14.6772 162.388 13.9972 163.068 13.4532C163.771 12.9092 164.598 12.5012 165.55 12.2292C166.525 11.9346 167.59 11.7872 168.746 11.7872C170.537 11.7872 172.067 12.1159 173.336 12.7732C174.628 13.4306 175.716 14.3939 176.6 15.6632L174.458 17.2272C173.801 16.3206 173.007 15.6066 172.078 15.0852C171.149 14.5639 169.993 14.3032 168.61 14.3032C167.091 14.3032 165.89 14.6319 165.006 15.2892C164.145 15.9239 163.714 16.8872 163.714 18.1792C163.714 19.3126 164.077 20.1739 164.802 20.7632C165.55 21.3299 166.672 21.7832 168.168 22.1232L170.106 22.5652C172.441 23.0866 174.129 23.8799 175.172 24.9452C176.215 26.0106 176.736 27.4272 176.736 29.1952C176.736 30.2832 176.543 31.2692 176.158 32.1532C175.795 33.0372 175.263 33.7852 174.56 34.3972C173.857 35.0092 172.996 35.4852 171.976 35.8252C170.979 36.1652 169.845 36.3352 168.576 36.3352ZM196.526 35.9272L194.146 28.9232H184.558L182.178 35.9272H179.288L187.584 12.1952H191.222L199.518 35.9272H196.526ZM189.42 14.8472H189.25L185.238 26.4072H193.432L189.42 14.8472ZM209.195 21.4432L206.339 16.1732H206.237V35.9272H203.449V12.1952H206.747L215.417 26.6792L218.273 31.9492H218.375V12.1952H221.163V35.9272H217.865L209.195 21.4432ZM234.152 36.3352C232.226 36.3352 230.582 35.9726 229.222 35.2472C227.862 34.4992 226.706 33.4792 225.754 32.1872L227.862 30.4192C228.701 31.5299 229.63 32.3799 230.65 32.9692C231.67 33.5359 232.872 33.8192 234.254 33.8192C235.954 33.8192 237.246 33.4112 238.13 32.5952C239.037 31.7792 239.49 30.6912 239.49 29.3312C239.49 28.1979 239.15 27.3252 238.47 26.7132C237.79 26.1012 236.668 25.6139 235.104 25.2512L233.166 24.8092C230.99 24.3106 229.324 23.5626 228.168 22.5652C227.035 21.5452 226.468 20.1172 226.468 18.2812C226.468 17.2386 226.661 16.3092 227.046 15.4932C227.432 14.6772 227.964 13.9972 228.644 13.4532C229.347 12.9092 230.174 12.5012 231.126 12.2292C232.101 11.9346 233.166 11.7872 234.322 11.7872C236.113 11.7872 237.643 12.1159 238.912 12.7732C240.204 13.4306 241.292 14.3939 242.176 15.6632L240.034 17.2272C239.377 16.3206 238.584 15.6066 237.654 15.0852C236.725 14.5639 235.569 14.3032 234.186 14.3032C232.668 14.3032 231.466 14.6319 230.582 15.2892C229.721 15.9239 229.29 16.8872 229.29 18.1792C229.29 19.3126 229.653 20.1739 230.378 20.7632C231.126 21.3299 232.248 21.7832 233.744 22.1232L235.682 22.5652C238.017 23.0866 239.706 23.8799 240.748 24.9452C241.791 26.0106 242.312 27.4272 242.312 29.1952C242.312 30.2832 242.12 31.2692 241.734 32.1532C241.372 33.0372 240.839 33.7852 240.136 34.3972C239.434 35.0092 238.572 35.4852 237.552 35.8252C236.555 36.1652 235.422 36.3352 234.152 36.3352Z" fill="white"/>
<g opacity="0.15">
<mask id="mask0_1608_11617" style="mask-type:alpha" maskUnits="userSpaceOnUse" x="259" y="89" width="391" height="135">
<rect x="259.072" y="89.1355" width="390.094" height="134.594" fill="#C4C4C4"/>
</mask>
<g mask="url(#mask0_1608_11617)">
<line x1="0.771491" y1="-0.771491" x2="394.145" y2="-0.771491" transform="matrix(-0.699698 0.714438 -0.699698 -0.714438 737.367 -36.6189)" stroke="white" stroke-width="1.54298" stroke-linecap="round"/>
<line x1="0.771491" y1="-0.771491" x2="473.721" y2="-0.771491" transform="matrix(-0.699426 0.714705 -0.69997 -0.714172 685.676 -89.3997)" stroke="white" stroke-width="1.54298" stroke-linecap="round"/>
<line x1="0.771491" y1="-0.771491" x2="417.722" y2="-0.771491" transform="matrix(-0.699698 0.714438 -0.699698 -0.714438 367.037 68.6362)" stroke="white" stroke-width="1.54298" stroke-linecap="round"/>
<line x1="0.771491" y1="-0.771491" x2="426.553" y2="-0.771491" transform="matrix(-0.70049 0.713662 -0.698906 -0.715214 720.137 -54.2124)" stroke="white" stroke-width="1.54298" stroke-linecap="round"/>
<line x1="0.771491" y1="-0.771491" x2="367.62" y2="-0.771491" transform="matrix(-0.699698 0.714438 -0.699698 -0.714438 863.412 63.3982)" stroke="white" stroke-width="1.54298" stroke-linecap="round"/>
<line x1="0.771491" y1="-0.771491" x2="470.77" y2="-0.771491" transform="matrix(-0.699698 0.714438 -0.699698 -0.714438 438.619 65.9231)" stroke="white" stroke-width="1.54298" stroke-linecap="round"/>
<line x1="0.771491" y1="-0.771491" x2="347.547" y2="-0.771491" transform="matrix(-0.699698 0.714438 -0.699698 -0.714438 771.828 -1.43213)" stroke="white" stroke-width="1.54298" stroke-linecap="round"/>
<line x1="0.771491" y1="-0.771491" x2="444.246" y2="-0.771491" transform="matrix(-0.699698 0.714438 -0.699698 -0.714438 702.904 -71.8062)" stroke="white" stroke-width="1.54298" stroke-linecap="round"/>
<line x1="0.771491" y1="-0.771491" x2="347.547" y2="-0.771491" transform="matrix(-0.699698 0.714438 -0.699698 -0.714438 832.135 60.1458)" stroke="white" stroke-width="1.54298" stroke-linecap="round"/>
<line x1="0.771491" y1="-0.771491" x2="444.246" y2="-0.771491" transform="matrix(-0.699698 0.714438 -0.699698 -0.714438 402.828 67.2803)" stroke="white" stroke-width="1.54298" stroke-linecap="round"/>
<line x1="0.771491" y1="-0.771491" x2="491.4" y2="-0.771491" transform="matrix(-0.699698 0.714438 -0.699698 -0.714438 668.445 -106.993)" stroke="white" stroke-width="1.54298" stroke-linecap="round"/>
<line x1="0.771491" y1="-0.771491" x2="347.547" y2="-0.771491" transform="matrix(-0.699698 0.714438 -0.699698 -0.714438 797.674 24.9585)" stroke="white" stroke-width="1.54298" stroke-linecap="round"/>
<line x1="0.771491" y1="-0.771491" x2="391.197" y2="-0.771491" transform="matrix(-0.699698 0.714438 -0.699698 -0.714438 331.25 69.9922)" stroke="white" stroke-width="1.54298" stroke-linecap="round"/>
<line x1="0.771491" y1="-0.771491" x2="408.88" y2="-0.771491" transform="matrix(-0.699698 0.714438 -0.699698 -0.714438 741.676 -32.2207)" stroke="white" stroke-width="1.54298" stroke-linecap="round"/>
<line x1="0.771491" y1="-0.771491" x2="385.303" y2="-0.771491" transform="matrix(-0.699698 0.714438 -0.699698 -0.714438 893.012 68.3579)" stroke="white" stroke-width="1.54298" stroke-linecap="round"/>
<line x1="0.771491" y1="-0.771491" x2="497.294" y2="-0.771491" transform="matrix(-0.699698 0.714438 -0.699698 -0.714438 474.406 64.5674)" stroke="white" stroke-width="1.54298" stroke-linecap="round"/>
<line x1="0.771491" y1="-0.771491" x2="370.568" y2="-0.771491" transform="matrix(-0.699698 0.714438 -0.699698 -0.714438 754.598 -19.0259)" stroke="white" stroke-width="1.54298" stroke-linecap="round"/>
<line x1="0.771491" y1="-0.771491" x2="458.981" y2="-0.771491" transform="matrix(-0.699698 0.714438 -0.699698 -0.714438 694.293 -80.603)" stroke="white" stroke-width="1.54298" stroke-linecap="round"/>
<line x1="0.771491" y1="-0.771491" x2="347.547" y2="-0.771491" transform="matrix(-0.699698 0.714438 -0.699698 -0.714438 823.52 51.3486)" stroke="white" stroke-width="1.54298" stroke-linecap="round"/>
<line x1="0.771491" y1="-0.771491" x2="432.457" y2="-0.771491" transform="matrix(-0.699698 0.714438 -0.699698 -0.714438 385.963 66.9048)" stroke="white" stroke-width="1.54298" stroke-linecap="round"/>
<line x1="0.771491" y1="-0.771491" x2="347.547" y2="-0.771491" transform="matrix(-0.699698 0.714438 -0.699698 -0.714438 789.061 16.1614)" stroke="white" stroke-width="1.54298" stroke-linecap="round"/>
<line x1="0.771491" y1="-0.771491" x2="379.409" y2="-0.771491" transform="matrix(-0.699698 0.714438 -0.699698 -0.714438 314.385 69.6179)" stroke="white" stroke-width="1.54298" stroke-linecap="round"/>
<line x1="0.771491" y1="-0.771491" x2="411.838" y2="-0.771491" transform="matrix(-0.698777 0.715339 -0.700618 -0.713536 728.75 -45.416)" stroke="white" stroke-width="1.54298" stroke-linecap="round"/>
<line x1="0.771491" y1="-0.771491" x2="382.356" y2="-0.771491" transform="matrix(-0.699698 0.714438 -0.699698 -0.714438 882.338 61.6663)" stroke="white" stroke-width="1.54298" stroke-linecap="round"/>
<line x1="0.771491" y1="-0.771491" x2="479.611" y2="-0.771491" transform="matrix(-0.699698 0.714438 -0.699698 -0.714438 453.42 68.4031)" stroke="white" stroke-width="1.54298" stroke-linecap="round"/>
<line x1="0.771491" y1="-0.771491" x2="347.547" y2="-0.771491" transform="matrix(-0.699698 0.714438 -0.699698 -0.714438 780.443 7.36475)" stroke="white" stroke-width="1.54298" stroke-linecap="round"/>
<line x1="0.771491" y1="-0.771491" x2="373.515" y2="-0.771491" transform="matrix(-0.699698 0.714438 -0.699698 -0.714438 301.645 65.0322)" stroke="white" stroke-width="1.54298" stroke-linecap="round"/>
<line x1="0.771491" y1="-0.771491" x2="438.353" y2="-0.771491" transform="matrix(-0.699563 0.714571 -0.699834 -0.714306 711.521 -63.0095)" stroke="white" stroke-width="1.54298" stroke-linecap="round"/>
<line x1="0.771491" y1="-0.771491" x2="347.547" y2="-0.771491" transform="matrix(-0.699698 0.714438 -0.699698 -0.714438 840.752 68.9424)" stroke="white" stroke-width="1.54298" stroke-linecap="round"/>
<line x1="0.771491" y1="-0.771491" x2="453.087" y2="-0.771491" transform="matrix(-0.699698 0.714438 -0.699698 -0.714438 417.629 69.76)" stroke="white" stroke-width="1.54298" stroke-linecap="round"/>
<line x1="0.771491" y1="-0.771491" x2="485.506" y2="-0.771491" transform="matrix(-0.699698 0.714438 -0.699698 -0.714438 677.061 -98.1968)" stroke="white" stroke-width="1.54298" stroke-linecap="round"/>
<line x1="0.771491" y1="-0.771491" x2="347.547" y2="-0.771491" transform="matrix(-0.699698 0.714438 -0.699698 -0.714438 806.287 33.7549)" stroke="white" stroke-width="1.54298" stroke-linecap="round"/>
<line x1="0.771491" y1="-0.771491" x2="405.933" y2="-0.771491" transform="matrix(-0.699698 0.714438 -0.699698 -0.714438 350.176 68.2615)" stroke="white" stroke-width="1.54298" stroke-linecap="round"/>
<line x1="0.771491" y1="-0.771491" x2="373.518" y2="-0.771491" transform="matrix(-0.699427 0.714704 -0.699969 -0.714173 758.906 -14.6272)" stroke="white" stroke-width="1.54298" stroke-linecap="round"/>
<line x1="0.771491" y1="-0.771491" x2="347.547" y2="-0.771491" transform="matrix(-0.699698 0.714438 -0.699698 -0.714438 261.938 61.5928)" stroke="white" stroke-width="1.54298" stroke-linecap="round"/>
<line x1="0.771491" y1="-0.771491" x2="397.092" y2="-0.771491" transform="matrix(-0.699698 0.714438 -0.699698 -0.714438 745.982 -27.8218)" stroke="white" stroke-width="1.54298" stroke-linecap="round"/>
<line x1="0.771491" y1="-0.771491" x2="476.664" y2="-0.771491" transform="matrix(-0.699698 0.714438 -0.699698 -0.714438 689.982 -85.0015)" stroke="white" stroke-width="1.54298" stroke-linecap="round"/>
<line x1="0.771491" y1="-0.771491" x2="423.616" y2="-0.771491" transform="matrix(-0.699698 0.714438 -0.699698 -0.714438 375.471 68.8232)" stroke="white" stroke-width="1.54298" stroke-linecap="round"/>
<line x1="0.771491" y1="-0.771491" x2="414.774" y2="-0.771491" transform="matrix(-0.699698 0.714438 -0.699698 -0.714438 724.445 -49.8142)" stroke="white" stroke-width="1.54298" stroke-linecap="round"/>
<line x1="0.771491" y1="-0.771491" x2="376.462" y2="-0.771491" transform="matrix(-0.699698 0.714438 -0.699698 -0.714438 873.904 61.4797)" stroke="white" stroke-width="1.54298" stroke-linecap="round"/>
<line x1="0.771491" y1="-0.771491" x2="473.717" y2="-0.771491" transform="matrix(-0.699698 0.714438 -0.699698 -0.714438 444.986 68.2161)" stroke="white" stroke-width="1.54298" stroke-linecap="round"/>
<line x1="0.771491" y1="-0.771491" x2="347.547" y2="-0.771491" transform="matrix(-0.699698 0.714438 -0.699698 -0.714438 776.135 2.96606)" stroke="white" stroke-width="1.54298" stroke-linecap="round"/>
<line x1="0.771491" y1="-0.771491" x2="438.352" y2="-0.771491" transform="matrix(-0.699698 0.714438 -0.699698 -0.714438 707.213 -67.4082)" stroke="white" stroke-width="1.54298" stroke-linecap="round"/>
<line x1="0.771491" y1="-0.771491" x2="347.547" y2="-0.771491" transform="matrix(-0.699698 0.714438 -0.699698 -0.714438 836.445 64.5439)" stroke="white" stroke-width="1.54298" stroke-linecap="round"/>
<line x1="0.771491" y1="-0.771491" x2="447.193" y2="-0.771491" transform="matrix(-0.699698 0.714438 -0.699698 -0.714438 409.197 69.5725)" stroke="white" stroke-width="1.54298" stroke-linecap="round"/>
<line x1="0.771491" y1="-0.771491" x2="485.506" y2="-0.771491" transform="matrix(-0.699698 0.714438 -0.699698 -0.714438 672.752 -102.595)" stroke="white" stroke-width="1.54298" stroke-linecap="round"/>
<line x1="0.771491" y1="-0.771491" x2="347.547" y2="-0.771491" transform="matrix(-0.699698 0.714438 -0.699698 -0.714438 801.982 29.3567)" stroke="white" stroke-width="1.54298" stroke-linecap="round"/>
<line x1="0.771491" y1="-0.771491" x2="402.986" y2="-0.771491" transform="matrix(-0.699698 0.714438 -0.699698 -0.714438 343.805 65.9683)" stroke="white" stroke-width="1.54298" stroke-linecap="round"/>
<line x1="0.771491" y1="-0.771491" x2="379.409" y2="-0.771491" transform="matrix(-0.699698 0.714438 -0.699698 -0.714438 750.289 -23.4236)" stroke="white" stroke-width="1.54298" stroke-linecap="round"/>
<line x1="0.771491" y1="-0.771491" x2="391.197" y2="-0.771491" transform="matrix(-0.699698 0.714438 -0.699698 -0.714438 901.445 68.5457)" stroke="white" stroke-width="1.54298" stroke-linecap="round"/>
<line x1="0.771491" y1="-0.771491" x2="497.294" y2="-0.771491" transform="matrix(-0.699698 0.714438 -0.699698 -0.714438 478.715 68.9651)" stroke="white" stroke-width="1.54298" stroke-linecap="round"/>
<line x1="0.771491" y1="-0.771491" x2="364.673" y2="-0.771491" transform="matrix(-0.699698 0.714438 -0.699698 -0.714438 763.213 -10.2288)" stroke="white" stroke-width="1.54298" stroke-linecap="round"/>
<line x1="0.771491" y1="-0.771491" x2="347.547" y2="-0.771491" transform="matrix(-0.699698 0.714438 -0.699698 -0.714438 266.244 65.9907)" stroke="white" stroke-width="1.54298" stroke-linecap="round"/>
<line x1="0.771491" y1="-0.771491" x2="450.14" y2="-0.771491" transform="matrix(-0.699698 0.714438 -0.699698 -0.714438 698.598 -76.2043)" stroke="white" stroke-width="1.54298" stroke-linecap="round"/>
<line x1="0.771491" y1="-0.771491" x2="347.547" y2="-0.771491" transform="matrix(-0.699698 0.714438 -0.699698 -0.714438 827.826 55.7473)" stroke="white" stroke-width="1.54298" stroke-linecap="round"/>
<line x1="0.771491" y1="-0.771491" x2="438.352" y2="-0.771491" transform="matrix(-0.699698 0.714438 -0.699698 -0.714438 394.396 67.092)" stroke="white" stroke-width="1.54298" stroke-linecap="round"/>
<line x1="0.771491" y1="-0.771491" x2="503.188" y2="-0.771491" transform="matrix(-0.699698 0.714438 -0.699698 -0.714438 664.139 -111.391)" stroke="white" stroke-width="1.54298" stroke-linecap="round"/>
<line x1="0.771491" y1="-0.771491" x2="347.547" y2="-0.771491" transform="matrix(-0.699698 0.714438 -0.699698 -0.714438 793.367 20.5601)" stroke="white" stroke-width="1.54298" stroke-linecap="round"/>
<line x1="0.771491" y1="-0.771491" x2="388.25" y2="-0.771491" transform="matrix(-0.699698 0.714438 -0.699698 -0.714438 324.879 67.6997)" stroke="white" stroke-width="1.54298" stroke-linecap="round"/>
<line x1="0.771491" y1="-0.771491" x2="402.986" y2="-0.771491" transform="matrix(-0.699698 0.714438 -0.699698 -0.714438 733.061 -41.0171)" stroke="white" stroke-width="1.54298" stroke-linecap="round"/>
<line x1="0.771491" y1="-0.771491" x2="385.303" y2="-0.771491" transform="matrix(-0.699698 0.714438 -0.699698 -0.714438 888.707 63.9595)" stroke="white" stroke-width="1.54298" stroke-linecap="round"/>
<line x1="0.771491" y1="-0.771491" x2="482.559" y2="-0.771491" transform="matrix(-0.699698 0.714438 -0.699698 -0.714438 459.789 70.6965)" stroke="white" stroke-width="1.54298" stroke-linecap="round"/>
<line x1="0.771491" y1="-0.771491" x2="347.547" y2="-0.771491" transform="matrix(-0.699698 0.714438 -0.699698 -0.714438 784.752 11.7632)" stroke="white" stroke-width="1.54298" stroke-linecap="round"/>
<line x1="0.771491" y1="-0.771491" x2="373.515" y2="-0.771491" transform="matrix(-0.699698 0.714438 -0.699698 -0.714438 305.953 69.4307)" stroke="white" stroke-width="1.54298" stroke-linecap="round"/>
<line x1="0.771491" y1="-0.771491" x2="426.563" y2="-0.771491" transform="matrix(-0.699698 0.714438 -0.699698 -0.714438 715.828 -58.6108)" stroke="white" stroke-width="1.54298" stroke-linecap="round"/>
<line x1="0.771491" y1="-0.771491" x2="364.673" y2="-0.771491" transform="matrix(-0.699698 0.714438 -0.699698 -0.714438 857.041 61.1047)" stroke="white" stroke-width="1.54298" stroke-linecap="round"/>
<line x1="0.771491" y1="-0.771491" x2="467.823" y2="-0.771491" transform="matrix(-0.699698 0.714438 -0.699698 -0.714438 432.248 63.6304)" stroke="white" stroke-width="1.54298" stroke-linecap="round"/>
<line x1="0.771491" y1="-0.771491" x2="470.77" y2="-0.771491" transform="matrix(-0.699698 0.714438 -0.699698 -0.714438 681.369 -93.7986)" stroke="white" stroke-width="1.54298" stroke-linecap="round"/>
<line x1="0.771491" y1="-0.771491" x2="347.547" y2="-0.771491" transform="matrix(-0.699698 0.714438 -0.699698 -0.714438 810.598 38.1533)" stroke="white" stroke-width="1.54298" stroke-linecap="round"/>
<line x1="0.771491" y1="-0.771491" x2="408.88" y2="-0.771491" transform="matrix(-0.699698 0.714438 -0.699698 -0.714438 356.543 70.5547)" stroke="white" stroke-width="1.54298" stroke-linecap="round"/>
<line x1="0.771491" y1="-0.771491" x2="347.547" y2="-0.771491" transform="matrix(-0.699698 0.714438 -0.699698 -0.714438 767.521 -5.83081)" stroke="white" stroke-width="1.54298" stroke-linecap="round"/>
<line x1="0.771491" y1="-0.771491" x2="355.832" y2="-0.771491" transform="matrix(-0.699698 0.714438 -0.699698 -0.714438 276.352 64.4702)" stroke="white" stroke-width="1.54298" stroke-linecap="round"/>
</g>
</g>
<path d="M249.197 98.5842L270.413 77.7405H659.04V208.975L634.384 235.125H249.197V98.5842Z" stroke="#0FB56F" stroke-width="1.54298"/>
<path d="M365.091 145.26L362.81 137.687H352.179L349.898 145.26H342.871L353.365 113.414H361.943L372.3 145.26H365.091ZM357.563 119.711H357.335L353.821 131.801H361.121L357.563 119.711ZM394.177 145.26C392.96 145.26 391.941 144.88 391.12 144.12C390.329 143.359 389.827 142.34 389.614 141.063H389.341C388.976 142.614 388.17 143.8 386.922 144.622C385.675 145.413 384.139 145.808 382.314 145.808C379.911 145.808 378.071 145.169 376.794 143.892C375.516 142.614 374.877 140.926 374.877 138.827C374.877 136.303 375.79 134.432 377.615 133.215C379.47 131.968 381.98 131.345 385.143 131.345H388.93V129.839C388.93 128.683 388.626 127.771 388.017 127.102C387.409 126.402 386.39 126.052 384.961 126.052C383.622 126.052 382.558 126.341 381.767 126.919C380.976 127.497 380.322 128.151 379.805 128.881L375.79 125.322C376.763 123.893 377.98 122.783 379.44 121.992C380.93 121.17 382.938 120.76 385.462 120.76C388.869 120.76 391.424 121.505 393.127 122.995C394.831 124.486 395.682 126.661 395.682 129.52V140.014H397.918V145.26H394.177ZM384.824 141.109C385.949 141.109 386.907 140.865 387.698 140.379C388.519 139.892 388.93 139.101 388.93 138.006V135.177H385.645C382.999 135.177 381.676 136.075 381.676 137.869V138.554C381.676 139.436 381.949 140.09 382.497 140.515C383.044 140.911 383.82 141.109 384.824 141.109ZM413.598 113.414H435.133V119.574H420.533V125.55H428.654C430.144 125.55 431.483 125.794 432.669 126.28C433.855 126.767 434.859 127.452 435.68 128.334C436.532 129.216 437.186 130.265 437.642 131.482C438.098 132.698 438.326 134.022 438.326 135.451C438.326 136.881 438.098 138.189 437.642 139.375C437.186 140.561 436.532 141.595 435.68 142.477C434.859 143.359 433.855 144.044 432.669 144.53C431.483 145.017 430.144 145.26 428.654 145.26H413.598V113.414ZM427.833 139.238C428.867 139.238 429.673 138.979 430.251 138.462C430.859 137.915 431.163 137.124 431.163 136.09V134.721C431.163 133.687 430.859 132.911 430.251 132.394C429.673 131.847 428.867 131.573 427.833 131.573H420.533V139.238H427.833ZM453.119 145.808C451.355 145.808 449.773 145.519 448.374 144.941C446.975 144.333 445.789 143.405 444.816 142.158C443.873 140.88 443.143 139.284 442.626 137.367C442.139 135.421 441.896 133.109 441.896 130.432C441.896 127.391 442.154 124.76 442.671 122.539C443.188 120.288 443.979 118.403 445.044 116.882C446.108 115.361 447.462 114.19 449.104 113.369C450.747 112.517 452.693 111.969 454.944 111.726L462.701 110.95V117.429L454.899 118.205C453.773 118.327 452.83 118.555 452.07 118.889C451.34 119.193 450.747 119.68 450.291 120.349C449.834 120.988 449.5 121.824 449.287 122.859C449.074 123.893 448.952 125.17 448.922 126.691H449.15C449.667 125.14 450.412 123.969 451.386 123.178C452.359 122.387 453.697 121.992 455.401 121.992C456.648 121.992 457.803 122.25 458.868 122.767C459.963 123.284 460.906 124.03 461.697 125.003C462.518 125.976 463.157 127.163 463.613 128.562C464.069 129.93 464.297 131.497 464.297 133.261C464.297 135.208 464.039 136.957 463.522 138.508C463.035 140.059 462.305 141.382 461.332 142.477C460.389 143.542 459.218 144.363 457.819 144.941C456.45 145.519 454.883 145.808 453.119 145.808ZM453.119 140.47C454.458 140.47 455.492 140.059 456.222 139.238C456.952 138.417 457.317 137.246 457.317 135.725V132.075C457.317 130.554 456.952 129.383 456.222 128.562C455.492 127.74 454.458 127.33 453.119 127.33C451.781 127.33 450.747 127.74 450.017 128.562C449.287 129.383 448.922 130.554 448.922 132.075V135.725C448.922 137.246 449.287 138.417 450.017 139.238C450.747 140.059 451.781 140.47 453.119 140.47ZM480.253 113.414H495.72C498.366 113.414 500.419 114.159 501.879 115.65C503.37 117.14 504.115 119.117 504.115 121.581C504.115 122.798 503.948 123.832 503.613 124.684C503.309 125.535 502.883 126.235 502.335 126.782C501.818 127.33 501.195 127.74 500.465 128.014C499.765 128.258 499.005 128.394 498.184 128.425V128.699C498.944 128.699 499.735 128.835 500.556 129.109C501.408 129.383 502.183 129.824 502.883 130.432C503.583 131.01 504.16 131.771 504.617 132.714C505.103 133.657 505.347 134.812 505.347 136.181C505.347 137.428 505.134 138.614 504.708 139.74C504.313 140.835 503.75 141.793 503.02 142.614C502.29 143.435 501.423 144.089 500.419 144.576C499.415 145.032 498.32 145.26 497.134 145.26H480.253V113.414ZM487.188 139.42H495.172C496.085 139.42 496.8 139.177 497.317 138.69C497.864 138.173 498.138 137.459 498.138 136.546V134.995C498.138 134.082 497.864 133.383 497.317 132.896C496.8 132.379 496.085 132.12 495.172 132.12H487.188V139.42ZM487.188 126.463H494.077C494.99 126.463 495.705 126.204 496.222 125.687C496.739 125.17 496.997 124.455 496.997 123.543V122.174C496.997 121.262 496.739 120.547 496.222 120.03C495.705 119.513 494.99 119.254 494.077 119.254H487.188V126.463ZM510.319 121.307H523.961C526.151 121.307 527.824 121.855 528.98 122.95C530.136 124.045 530.714 125.505 530.714 127.33C530.714 128.881 530.303 130.083 529.482 130.934C528.661 131.786 527.383 132.333 525.649 132.577V132.805C529.634 133.17 531.626 135.01 531.626 138.325C531.626 140.455 530.957 142.143 529.619 143.39C528.281 144.637 526.425 145.26 524.053 145.26H510.319V121.307ZM522.821 140.47C523.429 140.47 523.916 140.303 524.281 139.968C524.646 139.633 524.828 139.162 524.828 138.554V137.139C524.828 136.531 524.646 136.059 524.281 135.725C523.916 135.36 523.429 135.177 522.821 135.177H516.889V140.47H522.821ZM521.999 131.162C522.608 131.162 523.079 130.995 523.414 130.66C523.748 130.326 523.916 129.854 523.916 129.246V128.014C523.916 127.406 523.748 126.934 523.414 126.6C523.079 126.265 522.608 126.098 521.999 126.098H516.889V131.162H521.999ZM547.755 113.414H566.461V119.574H554.69V145.26H547.755V113.414ZM568.554 121.307H584.751V126.554H575.306V145.26H568.554V121.307Z" fill="#0FB56F"/>
<path d="M345.533 196.573V191.972H352.681V174.179H352.339L346.94 181.251L343.29 178.399L349.639 170.034H358.384V191.972H364.011V196.573H345.533ZM394.692 196.573H375.909V191.364L384.084 184.368C384.819 183.735 385.44 183.164 385.947 182.657C386.454 182.125 386.859 181.618 387.163 181.137C387.493 180.63 387.721 180.135 387.848 179.654C388 179.172 388.076 178.653 388.076 178.095V177.563C388.076 177.056 387.974 176.612 387.772 176.232C387.569 175.852 387.303 175.535 386.973 175.281C386.644 175.028 386.264 174.838 385.833 174.711C385.427 174.584 385.009 174.521 384.578 174.521C383.944 174.521 383.387 174.622 382.905 174.825C382.449 175.028 382.043 175.307 381.688 175.662C381.359 175.991 381.08 176.384 380.852 176.84C380.624 177.271 380.446 177.74 380.32 178.247L375.339 176.346C375.643 175.433 376.061 174.572 376.594 173.76C377.126 172.924 377.785 172.202 378.571 171.593C379.382 170.96 380.332 170.465 381.422 170.11C382.512 169.756 383.742 169.578 385.11 169.578C386.555 169.578 387.835 169.781 388.95 170.187C390.066 170.592 391.003 171.15 391.764 171.859C392.55 172.569 393.145 173.418 393.551 174.407C393.956 175.37 394.159 176.422 394.159 177.563C394.159 178.703 393.969 179.742 393.589 180.68C393.209 181.618 392.689 182.505 392.03 183.342C391.396 184.153 390.649 184.926 389.787 185.661C388.925 186.396 388.025 187.144 387.087 187.904L382.145 191.782H394.692V196.573ZM415.487 180.528C416.906 180.528 417.933 180.262 418.566 179.73C419.225 179.172 419.555 178.488 419.555 177.677V177.41C419.555 176.447 419.238 175.674 418.604 175.091C417.996 174.508 417.121 174.217 415.981 174.217C414.916 174.217 413.915 174.496 412.977 175.053C412.039 175.585 411.241 176.359 410.582 177.372L407.008 174.027C407.515 173.368 408.06 172.772 408.643 172.24C409.226 171.682 409.885 171.213 410.62 170.833C411.355 170.427 412.179 170.123 413.091 169.92C414.004 169.692 415.03 169.578 416.171 169.578C417.59 169.578 418.87 169.743 420.011 170.072C421.177 170.402 422.166 170.884 422.977 171.517C423.813 172.126 424.447 172.861 424.878 173.722C425.334 174.584 425.562 175.547 425.562 176.612C425.562 177.449 425.423 178.209 425.144 178.893C424.89 179.578 424.523 180.173 424.041 180.68C423.585 181.187 423.053 181.605 422.444 181.935C421.836 182.239 421.19 182.455 420.505 182.581V182.809C421.291 182.962 422.013 183.215 422.672 183.57C423.357 183.899 423.94 184.33 424.421 184.863C424.928 185.395 425.321 186.029 425.6 186.764C425.879 187.473 426.018 188.284 426.018 189.197C426.018 190.388 425.777 191.466 425.296 192.429C424.814 193.392 424.13 194.216 423.243 194.9C422.356 195.584 421.291 196.117 420.049 196.497C418.807 196.852 417.438 197.029 415.943 197.029C414.599 197.029 413.408 196.89 412.369 196.611C411.33 196.332 410.417 195.965 409.631 195.508C408.871 195.027 408.199 194.482 407.616 193.874C407.059 193.265 406.564 192.619 406.133 191.934L410.354 188.665C410.937 189.755 411.646 190.654 412.483 191.364C413.345 192.049 414.498 192.391 415.943 192.391C417.235 192.391 418.237 192.074 418.946 191.44C419.681 190.781 420.049 189.894 420.049 188.779V188.551C420.049 187.461 419.631 186.65 418.794 186.117C417.983 185.56 416.855 185.281 415.41 185.281H413.015V180.528H415.487ZM450.121 196.573V191.478H438.449V186.612L448.79 170.034H455.558V187.068H458.904V191.478H455.558V196.573H450.121ZM443.011 187.068H450.121V175.928H449.741L443.011 187.068ZM488.938 175.015H476.885L476.315 183.418H476.619C476.873 182.784 477.152 182.214 477.456 181.707C477.785 181.175 478.165 180.731 478.596 180.376C479.027 179.996 479.547 179.704 480.155 179.502C480.764 179.299 481.486 179.197 482.322 179.197C483.463 179.197 484.528 179.388 485.516 179.768C486.505 180.148 487.366 180.706 488.102 181.441C488.837 182.15 489.42 183.038 489.851 184.102C490.281 185.141 490.497 186.32 490.497 187.638C490.497 188.982 490.269 190.236 489.812 191.402C489.382 192.543 488.723 193.531 487.835 194.368C486.974 195.204 485.909 195.863 484.642 196.345C483.374 196.801 481.93 197.029 480.307 197.029C479.015 197.029 477.874 196.89 476.885 196.611C475.897 196.332 475.022 195.965 474.262 195.508C473.502 195.027 472.843 194.482 472.285 193.874C471.727 193.265 471.246 192.619 470.84 191.934L474.984 188.665C475.567 189.704 476.264 190.591 477.076 191.326C477.887 192.036 478.977 192.391 480.345 192.391C481.714 192.391 482.741 191.998 483.425 191.212C484.135 190.426 484.49 189.387 484.49 188.094V187.79C484.49 186.574 484.135 185.61 483.425 184.901C482.715 184.191 481.739 183.836 480.497 183.836C479.458 183.836 478.596 184.051 477.912 184.482C477.253 184.888 476.746 185.293 476.391 185.699L471.715 185.053L472.703 170.034H488.938V175.015Z" fill="#0FB56F"/>
</svg>
