<svg width="206" height="42" viewBox="0 0 206 42" fill="none" xmlns="http://www.w3.org/2000/svg">
<circle cx="126.781" cy="32.3021" r="2.66146" transform="rotate(-180 126.781 32.3021)" stroke="white" stroke-width="0.760417" stroke-linecap="round" stroke-linejoin="round"/>
<path d="M123.738 32.302H50.6529C46.8374 32.302 43.1179 31.1062 40.0173 28.8826L1.31119 1.12492" stroke="white" stroke-width="0.760417" stroke-linecap="round"/>
<path d="M144.352 34.3857H142.189L141.737 37H140.684L141.135 34.3857H139.548V33.3865H141.313L141.71 31.0596H140.122V30.0604H141.888L142.34 27.4461H143.38L142.928 30.0604H145.091L145.543 27.4461H146.597L146.145 30.0604H147.733V31.0596H145.967L145.57 33.3865H147.158V34.3857H145.392L144.94 37H143.9L144.352 34.3857ZM144.516 33.3865L144.927 31.0596H142.764L142.353 33.3865H144.516ZM149.454 37V27.4461H155.421V28.8149H151V31.4703H154.929V32.839H151V37H149.454ZM157.26 37V27.4461H163.228V28.8149H158.806V31.4703H162.735V32.839H158.806V37H157.26ZM165.066 27.4461H169.295C170.089 27.4461 170.71 27.6697 171.157 28.1168C171.613 28.5639 171.841 29.1616 171.841 29.9099C171.841 30.2658 171.791 30.5714 171.691 30.8269C171.59 31.0733 171.463 31.2786 171.307 31.4429C171.152 31.598 170.974 31.7166 170.774 31.7988C170.573 31.8718 170.377 31.9174 170.185 31.9356V32.0178C170.377 32.0269 170.587 32.0725 170.815 32.1546C171.052 32.2368 171.271 32.3691 171.472 32.5516C171.672 32.7249 171.841 32.9531 171.978 33.2359C172.115 33.5097 172.183 33.8473 172.183 34.2488C172.183 34.6321 172.12 34.9925 171.992 35.3301C171.873 35.6678 171.704 35.9598 171.485 36.2061C171.266 36.4525 171.006 36.6487 170.705 36.7947C170.404 36.9316 170.076 37 169.72 37H165.066V27.4461ZM166.613 35.6723H169.268C169.669 35.6723 169.984 35.5674 170.212 35.3575C170.441 35.1476 170.555 34.8465 170.555 34.4541V33.9888C170.555 33.5964 170.441 33.2953 170.212 33.0854C169.984 32.8755 169.669 32.7706 169.268 32.7706H166.613V35.6723ZM166.613 31.4839H169.008C169.391 31.4839 169.688 31.3881 169.898 31.1965C170.107 30.9958 170.212 30.7129 170.212 30.3479V29.9099C170.212 29.5449 170.107 29.2666 169.898 29.0749C169.688 28.8742 169.391 28.7738 169.008 28.7738H166.613V31.4839ZM174.088 37V27.4461H180.056V28.8149H175.635V31.4703H179.563V32.839H175.635V37H174.088ZM181.922 37V35.7134H184.605V28.5685H184.495L182.278 30.9364L181.333 30.0878L183.77 27.4461H186.124V35.7134H188.451V37H181.922ZM193.688 37.1642C192.438 37.1642 191.457 36.7445 190.745 35.905C190.033 35.0564 189.677 33.8291 189.677 32.2231C189.677 31.4201 189.769 30.7129 189.951 30.1015C190.134 29.4901 190.398 28.9746 190.745 28.5548C191.092 28.1351 191.512 27.8202 192.004 27.6104C192.506 27.3914 193.067 27.2819 193.688 27.2819C194.518 27.2819 195.212 27.4644 195.768 27.8294C196.334 28.1944 196.777 28.7327 197.096 29.4445L195.796 30.1563C195.631 29.7 195.376 29.3396 195.029 29.0749C194.692 28.8012 194.244 28.6643 193.688 28.6643C192.949 28.6643 192.369 28.9153 191.95 29.4171C191.53 29.919 191.32 30.6125 191.32 31.4976V32.9485C191.32 33.8336 191.53 34.5271 191.95 35.029C192.369 35.5309 192.949 35.7818 193.688 35.7818C194.263 35.7818 194.728 35.6358 195.084 35.3438C195.449 35.0427 195.718 34.6594 195.892 34.1941L197.137 34.9469C196.818 35.6404 196.371 36.1833 195.796 36.5757C195.221 36.9681 194.518 37.1642 193.688 37.1642Z" fill="white"/>
</svg>
