<svg width="25" height="25" viewBox="0 0 25 25" fill="none" xmlns="http://www.w3.org/2000/svg">
<path fill-rule="evenodd" clip-rule="evenodd" d="M3.15463 11.3849C8.34962 9.12148 11.8138 7.62933 13.5471 6.90839C18.496 4.84997 19.5243 4.4924 20.1946 4.48059C20.342 4.478 20.6716 4.51453 20.8851 4.68778C21.0654 4.83407 21.115 5.03168 21.1387 5.17038C21.1625 5.30907 21.192 5.62503 21.1685 5.87191C20.9003 8.68972 19.7399 15.5278 19.1496 18.6838C18.8998 20.0193 18.4079 20.467 17.9317 20.5108C16.8968 20.6061 16.111 19.8269 15.1087 19.1699C13.5403 18.1418 12.6542 17.5018 11.1318 16.4985C9.37236 15.3391 10.5129 14.7018 11.5156 13.6604C11.778 13.3878 16.3376 9.24051 16.4259 8.86429C16.4369 8.81723 16.4472 8.64184 16.343 8.54923C16.2388 8.45661 16.085 8.48828 15.974 8.51347C15.8167 8.54917 13.3111 10.2053 8.45729 13.4817C7.74609 13.9701 7.10191 14.2081 6.52475 14.1956C5.88847 14.1818 4.66452 13.8358 3.75465 13.5401C2.63865 13.1773 1.75167 12.9855 1.82891 12.3694C1.86914 12.0485 2.31104 11.7203 3.15463 11.3849Z" fill="white"/>
</svg>
