<svg width="25" height="25" viewBox="0 0 25 25" fill="none" xmlns="http://www.w3.org/2000/svg">
<path fill-rule="evenodd" clip-rule="evenodd" d="M4.22 17.3403L2.5 22.5L8.1 21.0266C9.46586 21.7459 11.021 22.1552 12.6724 22.1552C18.1 22.1552 22.5 17.7552 22.5 12.3276C22.5 6.9 18.1 2.5 12.6724 2.5C7.24483 2.5 2.84483 6.9 2.84483 12.3276C2.84483 14.1593 3.34724 15.8724 4.22 17.3403ZM16.8178 13.76C16.8178 13.76 18.4913 14.7407 18.9451 15.5983C19.1382 15.9628 19.0709 16.4107 18.7792 16.7031L18.173 17.3093C16.2499 19.2324 14.0788 18.2855 12.1557 16.3624L10.3982 14.6048L8.64057 12.8472C6.71747 10.9241 5.77057 8.75309 7.69368 6.82999L8.29988 6.22378C8.59161 5.93206 9.03954 5.86447 9.40437 6.05758C10.262 6.51137 11.2426 8.18482 11.2426 8.18482C11.4585 8.56344 11.4826 9.01999 11.0978 9.2362C11.0978 9.2362 10.4457 9.77999 10.352 9.91827C9.92402 10.55 9.94057 11.1352 10.5313 11.7259L11.904 13.0986L13.2768 14.4714C13.8675 15.0621 14.4526 15.0786 15.0844 14.6507C15.2226 14.5569 15.7664 13.9048 15.7664 13.9048C15.9823 13.52 16.4392 13.5441 16.8178 13.76Z" fill="white"/>
</svg>
