<svg width="344" height="287" viewBox="0 0 344 287" fill="none" xmlns="http://www.w3.org/2000/svg">
<rect y="110" width="110" height="110" fill="#FFAE35"/>
<rect x="110" y="110" width="71" height="71" fill="#FFAE35"/>
<rect x="65" width="98" height="110" fill="#FFAE35"/>
<rect x="128" y="69" width="76" height="76" fill="#FFAE35"/>
<rect x="310" y="143" width="34" height="76" fill="#FFAE35"/>
<rect x="273" y="112" width="46" height="43" fill="#FFAE35"/>
<rect x="119" y="21" width="20" height="20" fill="white"/>
<rect x="45" y="110" width="20" height="20" fill="white"/>
<rect x="225" y="145" width="20" height="20" fill="#FFAE35"/>
<path d="M12.896 279L15.648 256.6H17.92L15.168 279H12.896ZM0.864 273.24V270.904H20.608V273.24H0.864ZM4.576 279L7.36 256.6H9.632L6.848 279H4.576ZM1.888 264.696V262.36H21.632V264.696H1.888ZM28.74 267.192H40.292V269.944H28.74V267.192ZM29.06 279H25.86V256.6H41.668V259.384H29.06V279ZM49.0525 267.192H60.6045V269.944H49.0525V267.192ZM49.3725 279H46.1725V256.6H61.9805V259.384H49.3725V279ZM62.0617 279L72.2058 256.6H75.3738L85.5498 279H82.1898L73.1338 258.392H74.4138L65.3578 279H62.0617ZM66.3818 273.4L67.2458 270.84H79.8538L80.7818 273.4H66.3818ZM91.8033 266.264H103.323V268.984H91.8033V266.264ZM92.0913 276.216H105.147V279H88.8913V256.6H104.699V259.384H92.0913V276.216ZM114.978 279.256C113.399 279.256 111.863 279.011 110.37 278.52C108.898 278.029 107.692 277.368 106.754 276.536L108.226 274.008C108.972 274.712 109.943 275.288 111.138 275.736C112.332 276.184 113.612 276.408 114.978 276.408C116.642 276.408 117.932 276.056 118.85 275.352C119.788 274.627 120.258 273.656 120.258 272.44C120.258 271.267 119.81 270.328 118.914 269.624C118.039 268.899 116.642 268.536 114.722 268.536H112.93V266.296L119.586 258.104L120.034 259.384H107.778V256.6H122.562V258.776L115.938 266.936L114.274 265.944H115.33C118.039 265.944 120.066 266.552 121.41 267.768C122.775 268.984 123.458 270.531 123.458 272.408C123.458 273.667 123.148 274.819 122.53 275.864C121.911 276.909 120.972 277.741 119.714 278.36C118.476 278.957 116.898 279.256 114.978 279.256ZM133.362 279.256C131.783 279.256 130.247 279.011 128.754 278.52C127.282 278.029 126.076 277.368 125.138 276.536L126.61 274.008C127.356 274.712 128.327 275.288 129.522 275.736C130.716 276.184 131.986 276.408 133.33 276.408C135.036 276.408 136.348 276.045 137.266 275.32C138.183 274.595 138.642 273.624 138.642 272.408C138.642 271.576 138.439 270.851 138.034 270.232C137.628 269.613 136.924 269.144 135.922 268.824C134.94 268.483 133.586 268.312 131.858 268.312H126.77L127.954 256.6H140.594V259.384H129.138L130.802 257.816L129.874 267.064L128.21 265.528H132.53C134.77 265.528 136.572 265.816 137.938 266.392C139.303 266.968 140.295 267.768 140.914 268.792C141.532 269.795 141.842 270.957 141.842 272.28C141.842 273.56 141.532 274.733 140.914 275.8C140.295 276.845 139.356 277.688 138.098 278.328C136.86 278.947 135.282 279.256 133.362 279.256Z" fill="#001424"/>
</svg>
