<svg width="353" height="232" viewBox="0 0 353 232" fill="none" xmlns="http://www.w3.org/2000/svg">
<rect y="130" width="74" height="35" fill="#E2E5EB"/>
<rect x="278" y="90" width="75" height="75" fill="#E2E5EB"/>
<rect x="220" y="25" width="75" height="75" fill="#E2E5EB"/>
<rect x="156" width="75" height="75" fill="#E2E5EB"/>
<rect x="71" y="89" width="75" height="75" fill="#E2E5EB"/>
<rect x="110" y="55" width="126" height="75" fill="#E2E5EB"/>
<rect x="83" y="35" width="27" height="24" fill="#E2E5EB"/>
<path d="M12.896 224L15.648 201.6H17.92L15.168 224H12.896ZM0.864 218.24V215.904H20.608V218.24H0.864ZM4.576 224L7.36 201.6H9.632L6.848 224H4.576ZM1.888 209.696V207.36H21.632V209.696H1.888ZM28.772 211.264H40.292V213.984H28.772V211.264ZM29.06 221.216H42.116V224H25.86V201.6H41.668V204.384H29.06V221.216ZM44.9028 224V221.824L54.0228 213.024C54.8334 212.256 55.4308 211.584 55.8148 211.008C56.2201 210.411 56.4868 209.867 56.6148 209.376C56.7641 208.864 56.8388 208.373 56.8388 207.904C56.8388 206.752 56.4334 205.845 55.6228 205.184C54.8121 204.523 53.6281 204.192 52.0708 204.192C50.8761 204.192 49.7988 204.395 48.8388 204.8C47.8788 205.184 47.0468 205.792 46.3428 206.624L44.1668 204.736C45.0201 203.648 46.1614 202.816 47.5908 202.24C49.0414 201.643 50.6308 201.344 52.3588 201.344C53.9161 201.344 55.2708 201.6 56.4228 202.112C57.5748 202.603 58.4601 203.317 59.0788 204.256C59.7188 205.195 60.0388 206.304 60.0388 207.584C60.0388 208.309 59.9428 209.024 59.7508 209.728C59.5588 210.432 59.1961 211.179 58.6628 211.968C58.1294 212.757 57.3614 213.643 56.3588 214.624L48.2308 222.464L47.4628 221.216H60.9988V224H44.9028ZM68.3658 211.264H79.8858V213.984H68.3658V211.264ZM68.6538 221.216H81.7098V224H65.4538V201.6H81.2618V204.384H68.6538V221.216ZM92.0805 224.256C90.5018 224.256 88.9658 224.011 87.4725 223.52C86.0005 223.029 84.7952 222.368 83.8565 221.536L85.3285 219.008C86.0752 219.712 87.0458 220.288 88.2405 220.736C89.4352 221.184 90.7045 221.408 92.0485 221.408C93.7552 221.408 95.0672 221.045 95.9845 220.32C96.9018 219.595 97.3605 218.624 97.3605 217.408C97.3605 216.576 97.1578 215.851 96.7525 215.232C96.3472 214.613 95.6432 214.144 94.6405 213.824C93.6592 213.483 92.3045 213.312 90.5765 213.312H85.4885L86.6725 201.6H99.3125V204.384H87.8565L89.5205 202.816L88.5925 212.064L86.9285 210.528H91.2485C93.4885 210.528 95.2912 210.816 96.6565 211.392C98.0218 211.968 99.0138 212.768 99.6325 213.792C100.251 214.795 100.561 215.957 100.561 217.28C100.561 218.56 100.251 219.733 99.6325 220.8C99.0138 221.845 98.0752 222.688 96.8165 223.328C95.5792 223.947 94.0005 224.256 92.0805 224.256ZM107.96 211.264H119.48V213.984H107.96V211.264ZM108.248 221.216H121.304V224H105.048V201.6H120.856V204.384H108.248V221.216ZM126.485 224V201.6H136.533C139.114 201.6 141.098 202.123 142.485 203.168C143.872 204.192 144.565 205.6 144.565 207.392C144.565 208.608 144.288 209.632 143.733 210.464C143.2 211.296 142.474 211.936 141.557 212.384C140.64 212.832 139.648 213.056 138.581 213.056L139.157 212.096C140.437 212.096 141.568 212.32 142.549 212.768C143.53 213.216 144.309 213.877 144.885 214.752C145.461 215.605 145.749 216.672 145.749 217.952C145.749 219.872 145.024 221.365 143.573 222.432C142.144 223.477 140.01 224 137.173 224H126.485ZM129.685 221.408H137.045C138.816 221.408 140.17 221.109 141.109 220.512C142.048 219.915 142.517 218.976 142.517 217.696C142.517 216.395 142.048 215.445 141.109 214.848C140.17 214.251 138.816 213.952 137.045 213.952H129.397V211.36H136.245C137.866 211.36 139.125 211.061 140.021 210.464C140.917 209.867 141.365 208.971 141.365 207.776C141.365 206.581 140.917 205.685 140.021 205.088C139.125 204.491 137.866 204.192 136.245 204.192H129.685V221.408Z" fill="#001424"/>
</svg>
