<svg width="385" height="296" viewBox="0 0 385 296" fill="none" xmlns="http://www.w3.org/2000/svg">
<rect x="166" width="88" height="220" fill="#000599"/>
<rect x="50" y="155" width="116" height="65" fill="#000599"/>
<rect x="89" y="110" width="77" height="45" fill="#000599"/>
<rect x="138" y="85" width="28" height="25" fill="#000599"/>
<rect x="254" y="148" width="34" height="32" fill="#000599"/>
<rect x="288" y="116" width="34" height="32" fill="#000599"/>
<rect x="334" y="171" width="51" height="48" fill="#000599"/>
<rect x="322" y="75" width="49" height="41" fill="#000599"/>
<rect x="345" width="40" height="80" fill="#000599"/>
<path d="M60.896 279L63.648 256.6H65.92L63.168 279H60.896ZM48.864 273.24V270.904H68.608V273.24H48.864ZM52.576 279L55.36 256.6H57.632L54.848 279H52.576ZM49.888 264.696V262.36H69.632V264.696H49.888ZM81.188 279.256C79.4387 279.256 77.8707 278.808 76.484 277.912C75.1187 277.016 74.0307 275.715 73.22 274.008C72.4307 272.301 72.036 270.232 72.036 267.8C72.036 265.368 72.4307 263.299 73.22 261.592C74.0307 259.885 75.1187 258.584 76.484 257.688C77.8707 256.792 79.4387 256.344 81.188 256.344C82.916 256.344 84.4733 256.792 85.86 257.688C87.2467 258.584 88.3347 259.885 89.124 261.592C89.9133 263.299 90.308 265.368 90.308 267.8C90.308 270.232 89.9133 272.301 89.124 274.008C88.3347 275.715 87.2467 277.016 85.86 277.912C84.4733 278.808 82.916 279.256 81.188 279.256ZM81.188 276.408C82.3613 276.408 83.3853 276.088 84.26 275.448C85.156 274.808 85.8493 273.848 86.34 272.568C86.852 271.288 87.108 269.699 87.108 267.8C87.108 265.901 86.852 264.312 86.34 263.032C85.8493 261.752 85.156 260.792 84.26 260.152C83.3853 259.512 82.3613 259.192 81.188 259.192C80.0147 259.192 78.98 259.512 78.084 260.152C77.188 260.792 76.484 261.752 75.972 263.032C75.4813 264.312 75.236 265.901 75.236 267.8C75.236 269.699 75.4813 271.288 75.972 272.568C76.484 273.848 77.188 274.808 78.084 275.448C78.98 276.088 80.0147 276.408 81.188 276.408ZM102.532 279.256C100.782 279.256 99.2144 278.808 97.8278 277.912C96.4624 277.016 95.3744 275.715 94.5638 274.008C93.7744 272.301 93.3798 270.232 93.3798 267.8C93.3798 265.368 93.7744 263.299 94.5638 261.592C95.3744 259.885 96.4624 258.584 97.8278 257.688C99.2144 256.792 100.782 256.344 102.532 256.344C104.26 256.344 105.817 256.792 107.204 257.688C108.59 258.584 109.678 259.885 110.468 261.592C111.257 263.299 111.652 265.368 111.652 267.8C111.652 270.232 111.257 272.301 110.468 274.008C109.678 275.715 108.59 277.016 107.204 277.912C105.817 278.808 104.26 279.256 102.532 279.256ZM102.532 276.408C103.705 276.408 104.729 276.088 105.604 275.448C106.5 274.808 107.193 273.848 107.684 272.568C108.196 271.288 108.452 269.699 108.452 267.8C108.452 265.901 108.196 264.312 107.684 263.032C107.193 261.752 106.5 260.792 105.604 260.152C104.729 259.512 103.705 259.192 102.532 259.192C101.358 259.192 100.324 259.512 99.4278 260.152C98.5318 260.792 97.8278 261.752 97.3158 263.032C96.8251 264.312 96.5798 265.901 96.5798 267.8C96.5798 269.699 96.8251 271.288 97.3158 272.568C97.8278 273.848 98.5318 274.808 99.4278 275.448C100.324 276.088 101.358 276.408 102.532 276.408ZM123.876 279.256C122.126 279.256 120.558 278.808 119.172 277.912C117.806 277.016 116.718 275.715 115.908 274.008C115.118 272.301 114.724 270.232 114.724 267.8C114.724 265.368 115.118 263.299 115.908 261.592C116.718 259.885 117.806 258.584 119.172 257.688C120.558 256.792 122.126 256.344 123.876 256.344C125.604 256.344 127.161 256.792 128.548 257.688C129.934 258.584 131.022 259.885 131.812 261.592C132.601 263.299 132.996 265.368 132.996 267.8C132.996 270.232 132.601 272.301 131.812 274.008C131.022 275.715 129.934 277.016 128.548 277.912C127.161 278.808 125.604 279.256 123.876 279.256ZM123.876 276.408C125.049 276.408 126.073 276.088 126.948 275.448C127.844 274.808 128.537 273.848 129.028 272.568C129.54 271.288 129.796 269.699 129.796 267.8C129.796 265.901 129.54 264.312 129.028 263.032C128.537 261.752 127.844 260.792 126.948 260.152C126.073 259.512 125.049 259.192 123.876 259.192C122.702 259.192 121.668 259.512 120.772 260.152C119.876 260.792 119.172 261.752 118.66 263.032C118.169 264.312 117.924 265.901 117.924 267.8C117.924 269.699 118.169 271.288 118.66 272.568C119.172 273.848 119.876 274.808 120.772 275.448C121.668 276.088 122.702 276.408 123.876 276.408ZM143.299 279.256C141.721 279.256 140.185 279.011 138.691 278.52C137.219 278.029 136.014 277.368 135.075 276.536L136.547 274.008C137.294 274.712 138.265 275.288 139.459 275.736C140.654 276.184 141.923 276.408 143.267 276.408C144.974 276.408 146.286 276.045 147.203 275.32C148.121 274.595 148.579 273.624 148.579 272.408C148.579 271.576 148.377 270.851 147.971 270.232C147.566 269.613 146.862 269.144 145.859 268.824C144.878 268.483 143.523 268.312 141.795 268.312H136.707L137.891 256.6H150.531V259.384H139.075L140.739 257.816L139.811 267.064L138.147 265.528H142.467C144.707 265.528 146.51 265.816 147.875 266.392C149.241 266.968 150.233 267.768 150.851 268.792C151.47 269.795 151.779 270.957 151.779 272.28C151.779 273.56 151.47 274.733 150.851 275.8C150.233 276.845 149.294 277.688 148.035 278.328C146.798 278.947 145.219 279.256 143.299 279.256ZM161.706 256.344C163.733 256.344 165.44 256.781 166.826 257.656C168.234 258.531 169.301 259.8 170.026 261.464C170.752 263.107 171.114 265.123 171.114 267.512C171.114 270.051 170.666 272.195 169.77 273.944C168.874 275.693 167.637 277.016 166.058 277.912C164.48 278.808 162.634 279.256 160.522 279.256C159.477 279.256 158.464 279.149 157.482 278.936C156.522 278.723 155.68 278.392 154.954 277.944L156.17 275.448C156.768 275.832 157.429 276.109 158.154 276.28C158.901 276.429 159.68 276.504 160.49 276.504C162.752 276.504 164.554 275.8 165.898 274.392C167.242 272.963 167.914 270.851 167.914 268.056C167.914 267.608 167.893 267.075 167.85 266.456C167.808 265.837 167.712 265.229 167.562 264.632L168.618 265.72C168.32 266.701 167.818 267.533 167.114 268.216C166.432 268.877 165.6 269.379 164.618 269.72C163.658 270.04 162.602 270.2 161.45 270.2C159.978 270.2 158.666 269.923 157.514 269.368C156.362 268.813 155.456 268.035 154.794 267.032C154.133 266.008 153.802 264.803 153.802 263.416C153.802 261.965 154.144 260.717 154.826 259.672C155.53 258.605 156.48 257.784 157.674 257.208C158.89 256.632 160.234 256.344 161.706 256.344ZM161.834 258.936C160.874 258.936 160.021 259.117 159.274 259.48C158.528 259.843 157.941 260.344 157.514 260.984C157.109 261.624 156.906 262.392 156.906 263.288C156.906 264.611 157.365 265.667 158.282 266.456C159.2 267.224 160.437 267.608 161.994 267.608C163.018 267.608 163.914 267.416 164.682 267.032C165.472 266.648 166.08 266.125 166.506 265.464C166.954 264.803 167.178 264.067 167.178 263.256C167.178 262.467 166.976 261.752 166.57 261.112C166.165 260.472 165.568 259.949 164.778 259.544C163.989 259.139 163.008 258.936 161.834 258.936ZM181.456 256.344C183.483 256.344 185.19 256.781 186.576 257.656C187.984 258.531 189.051 259.8 189.776 261.464C190.502 263.107 190.864 265.123 190.864 267.512C190.864 270.051 190.416 272.195 189.52 273.944C188.624 275.693 187.387 277.016 185.808 277.912C184.23 278.808 182.384 279.256 180.272 279.256C179.227 279.256 178.214 279.149 177.232 278.936C176.272 278.723 175.43 278.392 174.704 277.944L175.92 275.448C176.518 275.832 177.179 276.109 177.904 276.28C178.651 276.429 179.43 276.504 180.24 276.504C182.502 276.504 184.304 275.8 185.648 274.392C186.992 272.963 187.664 270.851 187.664 268.056C187.664 267.608 187.643 267.075 187.6 266.456C187.558 265.837 187.462 265.229 187.312 264.632L188.368 265.72C188.07 266.701 187.568 267.533 186.864 268.216C186.182 268.877 185.35 269.379 184.368 269.72C183.408 270.04 182.352 270.2 181.2 270.2C179.728 270.2 178.416 269.923 177.264 269.368C176.112 268.813 175.206 268.035 174.544 267.032C173.883 266.008 173.552 264.803 173.552 263.416C173.552 261.965 173.894 260.717 174.576 259.672C175.28 258.605 176.23 257.784 177.424 257.208C178.64 256.632 179.984 256.344 181.456 256.344ZM181.584 258.936C180.624 258.936 179.771 259.117 179.024 259.48C178.278 259.843 177.691 260.344 177.264 260.984C176.859 261.624 176.656 262.392 176.656 263.288C176.656 264.611 177.115 265.667 178.032 266.456C178.95 267.224 180.187 267.608 181.744 267.608C182.768 267.608 183.664 267.416 184.432 267.032C185.222 266.648 185.83 266.125 186.256 265.464C186.704 264.803 186.928 264.067 186.928 263.256C186.928 262.467 186.726 261.752 186.32 261.112C185.915 260.472 185.318 259.949 184.528 259.544C183.739 259.139 182.758 258.936 181.584 258.936Z" fill="#001424"/>
<rect x="63" y="201" width="20" height="20" fill="white"/>
<rect x="152" y="114" width="20" height="20" fill="white"/>
<rect x="234" y="94" width="20" height="20" fill="white"/>
<rect x="98" y="55" width="20" height="20" fill="#000599"/>
<rect x="198" y="28" width="20" height="20" fill="white"/>
<rect x="245" y="40" width="20" height="20" fill="white"/>
<rect y="276" width="20" height="20" fill="#000599"/>
</svg>
