<svg width="344" height="326" viewBox="0 0 344 326" fill="none" xmlns="http://www.w3.org/2000/svg">
<rect x="163" y="39" width="61" height="59" fill="#001424"/>
<rect x="77" y="170" width="45" height="44" fill="#001424"/>
<rect x="299" y="215" width="45" height="44" fill="#001424"/>
<rect x="200" y="98" width="83" height="81" fill="#001424"/>
<rect x="119" y="189" width="83" height="70" fill="#001424"/>
<rect x="161" y="134" width="83" height="70" fill="#001424"/>
<rect x="4" y="139" width="73" height="120" fill="#001424"/>
<path d="M12.896 318L15.648 295.6H17.92L15.168 318H12.896ZM0.864 312.24V309.904H20.608V312.24H0.864ZM4.576 318L7.36 295.6H9.632L6.848 318H4.576ZM1.888 303.696V301.36H21.632V303.696H1.888ZM33.188 318.256C31.4387 318.256 29.8707 317.808 28.484 316.912C27.1187 316.016 26.0307 314.715 25.22 313.008C24.4307 311.301 24.036 309.232 24.036 306.8C24.036 304.368 24.4307 302.299 25.22 300.592C26.0307 298.885 27.1187 297.584 28.484 296.688C29.8707 295.792 31.4387 295.344 33.188 295.344C34.916 295.344 36.4733 295.792 37.86 296.688C39.2467 297.584 40.3347 298.885 41.124 300.592C41.9133 302.299 42.308 304.368 42.308 306.8C42.308 309.232 41.9133 311.301 41.124 313.008C40.3347 314.715 39.2467 316.016 37.86 316.912C36.4733 317.808 34.916 318.256 33.188 318.256ZM33.188 315.408C34.3613 315.408 35.3853 315.088 36.26 314.448C37.156 313.808 37.8493 312.848 38.34 311.568C38.852 310.288 39.108 308.699 39.108 306.8C39.108 304.901 38.852 303.312 38.34 302.032C37.8493 300.752 37.156 299.792 36.26 299.152C35.3853 298.512 34.3613 298.192 33.188 298.192C32.0147 298.192 30.98 298.512 30.084 299.152C29.188 299.792 28.484 300.752 27.972 302.032C27.4813 303.312 27.236 304.901 27.236 306.8C27.236 308.699 27.4813 310.288 27.972 311.568C28.484 312.848 29.188 313.808 30.084 314.448C30.98 315.088 32.0147 315.408 33.188 315.408ZM54.5318 318.256C52.7824 318.256 51.2144 317.808 49.8278 316.912C48.4624 316.016 47.3744 314.715 46.5638 313.008C45.7744 311.301 45.3798 309.232 45.3798 306.8C45.3798 304.368 45.7744 302.299 46.5638 300.592C47.3744 298.885 48.4624 297.584 49.8278 296.688C51.2144 295.792 52.7824 295.344 54.5318 295.344C56.2598 295.344 57.8171 295.792 59.2038 296.688C60.5904 297.584 61.6784 298.885 62.4678 300.592C63.2571 302.299 63.6518 304.368 63.6518 306.8C63.6518 309.232 63.2571 311.301 62.4678 313.008C61.6784 314.715 60.5904 316.016 59.2038 316.912C57.8171 317.808 56.2598 318.256 54.5318 318.256ZM54.5318 315.408C55.7051 315.408 56.7291 315.088 57.6038 314.448C58.4998 313.808 59.1931 312.848 59.6838 311.568C60.1958 310.288 60.4518 308.699 60.4518 306.8C60.4518 304.901 60.1958 303.312 59.6838 302.032C59.1931 300.752 58.4998 299.792 57.6038 299.152C56.7291 298.512 55.7051 298.192 54.5318 298.192C53.3584 298.192 52.3238 298.512 51.4278 299.152C50.5318 299.792 49.8278 300.752 49.3158 302.032C48.8251 303.312 48.5798 304.901 48.5798 306.8C48.5798 308.699 48.8251 310.288 49.3158 311.568C49.8278 312.848 50.5318 313.808 51.4278 314.448C52.3238 315.088 53.3584 315.408 54.5318 315.408ZM70.4995 318V296.88L71.8755 298.384H65.4435V295.6H73.6675V318H70.4995ZM78.2473 312.496V310.256L89.7033 295.6H93.1593L81.7993 310.256L80.1673 309.744H98.0553V312.496H78.2473ZM90.6953 318V312.496L90.7913 309.744V304.88H93.7993V318H90.6953ZM99.5903 318V315.824L108.71 307.024C109.521 306.256 110.118 305.584 110.502 305.008C110.908 304.411 111.174 303.867 111.302 303.376C111.452 302.864 111.526 302.373 111.526 301.904C111.526 300.752 111.121 299.845 110.31 299.184C109.5 298.523 108.316 298.192 106.758 298.192C105.564 298.192 104.486 298.395 103.526 298.8C102.566 299.184 101.734 299.792 101.03 300.624L98.8543 298.736C99.7076 297.648 100.849 296.816 102.278 296.24C103.729 295.643 105.318 295.344 107.046 295.344C108.604 295.344 109.958 295.6 111.11 296.112C112.262 296.603 113.148 297.317 113.766 298.256C114.406 299.195 114.726 300.304 114.726 301.584C114.726 302.309 114.63 303.024 114.438 303.728C114.246 304.432 113.884 305.179 113.35 305.968C112.817 306.757 112.049 307.643 111.046 308.624L102.918 316.464L102.15 315.216H115.686V318H99.5903ZM117.404 312.496V310.256L128.86 295.6H132.316L120.956 310.256L119.324 309.744H137.212V312.496H117.404ZM129.852 318V312.496L129.948 309.744V304.88H132.956V318H129.852Z" fill="#001424"/>
<rect x="3" y="149" width="20" height="20" fill="white"/>
<rect x="204" y="38" width="21" height="21" fill="white"/>
<rect x="263" width="20" height="20" fill="#001424"/>
</svg>
