<svg width="371" height="305" viewBox="0 0 371 305" fill="none" xmlns="http://www.w3.org/2000/svg">
<rect x="18" y="18" width="353" height="220" fill="#6735FF"/>
<path d="M26.896 297L29.648 274.6H31.92L29.168 297H26.896ZM14.864 291.24V288.904H34.608V291.24H14.864ZM18.576 297L21.36 274.6H23.632L20.848 297H18.576ZM15.888 282.696V280.36H35.632V282.696H15.888ZM47.444 297.256C45.46 297.256 43.764 296.819 42.356 295.944C40.948 295.069 39.8707 293.811 39.124 292.168C38.3987 290.504 38.036 288.477 38.036 286.088C38.036 283.549 38.484 281.405 39.38 279.656C40.276 277.907 41.524 276.584 43.124 275.688C44.724 274.792 46.5587 274.344 48.628 274.344C49.6947 274.344 50.708 274.451 51.668 274.664C52.6493 274.877 53.492 275.208 54.196 275.656L52.98 278.152C52.404 277.747 51.7427 277.469 50.996 277.32C50.2707 277.171 49.5027 277.096 48.692 277.096C46.4093 277.096 44.596 277.811 43.252 279.24C41.908 280.648 41.236 282.749 41.236 285.544C41.236 285.992 41.2573 286.525 41.3 287.144C41.3427 287.763 41.4493 288.371 41.62 288.968L40.532 287.88C40.852 286.899 41.3533 286.077 42.036 285.416C42.74 284.733 43.572 284.232 44.532 283.912C45.5133 283.571 46.5693 283.4 47.7 283.4C49.1933 283.4 50.516 283.677 51.668 284.232C52.82 284.787 53.7267 285.576 54.388 286.6C55.0493 287.603 55.38 288.797 55.38 290.184C55.38 291.613 55.028 292.861 54.324 293.928C53.62 294.995 52.6707 295.816 51.476 296.392C50.2813 296.968 48.9373 297.256 47.444 297.256ZM47.316 294.664C48.2973 294.664 49.1507 294.483 49.876 294.12C50.6227 293.757 51.2093 293.256 51.636 292.616C52.0627 291.955 52.276 291.187 52.276 290.312C52.276 288.989 51.8173 287.944 50.9 287.176C49.9827 286.387 48.7347 285.992 47.156 285.992C46.132 285.992 45.236 286.184 44.468 286.568C43.7 286.952 43.092 287.475 42.644 288.136C42.2173 288.776 42.004 289.512 42.004 290.344C42.004 291.112 42.2067 291.827 42.612 292.488C43.0173 293.128 43.6147 293.651 44.404 294.056C45.1933 294.461 46.164 294.664 47.316 294.664ZM61.4393 297L70.9433 275.944L71.7753 277.384H58.4633L60.0633 275.816V281.384H56.9913V274.6H73.8873V276.776L64.8313 297H61.4393ZM83.2903 297.256C81.7116 297.256 80.1756 297.011 78.6823 296.52C77.2103 296.029 76.0049 295.368 75.0663 294.536L76.5383 292.008C77.2849 292.712 78.2556 293.288 79.4503 293.736C80.6449 294.184 81.9249 294.408 83.2903 294.408C84.9543 294.408 86.2449 294.056 87.1623 293.352C88.1009 292.627 88.5703 291.656 88.5703 290.44C88.5703 289.267 88.1223 288.328 87.2263 287.624C86.3516 286.899 84.9543 286.536 83.0343 286.536H81.2423V284.296L87.8983 276.104L88.3463 277.384H76.0903V274.6H90.8743V276.776L84.2503 284.936L82.5863 283.944H83.6423C86.3516 283.944 88.3783 284.552 89.7223 285.768C91.0876 286.984 91.7703 288.531 91.7703 290.408C91.7703 291.667 91.4609 292.819 90.8423 293.864C90.2236 294.909 89.2849 295.741 88.0263 296.36C86.7889 296.957 85.2103 297.256 83.2903 297.256ZM101.674 297.256C100.096 297.256 98.5596 297.011 97.0663 296.52C95.5943 296.029 94.3889 295.368 93.4503 294.536L94.9223 292.008C95.6689 292.712 96.6396 293.288 97.8343 293.736C99.0289 294.184 100.298 294.408 101.642 294.408C103.349 294.408 104.661 294.045 105.578 293.32C106.496 292.595 106.954 291.624 106.954 290.408C106.954 289.576 106.752 288.851 106.346 288.232C105.941 287.613 105.237 287.144 104.234 286.824C103.253 286.483 101.898 286.312 100.17 286.312H95.0823L96.2663 274.6H108.906V277.384H97.4503L99.1143 275.816L98.1863 285.064L96.5223 283.528H100.842C103.082 283.528 104.885 283.816 106.25 284.392C107.616 284.968 108.608 285.768 109.226 286.792C109.845 287.795 110.154 288.957 110.154 290.28C110.154 291.56 109.845 292.733 109.226 293.8C108.608 294.845 107.669 295.688 106.41 296.328C105.173 296.947 103.594 297.256 101.674 297.256ZM117.521 285.192H129.073V287.944H117.521V285.192ZM117.841 297H114.641V274.6H130.449V277.384H117.841V297ZM137.834 285.192H149.386V287.944H137.834V285.192ZM138.154 297H134.954V274.6H150.762V277.384H138.154V297Z" fill="#001424"/>
<rect x="18" y="18" width="37" height="37" fill="white"/>
<rect x="140" y="101" width="37" height="37" fill="white"/>
<rect x="259" y="209" width="75" height="29" fill="white"/>
<rect x="69" y="175" width="20" height="63" fill="white"/>
<rect x="351" y="17" width="20" height="63" fill="white"/>
<rect x="327" y="64" width="34" height="55" fill="white"/>
<rect x="269" y="50" width="18" height="18" fill="white"/>
<rect x="278" y="37" width="18" height="18" fill="white"/>
<rect width="18" height="18" fill="#6735FF"/>
</svg>
