<svg width="393" height="299" viewBox="0 0 393 299" fill="none" xmlns="http://www.w3.org/2000/svg">
<g filter="url(#filter0_d_209_30906)">
<rect x="60" y="132" width="60" height="60" fill="#FF4D35"/>
</g>
<g filter="url(#filter1_d_209_30906)">
<rect x="220" y="132" width="60" height="60" fill="#FF4D35"/>
</g>
<g filter="url(#filter2_d_209_30906)">
<rect x="16" y="12" width="50" height="50" fill="#FF4D35"/>
</g>
<g filter="url(#filter3_d_209_30906)">
<rect x="355" y="62" width="22" height="50" fill="#FF4D35"/>
</g>
<g filter="url(#filter4_d_209_30906)">
<rect x="81" y="83" width="77" height="79" fill="#FF4D35"/>
</g>
<g filter="url(#filter5_d_209_30906)">
<rect x="347" y="12" width="30" height="30" fill="#FF4D35"/>
</g>
<g filter="url(#filter6_d_209_30906)">
<rect x="120" y="188" width="257" height="44" fill="#FF4D35"/>
</g>
<g filter="url(#filter7_d_209_30906)">
<rect x="177" y="62" width="60" height="60" fill="#FF4D35"/>
</g>
<path d="M28.896 291L31.648 268.6H33.92L31.168 291H28.896ZM16.864 285.24V282.904H36.608V285.24H16.864ZM20.576 291L23.36 268.6H25.632L22.848 291H20.576ZM17.888 276.696V274.36H37.632V276.696H17.888ZM44.74 279.192H56.292V281.944H44.74V279.192ZM45.06 291H41.86V268.6H57.668V271.384H45.06V291ZM65.0525 279.192H76.6045V281.944H65.0525V279.192ZM65.3725 291H62.1725V268.6H77.9805V271.384H65.3725V291ZM78.841 285.496V283.256L90.297 268.6H93.753L82.393 283.256L80.761 282.744H98.649V285.496H78.841ZM91.289 291V285.496L91.385 282.744V277.88H94.393V291H91.289ZM102.391 291V268.6H111.831C114.221 268.6 116.322 269.069 118.135 270.008C119.97 270.947 121.389 272.259 122.391 273.944C123.415 275.629 123.927 277.581 123.927 279.8C123.927 282.019 123.415 283.971 122.391 285.656C121.389 287.341 119.97 288.653 118.135 289.592C116.322 290.531 114.221 291 111.831 291H102.391ZM105.591 288.216H111.639C113.495 288.216 115.095 287.864 116.439 287.16C117.805 286.456 118.861 285.475 119.607 284.216C120.354 282.936 120.727 281.464 120.727 279.8C120.727 278.115 120.354 276.643 119.607 275.384C118.861 274.125 117.805 273.144 116.439 272.44C115.095 271.736 113.495 271.384 111.639 271.384H105.591V288.216ZM133.478 291.256C131.899 291.256 130.363 291.011 128.87 290.52C127.398 290.029 126.192 289.368 125.254 288.536L126.726 286.008C127.472 286.712 128.443 287.288 129.638 287.736C130.832 288.184 132.112 288.408 133.478 288.408C135.142 288.408 136.432 288.056 137.35 287.352C138.288 286.627 138.758 285.656 138.758 284.44C138.758 283.267 138.31 282.328 137.414 281.624C136.539 280.899 135.142 280.536 133.222 280.536H131.43V278.296L138.086 270.104L138.534 271.384H126.278V268.6H141.062V270.776L134.438 278.936L132.774 277.944H133.83C136.539 277.944 138.566 278.552 139.91 279.768C141.275 280.984 141.958 282.531 141.958 284.408C141.958 285.667 141.648 286.819 141.03 287.864C140.411 288.909 139.472 289.741 138.214 290.36C136.976 290.957 135.398 291.256 133.478 291.256ZM151.862 291.256C150.283 291.256 148.747 291.011 147.254 290.52C145.782 290.029 144.576 289.368 143.638 288.536L145.11 286.008C145.856 286.712 146.827 287.288 148.022 287.736C149.216 288.184 150.486 288.408 151.83 288.408C153.536 288.408 154.848 288.045 155.766 287.32C156.683 286.595 157.142 285.624 157.142 284.408C157.142 283.576 156.939 282.851 156.534 282.232C156.128 281.613 155.424 281.144 154.422 280.824C153.44 280.483 152.086 280.312 150.358 280.312H145.27L146.454 268.6H159.094V271.384H147.638L149.302 269.816L148.374 279.064L146.71 277.528H151.03C153.27 277.528 155.072 277.816 156.438 278.392C157.803 278.968 158.795 279.768 159.414 280.792C160.032 281.795 160.342 282.957 160.342 284.28C160.342 285.56 160.032 286.733 159.414 287.8C158.795 288.845 157.856 289.688 156.598 290.328C155.36 290.947 153.782 291.256 151.862 291.256Z" fill="#001424"/>
<rect x="200" y="71" width="20" height="20" fill="white"/>
<rect x="278" y="112" width="20" height="20" fill="#FF4D35"/>
<rect x="16" y="216" width="20" height="20" fill="#FF4D35"/>
<defs>
<filter id="filter0_d_209_30906" x="44" y="120" width="92" height="92" filterUnits="userSpaceOnUse" color-interpolation-filters="sRGB">
<feFlood flood-opacity="0" result="BackgroundImageFix"/>
<feColorMatrix in="SourceAlpha" type="matrix" values="0 0 0 0 0 0 0 0 0 0 0 0 0 0 0 0 0 0 127 0" result="hardAlpha"/>
<feOffset dy="4"/>
<feGaussianBlur stdDeviation="8"/>
<feColorMatrix type="matrix" values="0 0 0 0 0 0 0 0 0 0.0784314 0 0 0 0 0.141176 0 0 0 0.07 0"/>
<feBlend mode="normal" in2="BackgroundImageFix" result="effect1_dropShadow_209_30906"/>
<feBlend mode="normal" in="SourceGraphic" in2="effect1_dropShadow_209_30906" result="shape"/>
</filter>
<filter id="filter1_d_209_30906" x="204" y="120" width="92" height="92" filterUnits="userSpaceOnUse" color-interpolation-filters="sRGB">
<feFlood flood-opacity="0" result="BackgroundImageFix"/>
<feColorMatrix in="SourceAlpha" type="matrix" values="0 0 0 0 0 0 0 0 0 0 0 0 0 0 0 0 0 0 127 0" result="hardAlpha"/>
<feOffset dy="4"/>
<feGaussianBlur stdDeviation="8"/>
<feColorMatrix type="matrix" values="0 0 0 0 0 0 0 0 0 0.0784314 0 0 0 0 0.141176 0 0 0 0.07 0"/>
<feBlend mode="normal" in2="BackgroundImageFix" result="effect1_dropShadow_209_30906"/>
<feBlend mode="normal" in="SourceGraphic" in2="effect1_dropShadow_209_30906" result="shape"/>
</filter>
<filter id="filter2_d_209_30906" x="0" y="0" width="82" height="82" filterUnits="userSpaceOnUse" color-interpolation-filters="sRGB">
<feFlood flood-opacity="0" result="BackgroundImageFix"/>
<feColorMatrix in="SourceAlpha" type="matrix" values="0 0 0 0 0 0 0 0 0 0 0 0 0 0 0 0 0 0 127 0" result="hardAlpha"/>
<feOffset dy="4"/>
<feGaussianBlur stdDeviation="8"/>
<feColorMatrix type="matrix" values="0 0 0 0 0 0 0 0 0 0.0784314 0 0 0 0 0.141176 0 0 0 0.07 0"/>
<feBlend mode="normal" in2="BackgroundImageFix" result="effect1_dropShadow_209_30906"/>
<feBlend mode="normal" in="SourceGraphic" in2="effect1_dropShadow_209_30906" result="shape"/>
</filter>
<filter id="filter3_d_209_30906" x="339" y="50" width="54" height="82" filterUnits="userSpaceOnUse" color-interpolation-filters="sRGB">
<feFlood flood-opacity="0" result="BackgroundImageFix"/>
<feColorMatrix in="SourceAlpha" type="matrix" values="0 0 0 0 0 0 0 0 0 0 0 0 0 0 0 0 0 0 127 0" result="hardAlpha"/>
<feOffset dy="4"/>
<feGaussianBlur stdDeviation="8"/>
<feColorMatrix type="matrix" values="0 0 0 0 0 0 0 0 0 0.0784314 0 0 0 0 0.141176 0 0 0 0.07 0"/>
<feBlend mode="normal" in2="BackgroundImageFix" result="effect1_dropShadow_209_30906"/>
<feBlend mode="normal" in="SourceGraphic" in2="effect1_dropShadow_209_30906" result="shape"/>
</filter>
<filter id="filter4_d_209_30906" x="65" y="71" width="109" height="111" filterUnits="userSpaceOnUse" color-interpolation-filters="sRGB">
<feFlood flood-opacity="0" result="BackgroundImageFix"/>
<feColorMatrix in="SourceAlpha" type="matrix" values="0 0 0 0 0 0 0 0 0 0 0 0 0 0 0 0 0 0 127 0" result="hardAlpha"/>
<feOffset dy="4"/>
<feGaussianBlur stdDeviation="8"/>
<feColorMatrix type="matrix" values="0 0 0 0 0 0 0 0 0 0.0784314 0 0 0 0 0.141176 0 0 0 0.07 0"/>
<feBlend mode="normal" in2="BackgroundImageFix" result="effect1_dropShadow_209_30906"/>
<feBlend mode="normal" in="SourceGraphic" in2="effect1_dropShadow_209_30906" result="shape"/>
</filter>
<filter id="filter5_d_209_30906" x="331" y="0" width="62" height="62" filterUnits="userSpaceOnUse" color-interpolation-filters="sRGB">
<feFlood flood-opacity="0" result="BackgroundImageFix"/>
<feColorMatrix in="SourceAlpha" type="matrix" values="0 0 0 0 0 0 0 0 0 0 0 0 0 0 0 0 0 0 127 0" result="hardAlpha"/>
<feOffset dy="4"/>
<feGaussianBlur stdDeviation="8"/>
<feColorMatrix type="matrix" values="0 0 0 0 0 0 0 0 0 0.0784314 0 0 0 0 0.141176 0 0 0 0.07 0"/>
<feBlend mode="normal" in2="BackgroundImageFix" result="effect1_dropShadow_209_30906"/>
<feBlend mode="normal" in="SourceGraphic" in2="effect1_dropShadow_209_30906" result="shape"/>
</filter>
<filter id="filter6_d_209_30906" x="104" y="176" width="289" height="76" filterUnits="userSpaceOnUse" color-interpolation-filters="sRGB">
<feFlood flood-opacity="0" result="BackgroundImageFix"/>
<feColorMatrix in="SourceAlpha" type="matrix" values="0 0 0 0 0 0 0 0 0 0 0 0 0 0 0 0 0 0 127 0" result="hardAlpha"/>
<feOffset dy="4"/>
<feGaussianBlur stdDeviation="8"/>
<feColorMatrix type="matrix" values="0 0 0 0 0 0 0 0 0 0.0784314 0 0 0 0 0.141176 0 0 0 0.07 0"/>
<feBlend mode="normal" in2="BackgroundImageFix" result="effect1_dropShadow_209_30906"/>
<feBlend mode="normal" in="SourceGraphic" in2="effect1_dropShadow_209_30906" result="shape"/>
</filter>
<filter id="filter7_d_209_30906" x="161" y="50" width="92" height="92" filterUnits="userSpaceOnUse" color-interpolation-filters="sRGB">
<feFlood flood-opacity="0" result="BackgroundImageFix"/>
<feColorMatrix in="SourceAlpha" type="matrix" values="0 0 0 0 0 0 0 0 0 0 0 0 0 0 0 0 0 0 127 0" result="hardAlpha"/>
<feOffset dy="4"/>
<feGaussianBlur stdDeviation="8"/>
<feColorMatrix type="matrix" values="0 0 0 0 0 0 0 0 0 0.0784314 0 0 0 0 0.141176 0 0 0 0.07 0"/>
<feBlend mode="normal" in2="BackgroundImageFix" result="effect1_dropShadow_209_30906"/>
<feBlend mode="normal" in="SourceGraphic" in2="effect1_dropShadow_209_30906" result="shape"/>
</filter>
</defs>
</svg>
