<svg width="32" height="32" viewBox="0 0 32 32" fill="none" xmlns="http://www.w3.org/2000/svg">
<path d="M5.66667 0.5H26.3333C29.1787 0.5 31.5 2.86242 31.5 5.81197V26.188C31.5 29.1376 29.1787 31.5 26.3333 31.5H5.66667C2.82133 31.5 0.5 29.1376 0.5 26.188V5.81197C0.5 2.86242 2.82133 0.5 5.66667 0.5Z" fill="#330000" stroke="#FF9A00"/>
<path fill-rule="evenodd" clip-rule="evenodd" d="M11.1637 20.0694H16.1608L17.2622 23.1048C17.2891 23.194 17.3831 23.2578 17.4772 23.2451H20.2846C20.419 23.2451 20.4593 23.1813 20.419 23.041L15.516 9.90476C15.5025 9.841 15.4488 9.80273 15.3414 9.80273H11.9025H11.8622C11.7951 9.81549 11.7414 9.87926 11.7548 9.94302C11.7548 10.2236 11.7279 10.5042 11.6742 10.772C11.6361 10.8804 11.6048 10.9825 11.5754 11.0781C11.5634 11.1174 11.5516 11.1557 11.5399 11.1929L7.21448 23.0155C7.17419 23.1685 7.21448 23.2451 7.36225 23.2451H9.88762C10.0085 23.2578 10.116 23.1813 10.1428 23.0665L11.1637 20.0694ZM15.3545 17.4804H11.9425C12.144 16.9447 12.3455 16.3453 12.5336 15.6949C12.6666 15.3001 12.7945 14.9053 12.9205 14.5166C12.998 14.2774 13.0747 14.0405 13.1515 13.8073C13.3395 13.2589 13.4873 12.7105 13.6082 12.1621H13.6351C13.6875 12.3327 13.7399 12.5113 13.7946 12.6978C13.8381 12.8458 13.883 12.9989 13.9306 13.1569C14.038 13.5267 14.1589 13.8966 14.2933 14.292C14.3604 14.4896 14.4242 14.6841 14.488 14.8786C14.5519 15.0731 14.6157 15.2676 14.6828 15.4653C14.8037 15.8479 14.9246 16.2178 15.0455 16.5621C15.1664 16.8937 15.2739 17.2125 15.3545 17.4804Z" fill="#FF9A00"/>
<path fill-rule="evenodd" clip-rule="evenodd" d="M22.1517 11.5373C22.4741 11.8306 22.9039 11.9964 23.3472 11.9836C23.8039 12.0091 24.2607 11.8433 24.5696 11.5373C24.892 11.2184 25.0532 10.7975 25.0398 10.3639C25.0532 9.94305 24.892 9.53493 24.5965 9.22885C24.301 8.93551 23.898 8.78247 23.3741 8.78247C22.9308 8.78247 22.501 8.93551 22.1786 9.22885C21.8562 9.52218 21.6816 9.9303 21.695 10.3639C21.6816 10.7975 21.8428 11.2184 22.1517 11.5373ZM21.843 13.2343V23.0546C21.843 23.1821 21.9101 23.2586 22.0445 23.2586H24.6773C24.7982 23.2586 24.8519 23.1949 24.8519 23.0546V13.2343C24.8519 13.1195 24.7982 13.0557 24.6773 13.0557H22.0176C21.8967 13.0557 21.843 13.1068 21.843 13.2343Z" fill="#FF9A00"/>
</svg>
