<svg width="32" height="32" viewBox="0 0 32 32" fill="none" xmlns="http://www.w3.org/2000/svg">
<path d="M5.66667 0.5H26.3333C29.1787 0.5 31.5 2.86242 31.5 5.81197V26.188C31.5 29.1376 29.1787 31.5 26.3333 31.5H5.66667C2.82133 31.5 0.5 29.1376 0.5 26.188V5.81197C0.5 2.86242 2.82133 0.5 5.66667 0.5Z" fill="#00261A" stroke="#3CF2A6"/>
<path d="M4.61719 23.2002H9.09079C9.19639 23.2002 9.41719 23.2002 9.76279 23.1906C10.0988 23.1906 10.4252 23.1618 10.742 23.1234C11.8556 22.989 12.7964 22.605 13.574 21.9618C14.342 21.3282 14.9372 20.5122 15.3404 19.5234C15.7436 18.5442 15.9452 17.4594 15.9452 16.2882C15.9452 15.117 15.7436 14.0418 15.3404 13.053C14.9372 12.0738 14.342 11.2578 13.574 10.6146C12.7964 9.98102 11.8556 9.58742 10.742 9.45302C10.4252 9.41462 10.0988 9.39542 9.76279 9.38582C9.41719 9.38582 9.19639 9.37622 9.09079 9.37622H4.61719V23.2002ZM7.26679 20.7426V11.8338H9.09079C9.26359 11.8338 9.49399 11.8434 9.79159 11.8434C10.0796 11.853 10.3484 11.8818 10.5884 11.9298C11.1644 12.045 11.654 12.3234 12.038 12.7458C12.422 13.1778 12.7004 13.7058 12.8924 14.3202C13.0844 14.9442 13.1804 15.597 13.1804 16.2882C13.1804 16.9506 13.0844 17.5938 12.902 18.2082C12.7196 18.8322 12.4412 19.3602 12.0572 19.8018C11.6732 20.2434 11.1836 20.5314 10.5884 20.6466C10.3484 20.6946 10.0796 20.7234 9.79159 20.733C9.49399 20.7426 9.26359 20.7426 9.09079 20.7426H7.26679Z" fill="#D4FCEF"/>
<path d="M24.93 23.2002H27.5796V17.3826C27.5796 17.2098 27.5604 16.941 27.5412 16.557C27.5124 16.1826 27.4356 15.7698 27.3204 15.309C27.1956 14.8482 26.994 14.4066 26.706 13.9842C26.418 13.5618 26.0244 13.2162 25.5156 12.9378C24.9972 12.669 24.3348 12.525 23.5284 12.525C22.5108 12.525 21.666 12.7458 20.994 13.1874C20.322 13.629 19.8228 14.2146 19.4964 14.925C19.1604 15.645 18.9972 16.413 18.9972 17.229L20.4948 17.9394C20.4948 17.2962 20.562 16.7778 20.706 16.3842C20.85 16.0002 21.0324 15.7026 21.2628 15.501C21.4836 15.2994 21.7236 15.165 21.9828 15.0882C22.2324 15.021 22.4724 14.9826 22.7028 14.9826C23.2596 14.9826 23.682 15.1074 23.9892 15.357C24.2964 15.6066 24.5172 15.9234 24.6516 16.2882C24.786 16.6626 24.8628 17.037 24.8916 17.4018C24.9108 17.7666 24.93 18.0738 24.93 18.3042V23.2002ZM17.8452 23.2002H20.4948V16.269H20.1684V12.8322H17.8452V23.2002Z" fill="#D4FCEF"/>
</svg>
