<svg width="22" height="32" viewBox="0 0 22 32" fill="none" xmlns="http://www.w3.org/2000/svg">
<path d="M5.33335 32.0002C8.27888 32.0002 10.6667 29.6124 10.6667 26.6668V21.3335H5.33335C2.38782 21.3335 0 23.7213 0 26.6668C0 29.6124 2.38782 32.0002 5.33335 32.0002Z" fill="#0ACF83"/>
<path d="M0 16.0006C0 13.0551 2.38782 10.6672 5.33335 10.6672H10.6667V21.3339H5.33335C2.38782 21.3339 0 18.9461 0 16.0006Z" fill="#A259FF"/>
<path d="M0 5.33335C0 2.38782 2.38782 0 5.33335 0H10.6667V10.6667H5.33335C2.38782 10.6667 0 8.27888 0 5.33335Z" fill="#F24E1E"/>
<path d="M10.6667 0H16.0001C18.9456 0 21.3334 2.38782 21.3334 5.33335C21.3334 8.27888 18.9456 10.6667 16.0001 10.6667H10.6667V0Z" fill="#FF7262"/>
<path d="M21.3334 16.0006C21.3334 18.9461 18.9456 21.3339 16.0001 21.3339C13.0546 21.3339 10.6667 18.9461 10.6667 16.0006C10.6667 13.0551 13.0546 10.6672 16.0001 10.6672C18.9456 10.6672 21.3334 13.0551 21.3334 16.0006Z" fill="#1ABCFE"/>
</svg>
