<svg width="20" height="44" viewBox="0 0 20 44" fill="none" xmlns="http://www.w3.org/2000/svg">
<g clip-path="url(#clip0)">
<path d="M15.3364 42.6589L15.7583 35.629L16.9232 33.6405C16.9232 33.6405 14.2719 34.7251 9.83307 34.7251C5.3942 34.7251 2.78304 33.6605 2.78304 33.6605L4.08858 35.8298L4.55043 42.6589C4.55043 43.3911 6.96491 43.9845 9.94346 43.9845C12.9219 43.9845 15.3364 43.3911 15.3364 42.6589ZM14.0056 9.83034L14.8911 6.33016L19.795 1.17019L18.5025 0.0693359L13.3108 5.56599L12.2826 9.74778C11.5088 9.72185 10.7346 9.70897 9.96033 9.70915C4.49251 9.70915 0.0599365 10.3323 0.0599365 11.1008C0.0599365 11.8694 4.49251 12.4925 9.96033 12.4925C15.4281 12.4925 19.8606 11.8694 19.8606 11.1008C19.8606 10.5349 17.4566 10.0478 14.0056 9.83034Z" fill="#D34A47"/>
<path d="M13.4906 11.7907C13.4906 11.7907 13.2988 11.8336 12.7346 11.8361C12.1703 11.8384 11.7696 11.8324 11.61 11.6871C11.5671 11.648 11.5437 11.5705 11.5439 11.5181C11.5444 11.4182 11.6153 11.3594 11.7056 11.3225L11.791 11.4565C11.7539 11.4693 11.7326 11.4845 11.7326 11.5007C11.7322 11.5765 12.3095 11.6285 12.7511 11.6229C13.1927 11.6174 13.7264 11.581 13.7268 11.5063C13.7268 11.4836 13.6865 11.4624 13.6163 11.4456L13.7013 11.3125C13.8158 11.348 13.9157 11.4167 13.9154 11.5354C13.9143 11.7373 13.6573 11.768 13.4906 11.7907Z" fill="white"/>
<path d="M19.7852 1.18081C19.9085 1.0384 19.7214 0.674117 19.3673 0.367285C19.013 0.0606079 18.6259 -0.0726353 18.5024 0.069781C18.379 0.212197 18.5662 0.576478 18.9205 0.883155C19.2745 1.18991 19.6618 1.32331 19.7852 1.18081ZM15.1005 25.4881C14.9842 24.3699 17.5463 22.7504 16.8888 22.6986C15.4733 22.7795 14.7688 24.3574 14.0567 26.0099C13.7957 26.6156 12.9027 29.1982 12.317 28.8802C11.7315 28.5624 13.0761 26.4387 13.453 25.1775C13.0182 25.4964 11.4233 26.7354 11.0123 25.575C10.3516 26.1362 8.9396 26.4403 9.09889 24.9661C8.74735 25.5888 7.95839 26.4581 7.01138 26.0969C5.76771 25.6226 7.73201 21.661 8.22044 21.8609C8.70895 22.0607 8.12187 22.9631 7.9681 23.3136C7.62994 24.0848 7.23931 25.0544 7.50027 25.2528C7.94735 25.5928 9.16395 23.9665 9.19101 23.9307C9.41855 23.6301 10.0668 21.6634 10.5893 21.8892C11.1118 22.1151 9.28608 24.7118 9.9687 25.2271C10.1064 25.3311 10.6697 25.163 11.0123 24.7922C11.2341 24.5524 11.1578 24.0212 11.8969 22.2587C12.6359 20.4963 13.2946 18.3015 13.8014 18.4687C14.3083 18.6358 13.8905 19.7623 13.7087 20.1823C12.8554 22.1532 11.38 25.4095 12.0758 25.163C12.7716 24.9165 13.134 24.9021 13.8154 24.1047C14.4967 23.3073 14.4653 21.994 14.9195 22.0219C15.3738 22.0499 15.2975 22.471 15.1874 22.7916C15.6344 22.2801 17.3062 21.2028 17.7098 22.2698C18.1879 23.5329 15.3179 25.3575 16.0335 25.2645C16.7312 25.1738 17.8615 24.4579 18.3441 23.807L19.6725 11.8644C19.6725 11.8644 18.3358 12.9706 9.83165 12.9706C1.32745 12.9706 0.129028 11.8874 0.129028 11.8874L1.25997 22.7881C1.86027 21.082 3.28576 17.6311 5.53271 17.7469C6.55482 17.7996 7.91928 19.7677 6.75048 19.8344C6.25576 19.8625 6.20554 18.852 5.6197 18.7036C5.19696 18.5965 4.6084 18.9402 4.22803 19.3125C3.46945 20.0549 1.83795 22.984 2.05352 24.4443C2.32817 26.3061 4.62263 23.7974 5.01085 23.0526C5.28426 22.5279 5.46897 20.9735 6.06693 21.1366C6.66497 21.2997 6.01477 22.9039 5.5813 24.3222C5.09434 25.9148 4.83835 27.5948 4.22803 27.4016C3.61762 27.2085 4.6119 25.1525 4.5759 24.7922C4.00219 25.3215 2.94526 26.6616 1.59308 25.9983L2.29545 32.7676C2.29545 32.7676 4.16218 34.2425 9.78555 34.2425C15.4089 34.2425 17.3448 32.7906 17.3448 32.7906L18.2169 24.9502C17.5034 25.645 15.2451 26.8789 15.1005 25.4881Z" fill="#D34A47"/>
</g>
<defs>
<clipPath id="clip0">
<rect width="19.9056" height="44" fill="white"/>
</clipPath>
</defs>
</svg>
