<svg width="26" height="22" viewBox="0 0 26 22" fill="none" xmlns="http://www.w3.org/2000/svg">
<path d="M22.8673 9.5107L22.8649 9.51758L22.8633 9.52466C22.3532 11.7332 20.425 14.1826 18.3324 16.0886C17.2891 17.0389 16.212 17.8476 15.263 18.4177C14.7884 18.7028 14.3481 18.9269 13.9618 19.0792C13.5732 19.2325 13.2491 19.3093 13.0039 19.3093C12.4423 19.3093 11.6054 18.9766 10.6319 18.381C9.66598 17.79 8.5893 16.9551 7.55494 15.9837C5.4803 14.0354 3.60439 11.5651 3.11269 9.44261L3.11094 9.43509L3.10844 9.42779C2.93458 8.92103 2.851 8.40238 2.851 7.88354C2.851 6.05095 3.89274 4.35359 5.57506 3.46132L5.5756 3.46103C6.35821 3.04183 7.24978 2.8249 8.15207 2.8249C9.73951 2.8249 11.232 3.49824 12.2493 4.67312L12.2498 4.67362L12.8984 5.4159L13.0122 5.54614L13.125 5.41505L13.7639 4.67284C15.3471 2.83558 18.264 2.30462 20.4284 3.4611L20.4288 3.46132C22.111 4.35352 23.1528 6.05069 23.153 7.88311C23.1495 8.40011 23.0656 8.91946 22.8673 9.5107ZM21.3612 1.69469C18.7132 0.279534 15.2376 0.68097 13.0037 2.61096C10.7596 0.68276 7.27879 0.285525 4.63934 1.6947C2.30543 2.93228 0.85 5.30413 0.85 7.88255C0.85 8.61733 0.971479 9.34832 1.18769 9.98096C1.75987 12.4448 3.85999 15.2714 6.22248 17.4757C7.4076 18.5815 8.66543 19.5371 9.84175 20.2172C11.0135 20.8946 12.122 21.3091 13.0039 21.3091C13.8841 21.3091 14.9909 20.8946 16.1607 20.2184C17.3352 19.5396 18.591 18.5865 19.7737 17.4859C22.1314 15.2919 24.2258 12.4856 24.7883 10.0626C25.0276 9.34926 25.15 8.61988 25.15 7.88183C25.1501 5.30421 23.6961 2.93145 21.3612 1.69469Z" fill="#242B2F" stroke="#242B2F" stroke-width="0.3"/>
</svg>
