<svg width="1304" height="905" viewBox="0 0 1304 905" fill="none" xmlns="http://www.w3.org/2000/svg">
<g filter="url(#filter0_f)">
<path fill-rule="evenodd" clip-rule="evenodd" d="M167.382 -1362.67C215.871 -1394.93 273.892 -1409.75 331.916 -1404.69C389.939 -1399.63 444.517 -1374.98 486.684 -1334.8C528.852 -1294.63 556.104 -1241.3 563.964 -1183.59C571.378 -1129.16 561.124 -1073.87 534.855 -1025.82C533.484 -1023.36 532.084 -1020.9 530.661 -1018.44C530.422 -1018.03 530.181 -1017.62 529.939 -1017.22C529.878 -1017.12 529.825 -1017.02 529.778 -1016.91C523.322 -1005.81 516.403 -994.651 509.423 -983.391L509.423 -983.391L509.418 -983.383C506.76 -979.096 504.093 -974.794 501.439 -970.476C489.551 -951.129 477.958 -931.495 468.871 -911.633C450.687 -871.892 442.336 -830.798 461.944 -788.744C489.242 -730.198 533.762 -708.369 584.248 -692.356C595.603 -688.754 607.234 -685.448 619.041 -682.092C659.854 -670.49 702.777 -658.289 743.735 -631.199C843.249 -565.377 882.554 -464.054 885.373 -367.257C888.196 -270.305 854.402 -178.422 808.415 -131.83C793.841 -117.065 775.023 -111.307 753.483 -109.675C736.519 -108.39 718.198 -109.673 699.208 -111.004L699.206 -111.004L699.204 -111.004C693.952 -111.373 688.649 -111.744 683.31 -112.066C634.4 -115.014 583.045 -113.712 547.934 -63.6633C526.884 -33.6571 505.999 -17.7173 485.463 -9.29446C464.88 -0.851718 444.365 0.161987 423.748 -0.171572C419.393 -0.242098 415.028 -0.37538 410.66 -0.508774L410.654 -0.508843C373.87 -1.63173 336.76 -2.76453 301.89 33.4302C263.264 73.5234 232.427 153.863 239.93 243.607C247.449 333.544 293.46 432.985 408.619 511.227C522.648 588.701 579.943 667.906 602.89 732.017C605.433 739.122 607.553 746.04 609.283 752.747C581.462 760.49 559.187 770.688 546.217 783.183C516.863 811.463 515.604 842.092 529.213 861.098C542.794 880.065 570.396 886.168 595.524 866.737C608.297 856.86 617.351 838.875 620.337 815.461C622.48 798.655 621.522 778.914 616.499 757.021C618.767 756.432 621.074 755.858 623.418 755.298C656.812 747.331 697.376 742.471 740.062 741.298C825.54 738.95 918.914 751.399 979.938 782.748C1039.22 813.203 1079.25 852.48 1099.7 893.505C1120.12 934.477 1121.07 977.256 1102.15 1015.18C1082.87 1053.83 1050.68 1105.69 989.68 1133.81C928.755 1161.89 838.374 1166.6 702.018 1109.39C633.416 1080.6 592.347 1083.92 568.764 1107.91C557.118 1119.75 550.147 1136.3 546.102 1155.38C542.053 1174.48 540.881 1196.38 541.037 1219.23C541.18 1240.12 542.436 1261.93 543.662 1283.21C543.777 1285.21 543.892 1287.2 544.005 1289.19C545.332 1312.4 546.492 1334.8 546.023 1354.74C545.553 1374.73 543.447 1391.94 538.402 1404.88C533.402 1417.7 525.653 1426.02 513.893 1428.96L513.794 1428.99L513.696 1429.02C500.107 1433.43 491.181 1438.39 486.582 1444.29C484.218 1447.32 482.992 1450.61 482.907 1454.1C482.823 1457.54 483.855 1460.94 485.606 1464.25C489.063 1470.79 495.645 1477.55 503.783 1484.53C511.977 1491.55 522.057 1499.04 532.783 1506.98L533.921 1507.82C555.186 1523.56 578.912 1541.12 596.813 1560.93C615.035 1581.09 626.786 1603.11 624.177 1627.45C621.072 1656.42 606.837 1676.87 586.316 1694.5C570.542 1708.05 551.268 1719.77 530.575 1732.35C524.13 1736.27 517.548 1740.27 510.891 1744.44C454.997 1779.43 395.54 1825.16 376.986 1927.49C362.543 2007.15 377.147 2063.35 409.334 2102.91C441.428 2142.35 490.608 2164.74 544.339 2177.72C598.099 2190.7 656.802 2194.33 708.341 2195.95C721.137 2196.36 733.39 2196.63 745.029 2196.89L745.051 2196.89C757.002 2197.16 768.307 2197.42 778.892 2197.78C799.687 2198.49 817.039 2199.6 829.629 2201.98L829.723 2202L829.818 2202.01C863.057 2206.12 893.688 2215.91 909.981 2230.34C918.038 2237.48 922.336 2245.5 922.114 2254.39C921.889 2263.37 917.039 2273.94 905.22 2286.05C898.231 2293.21 887.439 2299.87 874.996 2306.68C870.654 2309.06 866.102 2311.46 861.478 2313.9L861.467 2313.91C853.034 2318.36 844.363 2322.93 836.291 2327.72C823.756 2335.16 812.17 2343.38 804.422 2353.07C796.58 2362.88 792.604 2374.29 795.583 2387.76C798.573 2401.27 807.332 2410.02 819.065 2416.38C830.673 2422.67 845.513 2426.79 861.148 2430.96L863.955 2431.71C894.848 2439.92 928.87 2448.97 952.564 2474.61C975.34 2499.25 978.992 2523.25 982.542 2546.57C982.706 2547.65 982.87 2548.73 983.036 2549.8C984.904 2561.94 987.01 2574.04 992.238 2585.63C997.501 2597.29 1005.87 2608.32 1020.07 2618.55C1031.85 2627.03 1049.07 2630.51 1068.76 2630.94C1088.53 2631.37 1111.26 2628.75 1134.46 2624.59C1175.41 2617.24 1218.21 2605.06 1249.4 2596.17L1249.4 2596.17L1249.58 2596.12C1253.67 2594.96 1257.55 2593.85 1261.21 2592.82L1259.58 2587.05C1255.89 2588.09 1251.97 2589.21 1247.85 2590.38L1247.75 2590.41C1216.53 2599.29 1174.03 2611.39 1133.4 2618.68C1110.39 2622.81 1088.1 2625.36 1068.89 2624.94C1049.59 2624.52 1033.86 2621.09 1023.58 2613.68C1010.2 2604.05 1002.53 2593.84 997.707 2583.16C992.852 2572.4 990.836 2561.04 988.966 2548.89L988.808 2547.86C988.688 2547.08 988.568 2546.29 988.448 2545.5C984.903 2522.16 981.013 2496.55 956.971 2470.54C932.068 2443.59 896.509 2434.15 866.013 2426.04L864.877 2425.74L862.694 2425.16C846.915 2420.96 832.795 2417 821.924 2411.11C811.178 2405.28 803.94 2397.75 801.442 2386.46C798.933 2375.12 802.153 2365.52 809.108 2356.82C816.157 2348 826.969 2340.23 839.352 2332.88C847.312 2328.16 855.716 2323.73 864.045 2319.33L864.05 2319.33C868.714 2316.87 873.353 2314.42 877.879 2311.95C890.311 2305.14 901.833 2298.11 909.514 2290.24C921.886 2277.56 927.834 2265.63 928.112 2254.54C928.391 2243.37 922.895 2233.76 913.959 2225.85C896.282 2210.2 864.174 2200.22 830.646 2196.06C817.563 2193.6 799.829 2192.49 779.096 2191.78C768.61 2191.42 757.186 2191.17 745.139 2190.89L745.126 2190.89C733.419 2190.63 721.124 2190.35 708.529 2189.96C657.059 2188.34 598.874 2184.71 545.748 2171.89C492.593 2159.05 444.891 2137.1 413.988 2099.12C383.178 2061.26 368.673 2006.97 382.89 1928.56C400.997 1828.69 458.732 1784.17 514.074 1749.53C520.544 1745.48 527.005 1741.55 533.377 1737.68L533.382 1737.67L533.389 1737.67C554.184 1725.03 574.045 1712.95 590.226 1699.05C611.535 1680.75 626.829 1659 630.143 1628.09C633.018 1601.27 619.965 1577.6 601.265 1556.91C582.958 1536.65 558.821 1518.79 537.706 1503.16L537.704 1503.16L536.352 1502.16C525.586 1494.19 515.688 1486.83 507.688 1479.97C499.632 1473.07 493.804 1466.92 490.909 1461.45C489.484 1458.75 488.853 1456.37 488.905 1454.24C488.956 1452.17 489.663 1450.1 491.314 1447.98C494.738 1443.59 502.142 1439.09 515.449 1434.76C529.578 1431.19 538.528 1421.07 543.992 1407.06C549.426 1393.13 551.547 1375.06 552.021 1354.88C552.497 1334.66 551.32 1312.02 549.996 1288.85C549.882 1286.86 549.768 1284.87 549.653 1282.88C548.426 1261.57 547.179 1239.92 547.037 1219.19C546.882 1196.52 548.054 1175.1 551.971 1156.62C555.892 1138.13 562.509 1122.83 573.043 1112.11C593.818 1090.98 631.469 1086.29 699.697 1114.92C837 1172.54 929.231 1168.28 992.191 1139.26C1055.08 1110.27 1088.05 1056.89 1107.52 1017.86C1127.36 978.085 1126.25 933.316 1105.07 890.828C1083.92 848.393 1042.8 808.298 982.679 777.411C920.351 745.392 825.798 732.941 739.897 735.301C696.894 736.482 655.907 741.379 622.026 749.462C619.677 750.022 617.36 750.599 615.077 751.19C613.303 744.316 611.133 737.244 608.539 729.995C585.06 664.397 526.784 584.257 411.99 506.264C298.326 429.038 253.277 331.234 245.909 243.108C238.526 154.789 268.974 76.245 306.211 37.5931C339.152 3.40117 373.592 4.41412 410.433 5.49761L410.452 5.49806C414.818 5.62643 419.217 5.75589 423.651 5.8277C444.479 6.16468 465.997 5.1752 487.74 -3.74322C509.533 -12.6817 531.27 -29.4614 552.846 -60.2174C585.938 -107.389 634.107 -109.021 682.949 -106.077C688.134 -105.764 693.334 -105.399 698.523 -105.035L698.528 -105.034C717.585 -103.697 736.492 -102.37 753.936 -103.692C776.249 -105.383 796.703 -111.424 812.685 -127.615C860.104 -175.657 894.229 -269.289 891.37 -367.431C888.508 -465.728 848.53 -569.078 747.045 -636.203C705.233 -663.859 661.13 -676.386 620.186 -688.016L620.185 -688.016C608.512 -691.332 597.095 -694.575 586.062 -698.075C536.206 -713.889 493.632 -734.981 467.382 -791.28C448.838 -831.052 456.485 -870.143 474.327 -909.137C483.252 -928.643 494.679 -948.014 506.551 -967.335C509.176 -971.606 511.825 -975.878 514.472 -980.148L514.472 -980.148C521.772 -991.923 529.063 -1003.68 535.828 -1015.39C537.299 -1017.88 538.726 -1020.39 540.109 -1022.92C540.49 -1023.6 540.868 -1024.28 541.244 -1024.96C541.315 -1025.09 541.375 -1025.22 541.426 -1025.36C567.341 -1073.96 577.372 -1129.6 569.909 -1184.4C561.865 -1243.46 533.977 -1298.03 490.823 -1339.15C447.67 -1380.26 391.817 -1405.48 332.437 -1410.67C273.058 -1415.85 213.681 -1400.68 164.058 -1367.66C114.435 -1334.64 77.5156 -1285.73 59.3633 -1228.95C41.211 -1172.18 42.9047 -1110.92 64.1663 -1055.24C85.4278 -999.551 124.993 -952.752 176.365 -922.524C227.737 -892.295 287.861 -880.435 346.864 -888.889C348.504 -889.124 349.643 -890.645 349.408 -892.285C349.173 -893.925 347.653 -895.064 346.012 -894.829C288.357 -886.567 229.606 -898.157 179.408 -927.695C129.209 -957.233 90.5475 -1002.96 69.7716 -1057.38C48.9956 -1111.79 47.3406 -1171.65 65.0783 -1227.13C82.816 -1282.6 118.892 -1330.4 167.382 -1362.67ZM550.38 787.504C562.278 776.042 583.359 766.21 610.701 758.581C615.542 779.78 616.421 798.735 614.385 814.702C611.524 837.137 602.959 853.403 591.854 861.991C569.225 879.489 545.555 873.614 534.091 857.604C522.655 841.633 522.579 814.287 550.38 787.504Z" fill="url(#paint0_radial)"/>
</g>
<path fill-rule="evenodd" clip-rule="evenodd" d="M117.931 -1332.16C164.453 -1379.58 224.86 -1402.93 269.407 -1407.82C410.232 -1423.27 523.319 -1347.69 558.771 -1227.57C587.076 -1131.67 558.105 -1053.13 539.901 -1025.63C531.729 -1010.83 522.489 -995.925 513.21 -980.958C510.559 -976.683 507.906 -972.404 505.273 -968.12C493.397 -948.792 481.928 -929.356 472.963 -909.761C455.035 -870.58 447.212 -830.988 466.023 -790.645C492.535 -733.785 535.595 -712.508 585.608 -696.645C596.722 -693.12 608.192 -689.861 619.899 -686.535C660.812 -674.912 704.619 -662.466 746.217 -634.951C847.209 -568.152 887.019 -465.309 889.871 -367.387C892.721 -269.542 858.678 -176.348 811.617 -128.669C795.988 -112.834 775.942 -106.864 753.823 -105.188C736.498 -103.875 717.736 -105.191 698.694 -106.527C693.489 -106.892 688.262 -107.259 683.039 -107.574C634.18 -110.519 585.215 -108.969 551.618 -61.0786C530.173 -30.5101 508.649 -13.9403 487.171 -5.13071C465.717 3.66882 444.451 4.66432 423.675 4.32805C419.254 4.25647 414.858 4.12598 410.486 3.99615C373.661 2.9029 338.553 1.86057 305.131 36.5528C267.546 75.5649 237.001 154.558 244.415 243.233C251.82 331.812 297.109 430.025 411.147 507.505C525.75 585.369 583.781 665.275 607.127 730.501C609.89 738.223 612.168 745.74 613.996 753.024C616.738 752.301 619.532 751.599 622.374 750.921C656.133 742.867 697.015 737.98 739.939 736.8C825.733 734.443 919.992 746.894 981.994 778.746C1041.91 809.524 1082.75 849.415 1103.73 891.498C1124.72 933.607 1125.79 977.878 1106.18 1017.19C1086.75 1056.13 1053.98 1109.12 991.564 1137.89C929.112 1166.68 837.344 1171.05 700.277 1113.54C631.956 1084.87 593.45 1089.21 571.973 1111.06C561.162 1122.06 554.456 1137.67 550.504 1156.31C546.554 1174.95 545.382 1196.48 545.537 1219.2C545.679 1239.97 546.928 1261.66 548.155 1282.97C548.27 1284.96 548.385 1286.95 548.498 1288.93C549.823 1312.12 550.996 1334.7 550.522 1354.85C550.048 1374.98 547.931 1392.83 542.595 1406.51C537.244 1420.24 528.587 1429.91 515.036 1433.32C501.642 1437.67 493.851 1442.29 490.131 1447.06C488.302 1449.41 487.465 1451.78 487.406 1454.21C487.346 1456.66 488.077 1459.3 489.584 1462.15C492.619 1467.89 498.635 1474.19 506.712 1481.11C514.76 1488.01 524.704 1495.4 535.46 1503.37L536.758 1504.33C557.91 1519.98 581.946 1537.76 600.152 1557.91C618.732 1578.47 631.46 1601.73 628.652 1627.93C625.39 1658.36 610.36 1679.78 589.248 1697.92C573.168 1711.73 553.453 1723.72 532.681 1736.34C526.289 1740.23 519.796 1744.18 513.279 1748.26C457.798 1782.99 399.633 1827.81 381.414 1928.29C367.141 2007.02 381.671 2061.78 412.825 2100.07C444.025 2138.41 492.097 2160.48 545.396 2173.34C598.68 2186.21 656.995 2189.84 708.482 2191.46C721.13 2191.85 733.416 2192.13 745.108 2192.39C757.135 2192.66 768.532 2192.92 779.045 2193.28C799.807 2193.99 817.456 2195.1 830.418 2197.55C863.881 2201.69 895.63 2211.62 912.965 2226.97C921.681 2234.69 926.878 2243.9 926.612 2254.51C926.348 2265.06 920.675 2276.66 908.441 2289.19C900.933 2296.88 889.593 2303.82 877.158 2310.63C872.678 2313.08 868.059 2315.52 863.405 2317.97C855.048 2322.38 846.576 2326.85 838.587 2331.59C826.166 2338.96 815.16 2346.85 807.936 2355.88C800.76 2364.86 797.351 2374.92 799.977 2386.78C802.598 2398.63 810.217 2406.47 821.209 2412.43C832.264 2418.42 846.565 2422.42 862.307 2426.61C863.368 2426.89 864.434 2427.18 865.507 2427.46C896.095 2435.59 931.269 2444.94 955.869 2471.56C979.595 2497.23 983.425 2522.43 986.972 2545.77C987.142 2546.89 987.312 2548.01 987.483 2549.12C989.353 2561.27 991.391 2572.81 996.339 2583.78C1001.27 2594.7 1009.12 2605.12 1022.7 2614.9C1033.36 2622.57 1049.46 2626.01 1068.85 2626.44C1088.2 2626.87 1110.61 2624.29 1133.67 2620.16C1174.38 2612.86 1216.96 2600.73 1248.16 2591.85C1252.32 2590.67 1256.27 2589.54 1259.98 2588.49L1260.8 2591.38C1257.09 2592.43 1253.15 2593.55 1249 2594.73C1217.8 2603.61 1175.07 2615.78 1134.2 2623.11C1111.04 2627.26 1088.42 2629.87 1068.79 2629.44C1049.2 2629.01 1032.35 2625.55 1020.95 2617.33C1006.95 2607.25 998.757 2596.43 993.605 2585.01C988.471 2573.63 986.387 2561.72 984.518 2549.58C984.35 2548.49 984.185 2547.4 984.018 2546.3C980.47 2522.98 976.758 2498.58 953.666 2473.59C929.67 2447.63 895.265 2438.48 864.479 2430.29L861.535 2429.51C845.864 2425.33 831.204 2421.25 819.78 2415.06C808.294 2408.84 799.915 2400.39 797.048 2387.43C794.187 2374.5 797.973 2363.54 805.593 2354.01C813.167 2344.54 824.559 2336.42 837.056 2329.01C845.1 2324.24 853.705 2319.7 862.113 2315.26C866.75 2312.82 871.327 2310.4 875.717 2308C888.157 2301.19 899.132 2294.43 906.294 2287.1C918.251 2274.84 923.375 2263.94 923.613 2254.43C923.85 2244.97 919.252 2236.55 910.976 2229.22C894.333 2214.48 863.322 2204.64 830.002 2200.52L829.955 2200.51L829.908 2200.51C817.192 2198.1 799.735 2196.99 778.943 2196.28C768.382 2195.92 757.046 2195.66 745.069 2195.39C733.408 2195.13 721.14 2194.85 708.388 2194.45C656.867 2192.84 598.293 2189.2 544.691 2176.26C491.104 2163.32 442.293 2141.03 410.498 2101.96C378.655 2062.83 364.075 2007.11 378.462 1927.76C396.905 1826.04 455.931 1780.62 511.687 1745.71C518.298 1741.58 524.85 1737.59 531.278 1733.68C551.998 1721.09 571.418 1709.28 587.293 1695.64C608.011 1677.84 622.511 1657.07 625.669 1627.61C628.344 1602.65 616.267 1580.22 597.926 1559.92C579.924 1540 556.096 1522.37 534.869 1506.66L533.675 1505.78C522.939 1497.83 512.904 1490.37 504.759 1483.39C496.642 1476.43 490.249 1469.82 486.932 1463.55C485.262 1460.39 484.331 1457.25 484.406 1454.14C484.483 1451 485.579 1448.02 487.765 1445.21C492.072 1439.69 500.625 1434.84 514.159 1430.45L514.208 1430.43L514.257 1430.42C526.624 1427.32 534.68 1418.55 539.8 1405.42C544.941 1392.24 547.051 1374.81 547.523 1354.78C547.993 1334.76 546.829 1312.3 545.503 1289.1C545.389 1287.12 545.275 1285.12 545.16 1283.13C543.933 1261.84 542.679 1240.07 542.537 1219.22C542.381 1196.42 543.553 1174.63 547.569 1155.69C551.583 1136.75 558.466 1120.52 569.834 1108.96C592.715 1085.68 632.93 1082.02 701.438 1110.77C838.03 1168.09 928.874 1163.49 990.308 1135.17C1051.78 1106.83 1084.16 1054.6 1103.49 1015.85C1122.64 977.463 1121.65 934.187 1101.04 892.836C1080.42 851.459 1040.12 811.977 980.623 781.414C919.273 749.897 825.604 737.448 740.021 739.799C697.255 740.974 656.586 745.843 623.07 753.839C620.228 754.517 617.44 755.218 614.707 755.939C619.984 778.248 621.013 798.302 618.849 815.271C615.894 838.441 606.963 855.996 594.606 865.551C570.103 884.499 543.484 878.452 530.432 860.225C517.367 841.978 518.292 812.169 547.258 784.264C560.182 771.813 582.709 761.567 611.099 753.803C609.294 746.603 607.041 739.163 604.302 731.512C581.222 667.029 523.682 587.591 409.462 509.986C294.676 431.999 248.906 332.967 241.425 243.483C233.952 154.094 264.691 74.2041 302.97 34.4713C337.358 -1.22236 373.8 -0.12005 410.597 0.993006C414.968 1.12523 419.345 1.25764 423.724 1.32854C444.393 1.66292 465.159 0.655363 486.033 -7.90639C506.882 -16.4581 527.981 -32.6078 549.162 -62.8015C583.768 -112.131 634.327 -113.515 683.219 -110.568C688.52 -110.249 693.798 -109.879 699.035 -109.512C718.043 -108.179 736.511 -106.884 753.596 -108.179C775.33 -109.826 794.556 -115.654 809.482 -130.776C855.828 -177.73 889.705 -270.051 886.872 -367.3C884.042 -464.472 844.569 -566.302 744.562 -632.449C703.391 -659.681 660.174 -671.964 619.326 -683.573C607.552 -686.919 595.975 -690.209 584.701 -693.785C534.373 -709.749 490.34 -731.394 463.304 -789.378C443.961 -830.861 452.136 -871.454 470.235 -911.009C479.282 -930.782 490.833 -950.35 502.718 -969.69C505.365 -973.999 508.029 -978.295 510.685 -982.579C519.968 -997.553 529.165 -1012.39 537.304 -1027.14L537.333 -1027.19L537.367 -1027.24C555.129 -1054.03 583.941 -1131.7 555.893 -1226.73C520.883 -1345.35 409.226 -1420.15 269.734 -1404.84C225.811 -1400.02 166.066 -1376.94 120.073 -1330.06C74.1314 -1283.23 41.8449 -1212.59 52.8348 -1112.44C67.8452 -975.647 193.246 -875.839 344.572 -892.445L344.899 -889.463C192.051 -872.69 65.0573 -973.55 49.8527 -1112.11C38.765 -1213.15 71.3572 -1284.68 117.931 -1332.16ZM611.808 756.719C583.643 764.431 561.72 774.497 549.339 786.424C521.15 813.582 520.892 841.748 532.872 858.478C544.865 875.227 569.518 881.159 592.771 863.178C604.293 854.268 612.981 837.572 615.873 814.892C617.983 798.345 616.994 778.685 611.808 756.719Z" fill="url(#paint1_radial)"/>
<defs>
<filter id="filter0_f" x="22.8842" y="-1435.66" width="1262.32" height="4090.65" filterUnits="userSpaceOnUse" color-interpolation-filters="sRGB">
<feFlood flood-opacity="0" result="BackgroundImageFix"/>
<feBlend mode="normal" in="SourceGraphic" in2="BackgroundImageFix" result="shape"/>
<feGaussianBlur stdDeviation="12" result="effect1_foregroundBlur"/>
</filter>
<radialGradient id="paint0_radial" cx="0" cy="0" r="1" gradientUnits="userSpaceOnUse" gradientTransform="translate(1498.86 648.842) rotate(-176.14) scale(1362.71 3914.09)">
<stop offset="0.383421" stop-color="#FF8C00"/>
<stop offset="0.777463" stop-color="#FF37AD"/>
<stop offset="1" stop-color="#FFE300"/>
</radialGradient>
<radialGradient id="paint1_radial" cx="0" cy="0" r="1" gradientUnits="userSpaceOnUse" gradientTransform="translate(1495.82 647.905) rotate(-176.106) scale(1358.1 3913.21)">
<stop offset="0.383421" stop-color="#FF8C00"/>
<stop offset="0.777463" stop-color="#FF37AD"/>
<stop offset="1" stop-color="#FFE300"/>
</radialGradient>
</defs>
</svg>
