<svg width="32" height="32" viewBox="0 0 32 32" fill="none" xmlns="http://www.w3.org/2000/svg">
<path d="M5.66667 0.5H26.3333C29.1787 0.5 31.5 2.86242 31.5 5.81197V26.188C31.5 29.1376 29.1787 31.5 26.3333 31.5H5.66667C2.82133 31.5 0.5 29.1376 0.5 26.188V5.81197C0.5 2.86242 2.82133 0.5 5.66667 0.5Z" fill="#001E36" stroke="#31A8FF"/>
<path fill-rule="evenodd" clip-rule="evenodd" d="M6.66681 8.96312V22.809C6.66681 22.9301 6.72014 22.9839 6.82681 22.9839H9.36014H9.41348C9.50681 22.9705 9.57348 22.8897 9.56014 22.7955V18.4763H9.5602C9.8135 18.4763 10.0002 18.4763 10.1335 18.4897C10.2668 18.5032 10.4801 18.5032 10.8001 18.5032C11.8935 18.5032 12.8935 18.3821 13.8001 18.0457C14.6668 17.7228 15.4135 17.1576 15.9468 16.4041C16.4801 15.6506 16.7468 14.6952 16.7468 13.538C16.7468 12.9325 16.6401 12.3539 16.4401 11.7888C16.2268 11.2102 15.8935 10.6854 15.4668 10.2549C14.9601 9.757 14.3468 9.38025 13.6801 9.1515C12.9335 8.86893 12.0268 8.73438 10.9335 8.73438C10.5335 8.73438 10.1335 8.73438 9.72014 8.74783C9.52059 8.75433 9.32726 8.75769 9.14014 8.76094C8.93968 8.76442 8.74634 8.76778 8.56014 8.77474C8.38554 8.78127 8.21721 8.78463 8.05363 8.7879C7.87994 8.79136 7.7116 8.79472 7.54681 8.80165C7.24014 8.81511 7.02681 8.81511 6.80014 8.81511C6.70681 8.81511 6.66681 8.86893 6.66681 8.96312ZM9.5735 15.9326V11.4115C9.66683 11.3981 9.8535 11.3846 10.1202 11.3981C10.3735 11.3846 10.6802 11.3846 11.0268 11.3846C11.5735 11.3712 12.1068 11.4519 12.6002 11.6537C12.9868 11.8018 13.3068 12.0709 13.5335 12.4207C13.7468 12.784 13.8535 13.2011 13.8402 13.6183C13.8402 14.2103 13.7068 14.6678 13.4268 15.0042C13.1335 15.3406 12.7602 15.5963 12.3335 15.7174C11.8402 15.8788 11.3202 15.9596 10.8002 15.9596H10.0935C9.94499 15.9596 9.78499 15.948 9.6135 15.9355C9.60023 15.9346 9.5869 15.9336 9.5735 15.9326Z" fill="#31A8FF"/>
<path d="M25.067 15.1118C24.667 14.8965 24.2403 14.7485 23.787 14.6543C23.2936 14.5466 22.8003 14.4794 22.2936 14.4794C22.027 14.4659 21.747 14.5063 21.4936 14.5736C21.3203 14.6139 21.1736 14.7081 21.0803 14.8427C21.0136 14.9503 20.9736 15.0849 20.9736 15.206C20.9736 15.3271 21.027 15.4482 21.107 15.5558C21.227 15.7038 21.387 15.8249 21.5603 15.9191C21.867 16.0806 22.187 16.2286 22.507 16.3632C23.227 16.6054 23.9203 16.9417 24.5603 17.3454C25.0003 17.628 25.3603 18.0047 25.6136 18.4622C25.827 18.8928 25.9336 19.3638 25.9203 19.8482C25.9336 20.4806 25.747 21.113 25.4003 21.6378C25.027 22.176 24.507 22.5931 23.907 22.8353C23.2536 23.1179 22.4536 23.2659 21.4936 23.2659C20.8803 23.2659 20.2803 23.2121 19.6803 23.091C19.2136 23.0103 18.747 22.8622 18.3203 22.6604C18.227 22.6066 18.1603 22.5124 18.1736 22.4047V20.0635C18.1736 20.0231 18.187 19.9693 18.227 19.9424C18.267 19.9154 18.307 19.9289 18.347 19.9558C18.867 20.2653 19.4136 20.4806 20.0003 20.6151C20.507 20.7497 21.0403 20.817 21.5736 20.817C22.0803 20.817 22.4403 20.7497 22.6803 20.6286C22.8936 20.5344 23.0403 20.3057 23.0403 20.0635C23.0403 19.8751 22.9336 19.7002 22.7203 19.5252C22.507 19.3503 22.067 19.1485 21.4136 18.8928C20.7336 18.6506 20.107 18.3277 19.5203 17.924C19.107 17.628 18.7603 17.2378 18.507 16.7803C18.2936 16.3497 18.187 15.8788 18.2003 15.4078C18.2003 14.8292 18.3603 14.2775 18.6536 13.7797C18.987 13.2414 19.4803 12.8109 20.0536 12.5417C20.6803 12.2188 21.467 12.0708 22.4136 12.0708C22.9603 12.0708 23.5203 12.1112 24.067 12.1919C24.467 12.2457 24.8536 12.3534 25.2136 12.5014C25.267 12.5148 25.3203 12.5687 25.347 12.6225C25.3603 12.6763 25.3736 12.7301 25.3736 12.784V14.9772C25.3736 15.031 25.347 15.0849 25.307 15.1118C25.187 15.1387 25.1203 15.1387 25.067 15.1118Z" fill="#31A8FF"/>
</svg>
