<svg width="43" height="26" viewBox="0 0 43 26" fill="none" xmlns="http://www.w3.org/2000/svg">
<path d="M35.3645 8.1145C35.2986 6.66313 35.4965 5.37668 34.8368 4.28815C33.2534 1.58332 29.2951 0 21.3785 0V0.230901H21.2136H21.3785V0C13.4619 0 9.30562 1.58332 7.7223 4.32114C7.09557 5.44265 7.16154 6.69611 7.06258 8.14749C6.99661 9.30199 6.46883 10.5225 6.69973 11.8419C6.96362 13.5572 7.06258 15.2724 7.32647 16.8557C7.52438 18.1422 9.30562 19.2307 9.47055 20.4512C9.93236 23.8157 13.4289 25.3661 21.3455 25.3661V25.6299H21.1476H21.3785V25.3661C29.2951 25.3661 32.6597 23.8157 33.0885 20.4512C33.2534 19.1977 34.9027 18.1422 35.1006 16.8557C35.3645 15.2724 35.4635 13.5572 35.7274 11.8419C35.9583 10.5225 35.4305 9.269 35.3645 8.1145Z" fill="#EFCCA3"/>
<path d="M21.2463 9.30176C22.6647 9.33474 23.6543 10.2254 24.5779 11.05C25.6664 12.0066 27.5136 12.6663 28.2723 13.491C29.031 14.3156 30.0205 15.1402 30.3834 16.4267C30.7462 17.7131 30.8452 19.3624 30.8452 19.7912C30.8452 20.2201 31.0761 20.1211 31.7358 19.7912C33.2861 19.0326 35.0014 16.9874 35.0014 16.9874C34.8035 18.2739 33.1212 19.4284 32.9563 20.6489C32.5604 24.0134 29.2949 25.6297 21.2133 25.6297H21.1804H21.3783" fill="#CCAC8D"/>
<path d="M26.4581 6.72902C26.7549 7.75157 27.8105 11.215 25.7654 10.0605C25.7654 10.0605 26.623 10.5553 27.1508 12.4355C27.7115 14.3157 29.0639 14.5466 29.0639 14.5466C29.0639 14.5466 31.274 14.9754 32.9233 13.557C34.3087 12.3695 34.5396 10.2585 33.9458 8.64217C33.3521 7.05887 32.2965 6.56409 30.7462 6.23424C29.1959 5.87139 26.0952 5.57453 26.4581 6.72902Z" fill="#CCAC8D"/>
<path d="M30.3835 13.3925C31.9866 13.3925 33.2862 12.0928 33.2862 10.4897C33.2862 8.88653 31.9866 7.58691 30.3835 7.58691C28.7804 7.58691 27.4808 8.88653 27.4808 10.4897C27.4808 12.0928 28.7804 13.3925 30.3835 13.3925Z" fill="black"/>
<path d="M29.6253 9.96164C30.0444 9.96164 30.3841 9.62198 30.3841 9.20299C30.3841 8.784 30.0444 8.44434 29.6253 8.44434C29.2063 8.44434 28.8666 8.784 28.8666 9.20299C28.8666 9.62198 29.2063 9.96164 29.6253 9.96164Z" fill="white"/>
<path d="M25.9639 10.3574C25.9639 10.3574 28.5697 12.1386 29.9881 13.8869C31.4065 15.6351 31.3735 15.965 31.3735 15.965L30.351 16.4268C30.351 16.4268 28.8996 13.689 27.1184 12.6664C25.3042 11.6439 25.1063 10.7862 25.1063 10.7862L25.9639 10.3574Z" fill="#EFCCA3"/>
<path d="M21.3452 9.30176C19.9268 9.33474 18.8712 10.2254 17.9146 11.05C16.8261 12.0066 14.9129 12.6663 14.1543 13.491C13.3956 14.3156 12.373 15.1402 12.0102 16.4267C11.6473 17.7131 11.5154 19.3624 11.5154 19.7912C11.5154 20.2201 11.5814 20.253 10.6248 19.7912C9.07445 19.0655 7.35919 16.9874 7.35919 16.9874C7.55711 18.2739 9.23938 19.4284 9.40431 20.6489C9.86611 24.0134 13.1317 25.6297 21.2132 25.6297H21.3781" fill="#CCAC8D"/>
<path d="M28.998 14.8766C27.4147 12.9304 24.8748 11.1162 21.3453 11.1162H21.3123C17.7828 11.1162 15.2429 12.9304 13.6596 14.8766C12.0103 16.8887 12.1423 17.6803 12.1423 19.5935C12.1423 26.5205 14.5832 24.5414 16.1995 25.399C17.8488 26.2236 19.5641 25.9597 21.3123 25.9597H21.3453C23.1265 25.9597 24.8088 26.1906 26.4581 25.366C28.0744 24.5413 30.5154 26.5865 30.5154 19.6595C30.5483 17.7463 30.6473 16.8887 28.998 14.8766Z" fill="#56332B"/>
<path d="M21.1804 12.8311C21.1804 12.8311 20.9495 16.0308 20.4877 16.6576L21.3454 16.4596L21.1804 12.8311Z" fill="#442823"/>
<path d="M21.4118 12.8311C21.4118 12.8311 21.6427 16.0308 22.1045 16.6576L21.2469 16.4596L21.4118 12.8311Z" fill="#442823"/>
<path d="M18.6403 12.0727C18.3105 11.314 19.498 10.0935 21.3782 10.0605C23.2584 10.0605 24.4459 11.281 24.116 12.0727C23.7862 12.8643 22.5987 13.0952 21.3782 13.1282C20.1907 13.0952 18.9702 12.8643 18.6403 12.0727Z" fill="#56332B"/>
<path d="M21.378 12.8313C21.378 12.6993 22.4995 12.6663 23.0932 12.2705C23.0932 12.2705 21.8728 12.6663 21.6089 12.5014C21.345 12.3695 21.2791 11.9736 21.2791 11.9736C21.2791 11.9736 21.1801 12.3695 20.9822 12.5014C20.7513 12.6333 19.366 12.2705 19.366 12.2705C19.366 12.2705 21.2131 12.7323 21.2131 12.8313C21.2131 12.9302 21.1801 13.2601 21.1801 13.491C21.1801 14.3156 21.1801 16.3607 21.3121 16.5257C21.51 16.8225 21.444 14.3156 21.444 13.491C21.411 13.2271 21.411 12.9632 21.378 12.8313Z" fill="black"/>
<path d="M21.4441 17.2519C22.0048 17.2519 22.9944 17.6477 23.885 18.2744C23.0274 17.3179 22.0048 16.6582 21.4441 16.6582C20.8503 16.6582 19.5969 17.3838 18.7063 18.4393C19.6299 17.7137 20.8174 17.2519 21.4441 17.2519Z" fill="#7F4A41"/>
<path d="M21.2129 23.0902C19.9594 23.0902 18.7389 22.6944 17.6174 22.3975C17.3865 22.3315 17.1556 22.4964 16.9247 22.4305C14.8466 21.7707 13.1643 20.6492 12.1418 19.2308V19.5607C12.1418 26.4878 14.5827 24.5416 16.199 25.3663C17.8483 26.1909 19.5636 25.927 21.3118 25.927H21.3448C23.126 25.927 24.8083 26.1579 26.4576 25.3333C28.0739 24.5086 30.5149 26.5208 30.5149 19.5936C30.5149 19.3298 30.5149 19.0659 30.5478 18.835C29.5913 20.3853 27.843 21.6058 25.666 22.3315C25.468 22.3975 25.0062 22.2326 24.8083 22.2655C23.6208 22.6614 22.5653 23.0902 21.2129 23.0902Z" fill="#442823"/>
<path d="M18.08 19.3623C18.08 19.3623 17.2553 21.8363 17.8161 22.9248L17.0574 22.595C17.0574 22.595 17.6182 20.088 18.08 19.3623ZM24.6112 19.3623C24.6112 19.3623 25.4358 21.8363 24.8751 22.9248L25.6337 22.595C25.6337 22.595 25.04 20.088 24.6112 19.3623Z" fill="#442823"/>
<path d="M15.9686 6.72902C15.6718 7.75157 14.6162 11.215 16.6613 10.0605C16.6613 10.0605 15.8037 10.5553 15.2759 12.4355C14.7482 14.3157 13.3628 14.5466 13.3628 14.5466C13.3628 14.5466 11.1528 14.9754 9.50349 13.557C8.1181 12.3695 7.8872 10.2585 8.48094 8.64217C9.07468 7.02589 10.1302 6.56409 11.6805 6.23424C13.2308 5.87139 16.2985 5.57453 15.9686 6.72902Z" fill="#CCAC8D"/>
<path d="M21.3454 16.6574C22.2361 16.6574 25.0068 18.5706 25.0398 20.9125V20.7806C25.0398 18.3397 22.7968 16.3936 21.3454 16.3936C19.8941 16.3936 17.6511 18.3727 17.6511 20.7806V20.9125C17.684 18.5706 20.4548 16.6574 21.3454 16.6574Z" fill="black"/>
<path d="M22.0664 12.0905C22.2076 12.0541 22.2666 11.8101 22.1984 11.5455C22.1301 11.2809 21.9604 11.0959 21.8192 11.1323C21.6781 11.1687 21.6191 11.4127 21.6873 11.6773C21.7556 11.9419 21.9253 12.1269 22.0664 12.0905Z" fill="#331712"/>
<path d="M20.3703 12.0858C20.5095 12.1289 20.688 11.9524 20.769 11.6914C20.85 11.4304 20.8028 11.1839 20.6636 11.1407C20.5243 11.0975 20.3459 11.2741 20.2649 11.535C20.1839 11.796 20.2311 12.0426 20.3703 12.0858Z" fill="#331712"/>
<path d="M12.2084 13.3925C13.8116 13.3925 15.1112 12.0928 15.1112 10.4897C15.1112 8.88653 13.8116 7.58691 12.2084 7.58691C10.6053 7.58691 9.30566 8.88653 9.30566 10.4897C9.30566 12.0928 10.6053 13.3925 12.2084 13.3925Z" fill="black"/>
<path d="M12.9675 9.96164C13.3864 9.96164 13.7261 9.62198 13.7261 9.20299C13.7261 8.784 13.3864 8.44434 12.9675 8.44434C12.5485 8.44434 12.2088 8.784 12.2088 9.20299C12.2088 9.62198 12.5485 9.96164 12.9675 9.96164Z" fill="white"/>
<path d="M22.2033 10.5226C22.2033 10.4896 21.4447 10.8525 21.2467 10.8854C21.0488 10.8525 20.2902 10.4896 20.2902 10.5226H22.2033Z" fill="#7F4A41"/>
<path d="M16.4303 10.3574C16.4303 10.3574 13.8244 12.1386 12.406 13.8869C10.9876 15.6351 11.0206 15.965 11.0206 15.965L12.0432 16.4268C12.0432 16.4268 13.4946 13.689 15.2758 12.6664C17.057 11.6439 17.2879 10.7862 17.2879 10.7862L16.4303 10.3574Z" fill="#EFCCA3"/>
<path d="M10.7241 5.08028C10.7241 5.08028 9.83346 7.52123 7.85431 8.54379C7.85431 8.54379 10.955 8.18095 10.7241 5.08028ZM31.5381 5.08028C31.5381 5.08028 32.4287 7.52123 34.4079 8.54379C34.4079 8.54379 31.3072 8.18095 31.5381 5.08028ZM25.8975 9.63232C25.8975 9.63232 23.9514 7.5872 21.3455 7.52123H21.3785H21.4115C18.7726 7.5872 16.8594 9.63232 16.8594 9.63232C19.1354 8.049 21.0816 8.08199 21.4115 8.08199C21.3785 8.08199 23.6215 8.049 25.8975 9.63232ZM23.6215 5.34417C23.6215 5.34417 22.6319 3.95877 21.3125 3.92578H21.3785C20.3889 3.95877 19.1025 5.34417 19.1025 5.34417C20.224 4.25564 21.3785 4.28862 21.3785 4.28862C21.3785 4.28862 22.467 4.25564 23.6215 5.34417ZM12.2084 15.4708C12.2084 15.4708 10.6581 16.2295 9.53658 15.7677H9.5036C8.51402 15.2069 8.01924 13.5246 8.01924 13.5246C8.01924 13.5246 9.00881 16.4934 12.2084 15.4708ZM30.2846 15.4708C30.2846 15.4708 31.835 16.2295 32.9565 15.7677C34.2759 15.2069 34.4738 13.5246 34.4738 13.5246C34.4738 13.5246 33.4843 16.4934 30.2846 15.4708Z" fill="#CCAC8D"/>
<path d="M13.9898 4.91467C14.8474 4.74974 16.2658 4.71676 17.3873 5.0796C18.8057 5.57439 17.6512 7.38861 17.948 7.48756C18.2449 7.58652 18.6407 6.2341 21.2796 6.36605C23.9515 6.49799 24.2483 7.68548 24.6112 7.48756C24.974 7.28965 24.2483 4.18899 28.2396 4.91467C28.2396 4.91467 24.0504 3.79316 24.2483 6.82785C24.2483 6.82785 21.8404 4.98064 18.4758 6.62993C18.5088 6.62993 19.3664 3.79316 13.9898 4.91467ZM28.6025 4.91467C28.6684 4.91467 28.7014 4.94766 28.7344 4.94766C28.7674 4.94766 28.7014 4.91467 28.6025 4.91467ZM12.8353 0.857422C12.8353 0.857422 9.27279 5.34349 8.74502 7.05875C8.21725 8.80699 7.82142 15.9649 7.35962 16.9875L5.71033 9.92851L8.74502 2.57268L12.8353 0.857422ZM29.592 0.857422C29.592 0.857422 33.1545 5.34349 33.6823 7.05875C34.21 8.80699 34.6059 15.9649 35.0677 16.9875L36.717 9.92851L33.6823 2.57268L29.592 0.857422Z" fill="#CCAC8D"/>
<path d="M29.4276 0.857228C29.4276 0.857228 33.2539 4.05683 34.3754 7.75122C35.4969 11.4456 35.0351 15.9317 35.8927 16.4924C37.1132 17.2841 38.4986 12.5671 38.9604 12.0723C39.6861 11.2807 42.094 9.26856 42.2589 8.90572C42.4239 8.54287 37.3771 3.03428 35.167 1.94575C32.4952 0.6923 29.1967 0.593343 29.4276 0.857228Z" fill="#56332B"/>
<path d="M32.6924 2.83691C32.6924 2.83691 37.2115 8.60939 37.1455 15.8002L38.9597 12.1059C38.9268 12.1059 37.3434 7.38892 32.6924 2.83691Z" fill="#442823"/>
<path d="M12.8353 0.857228C12.8353 0.857228 9.00901 4.05683 7.8875 7.75122C6.76599 11.4456 7.22779 15.9317 6.37016 16.4924C5.1497 17.2841 3.7643 12.5671 3.3025 12.0723C2.57682 11.2807 0.168875 9.26856 0.00394691 8.90572C-0.160981 8.54287 4.88581 3.03428 7.09584 1.94575C9.76768 0.6923 13.0662 0.593343 12.8353 0.857228Z" fill="#56332B"/>
<path d="M9.56968 2.83691C9.56968 2.83691 5.0506 8.60939 5.11657 15.8002L3.33533 12.1059C3.33533 12.1059 4.91865 7.38892 9.56968 2.83691Z" fill="#442823"/>
<path d="M7.12915 15.9319C7.12915 15.9319 7.45901 17.7131 7.98678 18.2739C8.51455 18.8346 8.15171 17.845 8.15171 17.845C8.15171 17.845 7.59095 17.5482 7.68991 15.2721C7.78887 12.9961 7.12915 15.9319 7.12915 15.9319ZM35.266 15.9319C35.266 15.9319 34.9362 17.7131 34.4084 18.2739C33.8806 18.8346 34.2435 17.845 34.2435 17.845C34.2435 17.845 34.8042 17.5482 34.7053 15.2721C34.6063 12.9961 35.266 15.9319 35.266 15.9319Z" fill="#CCAC8D"/>
<path d="M17.9149 14.8434C18.0606 14.8434 18.1787 14.7252 18.1787 14.5794C18.1787 14.4336 18.0606 14.3154 17.9149 14.3154C17.7691 14.3154 17.651 14.4336 17.651 14.5794C17.651 14.7252 17.7691 14.8434 17.9149 14.8434Z" fill="#442823"/>
<path d="M16.3981 16.4271C16.5438 16.4271 16.662 16.309 16.662 16.1633C16.662 16.0176 16.5438 15.8994 16.3981 15.8994C16.2523 15.8994 16.1342 16.0176 16.1342 16.1633C16.1342 16.309 16.2523 16.4271 16.3981 16.4271Z" fill="#442823"/>
<path d="M15.9035 14.8434C16.0493 14.8434 16.1674 14.7252 16.1674 14.5794C16.1674 14.4336 16.0493 14.3154 15.9035 14.3154C15.7577 14.3154 15.6396 14.4336 15.6396 14.5794C15.6396 14.7252 15.7577 14.8434 15.9035 14.8434Z" fill="#442823"/>
<path d="M24.3475 14.8434C24.4932 14.8434 24.6114 14.7252 24.6114 14.5794C24.6114 14.4336 24.4932 14.3154 24.3475 14.3154C24.2017 14.3154 24.0835 14.4336 24.0835 14.5794C24.0835 14.7252 24.2017 14.8434 24.3475 14.8434Z" fill="#442823"/>
<path d="M25.8642 16.4271C26.0099 16.4271 26.1281 16.309 26.1281 16.1633C26.1281 16.0176 26.0099 15.8994 25.8642 15.8994C25.7185 15.8994 25.6003 16.0176 25.6003 16.1633C25.6003 16.309 25.7185 16.4271 25.8642 16.4271Z" fill="#442823"/>
<path d="M26.3593 14.8434C26.5051 14.8434 26.6232 14.7252 26.6232 14.5794C26.6232 14.4336 26.5051 14.3154 26.3593 14.3154C26.2136 14.3154 26.0955 14.4336 26.0955 14.5794C26.0955 14.7252 26.2136 14.8434 26.3593 14.8434Z" fill="#442823"/>
</svg>
