<svg width="36" height="40" viewBox="0 0 36 40" fill="none" xmlns="http://www.w3.org/2000/svg">
<g clip-path="url(#clip0)">
<path d="M35.104 20.0035C35.104 17.678 32.1918 15.4742 27.7269 14.1075C28.7572 9.55675 28.2993 5.93616 26.2815 4.77699C25.8164 4.50509 25.2726 4.3763 24.6787 4.3763V5.97193C25.0078 5.97193 25.2726 6.03633 25.4944 6.15797C26.4675 6.71609 26.8897 8.84122 26.5605 11.5745C26.4818 12.2471 26.353 12.9555 26.1956 13.6782C24.7932 13.3348 23.2619 13.07 21.652 12.8983C20.686 11.5745 19.6843 10.3725 18.6754 9.32062C21.008 7.15256 23.1975 5.96478 24.6859 5.96478V4.36914C22.7181 4.36914 20.1422 5.77158 17.5377 8.20439C14.9332 5.78589 12.3572 4.39776 10.3895 4.39776V5.9934C11.8707 5.9934 14.0674 7.17403 16.4 9.32778C15.3982 10.3796 14.3965 11.5745 13.4448 12.8983C11.8277 13.07 10.2965 13.3348 8.89406 13.6854C8.72949 12.9698 8.60785 12.2758 8.52199 11.6103C8.18569 8.87699 8.60069 6.75186 9.56666 6.18659C9.78132 6.0578 10.0604 6.00055 10.3895 6.00055V4.40492C9.78848 4.40492 9.24467 4.53371 8.77242 4.80562C6.76178 5.96478 6.31099 9.57821 7.34851 14.1147C2.8979 15.4885 0 17.6852 0 20.0035C0 22.329 2.91221 24.5328 7.37713 25.8995C6.34677 30.4503 6.80471 34.0709 8.82251 35.23C9.28761 35.5019 9.83141 35.6307 10.4325 35.6307C12.4002 35.6307 14.9761 34.2283 17.5806 31.7955C20.1852 34.214 22.7611 35.6021 24.7288 35.6021C25.3298 35.6021 25.8736 35.4733 26.3459 35.2014C28.3565 34.0422 28.8073 30.4288 27.7698 25.8923C32.2061 24.5257 35.104 22.3218 35.104 20.0035ZM25.7878 15.2309C25.523 16.154 25.1939 17.1056 24.8218 18.0573C24.5284 17.4848 24.2208 16.9124 23.8845 16.34C23.5553 15.7676 23.2047 15.2094 22.8541 14.6656C23.8701 14.8159 24.8504 15.0019 25.7878 15.2309ZM22.5106 22.8513C21.9525 23.8173 21.3801 24.7332 20.7862 25.5847C19.7201 25.6777 18.6396 25.7278 17.552 25.7278C16.4715 25.7278 15.3911 25.6777 14.3321 25.5918C13.7382 24.7403 13.1586 23.8316 12.6005 22.8728C12.0567 21.9354 11.563 20.9838 11.1122 20.025C11.5558 19.0662 12.0567 18.1074 12.5934 17.17C13.1515 16.204 13.7239 15.2882 14.3178 14.4367C15.3839 14.3437 16.4644 14.2936 17.552 14.2936C18.6325 14.2936 19.7129 14.3437 20.7719 14.4295C21.3658 15.281 21.9454 16.1897 22.5035 17.1485C23.0473 18.0859 23.541 19.0375 23.9918 19.9964C23.541 20.9552 23.0473 21.914 22.5106 22.8513ZM24.8218 21.9211C25.2082 22.88 25.5373 23.8388 25.8092 24.769C24.8719 24.9979 23.8845 25.1911 22.8612 25.3414C23.2119 24.7904 23.5625 24.2252 23.8916 23.6456C24.2208 23.0731 24.5284 22.4936 24.8218 21.9211ZM17.5663 29.5559C16.9009 28.869 16.2354 28.1033 15.5771 27.2662C16.2211 27.2948 16.8794 27.3162 17.5448 27.3162C18.2174 27.3162 18.8829 27.3019 19.534 27.2662C18.89 28.1033 18.2246 28.869 17.5663 29.5559ZM12.2428 25.3414C11.2267 25.1911 10.2464 25.0051 9.30907 24.7761C9.57382 23.8531 9.90296 22.9014 10.275 21.9498C10.5684 22.5222 10.8761 23.0946 11.2124 23.667C11.5487 24.2395 11.8921 24.7976 12.2428 25.3414ZM17.5305 10.4512C18.196 11.1381 18.8614 11.9037 19.5197 12.7409C18.8757 12.7122 18.2174 12.6908 17.552 12.6908C16.8794 12.6908 16.214 12.7051 15.5628 12.7409C16.2068 11.9037 16.8722 11.1381 17.5305 10.4512ZM12.2356 14.6656C11.885 15.2166 11.5344 15.7819 11.2052 16.3615C10.8761 16.9339 10.5684 17.5063 10.275 18.0787C9.88865 17.1199 9.55951 16.1611 9.28761 15.2309C10.225 15.0091 11.2124 14.8159 12.2356 14.6656ZM5.76003 23.6241C3.22705 22.5437 1.58848 21.1269 1.58848 20.0035C1.58848 18.8801 3.22705 17.4562 5.76003 16.3829C6.37539 16.1182 7.04799 15.882 7.74206 15.6602C8.14991 17.0627 8.68656 18.5224 9.352 20.0178C8.69371 21.5061 8.16422 22.9587 7.76352 24.3539C7.05515 24.1321 6.38255 23.8889 5.76003 23.6241ZM9.6096 33.8491C8.63647 33.2909 8.21431 31.1658 8.54345 28.4325C8.62216 27.7599 8.75096 27.0515 8.90837 26.3288C10.3108 26.6723 11.8421 26.937 13.452 27.1087C14.418 28.4325 15.4197 29.6346 16.4286 30.6864C14.096 32.8545 11.9065 34.0423 10.4181 34.0423C10.0962 34.0351 9.82425 33.9707 9.6096 33.8491ZM26.582 28.3967C26.9183 31.13 26.5033 33.2552 25.5373 33.8204C25.3227 33.9492 25.0436 34.0065 24.7145 34.0065C23.2333 34.0065 21.0366 32.8258 18.704 30.6721C19.7058 29.6203 20.7075 28.4253 21.6592 27.1016C23.2763 26.9299 24.8075 26.6651 26.2099 26.3145C26.3745 27.0372 26.5033 27.7313 26.582 28.3967ZM29.3368 23.6241C28.7215 23.8889 28.0489 24.125 27.3548 24.3468C26.9469 22.9444 26.4103 21.4847 25.7448 19.9892C26.4031 18.5009 26.9326 17.0484 27.3333 15.6531C28.0417 15.8749 28.7143 16.1182 29.344 16.3829C31.8769 17.4634 33.5155 18.8801 33.5155 20.0035C33.5084 21.1269 31.8698 22.5508 29.3368 23.6241Z" fill="#61DAFB"/>
<path d="M17.5447 23.2734C19.3507 23.2734 20.8148 21.8093 20.8148 20.0034C20.8148 18.1974 19.3507 16.7334 17.5447 16.7334C15.7388 16.7334 14.2747 18.1974 14.2747 20.0034C14.2747 21.8093 15.7388 23.2734 17.5447 23.2734Z" fill="#61DAFB"/>
</g>
<defs>
<clipPath id="clip0">
<rect width="35.104" height="40" fill="white"/>
</clipPath>
</defs>
</svg>
