<svg width="24" height="24" viewBox="0 0 24 24" fill="none" xmlns="http://www.w3.org/2000/svg">
<g clip-path="url(#clip0)">
<path d="M13.1584 13.3935C12.4129 13.3834 11.7024 13.4485 11.002 13.6036C8.18524 14.214 6.01389 15.8 4.29782 18.0614C3.10707 19.6274 2.29656 21.3885 1.76623 23.2796C1.62114 23.795 1.2359 24.0601 0.795626 23.9551C0.455414 23.875 0.235276 23.6299 0.185245 23.2796C-0.0649114 21.5285 -0.0649113 19.7825 0.215264 18.0364C0.70557 14.9544 1.88131 12.1627 3.81752 9.71115C5.30344 7.82997 7.11458 6.35905 9.36098 5.47349C10.4967 5.02321 11.6824 4.77806 12.9082 4.74804C12.9832 4.74804 13.0533 4.73803 13.1584 4.73303C13.1584 4.63297 13.1584 4.54291 13.1584 4.45786C13.1584 3.28712 13.1634 2.11139 13.1533 0.940653C13.1533 0.555412 13.2734 0.25022 13.6337 0.0901201C13.9889 -0.0699801 14.2941 0.045092 14.5692 0.295249C17.6011 2.99194 20.638 5.70364 23.6699 8.41533C24.1102 8.80558 24.1102 9.3159 23.6699 9.70614C20.628 12.4228 17.5861 15.1345 14.5492 17.8512C14.2791 18.0964 13.9739 18.1814 13.6286 18.0264C13.2884 17.8713 13.1584 17.5861 13.1584 17.2208C13.1584 15.9551 13.1584 14.6943 13.1584 13.3935ZM1.76623 19.027C1.80626 18.9669 1.84128 18.9019 1.8813 18.8419C2.55172 17.6561 3.34722 16.5604 4.31282 15.5948C6.94447 12.9732 10.0764 11.6023 13.8388 11.8325C14.4642 11.8725 14.7544 12.1727 14.7544 12.7981C14.7544 13.6236 14.7544 14.4441 14.7544 15.2696C14.7544 15.3397 14.7644 15.4097 14.7744 15.5148C17.1959 13.3484 19.5924 11.2071 21.9989 9.05573C19.5924 6.90939 17.1909 4.76805 14.7443 2.58168C14.7443 2.74678 14.7443 2.83184 14.7443 2.92189C14.7443 3.76242 14.7493 4.60295 14.7443 5.44347C14.7393 6.01383 14.3941 6.33903 13.8288 6.31902C11.2271 6.24397 8.95072 7.10451 6.94447 8.72553C5.30845 10.0564 4.10269 11.7124 3.20713 13.6086C2.40163 15.3197 1.92633 17.1308 1.76623 19.027Z" fill="#242B2F"/>
</g>
<defs>
<clipPath id="clip0">
<rect width="24" height="23.97" fill="white"/>
</clipPath>
</defs>
</svg>
