<svg width="40" height="40" viewBox="0 0 40 40" fill="none" xmlns="http://www.w3.org/2000/svg">
<g clip-path="url(#clip0)">
<path d="M19.9998 0L37.6765 10V30L19.9998 40L2.32312 30V10L19.9998 0Z" fill="white"/>
<path d="M34.5201 29.31L20.5834 37.1933V31.0533L29.2668 26.2766L34.5201 29.31ZM35.4734 28.4466V11.96L30.3734 14.9033V25.5L35.4734 28.4466ZM5.42343 29.31L19.3601 37.1933V31.0533L10.6768 26.2766L5.42343 29.31ZM4.47009 28.4466V11.96L9.57009 14.9033V25.5L4.47009 28.4466ZM5.06676 10.8933L19.3601 2.80664V8.74331L10.2034 13.78L10.1334 13.82L5.06676 10.8933ZM34.8768 10.8933L20.5834 2.80664V8.74331L29.7401 13.78L29.8101 13.82L34.8768 10.8933Z" fill="#8ED6FB"/>
<path d="M19.3598 29.6561L10.7932 24.9461V15.6127L19.3598 20.5594V29.6561ZM20.5832 29.6561L29.1498 24.9461V15.6127L20.5832 20.5594V29.6561ZM11.3732 14.5327L19.9732 9.80273L28.5731 14.5327L19.9732 19.4994L11.3732 14.5327Z" fill="#1C78C0"/>
</g>
<defs>
<clipPath id="clip0">
<rect width="40" height="40" fill="white"/>
</clipPath>
</defs>
</svg>
