<svg width="80" height="50" viewBox="0 0 80 50" fill="none" xmlns="http://www.w3.org/2000/svg">
<line x1="20.6443" y1="3.99438" x2="20.6443" y2="0.500021" stroke="#33C8BF" stroke-linecap="round"/>
<line x1="18.8181" y1="2.30896" x2="22.3411" y2="2.30896" stroke="#33C8BF" stroke-linecap="round"/>
<line x1="29.8032" y1="3.99438" x2="29.8032" y2="0.500021" stroke="#33C8BF" stroke-linecap="round"/>
<line x1="27.9771" y1="2.30896" x2="31.5" y2="2.30896" stroke="#33C8BF" stroke-linecap="round"/>
<line x1="20.6445" y1="21.9707" x2="20.6445" y2="18.4763" stroke="#33C8BF" stroke-linecap="round"/>
<line x1="18.8184" y1="20.2856" x2="22.3413" y2="20.2856" stroke="#33C8BF" stroke-linecap="round"/>
<line x1="11.4849" y1="21.9707" x2="11.4849" y2="18.4763" stroke="#33C8BF" stroke-linecap="round"/>
<line x1="9.65869" y1="20.2856" x2="13.1817" y2="20.2856" stroke="#33C8BF" stroke-linecap="round"/>
<line x1="2.32617" y1="21.9707" x2="2.32617" y2="18.4763" stroke="#33C8BF" stroke-linecap="round"/>
<line x1="0.5" y1="20.2856" x2="4.02296" y2="20.2856" stroke="#33C8BF" stroke-linecap="round"/>
<line x1="20.6445" y1="12.9828" x2="20.6445" y2="9.48842" stroke="#33C8BF" stroke-linecap="round"/>
<line x1="18.8184" y1="11.2972" x2="22.3413" y2="11.2972" stroke="#33C8BF" stroke-linecap="round"/>
<line x1="20.644" y1="30.9602" x2="20.644" y2="27.4658" stroke="#33C8BF" stroke-linecap="round"/>
<line x1="18.8184" y1="29.2748" x2="22.3413" y2="29.2748" stroke="#33C8BF" stroke-linecap="round"/>
<line x1="20.644" y1="40.399" x2="20.644" y2="36.9047" stroke="#33C8BF" stroke-linecap="round"/>
<line x1="18.8184" y1="38.7136" x2="22.3413" y2="38.7136" stroke="#33C8BF" stroke-linecap="round"/>
<line x1="20.644" y1="49.5" x2="20.644" y2="46.0056" stroke="#33C8BF" stroke-linecap="round"/>
<line x1="18.8184" y1="47.8146" x2="22.3413" y2="47.8146" stroke="#33C8BF" stroke-linecap="round"/>
<line x1="2.32764" y1="3.99438" x2="2.32764" y2="0.500021" stroke="#33C8BF" stroke-linecap="round"/>
<line x1="0.5" y1="2.30896" x2="4.02296" y2="2.30896" stroke="#33C8BF" stroke-linecap="round"/>
<line x1="29.8047" y1="21.9707" x2="29.8047" y2="18.4763" stroke="#33C8BF" stroke-linecap="round"/>
<line x1="27.9771" y1="20.2856" x2="31.5" y2="20.2856" stroke="#33C8BF" stroke-linecap="round"/>
<line x1="29.8037" y1="12.9828" x2="29.8037" y2="9.48842" stroke="#33C8BF" stroke-linecap="round"/>
<line x1="27.9771" y1="11.2971" x2="31.5" y2="11.2971" stroke="#33C8BF" stroke-linecap="round"/>
<line x1="29.8037" y1="30.9602" x2="29.8037" y2="27.4658" stroke="#33C8BF" stroke-linecap="round"/>
<line x1="27.9771" y1="29.2748" x2="31.5" y2="29.2748" stroke="#33C8BF" stroke-linecap="round"/>
<line x1="29.8037" y1="40.399" x2="29.8037" y2="36.9047" stroke="#33C8BF" stroke-linecap="round"/>
<line x1="27.9771" y1="38.7136" x2="31.5" y2="38.7136" stroke="#33C8BF" stroke-linecap="round"/>
<line x1="11.4866" y1="3.99438" x2="11.4866" y2="0.500021" stroke="#33C8BF" stroke-linecap="round"/>
<line x1="9.65894" y1="2.30896" x2="13.1819" y2="2.30896" stroke="#33C8BF" stroke-linecap="round"/>
<line x1="11.4863" y1="12.9828" x2="11.4863" y2="9.48842" stroke="#33C8BF" stroke-linecap="round"/>
<line x1="9.65869" y1="11.2972" x2="13.1817" y2="11.2972" stroke="#33C8BF" stroke-linecap="round"/>
<line x1="2.32764" y1="12.9828" x2="2.32764" y2="9.48842" stroke="#33C8BF" stroke-linecap="round"/>
<line x1="0.5" y1="11.2971" x2="4.02296" y2="11.2971" stroke="#33C8BF" stroke-linecap="round"/>
<line x1="11.4863" y1="30.9602" x2="11.4863" y2="27.4658" stroke="#33C8BF" stroke-linecap="round"/>
<line x1="9.65869" y1="29.2748" x2="13.1817" y2="29.2748" stroke="#33C8BF" stroke-linecap="round"/>
<line x1="2.32764" y1="30.9602" x2="2.32764" y2="27.4658" stroke="#33C8BF" stroke-linecap="round"/>
<line x1="0.5" y1="29.2748" x2="4.02296" y2="29.2748" stroke="#33C8BF" stroke-linecap="round"/>
<line x1="68.6443" y1="3.99438" x2="68.6443" y2="0.500021" stroke="#33C8BF" stroke-linecap="round"/>
<line x1="66.8181" y1="2.30896" x2="70.3411" y2="2.30896" stroke="#33C8BF" stroke-linecap="round"/>
<line x1="77.8032" y1="3.99438" x2="77.8032" y2="0.500021" stroke="#33C8BF" stroke-linecap="round"/>
<line x1="75.9771" y1="2.30896" x2="79.5" y2="2.30896" stroke="#33C8BF" stroke-linecap="round"/>
<line x1="68.6445" y1="21.9707" x2="68.6445" y2="18.4763" stroke="#33C8BF" stroke-linecap="round"/>
<line x1="66.8184" y1="20.2856" x2="70.3413" y2="20.2856" stroke="#33C8BF" stroke-linecap="round"/>
<line x1="59.4849" y1="21.9707" x2="59.4849" y2="18.4763" stroke="#33C8BF" stroke-linecap="round"/>
<line x1="57.6587" y1="20.2856" x2="61.1817" y2="20.2856" stroke="#33C8BF" stroke-linecap="round"/>
<line x1="50.3262" y1="21.9707" x2="50.3262" y2="18.4763" stroke="#33C8BF" stroke-linecap="round"/>
<line x1="48.5" y1="20.2856" x2="52.023" y2="20.2856" stroke="#33C8BF" stroke-linecap="round"/>
<line x1="68.6445" y1="12.9828" x2="68.6445" y2="9.48842" stroke="#33C8BF" stroke-linecap="round"/>
<line x1="66.8184" y1="11.2972" x2="70.3413" y2="11.2972" stroke="#33C8BF" stroke-linecap="round"/>
<line x1="68.644" y1="30.9602" x2="68.644" y2="27.4658" stroke="#33C8BF" stroke-linecap="round"/>
<line x1="66.8184" y1="29.2748" x2="70.3413" y2="29.2748" stroke="#33C8BF" stroke-linecap="round"/>
<line x1="68.644" y1="40.399" x2="68.644" y2="36.9047" stroke="#33C8BF" stroke-linecap="round"/>
<line x1="66.8184" y1="38.7136" x2="70.3413" y2="38.7136" stroke="#33C8BF" stroke-linecap="round"/>
<line x1="68.644" y1="49.5" x2="68.644" y2="46.0056" stroke="#33C8BF" stroke-linecap="round"/>
<line x1="66.8184" y1="47.8146" x2="70.3413" y2="47.8146" stroke="#33C8BF" stroke-linecap="round"/>
<line x1="50.3276" y1="3.99438" x2="50.3276" y2="0.500021" stroke="#33C8BF" stroke-linecap="round"/>
<line x1="48.5" y1="2.30896" x2="52.023" y2="2.30896" stroke="#33C8BF" stroke-linecap="round"/>
<line x1="77.8047" y1="21.9707" x2="77.8047" y2="18.4763" stroke="#33C8BF" stroke-linecap="round"/>
<line x1="75.9771" y1="20.2856" x2="79.5" y2="20.2856" stroke="#33C8BF" stroke-linecap="round"/>
<line x1="77.8037" y1="12.9828" x2="77.8037" y2="9.48842" stroke="#33C8BF" stroke-linecap="round"/>
<line x1="75.9771" y1="11.2971" x2="79.5" y2="11.2971" stroke="#33C8BF" stroke-linecap="round"/>
<line x1="77.8037" y1="30.9602" x2="77.8037" y2="27.4658" stroke="#33C8BF" stroke-linecap="round"/>
<line x1="75.9771" y1="29.2748" x2="79.5" y2="29.2748" stroke="#33C8BF" stroke-linecap="round"/>
<line x1="77.8037" y1="40.399" x2="77.8037" y2="36.9047" stroke="#33C8BF" stroke-linecap="round"/>
<line x1="75.9771" y1="38.7136" x2="79.5" y2="38.7136" stroke="#33C8BF" stroke-linecap="round"/>
<line x1="59.4866" y1="3.99438" x2="59.4866" y2="0.500021" stroke="#33C8BF" stroke-linecap="round"/>
<line x1="57.6589" y1="2.30896" x2="61.1819" y2="2.30896" stroke="#33C8BF" stroke-linecap="round"/>
<line x1="59.4863" y1="12.9828" x2="59.4863" y2="9.48842" stroke="#33C8BF" stroke-linecap="round"/>
<line x1="57.6587" y1="11.2972" x2="61.1817" y2="11.2972" stroke="#33C8BF" stroke-linecap="round"/>
<line x1="50.3276" y1="12.9828" x2="50.3276" y2="9.48842" stroke="#33C8BF" stroke-linecap="round"/>
<line x1="48.5" y1="11.2971" x2="52.023" y2="11.2971" stroke="#33C8BF" stroke-linecap="round"/>
<line x1="59.4863" y1="30.9602" x2="59.4863" y2="27.4658" stroke="#33C8BF" stroke-linecap="round"/>
<line x1="57.6587" y1="29.2748" x2="61.1817" y2="29.2748" stroke="#33C8BF" stroke-linecap="round"/>
<line x1="50.3276" y1="30.9602" x2="50.3276" y2="27.4658" stroke="#33C8BF" stroke-linecap="round"/>
<line x1="48.5" y1="29.2748" x2="52.023" y2="29.2748" stroke="#33C8BF" stroke-linecap="round"/>
</svg>
