<svg width="255" height="2211" viewBox="0 0 255 2211" fill="none" xmlns="http://www.w3.org/2000/svg">
<line x1="186" y1="24" x2="186" y2="2188" stroke="#536666" stroke-width="2" stroke-linecap="square"/>
<line x1="1" y1="-1" x2="50" y2="-1" transform="matrix(1 -8.74228e-08 -8.74228e-08 -1 203 5)" stroke="#536666" stroke-width="2" stroke-linecap="square"/>
<path d="M250 2L254 6L250 10" stroke="#536666" stroke-width="2" stroke-linecap="round" stroke-linejoin="round"/>
<path d="M202 6V6C193.163 6 186 13.1634 186 22V22" stroke="#536666" stroke-width="2" stroke-linecap="square" stroke-linejoin="round"/>
<line x1="1" y1="-1" x2="50" y2="-1" transform="matrix(1 -8.74228e-08 -8.74228e-08 -1 203 139)" stroke="#536666" stroke-width="2" stroke-linecap="square"/>
<path d="M250 136L254 140L250 144" stroke="#536666" stroke-width="2" stroke-linecap="round" stroke-linejoin="round"/>
<path d="M202 140V140C193.163 140 186 147.163 186 156V156" stroke="#536666" stroke-width="2" stroke-linecap="square" stroke-linejoin="round"/>
<line x1="1" y1="-1" x2="50" y2="-1" transform="matrix(1 -8.74228e-08 -8.74228e-08 -1 203 70)" stroke="#536666" stroke-width="2" stroke-linecap="square"/>
<path d="M250 67L254 71L250 75" stroke="#536666" stroke-width="2" stroke-linecap="round" stroke-linejoin="round"/>
<path d="M202 71V71C193.163 71 186 78.1634 186 87V87" stroke="#536666" stroke-width="2" stroke-linecap="square" stroke-linejoin="round"/>
<line x1="1" y1="-1" x2="50" y2="-1" transform="matrix(1 -8.74228e-08 -8.74228e-08 -1 203 424)" stroke="#536666" stroke-width="2" stroke-linecap="square"/>
<path d="M250 421L254 425L250 429" stroke="#536666" stroke-width="2" stroke-linecap="round" stroke-linejoin="round"/>
<path d="M202 425V425C193.163 425 186 417.837 186 409V409" stroke="#536666" stroke-width="2" stroke-linecap="square" stroke-linejoin="round"/>
<line x1="1" y1="-1" x2="50" y2="-1" transform="matrix(1 -8.74228e-08 -8.74228e-08 -1 203 496)" stroke="#536666" stroke-width="2" stroke-linecap="square"/>
<path d="M250 493L254 497L250 501" stroke="#536666" stroke-width="2" stroke-linecap="round" stroke-linejoin="round"/>
<path d="M202 497V497C193.163 497 186 489.837 186 481V481" stroke="#536666" stroke-width="2" stroke-linecap="square" stroke-linejoin="round"/>
<line x1="1" y1="-1" x2="50" y2="-1" transform="matrix(1 -8.74228e-08 -8.74228e-08 -1 203 568)" stroke="#536666" stroke-width="2" stroke-linecap="square"/>
<path d="M250 565L254 569L250 573" stroke="#536666" stroke-width="2" stroke-linecap="round" stroke-linejoin="round"/>
<path d="M202 569V569C193.163 569 186 561.837 186 553V553" stroke="#536666" stroke-width="2" stroke-linecap="square" stroke-linejoin="round"/>
<line x1="1" y1="-1" x2="50" y2="-1" transform="matrix(1 -8.74228e-08 -8.74228e-08 -1 203 640)" stroke="#536666" stroke-width="2" stroke-linecap="square"/>
<path d="M250 637L254 641L250 645" stroke="#536666" stroke-width="2" stroke-linecap="round" stroke-linejoin="round"/>
<path d="M202 641V641C193.163 641 186 633.837 186 625V625" stroke="#536666" stroke-width="2" stroke-linecap="square" stroke-linejoin="round"/>
<line x1="1" y1="-1" x2="50" y2="-1" transform="matrix(1 -8.74228e-08 -8.74228e-08 -1 203 781)" stroke="#536666" stroke-width="2" stroke-linecap="square"/>
<path d="M250 778L254 782L250 786" stroke="#536666" stroke-width="2" stroke-linecap="round" stroke-linejoin="round"/>
<path d="M202 782V782C193.163 782 186 774.837 186 766V766" stroke="#536666" stroke-width="2" stroke-linecap="square" stroke-linejoin="round"/>
<line x1="1" y1="-1" x2="50" y2="-1" transform="matrix(1 -8.74228e-08 -8.74228e-08 -1 203 853)" stroke="#536666" stroke-width="2" stroke-linecap="square"/>
<path d="M250 850L254 854L250 858" stroke="#536666" stroke-width="2" stroke-linecap="round" stroke-linejoin="round"/>
<path d="M202 854V854C193.163 854 186 846.837 186 838V838" stroke="#536666" stroke-width="2" stroke-linecap="square" stroke-linejoin="round"/>
<line x1="1" y1="-1" x2="50" y2="-1" transform="matrix(1 -8.74228e-08 -8.74228e-08 -1 203 1494)" stroke="#536666" stroke-width="2" stroke-linecap="square"/>
<path d="M250 1491L254 1495L250 1499" stroke="#536666" stroke-width="2" stroke-linecap="round" stroke-linejoin="round"/>
<path d="M202 1495V1495C193.163 1495 186 1487.84 186 1479V1479" stroke="#536666" stroke-width="2" stroke-linecap="square" stroke-linejoin="round"/>
<line x1="1" y1="-1" x2="50" y2="-1" transform="matrix(1 -8.74228e-08 -8.74228e-08 -1 203 1422)" stroke="#536666" stroke-width="2" stroke-linecap="square"/>
<path d="M250 1419L254 1423L250 1427" stroke="#536666" stroke-width="2" stroke-linecap="round" stroke-linejoin="round"/>
<path d="M202 1423V1423C193.163 1423 186 1415.84 186 1407V1407" stroke="#536666" stroke-width="2" stroke-linecap="square" stroke-linejoin="round"/>
<line x1="1" y1="-1" x2="50" y2="-1" transform="matrix(1 -8.74228e-08 -8.74228e-08 -1 203 1350)" stroke="#536666" stroke-width="2" stroke-linecap="square"/>
<path d="M250 1347L254 1351L250 1355" stroke="#536666" stroke-width="2" stroke-linecap="round" stroke-linejoin="round"/>
<path d="M202 1351V1351C193.163 1351 186 1343.84 186 1335V1335" stroke="#536666" stroke-width="2" stroke-linecap="square" stroke-linejoin="round"/>
<line x1="1" y1="-1" x2="50" y2="-1" transform="matrix(1 -8.74228e-08 -8.74228e-08 -1 203 1278)" stroke="#536666" stroke-width="2" stroke-linecap="square"/>
<path d="M250 1275L254 1279L250 1283" stroke="#536666" stroke-width="2" stroke-linecap="round" stroke-linejoin="round"/>
<path d="M202 1279V1279C193.163 1279 186 1271.84 186 1263V1263" stroke="#536666" stroke-width="2" stroke-linecap="square" stroke-linejoin="round"/>
<line x1="1" y1="-1" x2="50" y2="-1" transform="matrix(1 -8.74228e-08 -8.74228e-08 -1 203 2204)" stroke="#536666" stroke-width="2" stroke-linecap="square"/>
<path d="M250 2201L254 2205L250 2209" stroke="#536666" stroke-width="2" stroke-linecap="round" stroke-linejoin="round"/>
<path d="M202 2205V2205C193.163 2205 186 2197.84 186 2189V2189" stroke="#536666" stroke-width="2" stroke-linecap="square" stroke-linejoin="round"/>
<line x1="1" y1="-1" x2="50" y2="-1" transform="matrix(1 -8.74228e-08 -8.74228e-08 -1 203 2061)" stroke="#536666" stroke-width="2" stroke-linecap="square"/>
<path d="M250 2058L254 2062L250 2066" stroke="#536666" stroke-width="2" stroke-linecap="round" stroke-linejoin="round"/>
<path d="M202 2062V2062C193.163 2062 186 2054.84 186 2046V2046" stroke="#536666" stroke-width="2" stroke-linecap="square" stroke-linejoin="round"/>
<line x1="1" y1="283" x2="184" y2="283" stroke="#536666" stroke-width="2" stroke-linecap="square"/>
<path d="M0 280C1.65685 280 3 281.343 3 283C3 284.657 1.65685 286 0 286V280Z" fill="#536666"/>
</svg>
