<svg width="270" height="465" viewBox="0 0 270 465" fill="none" xmlns="http://www.w3.org/2000/svg">
<path d="M112.542 372.249C94.0382 372.249 77.4358 369.208 62.7344 363.124C48.033 357.041 36.5 348.676 28.1354 338.031C19.7708 327.385 15.5885 315.091 15.5885 301.15C15.5885 288.477 18.3767 277.071 23.9531 266.932C29.5295 256.793 38.401 247.161 50.5677 238.036C62.7344 228.657 78.3229 219.279 97.3333 209.9C112.288 202.55 123.948 196.086 132.313 190.51C140.931 184.933 146.887 179.61 150.182 174.541C153.731 169.472 155.505 164.149 155.505 158.572C155.505 150.968 152.844 144.885 147.521 140.322C142.198 135.506 134.594 133.098 124.708 133.098C114.062 133.098 105.698 135.76 99.6146 141.083C93.7847 146.152 90.8698 152.869 90.8698 161.234C90.8698 165.543 91.6302 169.725 93.151 173.781C94.9253 177.836 97.967 182.399 102.276 187.468C106.585 192.538 112.795 199.001 120.906 206.859L261.583 341.833L235.349 372.63L83.2656 226.63C74.6476 218.265 67.6771 210.534 62.3542 203.437C57.0312 196.34 53.2292 189.496 50.9479 182.906C48.6667 176.062 47.526 169.091 47.526 161.994C47.526 149.574 50.6944 138.675 57.0312 129.296C63.3681 119.664 72.3663 112.314 84.026 107.244C95.6858 101.921 109.247 99.2598 124.708 99.2598C139.156 99.2598 151.576 101.668 161.969 106.484C172.615 111.046 180.852 117.763 186.682 126.635C192.766 135.253 195.807 145.645 195.807 157.812C195.807 168.458 193.146 178.343 187.823 187.468C182.5 196.34 174.135 204.831 162.729 212.942C151.576 221.053 136.622 229.544 117.865 238.416C103.924 245.26 92.8976 251.723 84.7865 257.807C76.6753 263.89 70.8455 269.973 67.2969 276.057C63.7483 282.14 61.974 288.857 61.974 296.208C61.974 303.558 64.1285 310.022 68.4375 315.598C73 321.175 79.3368 325.61 87.4479 328.906C95.559 331.947 105.064 333.468 115.964 333.468C132.186 333.468 146.887 329.919 160.068 322.822C173.502 315.472 184.781 304.572 193.906 290.124C203.031 275.676 209.622 257.807 213.677 236.515L252.078 249.062C246.755 274.663 237.503 296.715 224.323 315.218C211.396 333.468 195.427 347.536 176.417 357.421C157.406 367.307 136.115 372.249 112.542 372.249Z" fill="#000599"/>
<g clip-path="url(#clip0_460_38544)">
<path d="M112.542 372.249C94.0382 372.249 77.4358 369.208 62.7344 363.124C48.033 357.041 36.5 348.676 28.1354 338.031C19.7708 327.385 15.5885 315.091 15.5885 301.15C15.5885 288.477 18.3767 277.071 23.9531 266.932C29.5295 256.793 38.401 247.161 50.5677 238.036C62.7344 228.657 78.3229 219.279 97.3333 209.9C112.288 202.55 123.948 196.086 132.313 190.51C140.931 184.933 146.887 179.61 150.182 174.541C153.731 169.472 155.505 164.149 155.505 158.572C155.505 150.968 152.844 144.885 147.521 140.322C142.198 135.506 134.594 133.098 124.708 133.098C114.062 133.098 105.698 135.76 99.6146 141.083C93.7847 146.152 90.8698 152.869 90.8698 161.234C90.8698 165.543 91.6302 169.725 93.151 173.781C94.9253 177.836 97.967 182.399 102.276 187.468C106.585 192.538 112.795 199.001 120.906 206.859L261.583 341.833L235.349 372.63L83.2656 226.63C74.6476 218.265 67.6771 210.534 62.3542 203.437C57.0312 196.34 53.2292 189.496 50.9479 182.906C48.6667 176.062 47.526 169.091 47.526 161.994C47.526 149.574 50.6944 138.675 57.0312 129.296C63.3681 119.664 72.3663 112.314 84.026 107.244C95.6858 101.921 109.247 99.2598 124.708 99.2598C139.156 99.2598 151.576 101.668 161.969 106.484C172.615 111.046 180.852 117.763 186.682 126.635C192.766 135.253 195.807 145.645 195.807 157.812C195.807 168.458 193.146 178.343 187.823 187.468C182.5 196.34 174.135 204.831 162.729 212.942C151.576 221.053 136.622 229.544 117.865 238.416C103.924 245.26 92.8976 251.723 84.7865 257.807C76.6753 263.89 70.8455 269.973 67.2969 276.057C63.7483 282.14 61.974 288.857 61.974 296.208C61.974 303.558 64.1285 310.022 68.4375 315.598C73 321.175 79.3368 325.61 87.4479 328.906C95.559 331.947 105.064 333.468 115.964 333.468C132.186 333.468 146.887 329.919 160.068 322.822C173.502 315.472 184.781 304.572 193.906 290.124C203.031 275.676 209.622 257.807 213.677 236.515L252.078 249.062C246.755 274.663 237.503 296.715 224.323 315.218C211.396 333.468 195.427 347.536 176.417 357.421C157.406 367.307 136.115 372.249 112.542 372.249Z" fill="#F4F6FA"/>
</g>
<defs>
<clipPath id="clip0_460_38544">
<rect width="269.188" height="257.781" fill="white" transform="translate(0 0.447266)"/>
</clipPath>
</defs>
</svg>
