<svg width="1460" height="264" viewBox="0 0 1460 264" fill="none" xmlns="http://www.w3.org/2000/svg">
<rect x="282.115" y="98.9058" width="11.4062" height="10.6458" fill="#F4F6FA"/>
<rect x="293.521" y="109.552" width="11.4062" height="10.6458" fill="#F4F6FA"/>
<rect x="404.542" y="119.437" width="11.4062" height="10.6458" fill="#F4F6FA"/>
<rect x="390.854" y="121.718" width="14.4479" height="10.6458" fill="#F4F6FA"/>
<rect x="414.427" y="111.833" width="11.4062" height="10.6458" fill="#F4F6FA"/>
<rect x="645.594" y="155.177" width="15.2083" height="15.2083" fill="#F4F6FA"/>
<rect x="660.802" y="101.947" width="67.6771" height="68.4375" fill="#F4F6FA"/>
<rect x="340.667" y="130.083" width="95.8125" height="40.3021" fill="#F4F6FA"/>
<rect x="971.812" y="117.916" width="60.8333" height="52.4688" fill="#F4F6FA"/>
<rect x="606.052" y="164.302" width="15.2083" height="15.2083" fill="#F4F6FA"/>
<rect x="504.156" y="159.739" width="48.6667" height="15.2083" fill="#F4F6FA"/>
<rect x="488.948" y="147.572" width="15.9688" height="15.2083" fill="#F4F6FA"/>
<rect x="424.312" y="158.218" width="15.9688" height="15.2083" fill="#F4F6FA"/>
<rect x="544.458" y="109.552" width="15.9688" height="15.2083" fill="#F4F6FA"/>
<rect x="712.51" y="86.7393" width="15.9688" height="15.2083" fill="#F4F6FA"/>
<rect x="590.083" y="124" width="15.9688" height="15.2083" fill="#F4F6FA"/>
<rect x="605.292" y="139.208" width="15.9688" height="15.2083" fill="#F4F6FA"/>
<rect x="61.5938" y="117.156" width="117.865" height="53.2292" fill="#F4F6FA"/>
<rect x="221.281" y="159.739" width="25.0938" height="23.5729" fill="#F4F6FA"/>
<rect x="221.281" y="159.739" width="25.0938" height="23.5729" fill="#F4F6FA"/>
<rect x="316.333" y="151.375" width="24.3333" height="23.5729" fill="#F4F6FA"/>
<rect x="299.604" y="158.979" width="18.25" height="23.5729" fill="#F4F6FA"/>
<rect x="1055.46" y="95.8643" width="22.8125" height="22.8125" fill="#F4F6FA"/>
<rect x="1198.42" y="63.166" width="12.9271" height="12.9271" fill="#F4F6FA"/>
<rect x="1244.8" y="90.541" width="79.8438" height="79.8438" fill="#F4F6FA"/>
<rect y="170.385" width="1460" height="324.698" fill="url(#paint0_linear_211_36842)"/>
<rect x="1104.89" y="136.927" width="141.438" height="34.2188" fill="#F4F6FA"/>
<rect x="1032.65" y="157.458" width="141.438" height="13.6875" fill="#F4F6FA"/>
<rect x="1076.75" y="85.2183" width="16.7292" height="16.7292" fill="#F4F6FA"/>
<rect x="1253.17" y="0.812012" width="61.5938" height="22.8125" fill="#F4F6FA"/>
<rect x="1244.8" y="22.8643" width="22.8125" height="22.8125" fill="#F4F6FA"/>
<rect x="1315.52" y="58.6035" width="22.8125" height="22.8125" fill="white"/>
<rect x="1032.65" y="0.812012" width="15.2083" height="15.2083" fill="#F4F6FA"/>
<rect x="1161.16" y="95.1035" width="24.3333" height="24.3333" fill="#F4F6FA"/>
<rect x="707.948" y="193.197" width="12.9271" height="12.9271" fill="white"/>
<rect x="707.948" y="193.197" width="12.9271" height="12.9271" fill="white"/>
<rect x="1294.23" y="197.76" width="12.9271" height="12.9271" fill="white"/>
<rect x="521.646" y="168.104" width="12.9271" height="12.9271" fill="white"/>
<rect x="440.281" y="151.375" width="8.36458" height="7.60417" fill="#F4F6FA"/>
<rect x="643.312" y="228.177" width="12.9271" height="12.9271" fill="white"/>
<defs>
<linearGradient id="paint0_linear_211_36842" x1="736.952" y1="170.385" x2="736.952" y2="495.083" gradientUnits="userSpaceOnUse">
<stop stop-color="#F4F6FA"/>
<stop offset="1" stop-color="white"/>
</linearGradient>
</defs>
</svg>
