<?xml version="1.0" standalone="no"?>
<!DOCTYPE svg PUBLIC "-//W3C//DTD SVG 20010904//EN"
 "http://www.w3.org/TR/2001/REC-SVG-20010904/DTD/svg10.dtd">
<svg version="1.0" xmlns="http://www.w3.org/2000/svg"
 width="512.000000pt" height="512.000000pt" viewBox="0 0 512.000000 512.000000"
 preserveAspectRatio="xMidYMid meet">
<metadata>
Created by potrace 1.14, written by Peter Selinger 2001-2017
</metadata>
<g transform="translate(0.000000,512.000000) scale(0.100000,-0.100000)"
fill="#000000" stroke="none">
<path d="M803 4518 c-86 -9 -213 -48 -298 -93 -261 -136 -453 -402 -494 -685
-11 -74 -7 -1668 3 -1715 28 -121 110 -300 167 -365 190 -217 887 -920 911
-920 9 0 18 -4 20 -9 6 -16 173 -90 253 -113 l80 -22 1838 -3 1838 -4 -82 133
c-323 525 -891 1467 -896 1487 -3 10 62 127 155 282 87 145 165 275 173 289 8
14 16 27 19 30 3 3 11 16 19 30 20 34 169 281 181 300 6 8 63 103 129 210 65
107 146 240 179 295 34 55 73 123 88 151 l27 52 -40 38 c-22 22 -148 143 -279
271 -132 127 -272 263 -313 302 l-74 70 -1766 -2 c-971 -1 -1798 -5 -1838 -9z
m3570 -1026 c-2 -9 -57 -101 -143 -242 -11 -18 -25 -42 -208 -348 -80 -133
-150 -241 -155 -239 -6 2 -21 23 -34 46 -12 24 -27 49 -31 55 -5 6 -29 47 -52
91 -24 44 -55 100 -70 125 l-26 44 -244 1 c-135 0 -248 -1 -252 -3 -7 -3 38
-94 62 -127 4 -5 21 -35 37 -65 16 -30 74 -134 128 -230 53 -96 116 -209 138
-250 22 -41 46 -84 54 -95 7 -11 13 -26 13 -34 0 -8 -97 -189 -216 -403 -119
-214 -214 -391 -211 -395 8 -8 461 -10 483 -3 9 3 28 28 44 55 111 200 172
310 175 313 3 3 164 -264 198 -328 11 -19 25 -42 33 -51 8 -8 14 -18 14 -21 0
-5 203 -348 230 -388 5 -8 17 -28 25 -43 l16 -28 -1433 1 -1433 1 -84 26
c-192 60 -334 203 -401 402 -21 62 -21 77 -22 825 -1 418 2 783 6 810 10 66
42 160 73 214 56 95 171 197 277 245 91 42 135 45 652 46 274 1 499 3 500 4 1
1 420 2 931 1 676 0 927 -4 926 -12z"/>
<path d="M1579 3019 c-5 -3 -8 -325 -7 -804 l3 -799 340 0 c187 1 369 2 405 4
274 13 457 186 465 439 3 93 -11 165 -43 227 -23 46 -82 110 -125 138 l-27 19
46 49 c25 27 57 74 72 106 25 52 27 67 27 182 0 121 -1 128 -32 190 -73 149
-207 232 -395 246 -119 8 -717 11 -729 3z m629 -398 c37 -2 82 -53 82 -93 0
-87 -32 -109 -167 -116 -51 -2 -93 -1 -94 4 -5 42 -4 200 2 204 6 4 108 5 177
1z m67 -597 c23 -9 55 -42 56 -58 0 -6 2 -20 4 -30 5 -28 -19 -80 -48 -103
-26 -20 -28 -20 -222 -27 l-40 -1 0 119 0 118 115 -5 c63 -3 124 -9 135 -13z"/>
</g>
</svg>
