<svg width="24" height="309" viewBox="0 0 24 309" fill="none" xmlns="http://www.w3.org/2000/svg">
<path opacity="0.4" d="M12 2L12 261" stroke="#C3C4D4" stroke-width="4" stroke-linecap="round" stroke-linejoin="round" stroke-dasharray="4 8"/>
<g opacity="0.4">
<path d="M23 289C23 291.039 22.3164 293.258 21.2269 295.482C20.1416 297.698 18.6841 299.858 17.2093 301.763C15.7366 303.665 14.2615 305.294 13.1536 306.448C12.697 306.924 12.3037 307.318 12 307.616C11.6963 307.318 11.303 306.924 10.8464 306.448C9.73854 305.294 8.26339 303.665 6.79072 301.763C5.3159 299.858 3.8584 297.698 2.77306 295.482C1.68364 293.258 1 291.039 1 289C1 282.925 5.92487 278 12 278C18.0751 278 23 282.925 23 289Z" stroke="#E0D5D0" stroke-width="2"/>
<circle cx="12.001" cy="289" r="4" fill="#E0D5D0"/>
</g>
</svg>
