<svg width="96" height="180" viewBox="0 0 96 180" fill="none" xmlns="http://www.w3.org/2000/svg">
<path opacity="0.4" d="M2.00001 2L1.99997 123C1.99996 145.091 19.9086 163 42 163L55.5 163" stroke="#C3C4D4" stroke-width="4" stroke-linecap="round" stroke-linejoin="round" stroke-dasharray="4 8"/>
<g opacity="0.4">
<path d="M95 160C95 162.039 94.3164 164.258 93.2269 166.482C92.1416 168.698 90.6841 170.858 89.2093 172.763C87.7366 174.665 86.2615 176.294 85.1536 177.448C84.697 177.924 84.3037 178.318 84 178.616C83.6963 178.318 83.303 177.924 82.8464 177.448C81.7385 176.294 80.2634 174.665 78.7907 172.763C77.3159 170.858 75.8584 168.698 74.7731 166.482C73.6836 164.258 73 162.039 73 160C73 153.925 77.9249 149 84 149C90.0751 149 95 153.925 95 160Z" stroke="#E0D5D0" stroke-width="2"/>
<circle cx="84.001" cy="160" r="4" fill="#E0D5D0"/>
</g>
</svg>
