<svg width="85" height="2330" viewBox="0 0 85 2330" fill="none" xmlns="http://www.w3.org/2000/svg">
<line x1="16" y1="16" x2="16.0001" y2="2143" stroke="#536666" stroke-width="2" stroke-linecap="square"/>
<line x1="27" y1="6" x2="31" y2="6" stroke="#536666" stroke-width="2" stroke-linecap="square"/>
<path d="M29 9L32 6L29 3" stroke="#536666" stroke-width="2" stroke-linecap="round" stroke-linejoin="round"/>
<path d="M25.4118 6V6C20.2138 6 16 10.2138 16 15.4118V15.4118" stroke="#536666" stroke-width="2" stroke-linecap="square" stroke-linejoin="round"/>
<line x1="27" y1="156" x2="31" y2="156" stroke="#536666" stroke-width="2" stroke-linecap="square"/>
<path d="M29 159L32 156L29 153" stroke="#536666" stroke-width="2" stroke-linecap="round" stroke-linejoin="round"/>
<path d="M25.4118 156V156C20.2138 156 16 160.214 16 165.412V165.412" stroke="#536666" stroke-width="2" stroke-linecap="square" stroke-linejoin="round"/>
<line x1="27" y1="56" x2="31" y2="56" stroke="#536666" stroke-width="2" stroke-linecap="square"/>
<path d="M29 59L32 56L29 53" stroke="#536666" stroke-width="2" stroke-linecap="round" stroke-linejoin="round"/>
<path d="M25.4118 56V56C20.2138 56 16 60.2138 16 65.4118V65.4118" stroke="#536666" stroke-width="2" stroke-linecap="square" stroke-linejoin="round"/>
<line x1="1" y1="-1" x2="5" y2="-1" transform="matrix(1 -8.74228e-08 -8.74228e-08 -1 26 463)" stroke="#536666" stroke-width="2" stroke-linecap="square"/>
<path d="M29 461L32 464L29 467" stroke="#536666" stroke-width="2" stroke-linecap="round" stroke-linejoin="round"/>
<path d="M25.4118 464V464C20.2138 464 16 459.786 16 454.588V454.588" stroke="#536666" stroke-width="2" stroke-linecap="square" stroke-linejoin="round"/>
<line x1="1" y1="-1" x2="5" y2="-1" transform="matrix(1 -8.74228e-08 -8.74228e-08 -1 26 561)" stroke="#536666" stroke-width="2" stroke-linecap="square"/>
<path d="M29 559L32 562L29 565" stroke="#536666" stroke-width="2" stroke-linecap="round" stroke-linejoin="round"/>
<path d="M25.4118 562V562C20.2138 562 16 557.786 16 552.588V552.588" stroke="#536666" stroke-width="2" stroke-linecap="square" stroke-linejoin="round"/>
<line x1="1" y1="-1" x2="5" y2="-1" transform="matrix(1 -8.74228e-08 -8.74228e-08 -1 26 610)" stroke="#536666" stroke-width="2" stroke-linecap="square"/>
<path d="M29 608L32 611L29 614" stroke="#536666" stroke-width="2" stroke-linecap="round" stroke-linejoin="round"/>
<path d="M25.4118 611V611C20.2138 611 16 606.786 16 601.588V601.588" stroke="#536666" stroke-width="2" stroke-linecap="square" stroke-linejoin="round"/>
<line x1="1" y1="-1" x2="5" y2="-1" transform="matrix(1 -8.74228e-08 -8.74228e-08 -1 26 710)" stroke="#536666" stroke-width="2" stroke-linecap="square"/>
<path d="M29 708L32 711L29 714" stroke="#536666" stroke-width="2" stroke-linecap="round" stroke-linejoin="round"/>
<path d="M25.4118 711V711C20.2138 711 16 706.786 16 701.588V701.588" stroke="#536666" stroke-width="2" stroke-linecap="square" stroke-linejoin="round"/>
<line x1="1" y1="-1" x2="5" y2="-1" transform="matrix(1 -8.74228e-08 -8.74228e-08 -1 26 859)" stroke="#536666" stroke-width="2" stroke-linecap="square"/>
<path d="M29 857L32 860L29 863" stroke="#536666" stroke-width="2" stroke-linecap="round" stroke-linejoin="round"/>
<path d="M25.4118 860V860C20.2138 860 16 855.786 16 850.588V850.588" stroke="#536666" stroke-width="2" stroke-linecap="square" stroke-linejoin="round"/>
<line x1="1" y1="-1" x2="5" y2="-1" transform="matrix(1 -8.74228e-08 -8.74228e-08 -1 26 909)" stroke="#536666" stroke-width="2" stroke-linecap="square"/>
<path d="M29 907L32 910L29 913" stroke="#536666" stroke-width="2" stroke-linecap="round" stroke-linejoin="round"/>
<path d="M25.4118 910V910C20.2138 910 16 905.786 16 900.588V900.588" stroke="#536666" stroke-width="2" stroke-linecap="square" stroke-linejoin="round"/>
<line x1="1" y1="-1" x2="5" y2="-1" transform="matrix(1 -8.74228e-08 -8.74228e-08 -1 26 1563)" stroke="#536666" stroke-width="2" stroke-linecap="square"/>
<path d="M29 1561L32 1564L29 1567" stroke="#536666" stroke-width="2" stroke-linecap="round" stroke-linejoin="round"/>
<path d="M25.4118 1564V1564C20.2138 1564 16 1559.79 16 1554.59V1554.59" stroke="#536666" stroke-width="2" stroke-linecap="square" stroke-linejoin="round"/>
<line x1="1" y1="-1" x2="5" y2="-1" transform="matrix(1 -8.74228e-08 -8.74228e-08 -1 26 1364)" stroke="#536666" stroke-width="2" stroke-linecap="square"/>
<path d="M29 1362L32 1365L29 1368" stroke="#536666" stroke-width="2" stroke-linecap="round" stroke-linejoin="round"/>
<path d="M25.4118 1365V1365C20.2138 1365 16 1360.79 16 1355.59V1355.59" stroke="#536666" stroke-width="2" stroke-linecap="square" stroke-linejoin="round"/>
<line x1="1" y1="-1" x2="5" y2="-1" transform="matrix(1 -8.74228e-08 -8.74228e-08 -1 26 1462)" stroke="#536666" stroke-width="2" stroke-linecap="square"/>
<path d="M29 1460L32 1463L29 1466" stroke="#536666" stroke-width="2" stroke-linecap="round" stroke-linejoin="round"/>
<path d="M25.4118 1463V1463C20.2138 1463 16 1458.79 16 1453.59V1453.59" stroke="#536666" stroke-width="2" stroke-linecap="square" stroke-linejoin="round"/>
<line x1="1" y1="-1" x2="5" y2="-1" transform="matrix(1 -8.74228e-08 -8.74228e-08 -1 26 1314)" stroke="#536666" stroke-width="2" stroke-linecap="square"/>
<path d="M29 1312L32 1315L29 1318" stroke="#536666" stroke-width="2" stroke-linecap="round" stroke-linejoin="round"/>
<path d="M25.4118 1315V1315C20.2138 1315 16 1310.79 16 1305.59V1305.59" stroke="#536666" stroke-width="2" stroke-linecap="square" stroke-linejoin="round"/>
<line x1="1" y1="-1" x2="5" y2="-1" transform="matrix(1 -8.74228e-08 -8.74228e-08 -1 26 2153)" stroke="#536666" stroke-width="2" stroke-linecap="square"/>
<path d="M29 2151L32 2154L29 2157" stroke="#536666" stroke-width="2" stroke-linecap="round" stroke-linejoin="round"/>
<path d="M25.4118 2154V2154C20.2138 2154 16 2149.79 16 2144.59V2144.59" stroke="#536666" stroke-width="2" stroke-linecap="square" stroke-linejoin="round"/>
<line x1="1" y1="-1" x2="5" y2="-1" transform="matrix(1 -8.74228e-08 -8.74228e-08 -1 26 2004)" stroke="#536666" stroke-width="2" stroke-linecap="square"/>
<path d="M29 2002L32 2005L29 2008" stroke="#536666" stroke-width="2" stroke-linecap="round" stroke-linejoin="round"/>
<path d="M25.4118 2005V2005C20.2138 2005 16 2000.79 16 1995.59V1995.59" stroke="#536666" stroke-width="2" stroke-linecap="square" stroke-linejoin="round"/>
<line x1="1" y1="297" x2="15" y2="297" stroke="#536666" stroke-width="2" stroke-linecap="square"/>
<path d="M0 294C1.65685 294 3 295.343 3 297C3 298.657 1.65685 300 0 300V294Z" fill="#536666"/>
</svg>
