<svg width="158" height="292" viewBox="0 0 158 292" fill="none" xmlns="http://www.w3.org/2000/svg">
<g clip-path="url(#clip0_2803_211077)">
<line x1="1" y1="-1" x2="5" y2="-1" transform="matrix(1 -8.74228e-08 -8.74228e-08 -1 23 65)" stroke="#536666" stroke-width="2" stroke-linecap="square"/>
<path d="M26 63L29 66L26 69" stroke="#536666" stroke-width="2" stroke-linecap="round" stroke-linejoin="round"/>
<path d="M22.4118 66V66C17.2138 66 13 61.7862 13 56.5882V56.5882" stroke="#536666" stroke-width="2" stroke-linecap="square" stroke-linejoin="round"/>
<line x1="13" y1="35" x2="13" y2="55" stroke="#536666" stroke-width="2" stroke-linecap="square"/>
<path d="M16 34C16 35.6569 14.6569 37 13 37C11.3431 37 10 35.6569 10 34L16 34Z" fill="#536666"/>
</g>
<line x1="1" y1="-1" x2="5" y2="-1" transform="matrix(1 -8.74228e-08 -8.74228e-08 -1 23 113)" stroke="#536666" stroke-width="2" stroke-linecap="square"/>
<path d="M26 111L29 114L26 117" stroke="#536666" stroke-width="2" stroke-linecap="round" stroke-linejoin="round"/>
<path d="M22.4118 114V114C17.2138 114 13 109.786 13 104.588V104.588" stroke="#536666" stroke-width="2" stroke-linecap="square" stroke-linejoin="round"/>
<line x1="1" y1="-1" x2="5" y2="-1" transform="matrix(1 -8.74228e-08 -8.74228e-08 -1 23 162)" stroke="#536666" stroke-width="2" stroke-linecap="square"/>
<path d="M26 160L29 163L26 166" stroke="#536666" stroke-width="2" stroke-linecap="round" stroke-linejoin="round"/>
<path d="M22.4118 163V163C17.2138 163 13 158.786 13 153.588V153.588" stroke="#536666" stroke-width="2" stroke-linecap="square" stroke-linejoin="round"/>
<line x1="1" y1="-1" x2="5" y2="-1" transform="matrix(1 -8.74228e-08 -8.74228e-08 -1 23 271)" stroke="#536666" stroke-width="2" stroke-linecap="square"/>
<path d="M26 269L29 272L26 275" stroke="#536666" stroke-width="2" stroke-linecap="round" stroke-linejoin="round"/>
<path d="M22.4118 272V272C17.2138 272 13 267.786 13 262.588V262.588" stroke="#536666" stroke-width="2" stroke-linecap="square" stroke-linejoin="round"/>
<line x1="13" y1="56" x2="13" y2="262" stroke="#536666" stroke-width="2" stroke-linecap="square"/>
<defs>
<clipPath id="clip0_2803_211077">
<rect width="20" height="37" fill="white" transform="translate(10 34)"/>
</clipPath>
</defs>
</svg>
