<svg width="120" height="120" viewBox="0 0 120 120" fill="none" xmlns="http://www.w3.org/2000/svg">
<rect width="120" height="120" rx="60" fill="#FAFAFC"/>
<path d="M57.9802 29.098C47.3543 30.1115 39.3755 39.5586 39.3755 50.4126V76.8818C39.3755 87.4996 45.5425 93 52.5002 93C59.7371 93 65.6249 87.1123 65.6249 79.8753C65.6249 74.4718 68.1788 69.3082 72.4566 66.0628C77.4604 62.2665 80.6245 56.2839 80.6245 49.626C80.6245 37.8044 70.5089 27.9029 57.9802 29.098V29.098ZM70.19 63.0752C64.9834 67.0254 61.875 73.3057 61.875 79.8752C61.875 85.0445 57.6694 89.25 52.5002 89.25C46.8052 89.25 43.1254 84.3951 43.1254 76.8816V50.4126C43.1254 41.3672 49.8068 33.6445 58.3361 32.8311C68.5902 31.8531 76.8746 39.9429 76.8746 49.626C76.8746 54.9503 74.4382 59.8524 70.19 63.0752V63.0752Z" fill="#536666"/>
<path d="M58.692 36.5628C53.9986 37.011 49.9307 40.2118 48.0037 44.7741C45.8939 49.7695 46.7201 55.3506 50.214 59.7039C50.763 60.3876 50.7635 61.3629 50.214 62.0474C47.0251 66.0207 45.9131 71.4112 47.5697 74.8649C48.5254 76.8575 50.3224 78.0002 52.5001 78.0002C55.6017 78.0002 58.125 75.4769 58.125 72.3753C58.125 71.3398 57.2855 70.5004 56.25 70.5004C55.2145 70.5004 54.3751 71.3398 54.3751 72.3753C54.3751 73.4092 53.5339 74.2503 52.5001 74.2503C51.7627 74.2503 51.2847 73.9396 50.9506 73.2432C50.047 71.3593 50.6184 67.5346 53.1385 64.3946C54.7805 62.3487 54.7917 59.4164 53.1385 57.3565C50.5215 54.096 49.8934 49.9377 51.4581 46.2331C51.7642 45.5081 52.1406 44.8337 52.5752 44.2185C56.7521 43.1906 60.8899 45.8851 61.7249 49.9988C61.9303 51.0109 62.9176 51.6699 63.9355 51.4633C64.9502 51.2573 65.6059 50.2676 65.3999 49.2529C64.5431 45.032 61.343 41.7485 57.3294 40.6489C63.0652 38.8214 69.3748 43.2154 69.3748 49.6259C69.3748 52.5823 68.0192 55.3067 65.6558 57.1007C64.8309 57.7268 64.6698 58.9029 65.2959 59.7277C65.922 60.5525 67.098 60.7136 67.9231 60.0876C71.2288 57.5784 73.1248 53.7653 73.1248 49.6259C73.1246 42.125 66.7222 35.8254 58.692 36.5628V36.5628Z" fill="#536666"/>
<path d="M64.5921 66.4243L66.1136 66.3237C66.5958 66.2918 67.0785 66.3769 67.5207 66.5717L78.1524 71.2543C79.7539 70.1842 81.7934 68.9193 83.3896 68.1766C83.8342 67.9697 84.2911 67.781 84.7246 67.6493C85.0998 67.5352 85.6977 67.3855 86.3251 67.4701C86.6691 67.5165 87.1506 67.6507 87.5866 68.0267C88.0528 68.4288 88.287 68.9519 88.361 69.4412C88.4837 70.2532 88.1734 70.981 87.9768 71.3849C87.3362 72.7004 85.848 75.0848 84.1852 77.6367C82.4937 80.2325 80.5386 83.1265 78.8948 85.5238C77.1704 88.0387 73.288 86.6693 73.4411 83.6752L73.645 79.689L63.0074 71.8307C60.7596 70.1702 61.8035 66.6086 64.5921 66.4243ZM74.0769 80.0081L74.076 80.0074L74.0769 80.0081ZM84.4342 69.5059C84.4333 69.5063 84.4285 69.5184 84.4222 69.541C84.4319 69.5168 84.4351 69.5055 84.4342 69.5059ZM86.0333 71.4394C86.0333 71.4393 86.0307 71.4397 86.0252 71.4407C86.0305 71.44 86.0332 71.4395 86.0333 71.4394Z" fill="#96DAD7" stroke="#536666" stroke-width="4" stroke-linecap="round" stroke-linejoin="round"/>
</svg>
