<svg width="120" height="120" viewBox="0 0 120 120" fill="none" xmlns="http://www.w3.org/2000/svg">
<rect width="120" height="120" rx="60" fill="#FAFAFC"/>
<path d="M59.5 43L42.5 59.5L47 66.5L49 65.5L67.5 50.5L59.5 43Z" fill="#96DAD7"/>
<path d="M51.571 68.501L50.2144 67.1443L77.0511 45.6749C77.9288 44.9727 78.0026 43.6612 77.2067 42.8653L68.6615 34.3202C67.9247 33.5832 66.7286 33.5829 65.9911 34.3202C65.162 35.1495 24.0484 76.263 22.5531 77.7582C21.8156 78.4957 21.8156 79.6912 22.5531 80.4286C28.0009 85.8765 36.8655 85.8769 42.3137 80.4286L51.5712 71.1713C52.3081 70.4344 52.3083 69.2383 51.571 68.501ZM67.3263 38.3257L73.0445 44.044L67.9567 48.1141L62.9554 42.6965L67.3263 38.3257ZM60.2829 45.3691L65.0003 50.4793L47.5276 64.4575L44.361 61.2909L60.2829 45.3691ZM39.6434 77.7582C36.0527 81.3489 30.5708 81.6393 26.6813 78.9707L41.6908 63.9613L47.5656 69.8361L39.6434 77.7582Z" fill="#536666"/>
<path d="M53.8998 82.4562H46.8504C45.8076 82.4562 44.9622 83.3016 44.9622 84.3444C44.9622 85.3872 45.8076 86.2326 46.8504 86.2326H53.8998C54.9426 86.2326 55.7881 85.3872 55.7881 84.3444C55.7881 83.3016 54.9426 82.4562 53.8998 82.4562Z" fill="#536666"/>
<path d="M69.0058 82.4562H61.9564C60.9135 82.4562 60.0681 83.3016 60.0681 84.3444C60.0681 85.3872 60.9135 86.2326 61.9564 86.2326H69.0058C70.0486 86.2326 70.894 85.3872 70.894 84.3444C70.894 83.3016 70.0486 82.4562 69.0058 82.4562Z" fill="#536666"/>
<path d="M84.1117 82.4562H77.0623C76.0195 82.4562 75.1741 83.3016 75.1741 84.3444C75.1741 85.3872 76.0195 86.2326 77.0623 86.2326H84.1117C85.1546 86.2326 86 85.3872 86 84.3444C86 83.3016 85.1546 82.4562 84.1117 82.4562Z" fill="#536666"/>
</svg>
