<svg width="120" height="120" viewBox="0 0 120 120" fill="none" xmlns="http://www.w3.org/2000/svg">
<rect width="120" height="120" rx="60" fill="#FAFAFC"/>
<path fill-rule="evenodd" clip-rule="evenodd" d="M79.1302 37.9054C78.5707 38.1137 78.0201 38.3186 77.4748 38.5003C74.8977 39.3593 72.9432 39.306 72.0261 39.0003C71.2402 38.7383 70.8155 37.8889 71.0775 37.1029C71.3394 36.317 72.1889 35.8923 72.9748 36.1543C72.9748 36.1543 72.975 36.1543 72.9753 36.1544C72.989 36.1576 73.3025 36.2313 73.948 36.1925C74.5732 36.1549 75.4441 36.0149 76.5261 35.6543C76.8943 35.5316 77.3378 35.367 77.8319 35.1837C79.09 34.7169 80.6758 34.1285 82.1799 33.7994C84.308 33.3339 86.9106 33.2165 88.9608 34.925C92.7278 38.0641 93.4941 43.9443 89.8421 51.2482C89.4716 51.9892 88.5706 52.2895 87.8297 51.919C87.0887 51.5485 86.7884 50.6475 87.1588 49.9066C90.5069 43.2105 89.2732 39.0904 87.0402 37.2296C86.0904 36.4381 84.693 36.3206 82.821 36.7301C81.5289 37.0128 80.3097 37.4665 79.1302 37.9054ZM60.0005 83.0773C60.8289 83.0773 61.5005 83.7489 61.5005 84.5773V93.0773C61.5005 93.9057 60.8289 94.5773 60.0005 94.5773C59.1721 94.5773 58.5005 93.9057 58.5005 93.0773V84.5773C58.5005 83.7489 59.1721 83.0773 60.0005 83.0773Z" fill="#536666"/>
<path fill-rule="evenodd" clip-rule="evenodd" d="M84.1214 52.7066C82.0002 53.7113 81.4088 55.6579 81.9484 56.7972C82.488 57.9364 84.3687 58.7121 86.49 57.7074C88.6112 56.7027 89.2026 54.7562 88.663 53.6169C88.1234 52.4776 86.2426 51.7019 84.1214 52.7066ZM79.2371 58.0813C77.7594 54.9614 79.7527 51.4563 82.8372 49.9954C85.9218 48.5344 89.8965 49.2127 91.3742 52.3327C92.852 55.4527 90.8587 58.9577 87.7741 60.4187C84.6896 61.8796 80.7149 61.2013 79.2371 58.0813Z" fill="#536666"/>
<path fill-rule="evenodd" clip-rule="evenodd" d="M40.7148 37.9054C41.2744 38.1137 41.825 38.3186 42.3702 38.5003C44.9473 39.3593 46.9018 39.306 47.8189 39.0003C48.6048 38.7383 49.0296 37.8889 48.7676 37.1029C48.5056 36.317 47.6561 35.8923 46.8702 36.1543C46.8703 36.1543 46.8701 36.1543 46.8698 36.1544C46.8561 36.1576 46.5426 36.2313 45.8971 36.1925C45.2719 36.1549 44.4009 36.0149 43.3189 35.6543C42.9508 35.5316 42.5072 35.367 42.0131 35.1837C40.7551 34.7169 39.1692 34.1285 37.6651 33.7994C35.5371 33.3339 32.9345 33.2165 30.8843 34.925C27.1173 38.0641 26.3509 43.9443 30.0029 51.2482C30.3734 51.9892 31.2744 52.2895 32.0154 51.919C32.7564 51.5485 33.0567 50.6475 32.6862 49.9066C29.3382 43.2105 30.5719 39.0904 32.8048 37.2296C33.7547 36.4381 35.152 36.3206 37.024 36.7301C38.3162 37.0128 39.5353 37.4665 40.7148 37.9054Z" fill="#536666"/>
<path fill-rule="evenodd" clip-rule="evenodd" d="M35.7236 52.7066C37.8448 53.7113 38.4362 55.6579 37.8966 56.7972C37.357 57.9364 35.4762 58.7121 33.355 57.7074C31.2338 56.7027 30.6424 54.7562 31.182 53.6169C31.7216 52.4776 33.6024 51.7019 35.7236 52.7066ZM40.6078 58.0813C42.0856 54.9614 40.0923 51.4563 37.0077 49.9954C33.9232 48.5344 29.9485 49.2127 28.4708 52.3327C26.993 55.4527 28.9863 58.9577 32.0708 60.4187C35.1554 61.8796 39.1301 61.2013 40.6078 58.0813Z" fill="#536666"/>
<path d="M48.2096 39.0565C49.1137 38.368 51.1254 37.6169 53.6201 37.014C55.9769 36.4444 58.4145 36.0874 60 36.0025C61.5854 36.0874 64.0231 36.4444 66.3799 37.014C68.8746 37.6169 70.8863 38.368 71.7904 39.0565C72.4743 39.5773 73.5182 41.295 73.8783 44.1511C74.223 46.8853 73.8851 50.3449 72.225 53.9568C70.3826 57.9653 68.4468 59.7085 66.8154 61.1776L66.7991 61.1922C66.7596 61.2278 66.7198 61.2636 66.6799 61.2995C65.3683 62.4789 63.8841 63.8135 63.2665 66.1652C62.9154 67.5016 62.8643 69.5294 62.8166 71.4222C62.8147 71.4985 62.8127 71.5745 62.8108 71.6503C62.7408 74.3984 62.6581 77.2215 62.1041 79.3588C61.8294 80.4184 61.4856 81.1075 61.1329 81.5052C60.8453 81.8296 60.5281 82 60 82C59.4719 82 59.1547 81.8296 58.8671 81.5052C58.5144 81.1075 58.1706 80.4184 57.8959 79.3588C57.3419 77.2215 57.2592 74.3984 57.1892 71.6503C57.1873 71.5745 57.1853 71.4985 57.1834 71.4222C57.1357 69.5294 57.0845 67.5016 56.7335 66.1652C56.1159 63.8135 54.6317 62.4789 53.3201 61.2995C53.2802 61.2636 53.2404 61.2278 53.2009 61.1922L53.1846 61.1776C51.5532 59.7085 49.6174 57.9653 47.775 53.9568C46.1148 50.3449 45.777 46.8853 46.1217 44.1511C46.4818 41.295 47.5257 39.5773 48.2096 39.0565Z" fill="#96DAD7" stroke="#FAFAFC" stroke-width="4" stroke-linecap="round" stroke-linejoin="round"/>
<path fill-rule="evenodd" clip-rule="evenodd" d="M59.9287 32.5017C59.9762 32.4994 60.0238 32.4994 60.0713 32.5017C61.9186 32.5896 64.6304 32.9904 67.2021 33.6119C69.7059 34.217 72.3686 35.0976 73.9108 36.272C75.6733 37.6141 76.9382 40.4409 77.3508 43.7134C77.7749 47.0774 77.3456 51.1968 75.4052 55.4185C73.2659 60.0729 70.9185 62.1927 69.1412 63.7931C67.7221 65.071 66.9873 65.7764 66.6516 67.0543C66.4167 67.9487 66.365 69.568 66.3097 71.7395L66.3071 71.8402C66.2406 74.4514 66.1588 77.665 65.4921 80.2371C65.1526 81.5464 64.6266 82.8406 63.7517 83.8272C62.8281 84.8689 61.5712 85.5 60 85.5C58.4288 85.5 57.1719 84.8689 56.2483 83.8272C55.3734 82.8406 54.8473 81.5464 54.5079 80.2371C53.8411 77.665 53.7593 74.4515 53.6929 71.8403L53.6903 71.7395C53.635 69.568 53.5833 67.9487 53.3483 67.0543C53.0127 65.7764 52.2779 65.071 50.8588 63.7931C49.0815 62.1927 46.7341 60.0729 44.5948 55.4185C42.6544 51.1967 42.2251 47.0774 42.6492 43.7134C43.0618 40.4409 44.3266 37.6141 46.0891 36.272C47.6314 35.0976 50.294 34.217 52.7979 33.6119C55.3695 32.9904 58.0813 32.5896 59.9287 32.5017ZM53.5027 36.528C51.0067 37.1312 48.9019 37.9008 47.9066 38.6587C47.0687 39.2968 45.9932 41.173 45.6256 44.0886C45.2696 46.9127 45.6205 50.4666 47.3206 54.1656C49.2061 58.2678 51.2014 60.0646 52.8542 61.5529L52.8663 61.5638C52.8988 61.5931 52.9314 61.6224 52.9641 61.6518C54.2862 62.8413 55.6708 64.087 56.2499 66.2922C56.5857 67.5705 56.6358 69.5479 56.6846 71.4769C56.6862 71.539 56.6878 71.6011 56.6893 71.6631C56.759 74.3942 56.8405 77.2801 57.4119 79.4842C57.6959 80.5795 58.0657 81.3551 58.4929 81.8369C58.8714 82.2638 59.3228 82.5 60 82.5C60.6771 82.5 61.1286 82.2638 61.507 81.8369C61.9343 81.3551 62.3041 80.5795 62.5881 79.4842C63.1595 77.2801 63.241 74.3941 63.3106 71.663C63.3122 71.6011 63.3138 71.539 63.3154 71.4769C63.3642 69.5479 63.4143 67.5705 63.75 66.2922C64.3292 64.087 65.7137 62.8413 67.0359 61.6518C67.0685 61.6224 67.1011 61.5931 67.1337 61.5638L67.1458 61.5529C68.7986 60.0646 70.7939 58.2678 72.6793 54.1656C74.3795 50.4666 74.7304 46.9127 74.3743 44.0886C74.0068 41.173 72.9313 39.2968 72.0933 38.6587C71.0981 37.9008 68.9933 37.1312 66.4973 36.528C64.1044 35.9497 61.6219 35.5861 60 35.5019C58.3781 35.5861 55.8956 35.9497 53.5027 36.528Z" fill="#536666"/>
</svg>
