<svg width="120" height="120" viewBox="0 0 120 120" fill="none" xmlns="http://www.w3.org/2000/svg">
<rect width="120" height="120" rx="60" fill="#FAFAFC"/>
<path d="M55.2694 54.2496C54.4235 53.3962 53.3643 52.8522 52.1227 52.5952C51.8999 50.8139 51.2886 49.4849 50.5355 48.5259C52.9365 45.7494 54 41.6459 53.0795 37.7451C51.9509 32.9675 48.1226 30 43.0859 30C32.6645 30 28 42.0544 28 54C28 65.9456 32.6645 78 43.0859 78C48.1226 78 51.952 75.0325 53.0795 70.2549C54.0193 66.2762 52.8939 62.0874 50.3915 59.3109C51.231 58.3636 51.7621 57.2159 52.0268 55.8986C52.4811 56.0746 52.7936 56.3007 52.9942 56.5034C55.4977 59.0281 55.407 67.6725 55.2759 80.7594C55.2418 84.2591 55.2013 88.1311 55.2013 92.3999C55.2013 93.2841 55.917 93.9999 56.8013 93.9999C57.6855 93.9999 58.4013 93.2841 58.4013 92.3999C58.4013 88.1439 58.4418 84.2815 58.4759 80.7902C58.6315 65.4346 58.7104 57.7247 55.2694 54.2496ZM49.0282 54C49.0282 59.9424 42.2986 58.064 46.0565 59.9424C52 62.9141 52 74.8 43.0859 74.8C34.1717 74.8 31.2 62.9141 31.2 54C31.2 45.0859 34.1717 33.2 43.0859 33.2C52 33.2 52 45.0859 46.0576 48.0576C43.3995 49.3856 49.0282 48.0576 49.0282 54Z" fill="#536666"/>
<path d="M47.4508 56.6518C47.9398 56.0631 48.3282 55.1832 48.3282 53.8C48.3282 52.3969 47.9973 51.4656 47.5738 50.828C47.1486 50.1878 46.6037 49.8041 46.1097 49.539C45.9 49.4265 45.7059 49.3384 45.5258 49.2567C45.4905 49.2407 45.4557 49.2249 45.4215 49.2093C45.3211 49.1634 45.2184 49.1152 45.1283 49.0658C45.0436 49.0194 44.9355 48.9536 44.8455 48.8629C44.7505 48.7672 44.6318 48.597 44.6456 48.3608C44.6583 48.1431 44.7785 47.9887 44.8652 47.9003C45.0323 47.7301 45.3087 47.5729 45.634 47.4104C48.3685 46.0429 49.8011 42.5652 49.446 39.3696C49.2702 37.7875 48.6581 36.3224 47.5929 35.2571C46.5351 34.1992 44.9952 33.5 42.8859 33.5C38.7069 33.5 35.8719 36.2678 34.0553 40.2641C32.2376 44.263 31.5 49.3856 31.5 53.8C31.5 58.2144 32.2376 63.337 34.0553 67.3359C35.8719 71.3322 38.7069 74.1 42.8859 74.1C44.9952 74.1 46.5351 73.4008 47.5929 72.3429C48.6581 71.2776 49.2701 69.8125 49.4459 68.2304C49.8008 65.0349 48.368 61.5571 45.6329 60.1896L47.4508 56.6518ZM47.4508 56.6518C46.9536 57.2504 46.3157 57.5928 45.74 57.834M47.4508 56.6518L45.74 57.834M45.74 57.834C45.5964 57.8942 45.4585 57.9473 45.327 57.9973M45.74 57.834L45.327 57.9973M45.327 57.9973C45.306 58.0053 45.285 58.0133 45.2641 58.0212M45.327 57.9973L45.2641 58.0212M45.2641 58.0212C45.1568 58.0619 45.0507 58.1021 44.9563 58.1407M45.2641 58.0212L44.9563 58.1407M44.9563 58.1407C44.8451 58.1861 44.7279 58.238 44.6257 58.2985M44.9563 58.1407L44.6257 58.2985M44.6257 58.2985C44.5333 58.3533 44.3914 58.45 44.3004 58.6107M44.6257 58.2985L44.3004 58.6107M44.3004 58.6107C44.1857 58.8133 44.194 59.0376 44.2865 59.226M44.3004 58.6107L44.2865 59.226M44.2865 59.226C44.3622 59.3802 44.4862 59.4968 44.5936 59.5824M44.2865 59.226L44.5936 59.5824M44.5936 59.5824C44.8148 59.7587 45.1638 59.9551 45.6329 60.1896M44.5936 59.5824L45.6329 60.1896M45.6329 60.1896L45.8565 59.7424L45.6329 60.1896Z" fill="#96DAD7" stroke="white"/>
<path d="M72.5482 56.6518C72.0592 56.0631 71.6708 55.1832 71.6708 53.8C71.6708 52.3969 72.0017 51.4656 72.4252 50.828C72.8505 50.1878 73.3953 49.8041 73.8893 49.539C74.099 49.4265 74.2931 49.3384 74.4732 49.2567C74.5085 49.2407 74.5433 49.2249 74.5776 49.2093C74.6779 49.1634 74.7806 49.1152 74.8707 49.0658C74.9554 49.0194 75.0635 48.9536 75.1536 48.8629C75.2485 48.7672 75.3673 48.597 75.3535 48.3608C75.3408 48.1431 75.2205 47.9887 75.1338 47.9003C74.9668 47.7301 74.6903 47.5729 74.365 47.4104C71.6305 46.0429 70.1979 42.5652 70.553 39.3696C70.7288 37.7875 71.3409 36.3224 72.4061 35.2571C73.464 34.1992 75.0038 33.5 77.1131 33.5C81.2922 33.5 84.1271 36.2678 85.9437 40.2641C87.7614 44.263 88.499 49.3856 88.499 53.8C88.499 58.2144 87.7614 63.337 85.9437 67.3359C84.1271 71.3322 81.2922 74.1 77.1131 74.1C75.0038 74.1 73.464 73.4008 72.4061 72.3429C71.3409 71.2776 70.7289 69.8125 70.5532 68.2304C70.1982 65.0349 71.6311 61.5571 74.3661 60.1896L72.5482 56.6518ZM72.5482 56.6518C73.0454 57.2504 73.6833 57.5928 74.259 57.834M72.5482 56.6518L74.259 57.834M74.259 57.834C74.4026 57.8942 74.5405 57.9473 74.6721 57.9973M74.259 57.834L74.6721 57.9973M74.6721 57.9973C74.693 58.0053 74.714 58.0133 74.7349 58.0212M74.6721 57.9973L74.7349 58.0212M74.7349 58.0212C74.8423 58.0619 74.9484 58.1021 75.0427 58.1407M74.7349 58.0212L75.0427 58.1407M75.0427 58.1407C75.1539 58.1861 75.2711 58.238 75.3734 58.2985M75.0427 58.1407L75.3734 58.2985M75.3734 58.2985C75.4658 58.3533 75.6076 58.45 75.6986 58.6107M75.3734 58.2985L75.6986 58.6107M75.6986 58.6107C75.8134 58.8133 75.8051 59.0376 75.7125 59.226M75.6986 58.6107L75.7125 59.226M75.7125 59.226C75.6369 59.3802 75.5128 59.4968 75.4054 59.5824M75.7125 59.226L75.4054 59.5824M75.4054 59.5824C75.1843 59.7587 74.8352 59.9551 74.3661 60.1896M75.4054 59.5824L74.3661 60.1896M74.3661 60.1896L74.1425 59.7424L74.3661 60.1896Z" fill="#96DAD7" stroke="white"/>
<path d="M76.9142 30C71.8775 30 68.0481 32.9675 66.9206 37.7451C66.0001 41.6459 67.0635 45.7494 69.4646 48.5259C68.7115 49.4848 68.1004 50.8139 67.8774 52.5952C66.6357 52.8524 65.5766 53.3964 64.7317 54.2496C61.2906 57.7249 61.3696 65.4336 61.5254 80.7904C61.5595 84.2805 61.6 88.144 61.6 92.4C61.6 93.2843 62.3157 94 63.2 94C64.0842 94 64.8 93.2843 64.8 92.4C64.8 88.1313 64.7595 84.2592 64.7254 80.7595C64.5941 67.6715 64.5035 59.0282 67.007 56.5035C67.2075 56.2997 67.52 56.0748 67.9745 55.8988C68.239 57.2161 68.7702 58.3639 69.6097 59.311C67.1074 62.0875 65.9831 66.2764 66.9217 70.255C68.0492 75.0326 71.8775 78.0001 76.9142 78.0001C87.3356 78 92.0001 65.9456 92.0001 54C92.0001 42.0544 87.3356 30 76.9142 30ZM76.9142 74.8C68.0001 74.8 68.0001 62.9141 73.9425 59.9424C77.7014 58.0629 70.9707 59.9424 70.9707 54C70.9707 48.0576 76.5995 49.3856 73.9425 48.0576C68.0001 45.0859 68.0001 33.2 76.9142 33.2C85.8283 33.2 88.8001 45.0859 88.8001 54C88.8001 62.9141 85.8283 74.8 76.9142 74.8Z" fill="#536666"/>
</svg>
