<svg width="120" height="120" viewBox="0 0 120 120" fill="none" xmlns="http://www.w3.org/2000/svg">
<rect width="120" height="120" rx="60" fill="#FAFAFC"/>
<path d="M37 63.5C39.4 61.1 40.6667 53.8333 41 50.5L44 55L47 57L46.5 59L45 62V67.5L48 72.5L55 77L61.5 82.5L65.5 90L67.5 96.5H61.5L58.5 87L51.5 81H48L41.5 83C40.5 77.5 38.2 65.9 37 63.5Z" fill="#96DAD7"/>
<path d="M52.5 63L55.5 60H60.5L63.5 58.5L67.5 59.5L69.5 63L66 70.5V77L63.5 73.5L57.5 69.5L53 67L52.5 63Z" fill="#96DAD7"/>
<path d="M71 72L73.5 65L79 67.5L78 72.5L76.5 80L79 90L81 96H75.5L73.5 90L71 82.5V72Z" fill="#96DAD7"/>
<path fill-rule="evenodd" clip-rule="evenodd" d="M80.8505 30.17C76.5444 26.9405 68.7623 23.9917 56.9457 26.355C51.7657 27.391 48.2754 28.6627 45.7567 30.0534C43.2601 31.432 41.6602 32.9591 40.293 34.5999C39.2726 35.8243 38.4188 37.5048 37.7651 39.1765C37.1163 40.8355 36.7031 42.3854 36.5256 43.2729C36.4995 43.4036 36.456 43.5303 36.3964 43.6496C36.0225 44.3974 35.458 45.6112 34.9912 46.797C34.7576 47.3903 34.5566 47.9561 34.4161 48.4413C34.2665 48.958 34.2199 49.2696 34.2199 49.3994C34.2199 49.5578 34.2514 49.6074 34.2693 49.6357L34.2699 49.6366C34.3135 49.7054 34.3982 49.8004 34.6447 50.0117C34.6833 50.0448 34.7258 50.0804 34.7716 50.1188C35.2468 50.5164 36.0704 51.2056 36.4777 52.4273C36.9186 53.75 36.6625 55.1421 36.351 56.2322C36.1885 56.8009 35.9894 57.3562 35.8046 57.8551C35.7587 57.9791 35.7142 58.0981 35.6713 58.2131C35.5346 58.5791 35.4134 58.9036 35.3103 59.213C35.0779 59.9102 34.5301 60.71 34.0148 61.403C33.465 62.1424 32.7903 62.967 32.1442 63.7567L32.1298 63.7744C31.4669 64.5845 30.8343 65.3583 30.3302 66.0361C29.9951 66.4868 29.7698 66.8271 29.6325 67.0636C29.8432 67.2086 30.1613 67.3832 30.6182 67.6117C30.7021 67.6536 30.7909 67.6975 30.8834 67.7432C31.3745 67.9858 31.9691 68.2795 32.4731 68.6036C33.0395 68.9677 33.8256 69.5699 34.143 70.5219C34.5376 71.7058 34.2569 72.9291 33.937 73.7933C33.8139 74.1258 33.6707 74.4437 33.5205 74.7372L34.7751 75.7429C35.3266 76.185 35.4947 76.952 35.1786 77.5841C35.122 77.6973 35.0572 77.8036 35.0163 77.8701C34.9882 77.9157 34.9698 77.9452 34.9528 77.9723C34.933 78.004 34.9152 78.0324 34.8863 78.0798C34.8043 78.2141 34.7455 78.3214 34.7051 78.4175C34.6815 78.4736 34.67 78.5111 34.6646 78.5339C34.7568 78.701 34.8848 78.8084 35.3031 79.0873C35.3181 79.0973 35.3336 79.1076 35.3494 79.1181C35.7836 79.4067 36.5083 79.8884 36.9801 80.832C37.2538 81.3794 37.3431 81.923 37.285 82.4652C37.2355 82.9272 37.0784 83.3458 36.977 83.6159L36.97 83.6346C36.9629 83.6536 36.9558 83.6725 36.9487 83.6913C36.7515 84.2163 36.566 84.7099 36.5553 85.5145C36.6567 86.425 36.9143 87.0124 37.1937 87.3958C37.4778 87.7857 37.8396 88.0411 38.2578 88.2049C39.1364 88.5492 40.24 88.4716 41.0102 88.2479L49.1427 85.3434C49.4215 85.2438 49.7237 85.229 50.011 85.3008C52.806 85.9996 54.4199 87.612 55.4571 89.3405C55.9588 90.1768 56.3229 91.0342 56.6215 91.7805C56.6948 91.9639 56.7628 92.1365 56.8272 92.3C57.0403 92.8413 57.2137 93.2818 57.4095 93.6733C57.7389 94.3321 58.075 94.5405 58.2433 94.6118C58.4138 94.684 58.5252 94.6649 58.5256 94.6672C58.5257 94.6677 58.5213 94.669 58.512 94.6721C58.6649 94.6212 58.8251 94.5952 58.9863 94.5952H81.7505C82.8295 94.5952 83.4572 94.4599 83.8033 94.303C84.0769 94.1789 84.1429 94.0637 84.1869 93.9243C84.2586 93.6968 84.2905 93.2612 84.1366 92.4804C83.9865 91.7187 83.6909 90.7751 83.2614 89.6094C81.1392 83.849 80.8088 79.0669 81.436 75.0686C82.0619 71.0781 83.6267 67.9658 85.148 65.5317C85.6905 64.6637 86.27 63.8523 86.8093 63.0974C87.0212 62.8007 87.2268 62.5128 87.4216 62.2335C88.1326 61.214 88.7683 60.2177 89.2961 59.0391C90.3375 56.7137 91.0428 53.4886 90.7092 47.8166C90.1612 38.5008 85.327 33.5275 80.8505 30.17ZM34.6605 78.5632C34.66 78.5635 34.6598 78.5598 34.6611 78.551C34.6616 78.5585 34.6609 78.5629 34.6605 78.5632ZM29.4085 66.8797C29.4085 66.8797 29.409 66.8803 29.4099 66.8815C29.4089 66.8803 29.4085 66.8797 29.4085 66.8797ZM56.3573 23.4133C68.9551 20.8937 77.6174 23.9952 82.6505 27.77C87.513 31.4169 93.0846 37.1103 93.704 47.6404C94.0567 53.6368 93.328 57.3759 92.0341 60.2652C91.3943 61.6939 90.637 62.8674 89.8823 63.9497C89.6478 64.2858 89.4193 64.6057 89.195 64.9196C88.6775 65.644 88.1829 66.3363 87.692 67.1217C86.2948 69.3572 84.9412 72.0818 84.3997 75.5335C83.8595 78.9772 84.1128 83.2425 86.0765 88.5723C86.5225 89.783 86.8835 90.9032 87.08 91.9004C87.2728 92.8785 87.3411 93.8969 87.048 94.8264C86.7271 95.844 86.0271 96.5887 85.0421 97.0353C84.1296 97.449 83.0061 97.5952 81.7505 97.5952H59.1813C57.8585 97.8879 55.8989 97.3603 54.7262 95.0149C54.4648 94.4921 54.2256 93.8835 54.004 93.3198C53.9469 93.1744 53.8909 93.0319 53.8361 92.8947C53.5509 92.1818 53.2584 91.507 52.8846 90.884C52.2257 89.7859 51.3123 88.8374 49.702 88.3293L41.9799 91.0871C41.9556 91.0958 41.9311 91.1039 41.9064 91.1113C40.7322 91.4635 38.8788 91.6703 37.1634 90.9982C36.2779 90.6513 35.4286 90.0676 34.7691 89.1625C34.1124 88.2613 33.7003 87.1192 33.5622 85.7379C33.5573 85.6883 33.5548 85.6385 33.5548 85.5887C33.5548 84.1911 33.9042 83.2633 34.1328 82.6562C34.1424 82.6307 34.1518 82.6057 34.161 82.5813C34.2558 82.3285 34.2867 82.2251 34.2973 82.1745C34.2971 82.1742 34.297 82.1739 34.2968 82.1736C34.2021 81.9842 34.0872 81.8823 33.639 81.5835C33.624 81.5734 33.6086 81.5632 33.5927 81.5527C33.1585 81.2641 32.4338 80.7824 31.962 79.8388C31.4653 78.8453 31.676 77.9031 31.9209 77.2999L30.6144 76.2525C29.9827 75.7461 29.8668 74.8298 30.3525 74.1821C30.5709 73.891 30.9037 73.346 31.1235 72.752C31.3506 72.1383 31.3683 71.7152 31.3036 71.492C31.2949 71.4845 31.2079 71.3566 30.8509 71.1271C30.502 70.9028 30.091 70.6991 29.599 70.4552C29.4952 70.4038 29.3878 70.3506 29.2766 70.295C28.7197 70.0165 27.9878 69.6419 27.4482 69.1562C27.1647 68.9011 26.8498 68.5431 26.6621 68.0622C26.4598 67.5437 26.4453 66.9822 26.6273 66.436C26.8597 65.7389 27.4075 64.939 27.9229 64.246C28.4726 63.5067 29.1473 62.6821 29.7933 61.8925L29.8079 61.8747C30.4707 61.0645 31.1034 60.2908 31.6074 59.6129C32.15 58.8832 32.4048 58.4427 32.4642 58.2643C32.586 57.899 32.7332 57.5051 32.8739 57.1285C32.9138 57.0216 32.9532 56.9162 32.9914 56.8131C33.1714 56.3271 33.3371 55.8609 33.4664 55.4081C33.7387 54.4552 33.7744 53.8044 33.6316 53.376C33.5 52.9812 33.2919 52.8029 32.7616 52.3489C32.7391 52.3296 32.716 52.3098 32.6922 52.2895C32.428 52.063 32.0385 51.7202 31.7355 51.2418C31.4067 50.7227 31.22 50.115 31.2199 49.3996C31.2199 48.829 31.3679 48.1823 31.5345 47.607C31.7101 47.0002 31.9469 46.3402 32.1997 45.698C32.6702 44.503 33.2245 43.2988 33.625 42.4854C33.8524 41.4181 34.301 39.7973 34.9711 38.0839C35.6793 36.2728 36.6739 34.2566 37.9883 32.6793C39.5395 30.8179 41.4166 29.023 44.3066 27.4272C47.1745 25.8436 50.9804 24.4887 56.3573 23.4133Z" fill="#536666"/>
<path d="M42.5 42.5L44 39L45 35.5L49 32L52.5 33L57.5 29.5L62.5 30L69.5 29.5L77.5 33.5L81 40L84.5 42.5L84 45L85.5 52L83 58L80 61.5L81 66L77.5 67.5L75.5 66L69 62L68.5 60L64 59L60.5 61.5L56 60L53 57L46.5 56.5C45.5 56.1667 43.4 55.4 43 55C42.6 54.6 41.8333 52.8333 41.5 52L40.5 47L42.5 42.5Z" fill="#96DAD7"/>
<path fill-rule="evenodd" clip-rule="evenodd" d="M64.5721 33.0558C64.5721 32.7536 64.7808 31.9499 65.3329 31.288C65.8197 30.7045 66.4977 30.3075 67.5295 30.4549C68.3062 30.5659 68.7149 30.7224 68.9563 30.8603C69.1747 30.9851 69.3404 31.1411 69.5613 31.4265C69.5665 31.4376 69.5846 31.4765 69.6075 31.5548C69.6443 31.6805 69.6759 31.8462 69.699 32.0427C69.744 32.4255 69.7439 32.7997 69.7438 33.032L69.7438 33.0558C69.7438 33.8843 70.4154 34.5558 71.2438 34.5558C72.0723 34.5558 72.7438 33.8843 72.7438 33.0558L72.7439 33.0183V33.0181C72.744 32.8744 72.7443 32.6218 72.7294 32.3186C72.9088 32.3777 73.0984 32.4468 73.2968 32.5271C74.3975 32.9725 75.5982 33.6946 76.6038 34.7002C78.056 36.1524 78.7054 37.8706 78.9529 39.0286C78.7165 39.095 78.4989 39.1668 78.3052 39.2394C77.5295 39.5303 77.1365 40.3949 77.4274 41.1706C77.7183 41.9463 78.5829 42.3393 79.3586 42.0484C79.9837 41.814 80.9494 41.6199 81.7761 41.7355C82.5206 41.8396 83.0052 42.1476 83.2458 42.8693C83.5581 43.8061 83.3611 44.521 82.9979 45.0894C82.6136 45.6907 82.0375 46.1195 81.6632 46.3066C80.9223 46.6771 80.6219 47.5781 80.9924 48.3191C81.3629 49.0601 82.2639 49.3604 83.0049 48.9899C83.2512 48.8667 83.5229 48.7051 83.8021 48.5055C84.0052 49.1439 84.1445 49.8366 84.1546 50.5161C84.1744 51.8484 83.7186 53.0755 82.1893 53.9251C79.5428 55.3954 77.6653 54.9535 76.6122 54.2909C76.8661 53.8159 77.0122 53.3128 77.0786 52.8274C77.2287 51.7285 76.9888 50.6756 76.7224 50.0097C76.4147 49.2405 75.5418 48.8664 74.7726 49.174C74.0034 49.4817 73.6293 50.3547 73.937 51.1238C74.0597 51.4307 74.17 51.9538 74.1062 52.4212C74.0514 52.8219 73.8926 53.1104 73.4915 53.311C73.0453 53.5341 72.5298 53.5238 71.942 53.3052C71.339 53.0808 70.8161 52.6872 70.5534 52.4246C69.9676 51.8388 69.0179 51.8388 68.4321 52.4246C67.8463 53.0104 67.8463 53.9601 68.4321 54.5459C68.9477 55.0615 69.8256 55.7186 70.8958 56.1168C71.8263 56.463 73.0099 56.6479 74.2244 56.2461C75.6846 57.5069 78.1212 58.427 81.1667 57.5822C80.465 58.4353 79.6077 59.0359 78.7587 59.4495C77.8254 59.9042 76.9394 60.1106 76.3613 60.1631C75.5363 60.2381 74.9283 60.9677 75.0033 61.7928C75.0783 62.6178 75.8079 63.2258 76.6329 63.1508C77.2734 63.0926 78.0486 62.933 78.8725 62.6459C79.1707 63.1473 79.4339 63.7092 79.5653 64.2366C79.6733 64.6698 79.6656 64.9742 79.612 65.167C79.571 65.3147 79.4882 65.4676 79.2276 65.624C78.807 65.8763 78.5103 65.9464 78.3263 65.9592C78.1497 65.9716 78.0177 65.9359 77.9052 65.8789C77.6376 65.7432 77.4074 65.4388 77.3062 65.1857C77.1206 64.7219 76.7163 64.3808 76.2277 64.2761C74.8958 63.9907 73.0704 63.5029 71.6649 62.7028C70.7565 62.1856 70.2082 61.6572 69.9588 61.0975C70.6307 61.0138 71.2157 60.8902 71.656 60.7645C72.4525 60.5369 72.9138 59.7066 72.6862 58.9101C72.4586 58.1135 71.6284 57.6523 70.8318 57.8799C70.2859 58.0359 69.2649 58.2189 68.1292 58.2017C66.9837 58.1845 65.8673 57.9658 65.0113 57.4522C64.5019 57.1466 63.8601 57.1704 63.3747 57.5129C61.8795 58.568 60.7956 59.2608 59.7371 59.5099C58.8186 59.7261 57.7799 59.6336 56.3161 58.6578C54.2542 57.2832 53.7647 55.5025 54.0072 53.6834C54.0946 53.0282 54.2807 52.3609 54.542 51.7075C54.8497 50.9383 54.4756 50.0654 53.7064 49.7577C52.9372 49.45 52.0643 49.8242 51.7566 50.5933C51.5953 50.9965 51.452 51.414 51.3325 51.8421C51.1802 51.7442 51.0287 51.6084 50.8739 51.4316C50.3983 50.8887 50.0686 50.1259 49.9301 49.6007C49.719 48.7997 48.8984 48.3214 48.0974 48.5326C47.2963 48.7437 46.8181 49.5643 47.0292 50.3654C47.2498 51.2021 47.7549 52.4239 48.6172 53.4083C49.1877 54.0596 49.9757 54.6633 50.962 54.9164C50.973 55.1412 50.9931 55.366 51.0227 55.5901C50.0468 55.6601 48.7362 55.5984 47.4345 55.2246C45.8021 54.7558 44.2928 53.8335 43.3702 52.173C41.9708 49.6539 42.3332 47.1276 43.0042 45.4321C43.1159 45.564 43.2265 45.6838 43.3332 45.7905C43.919 46.3763 44.8687 46.3763 45.4545 45.7905C46.0403 45.2047 46.0403 44.2549 45.4545 43.6692C45.1202 43.3348 44.6728 42.6917 44.4932 41.963C44.3298 41.3003 44.3811 40.5804 44.9815 39.8299C45.2354 39.5125 45.4766 39.3239 45.7041 39.2187C45.7543 39.2138 45.8048 39.2064 45.8554 39.1963C45.9585 39.1756 46.057 39.1449 46.1501 39.1053C46.2754 39.0977 46.3954 39.109 46.51 39.1294C47.0778 39.2302 47.6603 39.6111 48.0027 39.9535C48.5885 40.5393 49.5382 40.5393 50.124 39.9535C50.7098 39.3677 50.7098 38.418 50.124 37.8322C49.5108 37.2189 48.4435 36.4579 47.1443 36.1964C47.3406 35.5798 47.7765 34.8768 48.6678 34.3421C49.5204 33.8305 50.2223 33.6468 50.7353 33.6028C50.6161 33.9667 50.5386 34.3032 50.4969 34.5949C50.3798 35.415 50.9496 36.1748 51.7697 36.2919C52.5898 36.4091 53.3496 35.8392 53.4668 35.0191C53.5959 34.1153 54.5858 31.7622 57.5989 31.0089C59.2837 30.5877 60.5877 30.6097 61.4733 30.7953C61.7066 30.8442 61.8987 30.9011 62.0555 30.9588C61.7344 31.702 61.5721 32.4471 61.5721 33.0558C61.5721 33.8843 62.2437 34.5558 63.0721 34.5558C63.9005 34.5558 64.5721 33.8843 64.5721 33.0558ZM41.4617 42.0538C41.2919 40.7665 41.5522 39.3142 42.6389 37.9558C43.0673 37.4203 43.5332 37.0149 44.0187 36.7221C44.1192 35.1852 44.8511 33.1335 47.1243 31.7696C49.2038 30.5219 51.0832 30.4108 52.3722 30.7695C53.3737 29.634 54.8283 28.6093 56.8713 28.0985C58.9222 27.5858 60.6903 27.566 62.0887 27.8591C62.7357 27.9947 63.3627 28.212 63.905 28.5169C64.9122 27.7328 66.2683 27.2443 67.9538 27.4851C68.959 27.6287 69.7671 27.8685 70.4443 28.2554C70.8448 28.4841 71.1647 28.7446 71.4331 29.0144C72.3474 29.0628 73.4021 29.3334 74.4221 29.7461C75.8407 30.3201 77.396 31.2497 78.7251 32.5789C80.7633 34.6171 81.6477 37.0414 81.9511 38.7355C82.0313 38.7436 82.1114 38.7532 82.1916 38.7644C83.743 38.9813 85.3985 39.8407 86.0919 41.9207C86.5952 43.4307 86.4375 44.778 85.9637 45.8802C86.5716 47.0953 87.1286 48.7479 87.1542 50.4715C87.1777 52.0483 86.7461 53.703 85.5345 55.0615C84.9537 58.0428 83.3212 60.0257 81.5467 61.2766C81.9298 61.946 82.2781 62.716 82.4763 63.5112C82.6602 64.2492 82.7408 65.1128 82.5025 65.9702C82.2517 66.8727 81.6779 67.6524 80.7711 68.1965C79.2301 69.121 77.7567 69.1673 76.5483 68.5545C75.8071 68.1785 75.2718 67.6077 74.9141 67.0548C73.548 66.7296 71.7284 66.1909 70.1807 65.3099C68.7058 64.4703 67.1642 63.1183 66.8522 61.1201C66.0362 61.0224 65.1825 60.8273 64.3644 60.4799C63.1491 61.3108 61.8456 62.0956 60.4243 62.4301C58.5703 62.8665 56.6905 62.5129 54.652 61.1539C53.4799 60.3725 52.627 59.4683 52.0376 58.4966C50.6771 58.6944 48.6483 58.6944 46.6064 58.108C44.4447 57.4872 42.16 56.172 40.7478 53.6299C38.0228 48.725 40.0676 43.9121 41.4427 42.0786C41.449 42.0702 41.4553 42.062 41.4617 42.0538Z" fill="#536666"/>
<path fill-rule="evenodd" clip-rule="evenodd" d="M40.9212 48.5021C41.7484 48.4585 42.4544 49.0939 42.4979 49.9212C42.5881 51.6341 42.4541 54.3601 41.7676 57.1019C41.2034 59.3551 40.2258 61.779 38.5493 63.6238C39.7603 65.349 40.3231 67.3147 40.4796 68.2534C40.4932 68.3349 40.5 68.4174 40.5 68.5V73C40.5 73.3801 40.7163 74.7885 41.7 76.1C41.8947 76.3597 42 76.6755 42 77C42 77.7568 42.0944 78.269 42.2039 78.8628C42.2553 79.1419 42.3101 79.4389 42.3599 79.7879C42.4315 80.2889 42.4684 80.8029 42.427 81.362C42.6606 81.2538 42.9142 81.1364 43.1889 81.0108C44.2888 80.5079 45.6232 79.9291 46.9362 79.5813C48.2007 79.2463 49.7393 79.042 51.0909 79.6213C54.7822 81.2033 59.203 84.4359 60.9045 88.9733C61.9304 91.7092 62.7761 93.6352 63.1829 94.5H78.7353C77.9475 92.5086 77.0793 89.964 76.4069 87.2623C75.4707 83.5006 74.8652 79.2461 75.5257 75.7236C76.1449 72.421 76.9704 69.9668 77.7755 68.2216C78.5556 66.5306 79.3749 65.3792 80.063 64.8287C80.7099 64.3112 81.6538 64.4161 82.1713 65.063C82.6888 65.7099 82.5839 66.6538 81.937 67.1713C81.7918 67.2875 81.2111 67.9361 80.4995 69.4784C79.813 70.9666 79.0551 73.179 78.4743 76.2764C77.9348 79.1539 78.4126 82.8994 79.3181 86.5377C80.2144 90.1394 81.482 93.4516 82.3636 95.375C82.5764 95.8394 82.5383 96.3802 82.2624 96.8101C81.9866 97.24 81.5108 97.5 81 97.5H62.5C62.1022 97.5 61.7206 97.342 61.4393 97.0607L60.9393 96.5607C60.8253 96.4467 60.7305 96.315 60.6584 96.1708C60.2947 95.4436 59.3076 93.259 58.0955 90.0267C56.7971 86.5641 53.2178 83.7967 49.9091 82.3787C49.5107 82.208 48.7993 82.1912 47.7044 82.4812C46.6581 82.7584 45.5237 83.2421 44.4361 83.7392C44.2386 83.8295 44.0364 83.9234 43.8335 84.0177C43.0141 84.3983 42.1814 84.7851 41.5845 84.9665C41.3822 85.0279 41.1276 85.0922 40.8586 85.1114C40.6259 85.1281 40.1332 85.1318 39.6622 84.8152C39.0857 84.4277 38.9132 83.8292 38.9091 83.3867C38.9056 83.0054 39.0168 82.6691 39.1073 82.4429C39.4929 81.4788 39.4849 80.8759 39.3901 80.2121C39.3671 80.0512 39.332 79.8599 39.2922 79.6424C39.1887 79.0779 39.0529 78.3372 39.0121 77.4933C37.8308 75.7232 37.5 73.8852 37.5 73V68.6342C37.3252 67.7384 36.6788 65.8002 35.4393 64.5607C35.1376 64.259 34.9787 63.8431 35.0023 63.4171C35.0259 62.991 35.2298 62.5952 35.563 62.3287C37.1891 61.0278 38.2447 58.8199 38.8574 56.3732C39.4626 53.9566 39.5786 51.5326 39.5021 50.0788C39.4585 49.2516 40.0939 48.5456 40.9212 48.5021ZM41.881 83.5899C41.8808 83.59 41.8819 83.586 41.8849 83.5776C41.8827 83.5856 41.8812 83.5898 41.881 83.5899Z" fill="#536666"/>
<path fill-rule="evenodd" clip-rule="evenodd" d="M48.8022 56.7558C49.2133 57.4751 48.9634 58.3914 48.2441 58.8024C47.7671 59.0749 45.7433 61.0975 46.4848 66.2879C46.9247 69.3673 48.1976 71.0303 49.8556 72.3139C50.7273 72.9887 51.7177 73.5666 52.8338 74.1909C52.9776 74.2714 53.1238 74.3528 53.2718 74.4352C54.2457 74.9773 55.3021 75.5654 56.3319 76.2519C58.6574 77.8023 61.0653 79.6663 63.272 82.6755C65.3294 85.4811 67.1628 89.2136 68.6477 94.5H73.3725C70.2238 88.4857 66.8737 77.0944 71.6102 65.4354C71.922 64.6679 72.7969 64.2985 73.5644 64.6103C74.3319 64.9221 74.7014 65.7971 74.3896 66.5646C69.4424 78.7422 74.2442 90.7413 77.2411 95.1578L76.1851 95.8743L76.1851 97.5H67.4999C66.8173 97.5 66.2207 97.0391 66.0484 96.3786C64.584 90.7648 62.7777 87.0745 60.8528 84.4496C58.9345 81.8337 56.8423 80.1978 54.6678 78.7481C53.7456 78.1333 52.8029 77.6082 51.8227 77.0621C51.6724 76.9784 51.5212 76.8942 51.3691 76.8091C50.2508 76.1835 49.085 75.5113 48.0191 74.6861C45.8021 72.9697 44.075 70.6327 43.5149 66.7121C42.6564 60.7025 44.8993 57.2584 46.7557 56.1976C47.4749 55.7866 48.3912 56.0365 48.8022 56.7558Z" fill="#536666"/>
<path fill-rule="evenodd" clip-rule="evenodd" d="M56.8116 59.2715C57.2139 59.9957 56.953 60.9089 56.2288 61.3112C55.6262 61.646 54.7759 62.302 54.2275 63.107C53.7031 63.8767 53.5422 64.6232 53.879 65.4091C54.0473 65.8017 54.5914 66.3428 55.7997 67.0631C56.5817 67.5294 57.4595 67.9717 58.4281 68.4597C58.9108 68.703 59.4161 68.9576 59.9432 69.2321C61.4621 70.0232 63.0881 70.9462 64.4423 72.1007C64.549 72.1917 64.6546 72.2846 64.7588 72.3795C64.7592 72.3714 64.7596 72.3633 64.76 72.3552C64.8303 70.9425 64.9106 69.5879 65.0764 68.3616C65.4007 65.9618 66.0996 63.6311 68.1683 62.2519C68.8576 61.7924 69.7889 61.9787 70.2484 62.6679C70.708 63.3572 70.5217 64.2885 69.8324 64.7481C68.9011 65.3689 68.35 66.5382 68.0493 68.7634C67.9026 69.8496 67.8267 71.0887 67.7563 72.5042C67.7433 72.765 67.7306 73.0315 67.7176 73.3033C67.6608 74.4878 67.5993 75.7718 67.4959 77.115C67.4395 77.8486 66.8594 78.4329 66.1264 78.4947C65.3933 78.5565 64.7236 78.0775 64.5451 77.3638C64.271 76.2673 63.5701 75.2995 62.4959 74.3837C61.4125 73.46 60.0386 72.6643 58.5574 71.8929C58.1191 71.6646 57.6618 71.434 57.2017 71.2019C56.1764 70.6849 55.1371 70.1608 54.2635 69.64C53.0342 68.9072 51.7033 67.9483 51.1216 66.5909C50.2584 64.5768 50.8475 62.7399 51.7482 61.418C52.6247 60.1313 53.8744 59.1873 54.7719 58.6888C55.496 58.2864 56.4092 58.5474 56.8116 59.2715Z" fill="#536666"/>
</svg>
