<svg width="120" height="120" viewBox="0 0 120 120" fill="none" xmlns="http://www.w3.org/2000/svg">
<rect width="120" height="120" rx="60" fill="#FAFAFC"/>
<rect x="33" y="64" width="17" height="25" fill="#96DAD7"/>
<rect x="57" y="64" width="12" height="5" fill="#96DAD7"/>
<rect x="50" y="76" width="26" height="12" fill="#96DAD7"/>
<path d="M85.6275 36.3725C79.5834 30.3286 71.5475 27 63 27C54.4525 27 46.4166 30.3286 40.3725 36.3725C34.3286 42.4166 31 50.4525 31 59C31 60.0853 31.0561 61.172 31.1649 62.25H31V89C31 90.1046 31.8954 91 33 91H76C77.1046 91 78 90.1046 78 89V87.2723C82.914 84.6608 87.0705 80.8114 90.0571 76.0928C93.2907 70.984 95 65.0735 95 59C95 50.4525 91.6714 42.4166 85.6275 36.3725ZM48 87.25H34.75V66H48V87.25ZM48.625 59C48.625 51.0736 55.0736 44.625 63 44.625C70.9264 44.625 77.375 51.0736 77.375 59C77.375 63.2475 75.5145 67.2002 72.375 69.8988V68.6582C72.375 67.8805 71.7445 67.25 70.9668 67.25C71.07 66.8504 71.125 66.4315 71.125 66C71.125 63.243 68.882 61 66.125 61H59.875C57.118 61 54.875 63.243 54.875 66C54.875 66.4315 54.93 66.8504 55.0333 67.25C54.2555 67.25 53.625 67.8805 53.625 68.6582V73.5H51.75V64.25C51.75 63.1454 50.8546 62.25 49.75 62.25H48.9966C48.7518 61.19 48.625 60.1026 48.625 59ZM68.625 71V73.5H57.375V71H68.625ZM58.625 66C58.625 65.3107 59.1857 64.75 59.875 64.75H66.125C66.8143 64.75 67.375 65.3107 67.375 66C67.375 66.6893 66.8143 67.25 66.125 67.25H59.875C59.1857 67.25 58.625 66.6893 58.625 66ZM74.25 87.25H51.75V77.25H74.25V87.25ZM86.8885 74.0871C84.615 77.679 81.5744 80.7006 78 82.9434V75.5C78 74.3954 77.1046 73.5 76 73.5H73.876C78.4035 70.107 81.125 64.7691 81.125 59C81.125 49.0059 72.9941 40.875 63 40.875C53.0059 40.875 44.875 49.0059 44.875 59C44.875 60.097 44.9734 61.183 45.1666 62.25H34.9365C34.8135 61.1741 34.75 60.0864 34.75 59C34.75 51.4541 37.6885 44.36 43.0243 39.0243C48.36 33.6885 55.4541 30.75 63 30.75C70.5459 30.75 77.64 33.6885 82.9757 39.0243C88.3115 44.36 91.25 51.4541 91.25 59C91.25 64.3623 89.7419 69.5794 86.8885 74.0871Z" fill="#536666"/>
<path d="M86.5 60.875C87.5355 60.875 88.375 60.0355 88.375 59C88.375 57.9645 87.5355 57.125 86.5 57.125C85.4645 57.125 84.625 57.9645 84.625 59C84.625 60.0355 85.4645 60.875 86.5 60.875Z" fill="#536666"/>
<path d="M84.625 51.875C85.6605 51.875 86.5 51.0355 86.5 50C86.5 48.9645 85.6605 48.125 84.625 48.125C83.5895 48.125 82.75 48.9645 82.75 50C82.75 51.0355 83.5895 51.875 84.625 51.875Z" fill="#536666"/>
<path d="M78.875 43.875C79.9105 43.875 80.75 43.0355 80.75 42C80.75 40.9645 79.9105 40.125 78.875 40.125C77.8395 40.125 77 40.9645 77 42C77 43.0355 77.8395 43.875 78.875 43.875Z" fill="#536666"/>
<path d="M44.25 68.5H38.5C37.4645 68.5 36.625 69.3395 36.625 70.375C36.625 71.4105 37.4645 72.25 38.5 72.25H44.25C45.2855 72.25 46.125 71.4105 46.125 70.375C46.125 69.3395 45.2855 68.5 44.25 68.5Z" fill="#536666"/>
<path d="M44.25 74.75H38.5C37.4645 74.75 36.625 75.5895 36.625 76.625C36.625 77.6605 37.4645 78.5 38.5 78.5H44.25C45.2855 78.5 46.125 77.6605 46.125 76.625C46.125 75.5895 45.2855 74.75 44.25 74.75Z" fill="#536666"/>
<path d="M44.25 81H38.5C37.4645 81 36.625 81.8395 36.625 82.875C36.625 83.9105 37.4645 84.75 38.5 84.75H44.25C45.2855 84.75 46.125 83.9105 46.125 82.875C46.125 81.8395 45.2855 81 44.25 81Z" fill="#536666"/>
</svg>
