<svg width="120" height="120" viewBox="0 0 120 120" fill="none" xmlns="http://www.w3.org/2000/svg">
<rect width="120" height="120" rx="60" fill="#FAFAFC"/>
<path fill-rule="evenodd" clip-rule="evenodd" d="M60.3659 31.5143C50.5532 31.5143 42.5984 39.4691 42.5984 49.2819C42.5984 59.0946 50.5532 67.0495 60.3659 67.0495C70.1787 67.0495 78.1335 59.0946 78.1335 49.2819C78.1335 39.4691 70.1787 31.5143 60.3659 31.5143ZM39.5984 49.2819C39.5984 37.8123 48.8963 28.5143 60.3659 28.5143C71.8355 28.5143 81.1335 37.8123 81.1335 49.2819C81.1335 60.7515 71.8355 70.0495 60.3659 70.0495C48.8963 70.0495 39.5984 60.7515 39.5984 49.2819Z" fill="#536666"/>
<path fill-rule="evenodd" clip-rule="evenodd" d="M42.2045 30.5006C41.1024 30.4853 40.014 30.7458 39.0381 31.2582C38.0623 31.7707 37.2301 32.5189 36.6171 33.4349C36.0041 34.3509 35.6298 35.4056 35.5282 36.5031C35.4266 37.6006 35.6009 38.7061 36.0353 39.719C36.4698 40.732 37.1505 41.6203 38.0156 42.3032C38.8808 42.9861 39.9029 43.4419 40.9891 43.6291C41.8055 43.7699 42.3532 44.5458 42.2124 45.3622C42.0716 46.1786 41.2957 46.7263 40.4793 46.5855C38.9004 46.3133 37.4146 45.6507 36.1569 44.658C34.8993 43.6653 33.9097 42.374 33.2782 40.9015C32.6467 39.429 32.3932 37.8219 32.5409 36.2265C32.6886 34.6311 33.2328 33.098 34.1239 31.7664C35.015 30.4348 36.2248 29.3471 37.6433 28.6022C39.0618 27.8572 40.644 27.4787 42.2461 27.5009C43.8482 27.5232 45.4193 27.9455 46.8166 28.7296C48.2139 29.5136 49.393 30.6345 50.2468 31.9903C50.6882 32.6913 50.4778 33.6174 49.7768 34.0589C49.0758 34.5003 48.1497 34.2899 47.7082 33.5889C47.1209 32.6562 46.3097 31.8852 45.3485 31.3458C44.3873 30.8065 43.3065 30.5159 42.2045 30.5006Z" fill="#536666"/>
<path fill-rule="evenodd" clip-rule="evenodd" d="M66.8283 84.0065C67.9946 83.5234 69.2446 83.2748 70.5069 83.2748C71.7693 83.2748 73.0193 83.5234 74.1855 84.0065C75.3518 84.4896 76.4115 85.1976 77.3041 86.0903C78.1967 86.9829 78.9048 88.0426 79.3879 89.2088C79.871 90.3751 80.1196 91.6251 80.1196 92.8874C80.1196 93.7159 79.448 94.3874 78.6196 94.3874L62.3943 94.3874C61.5659 94.3874 60.8943 93.7159 60.8943 92.8874C60.8943 91.6251 61.1429 90.3751 61.626 89.2088C62.1091 88.0426 62.8171 86.9829 63.7098 86.0903C64.6024 85.1976 65.6621 84.4896 66.8283 84.0065ZM70.5069 86.2748C69.6386 86.2748 68.7787 86.4458 67.9764 86.7781C67.1741 87.1105 66.4451 87.5975 65.8311 88.2116C65.217 88.8256 64.73 89.5546 64.3976 90.3569C64.259 90.6916 64.1485 91.0363 64.0667 91.3874L76.9472 91.3874C76.8654 91.0363 76.7549 90.6916 76.6162 90.3569C76.2839 89.5546 75.7968 88.8256 75.1828 88.2116C74.5687 87.5975 73.8398 87.1105 73.0375 86.7781C72.2352 86.4458 71.3753 86.2748 70.5069 86.2748Z" fill="#536666"/>
<path fill-rule="evenodd" clip-rule="evenodd" d="M46.5465 84.0065C47.7127 83.5234 48.9627 83.2748 50.2251 83.2748C51.4874 83.2748 52.7374 83.5234 53.9037 84.0065C55.0699 84.4896 56.1296 85.1976 57.0222 86.0903C57.9149 86.9829 58.6229 88.0426 59.106 89.2088C59.5891 90.3751 59.8377 91.6251 59.8377 92.8874C59.8377 93.7159 59.1662 94.3874 58.3377 94.3874L42.1124 94.3874C41.284 94.3874 40.6124 93.7159 40.6124 92.8874C40.6124 91.6251 40.8611 90.3751 41.3441 89.2088C41.8272 88.0426 42.5353 86.9829 43.4279 86.0903C44.3205 85.1976 45.3802 84.4896 46.5465 84.0065ZM50.2251 86.2748C49.3567 86.2748 48.4968 86.4458 47.6945 86.7781C46.8922 87.1105 46.1633 87.5975 45.5492 88.2116C44.9352 88.8256 44.4481 89.5546 44.1158 90.3569C43.9772 90.6916 43.8666 91.0363 43.7848 91.3874L56.6654 91.3874C56.5836 91.0363 56.473 90.6916 56.3344 90.3569C56.0021 89.5546 55.515 88.8256 54.9009 88.2116C54.2869 87.5975 53.5579 87.1105 52.7556 86.7781C51.9533 86.4458 51.0935 86.2748 50.2251 86.2748Z" fill="#536666"/>
<path fill-rule="evenodd" clip-rule="evenodd" d="M78.4825 27.501C80.0981 27.478 81.6933 27.8626 83.1209 28.6193C84.5485 29.376 85.7624 30.4803 86.6503 31.8302C87.5382 33.1801 88.0715 34.732 88.2009 36.3425C88.3304 37.9531 88.0518 39.5703 87.3909 41.0446C86.73 42.519 85.7081 43.803 84.4197 44.778C83.1312 45.753 81.6179 46.3874 80.0194 46.6228C79.1998 46.7434 78.4375 46.1769 78.3169 45.3573C78.1962 44.5377 78.7628 43.7754 79.5824 43.6548C80.682 43.4929 81.7231 43.0564 82.6094 42.3857C83.4957 41.715 84.1987 40.8318 84.6533 39.8175C85.108 38.8033 85.2996 37.6908 85.2106 36.5829C85.1215 35.475 84.7547 34.4074 84.1439 33.4788C83.5331 32.5502 82.6981 31.7905 81.716 31.27C80.7339 30.7494 79.6365 30.4849 78.5251 30.5007C77.4138 30.5165 76.3243 30.8122 75.3575 31.3604C74.3906 31.9086 73.5775 32.6918 72.9934 33.6374C72.558 34.3421 71.6337 34.5605 70.9289 34.1252C70.2241 33.6898 70.0057 32.7655 70.4411 32.0607C71.2903 30.6861 72.4722 29.5477 73.8777 28.7507C75.2832 27.9538 76.8669 27.5239 78.4825 27.501Z" fill="#536666"/>
<rect x="52.2539" y="41.1688" width="3.04225" height="5.07041" rx="1.52112" fill="#536666"/>
<rect x="65.4369" y="41.1688" width="3.04225" height="5.07041" rx="1.52112" fill="#536666"/>
<path fill-rule="evenodd" clip-rule="evenodd" d="M54.7446 51.2976C53.3612 52.2199 52.7394 53.3293 52.7394 54.3519C52.7394 55.3745 53.3612 56.4839 54.7446 57.4062C56.1175 58.3215 58.1007 58.9364 60.3661 58.9364C62.6316 58.9364 64.6147 58.3215 65.9876 57.4062C67.3711 56.4839 67.9928 55.3745 67.9928 54.3519C67.9928 53.3293 67.3711 52.2199 65.9876 51.2976C64.6147 50.3823 62.6316 49.7674 60.3661 49.7674C58.1007 49.7674 56.1175 50.3823 54.7446 51.2976ZM53.0805 48.8015C55.0108 47.5146 57.591 46.7674 60.3661 46.7674C63.1412 46.7674 65.7215 47.5146 67.6517 48.8015C69.5715 50.0813 70.9928 52.0142 70.9928 54.3519C70.9928 56.6897 69.5715 58.6225 67.6517 59.9024C65.7215 61.1892 63.1412 61.9364 60.3661 61.9364C57.591 61.9364 55.0108 61.1892 53.0805 59.9024C51.1607 58.6225 49.7394 56.6897 49.7394 54.3519C49.7394 52.0142 51.1607 50.0813 53.0805 48.8015Z" fill="#536666"/>
<path fill-rule="evenodd" clip-rule="evenodd" d="M59.439 49.4703C60.0415 49.2746 60.6906 49.2746 61.2931 49.4703L61.8892 49.664C62.4917 49.8598 63.0168 50.2413 63.3892 50.7538L63.7576 51.2609C64.1299 51.7734 64.3305 52.3907 64.3305 53.0242V53.651C64.3305 54.2845 64.1299 54.9018 63.7576 55.4143L63.3892 55.9214C63.0168 56.4339 62.4917 56.8154 61.8892 57.0112L61.2931 57.2048C60.6906 57.4006 60.0415 57.4006 59.439 57.2048L58.8429 57.0112C58.2404 56.8154 57.7153 56.4339 57.3429 55.9214L56.9746 55.4143C56.6022 54.9018 56.4016 54.2845 56.4016 53.651V53.0242C56.4016 52.3907 56.6022 51.7734 56.9746 51.2609L57.3429 50.7538C57.7153 50.2413 58.2404 49.8598 58.8429 49.664L59.439 49.4703ZM59.4016 53.651L59.77 54.158L60.3661 54.3517L60.9621 54.158L61.3305 53.651V53.0242L60.9621 52.5172L60.3661 52.3235L59.77 52.5172L59.4016 53.0242V53.651Z" fill="#536666"/>
<path fill-rule="evenodd" clip-rule="evenodd" d="M46.252 67.4313C46.817 68.0372 46.7838 68.9863 46.1779 69.5513C42.1019 73.352 39.5564 78.7648 39.5564 84.7744C39.5564 87.0885 39.9335 89.3117 40.6288 91.3877H80.1036C80.7989 89.3117 81.176 87.0885 81.176 84.7744C81.176 78.7648 78.6305 73.352 74.5545 69.5513C73.9486 68.9863 73.9154 68.0372 74.4804 67.4313C75.0453 66.8254 75.9945 66.7922 76.6004 67.3572C81.2595 71.7015 84.176 77.8986 84.176 84.7744C84.176 87.8265 83.601 90.7478 82.5521 93.4334C82.3273 94.0089 81.7727 94.3877 81.1549 94.3877H39.5775C38.9597 94.3877 38.4051 94.0089 38.1803 93.4334C37.1314 90.7478 36.5564 87.8265 36.5564 84.7744C36.5564 77.8986 39.4729 71.7015 44.132 67.3572C44.7379 66.7922 45.6871 66.8254 46.252 67.4313Z" fill="#536666"/>
<path fill-rule="evenodd" clip-rule="evenodd" d="M81.1548 70.5774C81.1548 76.2563 78.1126 80.7182 76.5914 82.2394C72.8254 81.7686 66.4369 80.0358 62.9042 76.4247C61.9933 76.9 60.9575 77.1688 59.859 77.1688C58.8956 77.1688 57.9806 76.9621 57.1557 76.5907C53.592 80.0891 47.3421 81.776 43.6342 82.2394C42.113 80.7183 39.0708 76.2564 39.0708 70.5775C39.0708 64.8986 42.4511 60.7747 44.1412 59.4226C47.7034 59.7673 53.6874 61.237 57.1536 64.5647C57.979 64.1927 58.8948 63.9857 59.859 63.9857C60.9574 63.9857 61.993 64.2544 62.9038 64.7296C66.3416 61.2854 72.4639 59.7729 76.0844 59.4225C77.7745 60.7746 81.1548 64.8986 81.1548 70.5774Z" fill="#96DAD7"/>
<path fill-rule="evenodd" clip-rule="evenodd" d="M62.9042 76.4248C66.4369 80.0359 72.8254 81.7687 76.5915 82.2394C78.1126 80.7183 81.1548 76.2564 81.1548 70.5775C81.1548 64.8986 77.7746 60.7747 76.0844 59.4226C72.4639 59.773 66.3416 61.2855 62.9038 64.7297C61.993 64.2545 60.9574 63.9858 59.859 63.9858C58.8948 63.9858 57.979 64.1928 57.1536 64.5648C53.6874 61.2371 47.7034 59.7674 44.1412 59.4227C42.4511 60.7748 39.0708 64.8987 39.0708 70.5776C39.0708 76.2564 42.113 80.7184 43.6342 82.2395C47.3421 81.776 53.592 80.0892 57.1557 76.5908C57.9806 76.9622 58.8956 77.1689 59.859 77.1689C60.9575 77.1689 61.9934 76.9001 62.9042 76.4248ZM44.8442 79.0092C46.2257 78.7436 47.8223 78.328 49.4055 77.7406C51.6695 76.9006 53.6901 75.7889 55.0541 74.45L56.5174 73.0134L58.3873 73.8553C58.8326 74.0558 59.3285 74.1689 59.859 74.1689C60.4629 74.1689 61.0237 74.0222 61.5163 73.7651L63.491 72.7346L65.0487 74.3269C66.3875 75.6954 68.4166 76.8372 70.716 77.7016C72.3328 78.3094 73.9691 78.7376 75.3814 79.0092C76.5972 77.3005 78.1548 74.2262 78.1548 70.5775C78.1548 66.9277 76.3649 64.0549 75.048 62.5795C73.6638 62.7986 72.0351 63.1757 70.4249 63.7446C68.2337 64.5188 66.3067 65.5671 65.0271 66.849L63.4701 68.409L61.5161 67.3894C61.0235 67.1324 60.4628 66.9858 59.859 66.9858C59.3281 66.9858 58.8318 67.0991 58.3862 67.2999L56.5382 68.1327L55.0759 66.7289C53.7722 65.4772 51.8533 64.4589 49.6972 63.7084C48.1203 63.1596 46.5317 62.7939 45.1776 62.5795C43.8607 64.0549 42.0708 66.9278 42.0708 70.5776C42.0708 74.2263 43.6285 77.3005 44.8442 79.0092Z" fill="#536666"/>
<circle cx="59.859" cy="70.5773" r="6.59153" fill="#96DAD7"/>
<path fill-rule="evenodd" clip-rule="evenodd" d="M59.859 74.1688C61.8425 74.1688 63.4505 72.5609 63.4505 70.5773C63.4505 68.5938 61.8425 66.9858 59.859 66.9858C57.8754 66.9858 56.2675 68.5938 56.2675 70.5773C56.2675 72.5609 57.8754 74.1688 59.859 74.1688ZM59.859 77.1688C63.4994 77.1688 66.4505 74.2177 66.4505 70.5773C66.4505 66.9369 63.4994 63.9858 59.859 63.9858C56.2186 63.9858 53.2675 66.9369 53.2675 70.5773C53.2675 74.2177 56.2186 77.1688 59.859 77.1688Z" fill="#536666"/>
</svg>
