<svg width="120" height="120" viewBox="0 0 120 120" fill="none" xmlns="http://www.w3.org/2000/svg">
<rect width="120" height="120" rx="60" fill="#FAFAFC"/>
<g clip-path="url(#clip0_2506_32082)">
<path d="M79.6952 37.4806C79.6952 35.3148 77.9332 33.5528 75.7675 33.5528H64.5788C63.8886 33.5528 63.3288 34.1124 63.3288 34.8028C63.3288 35.4931 63.8886 36.0528 64.5788 36.0528H75.7675C76.5547 36.0528 77.1952 36.6933 77.1952 37.4806V76.4958H70.9938C70.3036 76.4958 69.7438 77.0554 69.7438 77.7458V83.9471H44.2316C43.4443 83.9471 42.8037 83.3066 42.8037 82.5194V37.4806C42.8037 36.6933 43.4443 36.0528 44.2316 36.0528H55.6671C56.3575 36.0528 56.9171 35.4931 56.9171 34.8028C56.9171 34.1124 56.3575 33.5528 55.6671 33.5528H44.2316C42.0657 33.5528 40.3037 35.3148 40.3037 37.4806V82.5194C40.3037 84.6851 42.0657 86.4471 44.2316 86.4471H75.7675C77.9332 86.4471 79.6952 84.6851 79.6952 82.5194V37.4806ZM72.2437 78.9958H75.4275L72.2437 82.1794V78.9958ZM75.7675 83.9471H74.0116L77.1952 80.7636V82.5194C77.1952 83.3066 76.5547 83.9471 75.7675 83.9471Z" fill="#536666"/>
<path d="M55.7719 44.8848L52.446 50.8307H49.2538C48.5634 50.8307 48.0038 51.3904 48.0038 52.0807C48.0038 52.7711 48.5634 53.3307 49.2538 53.3307H53.179C53.6317 53.3307 54.0489 53.086 54.27 52.691L56.3987 48.8856L58.4783 57.4649C58.5949 57.9456 58.9839 58.3124 59.4705 58.4004C59.5449 58.4137 59.6194 58.4204 59.6933 58.4204C60.1029 58.4204 60.4927 58.2186 60.7277 57.8717L64.2225 52.7166L64.9804 54.2001C65.1915 54.6137 65.6148 54.8761 66.0792 54.8815L70.7317 54.9351C71.4208 54.937 71.9882 54.3899 71.9959 53.6996C72.0039 53.0094 71.4508 52.4432 70.7604 52.4352L66.8632 52.3904L65.4873 49.6969C65.2863 49.3034 64.8923 49.0451 64.4513 49.0179C64.0112 48.9915 63.5877 49.1983 63.3394 49.5641L60.2427 54.132L58.0777 45.2005C57.9565 44.7009 57.5418 44.3263 57.0324 44.2565C56.5222 44.1868 56.0228 44.436 55.7719 44.8848Z" fill="#96DAD7"/>
<path d="M49.418 29.25V31.2735C49.418 35.5645 52.8966 39.0431 57.1876 39.0431H62.811C67.102 39.0431 70.5806 35.5645 70.5806 31.2735V29.25H49.418Z" fill="#96DAD7"/>
<path fill-rule="evenodd" clip-rule="evenodd" d="M47.5 65C47.5 64.1716 48.1716 63.5 49 63.5L72 63.5C72.8284 63.5 73.5 64.1716 73.5 65C73.5 65.8284 72.8284 66.5 72 66.5L49 66.5C48.1716 66.5 47.5 65.8284 47.5 65Z" fill="#536666"/>
<path fill-rule="evenodd" clip-rule="evenodd" d="M47.5 72C47.5 71.1716 48.1716 70.5 49 70.5H51C51.8284 70.5 52.5 71.1716 52.5 72C52.5 72.8284 51.8284 73.5 51 73.5H49C48.1716 73.5 47.5 72.8284 47.5 72Z" fill="#96DAD7"/>
<path fill-rule="evenodd" clip-rule="evenodd" d="M54.5 72C54.5 71.1716 55.1716 70.5 56 70.5H58C58.8284 70.5 59.5 71.1716 59.5 72C59.5 72.8284 58.8284 73.5 58 73.5H56C55.1716 73.5 54.5 72.8284 54.5 72Z" fill="#96DAD7"/>
<path fill-rule="evenodd" clip-rule="evenodd" d="M61.5 72C61.5 71.1716 62.1716 70.5 63 70.5H65C65.8284 70.5 66.5 71.1716 66.5 72C66.5 72.8284 65.8284 73.5 65 73.5H63C62.1716 73.5 61.5 72.8284 61.5 72Z" fill="#96DAD7"/>
<path fill-rule="evenodd" clip-rule="evenodd" d="M68.5 72C68.5 71.1716 69.1716 70.5 70 70.5H72C72.8284 70.5 73.5 71.1716 73.5 72C73.5 72.8284 72.8284 73.5 72 73.5H70C69.1716 73.5 68.5 72.8284 68.5 72Z" fill="#96DAD7"/>
<path d="M78.8778 92H41.121C37.6069 92 34.748 89.141 34.748 85.627V34.373C34.748 30.859 37.607 28 41.121 28H78.8777C82.3918 28 85.2507 30.859 85.2507 34.373V85.6269C85.2508 89.141 82.3919 92 78.8778 92ZM41.121 30.5C38.9854 30.5 37.248 32.2374 37.248 34.373V85.6269C37.248 87.7625 38.9854 89.4999 41.121 89.4999H78.8777C81.0133 89.4999 82.7507 87.7625 82.7507 85.6269V34.373C82.7507 32.2374 81.0133 30.5 78.8777 30.5H41.121Z" fill="#536666"/>
</g>
<defs>
<clipPath id="clip0_2506_32082">
<rect width="64" height="64" fill="white" transform="translate(28 28)"/>
</clipPath>
</defs>
</svg>
