<svg width="120" height="120" viewBox="0 0 120 120" fill="none" xmlns="http://www.w3.org/2000/svg">
<rect width="120" height="120" rx="60" fill="#FAFAFC"/>
<path d="M53.9004 43.8992C50.6896 37.8155 51.3656 30.0982 52.2105 27C53.9709 28.1266 58.5483 28.4787 60.2376 27.2112C59.956 28.6899 59.3504 31.943 60.0264 35.6608C60.8714 40.3081 63.6169 43.688 68.4754 39.2519C73.334 34.8159 81.7836 36.5058 86.8533 41.9981C91.9231 47.4903 95.3029 62.6996 86.8533 75.5853C78.4037 88.4709 67.208 89.9496 58.1247 86.9922C49.0413 84.0349 47.7739 78.9651 41.4367 80.655C36.3669 82.007 35.3815 89.5271 35.7336 93.9632C34.8182 92.8365 30.2415 92.2732 28.1289 93.1182C27.7768 90.7945 28.1291 84.8798 29.3963 80.655C32.4168 70.5849 39.958 70.5155 42.9154 70.5155C45.8727 70.5155 53.0547 73.4728 57.4909 69.8818C61.9272 66.2907 63.1944 61.6434 62.7719 57.4186C62.3495 53.1938 57.914 51.5039 53.9004 43.8992Z" fill="#536666"/>
<path fill-rule="evenodd" clip-rule="evenodd" d="M55.9062 30.2192C56.7287 30.3179 57.3155 31.0647 57.2168 31.8872C56.8436 34.9975 57.8295 40.949 62.5594 45.8366C65.0962 48.4579 67.3647 49.759 69.448 50.9539C69.8242 51.1697 70.1943 51.382 70.5589 51.5979C71.7457 52.3009 72.9158 53.0711 73.9297 54.1512C74.961 55.2498 75.7767 56.6089 76.3663 58.4368C77.3335 61.4351 76.996 64.3889 76.2378 66.8034C75.4824 69.2095 74.278 71.1849 73.3517 72.3126C72.8259 72.9527 71.8807 73.0454 71.2405 72.5196C70.6004 71.9937 70.5077 71.0485 71.0335 70.4084C71.7267 69.5645 72.7404 67.9277 73.3756 65.9047C74.0081 63.8903 74.2339 61.5982 73.5112 59.3578C73.0446 57.9114 72.4422 56.9498 71.7424 56.2044C71.0253 55.4405 70.1513 54.8433 69.0299 54.1791C68.7023 53.985 68.3569 53.7874 67.9956 53.5808C65.8954 52.3796 63.2554 50.8697 60.4036 47.9228C54.994 42.3329 53.7664 35.4608 54.2382 31.5298C54.3369 30.7072 55.0837 30.1205 55.9062 30.2192Z" fill="#96DAD7"/>
<path d="M71.8562 69.8816C68.6454 69.2056 68.2651 71.2899 68.4764 72.4165L52.2109 82.556C53.76 83.8235 58.6326 86.4429 65.7303 86.7808C72.828 87.1188 78.4047 82.9785 80.3059 80.8661L74.3912 73.4727C74.884 72.5573 75.0671 70.5576 71.8562 69.8816Z" fill="white"/>
<ellipse cx="71.3987" cy="72.9052" rx="1.78068" ry="1.33551" transform="rotate(14.2724 71.3987 72.9052)" fill="#96DAD7"/>
</svg>
