<svg width="120" height="120" viewBox="0 0 120 120" fill="none" xmlns="http://www.w3.org/2000/svg">
<rect width="120" height="120" rx="60" fill="#FAFAFC"/>
<path fill-rule="evenodd" clip-rule="evenodd" d="M84.8491 33.1357C84.4755 32.632 83.8975 32.0537 83.154 31.6742C82.2098 31.1923 80.9886 31.0366 79.7177 31.7634C78.3945 32.5201 77.4957 33.4973 76.9635 34.6133C76.5927 35.3908 76.4142 36.2051 76.3733 37.0136C75.7976 37.0566 75.1867 37.2304 74.5644 37.5862C73.3931 38.2561 72.7734 39.3038 72.4631 40.3021C71.8151 40.2279 71.0697 40.214 70.3605 40.3395C69.3282 40.5222 68.1172 41.0679 67.6875 42.4012C67.402 42.3642 67.0952 42.3463 66.7797 42.3588C65.9635 42.3913 64.9821 42.6344 64.2131 43.404C63.9736 43.6437 63.7893 43.8994 63.6528 44.163C63.2786 44.0665 62.866 43.9879 62.4443 43.9507C61.5868 43.875 60.4508 43.9505 59.607 44.6894C59.5589 44.7316 59.5125 44.7744 59.4677 44.818C58.5591 44.5129 57.2367 44.386 55.9582 45.1725C55.0376 44.5628 53.541 44.0259 51.7173 44.4701C51.6507 44.4864 51.5854 44.5034 51.5213 44.5213C50.9124 43.8096 49.8543 43.1109 48.2968 43.1109C47.8182 43.1109 47.3798 43.1777 46.9833 43.2909C46.704 42.9699 46.3519 42.6381 45.9361 42.3533C45.1927 41.8442 44.1774 41.4425 42.9913 41.6251C42.8268 41.6505 42.6677 41.6804 42.5138 41.7144C42.1811 41.3491 41.7644 40.9818 41.2796 40.6841C40.756 40.3626 40.1209 40.1043 39.4127 40.0461C38.8244 38.5742 37.1439 36.8684 33.7393 36.625C31.6248 36.4739 30.2018 37.1418 29.4244 38.3058C28.962 38.9982 28.792 39.7748 28.7746 40.4621C28.2271 40.6079 27.6974 40.8599 27.2473 41.259C26.4939 41.9267 26.0843 42.8989 26.0843 44.1109C26.0843 45.1688 26.4205 46.0471 26.9985 46.735C27.1533 46.9192 27.3219 47.0857 27.5008 47.2363C26.9996 48.0316 26.8623 49.0013 26.8833 49.8047C26.8996 50.4304 27.0101 51.0485 27.1821 51.5851C27.2238 51.7151 27.2709 51.8462 27.3239 51.9755C26.5383 52.598 25.9726 53.5118 25.8723 54.6723C25.7389 56.2156 26.182 57.3907 26.735 58.1666C26.2477 58.756 25.9634 59.484 25.8744 60.3075C25.7626 61.3419 25.9656 62.1636 26.3096 62.7629C25.8774 63.1527 25.5243 63.6169 25.2772 64.1601C24.8687 65.058 24.9684 65.9352 25.2131 66.6114C25.3288 66.9312 25.4815 67.2208 25.6445 67.4701C25.4475 67.8453 25.2961 68.2568 25.2068 68.7037C24.8439 70.52 25.333 71.9636 25.8958 72.8337C25.4957 73.7199 25.345 74.7024 25.4959 75.775C25.6802 77.0854 26.3059 78.4746 27.3666 79.9614C29.2777 82.6403 33.3055 83.3163 36.9873 81.1375C37.3784 81.7843 37.8536 82.496 38.3435 83.0929C38.7113 83.5411 39.1407 83.9913 39.5953 84.2828C40.0154 84.5522 40.8119 84.8911 41.564 84.3534C42.2952 83.8307 42.3789 82.9381 42.3557 82.3513C42.3298 81.6952 42.154 80.9619 41.9343 80.2801C41.6174 79.2971 41.1605 78.2763 40.7462 77.5266C40.8339 77.4405 40.9288 77.3459 41.0251 77.2459C41.3978 76.8586 41.839 76.3428 42.1819 75.682C42.9041 74.2899 43.0889 72.4481 41.8698 70.1021C41.4479 69.2902 40.8742 68.6991 40.2322 68.3069C40.2515 67.4924 40.1154 66.3553 39.5032 65.3752C39.3974 65.2057 39.2739 65.0577 39.1397 64.9286C39.1397 64.5526 39.1109 64.1088 39.0326 63.6523C38.9444 63.1382 38.7822 62.5411 38.4788 61.9976C38.7729 61.2349 38.9389 60.1093 38.4875 58.8947C38.7194 58.5563 38.9452 58.1386 39.1056 57.668C39.3732 56.8831 39.48 55.8807 39.0368 54.8593C38.7701 54.2449 38.4133 53.7549 37.9974 53.3774C36.8655 52.3497 35.4579 52.2822 34.6354 52.4468C34.0938 52.5552 33.7427 53.0821 33.8511 53.6236C33.9595 54.1652 34.4864 54.5163 35.0279 54.4079C35.4216 54.3291 36.1202 54.3744 36.6531 54.8582C36.8479 55.035 37.0424 55.2877 37.2021 55.6555C37.3942 56.0982 37.3685 56.5654 37.2126 57.0226C37.2015 57.0551 37.1899 57.0873 37.1778 57.1189C36.7595 56.8278 36.3022 56.6527 35.8639 56.5589C35.0424 56.383 34.2425 56.4774 33.7255 56.6253C33.1945 56.7771 32.8872 57.3307 33.039 57.8617C33.1909 58.3927 33.7444 58.7 34.2754 58.5482C34.5343 58.4741 34.9978 58.4188 35.4452 58.5145C35.865 58.6044 36.2188 58.8106 36.4472 59.2297C36.7103 59.7123 36.7806 60.1739 36.7626 60.5591C36.4185 60.4397 36.0736 60.3745 35.7654 60.3402C35.0066 60.2556 34.2654 60.3335 33.7908 60.4352C33.2508 60.551 32.9069 61.0827 33.0227 61.6227C33.1385 62.1627 33.6701 62.5066 34.2102 62.3908C34.5113 62.3262 35.0336 62.271 35.5438 62.3279C36.0784 62.3875 36.4097 62.5469 36.5657 62.7291C36.7951 62.9969 36.9674 63.4425 37.0614 63.9905C37.0645 64.0089 37.0676 64.0272 37.0705 64.0456C36.8686 64.0173 36.6715 63.9998 36.4853 63.9897C35.7977 63.9523 35.1328 64.0091 34.6672 64.0867C34.2288 64.1598 33.9049 64.5077 33.8425 64.9247C33.8386 64.8007 33.8368 64.6837 33.8368 64.5741C33.8368 64.0218 33.3891 63.5741 32.8368 63.5741C32.2845 63.5741 31.8368 64.0219 31.8368 64.5742C31.8368 64.6014 31.8369 64.629 31.8371 64.6569C31.688 64.5248 31.498 64.4358 31.285 64.4121C30.4927 64.324 29.5179 64.5082 28.6152 64.8864C28.0859 65.1081 27.5458 65.4113 27.0525 65.8023C26.9741 65.5206 26.9792 65.2487 27.0977 64.9882C27.3077 64.5265 27.6957 64.12 28.3092 63.7928C29.0189 63.4142 30.0029 63.159 31.241 63.0764C31.7921 63.0396 32.209 62.5631 32.1722 62.0121C32.1355 61.461 31.6589 61.0441 31.1079 61.0808C29.9748 61.1564 28.9262 61.3629 28.0212 61.7254C27.9049 61.5081 27.7967 61.1343 27.8628 60.5224C27.9392 59.8154 28.229 59.3677 28.7094 59.0685C29.263 58.7237 30.1879 58.5057 31.6177 58.5852C32.1691 58.6158 32.641 58.1937 32.6716 57.6422C32.7023 57.0908 32.2801 56.6189 31.7287 56.5883C30.4495 56.5171 29.3081 56.6377 28.3678 57.0117C28.087 56.6201 27.7724 55.9147 27.8649 54.8446C27.9297 54.0942 28.3862 53.5392 29.0807 53.2363C29.8911 52.8829 30.9538 52.9175 31.8137 53.4471C32.284 53.7368 32.9 53.5903 33.1896 53.1201C33.4792 52.6498 33.3328 52.0338 32.8625 51.7442C31.7108 51.0349 30.3513 50.8527 29.1383 51.1242C29.121 51.0776 29.1037 51.0277 29.0866 50.9746C28.9718 50.6165 28.8939 50.1862 28.8826 49.7525C28.8641 49.0437 29.0175 48.5194 29.2709 48.1987C30.4452 48.5963 31.7381 48.6882 32.759 48.6461C32.8442 48.7749 32.9357 48.9049 33.034 49.036C33.8301 50.0983 34.8837 50.5178 35.8459 50.5937C36.3439 50.6329 36.8195 50.5816 37.2354 50.4853C37.6231 51.0893 38.1577 51.6862 38.8855 52.2332C40.9454 53.7816 43.3389 53.7718 44.7941 53.4739C45.1353 53.9074 45.5757 54.3 46.1303 54.6237C47.2625 55.2846 48.5427 55.18 49.541 54.9048C50.174 54.7303 50.7637 54.4693 51.2494 54.2028C51.4846 54.3899 51.7559 54.552 52.0654 54.6821C53.6208 55.3354 55.0093 54.85 55.9034 54.2646C56.066 54.3909 56.2437 54.5109 56.437 54.6237C57.5655 55.2825 58.8064 55.1833 59.7756 54.9008C60.4128 54.7151 60.9972 54.4331 61.4674 54.1489C61.596 54.223 61.7321 54.2904 61.8758 54.3504C63.0291 54.8312 64.2204 54.5725 65.1184 54.193C65.7712 53.9172 66.356 53.5427 66.8037 53.1939C67.317 53.3195 67.897 53.3606 68.5436 53.3175C69.5167 53.2527 70.3273 52.9726 70.9068 52.4243C71.1067 52.2352 71.2645 52.0281 71.3869 51.8108C72.3558 51.945 73.6814 51.8181 75.1084 51.0334C75.1238 51.0634 75.1394 51.0931 75.1554 51.1224C74.3199 51.8986 73.9918 52.8398 74.0112 53.7607C74.0254 54.4348 74.2232 55.057 74.4738 55.5619C74.3319 55.766 74.2127 55.9944 74.121 56.2468C73.6549 57.5295 73.8942 58.6051 74.3083 59.3453C74.026 59.7399 73.8243 60.2133 73.74 60.762C73.486 62.4138 74.1193 63.5957 74.8039 64.2742C74.7528 64.5296 74.7258 64.7966 74.7258 65.0731C74.7258 66.4836 75.1956 67.5264 75.7299 68.1856C75.5137 68.697 75.3907 69.2741 75.3907 69.8977C75.3907 71.4093 75.8783 72.5294 76.4475 73.2576C75.7709 74.0635 75.7694 75.1706 75.8683 75.9496C75.9374 76.4936 76.075 77.0265 76.2237 77.4736C75.9584 77.8046 75.7679 78.1719 75.6351 78.5262C75.3004 78.5562 74.9562 78.6476 74.6133 78.8191C74.1072 79.0724 73.7371 79.4246 73.4699 79.8133C73.2527 79.6575 73.0032 79.5256 72.7175 79.4303C71.7836 79.1187 70.9387 79.3427 70.3196 79.6883C70.2595 79.7219 70.2008 79.7569 70.1437 79.7931C69.7211 79.264 69.1151 78.8083 68.3069 78.4616C67.1105 77.9485 66.0612 77.86 65.1812 78.0855C63.011 75.5324 60.3094 75.0532 58.5278 74.8911C57.4142 74.7897 55.2123 75.081 53.2621 76.2062C51.2472 77.3686 49.4579 79.4572 49.4579 82.8744C49.4579 86.0853 50.4466 88.0767 51.7056 89.2596C52.1981 89.7224 52.7152 90.0452 53.1991 90.2657C53.0814 90.5028 52.973 90.7583 52.8751 91.0245C52.505 92.0318 52.2423 93.3129 52.2423 94.6033C52.2423 95.8848 52.5023 97.2741 53.2813 98.4045C54.0894 99.5772 55.3816 100.361 57.1927 100.508C58.625 100.624 59.8076 100.301 60.7281 99.6118C61.6331 98.9341 62.1885 97.9746 62.5194 96.9827C63.0575 95.3697 63.0604 93.5012 62.8799 92.0385C63.4427 91.6421 63.8893 90.9003 64.0757 89.8742C64.2053 89.1612 64.1074 88.4794 63.9165 87.8861C63.9975 87.993 64.0842 88.0983 64.1769 88.2013C65.0286 89.1485 66.2864 89.4642 67.3224 89.5484C68.1221 89.6133 68.9091 89.5506 69.5293 89.4477C70.3092 90.125 71.3519 90.6307 72.6859 90.6943C75.3284 90.8202 77.0132 89.4731 77.8439 88.3087C78.1695 88.3955 78.5238 88.4675 78.909 88.5226C80.7427 88.7848 82.0174 87.9472 82.7863 86.8525C83.3048 86.1143 83.6027 85.2574 83.7544 84.5172C85.7992 84.1414 86.7299 82.5719 87.0742 81.0509C87.3489 79.838 87.2944 78.532 87.1356 77.5169C88.0555 76.8053 88.9343 75.743 89.0253 74.2856C89.1427 72.4055 88.5944 71.0481 87.9913 70.274C88.0749 69.7948 88.0864 69.249 88.0249 68.6337C87.8805 67.1885 87.5153 66.1433 87.0566 65.4141C86.8822 65.1369 86.6864 64.8942 86.4765 64.6938C86.6112 64.2955 86.7 63.8618 86.7 63.4094C86.7 62.2058 86.1269 61.3347 85.5322 60.782C86.0542 59.5338 85.726 58.2687 85.3045 57.4431C85.4833 56.8248 85.5014 56.1901 85.4513 55.6336C85.4058 55.1292 85.3007 54.6483 85.1737 54.2358C85.6301 53.3337 85.5643 52.3755 85.3546 51.6497C86.5732 50.0887 86.3161 48.2752 85.8481 47.1379C86.0762 46.5961 86.0928 46.0469 86.0117 45.5716C86.3065 45.3441 86.5876 45.0534 86.8457 44.6927C87.5138 43.759 87.5624 42.7536 87.3777 41.9365C87.2926 41.5602 87.1568 41.2134 87.0015 40.9109C87.9267 39.8848 88.2488 38.5853 88.3582 37.3802C88.473 36.117 87.9894 35.1513 87.1974 34.4437C86.5425 33.8584 85.6853 33.4557 84.8491 33.1357ZM85.3429 42.0974C85.0738 42.2181 84.7859 42.3226 84.4788 42.4104C84.2591 42.4732 84.0356 42.4574 83.8383 42.3798C83.8211 42.4421 83.7975 42.5037 83.7673 42.5637C83.2391 43.614 82.3096 44.9777 81.0812 45.9608C80.2697 46.6102 79.2677 47.1346 78.1449 47.233C78.1961 47.2699 78.2505 47.3004 78.308 47.3247C78.5393 47.422 79.0043 47.4947 79.8579 47.1692C80.374 46.9725 80.9518 47.2313 81.1486 47.7474C81.3453 48.2634 81.0865 48.8413 80.5704 49.038C79.4072 49.4815 78.3834 49.5263 77.5321 49.168C77.4488 49.1329 77.369 49.0948 77.2924 49.0538C77.1435 49.2951 76.9617 49.538 76.7431 49.7768C76.977 50.4638 77.4013 50.8384 77.8473 51.0586C78.4462 51.3541 79.1414 51.3914 79.5746 51.3297C80.1213 51.2519 80.6277 51.632 80.7055 52.1788C80.7833 52.7256 80.4031 53.2319 79.8564 53.3097C79.118 53.4148 77.9988 53.3636 76.9622 52.852C76.8078 52.7759 76.6565 52.6899 76.5095 52.5937C76.0957 52.9812 76.0035 53.3764 76.0107 53.7186C76.0157 53.9521 76.0697 54.1879 76.1498 54.4054C76.6885 54.2583 77.2444 54.2487 77.736 54.3232C78.5175 54.4416 79.4045 54.8168 79.8828 55.5348C80.1889 55.9945 80.0645 56.6153 79.6049 56.9215C79.1453 57.2277 78.5244 57.1033 78.2183 56.6436C78.1744 56.5778 77.9242 56.3745 77.4365 56.3006C76.98 56.2315 76.567 56.319 76.3128 56.5033C76.1846 56.5963 76.0742 56.7276 76.0007 56.9299C75.8169 57.4357 75.8508 57.8397 75.9469 58.1294C76.4341 57.9516 76.9467 57.8739 77.4329 57.8792C78.2255 57.8878 79.0751 58.12 79.7017 58.6576C80.1208 59.0173 80.1691 59.6486 79.8095 60.0677C79.4498 60.4869 78.8185 60.5352 78.3994 60.1755C78.2225 60.0238 77.8724 59.8841 77.4111 59.879C76.9601 59.8741 76.5266 60.001 76.2199 60.2246C75.9635 60.4116 75.7767 60.676 75.7168 61.0658C75.634 61.6043 75.7171 62.023 75.855 62.3336C76.2051 61.9985 76.6167 61.7458 77.0594 61.5978C77.9478 61.3009 78.986 61.4313 79.7578 62.2036C80.1482 62.5942 80.148 63.2274 79.7574 63.6178C79.3667 64.0082 78.7336 64.008 78.3432 63.6173C78.1835 63.4575 77.9706 63.402 77.6934 63.4946C77.3975 63.5935 77.0667 63.8638 76.8773 64.3038C76.7846 64.5191 76.7258 64.7761 76.7258 65.0731C76.7258 65.7179 76.8681 66.1954 77.0325 66.5282C77.4332 66.237 77.8847 66.0322 78.3587 65.9368C79.2419 65.7591 80.1969 65.9704 80.9215 66.6955C81.3119 67.0862 81.3117 67.7193 80.921 68.1097C80.5304 68.5001 79.8972 68.4999 79.5068 68.1092C79.3052 67.9075 79.0517 67.8375 78.7532 67.8975C78.435 67.9615 78.0689 68.1812 77.7919 68.5698C77.5561 68.9004 77.3907 69.3474 77.3907 69.8977C77.3907 70.9099 77.6932 71.5678 77.9648 71.9472C78.36 71.7334 78.8119 71.5829 79.3294 71.5499C80.1956 71.4946 81.1008 71.7777 82.0685 72.3736C82.5387 72.6632 82.6851 73.2792 82.3955 73.7495C82.1059 74.2197 81.4899 74.3662 81.0197 74.0765C80.2746 73.6177 79.7803 73.5252 79.4568 73.5458C79.1445 73.5658 78.8535 73.6997 78.5236 73.9833C78.3476 74.1346 78.1702 74.3207 77.9814 74.5411C77.875 74.6653 77.7664 75.0203 77.8524 75.6977C77.8828 75.9372 77.9329 76.1791 77.9925 76.4077C78.7876 76.2719 79.7022 76.4601 80.6964 77.0073C81.1802 77.2736 81.3565 77.8817 81.0902 78.3656C80.8239 78.8494 80.2158 79.0257 79.732 78.7594C79.1755 78.4532 78.782 78.3681 78.5239 78.3655C78.281 78.363 78.115 78.4318 77.9841 78.529C77.8329 78.6411 77.703 78.8136 77.6016 79.0134C78.2499 79.3935 78.745 79.9119 79.0196 80.2783C79.3508 80.7202 79.261 81.347 78.819 81.6782C78.3771 82.0094 77.7503 81.9196 77.4191 81.4777C77.1609 81.1331 76.6466 80.676 76.1446 80.5485C75.9206 80.4916 75.7173 80.5031 75.5083 80.6077C75.1881 80.7679 74.9916 81.0611 74.8907 81.4843C74.8405 81.6947 74.8215 81.9125 74.8217 82.112C74.8756 82.3976 74.8972 82.6604 74.8972 82.8744C74.8972 83.3859 74.5111 83.815 74.0025 83.8688C73.4938 83.9227 73.0265 83.584 72.9193 83.0838C72.8753 82.878 72.8405 82.6269 72.8274 82.3487C72.7949 82.2156 72.7496 82.0762 72.6885 81.9427C72.5377 81.6127 72.338 81.412 72.0846 81.3275C71.8216 81.2397 71.5654 81.2834 71.2944 81.4347C71.1419 81.5198 71.0058 81.6289 70.896 81.7354C70.9767 82.9054 70.4954 83.9783 70.0681 84.6033C69.8508 84.9211 69.4827 85.0742 69.1252 85.0322C69.3466 85.1772 69.5105 85.4093 69.5615 85.6902C69.6529 86.193 69.9664 87.0256 70.5782 87.6836C71.0829 88.2263 71.785 88.6491 72.7811 88.6966C74.3661 88.7721 75.4007 88.0882 75.9731 87.4536C75.054 86.7734 74.6595 85.8883 74.7299 85.1131C74.7798 84.563 75.2662 84.1577 75.8162 84.2076C76.3663 84.2576 76.7716 84.744 76.7217 85.294C76.7224 85.2863 76.7226 85.2826 76.7231 85.2826C76.7284 85.2823 76.7596 85.7631 77.7695 86.1797C78.1201 86.3243 78.5843 86.4558 79.192 86.5427C80.1511 86.6798 80.7327 86.2966 81.1496 85.703C81.3938 85.3554 81.5708 84.9416 81.6901 84.5374C81.2534 84.4407 80.8689 84.2662 80.5491 84.006C79.9361 83.5074 79.7129 82.8184 79.7129 82.2089C79.7129 81.6566 80.1606 81.2089 80.7129 81.2089C81.2652 81.2089 81.7129 81.6566 81.7129 82.2089C81.7129 82.339 81.7524 82.4067 81.8112 82.4545C81.8855 82.515 82.1436 82.6641 82.8118 82.6225C82.9753 82.6124 83.1599 82.5908 83.3674 82.5547C84.3507 82.3835 84.8775 81.6964 85.1236 80.6093C85.2703 79.9616 85.2922 79.2438 85.2455 78.584C84.9631 78.6971 84.6985 78.7849 84.4671 78.8481C83.9343 78.9935 83.3845 78.6795 83.2391 78.1467C83.0937 77.6139 83.4077 77.0641 83.9405 76.9186C84.3398 76.8097 84.9337 76.577 85.5009 76.2211C86.3882 75.6642 86.9792 74.9613 87.0292 74.161C87.0816 73.3213 86.9592 72.6878 86.7976 72.2368C86.7081 72.2934 86.6153 72.3433 86.5196 72.3868C85.9769 72.6331 85.4195 72.6345 84.9937 72.5353C84.4558 72.41 84.1214 71.8723 84.2467 71.3344C84.3721 70.7966 84.9097 70.4622 85.4476 70.5875C85.5192 70.6042 85.6163 70.6004 85.693 70.5656C85.7266 70.5503 85.7635 70.5263 85.8022 70.4833C85.8415 70.4397 85.896 70.3615 85.9458 70.2237C86.0349 69.9768 86.1059 69.544 86.0348 68.8326C85.9222 67.7053 85.6621 66.9962 85.4206 66.574C85.1787 66.8794 84.9415 67.1299 84.7499 67.3063C84.3435 67.6802 83.7109 67.6539 83.3369 67.2475C82.9629 66.8411 82.9892 66.2085 83.3957 65.8345C83.6327 65.6164 84.0409 65.1527 84.3409 64.5976C84.5718 64.1704 84.7 63.7606 84.7 63.4094C84.7 62.9684 84.5103 62.6159 84.2906 62.3665C84.008 62.5882 83.6853 62.7909 83.3214 62.9729C82.8275 63.2201 82.2268 63.02 81.9796 62.5261C81.7325 62.0322 81.9326 61.4314 82.4265 61.1843C82.9215 60.9366 83.2327 60.673 83.4287 60.4326C83.685 60.1181 83.7902 59.7644 83.7962 59.4166C83.6211 59.5193 83.431 59.6102 83.2253 59.6874C82.7082 59.8814 82.1318 59.6196 81.9377 59.1025C81.7437 58.5854 82.0055 58.0089 82.5226 57.8149C82.9425 57.6573 83.1635 57.4116 83.2956 57.1249C83.4514 56.7869 83.5045 56.3365 83.4608 55.8295C83.1069 55.9966 82.7082 56.1316 82.2645 56.2325C81.726 56.355 81.1902 56.0177 81.0677 55.4792C80.9452 54.9407 81.2824 54.4048 81.821 54.2823C82.6842 54.086 83.0845 53.7671 83.2749 53.515C83.3593 53.4032 83.4191 53.2789 83.458 53.1478C83.406 53.1738 83.3531 53.1994 83.2995 53.2247C82.7997 53.4597 82.204 53.2451 81.969 52.7453C81.734 52.2455 81.9486 51.6498 82.4484 51.4148C82.9185 51.1937 83.2617 50.9516 83.5121 50.7117C84.1431 50.1073 84.2943 49.3703 84.22 48.7175C83.8833 48.8712 83.5029 48.993 83.0801 49.0821C82.5397 49.196 82.0093 48.8502 81.8954 48.3098C81.7816 47.7694 82.1274 47.239 82.6678 47.1251C83.4751 46.955 83.7936 46.6791 83.9188 46.5102C83.9833 46.4231 84.0228 46.33 84.0419 46.2302C83.6824 46.2156 83.3624 46.1315 83.1119 46.0132C82.6125 45.7774 82.3988 45.1814 82.6346 44.682C82.8705 44.1826 83.4665 43.9689 83.9659 44.2048C83.965 44.2043 84.0188 44.227 84.1184 44.2317C84.2111 44.236 84.3305 44.2239 84.4663 44.1729C84.6567 44.1014 84.9291 43.9342 85.2192 43.5289C85.482 43.1616 85.5165 42.7737 85.4269 42.3776C85.4051 42.2811 85.3763 42.1871 85.3429 42.0974ZM68.6949 84.8756C68.6893 84.872 68.6837 84.8683 68.6782 84.8645C68.2223 84.5528 68.1054 83.9305 68.4171 83.4746C68.7384 83.0046 69.0028 82.2653 68.8684 81.6425C68.7806 81.2358 68.4912 80.7169 67.5185 80.2997C66.673 79.9371 66.0877 79.922 65.6889 80.021C65.6341 80.0866 65.57 80.1462 65.4968 80.1979C65.3544 80.2983 65.1947 80.3564 65.0329 80.3745C64.7769 80.6113 64.6187 80.9129 64.5541 81.1454C64.4064 81.6776 63.8553 81.9893 63.3231 81.8415C62.7909 81.6938 62.4793 81.1427 62.627 80.6105C62.7512 80.1631 63.0113 79.6196 63.4432 79.1403C61.8095 77.3815 59.8566 77.0202 58.3466 76.8828C57.6316 76.8178 55.8438 77.0257 54.2615 77.9385C52.7439 78.8141 51.4579 80.3024 51.4579 82.8744C51.4579 85.6526 52.2978 87.0717 53.0751 87.802C53.8875 88.5654 54.7558 88.6954 54.9462 88.6954C55.4367 88.6954 55.8547 89.0511 55.9333 89.5351C56.0075 89.9921 55.7585 90.4363 55.339 90.6151C55.3197 90.634 55.2697 90.6858 55.1944 90.7979C55.0566 91.0028 54.9 91.3129 54.7524 91.7145C54.4576 92.5165 54.2423 93.5645 54.2423 94.6033C54.2423 95.6509 54.4603 96.5908 54.9281 97.2696C55.3667 97.9061 56.0901 98.4118 57.3544 98.5144C58.3824 98.5978 59.0603 98.3621 59.5293 98.0109C60.0137 97.6481 60.3768 97.0853 60.6222 96.3498C61.1227 94.8493 61.0404 92.9033 60.7799 91.5478C60.7181 91.2264 60.8176 90.895 61.0462 90.6607C61.2394 90.4627 61.5043 90.3552 61.7766 90.3592C61.8366 90.3 62.0043 90.0873 62.1079 89.5167C62.1896 89.067 62.0776 88.5601 61.8339 88.0555C61.6306 87.6345 61.3666 87.281 61.1681 87.0617C60.6659 86.8061 60.1999 86.4182 59.8531 85.8591C59.4647 85.2327 59.2658 84.4567 59.2658 83.5399C59.2658 82.9876 59.7135 82.5399 60.2658 82.5399C60.8181 82.5399 61.2658 82.9876 61.2658 83.5399C61.2658 84.1677 61.4004 84.5593 61.5528 84.8049C61.7024 85.0461 61.9078 85.2094 62.1616 85.32C62.3906 85.4199 62.6529 85.4731 62.9188 85.4912C62.7813 84.6434 62.8411 83.8803 62.9467 83.4041C63.0663 82.8649 63.6004 82.5247 64.1395 82.6443C64.6787 82.7639 65.0189 83.298 64.8993 83.8371C64.8135 84.2239 64.7683 85.1301 65.1203 85.9888C65.2477 86.2996 65.4242 86.5974 65.664 86.864C66.0091 87.2478 66.6425 87.4866 67.4843 87.555C67.6942 87.572 67.9047 87.5773 68.11 87.5738C67.8361 87.0151 67.6715 86.4761 67.5937 86.0477C67.495 85.5044 67.8555 84.9838 68.3989 84.8851C68.4991 84.8669 68.5986 84.8643 68.6949 84.8756ZM75.1323 48.5673C75.3702 48.3361 75.5309 48.1145 75.6383 47.9223C75.7444 47.7325 75.8014 47.5665 75.8296 47.4397C75.8414 47.3864 75.8479 47.3416 75.8511 47.3062C75.7834 47.1162 75.7323 46.9259 75.6955 46.741C75.2575 46.5213 74.8272 46.2297 74.406 45.8648C73.9886 45.5031 73.9434 44.8716 74.3051 44.4542C74.6667 44.0368 75.2983 43.9916 75.7157 44.3532C76.1643 44.7419 76.5777 44.9753 76.9491 45.1054C77.9351 45.4509 78.8988 45.1457 79.8315 44.3992C80.7733 43.6456 81.5404 42.5404 81.9805 41.6651C82.2148 41.1993 82.7637 40.996 83.2395 41.1835C83.3293 40.8587 83.5811 40.5869 83.9289 40.4875C84.4344 40.3429 84.8165 40.1509 85.11 39.9365C85.9123 39.3502 86.254 38.4364 86.3664 37.1993C86.4179 36.6325 86.2366 36.2672 85.8648 35.935C85.4883 35.5986 84.9236 35.3096 84.1827 35.0225C83.2815 35.3674 82.6887 36.0244 82.3 36.7787C81.8597 37.6331 81.7129 38.5616 81.7129 39.1198C81.7129 39.6721 81.2652 40.1198 80.7129 40.1198C80.3665 40.1198 80.0612 39.9437 79.8818 39.6761C79.8298 39.7538 79.7659 39.8254 79.6904 39.8883C79.266 40.2417 78.6354 40.1841 78.282 39.7597C78.112 39.5554 77.7371 39.2449 77.2491 39.0931C76.7979 38.9528 76.2289 38.9383 75.5573 39.3224C74.7325 39.794 74.3459 40.6699 74.2224 41.583C74.156 42.0736 74.1764 42.5138 74.22 42.7905C74.3061 43.336 73.9336 43.848 73.3881 43.9341C72.8425 44.0201 72.3305 43.6477 72.2445 43.1021C72.2072 42.8662 72.1831 42.5881 72.18 42.283C71.7022 42.2322 71.1762 42.2263 70.709 42.3089C69.9463 42.4439 69.6396 42.7351 69.5582 43.1423C69.5155 43.3562 69.4882 43.5435 69.4726 43.7067C69.4319 44.1339 69.4735 44.3675 69.507 44.4771C69.931 44.593 70.2426 44.981 70.2426 45.4417C70.2426 45.994 69.7949 46.4417 69.2426 46.4417C68.6882 46.4417 68.152 46.1319 67.8228 45.583C67.6235 45.2506 67.5081 44.8505 67.47 44.39C67.28 44.3632 67.0715 44.3488 66.8591 44.3573C66.3485 44.3776 65.9226 44.5226 65.6278 44.8177C65.4028 45.0429 65.3382 45.2596 65.3333 45.4658C65.329 45.6438 65.3706 45.8397 65.4484 46.034C65.5265 46.2292 65.6272 46.3881 65.7015 46.4811C66.0464 46.9125 65.9762 47.5418 65.5448 47.8866C65.5225 47.9045 65.4996 47.9212 65.4762 47.9369C65.5517 47.9412 65.6279 47.9543 65.7035 47.9767C66.233 48.1338 66.5349 48.6903 66.3779 49.2198C66.2776 49.5577 66.236 49.9999 66.3282 50.3762C66.4105 50.7123 66.5891 50.9832 66.9801 51.1524C67.2629 51.2749 67.7129 51.3684 68.4107 51.3219C69.095 51.2764 69.3998 51.0969 69.5323 50.9715C69.6369 50.8726 69.7147 50.7314 69.7428 50.5056C69.7439 50.4942 69.7452 50.4827 69.7466 50.4713C69.7492 50.4451 69.7512 50.4178 69.7524 50.3893C69.7823 49.7245 69.4212 48.8119 68.9979 48.1346C68.7051 47.6662 68.8475 47.0493 69.3158 46.7565C69.7841 46.4638 70.4011 46.6061 70.6938 47.0745C71.1112 47.7422 71.605 48.7783 71.7262 49.8377C72.2756 49.9003 73.1716 49.8397 74.2311 49.2324C74.4653 49.0982 74.6661 48.9611 74.8381 48.8248C74.9176 48.7215 75.0172 48.6335 75.1323 48.5673ZM64.8637 48.1039C64.59 48.0882 64.3239 47.9608 64.1393 47.7299C63.8717 47.395 63.5479 46.8386 63.4058 46.1703C63.0685 46.0684 62.668 45.9782 62.2685 45.9429C61.5863 45.8827 61.1448 46.0013 60.9246 46.1941C60.788 46.3137 60.6996 46.43 60.6409 46.5355C60.5302 46.7343 60.4982 46.9453 60.5142 47.1511C60.5311 47.3676 60.5991 47.5421 60.6414 47.6183C60.9095 48.1011 60.7353 48.7099 60.2524 48.9779C59.7696 49.246 59.1608 49.0718 58.8928 48.589C58.6646 48.1778 58.428 47.4462 58.5374 46.6316C58.0826 46.5398 57.5081 46.5568 56.9787 46.8932C56.8206 46.9936 56.7047 47.0859 56.6206 47.1657C56.5057 47.2746 56.4521 47.3581 56.4273 47.4075C56.4034 47.4554 56.4014 47.4813 56.4011 47.4873C56.401 47.4884 56.401 47.4894 56.401 47.4903C56.7305 47.9141 56.6667 48.5259 56.2511 48.8721C55.8267 49.2255 55.1962 49.1679 54.8427 48.7435C54.5775 48.4251 54.3734 47.9431 54.404 47.3788C54.4171 47.1391 54.4713 46.9016 54.5667 46.6704C54.0225 46.392 53.196 46.1684 52.1907 46.4133C51.9161 46.4802 51.7174 46.5564 51.5764 46.6282C51.4027 46.7166 51.3244 46.7939 51.292 46.834C51.2624 46.8706 51.258 46.8916 51.2565 46.9001C51.254 46.9137 51.2529 46.9378 51.2616 46.9734C51.2708 47.0111 51.2868 47.0447 51.2996 47.0647C51.5978 47.5296 51.4626 48.1482 50.9977 48.4463C50.5328 48.7444 49.9142 48.6092 49.6161 48.1443C49.3769 47.7714 49.1698 47.1899 49.2893 46.539C49.3544 46.1845 49.5071 45.8579 49.7415 45.5708C49.4356 45.3307 48.967 45.1109 48.2968 45.1109C47.8001 45.1109 47.4011 45.229 47.0876 45.3884C46.5623 45.6555 46.2723 46.0409 46.195 46.1921C45.9436 46.6839 45.3412 46.8788 44.8494 46.6274C44.3576 46.3761 44.1628 45.7736 44.4141 45.2819C44.5644 44.9878 44.8204 44.6361 45.1807 44.3022C45.0672 44.1982 44.9417 44.0964 44.8059 44.0034C44.3468 43.6889 43.8383 43.5183 43.2957 43.6018C42.9847 43.6497 42.7055 43.719 42.4574 43.8003C41.5084 44.1112 41.0401 44.5869 40.9651 44.6918C40.6443 45.1414 40.0198 45.2456 39.5702 44.9248C39.1207 44.6039 39.0164 43.9794 39.3373 43.5299C39.5482 43.2344 39.9251 42.8727 40.4569 42.539C40.3847 42.4861 40.3099 42.4356 40.2331 42.3884C39.7704 42.1044 39.296 41.9765 38.8292 42.059C38.4762 42.1214 38.036 42.3187 37.5339 42.8212C37.1435 43.2119 36.5103 43.2121 36.1197 42.8218C35.729 42.4314 35.7287 41.7982 36.1191 41.4076C36.527 40.9993 36.9522 40.6852 37.3894 40.461C36.9573 39.7358 35.9155 38.7857 33.5967 38.6199C31.9875 38.5049 31.3603 39.0082 31.0876 39.4165C30.9094 39.6834 30.8159 40.0081 30.7846 40.3302C31.4476 40.3992 32.0997 40.5662 32.6818 40.7987C33.5283 41.1367 34.3765 41.674 34.8443 42.4097C35.1407 42.8758 35.0031 43.4938 34.537 43.7901C34.071 44.0865 33.4529 43.9489 33.1566 43.4829C33.0104 43.2529 32.6057 42.9218 31.9402 42.6561C31.3019 42.4012 30.5621 42.2638 29.901 42.3011C29.3055 42.3348 28.8585 42.5034 28.5739 42.7556C28.3164 42.9839 28.0843 43.3741 28.0843 44.1109C28.0843 44.7166 28.2661 45.1346 28.5297 45.4484C28.8076 45.7791 29.2252 46.0496 29.766 46.2522C30.4172 46.4963 31.168 46.6122 31.868 46.6453C31.6876 45.8668 31.733 45.205 31.9004 44.7581C32.0942 44.2409 32.6705 43.9788 33.1877 44.1726C33.7049 44.3664 33.967 44.9427 33.7732 45.4599C33.7735 45.4591 33.7734 45.4597 33.7729 45.4617C33.7683 45.4815 33.7327 45.634 33.7676 45.9216C33.8039 46.2202 33.9135 46.6341 34.1806 47.1313C34.2984 47.3506 34.4472 47.5868 34.6345 47.8366C35.0353 48.3715 35.5238 48.562 36.0031 48.5999C36.153 48.6117 36.3009 48.608 36.4418 48.5937C36.3487 48.1839 36.3082 47.8063 36.2942 47.4812C36.2815 47.1833 36.291 46.9287 36.3031 46.7354C36.3082 46.6547 36.3139 46.5823 36.3182 46.5281C36.3189 46.5186 36.3196 46.5097 36.3203 46.5014C36.3243 46.4497 36.3251 46.4328 36.3253 46.4328C36.3253 46.4328 36.3253 46.4356 36.3253 46.4399C36.3253 45.8877 36.773 45.4399 37.3253 45.4399C37.8776 45.4399 38.3253 45.8877 38.3253 46.4399C38.3253 46.5191 38.3188 46.6138 38.3114 46.7227C38.2788 47.2027 38.2275 47.9573 38.6277 48.8647C38.8756 49.4267 39.3096 50.05 40.0872 50.6345C41.3634 51.5938 42.8683 51.7136 43.9218 51.5917C43.7116 50.6081 43.8205 49.6591 44.0105 48.9937C44.1621 48.4626 44.7155 48.155 45.2466 48.3066C45.7777 48.4582 46.0853 49.0116 45.9336 49.5427C45.7593 50.1534 45.7176 51.084 46.1208 51.8575C46.318 52.2358 46.6323 52.6009 47.1385 52.8965C47.6022 53.1671 48.2483 53.1865 49.0096 52.9767C49.4211 52.8633 49.8157 52.6958 50.1517 52.5218C49.9144 51.6688 50.0178 50.8258 50.1614 50.3239C50.3134 49.793 50.867 49.4857 51.398 49.6377C51.929 49.7897 52.2362 50.3433 52.0842 50.8743C52.037 51.0392 51.9956 51.3085 52.0155 51.6025C52.0352 51.8944 52.1115 52.1607 52.2506 52.3715C52.3644 52.544 52.5407 52.7124 52.84 52.8381C53.5386 53.1316 54.2155 52.9465 54.6954 52.6674C54.3934 51.8513 54.4808 51.0657 54.6826 50.5607C54.8876 50.0479 55.4695 49.7983 55.9823 50.0033C56.4951 50.2082 56.7447 50.7901 56.5398 51.303C56.4909 51.4253 56.4198 51.8635 56.7641 52.3206C56.8977 52.498 57.1087 52.7 57.4452 52.8965C57.9125 53.1693 58.5213 53.1832 59.2159 52.9807C59.5264 52.8902 59.8243 52.7643 60.0893 52.6286C59.9328 52.2906 59.8351 51.947 59.7774 51.6264C59.6601 50.9751 59.6945 50.3514 59.7839 49.9041C59.8921 49.3625 60.4189 49.0112 60.9605 49.1194C61.5021 49.2276 61.8534 49.7544 61.7451 50.296C61.7006 50.5186 61.6767 50.8884 61.7457 51.272C61.8143 51.6526 61.961 51.979 62.1957 52.2109C62.3084 52.3222 62.4531 52.4242 62.6455 52.5044C63.088 52.6889 63.67 52.6338 64.3401 52.3507C64.553 52.2607 64.7583 52.1544 64.9494 52.0415C64.6678 51.6761 64.4869 51.2652 64.3857 50.8521C64.1886 50.0478 64.2871 49.2353 64.4604 48.6511C64.5295 48.418 64.6761 48.229 64.8637 48.1039ZM56.402 47.4981C56.4019 47.498 56.4018 47.4976 56.4016 47.4968L56.402 47.4981ZM79.7563 38.4069C79.8434 37.6542 80.0709 36.7383 80.5221 35.8626C80.9507 35.0309 81.5953 34.2127 82.5256 33.6251C82.4359 33.5625 82.342 33.5052 82.2448 33.4556C81.7982 33.2277 81.3016 33.1616 80.7106 33.4995C79.7065 34.0738 79.1092 34.7602 78.7687 35.4742C78.49 36.0586 78.3639 36.7028 78.364 37.3843C78.9697 37.665 79.4464 38.0565 79.7563 38.4069ZM31.9124 66.0809C31.7041 66.3083 31.3939 66.4365 31.0639 66.3998C30.7006 66.3594 30.0737 66.4437 29.388 66.731C28.7145 67.0132 28.0866 67.4489 27.6666 68.0051C27.4228 68.3278 27.2491 68.69 27.1681 69.0957C27.016 69.8563 27.0855 70.489 27.2269 70.971C28.0032 70.2059 28.9786 69.5634 30.0483 69.0097C30.5388 68.7558 31.1422 68.9476 31.3961 69.438C31.65 69.9285 31.4582 70.5319 30.9677 70.7858C29.5086 71.5411 28.4874 72.3595 27.9346 73.2525C27.5299 73.9062 27.3548 74.6319 27.4764 75.4964C27.6015 76.3858 28.0496 77.475 28.9948 78.7999C30.2485 80.5574 33.4608 81.3335 36.7297 78.9101C36.9633 78.737 37.2606 78.674 37.5442 78.7377C37.8278 78.8013 38.0697 78.9852 38.2069 79.2415C38.606 79.9871 39.2525 81.0479 39.8895 81.8241C40.0599 82.0317 40.2152 82.201 40.3516 82.3326C40.3226 81.9498 40.2107 81.4522 40.0307 80.8936C39.6374 79.6734 39.0129 78.4422 38.6724 77.9652C38.4127 77.6013 38.4261 77.1091 38.7052 76.7599C38.8333 76.5997 38.9978 76.4379 39.1319 76.3071C39.159 76.2806 39.1861 76.2544 39.2131 76.2281C39.3349 76.1097 39.4564 75.9916 39.5841 75.859C39.8918 75.5392 40.1883 75.1816 40.4066 74.7609C40.8064 73.9902 41.0373 72.8375 40.0951 71.0243C39.7498 70.3597 39.2804 70.0061 38.8259 69.8368C38.4414 69.6937 38.0468 69.6751 37.7153 69.7404C37.3692 69.8086 37.1701 69.95 37.0963 70.0385C36.7429 70.4629 36.1124 70.5205 35.688 70.1671C35.2636 69.8137 35.206 69.1832 35.5594 68.7588C36.0018 68.2275 36.6622 67.9095 37.3287 67.7781C37.6098 67.7228 37.9062 67.6974 38.2096 67.7061C38.1635 67.2843 38.0473 66.8195 37.8069 66.4347C37.7822 66.395 37.7304 66.3364 37.6171 66.2707C37.357 66.1196 36.9221 66.0164 36.3766 65.9867C35.8521 65.9582 35.3347 66.003 34.9961 66.0595C34.4751 66.1464 33.9811 65.8135 33.8595 65.3078C33.929 66.5133 34.1666 68.2104 34.6941 70.0071C35.3412 72.2109 36.4012 74.4849 38.0454 76.1914C38.4286 76.5891 38.4168 77.2221 38.0191 77.6053C37.6214 77.9885 36.9884 77.9768 36.6052 77.5791C34.6587 75.5589 33.4746 72.9528 32.7751 70.5705C32.2922 68.9258 32.0292 67.3499 31.9124 66.0809ZM40.7684 82.6512C40.7686 82.6515 40.7652 82.6503 40.7578 82.6469C40.7646 82.6492 40.7683 82.6509 40.7684 82.6512Z" fill="#536666"/>
<circle opacity="0.2" cx="77" cy="42" r="10" fill="#96DAD7"/>
<circle opacity="0.2" cx="77" cy="42" r="14" fill="#96DAD7"/>
<circle opacity="0.2" cx="77" cy="42" r="19" fill="#96DAD7"/>
<circle opacity="0.2" cx="77" cy="42" r="24" fill="#96DAD7"/>
<circle cx="77" cy="42" r="4" fill="#96DAD7"/>
</svg>
