<svg width="120" height="120" viewBox="0 0 120 120" fill="none" xmlns="http://www.w3.org/2000/svg">
<rect width="120" height="120" rx="60" fill="#FAFAFC"/>
<path fill-rule="evenodd" clip-rule="evenodd" d="M61.9903 29.4228C63.2385 28.6934 64.0965 28.014 64.5553 27.5552L65.9695 28.9694C65.5599 29.379 64.9723 29.8642 64.2216 30.3779C65.5267 31.2761 67.4429 32.1496 69.5189 31.7344L69.9112 33.6955C66.649 34.3479 63.8591 32.68 62.3793 31.4992C59.618 33.0012 55.5466 34.5116 50.3651 34.9261L50.2056 32.9325C55.4647 32.5117 59.4717 30.8948 61.9903 29.4228Z" fill="#536666"/>
<path fill-rule="evenodd" clip-rule="evenodd" d="M53.4818 25.9939C51.9117 27.2946 50.8799 29.3222 50.8799 32.3101C50.8799 35.3414 51.9467 38.6912 53.6745 41.2682C55.4182 43.869 57.6827 45.4776 59.9995 45.4776C62.3163 45.4776 64.5809 43.869 66.3246 41.2682C68.0524 38.6912 69.1192 35.3414 69.1192 32.3101C69.1192 29.3222 68.0873 27.2946 66.5173 25.9939C64.9181 24.6691 62.6402 24 59.9995 24C57.3589 24 55.081 24.6691 53.4818 25.9939ZM52.2059 24.4538C54.2693 22.7444 57.0513 22 59.9995 22C62.9478 22 65.7298 22.7444 67.7932 24.4538C69.8857 26.1873 71.1192 28.8148 71.1192 32.3101C71.1192 35.762 69.9207 39.4959 67.9858 42.3819C66.0669 45.244 63.2717 47.4776 59.9995 47.4776C56.7274 47.4776 53.9321 45.244 52.0133 42.3819C50.0784 39.4959 48.8799 35.762 48.8799 32.3101C48.8799 28.8148 50.1134 26.1873 52.2059 24.4538Z" fill="#536666"/>
<path fill-rule="evenodd" clip-rule="evenodd" d="M27 53.2564C27 50.495 29.2386 48.2564 32 48.2564H88C90.7614 48.2564 93 50.495 93 53.2564V91.7521C93 94.5136 90.7614 96.7521 88 96.7521H32C29.2386 96.7521 27 94.5136 27 91.7521V53.2564ZM32 50.2564C30.3431 50.2564 29 51.5996 29 53.2564V91.7521C29 93.409 30.3431 94.7521 32 94.7521H88C89.6569 94.7521 91 93.409 91 91.7521V53.2564C91 51.5996 89.6569 50.2564 88 50.2564H32Z" fill="#536666"/>
<rect x="31" y="52" width="58" height="41" rx="1" fill="#536666"/>
<path fill-rule="evenodd" clip-rule="evenodd" d="M54.8133 55C54.8133 54.1716 55.4848 53.5 56.3133 53.5H63.6868C64.5152 53.5 65.1868 54.1716 65.1868 55C65.1868 55.8284 64.5152 56.5 63.6868 56.5H56.3133C55.4848 56.5 54.8133 55.8284 54.8133 55ZM41.8833 54.3942C42.4364 53.7774 43.3847 53.7258 44.0015 54.2789C44.3976 54.6341 45.1507 55.2063 46.0348 55.6815C46.9428 56.1695 47.8271 56.467 48.5301 56.467H53.0362C53.8646 56.467 54.5362 57.1386 54.5362 57.967C54.5362 58.7955 53.8646 59.467 53.0362 59.467H48.5301C47.1031 59.467 45.7002 58.9074 44.6146 58.324C43.5051 57.7277 42.5583 57.0143 41.9986 56.5123C41.3818 55.9593 41.3302 55.0109 41.8833 54.3942ZM78.1168 54.3942C78.6698 55.0109 78.6182 55.9593 78.0015 56.5123C77.4417 57.0143 76.4949 57.7277 75.3854 58.324C74.2999 58.9074 72.8969 59.467 71.4699 59.467H66.9639C66.1354 59.467 65.4639 58.7955 65.4639 57.967C65.4639 57.1386 66.1354 56.467 66.9639 56.467H71.4699C72.173 56.467 73.0572 56.1695 73.9652 55.6815C74.8493 55.2063 75.6025 54.6341 75.9986 54.2789C76.6153 53.7258 77.5637 53.7774 78.1168 54.3942ZM54.8133 60.9341C54.8133 60.1056 55.4848 59.4341 56.3133 59.4341H63.6868C64.5152 59.4341 65.1868 60.1056 65.1868 60.9341C65.1868 61.7625 64.5152 62.4341 63.6868 62.4341H56.3133C55.4848 62.4341 54.8133 61.7625 54.8133 60.9341ZM41.8833 62.3062C42.4364 61.6895 43.3847 61.6379 44.0015 62.191C44.3976 62.5462 45.1507 63.1184 46.0348 63.5936C46.9428 64.0816 47.8271 64.3791 48.5301 64.3791H53.0362C53.8646 64.3791 54.5362 65.0507 54.5362 65.8791C54.5362 66.7075 53.8646 67.3791 53.0362 67.3791H48.5301C47.1031 67.3791 45.7002 66.8195 44.6146 66.2361C43.5051 65.6398 42.5583 64.9264 41.9986 64.4244C41.3818 63.8713 41.3302 62.923 41.8833 62.3062ZM78.1168 62.3062C78.6698 62.923 78.6182 63.8713 78.0015 64.4244C77.4417 64.9264 76.4949 65.6398 75.3854 66.2361C74.2999 66.8195 72.8969 67.3791 71.4699 67.3791H66.9639C66.1354 67.3791 65.4639 66.7075 65.4639 65.8791C65.4639 65.0507 66.1354 64.3791 66.9639 64.3791H71.4699C72.173 64.3791 73.0572 64.0816 73.9652 63.5936C74.8493 63.1184 75.6025 62.5462 75.9986 62.191C76.6153 61.6379 77.5637 61.6895 78.1168 62.3062ZM54.8133 66.8681C54.8133 66.0397 55.4848 65.3681 56.3133 65.3681H63.6868C64.5152 65.3681 65.1868 66.0397 65.1868 66.8681C65.1868 67.6966 64.5152 68.3681 63.6868 68.3681H56.3133C55.4848 68.3681 54.8133 67.6966 54.8133 66.8681ZM41.8833 70.2183C42.4364 69.6016 43.3847 69.55 44.0015 70.103C44.3976 70.4582 45.1507 71.0305 46.0348 71.5057C46.9428 71.9937 47.8271 72.2912 48.5301 72.2912H53.0362C53.8646 72.2912 54.5362 72.9628 54.5362 73.7912C54.5362 74.6196 53.8646 75.2912 53.0362 75.2912H48.5301C47.1031 75.2912 45.7002 74.7316 44.6146 74.1482C43.5051 73.5519 42.5583 72.8385 41.9986 72.3365C41.3818 71.7834 41.3302 70.8351 41.8833 70.2183ZM78.1168 70.2183C78.6698 70.8351 78.6182 71.7834 78.0015 72.3365C77.4417 72.8385 76.4949 73.5519 75.3854 74.1482C74.2999 74.7316 72.8969 75.2912 71.4699 75.2912H66.9639C66.1354 75.2912 65.4639 74.6196 65.4639 73.7912C65.4639 72.9628 66.1354 72.2912 66.9639 72.2912H71.4699C72.173 72.2912 73.0572 71.9937 73.9652 71.5057C74.8493 71.0305 75.6025 70.4582 75.9986 70.103C76.6153 69.55 77.5637 69.6016 78.1168 70.2183ZM54.8133 72.6044C54.8133 71.776 55.4848 71.1044 56.3133 71.1044H63.6868C64.5152 71.1044 65.1868 71.776 65.1868 72.6044C65.1868 73.4328 64.5152 74.1044 63.6868 74.1044H56.3133C55.4848 74.1044 54.8133 73.4328 54.8133 72.6044ZM54.8133 78.5385C54.8133 77.71 55.4848 77.0385 56.3133 77.0385H63.6868C64.5152 77.0385 65.1868 77.71 65.1868 78.5385C65.1868 79.3669 64.5152 80.0385 63.6868 80.0385H56.3133C55.4848 80.0385 54.8133 79.3669 54.8133 78.5385ZM44.9162 79.2143H51.6024C52.4309 79.2143 53.1024 79.8859 53.1024 80.7143C53.1024 81.5427 52.4309 82.2143 51.6024 82.2143H48.867L51.204 90.5972C51.4264 91.3952 50.9599 92.2224 50.1619 92.4449C49.3639 92.6674 48.5366 92.2008 48.3141 91.4028L44.9162 79.2143ZM67.488 80.7143C67.488 79.8859 68.1595 79.2143 68.988 79.2143H75.6742L72.2762 91.4028C72.0538 92.2008 71.2265 92.6674 70.4285 92.4449C69.6305 92.2224 69.164 91.3952 69.3864 90.5972L71.7234 82.2143H68.988C68.1595 82.2143 67.488 81.5427 67.488 80.7143Z" fill="#96DAD7"/>
</svg>
