<svg width="120" height="120" viewBox="0 0 120 120" fill="none" xmlns="http://www.w3.org/2000/svg">
<rect width="120" height="120" rx="60" fill="#FAFAFC"/>
<path d="M32.5 59V68L34 67H36H39.5L43 64.5L44.5 66H46.5H49L50.5 67L52 71.5L54 72L56 70.5L59.5 68.5L64 67.5L69.5 67L70 64.5L68.5 61.5L69.5 58L71.3051 54H39.5L34 55L32.5 59Z" fill="#536666"/>
<path d="M42 44L47 35C51.4 36.6 55.1667 35.6667 56.5 35L61.5 44C60.8333 44.8333 58 46.5 52 46.5C46 46.5 42.8333 44.8333 42 44Z" fill="#96DAD7"/>
<path d="M76 42C74 42 73.5 45 73.5 46.5L72.5 48V60L69.5 65.5L70 67H80L82 66.5V64.5L81 62.5H79L74 64L73.5 63L74.5 61L79 58.5L79.5 48.5L78.5 46.5C78.5 45 78 42 76 42Z" fill="#96DAD7"/>
<path fill-rule="evenodd" clip-rule="evenodd" d="M79.3376 30.6028C81.7987 28.7826 84.8809 28.8318 86.5842 30.6567C87.3827 31.5122 87.7834 32.5377 87.7683 33.6102C87.7533 34.6682 87.336 35.6922 86.6431 36.5849C85.2633 38.3627 82.7279 39.7219 79.4615 40.1062C78.5593 40.2123 77.7429 40.1772 77.0053 40.0357C76.9691 40.4252 76.9427 40.8301 76.9269 41.2508C77.3701 41.3914 77.8089 41.6745 78.183 42.1341C78.8433 42.9453 79.2465 44.2299 79.3001 46.1056C80.0892 46.9445 80.3446 47.987 80.3446 48.6949V49.8714C81.4636 49.8614 82.8988 49.7944 84.3235 49.623C86.2568 49.3903 87.9866 48.9845 88.9389 48.3893C89.4073 48.0966 90.0242 48.2389 90.3169 48.7073C90.6096 49.1756 90.4673 49.7926 89.9989 50.0853C88.6371 50.9364 86.51 51.3743 84.5624 51.6087C83.0491 51.7908 81.5325 51.8615 80.3446 51.8714V57.3125C80.8006 57.1864 81.2958 57.3993 81.5098 57.8401C81.751 58.337 81.5437 58.9353 81.0469 59.1764L75.4449 61.8958C75.0515 62.0966 74.9884 62.2536 74.9778 62.2885C74.9674 62.3227 74.9337 62.4828 75.146 62.8559C75.2471 63.0335 75.3198 63.0932 75.3422 63.1087C75.3535 63.1165 75.359 63.1203 75.3872 63.1215C75.5128 63.1268 75.7655 63.0634 76.2947 62.8032C76.4431 62.7303 76.6077 62.6439 76.787 62.5498C77.7095 62.0657 79.0223 61.3767 80.5313 61.2573C80.7641 61.2389 81.0529 61.2468 81.2191 61.2514C81.2692 61.2527 81.3082 61.2538 81.3311 61.2537C82.3771 61.2514 82.9309 61.2371 83.3791 61.1744C83.7983 61.1159 84.1499 61.0114 84.7788 60.7755C84.9398 60.7152 85.2712 60.4843 85.8192 59.9979C86.1123 59.7377 86.3997 59.4683 86.7088 59.1785C86.9694 58.9343 87.2454 58.6756 87.5533 58.3956C88.1843 57.822 88.8798 57.2263 89.5871 56.7589C90.2785 56.3021 91.0829 55.8981 91.9233 55.8334C92.474 55.7911 92.9547 56.2031 92.9971 56.7538C93.0394 57.3045 92.6274 57.7852 92.0767 57.8276C91.742 57.8533 91.2808 58.0369 90.6897 58.4275C90.1145 58.8076 89.5106 59.3192 88.8987 59.8755C88.6492 60.1023 88.3813 60.3529 88.1155 60.6015C87.7745 60.9204 87.4372 61.236 87.1469 61.4936C86.6384 61.945 86.0433 62.4374 85.4811 62.6482C84.8033 62.9023 84.291 63.0665 83.6558 63.1552C83.4014 63.1908 83.132 63.2134 82.8295 63.2279C83.0538 63.9069 83.2373 64.7136 83.2373 65.5085C83.2373 65.7316 83.2148 65.9407 83.173 66.1356H92C92.5523 66.1356 93 66.5833 93 67.1356C93 67.6879 92.5523 68.1356 92 68.1356H66.1469C64.9674 68.1356 62.0039 68.4505 59.7447 69.6465C59.0066 70.0373 58.3968 70.4073 57.8536 70.7481C57.7155 70.8348 57.5789 70.9214 57.4439 71.007C57.0607 71.25 56.691 71.4844 56.3403 71.6861C55.3369 72.2631 54.351 72.6554 52.9492 72.6554C52.2161 72.6554 51.5457 72.485 51.0441 71.9949C50.57 71.5317 50.4051 70.929 50.3169 70.4627C50.2708 70.2193 50.2377 69.9626 50.2075 69.7245L50.2017 69.6786C50.1724 69.448 50.1442 69.2254 50.1064 68.9952C50.0269 68.5104 49.9105 68.0305 49.6909 67.5547C49.5183 67.1807 48.9433 66.8467 47.7242 66.7969C46.603 66.7512 45.3454 66.9726 44.5371 67.1956C44.1517 67.3019 43.7401 67.1685 43.4903 66.8563L42.7264 65.9014C42.3694 66.2296 41.9711 66.5791 41.5769 66.897C41.2107 67.1924 40.8272 67.4773 40.4712 67.6936C40.2932 67.8017 40.1037 67.904 39.9131 67.9819C39.7358 68.0543 39.4866 68.1356 39.209 68.1356C38.8952 68.1356 38.4866 68.0764 38.1237 68.0238L38.1221 68.0236C38.0913 68.0191 38.0603 68.0146 38.0292 68.0101C37.6587 67.9562 37.2649 67.899 36.8543 67.8599C35.9298 67.7718 35.1147 67.7998 34.553 68.0494C34.2122 68.2009 33.6895 68.4798 33.097 68.8986C31.2862 70.1786 29 72.6275 29 76.5367C29 81.972 32.7122 86.2034 36.678 86.2034C39.7587 86.2034 41.741 85.1806 43.8203 84.0627C43.8764 84.0325 43.9327 84.0022 43.989 83.9719C46.035 82.8706 48.2401 81.6836 51.5028 81.6836C53.375 81.6836 54.7501 81.9843 55.8463 82.4781C56.9407 82.971 57.69 83.6283 58.3169 84.211C58.3863 84.2755 58.4535 84.3383 58.5191 84.3996C59.064 84.9089 59.4927 85.3097 60.0571 85.6226C60.6537 85.9533 61.4476 86.2034 62.7119 86.2034H92C92.5523 86.2034 93 86.6511 93 87.2034C93 87.7557 92.5523 88.2034 92 88.2034H31.1638C29.9688 88.2034 29 89.1722 29 90.3672C29 91.5623 29.9688 92.5311 31.1638 92.5311H92C92.5523 92.5311 93 92.9788 93 93.5311C93 94.0834 92.5523 94.5311 92 94.5311H31.1638C28.8642 94.5311 27 92.6669 27 90.3672C27 88.0676 28.8642 86.2034 31.1638 86.2034H31.3159C28.6955 84.0524 27 80.4153 27 76.5367C27 72.053 29.474 69.155 31.5198 67.5777V59.5184C30.0697 58.8699 28.0847 57.2703 28.0847 54.2995C28.0847 52.4751 28.9821 51.2281 30.0635 50.457C31.1066 49.7133 32.3281 49.3979 33.1563 49.3258C33.7065 49.278 34.1913 49.6852 34.2392 50.2354C34.287 50.7857 33.8798 51.2705 33.3296 51.3183C32.7717 51.3668 31.9141 51.5938 31.2246 52.0854C30.5735 52.5497 30.0847 53.2312 30.0847 54.2995C30.0847 55.8308 30.9042 56.8099 31.7159 57.3558C32.3572 55.0176 34.4977 53.2995 37.0395 53.2995H70.6041C70.9924 52.677 71.3564 52.1275 71.6554 51.6895V48.7229C71.6196 48.0203 71.8133 46.9808 72.5544 46.1347C72.5652 45.3585 72.6812 44.3582 73.0168 43.4676C73.3277 42.6423 73.9144 41.726 74.9223 41.3555C74.9439 40.6548 74.9929 39.9868 75.0668 39.351C73.9177 38.7364 73.0415 37.8477 72.3871 36.9415C71.7378 36.0425 71.297 35.119 71.0002 34.4184C70.8882 34.1541 70.7924 33.9109 70.7178 33.7213C70.6946 33.6624 70.6734 33.6087 70.6544 33.5611C70.6382 33.5202 70.624 33.4853 70.6117 33.4554C70.6045 33.4527 70.5968 33.4499 70.5887 33.4473C70.5585 33.4375 70.529 33.4309 70.5047 33.427C70.4903 33.4247 70.4815 33.424 70.4788 33.4237C69.9298 33.42 69.4859 32.9737 69.4859 32.4238C69.4859 31.8715 69.9336 31.4238 70.4859 31.4238C70.807 31.4238 71.5472 31.5285 72.0969 32.0782C72.2556 32.2369 72.3468 32.4348 72.3744 32.4946C72.3757 32.4974 72.3769 32.4999 72.3779 32.5021C72.4228 32.5987 72.469 32.712 72.5122 32.8204C72.5359 32.8797 72.5602 32.9414 72.5855 33.0056C72.6588 33.1919 72.7408 33.4 72.8417 33.6381C73.1098 34.271 73.4826 35.0424 74.0084 35.7705C74.3965 36.3079 74.862 36.8169 75.4306 37.2265C76.1661 34.0483 77.6134 31.878 79.3376 30.6028ZM77.296 38.0521C77.8684 38.1726 78.5089 38.2045 79.2278 38.1199C82.1082 37.781 84.0926 36.6091 85.0631 35.3587C85.5454 34.7373 85.7608 34.1228 85.7685 33.582C85.7759 33.0556 85.5891 32.5217 85.1221 32.0213C84.2942 31.1344 82.4047 30.822 80.5268 32.2108C79.2108 33.1841 77.9193 35.0233 77.296 38.0521ZM70.5486 33.3143C70.5486 33.3137 70.5521 33.3197 70.559 33.334C70.552 33.322 70.5486 33.3149 70.5486 33.3143ZM74.6795 44.9279C75.0546 44.8458 75.4644 44.8023 75.9096 44.8023C76.375 44.8023 76.8025 44.8497 77.1931 44.9383C77.057 44.0937 76.8229 43.6313 76.6319 43.3967C76.3849 43.0933 76.1992 43.1437 76.1855 43.1477C76.0958 43.1734 76.0029 43.1865 75.9096 43.1865C75.5162 43.1865 75.1711 43.4223 74.8883 44.1728C74.7992 44.4092 74.7307 44.6664 74.6795 44.9279ZM71.6554 55.4286C71.0022 56.5513 70.3547 57.7993 69.9062 58.9827C69.4432 60.2047 69.2541 61.2036 69.361 61.8797C69.4105 62.1921 69.5163 62.393 69.6516 62.5311C69.6858 62.5659 69.7264 62.6014 69.7752 62.6364C70.3709 61.4445 71.1217 60.1414 71.6554 59.2612V55.4286ZM68.9691 64.4843C68.6914 64.3369 68.4413 64.1534 68.2234 63.9311C67.7382 63.4362 67.4855 62.8235 67.3856 62.1923C67.194 60.9813 67.5436 59.5733 68.036 58.274C68.4126 57.2801 68.9091 56.2592 69.4325 55.2995H37.0395C35.0956 55.2995 33.5198 56.8753 33.5198 58.8193V66.3244C33.5971 66.287 33.6709 66.2528 33.7408 66.2218C34.8062 65.7482 36.0702 65.7762 37.044 65.8689C37.5063 65.9129 37.9473 65.9771 38.3121 66.0302C38.345 66.0349 38.3773 66.0396 38.409 66.0442C38.7697 66.0965 39.0027 66.1268 39.148 66.1339C39.1508 66.1328 39.1537 66.1317 39.1568 66.1304C39.2169 66.1058 39.3085 66.0598 39.4328 65.9843C39.6812 65.8334 39.9871 65.6098 40.3214 65.3402C40.9866 64.8038 41.6829 64.1515 42.1178 63.7166C42.3189 63.5155 42.5962 63.4095 42.8802 63.4253C43.1642 63.441 43.428 63.5769 43.6057 63.799L44.6532 65.1084C45.5519 64.9118 46.7051 64.7537 47.8058 64.7986C49.0966 64.8513 50.8116 65.2102 51.5068 66.7165C51.8296 67.4158 51.9844 68.0885 52.08 68.6714C52.1239 68.9391 52.1565 69.1958 52.185 69.4206L52.1915 69.4725C52.2227 69.7182 52.249 69.9162 52.282 70.0909C52.352 70.4607 52.4243 70.5473 52.4418 70.5644C52.4455 70.568 52.4637 70.586 52.5259 70.6062C52.5977 70.6294 52.7285 70.6554 52.9492 70.6554C53.8976 70.6554 54.5388 70.4149 55.3433 69.9523C55.6537 69.7739 55.9695 69.5736 56.3385 69.3397C56.4804 69.2497 56.6301 69.1547 56.7905 69.0541C57.3546 68.7001 58.0103 68.3017 58.8089 67.8789C61.4673 66.4715 64.7953 66.1356 66.1469 66.1356H68.8472C68.7935 65.943 68.7627 65.7341 68.7627 65.5085C68.7627 65.1745 68.8587 64.8174 68.9576 64.5189C68.9614 64.5075 68.9652 64.4959 68.9691 64.4843ZM71.5171 66.1356H80.6084C80.7198 66.1354 80.9095 66.0935 81.0425 65.9976C81.099 65.9569 81.1406 65.9103 81.1708 65.852C81.2005 65.7944 81.2373 65.6902 81.2373 65.5085C81.2373 64.7272 80.956 63.8476 80.7029 63.2501C80.6984 63.2504 80.6937 63.2507 80.689 63.2511C79.6273 63.3351 78.7469 63.791 77.8263 64.2677C77.6129 64.3782 77.3974 64.4898 77.177 64.5981C76.6646 64.85 75.9936 65.1489 75.3029 65.1198C74.4668 65.0845 73.8377 64.6008 73.4077 63.845C73.0433 63.2045 72.8359 62.4607 73.0637 61.7087C73.2912 60.9577 73.8772 60.448 74.548 60.1081L74.5633 60.1005L78.3446 58.265V48.6949C78.3446 48.3442 78.1814 47.7333 77.6726 47.3167C77.3481 47.0509 76.8117 46.8023 75.9096 46.8023C75.0062 46.8023 74.5011 47.0512 74.2127 47.3C73.7589 47.6917 73.6312 48.2769 73.6534 48.6325C73.6547 48.6533 73.6554 48.6741 73.6554 48.6949V59.5424C73.6554 59.7274 73.604 59.9089 73.507 60.0665C72.8675 61.1057 71.814 62.9315 71.199 64.2953C71.049 64.6279 70.9329 64.916 70.8561 65.148C70.7714 65.4034 70.7627 65.5088 70.7627 65.5085C70.7627 65.61 70.8039 65.724 70.989 65.8688C71.1531 65.9972 71.3608 66.0882 71.5171 66.1356ZM44.0555 86.2034H57.5213C57.3932 86.0866 57.2706 85.9714 57.1524 85.8604C57.0854 85.7975 57.0198 85.7358 56.9554 85.676C56.3665 85.1287 55.8118 84.6561 55.0249 84.3016C54.2397 83.9479 53.156 83.6836 51.5028 83.6836C48.7479 83.6836 46.9284 84.6621 44.8562 85.7765L44.7673 85.8243C44.5333 85.9501 44.2965 86.077 44.0555 86.2034ZM66.7744 71.9899C66.7893 71.4378 67.2489 71.0024 67.801 71.0173C72.2922 71.1387 83.463 71.9254 92.2425 74.1202C92.7783 74.2542 93.1041 74.7971 92.9701 75.3329C92.8362 75.8687 92.2933 76.1945 91.7575 76.0605C83.1811 73.9164 72.1748 73.1362 67.747 73.0166C67.1949 73.0017 66.7595 72.542 66.7744 71.9899ZM64.6473 81.1287C64.8071 80.6 65.3653 80.301 65.8939 80.4609C68.3503 81.2035 77.146 82.7684 92 82.7684C92.5523 82.7684 93 83.2161 93 83.7684C93 84.3206 92.5523 84.7684 92 84.7684C77.0597 84.7684 68.0414 83.1995 65.3151 82.3753C64.7865 82.2155 64.4875 81.6573 64.6473 81.1287Z" fill="#536666"/>
<rect x="36.678" y="30.2542" width="30.3729" height="20.6102" fill="#96DAD7"/>
<path d="M42 44L47 35C51.4 36.6 55.1667 35.6667 56.5 35L61.5 44C60.8333 44.8333 58 46.5 52 46.5C46 46.5 42.8333 44.8333 42 44Z" fill="white"/>
<path fill-rule="evenodd" clip-rule="evenodd" d="M58.176 36.4172C58.5666 36.8077 58.5666 37.4409 58.176 37.8314C57.9691 38.0384 57.6618 38.1989 57.3502 38.3192C57.0054 38.4525 56.554 38.5751 55.9832 38.6566C55.5922 38.7125 55.2217 38.5341 55.0139 38.2279C54.9504 38.5381 54.7409 38.8132 54.4278 38.9474C54.0617 39.1043 53.4751 39.2038 52.9204 39.2507C52.3328 39.3003 51.6267 39.3037 50.9768 39.1954C50.4321 39.1046 50.064 38.5894 50.1548 38.0446C50.2456 37.4999 50.7609 37.1319 51.3056 37.2226C51.7405 37.2951 52.2698 37.2985 52.7519 37.2578C52.989 37.2378 53.2006 37.2082 53.3681 37.1761C53.4518 37.1601 53.5193 37.1443 53.5702 37.1305C53.6142 37.1185 53.6357 37.1106 53.6399 37.1091C53.6408 37.1087 53.6408 37.1087 53.64 37.1091C54.0879 36.9171 54.5984 37.0777 54.8617 37.4669C54.9437 37.0644 55.2705 36.7381 55.7004 36.6767C56.142 36.6136 56.444 36.5253 56.6294 36.4536C56.7225 36.4177 56.7808 36.388 56.8101 36.3713C56.8108 36.3709 56.8116 36.3704 56.8123 36.37C57.2051 36.0274 57.8019 36.0431 58.176 36.4172ZM56.8285 36.36C56.8285 36.3601 56.8272 36.361 56.8242 36.3629C56.8269 36.361 56.8284 36.36 56.8285 36.36ZM42.7425 41.044C43.1738 40.699 43.8031 40.7689 44.1481 41.2002C44.2606 41.3407 44.9501 41.9957 46.2697 42.5235C46.6425 42.6726 46.8762 43.021 46.897 43.3972C47.1237 43.2143 47.428 43.1316 47.7349 43.1973C48.5719 43.3767 50.4958 43.7175 51.6836 43.7175C52.2359 43.7175 52.6836 44.1652 52.6836 44.7175C52.6836 45.2698 52.2359 45.7175 51.6836 45.7175C50.2681 45.7175 48.1663 45.3352 47.3159 45.1529C46.8649 45.0563 46.5506 44.6696 46.5267 44.2301C46.2544 44.4496 45.8747 44.5196 45.5269 44.3805C43.9539 43.7512 42.956 42.9116 42.5864 42.4496C42.2413 42.0183 42.3113 41.389 42.7425 41.044Z" fill="#536666"/>
<path fill-rule="evenodd" clip-rule="evenodd" d="M46.4796 34.4531C46.7314 34.0189 47.266 33.8387 47.7293 34.0317C49.2783 34.6772 51.011 34.8246 52.5833 34.7251C54.1552 34.6257 55.4967 34.2841 56.2177 34.017C56.6794 33.846 57.1969 34.0366 57.4375 34.4662L62.4997 43.5057C62.7056 43.8734 62.6589 44.3308 62.3828 44.6493C61.8411 45.2744 60.7308 46.0299 59.091 46.6286C57.4247 47.237 55.1532 47.7062 52.226 47.7062C46.4021 47.7062 42.688 45.8453 41.4401 44.7442C41.0827 44.4288 40.9975 43.905 41.2367 43.4926L46.4796 34.4531ZM47.789 36.1819L43.4235 43.7086C44.7834 44.5232 47.7452 45.7062 52.226 45.7062C54.9395 45.7062 56.9768 45.2714 58.4051 44.7499C59.3069 44.4206 59.9456 44.0647 60.3584 43.7753L56.0917 36.1563C55.199 36.4072 54.0176 36.6384 52.7095 36.7212C51.1974 36.8168 49.4642 36.7172 47.789 36.1819Z" fill="#536666"/>
<path fill-rule="evenodd" clip-rule="evenodd" d="M32.4237 29C32.4237 27.3431 33.7669 26 35.4237 26H68.3051C69.9619 26 71.3051 27.3431 71.3051 29V52.1186C71.3051 53.7755 69.9619 55.1186 68.3051 55.1186H35.4237C33.7669 55.1186 32.4237 53.7755 32.4237 52.1186V29ZM35.4237 28C34.8714 28 34.4237 28.4477 34.4237 29V52.1186C34.4237 52.6709 34.8714 53.1186 35.4237 53.1186H68.3051C68.8573 53.1186 69.3051 52.6709 69.3051 52.1186V29C69.3051 28.4477 68.8573 28 68.3051 28H35.4237Z" fill="#536666"/>
<path fill-rule="evenodd" clip-rule="evenodd" d="M35.6777 30.2544C35.6777 29.7021 36.1254 29.2544 36.6777 29.2544H67.0506C67.6029 29.2544 68.0506 29.7021 68.0506 30.2544V50.8646C68.0506 51.4168 67.6029 51.8646 67.0506 51.8646H36.6777C36.1254 51.8646 35.6777 51.4168 35.6777 50.8646V30.2544ZM37.6777 31.2544V49.8646H66.0506V31.2544H37.6777Z" fill="#536666"/>
<path fill-rule="evenodd" clip-rule="evenodd" d="M34.5928 58.8193C34.5928 58.2671 35.0405 57.8193 35.5928 57.8193H39.751C40.3032 57.8193 40.751 58.2671 40.751 58.8193C40.751 59.3716 40.3032 59.8193 39.751 59.8193H35.5928C35.0405 59.8193 34.5928 59.3716 34.5928 58.8193ZM41.6436 58.8193C41.6436 58.2671 42.0913 57.8193 42.6436 57.8193H46.8018C47.3541 57.8193 47.8018 58.2671 47.8018 58.8193C47.8018 59.3716 47.3541 59.8193 46.8018 59.8193H42.6436C42.0913 59.8193 41.6436 59.3716 41.6436 58.8193Z" fill="white"/>
</svg>
