<svg width="120" height="120" viewBox="0 0 120 120" fill="none" xmlns="http://www.w3.org/2000/svg">
<rect width="120" height="120" rx="60" fill="#FAFAFC"/>
<path d="M66.5012 60.4844V84.2479C66.5012 87.8389 63.5905 90.75 60.0001 90.75C56.4096 90.75 53.499 87.8389 53.499 84.2477V60.4844H66.5012Z" fill="#96DAD7"/>
<rect x="32.0002" y="35" width="56" height="5" fill="#96DAD7"/>
<path d="M32.1611 33.4101H34.0636V29.25C34.0636 28.5598 34.6234 28 35.3136 28H47.5679C48.2581 28 48.8179 28.5598 48.8179 29.25V33.4101H52.6227V29.25C52.6227 28.5598 53.1825 28 53.8727 28H66.1271C66.8174 28 67.3771 28.5598 67.3771 29.25V33.4101H71.182V29.25C71.182 28.5598 71.7417 28 72.432 28H84.6864C85.3766 28 85.9364 28.5598 85.9364 29.25V33.4101H87.8389C88.5291 33.4101 89.0889 33.9699 89.0889 34.6601V40.0704C89.0889 40.7606 88.5291 41.3204 87.8389 41.3204H86.3102V84.2515C86.3102 88.524 82.8342 91.9999 78.5619 91.9999H78.5566C74.2841 91.9999 70.8082 88.5239 70.8082 84.2515V41.3204H67.7511V84.2515C67.7511 88.524 64.2751 91.9999 60.0026 91.9999H59.9975C55.7249 91.9999 52.249 88.5239 52.249 84.2515V41.3204H49.1919V84.2515C49.1919 88.524 45.7159 91.9999 41.4435 91.9999H41.4382C37.1657 91.9999 33.6899 88.5239 33.6899 84.2515V41.3204H32.1612C31.471 41.3204 30.9112 40.7606 30.9112 40.0704V34.6601C30.9111 33.9699 31.4709 33.4101 32.1611 33.4101ZM46.3179 30.5H36.5636V33.4101H46.3179V30.5ZM64.8772 30.5H55.1229V33.4101H64.8772V30.5ZM83.4364 30.5H73.6821V33.4101H83.4364V30.5ZM86.5889 35.9101H70.5296V38.8204H86.5889V35.9101ZM73.3082 64.1601H83.8102V41.3204H73.3081L73.3082 64.1601ZM68.0296 35.9101H51.9702V38.8204H68.0296V35.9101ZM54.7489 84.2516C54.7489 87.1456 57.1034 89.5 59.9974 89.5H60.0025C62.8965 89.5 65.251 87.1456 65.251 84.2516V41.3204H54.7487L54.7489 84.2516ZM41.4381 89.5H41.4434C44.3374 89.5 46.6917 87.1456 46.6917 84.2516V49.5059H36.1896V84.2516C36.1897 87.1456 38.5441 89.5 41.4381 89.5ZM36.1897 47.0059H46.6919V41.3205H36.1897V47.0059ZM33.4111 38.8204H49.4704V35.9101H33.4111V38.8204Z" fill="#536666"/>
</svg>
