<svg width="120" height="120" viewBox="0 0 120 120" fill="none" xmlns="http://www.w3.org/2000/svg">
<rect width="120" height="120" rx="60" fill="#FAFAFC"/>
<path d="M44.4951 88.7384L51.313 74.8828V70.5254C51.313 68.3162 53.1038 66.5254 55.313 66.5254H64.9075C67.1166 66.5254 68.9075 68.3163 68.9075 70.5254V74.8828L75.7254 88.7384V91.5769C75.7254 92.6815 74.8299 93.5769 73.7254 93.5769H68.9075H50.4333H46.4951C45.3905 93.5769 44.4951 92.6815 44.4951 91.5769V88.7384Z" fill="#96DAD7"/>
<path fill-rule="evenodd" clip-rule="evenodd" d="M51.4729 33.9235C51.6006 34.4608 51.2686 35 50.7313 35.1277C33.8877 39.1326 29.1249 53.9187 29 61.9148V86.7387C29 87.291 29.4477 87.7387 30 87.7387H43.8724L50.3127 74.6503V70.5257C50.3127 67.7642 52.5513 65.5257 55.3127 65.5257H64.9072C67.6686 65.5257 69.9072 67.7642 69.9072 70.5257V74.6503L76.3475 87.7387H90C90.5523 87.7387 91 87.291 91 86.7387V61.9108C90.9381 53.9901 86.3751 39.4089 69.9539 35.2441C69.4186 35.1083 69.0947 34.5643 69.2304 34.029C69.3662 33.4936 69.9102 33.1697 70.4456 33.3055C88.0846 37.7791 92.9356 53.4672 93 61.8995L93 61.9071L93 86.7387C93 88.3956 91.6569 89.7387 90 89.7387H76.7251V91.5772C76.7251 93.2341 75.3819 94.5772 73.7251 94.5772H69.9072V96.4157C69.9072 98.0726 68.5641 99.4157 66.9072 99.4157H52.433C50.7761 99.4157 49.433 98.0726 49.433 96.4157V94.5772H46.4948C44.838 94.5772 43.4948 93.2341 43.4948 91.5772V89.7387H30C28.3431 89.7387 27 88.3956 27 86.7387V61.9071L27.0001 61.8918C27.1301 53.379 32.1949 37.4794 50.2687 33.182C50.806 33.0542 51.3451 33.3862 51.4729 33.9235ZM45.4948 89.7387V91.5772C45.4948 92.1295 45.9426 92.5772 46.4948 92.5772H73.7251C74.2774 92.5772 74.7251 92.1295 74.7251 91.5772V89.7387H45.4948ZM74.1185 87.7387L68.2848 75.8831H51.9352L46.1014 87.7387H74.1185ZM52.3127 73.8831H67.9072V70.5257C67.9072 68.8688 66.5641 67.5257 64.9072 67.5257H55.3127C53.6559 67.5257 52.3127 68.8688 52.3127 70.5257V73.8831ZM51.433 94.5772V96.4157C51.433 96.968 51.8807 97.4157 52.433 97.4157H66.9072C67.4595 97.4157 67.9072 96.968 67.9072 96.4157V94.5772H51.433Z" fill="#536666"/>
<path fill-rule="evenodd" clip-rule="evenodd" d="M60.1096 43.1133C47.7866 43.1133 37.7969 53.103 37.7969 65.426C37.7969 72.968 41.5379 79.6363 47.2699 83.6767C47.7213 83.9948 47.8293 84.6187 47.5111 85.0701C47.193 85.5216 46.5691 85.6296 46.1177 85.3114C39.8769 80.9124 35.7969 73.6457 35.7969 65.426C35.7969 51.9985 46.682 41.1133 60.1096 41.1133C73.5371 41.1133 84.4223 51.9985 84.4223 65.426C84.4223 73.6457 80.3423 80.9124 74.1015 85.3114C73.6501 85.6296 73.0262 85.5216 72.708 85.0701C72.3899 84.6187 72.4979 83.9948 72.9493 83.6767C78.6813 79.6363 82.4223 72.968 82.4223 65.426C82.4223 53.103 72.4326 43.1133 60.1096 43.1133Z" fill="#536666"/>
<path fill-rule="evenodd" clip-rule="evenodd" d="M60.1099 53.2302C53.3743 53.2302 47.9141 58.6905 47.9141 65.4261C47.9141 68.9391 49.3981 72.1039 51.7762 74.3306C52.1794 74.7081 52.2002 75.3409 51.8227 75.744C51.4452 76.1472 50.8124 76.168 50.4093 75.7905C47.6441 73.2015 45.9141 69.515 45.9141 65.4261C45.9141 57.5859 52.2698 51.2302 60.1099 51.2302C67.9501 51.2302 74.3058 57.5859 74.3058 65.4261C74.3058 69.515 72.5758 73.2015 69.8106 75.7905C69.4075 76.168 68.7746 76.1472 68.3972 75.744C68.0197 75.3409 68.0405 74.7081 68.4436 74.3306C70.8218 72.1039 72.3058 68.9391 72.3058 65.4261C72.3058 58.6905 66.8455 53.2302 60.1099 53.2302Z" fill="#536666"/>
<path fill-rule="evenodd" clip-rule="evenodd" d="M34.5976 79.6221C33.4494 79.6221 32.5186 80.5529 32.5186 81.7011C32.5186 82.8493 33.4494 83.7801 34.5976 83.7801C35.7458 83.7801 36.6766 82.8493 36.6766 81.7011C36.6766 80.5529 35.7458 79.6221 34.5976 79.6221ZM30.5186 81.7011C30.5186 79.4483 32.3448 77.6221 34.5976 77.6221C36.8504 77.6221 38.6766 79.4483 38.6766 81.7011C38.6766 83.9539 36.8504 85.7801 34.5976 85.7801C32.3448 85.7801 30.5186 83.9539 30.5186 81.7011Z" fill="#536666"/>
<path fill-rule="evenodd" clip-rule="evenodd" d="M85.622 79.622C84.4738 79.622 83.543 80.5528 83.543 81.701C83.543 82.8493 84.4738 83.7801 85.622 83.7801C86.7702 83.7801 87.701 82.8493 87.701 81.701C87.701 80.5528 86.7702 79.622 85.622 79.622ZM81.543 81.701C81.543 79.4483 83.3692 77.622 85.622 77.622C87.8748 77.622 89.701 79.4483 89.701 81.701C89.701 83.9538 87.8748 85.7801 85.622 85.7801C83.3692 85.7801 81.543 83.9538 81.543 81.701Z" fill="#536666"/>
<circle cx="60.3298" cy="30.457" r="10.457" fill="#96DAD7" stroke="#536666" stroke-width="2" stroke-linecap="round" stroke-linejoin="round"/>
<path fill-rule="evenodd" clip-rule="evenodd" d="M60.3294 23.2593C56.3543 23.2593 53.1318 26.4818 53.1318 30.4569C53.1318 34.432 56.3543 37.6545 60.3294 37.6545C64.3046 37.6545 67.527 34.432 67.527 30.4569C67.527 26.4818 64.3046 23.2593 60.3294 23.2593ZM52.1318 30.4569C52.1318 25.9295 55.802 22.2593 60.3294 22.2593C64.8568 22.2593 68.527 25.9295 68.527 30.4569C68.527 34.9843 64.8568 38.6545 60.3294 38.6545C55.802 38.6545 52.1318 34.9843 52.1318 30.4569Z" fill="#536666"/>
<circle cx="60.5" cy="30.5" r="1.5" fill="#536666"/>
<path d="M64.2986 25.2255C65.1573 25.8439 65.852 26.6626 66.3224 27.6105C66.7928 28.5584 67.0247 29.6068 66.9979 30.6646L63.1709 30.5677C63.1819 30.1329 63.0866 29.7019 62.8933 29.3123C62.6999 28.9227 62.4143 28.5862 62.0614 28.332L64.2986 25.2255Z" fill="#536666"/>
<path d="M56.7014 25.2255C55.8427 25.8439 55.148 26.6626 54.6776 27.6105C54.2072 28.5584 53.9753 29.6068 54.0021 30.6646L57.8291 30.5677C57.8181 30.1329 57.9134 29.7019 58.1067 29.3123C58.3001 28.9227 58.5857 28.5862 58.9386 28.332L56.7014 25.2255Z" fill="#536666"/>
<path d="M63.5801 36.2239C62.6483 36.7253 61.6081 36.9917 60.5499 36.9998C59.4918 37.0079 58.4476 36.7576 57.5082 36.2705L59.2702 32.8719C59.6564 33.0721 60.0856 33.175 60.5205 33.1717C60.9555 33.1683 61.383 33.0589 61.7661 32.8528L63.5801 36.2239Z" fill="#536666"/>
</svg>
