<svg width="120" height="120" viewBox="0 0 120 120" fill="none" xmlns="http://www.w3.org/2000/svg">
<rect width="120" height="120" rx="60" fill="#FAFAFC"/>
<path fill-rule="evenodd" clip-rule="evenodd" d="M50.5 34L45.5 35.5C35 40.5 28 51.4 28 59V87.5L29.5 89L90 88.5L92 87.5V59C91.6667 55.8333 89.6 48.1 84 42.5C78.4 36.9 72.6667 34.5 70.5 34H50.5ZM60 78C67.1797 78 73 72.1797 73 65C73 57.8203 67.1797 52 60 52C52.8203 52 47 57.8203 47 65C47 72.1797 52.8203 78 60 78Z" fill="#536666"/>
<path d="M44.4951 88.7384L51.313 74.8828V70.5254C51.313 68.3162 53.1038 66.5254 55.313 66.5254H64.9075C67.1166 66.5254 68.9075 68.3163 68.9075 70.5254V74.8828L75.7254 88.7384V91.5769C75.7254 92.6815 74.8299 93.5769 73.7254 93.5769H68.9075H50.4333H46.4951C45.3905 93.5769 44.4951 92.6815 44.4951 91.5769V88.7384Z" fill="#96DAD7"/>
<path fill-rule="evenodd" clip-rule="evenodd" d="M51.4729 33.924C51.6006 34.4613 51.2686 35.0004 50.7313 35.1282C33.8877 39.1331 29.1249 53.9192 29 61.9153V86.7392C29 87.2915 29.4477 87.7392 30 87.7392H43.8724L50.3127 74.6508V70.5262C50.3127 67.7647 52.5513 65.5262 55.3127 65.5262H64.9072C67.6686 65.5262 69.9072 67.7647 69.9072 70.5262V74.6508L76.3475 87.7392H90C90.5523 87.7392 91 87.2915 91 86.7392V61.9113C90.9381 53.9906 86.3751 39.4094 69.9539 35.2446C69.4186 35.1088 69.0947 34.5648 69.2304 34.0294C69.3662 33.4941 69.9102 33.1702 70.4456 33.306C88.0846 37.7796 92.9356 53.4676 93 61.9L93 61.9076L93 86.7392C93 88.3961 91.6569 89.7392 90 89.7392H76.7251V91.5777C76.7251 93.2346 75.3819 94.5777 73.7251 94.5777H69.9072V96.4162C69.9072 98.073 68.5641 99.4162 66.9072 99.4162H52.433C50.7761 99.4162 49.433 98.073 49.433 96.4162V94.5777H46.4948C44.838 94.5777 43.4948 93.2346 43.4948 91.5777V89.7392H30C28.3431 89.7392 27 88.3961 27 86.7392V61.9076L27.0001 61.8923C27.1301 53.3795 32.1949 37.4799 50.2687 33.1824C50.806 33.0547 51.3451 33.3867 51.4729 33.924ZM45.4948 89.7392V91.5777C45.4948 92.13 45.9426 92.5777 46.4948 92.5777H73.7251C74.2774 92.5777 74.7251 92.13 74.7251 91.5777V89.7392H45.4948ZM74.1185 87.7392L68.2848 75.8835H51.9352L46.1014 87.7392H74.1185ZM52.3127 73.8835H67.9072V70.5262C67.9072 68.8693 66.5641 67.5262 64.9072 67.5262H55.3127C53.6559 67.5262 52.3127 68.8693 52.3127 70.5262V73.8835ZM51.433 94.5777V96.4162C51.433 96.9685 51.8807 97.4162 52.433 97.4162H66.9072C67.4595 97.4162 67.9072 96.9685 67.9072 96.4162V94.5777H51.433Z" fill="#536666"/>
<path d="M51.0928 75.061C48.5211 72.6532 46.9141 69.2275 46.9141 65.4266C46.9141 58.1387 52.8221 52.2307 60.1099 52.2307C67.3978 52.2307 73.3058 58.1387 73.3058 65.4266C73.3058 69.2275 71.6988 72.6532 69.1271 75.061" stroke="#536666" stroke-width="2" stroke-linecap="round" stroke-linejoin="round"/>
<path d="M37.6766 81.7016C37.6766 83.4021 36.2981 84.7806 34.5976 84.7806C32.8971 84.7806 31.5186 83.4021 31.5186 81.7016C31.5186 80.0011 32.8971 78.6226 34.5976 78.6226C36.2981 78.6226 37.6766 80.0011 37.6766 81.7016Z" fill="#536666"/>
<path fill-rule="evenodd" clip-rule="evenodd" d="M34.5976 79.6226C33.4494 79.6226 32.5186 80.5534 32.5186 81.7016C32.5186 82.8498 33.4494 83.7806 34.5976 83.7806C35.7458 83.7806 36.6766 82.8498 36.6766 81.7016C36.6766 80.5534 35.7458 79.6226 34.5976 79.6226ZM30.5186 81.7016C30.5186 79.4488 32.3448 77.6226 34.5976 77.6226C36.8504 77.6226 38.6766 79.4488 38.6766 81.7016C38.6766 83.9544 36.8504 85.7806 34.5976 85.7806C32.3448 85.7806 30.5186 83.9544 30.5186 81.7016Z" fill="white"/>
<path d="M88.701 81.7015C88.701 83.402 87.3225 84.7806 85.622 84.7806C83.9215 84.7806 82.543 83.402 82.543 81.7015C82.543 80.001 83.9215 78.6225 85.622 78.6225C87.3225 78.6225 88.701 80.001 88.701 81.7015Z" fill="#536666"/>
<path fill-rule="evenodd" clip-rule="evenodd" d="M85.622 79.6225C84.4738 79.6225 83.543 80.5533 83.543 81.7015C83.543 82.8498 84.4738 83.7806 85.622 83.7806C86.7702 83.7806 87.701 82.8498 87.701 81.7015C87.701 80.5533 86.7702 79.6225 85.622 79.6225ZM81.543 81.7015C81.543 79.4487 83.3692 77.6225 85.622 77.6225C87.8748 77.6225 89.701 79.4487 89.701 81.7015C89.701 83.9543 87.8748 85.7806 85.622 85.7806C83.3692 85.7806 81.543 83.9543 81.543 81.7015Z" fill="white"/>
<circle cx="60.3298" cy="30.4575" r="10.457" fill="#96DAD7" stroke="#536666" stroke-width="2" stroke-linecap="round" stroke-linejoin="round"/>
<path fill-rule="evenodd" clip-rule="evenodd" d="M62.9956 27.874C62.2936 27.172 61.4199 26.8384 61.1095 26.7668C60.8404 26.7047 60.6726 26.4362 60.7347 26.1672C60.7968 25.8981 61.0653 25.7303 61.3343 25.7924C61.7921 25.898 62.8447 26.3089 63.7027 27.1669C64.5628 28.027 64.9199 29.0289 64.9946 29.4769C65.04 29.7493 64.856 30.0069 64.5836 30.0523C64.3112 30.0977 64.0536 29.9137 64.0082 29.6413C63.9647 29.3802 63.6955 28.5739 62.9956 27.874Z" fill="#536666"/>
<path fill-rule="evenodd" clip-rule="evenodd" d="M64.0284 26.9563C63.1139 26.0418 61.888 25.683 61.424 25.6229C61.1502 25.5875 60.9569 25.3368 60.9923 25.0629C61.0278 24.789 61.2785 24.5958 61.5524 24.6312C62.1744 24.7117 63.6263 25.1399 64.7356 26.2492C65.8484 27.362 66.2035 28.7467 66.2417 29.3499C66.2591 29.6255 66.0498 29.8631 65.7742 29.8805C65.4986 29.898 65.2611 29.6887 65.2437 29.4131C65.218 29.0071 64.9394 27.8672 64.0284 26.9563Z" fill="#536666"/>
<path fill-rule="evenodd" clip-rule="evenodd" d="M64.9292 26.0845C63.7412 24.8965 62.2738 24.3252 61.7274 24.1956C61.4587 24.1319 61.2925 23.8624 61.3562 23.5937C61.4199 23.325 61.6894 23.1589 61.9581 23.2226C62.6509 23.3868 64.2945 24.0356 65.6363 25.3773C66.98 26.7211 67.5384 28.2772 67.6535 28.9418C67.7006 29.2139 67.5182 29.4727 67.2461 29.5198C66.974 29.5669 66.7153 29.3846 66.6681 29.1125C66.5852 28.6337 66.1151 27.2704 64.9292 26.0845Z" fill="#536666"/>
<path fill-rule="evenodd" clip-rule="evenodd" d="M57.4338 27.454L54.6638 30.0023C53.7184 30.8296 52.4834 33.14 55.107 35.7636C57.7306 38.3871 59.9819 37.093 60.7795 36.118L63.3279 33.3481L61.4356 31.4557L59.0955 33.9022C58.7705 34.2863 57.8902 34.8241 56.9683 33.9022C56.0465 32.9804 56.5251 32.0408 56.8796 31.6863L59.3261 29.3462L57.4338 27.454ZM57.9878 26.9443L59.8697 28.8262L60.9568 27.7864L59.0956 25.9251L57.9878 26.9443ZM61.9556 30.9121L63.8376 32.7941L64.8567 31.6863L62.9954 29.825L61.9556 30.9121Z" fill="#536666"/>
<path fill-rule="evenodd" clip-rule="evenodd" d="M60.1096 43.1138C47.7866 43.1138 37.7969 53.1035 37.7969 65.4265C37.7969 72.4035 40.998 78.632 46.0154 82.7251C46.4433 83.0742 46.5073 83.7042 46.1581 84.1321C45.809 84.5601 45.1791 84.624 44.7511 84.2749C39.2881 79.8182 35.7969 73.0297 35.7969 65.4265C35.7969 51.9989 46.682 41.1138 60.1096 41.1138C73.5371 41.1138 84.4223 51.9989 84.4223 65.4265C84.4223 73.0297 80.9311 79.8182 75.468 84.2749C75.0401 84.624 74.4102 84.5601 74.061 84.1321C73.7119 83.7042 73.7758 83.0742 74.2038 82.7251C79.2212 78.632 82.4223 72.4035 82.4223 65.4265C82.4223 53.1035 72.4326 43.1138 60.1096 43.1138Z" fill="white"/>
</svg>
