<svg width="120" height="120" viewBox="0 0 120 120" fill="none" xmlns="http://www.w3.org/2000/svg">
<rect width="120" height="120" rx="60" fill="#FAFAFC"/>
<path fill-rule="evenodd" clip-rule="evenodd" d="M58.311 24C51.8422 24 48.2092 28.98 47.1813 31.8824C46.7684 33.0482 46.4493 34.8003 46.1948 36.713C47.6319 36.8135 49.015 36.796 50.3349 36.6899C56.7702 36.1724 61.6881 33.5533 64.012 32.2178C62.8543 30.3212 61.1249 28.7616 60.3298 28.1785C59.8845 27.8519 59.7882 27.2261 60.1148 26.7808C60.4414 26.3354 61.0672 26.2391 61.5126 26.5657C62.5639 27.3367 64.959 29.501 66.2568 32.1531C66.4881 32.6257 66.3136 33.1967 65.8576 33.4592C65.7599 33.5155 65.6499 33.5797 65.5279 33.6509C63.5394 34.8113 58.3666 37.83 51.3809 38.5991C51.3481 40.729 51.6473 43.5267 52.6107 45.8685C53.6957 48.506 55.5227 50.3863 58.572 50.3863C60.5392 50.3863 61.9687 49.6575 63.0392 48.5547C64.1346 47.4262 64.8856 45.8693 65.369 44.2063C65.8503 42.5506 66.047 40.8562 66.079 39.5245C66.095 38.8589 66.0694 38.3014 66.023 37.8989C65.9996 37.6961 65.9728 37.55 65.9494 37.4572C65.9454 37.441 65.9417 37.4279 65.9387 37.4174C65.6799 36.9912 65.7744 36.429 66.1764 36.1132C66.6107 35.772 67.2393 35.8474 67.5805 36.2817C67.7653 36.5168 67.8473 36.8036 67.8888 36.9683C67.9408 37.1747 67.9803 37.4139 68.0098 37.6697C68.0691 38.1843 68.0961 38.8371 68.0784 39.5725C68.0431 41.0426 67.8278 42.9129 67.2895 44.7646C66.7533 46.6092 65.877 48.5027 64.4743 49.9477C63.0467 51.4184 61.1074 52.3863 58.572 52.3863C54.417 52.3863 52.0242 49.7 50.7611 46.6294C49.6956 44.0393 49.3631 41.0502 49.3791 38.7523C48.2754 38.7997 47.133 38.7873 45.9566 38.7011C45.8557 39.6293 45.7682 40.5432 45.6893 41.3911C45.67 41.598 45.6512 41.8015 45.6328 42.0006C45.5504 42.8918 45.4763 43.6944 45.4051 44.3211C45.171 46.3806 44.5849 48.2807 44.0135 49.8872C44.4251 49.7609 44.8523 49.6384 45.2724 49.5231C46.5979 49.1591 47.9696 48.8352 48.8317 48.6473C49.3713 48.5297 49.9041 48.8718 50.0217 49.4114C50.1393 49.951 49.7972 50.4838 49.2576 50.6014C48.423 50.7833 47.0867 51.0989 45.8019 51.4517C44.4818 51.8142 43.3281 52.1867 42.7846 52.4693C42.4184 52.6597 41.9728 52.6056 41.6629 52.333C41.3529 52.0604 41.2423 51.6253 41.3844 51.2378C41.4676 51.0109 41.5541 50.7787 41.6424 50.5414C42.3345 48.683 43.1433 46.5111 43.4179 44.0952C43.4865 43.4916 43.5581 42.7164 43.6404 41.8263C43.659 41.6251 43.6781 41.418 43.6979 41.2056C43.8044 40.0617 43.928 38.7801 44.0803 37.4992C44.3528 35.2079 44.7272 32.8208 45.296 31.2147C46.4868 27.8525 50.6845 22 58.311 22C58.8632 22 59.311 22.4477 59.311 23C59.311 23.5523 58.8632 24 58.311 24ZM65.928 37.3852C65.928 37.3851 65.9291 37.3876 65.931 37.3929C65.9289 37.388 65.9279 37.3853 65.928 37.3852Z" fill="#536666"/>
<path fill-rule="evenodd" clip-rule="evenodd" d="M59.0292 24C65.498 24 69.131 28.98 70.1589 31.8824C70.6708 33.3275 71.0371 35.6677 71.3153 38.0903C71.4527 39.286 71.566 40.4758 71.6659 41.5516C71.6801 41.7045 71.694 41.8554 71.7077 42.0038C71.7899 42.8931 71.8639 43.6945 71.9351 44.3211C72.1692 46.3806 72.7553 48.2807 73.3267 49.8872C72.9151 49.7609 72.4879 49.6384 72.0679 49.5231C70.7424 49.1591 69.3706 48.8352 68.5085 48.6473C67.9689 48.5297 67.4361 48.8718 67.3185 49.4114C67.2009 49.951 67.543 50.4838 68.0826 50.6014C68.9172 50.7833 70.2536 51.0989 71.5383 51.4517C72.8584 51.8142 74.0121 52.1867 74.5556 52.4693C74.9218 52.6597 75.3674 52.6056 75.6773 52.333C75.9873 52.0604 76.0979 51.6253 75.9558 51.2378C75.8726 51.0109 75.7861 50.7787 75.6978 50.5414C75.0057 48.683 74.1969 46.5111 73.9223 44.0952C73.8537 43.4915 73.782 42.7152 73.6995 41.823C73.6858 41.6741 73.6717 41.522 73.6573 41.3668C73.5573 40.2892 73.4423 39.0809 73.3023 37.8621C73.0259 35.4558 72.6417 32.9018 72.0442 31.2147C70.8534 27.8525 66.6557 22 59.0292 22H57.9851C57.4329 22 56.9851 22.4477 56.9851 23C56.9851 23.5523 57.4329 24 57.9851 24H59.0292Z" fill="#536666"/>
<path d="M35 54H83V80H35C32.7909 80 31 78.2091 31 76V58C31 55.7909 32.7909 54 35 54Z" fill="#536666"/>
<path fill-rule="evenodd" clip-rule="evenodd" d="M83 48.123C83 46.4662 84.3431 45.123 86 45.123H90.3692C92.0261 45.123 93.3692 46.4662 93.3692 48.123V85.4769C93.3692 87.1338 92.0261 88.4769 90.3692 88.4769H86C84.3431 88.4769 83 87.1337 83 85.4769V48.123ZM86 47.123C85.4477 47.123 85 47.5708 85 48.123V85.4769C85 86.0292 85.4477 86.4769 86 86.4769H90.3692C90.9215 86.4769 91.3692 86.0292 91.3692 85.4769V48.123C91.3692 47.5708 90.9215 47.123 90.3692 47.123H86Z" fill="#536666"/>
<circle cx="50.2" cy="66.8" r="7.38462" fill="#96DAD7"/>
<circle cx="67.9227" cy="66.7998" r="7.38462" fill="#96DAD7"/>
<circle cx="0.984615" cy="0.984615" r="0.984615" transform="matrix(1 0 0 -1 58.0769 91.4)" fill="#536666"/>
<path fill-rule="evenodd" clip-rule="evenodd" d="M44.8029 80.6733C45.2891 80.4114 45.8956 80.5934 46.1574 81.0796C46.4712 81.6623 46.9248 82.6501 47.3022 83.7779C47.6763 84.896 48 86.2234 48 87.4614C48 88.1799 47.7772 89.0186 47.4835 89.8364C47.1819 90.676 46.7709 91.5855 46.3248 92.4756C45.4324 94.2563 44.3659 96.0251 43.6524 97.1164C43.3502 97.5786 42.7304 97.7083 42.2682 97.4061C41.8059 97.1038 41.6762 96.4841 41.9785 96.0219C42.6598 94.9798 43.6856 93.2778 44.5368 91.5795C44.9625 90.7301 45.3362 89.8981 45.6012 89.1603C45.8741 88.4006 46 87.826 46 87.4614C46 86.5333 45.7494 85.4402 45.4056 84.4126C45.065 83.3948 44.6571 82.5118 44.3965 82.0278C44.1347 81.5416 44.3166 80.9351 44.8029 80.6733Z" fill="#536666"/>
<path fill-rule="evenodd" clip-rule="evenodd" d="M73.3203 80.6734C72.834 80.4115 72.2276 80.5935 71.9657 81.0797C71.652 81.6624 71.1984 82.6502 70.821 83.7781C70.4469 84.8961 70.1231 86.2235 70.1231 87.4615C70.1231 88.18 70.3459 89.0187 70.6397 89.8365C70.9413 90.6761 71.3523 91.5857 71.7984 92.4757C72.6908 94.2564 73.7573 96.0252 74.4708 97.1165C74.773 97.5787 75.3928 97.7084 75.855 97.4062C76.3172 97.104 76.447 96.4842 76.1447 96.022C75.4634 94.9799 74.4375 93.2779 73.5864 91.5796C73.1607 90.7302 72.787 89.8983 72.5219 89.1604C72.2491 88.4007 72.1231 87.8261 72.1231 87.4615C72.1231 86.5334 72.3738 85.4403 72.7176 84.4127C73.0582 83.3949 73.4661 82.5119 73.7267 82.0279C73.9885 81.5417 73.8066 80.9352 73.3203 80.6734Z" fill="#536666"/>
</svg>
