<svg width="108" height="28" viewBox="0 0 108 28" fill="none" xmlns="http://www.w3.org/2000/svg">
<g clip-path="url(#clip0_4083_4740)">
<path d="M12.4863 0H0.77832V28L12.4863 0Z" fill="white"/>
<path d="M20.7236 0H32.4164V28L20.7236 0Z" fill="white"/>
<path d="M16.6053 10.3203L24.0572 28.0005H19.168L16.9409 22.3715H11.4873L16.6053 10.3203Z" fill="white"/>
<path d="M51.5168 17.8071L52.8973 21.7657C52.9431 21.8648 53.0117 21.9106 53.1338 21.9106H55.7881C55.933 21.9106 55.9559 21.842 55.933 21.6971L50.449 6.46523C50.4261 6.3432 50.4032 6.32031 50.2812 6.32031H46.9861C46.8946 6.32031 46.8412 6.38896 46.8412 6.48811C46.7954 7.28899 46.7268 7.53306 46.6277 7.76951L41.7385 21.6742C41.7156 21.842 41.769 21.9106 41.9063 21.9106H44.2784C44.4234 21.9106 44.492 21.8648 44.5454 21.7199L45.8497 17.8071H51.5168ZM46.6048 15.2214C47.3217 13.0553 48.2675 10.2789 48.6489 8.69242H48.6718C49.1447 10.3552 50.2583 13.6502 50.7617 15.2214H46.6048Z" fill="white"/>
<path d="M62.9835 22.1467C64.4098 22.1467 65.9276 21.8873 67.4684 21.2237C67.5904 21.178 67.6133 21.1246 67.6133 21.0102C67.5675 20.583 67.5141 19.9652 67.5141 19.4923V5.15292C67.5141 5.06139 67.5141 5.01562 67.3997 5.01562H64.8141C64.7149 5.01562 64.6691 5.06139 64.6691 5.18343V10.042C64.2649 9.99628 63.9827 9.9734 63.6471 9.9734C59.4749 9.9734 56.9121 12.7269 56.9121 16.1668C56.9121 20.1559 59.5435 22.1467 62.9835 22.1467ZM64.6691 19.4923C64.242 19.6296 63.7691 19.683 63.2886 19.683C61.397 19.683 59.8486 18.6152 59.8486 16.0219C59.8486 13.7261 61.4428 12.3684 63.5555 12.3684C63.9827 12.3684 64.3564 12.4142 64.6691 12.5362V19.4923Z" fill="white"/>
<path d="M75.862 9.97266C72.3 9.97266 70.0957 12.7032 70.0957 16.0745C70.0957 19.0873 71.85 22.1459 75.8086 22.1459C79.157 22.1459 81.5062 19.6823 81.5062 15.9983C81.5062 12.749 79.5155 9.97266 75.862 9.97266ZM75.7171 12.3676C77.7307 12.3676 78.5849 14.0991 78.5849 16.0745C78.5849 18.5153 77.3264 19.728 75.862 19.728C74.0543 19.728 72.9865 18.2102 72.9865 16.0211C72.9865 13.7711 74.1229 12.3676 75.7171 12.3676Z" fill="white"/>
<path d="M84.1795 5.01562C84.0804 5.01562 84.0117 5.06139 84.0117 5.18343V21.4144C84.0117 21.4831 84.0804 21.6051 84.1795 21.628C85.316 21.9788 86.5059 22.1467 87.7339 22.1467C91.2501 22.1467 94.6671 19.9652 94.6671 15.5719C94.6671 12.3913 92.4857 9.9734 89.0687 9.9734C88.283 9.9734 87.5508 10.0954 86.9101 10.309L86.8796 5.20631C86.8796 5.03851 86.8338 5.01562 86.666 5.01562H84.1795ZM91.7459 15.8617C91.7459 18.4932 89.9458 19.7288 88.0008 19.7288C87.5966 19.7288 87.2381 19.7059 86.9101 19.6067V12.6811C87.2839 12.5362 87.7339 12.4142 88.5652 12.4142C90.4416 12.4142 91.7459 13.604 91.7459 15.8617Z" fill="white"/>
<path d="M104.317 16.7152C105.476 16.7152 106.429 16.6924 106.757 16.6161C106.88 16.5932 106.925 16.5474 106.948 16.4483C107.017 16.1889 107.047 15.6474 107.047 14.9838C107.047 12.7261 105.69 9.97266 102.181 9.97266C98.5962 9.97266 96.6055 12.8939 96.6055 16.1889C96.6055 19.1102 98.1462 22.1459 102.463 22.1459C104.08 22.1459 105.125 21.8866 106.025 21.4594C106.117 21.4137 106.163 21.3374 106.163 21.2001V19.2246C106.163 19.1102 106.094 19.0873 106.025 19.1331C105.125 19.5145 104.149 19.7052 103.081 19.7052C100.663 19.7052 99.5649 18.3704 99.4962 16.7152H104.317ZM99.4962 14.6711C99.6869 13.5117 100.419 12.2532 102.059 12.2532C103.867 12.2532 104.34 13.7711 104.34 14.4575C104.34 14.4804 104.34 14.5796 104.34 14.6482C104.24 14.6711 103.935 14.6711 103.035 14.6711H99.4962Z" fill="white"/>
</g>
<defs>
<clipPath id="clip0_4083_4740">
<rect width="106.269" height="28" fill="white" transform="translate(0.77832)"/>
</clipPath>
</defs>
</svg>
