<svg width="116" height="24" viewBox="0 0 116 24" fill="none" xmlns="http://www.w3.org/2000/svg">
<g clip-path="url(#clip0_4083_4607)">
<path fill-rule="evenodd" clip-rule="evenodd" d="M7.6069 0H17.3262C21.2617 0 24.4653 3.20363 24.4648 7.14009V16.8599C24.4648 20.7959 21.2612 24 17.3257 24H7.6069C3.66797 24 0.46582 20.7959 0.46582 16.8599V7.14009C0.46582 3.20363 3.66797 0 7.6069 0ZM20.0336 15.0567L20.0425 14.9497H21.7344V15.7133C21.7344 16.9715 21.5918 17.7365 21.2423 18.3529C20.8476 19.0476 20.0791 19.4799 19.2354 19.4799C18.4248 19.4799 17.6712 19.0848 17.1681 18.395C16.8572 17.9677 16.5972 17.3968 16.3393 16.5615C15.7248 17.4077 15.0746 18.0593 14.3621 18.5297C13.2594 19.2591 12.0701 19.6294 10.8238 19.6294C8.68471 19.6294 7.0517 18.9387 5.68607 17.4557C4.37689 16.0366 3.71289 14.153 3.71289 11.86C3.71289 9.80116 4.41204 7.94979 5.73559 6.50692C7.06556 5.05513 8.74858 4.31934 10.7381 4.31934C12.1795 4.31934 13.3733 4.78428 14.3884 5.73844C14.9707 6.28657 15.495 7.06644 15.8233 7.76807C15.8406 7.80421 15.8575 7.84184 15.8738 7.87997C16.2021 6.31925 16.566 4.60355 16.566 4.60355H20.506C20.506 4.60355 18.4298 11.9204 17.7569 14.2045C17.9945 14.8586 18.2293 15.2196 18.4902 15.5202C18.7076 15.7717 18.974 15.8945 19.3052 15.8945C19.7385 15.8945 19.9994 15.4731 20.0336 15.0567ZM11.1827 17.7483C12.0611 17.7483 12.841 17.2869 13.4382 16.4124C14.0254 15.5538 14.5087 14.0634 15.0028 11.5981C14.6092 9.77442 14.0596 8.35581 13.4094 7.49722C12.8029 6.69705 12.1052 6.32569 11.2115 6.32569C10.2073 6.32569 9.46259 6.76836 8.86841 7.71657C8.2361 8.72668 7.91524 10.1413 7.91524 11.9214C7.91524 13.8629 8.21778 15.3498 8.81543 16.3421C9.38535 17.2898 10.1593 17.7483 11.1827 17.7483Z" fill="white"/>
<path d="M36.4804 4.95127C36.2081 3.72478 35.4347 2.86816 33.7373 2.86816C32.1404 2.86816 31.2655 3.72478 30.9932 4.95127L29.7607 10.5029H31.0783C31.3789 10.5029 31.678 10.2633 31.7423 9.96963L31.9914 8.84019H35.4827L35.7323 9.96963C35.7966 10.2628 36.0952 10.5029 36.3958 10.5029H37.7139L36.4804 4.95127ZM32.3365 7.27551L32.7708 5.30926C32.8406 4.99137 33.0882 4.50563 33.7378 4.50563C34.3869 4.50563 34.634 4.99088 34.7048 5.30926L35.1386 7.27551H32.3365Z" fill="white"/>
<path d="M40.9616 4.72196H43.9008V10.5024H45.72V3.04785H40.2332C39.6336 3.04785 39.1414 3.53904 39.1414 4.13966V7.90677C39.1414 8.41084 38.9092 8.7317 38.5057 8.81241L38.1328 8.90153L38.4705 10.5029H38.8166C40.0614 10.5029 40.9616 9.57643 40.9616 8.00085V4.72196Z" fill="white"/>
<path d="M61.5338 3.04816H60.8708V2.18164H59.5973C59.2967 2.18164 59.0511 2.42575 59.0511 2.7268V3.04816H58.3881C56.1391 3.04816 54.7334 4.58115 54.7334 6.77516C54.7334 8.96967 56.1391 10.5027 58.3881 10.5027H59.0511V11.4063H60.3247C60.6252 11.4063 60.8708 11.1607 60.8708 10.8616V10.5027H61.5338C63.7828 10.5027 65.188 8.96967 65.188 6.77516C65.188 4.58115 63.7828 3.04816 61.5338 3.04816ZM58.3881 8.85629C57.1423 8.85629 56.5531 8.068 56.5531 6.77516C56.5531 5.48331 57.1423 4.69503 58.3881 4.69503H59.0511V8.85629H58.3881ZM61.5338 8.85629H60.8708V4.69503H61.5338C62.7801 4.69503 63.3674 5.48331 63.3674 6.77516C63.3674 8.068 62.7796 8.85629 61.5338 8.85629Z" fill="white"/>
<path d="M51.3667 4.93833H48.7552V3.04883H46.9355V9.95718C46.9355 10.2572 47.1816 10.5028 47.4817 10.5028H51.3667C52.9531 10.5028 54.1474 9.30755 54.1474 7.72058C54.1474 6.13412 53.1452 4.93833 51.3667 4.93833ZM51.3667 8.82923H48.7552V6.61194H51.3667C51.8103 6.61194 52.3282 7.00905 52.3282 7.72009C52.3282 8.43063 51.8103 8.82923 51.3667 8.82923Z" fill="white"/>
<path d="M71.9746 4.95127C71.7013 3.72478 70.9283 2.86816 69.2305 2.86816C67.6351 2.86816 66.7597 3.72478 66.4863 4.95127L65.2539 10.5029H66.5725C66.8721 10.5029 67.1716 10.2633 67.235 9.96963L67.4846 8.84019H70.9764L71.2249 9.96963C71.2893 10.2628 71.5884 10.5029 71.8884 10.5029H73.206L71.9746 4.95127ZM67.8307 7.27551L68.2629 5.30926C68.3347 4.99137 68.5818 4.50563 69.2305 4.50563C69.8801 4.50563 70.1262 4.99088 70.198 5.30926L70.6313 7.27551H67.8307Z" fill="white"/>
<path d="M82.5227 17.0947C82.8436 16.7788 83.0501 16.3485 83.0501 15.7519C83.0501 14.4308 82.0266 13.5068 80.7046 13.5068H76.2556C75.9556 13.5068 75.71 13.7519 75.71 14.0525V20.4157C75.71 20.7157 75.9556 20.9613 76.2556 20.9613L80.9853 20.9623C82.3792 20.9623 83.3046 19.9651 83.3046 18.644C83.3046 17.979 82.9887 17.4581 82.5227 17.0947ZM80.7026 15.0542C80.9447 15.0542 81.2755 15.3255 81.2755 15.789C81.2755 16.2559 80.9447 16.4941 80.7026 16.5233H77.493V15.0537L80.7026 15.0542ZM80.8486 19.4155H77.4925V17.9449H80.8486C81.0908 17.9746 81.421 18.2123 81.421 18.6797C81.421 19.1427 81.0908 19.4155 80.8486 19.4155Z" fill="white"/>
<path d="M70.5027 13.3359C68.2533 13.3359 66.6807 14.9378 66.6807 17.2348C66.6807 19.5308 68.2528 21.1341 70.5027 21.1341H71.1256C73.3756 21.1341 74.9477 19.5308 74.9477 17.2348C74.9477 14.9378 73.3761 13.3359 71.1256 13.3359H70.5027ZM68.6464 17.2348C68.6464 15.8979 69.3584 14.8759 70.6127 14.8759H71.0167C72.2699 14.8759 72.9815 15.8979 72.9815 17.2348C72.9815 18.5717 72.2694 19.5947 71.0167 19.5947H70.6127C69.358 19.5942 68.6464 18.5717 68.6464 17.2348Z" fill="white"/>
<path d="M36.543 13.5068L36.7826 14.6343C36.8465 14.9349 37.1446 15.18 37.4446 15.18H39.141V20.9608H40.9612V15.1804H42.6046C42.9042 15.1804 43.2018 14.9353 43.2651 14.6348L43.5048 13.5073H36.543" fill="white"/>
<path d="M97.841 13.5068V16.4669H94.3006V13.5068H92.4805V20.9613H94.3006V18.0657H97.841V20.9613H99.6612V13.5068H97.841Z" fill="white"/>
<path d="M57.7221 15.4107C57.4493 14.1837 56.6774 13.3281 54.9785 13.3281C53.3841 13.3281 52.5082 14.1842 52.2364 15.4107L51.0029 20.9614H52.321C52.6216 20.9614 52.9202 20.7227 52.985 20.4291L53.2336 19.2992H56.7239L56.973 20.4291C57.0368 20.7227 57.3364 20.9614 57.637 20.9614H58.9546L57.7221 15.4107ZM53.5792 17.734L54.0125 15.7677C54.0828 15.4503 54.3299 14.9641 54.9795 14.9641C55.6291 14.9641 55.8762 15.4503 55.947 15.7687L56.3803 17.7335H53.5792V17.734Z" fill="white"/>
<path d="M90.4433 15.4107C90.17 14.1837 89.3981 13.3281 87.6992 13.3281C86.1033 13.3281 85.2289 14.1842 84.9561 15.4107L83.7236 20.9614H85.0422C85.3418 20.9614 85.6409 20.7227 85.7047 20.4291L85.9548 19.2992H89.4456L89.6957 20.4291C89.7605 20.7227 90.0586 20.9614 90.3582 20.9614H91.6778L90.4433 15.4107ZM86.2984 17.734L86.7327 15.7677C86.8045 15.4503 87.0506 14.9641 87.6992 14.9641C88.3479 14.9641 88.5959 15.4503 88.6667 15.7687L89.1 17.7335H86.2984V17.734Z" fill="white"/>
<path d="M37.1093 20.9415V20.9628H33.5541C31.4017 20.9628 29.8984 19.4303 29.8984 17.2348C29.8984 15.0403 31.4022 13.5078 33.5541 13.5078H36.2512L35.9873 14.6501C35.92 14.9433 35.6189 15.1814 35.3184 15.1814H33.5541C32.4039 15.1814 31.7181 16.04 31.7181 17.2353C31.7181 18.4301 32.4034 19.2892 33.5541 19.2892H36.1819C36.4815 19.2892 36.783 19.5279 36.8504 19.821L37.1093 20.9415Z" fill="white"/>
<path d="M48.3828 13.5068L44.4983 13.5073C44.1973 13.5073 43.9521 13.7529 43.9521 14.053V20.9618H45.7723V19.0709H48.3828C50.1633 19.0709 51.165 17.8751 51.165 16.2896C51.165 14.7036 49.9692 13.5068 48.3828 13.5068ZM48.3828 17.3977H45.7723V15.1824H48.3828C48.8269 15.1824 49.3453 15.579 49.3453 16.2901C49.3453 17.0001 48.8269 17.3977 48.3828 17.3977Z" fill="white"/>
<path d="M115.087 19.3882H111.167V17.9568H115.429V16.5188H111.167V15.0804H115.087C115.41 15.0804 115.665 14.9388 115.754 14.5486L115.997 13.5068H109.894C109.594 13.5068 109.348 13.7519 109.348 14.0525V20.4157C109.348 20.7157 109.594 20.9623 109.894 20.9623H115.997L115.754 19.9205C115.665 19.5309 115.411 19.3882 115.087 19.3882Z" fill="white"/>
<path d="M100.908 20.9613V13.5068H102.728V18.4252L105.881 13.9465C106.059 13.7049 106.448 13.5068 106.751 13.5068H108.1V20.9613H106.28V16.0435L103.126 20.5216C102.949 20.7633 102.559 20.9613 102.257 20.9613H100.908Z" fill="white"/>
<path d="M64.4438 17.1952L66.9839 13.5078H65.3123C64.9513 13.5078 64.6973 13.6177 64.474 13.9678L63.1207 16.093H62.8786L61.5244 13.9678C61.302 13.6172 61.0485 13.5078 60.6856 13.5078H58.96L61.5546 17.2739L59.0144 20.9618H60.6856C61.048 20.9618 61.302 20.8529 61.5244 20.5018L62.8786 18.3761H63.1207L64.474 20.5018C64.6973 20.8529 64.9513 20.9618 65.3123 20.9618H67.0379L64.4438 17.1952Z" fill="white"/>
</g>
<defs>
<clipPath id="clip0_4083_4607">
<rect width="115.531" height="24" fill="white" transform="translate(0.46582)"/>
</clipPath>
</defs>
</svg>
