<svg width="156" height="16" viewBox="0 0 156 16" fill="none" xmlns="http://www.w3.org/2000/svg">
<g clip-path="url(#clip0_4083_4751)">
<path d="M156 0.417986H151.383L145.853 6.59339V0.417986H141.976L141.995 15.6196H145.853V9.84289L151.098 15.6196H156L148.932 8.11413L156 0.417986ZM135.726 6.66948L132.191 6.27075C130.119 6.0425 129.607 5.52916 129.607 4.8261C129.607 4.04695 130.671 3.34389 132.742 3.34389C134.738 3.34389 135.783 4.08548 135.972 5.20652H139.773C139.58 1.99458 136.883 0 132.951 0C128.277 0 125.92 1.86167 125.92 5.14874C125.92 7.82809 127.479 9.08301 130.709 9.42491L134.3 9.80437C135.669 9.95654 136.296 10.4891 136.296 11.1729C136.296 11.9521 135.384 12.6551 133.179 12.6551C130.633 12.6551 129.607 12.0089 129.436 10.7164H125.711C125.883 14.2134 128.162 15.999 133.046 15.999C137.511 15.999 140.001 14.042 140.001 11.0969C140.001 8.53115 138.519 6.99211 135.726 6.66948ZM111.764 15.6196H124.001V12.3325H115.64V9.57708H122.367V6.27075H115.64V3.70505H124.001V0.417986H111.764V15.6196ZM102.643 0.417986H95.5364V15.6196H102.643C108.097 15.6196 109.598 13.5865 109.598 7.90417C109.598 2.56474 108.154 0.417986 102.643 0.417986ZM102.487 12.3335H99.4052V3.70505H102.487C104.92 3.70505 105.641 4.37055 105.641 7.90417C105.645 11.1344 104.828 12.3335 102.487 12.3335ZM85.0097 0C79.4796 0 76.6105 3.40071 76.6105 7.98026C76.6105 12.5791 79.4796 15.999 85.0097 15.999C90.5582 15.999 93.4272 12.5791 93.4272 7.98026C93.4272 3.40071 90.5582 0 85.0097 0ZM85.0097 12.5791C82.1407 12.5791 80.5631 10.831 80.5631 7.98026C80.5631 5.18726 82.1407 3.41997 85.0097 3.41997C87.899 3.41997 89.4564 5.18726 89.4564 7.98026C89.4564 10.831 87.8981 12.5791 85.0097 12.5791ZM62.321 3.70505H67.2232V15.6196H71.0997V3.70505H75.9836V0.417986H62.321V3.70505ZM56.6782 9.80437C56.6782 11.7807 55.4618 12.5791 53.3902 12.5791C51.3763 12.5791 50.0655 11.7431 50.0655 9.80437V0.417986H46.1891V10.2416C46.1891 14.6314 50.1031 15.999 53.3902 15.999C56.6589 15.999 60.5537 14.6314 60.5537 10.2416V0.417986H56.6782V9.80437ZM34.8447 0.417986L29.0112 15.6196H33.0206L34.0386 12.7688H40.5511L41.5527 15.6196H45.694L39.7893 0.417986H34.8447ZM35.1924 9.53855L37.3218 3.57985L39.4156 9.54048L35.1924 9.53855ZM0.167276 15.6205L13.7797 7.15295H20.8412C20.8954 7.15295 20.9491 7.16365 20.9992 7.18442C21.0492 7.2052 21.0947 7.23565 21.133 7.27403C21.1713 7.3124 21.2017 7.35796 21.2223 7.40808C21.243 7.4582 21.2535 7.51191 21.2534 7.56612C21.259 7.63646 21.2437 7.70689 21.2095 7.76857C21.1752 7.83025 21.1235 7.88044 21.0608 7.91284L14.3749 11.9213C13.9406 12.1813 13.7884 12.7033 13.7884 13.0943L13.7817 15.6205H22.2782V0.939024C22.2783 0.868614 22.2643 0.798896 22.2368 0.73408C22.2093 0.669263 22.1689 0.610693 22.1181 0.561906C22.0674 0.513119 22.0072 0.475127 21.9414 0.450226C21.8755 0.425324 21.8053 0.414029 21.735 0.417023H13.6276L0.0478516 8.84801V15.6205H0.167276Z" fill="white"/>
</g>
<defs>
<clipPath id="clip0_4083_4751">
<rect width="155.952" height="16" fill="white" transform="translate(0.0478516)"/>
</clipPath>
</defs>
</svg>
