<svg width="109" height="28" viewBox="0 0 109 28" fill="none" xmlns="http://www.w3.org/2000/svg">
<path fill-rule="evenodd" clip-rule="evenodd" d="M17.6758 0.0457348C17.6589 0.0922639 17.4784 1.07924 17.2748 2.23903L16.9045 4.34772L14.8866 4.68014C13.7768 4.86299 12.8031 5.03299 12.7228 5.05798C12.5537 5.11052 12.3845 5.07654 15.0911 5.53384L16.9048 5.84028L17.2744 7.94763C17.4777 9.10666 17.6637 10.0772 17.6877 10.1044C17.7117 10.1315 17.7473 10.0527 17.7669 9.92924C17.7865 9.80576 17.9339 8.83974 18.0945 7.78259C18.2552 6.72538 18.393 5.85446 18.4007 5.84717C18.4085 5.83993 19.3212 5.68674 20.429 5.50687C21.5367 5.32694 22.5219 5.1574 22.6182 5.13014L22.7934 5.08057L22.6474 5.04444C22.5672 5.02459 21.5822 4.86112 20.4586 4.68119C19.3351 4.50132 18.4088 4.3472 18.4004 4.33868C18.3919 4.33021 18.2401 3.3667 18.0632 2.19763C17.7121 -0.121233 17.7202 -0.0764553 17.6758 0.0457348ZM12.1974 2.31755C11.7639 2.44091 11.043 2.61068 10.5954 2.6948C6.26743 3.50851 2.66425 6.68305 1.18127 10.9891C-1.28401 18.1471 2.85276 25.9541 10.0433 27.7138C11.098 27.9719 11.6574 28.0207 13.249 27.9932C14.4333 27.9728 14.7887 27.9461 15.3207 27.8373C16.6418 27.5675 18.2193 26.9498 19.3192 26.2718C20.3962 25.6078 21.5983 24.5712 22.3851 23.6279C22.6293 23.3351 22.9711 23.0266 23.3875 22.7232C24.1685 22.154 24.5259 21.8678 24.4946 21.8365C24.4815 21.8234 23.973 22.1797 23.3646 22.6282C22.254 23.4473 20.8894 24.3874 20.8113 24.3874C20.7883 24.3874 20.9188 24.2232 21.1013 24.0225C21.8197 23.2325 22.6851 21.9778 23.1283 21.084C23.3799 20.5765 23.6051 20.0129 23.5702 19.9781C23.5556 19.9635 23.3625 20.2193 23.141 20.5467C22.0759 22.1212 20.5404 23.6872 19.1571 24.6097C18.1322 25.2932 17.9028 25.3913 18.663 24.821C19.2503 24.3804 20.3522 23.3043 20.7498 22.783C21.3709 21.9687 21.7745 20.9889 21.77 20.306C21.7674 19.9183 21.6852 20.117 21.6053 20.7041C21.5308 21.2513 21.4404 21.4371 20.8998 22.1545C18.4393 25.4199 14.3762 26.8711 10.4831 25.8749C7.53247 25.1199 4.94844 22.8612 3.72053 19.9636C3.39494 19.1954 3.15044 18.3709 2.99731 17.5253C2.86765 16.8094 2.8492 14.9668 2.96456 14.2584C3.147 13.1379 3.51952 11.9683 3.9983 11.0127C4.69536 9.6214 6.07507 7.96369 6.69693 7.77033C6.83489 7.72742 6.86997 7.70062 6.7932 7.69671C6.37899 7.6757 5.68176 8.0676 5.05446 8.67394L4.71294 9.00414L4.87296 8.68305C5.37561 7.67482 6.48822 6.42647 7.72454 5.48381C8.23199 5.09686 7.2021 5.60022 6.51 6.07736C4.8071 7.25145 3.50464 8.94284 2.66028 11.0766C2.00274 12.7383 1.64359 14.5161 1.52222 16.7103L1.48018 17.4693L1.39483 17.0314C1.27136 16.3984 1.28397 14.5169 1.41754 13.6454C1.6618 12.0518 2.05622 10.7342 2.66215 9.488C3.43388 7.90075 4.36131 6.77279 5.72788 5.75954C7.86833 4.17252 11.0013 3.14159 13.7036 3.13516C14.29 3.13376 14.4208 3.11934 14.3295 3.06639C14.2553 3.02337 13.7244 2.99079 12.8408 2.97514C11.5031 2.95144 11.3152 2.96446 10.0957 3.16541C9.73055 3.22554 10.7182 2.85681 11.7303 2.5551C12.2601 2.39712 12.8249 2.22881 12.9855 2.18105C13.1678 2.12682 13.2226 2.09401 13.1314 2.09378C13.0512 2.09354 12.6308 2.19425 12.1974 2.31755ZM22.4798 8.09382C22.415 8.13451 22.4446 8.25921 22.6354 8.74925C23.0976 9.93624 23.2486 10.7092 23.2497 11.894C23.2509 13.2348 23.0061 14.325 22.4369 15.5128C21.3308 17.8214 19.3297 19.608 16.7802 20.5632C15.3356 21.1045 14.0426 21.3152 12.3632 21.283L11.2155 21.2611L11.2923 21.4097C11.4183 21.6534 11.6775 21.8767 11.8404 21.882C11.9244 21.8847 12.1283 21.883 12.2936 21.878C12.6335 21.8679 12.6983 21.9194 12.5722 22.0994C12.452 22.271 11.9788 22.4028 11.3362 22.4436C11.0393 22.4625 10.7962 22.4974 10.7962 22.5212C10.7962 22.7339 13.6583 22.8056 14.6201 22.6169C15.8793 22.3699 17.2429 21.9248 18.1725 21.4574C18.6521 21.2163 18.5324 21.3491 17.9608 21.6924C16.4829 22.5801 14.9856 23.113 13.4347 23.3031C13.0592 23.3491 11.9599 23.4034 10.9917 23.4239L9.2314 23.4609L8.57906 23.2442C7.95316 23.0363 6.62104 22.417 5.84382 21.9726C5.29394 21.6582 5.44123 21.85 6.09381 22.2982C6.69944 22.7142 7.58367 23.1921 8.11283 23.3893C8.66663 23.5959 10.0084 23.9149 10.7102 24.0068C11.5757 24.1203 13.0526 24.1203 13.9181 24.0068C17.9952 23.4724 21.5612 20.885 23.4107 17.119C23.9339 16.0537 24.1406 15.4734 24.2809 14.6765C24.677 12.4246 24.5582 10.4453 23.9554 9.25576C23.6276 8.60902 22.7544 7.92136 22.4798 8.09382ZM107.139 9.62397C107.035 9.65403 106.858 9.76974 106.747 9.88101C106.286 10.3423 106.359 11.1017 106.904 11.5053C107.157 11.6927 107.693 11.7087 107.997 11.538C108.363 11.3326 108.467 11.1208 108.467 10.5812C108.467 10.1358 108.463 10.1254 108.246 9.90857C107.937 9.59962 107.559 9.50248 107.139 9.62397ZM107.15 9.81604C106.784 9.97553 106.527 10.458 106.629 10.7943C106.81 11.391 107.436 11.6682 107.927 11.3688C108.508 11.0144 108.484 10.1848 107.882 9.86671C107.598 9.71661 107.408 9.70348 107.15 9.81604ZM88.2669 14.4627V19.0748H88.9383H89.6097V17.439V15.8033L90.9916 15.819L92.3735 15.8346L93.283 17.4546L94.1926 19.0746L94.9369 19.0746C95.3463 19.0747 95.6813 19.0515 95.6813 19.023C95.6813 18.9808 94.8336 17.4443 93.9824 15.9438L93.8125 15.6443L94.1485 15.481C94.5545 15.2837 95.1805 14.6714 95.4028 14.254C95.8504 13.4138 95.8537 12.2855 95.4108 11.4117C95.2122 11.0197 94.5706 10.3781 94.1786 10.1795C93.5573 9.86461 93.4112 9.85066 90.7359 9.85066H88.2669V14.4627ZM31.7339 10.2447C31.4641 10.7805 27.5514 19.0109 27.5514 19.0426C27.5514 19.0603 27.8818 19.0748 28.2856 19.0748H29.0199L29.3183 18.4326L29.6168 17.7904H31.9031H34.1894L34.4883 18.4326L34.7872 19.0748H35.5249C36.2026 19.0748 36.2595 19.0665 36.2255 18.9726C36.1161 18.6708 31.9523 9.9718 31.9163 9.96981C31.8928 9.96847 31.8106 10.0922 31.7339 10.2447ZM39.461 10.6096V11.2518H42.5259C44.2117 11.2518 45.5909 11.2645 45.5909 11.28C45.5909 11.2955 44.3162 13.0156 42.7582 15.1023C41.2003 17.1891 39.9102 18.9366 39.8914 18.9856C39.8609 19.0651 40.3426 19.0748 44.3295 19.0748H48.8018V18.4039V17.733L45.6538 17.7179L42.5057 17.7028L44.2048 15.426C45.1393 14.1737 46.4374 12.4333 47.0895 11.5583L48.2751 9.96742H43.868H39.461V10.6096ZM56.1087 10.3009C55.7933 10.9288 51.9544 19.004 51.9544 19.0395C51.9544 19.0589 52.2843 19.0748 52.6876 19.0748H53.4208L53.7187 18.4326L54.0167 17.7904H56.3045H58.5923L58.8912 18.4326L59.1901 19.0748H59.9216C60.3239 19.0748 60.653 19.0575 60.653 19.0364C60.653 18.9664 56.3726 10.0211 56.3251 9.99176C56.2994 9.97594 56.2021 10.115 56.1087 10.3009ZM63.9223 14.5211V19.0748H64.5937H65.2651V16.1415V13.2083L66.7688 14.7112C67.5958 15.5378 68.2986 16.2132 68.3305 16.2121C68.3623 16.2109 69.0978 15.5301 69.9647 14.6991L71.541 13.1881L71.5561 16.1314L71.5712 19.0748H72.2421H72.9129V14.512V9.94932L72.7845 10.0605C72.7138 10.1217 71.6855 11.1004 70.4992 12.2355L68.3423 14.2992L66.1758 12.1333C64.9842 10.9421 63.9898 9.96742 63.9658 9.96742C63.9419 9.96742 63.9223 12.0166 63.9223 14.5211ZM80.5108 10.0696C80.3955 10.2876 76.2406 19.0242 76.2406 19.0488C76.2406 19.0631 76.5711 19.0748 76.975 19.0748H77.7093L78.0112 18.4331L78.3131 17.7914L80.5941 17.7909L82.8751 17.7904L83.1852 18.4326L83.4953 19.0748H84.2216C84.8112 19.0748 84.9443 19.0595 84.9289 18.9937C84.8911 18.8312 80.6471 9.96958 80.6066 9.96852C80.5836 9.96788 80.5405 10.0134 80.5108 10.0696ZM103.221 10.0696C103.097 10.3033 98.9506 19.0192 98.9506 19.0458C98.9506 19.0617 99.281 19.0748 99.6849 19.0748H100.419L100.721 18.4331L101.023 17.7914L103.305 17.7909L105.588 17.7904L105.893 18.4326L106.198 19.0748H106.923C107.323 19.0748 107.649 19.0551 107.65 19.031C107.651 18.9475 103.358 9.97039 103.317 9.96887C103.294 9.96806 103.25 10.0134 103.221 10.0696ZM107.124 10.5804C107.124 11.0345 107.14 11.135 107.211 11.135C107.273 11.135 107.299 11.0734 107.299 10.9307C107.299 10.6674 107.406 10.6676 107.577 10.9314C107.657 11.0553 107.756 11.135 107.829 11.135C107.949 11.135 107.949 11.1346 107.822 10.9567C107.705 10.7922 107.702 10.7705 107.789 10.6749C107.841 10.6178 107.883 10.479 107.883 10.3663C107.883 10.1255 107.728 10.0258 107.355 10.0258H107.124V10.5804ZM107.299 10.3761C107.299 10.5322 107.318 10.5512 107.476 10.5512C107.675 10.5512 107.76 10.422 107.649 10.2877C107.609 10.24 107.514 10.2009 107.438 10.2009C107.322 10.2009 107.299 10.2306 107.299 10.3761ZM89.6097 12.7943V14.4627L91.3757 14.4621C93.1122 14.4616 93.1466 14.4593 93.4336 14.3232C94.7414 13.7031 94.7245 11.9341 93.4048 11.315C93.0852 11.1651 93.0733 11.1641 91.3465 11.1451L89.6097 11.1259V12.7943ZM31.1122 14.6733C30.6789 15.5869 30.3157 16.3598 30.305 16.391C30.2927 16.4267 30.8807 16.4476 31.8959 16.4476C32.7815 16.4476 33.5062 16.4305 33.5062 16.4096C33.5062 16.3797 31.9411 13.0617 31.9084 13.0223C31.9038 13.0168 31.5455 13.7597 31.1122 14.6733ZM55.526 14.6443C55.0997 15.5429 54.7362 16.3162 54.7183 16.3629C54.6903 16.4357 54.9124 16.4476 56.2975 16.4476C57.1839 16.4476 57.9092 16.4322 57.9092 16.4132C57.9092 16.3861 56.3426 13.0641 56.3097 13.0214C56.305 13.0153 55.9524 13.7457 55.526 14.6443ZM79.8018 14.6782C79.3683 15.5917 79.0049 16.3636 78.9942 16.3934C78.9825 16.426 79.6182 16.4476 80.5851 16.4476C81.4708 16.4476 82.1954 16.4262 82.1954 16.4001C82.1954 16.3604 80.6292 13.0478 80.5996 13.0249C80.5943 13.0207 80.2353 13.7647 79.8018 14.6782ZM102.512 14.6758C102.078 15.5882 101.715 16.3601 101.704 16.3912C101.692 16.4266 102.285 16.4476 103.299 16.4476C104.844 16.4476 104.912 16.443 104.879 16.3393C104.849 16.2459 103.334 13.0457 103.309 13.0246C103.304 13.0204 102.945 13.7634 102.512 14.6758ZM7.41017 19.885C7.41017 19.9506 8.46282 20.629 8.89886 20.8443C9.51098 21.1467 10.0434 21.2932 10.53 21.2932C10.762 21.2932 10.971 21.2741 10.9943 21.2508C11.0176 21.2275 10.8578 21.1756 10.6392 21.1355C9.96489 21.0117 9.11114 20.7013 8.24209 20.2642C7.7845 20.034 7.41017 19.8634 7.41017 19.885ZM5.48361 20.3835C5.48361 20.4289 5.68001 20.675 5.92001 20.9301C6.40725 21.448 7.0492 21.8438 7.3383 21.8045L7.49774 21.7828L7.3226 21.7096C7.08534 21.6103 6.81644 21.3459 6.44245 20.8438C6.27029 20.6127 6.07781 20.3959 6.0147 20.3622C5.84131 20.2693 5.48361 20.2837 5.48361 20.3835Z" fill="white"/>
</svg>
