<svg width="40" height="28" viewBox="0 0 40 28" fill="none" xmlns="http://www.w3.org/2000/svg">
<g clip-path="url(#clip0_4083_4312)">
<mask id="mask0_4083_4312" style="mask-type:luminance" maskUnits="userSpaceOnUse" x="0" y="0" width="40" height="28">
<path d="M39.7393 0H0.132812V28H39.7393V0Z" fill="white"/>
</mask>
<g mask="url(#mask0_4083_4312)">
<path d="M24.3908 11.3164C23.076 13.6387 21.1293 14.5496 18.4205 14.5496C16.1721 14.5496 14.1651 13.7128 12.8477 12.4032C14.2266 15.3881 17.232 17.4581 20.7191 17.4581C23.6592 17.4581 26.2573 15.9867 27.8263 13.7359L24.3908 11.3164Z" fill="white"/>
<path d="M12.0469 8.72709C12.0469 11.4917 14.9014 13.7328 18.423 13.7328C19.4007 13.7367 20.3703 13.5568 21.2815 13.2024C21.0961 13.2257 20.9095 13.2375 20.7225 13.2375C18.2471 13.2375 16.2401 11.2186 16.2401 8.72782C16.2401 6.23708 18.2471 4.2182 20.7225 4.2182C21.4444 4.21844 22.1553 4.39354 22.7947 4.72853C23.4341 5.06351 23.9828 5.54839 24.394 6.14168L27.8294 3.72138C26.2604 1.47104 23.6624 0 20.7225 0C15.9315 0 12.0473 3.90699 12.0469 8.72671V8.72709Z" fill="white"/>
<path d="M8.64336 24.1597C8.33423 24.6057 7.92168 24.9702 7.441 25.2219C6.9603 25.4737 6.42579 25.6053 5.88316 25.6053C4.02191 25.6053 2.51322 24.0877 2.51322 22.2139C2.51322 20.34 4.02191 18.8223 5.88316 18.8223C6.42583 18.8225 6.96037 18.9541 7.44107 19.206C7.92176 19.4578 8.3343 19.8223 8.64336 20.2684L10.5929 18.8954C10.0656 18.1343 9.36166 17.5121 8.54145 17.0824C7.72124 16.6527 6.80912 16.4281 5.88316 16.4277C2.70741 16.4277 0.132812 19.018 0.132812 22.2127C0.132812 25.4075 2.70741 27.9975 5.88316 27.9975C6.8091 27.9971 7.7212 27.7726 8.54142 27.3429C9.36163 26.9131 10.0655 26.2912 10.5929 25.53L8.64336 24.1597Z" fill="white"/>
<path d="M18.9648 22.1252C18.5427 21.1189 17.7461 20.316 16.7432 19.8861C15.9758 19.5603 15.1283 19.4722 14.3103 19.6329C13.4923 19.7937 12.7413 20.1961 12.1542 20.7879C11.5664 21.3754 11.1659 22.1239 11.0033 22.9388C10.8406 23.7537 10.923 24.5986 11.24 25.3667C11.5571 26.1349 12.0947 26.7917 12.7849 27.2545C13.475 27.7174 14.2869 27.9654 15.1179 27.9672C15.6669 27.9678 16.2106 27.8594 16.7174 27.6482C17.2243 27.4372 17.6841 27.1275 18.0703 26.7374C18.6578 26.1427 19.0561 25.3876 19.2152 24.5672C19.3744 23.7467 19.2873 22.8974 18.9648 22.1263V22.1252ZM13.6405 22.2825C13.8336 22.0872 14.0638 21.9323 14.3174 21.8271C14.5711 21.7218 14.8432 21.668 15.1179 21.669C16.2609 21.669 17.1908 22.6074 17.1908 23.761C17.1918 24.0357 17.1387 24.3079 17.0344 24.5621C16.9301 24.8161 16.7767 25.0473 16.5829 25.2421C16.3899 25.4359 16.1604 25.5895 15.9078 25.6945C15.6552 25.7994 15.3843 25.8535 15.1108 25.8535C14.8372 25.8535 14.5664 25.7994 14.3138 25.6945C14.0611 25.5895 13.8317 25.4359 13.6386 25.2421C13.249 24.8481 13.0304 24.3164 13.0304 23.7622C13.0304 23.2082 13.249 22.6764 13.6386 22.2825H13.6405Z" fill="white"/>
<path d="M31.0496 26.0033C30.8047 26.0559 30.6128 26.0934 30.3695 26.1001C30.0612 26.1091 29.8406 26.0436 29.6953 25.9C29.5401 25.7475 29.4667 25.5058 29.4717 25.1609V21.1731H31.0243V19.3637H29.4717V17.2109L27.5335 17.8665L27.5072 19.3707H26.3242V21.1741H27.3595V25.1621C27.3595 25.9869 27.5332 26.6454 27.8762 27.1202C28.219 27.595 28.7303 27.8824 29.3907 27.9674C29.501 27.9807 29.6122 27.987 29.7231 27.9863C30.334 27.9863 31.0391 27.8303 31.0741 27.8224L31.1204 27.812V25.9898L31.0496 26.0033Z" fill="white"/>
<path d="M25.2285 23.9163C24.8835 23.5745 24.3639 23.2615 23.4906 22.8694L23.2429 22.7575C22.9282 22.6179 22.6796 22.5071 22.4795 22.4137C22.1862 22.2764 22.0483 22.0886 22.1009 21.8977C22.1695 21.6488 22.5589 21.4134 23.0699 21.4636C23.4292 21.501 23.6789 21.588 24.0441 21.9686C24.058 21.9858 24.1134 22.0569 24.1809 22.1479L24.2181 22.1982L25.5766 21.0507L25.5587 21.0101C25.1834 20.1658 24.0527 19.5527 22.8702 19.5527C22.1386 19.5527 21.4166 19.789 20.8859 20.2005C20.6169 20.4055 20.3953 20.6661 20.236 20.9645C20.0722 21.2771 19.9877 21.6251 19.9899 21.978C19.9869 22.301 20.0603 22.6203 20.2039 22.9097C20.3381 23.17 20.5201 23.4029 20.7405 23.5958C20.9745 23.8063 21.3257 24.0706 22.1523 24.4321C22.3245 24.5067 22.484 24.5729 22.6368 24.6364C23.1585 24.8511 23.5335 25.0057 23.6579 25.2326C23.6887 25.298 23.7034 25.3697 23.7004 25.4418C23.696 25.4997 23.6798 25.5558 23.6528 25.6072C23.6257 25.6584 23.5884 25.7037 23.5432 25.7399C23.3643 25.8987 22.9468 26.0523 22.5272 26.0247C21.8489 25.9799 21.1647 25.5729 20.8624 25.0344L20.8591 25.0288L20.8494 25.0161L20.84 25.0032L20.7965 24.9398L19.6094 26.3274L19.6266 26.3624C19.8397 26.794 20.2363 27.1913 20.7446 27.4805C21.3184 27.8021 21.966 27.9691 22.6238 27.9649C23.4609 27.9649 24.2464 27.7108 24.8353 27.2493C25.1266 27.0257 25.3661 26.7416 25.5372 26.4167C25.7112 26.0798 25.8006 25.7057 25.7981 25.3265C25.7987 24.7515 25.6173 24.3028 25.2285 23.9163Z" fill="white"/>
<path d="M37.8664 27.9245H39.7395V19.3975L37.9073 19.9797L37.8573 20.3454C37.5526 20.0971 36.8283 19.5549 35.5031 19.554C34.9439 19.554 34.1572 19.7862 33.7183 20.0109C33.1267 20.3158 32.6155 20.7561 32.2266 21.2962C31.8375 21.836 31.5816 22.4602 31.4796 23.1179C31.3775 23.7754 31.4325 24.4479 31.6398 25.0803C31.8469 25.7127 32.2006 26.287 32.672 26.7569C33.0558 27.1413 33.512 27.4461 34.0141 27.6537C34.5163 27.8613 35.0544 27.9675 35.5977 27.9661H35.619C36.0725 27.9639 37.1046 27.785 37.8551 27.1325L37.8664 27.9245ZM37.69 23.76C37.69 23.7972 37.69 23.8322 37.6874 23.8681C37.6878 23.8727 37.6878 23.8775 37.6874 23.8822C37.6874 23.8867 37.6874 23.8915 37.6874 23.8971C37.6874 23.9239 37.6844 23.9493 37.6818 23.9746C37.6313 24.4868 37.3933 24.9625 37.0136 25.3101C36.6181 25.6698 36.0993 25.8634 35.5647 25.8506C35.0303 25.8376 34.5214 25.6193 34.1439 25.2408C33.8514 24.9481 33.6522 24.5754 33.5714 24.1698C33.4907 23.7641 33.532 23.3434 33.6901 22.9611C33.8482 22.5789 34.1159 22.2521 34.4596 22.0219C34.8033 21.7918 35.2076 21.6685 35.6212 21.668C36.7605 21.668 37.69 22.6064 37.69 23.76Z" fill="white"/>
</g>
</g>
<defs>
<clipPath id="clip0_4083_4312">
<rect width="39.7805" height="28" fill="white" transform="translate(0.132812)"/>
</clipPath>
</defs>
</svg>
