<svg width="40" height="40" viewBox="0 0 40 40" fill="none" xmlns="http://www.w3.org/2000/svg">
<path d="M19.1673 22.4892V27.5H20.834V22.4892C20.1565 22.5042 19.8448 22.5042 19.1673 22.4892ZM17.5007 20.7325V19.2642C15.5048 19.4258 14.2557 19.7517 13.659 20.0025C14.2857 20.265 15.599 20.5767 17.5007 20.7325ZM22.5007 20.7325C24.4023 20.5767 25.7157 20.265 26.3423 20.0017C25.7457 19.7508 24.4965 19.425 22.5007 19.2642V20.7325ZM13.334 14.1667H18.334C18.555 14.1667 18.767 14.2545 18.9232 14.4107C19.0795 14.567 19.1673 14.779 19.1673 15V20.8183C19.7032 20.8367 20.2982 20.8367 20.834 20.8183V15C20.834 14.779 20.9218 14.567 21.0781 14.4107C21.2343 14.2545 21.4463 14.1667 21.6673 14.1667H26.6673V12.5H13.334V14.1667Z" fill="white"/>
<path d="M20.0003 1.66797C9.89116 1.66797 1.66699 9.89214 1.66699 20.0013C2.67366 44.323 37.3303 44.3163 38.3337 20.0013C38.3337 9.89214 30.1095 1.66797 20.0003 1.66797ZM28.3337 15.0013C28.3337 15.2223 28.2459 15.4343 28.0896 15.5906C27.9333 15.7468 27.7213 15.8346 27.5003 15.8346H22.5003V17.5938C25.3253 17.8005 28.3337 18.3963 28.3337 20.0013C28.3337 21.6605 25.0745 22.223 22.5003 22.4105V28.3346C22.5003 28.5556 22.4125 28.7676 22.2563 28.9239C22.1 29.0802 21.888 29.168 21.667 29.168H18.3337C18.1126 29.168 17.9007 29.0802 17.7444 28.9239C17.5881 28.7676 17.5003 28.5556 17.5003 28.3346V22.4105C14.927 22.2238 11.667 21.6613 11.667 20.0013C11.667 18.3971 14.6753 17.8005 17.5003 17.5938V15.8346H12.5003C12.2793 15.8346 12.0674 15.7468 11.9111 15.5906C11.7548 15.4343 11.667 15.2223 11.667 15.0013V11.668C11.667 11.447 11.7548 11.235 11.9111 11.0787C12.0674 10.9224 12.2793 10.8346 12.5003 10.8346H27.5003C27.7213 10.8346 27.9333 10.9224 28.0896 11.0787C28.2459 11.235 28.3337 11.447 28.3337 11.668V15.0013Z" fill="white"/>
</svg>
