<svg width="40" height="40" viewBox="0 0 40 40" fill="none" xmlns="http://www.w3.org/2000/svg">
<g clip-path="url(#clip0_4114_5305)">
<path d="M20 0C8.95473 0 0 8.95473 0 20C0 31.0453 8.95473 40 20 40C31.0453 40 40 31.0453 40 20C40 8.95473 31.0453 0 20 0ZM25.7449 27.8848C24.8724 28.9465 23.7366 29.6625 22.4115 30.0247C21.8354 30.1811 21.572 30.4856 21.6049 31.0864C21.6296 31.679 21.6049 32.2634 21.5967 32.856C21.5967 33.3827 21.3251 33.6626 20.8066 33.679C20.4691 33.6872 20.1317 33.6955 19.7942 33.6955C19.4979 33.6955 19.2016 33.6955 18.9053 33.6872C18.3457 33.679 18.0823 33.358 18.0823 32.8148C18.0741 32.3868 18.0741 31.9506 18.0741 31.5226C18.0658 30.5679 18.0329 30.535 17.1193 30.3868C15.9506 30.1975 14.7984 29.9342 13.7284 29.4156C12.8889 29.0041 12.7984 28.7984 13.037 27.9095C13.2181 27.251 13.3992 26.5926 13.6049 25.9424C13.7531 25.465 13.893 25.251 14.1481 25.251C14.2963 25.251 14.4856 25.3251 14.7407 25.4568C15.9259 26.0741 17.1852 26.4198 18.5103 26.5844C18.7325 26.6091 18.9547 26.6255 19.177 26.6255C19.7942 26.6255 20.3951 26.5103 20.9794 26.2551C22.4527 25.6132 22.6831 23.9095 21.4403 22.8889C21.0206 22.5432 20.535 22.2881 20.0329 22.0658C18.7407 21.4979 17.3992 21.07 16.1811 20.3374C14.2058 19.1523 12.9547 17.5309 13.1029 15.1276C13.2675 12.4115 14.8066 10.716 17.3004 9.8107C18.3292 9.44033 18.3374 9.44856 18.3374 8.3786C18.3374 8.01646 18.3292 7.65432 18.3457 7.28395C18.3704 6.47737 18.5021 6.33745 19.3086 6.31276H20.2469C21.7778 6.31276 21.7778 6.3786 21.786 8.03292C21.7942 9.25103 21.7942 9.25103 23.0041 9.44033C23.9342 9.58848 24.8148 9.86008 25.6708 10.2387C26.1399 10.4444 26.321 10.7737 26.1728 11.2757C25.9588 12.0165 25.7531 12.7654 25.5226 13.4979C25.3745 13.9424 25.2346 14.1481 24.9712 14.1481C24.823 14.1481 24.642 14.0905 24.4115 13.9753C23.2263 13.3992 21.9835 13.1193 20.6831 13.1193C20.5185 13.1193 20.3457 13.1276 20.1811 13.1358C19.7942 13.1605 19.4156 13.2099 19.0535 13.3663C17.7695 13.9259 17.5638 15.3416 18.6584 16.214C19.2099 16.6584 19.8436 16.9712 20.4938 17.2428C21.6296 17.7119 22.7654 18.1646 23.8436 18.7572C27.2346 20.6502 28.1564 24.9547 25.7449 27.8848Z" fill="white"/>
</g>
<defs>
<clipPath id="clip0_4114_5305">
<rect width="40" height="40" fill="white"/>
</clipPath>
</defs>
</svg>
