<svg width="40" height="40" viewBox="0 0 40 40" fill="none" xmlns="http://www.w3.org/2000/svg">
<path d="M15.3066 19.5851L20 21.5959L24.6925 19.5851L20 10.1992L15.3066 19.5851ZM20 23.3359C20.0891 23.5142 15.9925 21.6676 15.9291 21.6642L20 29.8059L24.07 21.6642C24.0091 21.6676 19.9091 23.5151 20 23.3359Z" fill="white"/>
<path d="M20.0003 1.66797C9.89116 1.66797 1.66699 9.89214 1.66699 20.0013C2.67366 44.323 37.3303 44.3163 38.3337 20.0013C38.3337 9.89214 30.1095 1.66797 20.0003 1.66797ZM26.5787 20.3738L20.7453 32.0405C20.467 32.643 19.5328 32.6471 19.2545 32.0405L13.4212 20.3738C13.3212 20.1363 13.297 19.8638 13.4212 19.628L19.2545 7.9613C19.5328 7.3588 20.467 7.35464 20.7453 7.9613L26.5787 19.628C26.7462 20.0013 26.6178 20.2588 26.5787 20.3738Z" fill="white"/>
</svg>
