<svg width="40" height="40" viewBox="0 0 40 40" fill="none" xmlns="http://www.w3.org/2000/svg">
<g clip-path="url(#clip0_4114_5308)">
<path d="M20 0C8.95473 0 0 8.95473 0 20C0 31.0453 8.95473 40 20 40C31.0453 40 40 31.0453 40 20C40 8.95473 31.0453 0 20 0ZM26.9794 30.1317C26.3786 30.4033 25.7531 30.6337 25.1111 30.8066C22.6749 31.4815 20.2387 31.5062 17.8107 30.716C14.8807 29.7695 12.9383 27.7695 11.7778 24.9712C11.5556 24.428 11.4074 23.8601 11.2346 23.2922H8.93827C8.55144 23.2922 8.24691 22.9794 8.24691 22.6008V21.0535C8.24691 20.6667 8.55967 20.3621 8.93827 20.3621H10.8395V19.1029H8.93827C8.55144 19.1029 8.24691 18.7901 8.24691 18.4115V16.8642C8.24691 16.4774 8.55967 16.1728 8.93827 16.1728H11.358L11.4403 15.9342C12.0905 13.8683 13.2099 12.0988 14.93 10.7654C16.2963 9.7037 17.8765 9.11934 19.572 8.84774C21.9835 8.46091 24.321 8.79012 26.5844 9.67901C26.7325 9.73662 26.8724 9.80247 27.0123 9.88477C27.5556 10.2058 27.6955 10.6091 27.4568 11.1934C27.2016 11.8025 26.9465 12.4198 26.6667 13.0206C26.428 13.5391 26.0988 13.7037 25.5391 13.5802C24.7737 13.4074 24.0247 13.1687 23.2593 13.0123C21.6461 12.6831 20.0412 12.6667 18.4691 13.2839C17.1193 13.8189 16.2963 14.8477 15.7366 16.1317C15.7284 16.1481 15.7284 16.1646 15.7284 16.1811H20.428C20.8148 16.1811 21.1193 16.4938 21.1193 16.8724V18.4198C21.1193 18.8066 20.8066 19.1111 20.428 19.1111H15.0617C15.0535 19.5226 15.0617 19.9342 15.0617 20.3704H20.4362C20.823 20.3704 21.1276 20.6831 21.1276 21.0617V22.6091C21.1276 22.9959 20.8148 23.3004 20.4362 23.3004H15.5309C16.1235 24.9959 17.0864 26.3045 18.8971 26.8724C20.3457 27.3251 21.8025 27.3004 23.2675 26.9959C24.0247 26.8395 24.7654 26.6091 25.5226 26.4362C26.1152 26.3045 26.4362 26.4609 26.6831 27.0041C26.963 27.6132 27.2263 28.2305 27.4732 28.856C27.7037 29.4156 27.5556 29.8683 26.9794 30.1317Z" fill="white"/>
</g>
<defs>
<clipPath id="clip0_4114_5308">
<rect width="40" height="40" fill="white"/>
</clipPath>
</defs>
</svg>
