<svg width="40" height="40" viewBox="0 0 40 40" fill="none" xmlns="http://www.w3.org/2000/svg">
<g clip-path="url(#clip0_4114_5294)">
<path d="M24.2305 23.0898C24.232 25.9164 19.3922 25.5945 17.85 25.5961V20.5852C19.3937 20.5852 24.2305 20.1422 24.2305 23.0898ZM40 20C40 31.0453 31.0453 40 20 40C8.95469 40 0 31.0453 0 20C0 8.95469 8.95469 0 20 0C31.0453 0 40 8.95391 40 20ZM25.4633 18.832C26.7828 18.1602 27.6078 16.9758 27.4148 15.0039C27.1555 12.3078 24.8289 11.4047 21.8906 11.1469V7.40781H19.6148V11.0484C19.0164 11.0484 18.4047 11.0602 17.7977 11.0727V7.40781H15.5234V11.1461C15.0297 11.1562 14.5461 11.1656 14.0742 11.1656V11.1539L10.9344 11.1531V13.5844C10.9344 13.5844 12.6156 13.5523 12.5875 13.5836C13.5094 13.5836 13.8094 14.1187 13.8969 14.5813V18.8414C13.9609 18.8414 14.0438 18.8445 14.1375 18.857H13.8969V24.8242C13.8555 25.1141 13.6852 25.5773 13.0414 25.5781C13.0703 25.6039 11.3867 25.5781 11.3867 25.5781L10.9344 28.2961H13.8961C14.4477 28.2961 14.9898 28.3062 15.5219 28.3094V32.0914H17.7961V28.3492C18.4203 28.3625 19.0242 28.3672 19.6141 28.3664V32.0914H21.8891V28.3164C25.7164 28.0969 28.3945 27.1328 28.7273 23.5398C28.9961 20.6461 27.6344 19.3555 25.4625 18.8336L25.4633 18.832ZM23.1719 16.0203C23.1719 13.3383 19.1352 13.7469 17.8508 13.7469V18.2914C19.1352 18.2914 23.1711 18.5914 23.1719 16.0203Z" fill="white"/>
</g>
<defs>
<clipPath id="clip0_4114_5294">
<rect width="40" height="40" fill="white"/>
</clipPath>
</defs>
</svg>
