<svg width="115" height="16" viewBox="0 0 115 16" fill="none" xmlns="http://www.w3.org/2000/svg">
<g clip-path="url(#clip0_4083_4885)">
<path d="M0.200195 14.8008H14.1202L13.3202 15.9208H0.200195V14.8008Z" fill="white"/>
<path d="M115 15.9208H97.96L98.84 14.8008H115.08V15.9208H115Z" fill="white"/>
<path d="M0.200195 12.7207H15.7202L14.8402 13.8407H0.200195V12.7207Z" fill="white"/>
<path d="M0.200195 10.6406H17.3202L16.4402 11.7606H0.200195V10.6406Z" fill="white"/>
<path d="M115.001 13.8407H99.5605L100.441 12.7207H115.081V13.8407H115.001Z" fill="white"/>
<path d="M101.96 10.6406H115V11.7606H101.08L101.96 10.6406Z" fill="white"/>
<path d="M15.2402 15.9201L22.6002 6.08008C22.6002 6.08008 30.7602 6.08008 31.7202 6.08008C32.7602 6.08008 32.7602 6.48008 32.2002 7.12008C31.7202 7.76008 30.8402 8.96008 30.3602 9.60008C30.1202 10.0001 29.6402 10.5601 31.1602 10.5601C32.8402 10.5601 43.4002 10.5601 43.4002 10.5601C42.4402 12.0001 39.0802 16.0001 33.1602 16.0001C28.3602 15.9201 15.2402 15.9201 15.2402 15.9201Z" fill="white"/>
<path d="M57.3999 10.6406L53.3999 16.0006H42.9199L46.9199 10.6406H57.3999Z" fill="white"/>
<path d="M72.6801 10.6406L68.6801 16.0006H58.1201L62.1201 10.6406H72.6801Z" fill="white"/>
<path d="M76.1206 10.6406C76.1206 10.6406 75.3206 11.6806 75.0006 12.1606C73.6406 13.9206 74.8406 16.0006 79.1606 16.0006C84.1206 16.0006 96.1206 16.0006 96.1206 16.0006L100.121 10.6406H76.1206Z" fill="white"/>
<path d="M20.4398 -7.81193e-05L16.7598 4.87992C16.7598 4.87992 35.7198 4.87992 36.7598 4.87992C37.7998 4.87992 37.7998 5.27992 37.2398 5.91992C36.7598 6.55992 35.8798 7.75992 35.3998 8.39992C35.1598 8.71992 34.6798 9.35992 36.1998 9.35992C37.8798 9.35992 44.3598 9.35992 44.3598 9.35992C44.3598 9.35992 45.7198 7.59992 46.7598 6.07992C48.2798 4.07992 46.9198 -0.0800781 41.5598 -0.0800781C36.7598 -7.81193e-05 20.4398 -7.81193e-05 20.4398 -7.81193e-05Z" fill="white"/>
<path d="M73.5598 9.36H47.7998L54.8398 0H65.3998L61.3998 5.36H66.1198L70.1198 0H80.6798L73.5598 9.36Z" fill="white"/>
<path d="M95.24 0L88.2 9.36H77L84.04 0H95.24Z" fill="white"/>
</g>
<defs>
<clipPath id="clip0_4083_4885">
<rect width="114.8" height="16" fill="white" transform="translate(0.200195)"/>
</clipPath>
</defs>
</svg>
