<svg width="54" height="23" viewBox="0 0 54 23" fill="none" xmlns="http://www.w3.org/2000/svg">
<path fill-rule="evenodd" clip-rule="evenodd" d="M44.3615 0.294692C41.4091 0.552716 38.8333 2.34177 37.5774 5.00683C36.9494 6.33924 36.7785 7.13321 36.7829 8.69721C36.7856 9.698 36.8035 9.90055 36.9404 10.4862C37.3188 12.104 38.0967 13.4705 39.3047 14.639C39.9617 15.2746 40.4289 15.6167 41.1923 16.0215C41.8734 16.3827 42.595 16.6417 43.4025 16.8148C44.211 16.9881 45.8239 17.001 46.5829 16.8403C47.7757 16.5876 48.8141 16.1552 49.7817 15.5082C50.3652 15.118 51.415 14.0978 51.8103 13.5367C53.0766 11.7391 53.5835 9.6493 53.2974 7.40531L53.2614 7.12317L49.3742 7.12436L45.487 7.12561L44.6428 8.62712C44.1786 9.45293 43.7987 10.1471 43.7987 10.1697C43.7987 10.1923 45.1833 10.2177 46.8754 10.2262L49.9522 10.2416L49.7194 10.7381C48.8526 12.5871 47.0906 13.7163 45.0723 13.7163C43.1018 13.7163 41.302 12.5879 40.476 10.8345C40.0966 10.0291 39.9838 9.52569 39.9837 8.63781C39.9836 8.02637 40.0114 7.76057 40.1169 7.36076C40.6306 5.41347 42.2059 3.94017 44.1541 3.58503C45.6899 3.30509 47.3416 3.77694 48.4433 4.81028L48.8194 5.16305H50.6926C51.966 5.16305 52.5658 5.14297 52.5658 5.10044C52.5658 4.99988 52.2223 4.404 51.8317 3.82684C50.5957 2.00101 48.4905 0.677629 46.3163 0.359733C45.6852 0.267429 44.9524 0.243076 44.3615 0.294692ZM7.45979 0.447701C5.8836 0.732988 4.30042 1.57578 3.12912 2.75304C2.38492 3.50098 2.03648 3.9903 1.56087 4.95516C0.866662 6.3633 0.636228 7.43347 0.692267 8.98826C0.769631 11.1345 1.50157 12.897 2.94376 14.4096C4.16909 15.6948 5.58078 16.4822 7.30844 16.844C8.13575 17.0173 9.57575 17.0433 10.372 16.8993C11.3796 16.717 12.6989 16.18 13.5761 15.5948C14.7237 14.8294 15.7871 13.6332 16.3948 12.4244L16.5515 12.1126H14.6784H12.8053L12.5004 12.3893C11.4474 13.345 10.1302 13.8274 8.76284 13.7581C7.98315 13.7185 7.50961 13.6042 6.84378 13.295C5.33151 12.5926 4.28922 11.2657 3.95832 9.6218C3.82616 8.96498 3.86668 7.87847 4.04671 7.25212C4.44478 5.8675 5.43292 4.69683 6.73561 4.06674C7.58756 3.6547 7.8956 3.59014 8.9967 3.59287C9.87383 3.59507 9.98206 3.60766 10.448 3.76245C11.926 4.25325 12.9945 5.19512 13.6246 6.56264C13.7346 6.8013 13.8246 7.02505 13.8246 7.05985C13.8246 7.10369 13.0004 7.12371 11.1441 7.12483L8.46357 7.1265L7.63424 8.61417C7.17812 9.43238 6.79603 10.1266 6.78519 10.1569C6.77317 10.1904 8.79399 10.2119 11.9509 10.2119H17.1365L17.1836 9.98911C17.2095 9.86663 17.2307 9.27188 17.2307 8.66751C17.2307 7.46358 17.1633 7.00782 16.8397 6.02431C15.8882 3.13236 13.5813 1.08486 10.5868 0.474489C9.85269 0.324807 8.21595 0.310789 7.45979 0.447701ZM19.0395 5.83127C19.0407 8.68165 19.0285 12.2766 19.0124 13.8203C18.9963 15.3639 19.002 16.6274 19.0251 16.6281C19.5698 16.6451 22.4286 16.6319 22.4482 16.6123C22.4633 16.5972 22.4762 14.2822 22.4769 11.4679C22.4776 8.65361 22.4971 6.35284 22.5201 6.35504C22.5432 6.3573 23.5076 7.46655 24.6631 8.82004L26.7641 11.281L27.0918 11.2796L27.4195 11.2781L29.5225 8.82189L31.6254 6.36567L31.6406 11.4963C31.6525 15.5381 31.6713 16.6277 31.7294 16.631C31.7699 16.6333 32.5362 16.633 33.4322 16.6304L35.0612 16.6255L35.0762 8.63716L35.0912 0.648821H33.6515H32.2118L30.9412 2.11648C30.2423 2.92375 29.1035 4.24013 28.4105 5.04182C27.7174 5.84357 27.1288 6.50686 27.1025 6.51595C27.0762 6.52498 26.4837 5.87077 25.7858 5.06219C22.8082 1.61219 22.0953 0.793217 22.0089 0.723069C21.9413 0.668244 21.5412 0.648821 20.4775 0.648821H19.0375L19.0395 5.83127ZM17.1149 19.1766C17.0962 19.2069 17.143 19.3041 17.2189 19.3926C17.4659 19.6805 18.0897 19.5648 18.0897 19.2311C18.0897 19.0805 17.8752 19.0883 17.8355 19.2403C17.8131 19.3264 17.7547 19.3591 17.6234 19.3591C17.5028 19.3591 17.421 19.3194 17.3788 19.2403C17.3125 19.116 17.173 19.0824 17.1149 19.1766ZM11.3019 19.6184C10.9225 19.7909 10.7087 20.2448 10.7623 20.7646C10.8007 21.1379 10.9825 21.4643 11.2209 21.5879C11.4439 21.7036 11.9495 21.6996 12.2004 21.5802C12.6496 21.3664 12.8398 20.5924 12.5701 20.0754C12.4944 19.9303 12.3603 19.7588 12.272 19.6943C12.0681 19.5454 11.5515 19.505 11.3019 19.6184ZM19.2979 19.6222C18.9195 19.7874 18.692 20.382 18.7952 20.9361C18.8838 21.4116 19.236 21.6756 19.7819 21.6756C20.0929 21.6756 20.1346 21.6586 20.3477 21.445C20.608 21.1839 20.6645 20.9169 20.4562 20.9322C20.3894 20.9372 20.2842 21.0246 20.2224 21.1264C20.0329 21.4389 19.7731 21.5154 19.4571 21.3515C19.1339 21.1839 18.9982 20.6013 19.1805 20.1638C19.2823 19.9196 19.4533 19.8195 19.7616 19.8238C20.0185 19.8273 20.1491 19.9087 20.2269 20.114C20.2627 20.2083 20.3264 20.2501 20.4345 20.2501C20.575 20.2501 20.5865 20.2339 20.5498 20.0867C20.4371 19.6337 19.8071 19.4 19.2979 19.6222ZM5.34472 20.5471C5.3398 21.0698 5.33317 21.5287 5.32991 21.567C5.32564 21.6172 5.5306 21.6345 6.06445 21.6289C6.76144 21.6217 6.80605 21.6141 6.82388 21.5C6.84182 21.3846 6.81363 21.3786 6.24631 21.3786H5.64979V21.0519V20.7252H6.15331C6.44357 20.7252 6.66062 20.7001 6.66571 20.6658C6.67063 20.6332 6.67726 20.577 6.68052 20.5409C6.68437 20.4985 6.50932 20.4723 6.18293 20.4667L5.67941 20.458L5.66164 20.183C5.64511 19.9271 5.65506 19.9053 5.80523 19.8674C5.89397 19.8451 6.14187 19.8333 6.35614 19.8413C6.71642 19.8546 6.7471 19.8459 6.76464 19.7262C6.78318 19.5992 6.76955 19.5967 6.0686 19.5967H5.3536L5.34472 20.5471ZM7.08488 20.6119L7.10111 21.6379L7.29363 21.6325C7.39949 21.6295 7.67482 21.6246 7.90537 21.6216C8.28621 21.6167 8.34041 21.6003 8.49775 21.4426C8.72694 21.2127 8.73576 20.9037 8.51925 20.6866C8.3769 20.5438 8.37364 20.5279 8.46594 20.4256C8.60745 20.2688 8.59265 19.9076 8.43839 19.7528C8.3291 19.6431 8.23023 19.6237 7.69058 19.6061L7.06865 19.5858L7.08488 20.6119ZM9.03971 20.6197L9.05594 21.6427L9.20404 21.6426C9.34923 21.6426 9.35177 21.6348 9.33252 21.2433L9.31291 20.844H9.66431C10.294 20.844 10.5665 20.6464 10.5665 20.1897C10.5665 19.7452 10.3147 19.5967 9.561 19.5967H9.02354L9.03971 20.6197ZM13.0528 19.7303C13.0519 19.8039 13.0452 20.2583 13.038 20.7401C13.026 21.5399 13.0339 21.6162 13.1285 21.6162C13.1856 21.6162 13.2522 21.6229 13.2766 21.6311C13.301 21.6392 13.3344 21.245 13.3507 20.7549L13.3803 19.864H13.8246H14.2688L14.2852 20.7334L14.3015 21.603L14.4481 21.6311L14.5946 21.6592V20.6279V19.5967H13.8246C13.0659 19.5967 13.0545 19.5987 13.0528 19.7303ZM15.0685 20.6065V21.6162H15.809C16.51 21.6162 16.5495 21.6099 16.5495 21.4974C16.5495 21.3865 16.51 21.3786 15.9571 21.3786H15.3647V21.0519V20.7252H15.8682C16.2763 20.7252 16.3718 20.7084 16.3718 20.6362C16.3718 20.5871 16.3717 20.5289 16.3716 20.5067C16.3715 20.4844 16.1515 20.4644 15.8829 20.4621L15.3943 20.458V20.161V19.864L15.9255 19.8466C16.423 19.8304 16.5915 19.7723 16.5125 19.6441C16.4964 19.618 16.165 19.5967 15.7759 19.5967H15.0685V20.6065ZM16.7864 20.6025V21.6162H16.9506C17.0951 21.6162 17.1704 21.5307 17.5791 20.9028C17.8346 20.5105 18.0665 20.1753 18.0944 20.158C18.1224 20.1407 18.1425 20.4625 18.1391 20.8733C18.1357 21.2839 18.1478 21.6349 18.1661 21.6532C18.1843 21.6715 18.2545 21.6688 18.3222 21.6473C18.4402 21.6097 18.4451 21.5682 18.4451 20.6025V19.5967L18.2822 19.5969C18.1388 19.597 18.0625 19.6852 17.6454 20.3325C17.3847 20.7369 17.1532 21.0571 17.1309 21.0439C17.1086 21.0308 17.0908 20.7064 17.0914 20.3232L17.0926 19.6264L16.9395 19.6076L16.7864 19.5888V20.6025ZM20.933 20.6065C20.933 21.2341 20.9554 21.6196 20.9923 21.6251C21.1908 21.655 21.2002 21.6364 21.2292 21.1566L21.2589 20.6673L21.6735 21.1343C21.9595 21.4563 22.1396 21.6098 22.2537 21.6286C22.3447 21.6435 22.4316 21.6356 22.4469 21.6109C22.4621 21.5863 22.2545 21.333 21.9856 21.0482L21.4967 20.5303L21.9553 20.102C22.2076 19.8665 22.414 19.6564 22.414 19.6352C22.414 19.614 22.3413 19.5967 22.2525 19.5967C22.1313 19.5967 21.9834 19.7038 21.6601 20.0258L21.2292 20.455V20.0258C21.2292 19.6077 21.2254 19.5967 21.0811 19.5967H20.933V20.6065ZM23.3039 19.7264C23.1848 20.0044 22.5976 21.5825 22.6093 21.5934C22.6159 21.5996 22.6878 21.6139 22.769 21.6252C22.8961 21.6431 22.9288 21.6108 23.0041 21.3935L23.0915 21.141H23.5135H23.9354L24.0064 21.3786C24.0682 21.5857 24.0998 21.6162 24.2512 21.6162H24.4251L24.2555 21.1559C23.7221 19.7076 23.6839 19.6274 23.5192 19.6076C23.4021 19.5936 23.348 19.6234 23.3039 19.7264ZM24.8919 19.6876C24.6014 19.8458 24.5305 20.4066 24.7732 20.6269C24.8291 20.6776 24.9341 20.741 25.0065 20.7678C25.1359 20.8158 25.1336 20.8236 24.8736 21.2121C24.6075 21.6098 24.6092 21.6812 24.8832 21.6287C24.9723 21.6116 25.0907 21.4765 25.2383 21.2235C25.4487 20.8629 25.4709 20.844 25.6844 20.844H25.909V21.2499C25.909 21.6341 25.9161 21.6552 26.0423 21.646C26.1743 21.6363 26.1757 21.6262 26.1918 20.6164L26.208 19.5967L25.629 19.5991C25.2396 19.6007 24.9983 19.6296 24.8919 19.6876ZM27.6861 20.5959V21.6024L27.8326 21.6304L27.979 21.6585L27.9955 20.88L28.0119 20.1016L28.3021 20.8589C28.5541 21.5166 28.6096 21.6162 28.7247 21.6162C28.8393 21.6162 28.8976 21.5139 29.1565 20.8589L29.4558 20.1016L29.4595 20.8519L29.4632 21.6024L29.6113 21.6308L29.7594 21.6592V20.6243V19.5895L29.5417 19.608L29.3239 19.6264L29.026 20.417L28.728 21.2077L28.5317 20.6843C28.1168 19.578 28.1462 19.6284 27.9042 19.608L27.6861 19.5895V20.5959ZM30.2333 20.6065V21.6162H30.9738C31.6748 21.6162 31.7143 21.6099 31.7143 21.4974C31.7143 21.3865 31.6748 21.3786 31.1219 21.3786H30.5295V21.0519V20.7252H31.033C31.4411 20.7252 31.5366 20.7084 31.5366 20.6362C31.5366 20.5871 31.5365 20.5289 31.5364 20.5067C31.5363 20.4844 31.3163 20.4644 31.0477 20.4621L30.5591 20.458V20.161V19.864L31.1219 19.8343C31.4314 19.8179 31.678 19.7846 31.6698 19.76C31.6617 19.7355 31.655 19.6888 31.655 19.6561C31.655 19.6198 31.3786 19.5967 30.9442 19.5967H30.2333V20.6065ZM32.3476 20.1914C32.3073 20.8554 32.1542 21.3082 31.9522 21.3612C31.8495 21.3881 31.8327 21.4415 31.8327 21.742C31.8327 22.0751 31.8397 22.0914 31.9808 22.0914C32.1141 22.0914 32.1289 22.0676 32.1289 21.8538V21.6162H32.8694H33.6099V21.8538C33.6099 22.0676 33.6247 22.0914 33.758 22.0914C33.8995 22.0914 33.9061 22.0755 33.9061 21.735C33.9061 21.3945 33.8995 21.3786 33.758 21.3786H33.6099V20.4877V19.5967H32.9968H32.3838L32.3476 20.1914ZM34.0838 20.5965C34.0838 21.1465 34.0988 21.6115 34.1171 21.6299C34.1355 21.6483 34.2139 21.646 34.2914 21.6249C34.3878 21.5986 34.5827 21.3567 34.9083 20.8589C35.1702 20.4587 35.3997 20.1313 35.4184 20.1313C35.437 20.1313 35.4495 20.4454 35.446 20.8292C35.4426 21.213 35.4411 21.5568 35.443 21.5931C35.4449 21.6311 35.5091 21.6471 35.5943 21.6308L35.7424 21.6024V20.5995V19.5967L35.5795 19.5984C35.4365 19.5999 35.3587 19.6904 34.9427 20.3396C34.6821 20.7463 34.4507 21.0796 34.4286 21.0803C34.4065 21.081 34.3878 20.8211 34.3868 20.5025C34.3859 20.184 34.384 19.8498 34.3826 19.76C34.3804 19.6261 34.3533 19.5967 34.2319 19.5967H34.0838V20.5965ZM36.6256 19.7561C36.5901 19.8481 36.4459 20.2308 36.3052 20.6065C36.1645 20.9821 36.0209 21.3631 35.9862 21.4529C35.9261 21.6083 35.9314 21.6162 36.0969 21.6162C36.2484 21.6162 36.2799 21.5857 36.3418 21.3786L36.4128 21.141H36.8382H37.2636L37.34 21.3732C37.3951 21.5406 37.456 21.6129 37.5583 21.6325C37.6362 21.6475 37.7126 21.6394 37.7278 21.6147C37.7431 21.5899 37.5886 21.1324 37.3846 20.598C37.0388 19.6922 37.0026 19.6251 36.8519 19.6076C36.7212 19.5924 36.6779 19.6208 36.6256 19.7561ZM38.1119 20.5965C38.1119 21.1465 38.1259 21.6104 38.1429 21.6275C38.16 21.6446 38.2333 21.6473 38.3059 21.6334C38.4359 21.6086 38.4374 21.5966 38.4183 20.7722C38.4032 20.1259 38.4167 19.9243 38.4775 19.8841C38.5208 19.8554 38.7428 19.8371 38.9709 19.8434C39.3554 19.8539 39.3869 19.8454 39.4045 19.7258C39.4229 19.5999 39.4071 19.5967 38.7677 19.5967H38.1119V20.5965ZM39.6655 20.6142L39.6817 21.6427L39.8232 21.6426C39.9572 21.6426 39.9651 21.622 39.9713 21.2582L39.9779 20.8737L40.3926 20.8433C40.6206 20.8265 40.8685 20.7781 40.9433 20.7357C41.2222 20.5778 41.2802 20.0624 41.0494 19.7931C40.9121 19.6329 40.882 19.6256 40.2779 19.6061L39.6492 19.5858L39.6655 20.6142ZM41.3109 19.6412C41.3109 19.6658 41.4709 20.0023 41.6663 20.3892C41.8617 20.776 42.0216 21.115 42.0216 21.1423C42.0216 21.2425 41.8314 21.3786 41.6916 21.3786C41.5776 21.3786 41.5477 21.4095 41.5477 21.5271C41.5477 21.6568 41.5736 21.6756 41.7517 21.6756C42.0808 21.6756 42.2194 21.491 42.6113 20.5314C42.8083 20.0491 42.9694 19.6397 42.9694 19.6216C42.9694 19.6036 42.8975 19.5973 42.8095 19.6076C42.669 19.6241 42.6254 19.6874 42.4493 20.1313C42.3391 20.409 42.2294 20.6566 42.2055 20.6815C42.1816 20.7065 42.0471 20.4726 41.9065 20.1618C41.6699 19.6386 41.6383 19.5967 41.4809 19.5967C41.3873 19.5967 41.3108 19.6167 41.3109 19.6412ZM43.1471 20.6029C43.1471 21.1564 43.1671 21.6208 43.1915 21.635C43.216 21.6491 43.2847 21.6429 43.3443 21.6212C43.4417 21.5856 43.4536 21.4956 43.4628 20.7228L43.4729 19.864L43.9616 19.8468L44.4503 19.8295V20.7159V21.6024L44.5984 21.6308L44.7465 21.6592V20.6279V19.5967H43.9468H43.1471V20.6029ZM45.2204 20.6279V21.6592L45.367 21.6311L45.5135 21.603L45.5299 20.7334L45.5462 19.864H45.9905H46.4348L46.4644 20.7549C46.4807 21.245 46.514 21.6392 46.5384 21.6311C46.5629 21.6229 46.6228 21.6162 46.6717 21.6162C46.7472 21.6162 46.7606 21.4644 46.7606 20.6065V19.5967H45.9905H45.2204V20.6279ZM47.3657 20.5916C47.1613 21.1388 46.9948 21.6029 46.9957 21.6229C46.9968 21.643 47.0575 21.6564 47.1308 21.6526C47.2268 21.6478 47.2968 21.5753 47.381 21.3935L47.498 21.141H47.8998H48.3017L48.3941 21.3724C48.4581 21.5329 48.5302 21.6123 48.6292 21.6312C48.7077 21.6463 48.7826 21.6478 48.7959 21.6345C48.8091 21.6213 48.7009 21.2977 48.5554 20.9154C48.41 20.5332 48.2379 20.08 48.1731 19.9085C48.0713 19.6392 48.0336 19.5967 47.8964 19.5967C47.7451 19.5967 47.7196 19.6445 47.3657 20.5916ZM12.1052 19.9224C12.2661 20.0222 12.3558 20.3349 12.3318 20.7127C12.31 21.0559 12.2869 21.1156 12.1172 21.2677C11.8005 21.5515 11.3626 21.4709 11.1853 21.0962C11.0508 20.8118 11.0621 20.2697 11.2067 20.074C11.3963 19.8175 11.8204 19.746 12.1052 19.9224ZM8.07852 19.9109C8.15998 19.9521 8.23533 20.0467 8.24599 20.1212C8.27928 20.354 8.1582 20.4283 7.74549 20.4283H7.36768V20.1709C7.36768 20.0293 7.38545 19.8956 7.40719 19.8739C7.47389 19.807 7.92184 19.8317 8.07852 19.9109ZM9.98846 19.8966C10.4316 20.0201 10.3218 20.5053 9.83409 20.5787C9.40337 20.6434 9.35462 20.6149 9.33377 20.2868C9.3237 20.1279 9.3295 19.961 9.34674 19.9161C9.384 19.8188 9.67687 19.8099 9.98846 19.8966ZM25.8794 20.2204V20.5768L25.5053 20.5708C25.0878 20.5641 24.9464 20.4768 24.9464 20.2258C24.9464 19.9344 25.0938 19.8536 25.6128 19.8605L25.8794 19.864V20.2204ZM33.3006 20.6213L33.3172 21.3786H32.8648C32.4566 21.3786 32.4168 21.3685 32.4567 21.2747C32.5707 21.0071 32.6621 20.55 32.6621 20.247C32.6621 20.0636 32.6779 19.8976 32.6973 19.8782C32.7166 19.8588 32.8565 19.8477 33.0082 19.8535L33.2841 19.864L33.3006 20.6213ZM40.736 19.9269C40.8851 19.9844 40.9258 20.2255 40.8149 20.3952C40.7484 20.4969 40.6438 20.551 40.4598 20.5787C40.0291 20.6434 39.9804 20.6149 39.9595 20.2868C39.9317 19.8482 39.9565 19.8185 40.3209 19.8558C40.4931 19.8734 40.6799 19.9054 40.736 19.9269ZM23.6929 20.4728L23.8304 20.844H23.51H23.1896L23.3496 20.3981C23.4375 20.1528 23.5199 19.9857 23.5325 20.0268C23.5452 20.068 23.6173 20.2687 23.6929 20.4728ZM37.0078 20.4134L37.1616 20.844H36.8467H36.5319L36.6839 20.4024C36.7676 20.1594 36.84 19.9656 36.845 19.9717C36.85 19.9778 36.9232 20.1765 37.0078 20.4134ZM48.1823 20.7919C48.1823 20.8206 48.049 20.844 47.8861 20.844C47.7232 20.844 47.5899 20.8373 47.59 20.8292C47.59 20.8211 47.6443 20.6673 47.7107 20.4877C47.7772 20.308 47.8461 20.1209 47.8639 20.0719C47.8924 19.993 48.1823 20.6484 48.1823 20.7919ZM8.24042 20.7995C8.34326 20.9313 8.36417 21.1328 8.28603 21.2399C8.22922 21.3178 8.10293 21.3503 7.78879 21.3682L7.36768 21.392V21.0586V20.7252H7.77511C8.0306 20.7252 8.20411 20.7529 8.24042 20.7995Z" fill="white"/>
<path d="M43.7594 10.2026L45.5079 7.10303H53.2965C51.7069 9.58267 46.2761 10.2026 43.7594 10.2026Z" fill="white"/>
</svg>
