<svg width="76" height="34" viewBox="0 0 76 34" fill="none" xmlns="http://www.w3.org/2000/svg">
<g clip-path="url(#clip0_4083_4871)">
<path d="M60.8269 14.2322L55.5556 8.30859H60.5629L63.3921 11.4266L63.7695 11.8425L64.139 11.4195L66.8565 8.30859H71.6377L66.3948 14.2043L66.0985 14.5375L66.3957 14.8699L71.7156 20.8196H66.6885L63.8876 17.6788L63.5127 17.2584L63.1397 17.6805L60.366 20.8196H55.5558L60.8269 14.897L61.1227 14.5646L60.8269 14.2322Z" stroke="white"/>
<path d="M47.6319 8.30911H53.9409V11.8741H47.6319H47.1319V12.3741V16.5631V17.0631H47.6319H53.9409V20.8201H43.1279V0.537109H53.9409V4.28111H47.6319H47.1319V4.78111V7.80911V8.30911H47.6319Z" stroke="white"/>
<path d="M37.645 0.0371094V8.74711H37.59C36.486 7.47911 35.108 7.03811 33.509 7.03811C30.233 7.03811 27.765 9.26611 26.899 12.2101C25.91 8.96611 23.362 6.97711 19.584 6.97711C16.516 6.97711 14.093 8.35411 12.829 10.5981V7.80911H6.48698V4.78111H13.408V0.0371094H0.833984V21.3201H6.48698V12.3741H12.122C11.954 13.0311 11.864 13.7351 11.864 14.4781C11.864 18.9171 15.256 22.0331 19.584 22.0331C23.224 22.0331 25.623 20.3241 26.891 17.2091H22.046C21.391 18.1461 20.894 18.4231 19.584 18.4231C18.065 18.4231 16.755 17.0981 16.755 15.5271H26.62C27.048 19.0531 29.795 22.0941 33.564 22.0941C35.19 22.0941 36.679 21.2941 37.589 19.9441H37.644V21.3221H42.627V0.0371094H37.645ZM16.913 12.4371C17.227 11.0851 18.276 10.2021 19.585 10.2021C21.026 10.2021 22.021 11.0581 22.283 12.4371C22.393 12.4371 16.913 12.4371 16.913 12.4371ZM34.62 18.0801C32.783 18.0801 31.641 16.3681 31.641 14.5811C31.641 12.6711 32.634 10.8341 34.62 10.8341C36.679 10.8341 37.499 12.6711 37.499 14.5811C37.499 16.3921 36.63 18.0801 34.62 18.0801Z" fill="white"/>
<path d="M42.6289 31.9629V24.3359H46.8429V24.9049H43.3239V27.7169H46.6939V28.2859H43.3239V31.3919H46.9999V31.9619L42.6289 31.9629Z" fill="white"/>
<path d="M47.5029 31.9628L49.5579 29.2238L47.6089 26.6328H48.3989L49.9899 28.7498L51.5489 26.6328H52.3389L50.3589 29.2238L52.4229 31.9628H51.6229L49.9159 29.6968L48.2939 31.9628H47.5029Z" fill="white"/>
<path d="M53.76 33.9619H53.117V28.2229C53.117 27.6959 53.117 27.1599 53.085 26.6319H53.718L53.739 27.4329C54.138 26.7999 54.665 26.5059 55.456 26.5059C57.099 26.5059 57.804 27.8639 57.804 29.2959C57.804 30.7299 57.099 32.0879 55.456 32.0879C54.718 32.0879 54.139 31.8039 53.76 31.1919V33.9619ZM57.12 29.2959C57.12 28.1589 56.645 27.0419 55.382 27.0419C54.192 27.0419 53.76 28.0219 53.76 29.2959C53.76 30.5709 54.192 31.5499 55.382 31.5499C56.646 31.5499 57.12 30.4339 57.12 29.2959Z" fill="white"/>
<path d="M61.108 27.1259C60.044 27.1259 59.674 28.0219 59.674 28.9479V31.9619H59.031V28.1999C59.031 27.6839 59.021 27.1589 59 26.6319H59.634L59.675 27.4009C59.991 26.7909 60.519 26.5059 61.224 26.5059C61.319 26.5059 61.424 26.5159 61.519 26.5269V27.1699C61.371 27.1469 61.255 27.1259 61.108 27.1259Z" fill="white"/>
<path d="M62.3061 29.4119C62.3061 30.6119 62.8741 31.6019 64.0431 31.6019C64.9481 31.6019 65.3701 31.0019 65.5281 30.4019H66.1391C65.8541 31.5179 65.1691 32.0879 63.9581 32.0879C62.3361 32.0879 61.6191 30.8869 61.6191 29.3919C61.6191 27.8649 62.3671 26.5059 64.0421 26.5059C65.7381 26.5059 66.1911 27.9899 66.1911 29.4119H62.3061ZM62.3261 28.9279H65.5071C65.5071 27.8849 65.0131 26.9899 64.0011 26.9899C63.0851 26.9889 62.4521 27.6839 62.3261 28.9279Z" fill="white"/>
<path d="M68.7002 32.0879C67.6052 32.0879 66.7842 31.5709 66.7842 30.4019H67.4272C67.4272 31.2019 67.9532 31.6019 68.7332 31.6019C69.4602 31.6019 70.0282 31.2539 70.0282 30.5399C70.0282 29.8969 69.3652 29.7279 68.6702 29.5279C67.8282 29.2859 66.9112 29.0219 66.9112 27.9899C66.9112 26.8429 67.8692 26.5059 68.7652 26.5059C69.7962 26.5059 70.5662 26.9049 70.5972 28.0109H69.9542C69.9232 27.3799 69.4702 27.0219 68.7852 27.0219C68.2482 27.0219 67.5952 27.2319 67.5952 27.9269C67.5952 28.5599 68.2482 28.7389 68.9432 28.9279C69.7872 29.1589 70.7132 29.4119 70.7132 30.4449C70.7122 31.6449 69.7862 32.0879 68.7002 32.0879Z" fill="white"/>
<path d="M73.1563 32.0879C72.0603 32.0879 71.2393 31.5709 71.2393 30.4019H71.8823C71.8823 31.2019 72.4083 31.6019 73.1893 31.6019C73.9163 31.6019 74.4843 31.2539 74.4843 30.5399C74.4843 29.8969 73.8203 29.7279 73.1253 29.5279C72.2833 29.2859 71.3673 29.0219 71.3673 27.9899C71.3673 26.8429 72.3253 26.5059 73.2213 26.5059C74.2523 26.5059 75.0223 26.9049 75.0533 28.0109H74.4103C74.3793 27.3799 73.9263 27.0219 73.2413 27.0219C72.7043 27.0219 72.0513 27.2319 72.0513 27.9269C72.0513 28.5599 72.7043 28.7389 73.4003 28.9279C74.2433 29.1589 75.1703 29.4119 75.1703 30.4449C75.1683 31.6449 74.2413 32.0879 73.1563 32.0879Z" fill="white"/>
</g>
<defs>
<clipPath id="clip0_4083_4871">
<rect width="74.536" height="33.925" fill="white" transform="translate(0.833984 0.0371094)"/>
</clipPath>
</defs>
</svg>
