<svg width="54" height="24" viewBox="0 0 54 24" fill="none" xmlns="http://www.w3.org/2000/svg">
<path fill-rule="evenodd" clip-rule="evenodd" d="M9.73476 3.38457L1.57789 6.20653L1.22191 7.57929C1.02599 8.33444 0.899794 8.98647 0.941502 9.02834C0.983056 9.07021 3.24405 8.32452 5.96583 7.3712C8.68776 6.41804 10.9478 5.67141 10.9885 5.7122C11.0289 5.75313 10.048 9.53291 8.80858 14.1119C7.56904 18.6908 6.59375 22.4762 6.64115 22.524C6.6884 22.5717 8.06184 22.2273 9.69306 21.7589L12.6589 20.907L13.6122 17.4333C17.1483 4.54753 18.2014 0.547719 18.0566 0.554697C17.9658 0.559193 14.221 1.83256 9.73476 3.38457ZM49.6727 4.57482C49.6727 5.04094 50.3441 5.41029 50.9976 5.30345C51.6589 5.19538 51.9812 4.95146 51.9812 4.55947C51.9812 4.15383 51.4079 4.18127 51.0689 4.60304C50.7903 4.9496 50.4422 4.88773 50.4422 4.49171C50.4422 4.3568 50.2898 4.26826 50.0574 4.26826C49.7767 4.26826 49.6727 4.35122 49.6727 4.57482ZM21.6623 8.37739V11.246H22.2779H22.8935V8.92011V6.59419H23.8939H24.8942V8.92011V11.246H25.5098H26.1255V8.37739V5.50876H23.8939H21.6623V8.37739ZM27.2028 8.37739V11.246H28.9727H30.7426V10.7033V10.1606H29.5883H28.434V9.54035V8.92011H29.4344H30.4348V8.37739V7.83468H29.4344H28.434V7.21443V6.59419H29.5113H30.5887V6.05147V5.50876H28.8957H27.2028V8.37739ZM31.9353 5.60675C31.6918 5.67886 31.666 5.9527 31.666 8.46624V11.246H32.2816H32.8972V10.2381V9.23023H33.4408C34.104 9.23023 34.8799 8.9153 35.2508 8.49555C35.8872 7.77529 35.7147 6.39912 34.9227 5.87625C34.5181 5.60908 32.5314 5.42998 31.9353 5.60675ZM36.7028 5.61637C36.4525 5.68196 36.4334 5.91486 36.4719 8.42825L36.5139 11.1685L37.3604 11.22C39.2768 11.3363 40.5 10.7028 40.5 9.594C40.5 9.1651 40.3891 8.93608 40.0209 8.60456L39.542 8.17333L39.9132 7.82196C40.6884 7.08821 40.1918 5.83888 39.0319 5.6052C38.5014 5.49837 37.1274 5.50488 36.7028 5.61637ZM41.5507 8.33863L41.5927 11.1685L42.824 11.1539C44.2597 11.1369 44.9263 10.8624 45.3001 10.1339C45.945 8.87747 44.903 7.52455 43.2906 7.52455H42.747V6.51665V5.50876H42.1279H41.5089L41.5507 8.33863ZM46.1329 8.37739V11.246H46.7485H47.3641V8.37739V5.50876H46.7485H46.1329V8.37739ZM48.5953 8.38592V11.2631L49.3059 11.2158L50.0165 11.1685L51.0373 9.21503L52.0582 7.26157L52.0075 9.2538L51.9567 11.246H52.5077H53.0585V8.37739V5.50876H52.4503H51.8422L50.7603 7.56332L49.6785 9.61788L49.6756 7.56332L49.6727 5.50876H49.134H48.5953V8.38592ZM34.1966 6.78383C34.3284 6.97331 34.4362 7.25242 34.4362 7.40407C34.4362 7.83049 33.8719 8.29986 33.3589 8.29986H32.8972V7.36949V6.43912H33.4271C33.8003 6.43912 34.0279 6.54115 34.1966 6.78383ZM38.8687 6.6252C39.3733 7.13364 38.9064 7.83468 38.0631 7.83468C37.6978 7.83468 37.6682 7.78258 37.6682 7.1369C37.6682 6.45091 37.6768 6.43912 38.1761 6.43912C38.4554 6.43912 38.7671 6.52286 38.8687 6.6252ZM8.00181 7.59495C7.21783 7.87065 6.55051 8.12464 6.51865 8.15938C6.44985 8.23412 6.33597 8.65325 4.12176 16.9833C3.1811 20.5226 2.37742 23.5329 2.33587 23.673C2.27184 23.8883 2.49485 23.8553 3.78579 23.4582L5.31143 22.9888L5.80392 21.1103C6.07494 20.0771 7.01976 16.5177 7.90347 13.2006C8.78734 9.88335 9.49175 7.15225 9.46867 7.13147C9.44573 7.11054 8.78564 7.3191 8.00181 7.59495ZM43.79 8.69635C44.4789 9.18247 44.0553 10.3157 43.1849 10.3157C42.7522 10.3157 42.747 10.3043 42.747 9.38529C42.747 8.52051 42.7718 8.45492 43.0975 8.45492C43.2903 8.45492 43.6019 8.56362 43.79 8.69635ZM38.9258 9.02167C39.4975 9.54299 39.054 10.3157 38.183 10.3157H37.6682V9.54035C37.6682 8.77295 37.6731 8.76505 38.1562 8.76505C38.4246 8.76505 38.7709 8.88057 38.9258 9.02167ZM21.6623 16.1305V18.9991H22.2779H22.8935V17.8361C22.8935 16.8175 22.928 16.6732 23.1719 16.6732C23.6475 16.6732 23.956 17.0259 24.3246 17.9912C24.6745 18.9068 24.6903 18.9223 25.3258 18.9692C25.681 18.9955 25.9716 18.982 25.9716 18.9394C25.9716 18.7443 25.1673 16.724 25.0023 16.5046C24.9005 16.3694 24.6625 16.1756 24.4732 16.0739C24.1313 15.8906 24.1349 15.881 24.9453 14.7693C26.1148 13.1652 26.0933 13.2618 25.2812 13.2618H24.5726L23.7715 14.5313L22.9704 15.8007L22.9258 14.5313L22.881 13.2618H22.2717H21.6623V16.1305ZM27.5051 14.8512C27.241 15.7254 26.8896 16.8941 26.7246 17.4485C26.5596 18.0028 26.3859 18.5828 26.3386 18.7374C26.2634 18.9831 26.3357 19.0121 26.9159 18.97C27.5457 18.9241 27.588 18.8901 27.7505 18.3013C27.9212 17.6834 27.9251 17.6809 28.7598 17.6356L29.5978 17.5901L29.7848 18.2947C29.9713 18.9969 29.974 18.9991 30.6576 18.9991H31.3434L31.1427 18.3401C31.0324 17.9776 30.6418 16.6868 30.2747 15.4715L29.6075 13.2618H28.7965H27.9855L27.5051 14.8512ZM32.1277 16.1305V18.9991H32.7433H33.3589V17.8361V16.6732H34.3593H35.3597V17.8361V18.9991H35.9753H36.5909V16.1305V13.2618H35.9753H35.3597V14.4248V15.5878H34.3593H33.3589V14.4248V13.2618H32.7433H32.1277V16.1305ZM38.74 14.8512C38.4759 15.7254 38.1245 16.8941 37.9595 17.4485C37.7946 18.0028 37.6208 18.5828 37.5736 18.7374C37.4983 18.9831 37.5706 19.0121 38.1508 18.97C38.7806 18.9241 38.8229 18.8901 38.9855 18.3013C39.1561 17.6834 39.16 17.6809 39.9948 17.6356L40.8328 17.5901L41.0198 18.2947C41.2063 18.9969 41.2089 18.9991 41.8925 18.9991H42.5783L42.3776 18.3401C42.2673 17.9776 41.8767 16.6868 41.5096 15.4715L40.8425 13.2618H40.0314H39.2205L38.74 14.8512ZM43.9782 15.0219C43.9782 16.9723 43.8268 17.6218 43.3066 17.9024C43.0316 18.0507 42.972 18.1905 43.0259 18.5603C43.0888 18.9931 43.1315 19.0224 43.5692 18.9343C44.6919 18.7081 45.2095 17.6006 45.2095 15.4251V14.3473H45.8251H46.4407V16.6732V18.9991H47.0563H47.6719V16.1305V13.2618H45.8251H43.9782V15.0219ZM29.1006 15.5467C29.2418 16.0784 29.3574 16.5494 29.3574 16.5933C29.3574 16.6372 29.073 16.6732 28.7254 16.6732C28.2353 16.6732 28.1127 16.6225 28.1793 16.4474C28.2265 16.3232 28.3517 15.7999 28.4574 15.2845C28.563 14.769 28.6932 14.3997 28.7466 14.4636C28.8 14.5276 28.9593 15.015 29.1006 15.5467ZM40.3355 15.5467C40.4768 16.0784 40.5924 16.5494 40.5924 16.5933C40.5924 16.6372 40.308 16.6732 39.9603 16.6732C39.4703 16.6732 39.3476 16.6225 39.4142 16.4474C39.4615 16.3232 39.5866 15.7999 39.6923 15.2845C39.7979 14.769 39.9281 14.3997 39.9815 14.4636C40.0349 14.5276 40.1942 15.015 40.3355 15.5467Z" fill="white"/>
</svg>
