<svg width="109" height="13" viewBox="0 0 109 13" fill="none" xmlns="http://www.w3.org/2000/svg">
<g clip-path="url(#clip0_3930_11238)">
<path fill-rule="evenodd" clip-rule="evenodd" d="M7.03739 2.1728C7.52258 2.87836 7.8061 3.72955 7.8061 4.64619C7.8061 5.56264 7.52258 6.414 7.03739 7.11957C6.5522 6.414 6.26872 5.56264 6.26872 4.64619C6.26872 3.72955 6.5522 2.87836 7.03739 2.1728ZM7.92961 8.87585C7.92961 8.87585 7.29062 9.62022 6.10936 9.62022C4.49322 9.62022 3.78618 8.57129 3.57988 7.90509C3.45097 7.48785 3.39786 7.19993 3.4647 6.6598C3.5395 6.05612 4.04878 4.7642 5.91102 4.57016C5.91061 4.59544 5.90822 4.62072 5.90822 4.64619C5.90822 5.3012 6.04468 5.93952 6.30331 6.53084C6.00294 6.51788 4.73313 6.53788 4.54969 7.78321C4.44027 8.52601 4.97702 9.32974 6.10936 9.32974C7.38473 9.32974 7.43126 8.27297 7.15079 7.97293C6.86987 7.67285 6.27526 7.97293 6.27526 7.97293V7.17837H7.92961V8.87585ZM0.0585175 6.1802L6.14874 12.1802L12.239 6.1802L6.14874 0.180176L0.0585175 6.1802Z" fill="white"/>
<path fill-rule="evenodd" clip-rule="evenodd" d="M7.03047 4.07031C6.83867 4.41859 6.72649 4.8386 6.72649 5.29092C6.72649 5.74328 6.83867 6.16348 7.03047 6.51176C7.22223 6.16348 7.33441 5.74328 7.33441 5.29092C7.33441 4.8386 7.22223 4.41859 7.03047 4.07031Z" fill="white"/>
<path d="M15.6336 2.84712L15.6054 3.43045L16.4519 3.45823V8.87493L15.6054 8.90269L15.6618 9.51382H18.2011L18.2576 8.95825L17.3265 8.90269V3.51378H19.5554L19.6119 4.62492H20.289V2.81934L19.5272 2.84712H15.6336Z" fill="white"/>
<path d="M24.9446 6.12423C24.9446 4.81871 24.3239 4.26318 23.1671 4.26318C22.5182 4.26318 22.0386 4.54094 21.7565 4.73539L21.6718 4.3465H21.1358L21.1076 5.95755H21.7565L21.7847 5.29091C21.954 5.12427 22.349 4.87427 22.9414 4.87427C23.816 4.87427 24.1264 5.26315 24.1264 6.15199V6.51311C22.8004 6.65199 20.6562 6.73531 20.6562 8.23524C20.6562 9.15189 21.3051 9.70741 22.49 9.70741C23.6468 9.70741 24.0417 9.06853 24.1546 8.90188L24.2674 9.56853H25.537L25.5653 8.9852L24.9446 8.95744V6.12423ZM24.0982 8.31856C24.0699 8.40192 23.7314 9.06853 22.7157 9.06853C21.8975 9.06853 21.4743 8.73524 21.4743 8.09636C21.4743 7.15196 22.8286 7.0964 24.0982 7.01308V8.31856Z" fill="white"/>
<path d="M29.5158 6.76414C29.9108 6.5419 30.3059 6.15302 30.3059 5.51413C30.3059 4.70857 29.6287 4.23633 28.5283 4.23633C27.964 4.23633 27.5126 4.48637 27.2305 4.68081L27.1458 4.34745H26.6098L26.5816 5.84746H27.2305L27.2587 5.26413C27.428 5.12525 27.7948 4.87525 28.3873 4.87525C29.1773 4.87525 29.5158 5.18081 29.5158 5.68081C29.5158 6.45858 28.7541 6.65302 28.5848 6.68082H27.6819V7.23634H28.5565C29.2619 7.23634 29.8262 7.51414 29.8262 8.01415C29.8262 8.54191 29.2901 9.09747 28.3591 9.09747C26.9765 9.09747 26.5251 8.37527 26.5251 8.37527L26.2148 8.84747C26.2148 8.84747 26.6097 9.70859 28.4155 9.70859C29.8262 9.70859 30.6726 8.93083 30.6726 8.01415C30.6444 7.23638 30.1084 6.90302 29.5158 6.76414Z" fill="white"/>
<path d="M36.3133 5.04123L36.9058 5.01343V4.40234H31.3758L31.3476 5.01343L31.9683 5.04123V8.87456L31.3476 8.90232L31.3758 9.51345H33.379L33.4355 8.95788L32.8148 8.93012V5.04123H35.4669V9.51345H36.9058L36.9623 8.95788L36.3133 8.93012V5.04123Z" fill="white"/>
<path d="M40.856 4.26367C39.7276 4.26367 39.2197 4.84699 39.1068 4.98592L39.0222 4.40255H37.6961L37.6679 5.01368L38.2886 5.04144V11.4304L37.6679 11.4581L37.6961 12.0693H39.6993L39.7276 11.4859L39.1068 11.4581V9.15257C39.1068 9.15257 39.5865 9.65258 40.6867 9.65258C42.2949 9.65258 43.1414 8.37481 43.1414 6.70812C43.1979 5.097 42.2949 4.26367 40.856 4.26367ZM40.4611 9.04149C39.6429 9.04149 39.2197 8.65257 39.135 8.56925V5.597C39.2197 5.48592 39.6429 4.87479 40.5458 4.87479C41.6745 4.87479 42.3233 5.347 42.3233 6.70812C42.3513 8.12481 41.7874 9.04149 40.4611 9.04149Z" fill="white"/>
<path d="M46.6108 4.26367C44.9181 4.26367 44.0155 5.26364 44.0155 6.93024C44.0155 8.59685 44.8901 9.68014 46.6108 9.68014C48.2755 9.68014 49.2065 8.59685 49.2065 6.93024C49.2065 5.26364 48.3039 4.26367 46.6108 4.26367ZM46.6108 9.06905C45.426 9.06905 44.8901 8.23573 44.8901 6.93024C44.8901 5.65252 45.426 4.84699 46.6108 4.84699C47.796 4.84699 48.3319 5.62472 48.3319 6.93024C48.3319 8.23573 47.796 9.06905 46.6108 9.06905Z" fill="white"/>
<path d="M70.4255 5.04123L71.0178 5.01343V4.40234H69.3252L67.4628 8.819L65.6288 4.40234H63.8797L63.8513 5.01343L64.5005 5.04123L64.5285 5.01343L64.3592 8.93012H56.5438L56.4874 5.04123L57.0801 5.01343V4.40234H55.359L53.4967 8.819L51.6627 4.40234H49.9416L49.9136 5.01343L50.5624 5.04123L50.5908 5.01343L50.4215 8.87456L49.8007 8.90232L49.8571 9.51345H51.6627L51.7191 8.95788L51.1267 8.93012L51.2112 5.43011V5.31899L53.1016 9.51345H53.8917L55.7257 5.31899H55.7537V5.70787L55.8101 9.51345H65.0364L65.1493 5.43011V5.31899L67.0397 9.51345H67.8578L69.6918 5.31899V5.70787L69.7482 9.51345H71.0743L71.1027 8.95788L70.4819 8.93012L70.4255 5.04123Z" fill="white"/>
<path d="M76.4053 6.4858C76.4053 4.98587 75.6152 4.26367 74.2327 4.26367C72.7373 4.26367 71.7499 5.23584 71.7499 6.958C71.7499 8.70793 72.7658 9.68014 74.374 9.68014C75.7845 9.68014 76.3489 8.79125 76.3489 8.79125L75.9538 8.37461C75.9538 8.37461 75.4459 9.04125 74.402 9.04125C73.3301 9.04125 72.6529 8.40241 72.568 7.12468H76.264C76.2924 7.12468 76.4053 6.84692 76.4053 6.4858ZM75.6436 6.54136H72.5965C72.6809 5.48584 73.2453 4.84699 74.2611 4.84699C75.1921 4.84699 75.6716 5.34696 75.6716 6.29136C75.6436 6.40248 75.6436 6.54136 75.6436 6.54136Z" fill="white"/>
<path d="M82.1079 4.40234H77.7911L77.7631 5.04123L78.6377 5.06899C78.6092 6.70787 78.4119 7.8468 77.876 8.90232H77.0859L77.1139 11.0413H77.6782L77.7631 9.54125H82.1643L82.2492 11.0413H82.898L82.9544 8.90232H82.1079V4.40234ZM81.2617 8.90232H78.5812C79.0891 7.819 79.2584 6.59679 79.2584 5.01343H81.2617V8.90232Z" fill="white"/>
<path d="M88.5126 5.04123L89.105 5.01343V4.40234H87.7225L84.7318 8.26344V4.40234H83.3209L83.2929 5.01343L83.8853 5.04123V9.51345H84.5061L87.6661 5.45787V8.93012L87.0737 8.98568V9.51345H89.077L89.1334 8.95788L88.5126 8.93012V5.04123Z" fill="white"/>
<path d="M105.802 7.01414L105.379 7.43082L106.874 8.90303H94.4079H94.2105V6.09746C94.2105 4.79189 93.5897 4.23633 92.433 4.23633C91.7842 4.23633 91.3043 4.51413 91.0221 4.70857L90.9376 4.31969H90.4013L90.3733 5.93082H91.0221L91.0505 5.26413C91.2198 5.09745 91.6149 4.84745 92.2073 4.84745C93.0818 4.84745 93.3924 5.23633 93.3924 6.12526V6.48638C92.066 6.62526 89.9218 6.70858 89.9218 8.20859C89.9218 9.12527 90.5706 9.68083 91.7558 9.68083C92.9125 9.68083 93.3076 9.04191 93.4204 8.87527L93.7026 9.54191H106.903L105.407 11.0142L105.83 11.4308L108.059 9.23635L105.802 7.01414ZM93.364 8.31971C93.336 8.40303 92.9974 9.06971 91.9815 9.06971C91.1634 9.06971 90.7399 8.73635 90.7399 8.09747C90.7399 7.15302 92.0944 7.09746 93.364 7.01414V8.31971Z" fill="white"/>
</g>
<defs>
<clipPath id="clip0_3930_11238">
<rect width="108" height="12.0001" fill="white" transform="translate(0.0585175 0.179688)"/>
</clipPath>
</defs>
</svg>
