<svg width="171" height="24" viewBox="0 0 171 24" fill="none" xmlns="http://www.w3.org/2000/svg">
<g clip-path="url(#clip0_4083_5040)">
<path d="M66.4663 12.1344V19.0677L59.933 12.1344H54.9997V23.4677H58.1997V16.6677L64.8663 23.4677H69.6663V12.1344H66.4663ZM24.4663 14.401H26.9997C28.4663 14.401 29.2663 15.0677 29.2663 16.2677C29.2663 17.8677 28.5997 18.401 26.333 18.401L29.533 23.4677H34.8663L31.533 18.6677C32.0663 18.6677 34.1997 18.2677 34.1997 15.3344C34.1997 12.1344 30.9997 12.1344 28.8663 12.1344H19.533V23.4677H24.333V14.401H24.4663ZM46.8663 12.1344V18.5344C46.8663 19.601 46.5997 20.401 46.1997 20.801C45.7997 21.201 45.133 21.4677 44.333 21.4677C43.533 21.4677 42.8663 21.3344 42.4663 20.801C42.0663 20.2677 41.7997 19.601 41.7997 18.5344V12.1344H36.9997V18.801C36.9997 20.6677 37.3997 21.3344 38.1997 22.1344C39.3997 23.3344 41.6663 23.8677 44.4663 23.8677C47.2663 23.8677 49.3997 23.3344 50.733 22.1344C51.533 21.3344 51.933 20.6677 51.933 18.801V12.1344H46.8663ZM80.9997 12.1344H73.2663V23.4677H80.9997C86.5997 23.4677 89.2663 22.2677 89.2663 17.7344C89.2663 13.201 86.733 12.1344 80.9997 12.1344ZM80.4663 21.201H77.933V14.401H80.4663C82.9997 14.401 84.1997 15.4677 84.1997 17.7344C84.333 20.001 82.9997 21.201 80.4663 21.201ZM115.133 11.7344C108.866 11.7344 106.2 14.001 106.2 17.7344C106.2 21.8677 108.866 23.8677 115.133 23.8677C121.266 23.8677 124.066 21.8677 124.066 17.7344C123.933 14.1344 121.266 11.7344 115.133 11.7344ZM115 21.4677C112.466 21.4677 111.266 20.2677 111.266 17.7344C111.266 15.201 112.466 14.001 115 14.001C117.533 14.001 118.733 15.201 118.733 17.7344C118.733 20.401 117.666 21.4677 115 21.4677ZM97.133 14.5344H103.8L105.266 12.1344H92.1997V23.4677H97.133V19.7344H102.6L104.066 17.3344H97.133V14.5344ZM11.6663 18.001V21.3344C11.6663 21.3344 10.333 21.4677 9.66634 21.4677C5.93301 21.4677 5.39967 19.4677 5.39967 17.8677C5.39967 15.4677 6.86634 14.2677 9.93301 14.2677C11.933 14.2677 12.9997 14.401 14.4663 14.6677L15.133 14.801L16.5997 12.2677C13.2663 11.8677 11.133 11.8677 9.26634 11.8677C3.13301 11.8677 0.333008 13.8677 0.333008 18.001C0.333008 22.1344 3.13301 23.8677 9.26634 23.8677C11.933 23.8677 14.4663 23.7344 16.4663 23.201V18.1344L11.6663 18.001ZM135.666 16.401C133.4 16.001 132.066 16.001 132.066 15.0677C132.066 14.1344 134.333 14.001 135.8 14.001C136.6 14.001 138.333 14.1344 139.533 14.401L140.866 12.1344C139.933 12.001 137.266 11.7344 134.466 11.7344C129.4 11.7344 126.066 12.6677 126.066 15.0677C126.066 17.7344 128.866 18.1344 131.666 18.6677C133.8 19.0677 135.266 19.0677 135.266 20.1344C135.266 21.3344 133.4 21.4677 131.533 21.4677C131 21.4677 129.4 21.3344 127.4 20.9344L125.666 23.601C127.8 23.8677 128.733 24.001 132.733 24.001C138.466 24.001 141.133 22.9344 141.133 20.1344C141.133 17.4677 138.333 16.801 135.666 16.401ZM154.333 23.4677H148.2L156.733 14.9344C156.733 14.9344 157.266 15.201 158.333 16.2677C159.533 17.3344 159.8 17.8677 159.8 17.8677L154.333 23.4677Z" fill="white"/>
<path d="M151.533 16.9341C148.333 13.0674 147.4 11.3341 146.6 9.20078C146.067 7.86745 145.4 5.33411 146.733 4.00078C147.933 2.80078 150.2 3.20078 152.6 4.26745C155.267 5.46745 158.333 7.73411 161.267 10.4008L170.867 0.800781V6.93411L162.067 15.7341C162.067 15.7341 161.133 14.6674 160.6 14.2674C155.4 9.20078 150.6 6.66745 149.4 7.86745C147.8 9.46745 152.733 15.2008 152.867 15.4674L151.533 16.9341ZM171 23.4674H167.533C167.533 23.4674 167.133 22.2674 165.933 20.4008C164.733 18.5341 163.667 17.4674 163.667 17.4674L165.933 15.2008C166.867 16.4008 167.8 17.6008 168.733 19.0674C169.667 20.5341 170.467 22.0008 171 23.4674Z" fill="white"/>
</g>
<defs>
<clipPath id="clip0_4083_5040">
<rect width="170.667" height="24" fill="white" transform="translate(0.333008)"/>
</clipPath>
</defs>
</svg>
