<svg width="93" height="28" viewBox="0 0 93 28" fill="none" xmlns="http://www.w3.org/2000/svg">
<g clip-path="url(#clip0_4083_4720)">
<path d="M4.89193 24.3727H11.6135C16.6225 27.2411 22.445 28.5683 25.6559 28.9108C26.4693 29.0392 26.9402 29.0392 26.9402 29.0392C23.7721 28.4399 18.9772 26.8558 14.8672 24.5011C11.6562 22.6602 8.74501 20.3483 6.98973 17.6511C5.10599 14.7399 4.03569 11.7431 3.82163 9.17434C3.60756 6.56283 4.24975 4.37937 5.70537 3.13782C7.24661 1.85345 9.04473 1.25408 10.9713 1.12565C8.40252 0.911581 5.8338 1.46814 3.82163 3.18063C0.82477 5.70655 0.781958 12.7706 4.89193 18.5502C4.89193 18.593 4.93475 18.593 4.93475 18.6359V24.3727H4.89193ZM26.8974 22.9599V18.2505C26.298 18.8071 25.3134 19.1496 24.1147 19.278C22.5306 19.4065 20.6469 19.1068 18.7203 18.2934C18.2065 18.0793 17.6928 17.8224 17.2219 17.5656C14.9956 16.324 13.1547 14.5259 11.956 12.685C10.7572 10.844 10.2435 8.9175 10.7144 7.54747C11.1853 6.69125 11.7847 6.17748 12.4269 5.8778C13.0691 5.57812 13.7969 5.49249 14.5675 5.5353C15.2953 5.57811 16.0659 5.79217 16.8366 6.09186C17.6928 6.43435 18.5062 6.90532 19.3197 7.41905C20.0903 7.93279 20.7753 8.57494 21.3747 9.21716C22.0168 9.94497 22.5306 10.7156 22.9159 11.4434C23.3012 12.214 23.5153 12.9846 23.5153 13.6268C23.5153 14.1833 23.344 14.6543 22.9159 15.0396C22.5734 15.2537 22.0596 15.2965 21.4603 15.2109C20.7753 15.0824 20.0046 14.7399 19.234 14.3118C18.4634 13.8409 17.7784 13.2843 17.2219 12.6421C16.6653 12.0427 16.28 11.4006 16.0659 10.8012C15.595 9.21716 16.4084 8.6606 17.0934 8.48935C17.4359 8.4037 17.7356 8.36094 17.864 8.36094H17.9069L18.6347 8.27528L17.9925 7.97562C17.9497 7.97562 17.4787 7.88996 16.965 7.88996C16.5797 7.93279 16.1516 7.97562 15.7663 8.14686C15.3381 8.31811 14.9956 8.61777 14.7387 9.08875C14.5675 9.43124 14.4819 9.85932 14.5247 10.3731C14.6103 11.2721 15.0812 12.2568 15.809 13.1559C16.5797 14.0978 17.5644 14.954 18.7203 15.5962C19.8334 16.2384 21.0321 16.538 22.1025 16.6237C23.2155 16.6665 24.1574 16.4096 24.714 15.853C24.7996 15.7674 24.8852 15.639 24.9709 15.5534C25.6559 14.5687 25.5702 13.2843 24.9709 11.9572C24.3715 10.6728 23.344 9.30275 22.0596 8.10404C21.3747 7.46188 20.6896 6.86249 19.919 6.34873C19.2768 5.8778 18.5918 5.49249 17.9069 5.10718C16.3656 4.29375 14.7387 3.78 13.2403 3.82281C11.7419 3.82281 10.3719 4.37937 9.38723 5.74936C9.25881 5.96342 9.0875 6.17748 8.95908 6.43435C8.06003 8.18969 8.40252 10.4159 9.6013 12.6421C10.8857 14.9968 13.1119 17.3515 15.7663 19.1068C18.8915 21.1618 22.4021 22.1892 24.6284 22.6174C25.0993 22.7458 26.3408 22.9599 26.8974 22.9599ZM26.8974 11.4006V1.51095H14.8672C16.965 2.0247 18.9772 3.00938 20.7324 4.29375C23.1728 6.09186 25.4846 8.61777 26.8118 11.1865C26.8546 11.2293 26.8546 11.3149 26.8974 11.4006Z" fill="white"/>
<path fill-rule="evenodd" clip-rule="evenodd" d="M44.5788 1.55078V26.596H42.0957V14.052H37.0866V26.596H34.6035V1.55078H37.0866V11.5689H42.0957V1.55078H44.5788ZM50.7009 4.03389V11.526H55.924V14.0091H50.7009V24.07H57.2084V26.596H48.175V1.55078H57.2084V4.03389H50.7009ZM68.8105 24.07V26.596H59.8199V1.55078H62.303V24.07H68.8105ZM73.0487 26.6387H70.5656V1.5936H73.0487V26.6387ZM83.1096 12.896L86.7916 26.596H84.2226L81.1834 14.6941L78.1861 26.596H75.5751L79.2564 12.896L75.5318 1.55078H78.2294L81.1834 11.1835L84.1374 1.55078H86.7916L83.1096 12.896Z" fill="white"/>
</g>
<defs>
<clipPath id="clip0_4083_4720">
<rect width="91.6364" height="28" fill="white" transform="translate(0.918945)"/>
</clipPath>
</defs>
</svg>
