<svg width="132" height="28" viewBox="0 0 132 28" fill="none" xmlns="http://www.w3.org/2000/svg">
<g clip-path="url(#clip0_4083_4734)">
<path d="M55.0898 5.59991V22.3999H52.1732V9.21658H52.1343L46.9232 22.3999H44.9787L39.6509 9.21658H39.612V22.3999H36.9287V5.59991H41.1287L45.9509 18.0444H46.0287L51.1232 5.59991H55.0898ZM57.5009 6.88325C57.5009 6.41658 57.6565 6.02769 58.0065 5.71658C58.3565 5.40547 58.7454 5.24991 59.212 5.24991C59.7176 5.24991 60.1454 5.40547 60.4565 5.71658C60.7676 6.02769 60.962 6.41658 60.962 6.88325C60.962 7.34991 60.8065 7.7388 60.4565 8.04991C60.1065 8.36102 59.7176 8.51658 59.212 8.51658C58.7065 8.51658 58.3176 8.36102 58.0065 8.04991C57.6954 7.69991 57.5009 7.31102 57.5009 6.88325ZM60.6509 10.3444V22.3999H57.812V10.3444H60.6509ZM69.2454 20.3388C69.6732 20.3388 70.1398 20.261 70.6454 20.0277C71.1509 19.8332 71.6176 19.561 72.0454 19.2499V21.8944C71.5787 22.1666 71.0732 22.361 70.4898 22.4777C69.9065 22.5944 69.2843 22.6721 68.5843 22.6721C66.7954 22.6721 65.3565 22.1277 64.2676 20.9999C63.1398 19.8721 62.5954 18.4332 62.5954 16.7221C62.5954 14.7777 63.1787 13.1832 64.3065 11.9388C65.4343 10.6944 67.0287 10.0721 69.1287 10.0721C69.6732 10.0721 70.2176 10.1499 70.7232 10.2666C71.2676 10.3832 71.6954 10.5777 72.0065 10.7332V13.4555C71.5787 13.1444 71.112 12.8721 70.6843 12.7166C70.2176 12.561 69.7509 12.4444 69.2843 12.4444C68.1565 12.4444 67.262 12.7944 66.562 13.5332C65.862 14.2721 65.5509 15.2444 65.5509 16.4888C65.5509 17.6944 65.9009 18.6666 66.562 19.3277C67.2232 19.9888 68.1176 20.3388 69.2454 20.3388ZM80.0954 10.1499C80.3287 10.1499 80.5232 10.1499 80.7176 10.1888C80.912 10.2277 81.0676 10.2666 81.1843 10.3055V13.1832C81.0287 13.0666 80.8343 12.9499 80.5232 12.8721C80.212 12.7944 79.9009 12.7166 79.4732 12.7166C78.7732 12.7166 78.1898 13.0277 77.7232 13.611C77.2565 14.1944 76.9843 15.0888 76.9843 16.3332V22.3999H74.1454V10.3444H76.9843V12.2499H77.0232C77.2954 11.5888 77.6843 11.0832 78.1898 10.6944C78.7343 10.3444 79.3565 10.1499 80.0954 10.1499ZM81.3398 16.5666C81.3398 14.5832 81.9232 12.9888 83.012 11.8221C84.1398 10.6555 85.6954 10.0721 87.6787 10.0721C89.5454 10.0721 91.0232 10.6166 92.0732 11.7444C93.1232 12.8721 93.6676 14.3888 93.6676 16.2944C93.6676 18.2388 93.0843 19.7944 91.9954 20.961C90.8676 22.1277 89.3509 22.711 87.4065 22.711C85.5398 22.711 84.062 22.1666 82.9732 21.0777C81.8843 19.9499 81.3398 18.4332 81.3398 16.5666ZM84.2954 16.4499C84.2954 17.6944 84.5676 18.6666 85.1509 19.3277C85.7343 19.9888 86.5509 20.3388 87.6009 20.3388C88.612 20.3388 89.4287 20.0277 89.9732 19.3277C90.5176 18.6666 90.7898 17.6944 90.7898 16.3721C90.7898 15.0888 90.5176 14.1166 89.9732 13.4166C89.4287 12.7555 88.612 12.4055 87.6398 12.4055C86.5898 12.4055 85.812 12.7555 85.2287 13.4555C84.5676 14.1944 84.2954 15.1666 84.2954 16.4499ZM97.9065 13.5332C97.9065 13.9221 98.0232 14.2721 98.2954 14.5055C98.5676 14.7388 99.112 15.011 100.006 15.361C101.134 15.8277 101.951 16.3332 102.379 16.8777C102.845 17.461 103.079 18.1221 103.079 18.9388C103.079 20.0666 102.651 20.961 101.756 21.661C100.901 22.361 99.6954 22.6721 98.2176 22.6721C97.712 22.6721 97.1676 22.5944 96.5454 22.4777C95.9232 22.361 95.4176 22.2055 94.9898 22.011V19.211C95.4954 19.561 96.0787 19.8721 96.662 20.0666C97.2454 20.261 97.7898 20.3777 98.2954 20.3777C98.9176 20.3777 99.4232 20.2999 99.6954 20.1055C100.006 19.911 100.162 19.6388 100.162 19.211C100.162 18.8221 100.006 18.511 99.6954 18.1999C99.3843 17.9277 98.762 17.6166 97.9065 17.2666C96.8565 16.8388 96.1176 16.3332 95.6898 15.7888C95.262 15.2444 95.0287 14.5444 95.0287 13.6888C95.0287 12.5999 95.4565 11.7055 96.312 11.0055C97.1676 10.3055 98.2954 9.95547 99.6565 9.95547C100.084 9.95547 100.551 9.99436 101.056 10.111C101.562 10.2277 102.029 10.3444 102.379 10.461V13.2221C101.99 12.9888 101.562 12.7555 101.056 12.561C100.551 12.3666 100.045 12.2888 99.5787 12.2888C99.0343 12.2888 98.6065 12.4055 98.3343 12.5999C98.062 12.8721 97.9065 13.1444 97.9065 13.5332ZM104.284 16.5666C104.284 14.5832 104.868 12.9888 105.956 11.8221C107.084 10.6555 108.64 10.0721 110.623 10.0721C112.49 10.0721 113.968 10.6166 115.018 11.7444C116.068 12.8721 116.612 14.3888 116.612 16.2944C116.612 18.2388 116.029 19.7944 114.94 20.961C113.812 22.1277 112.295 22.711 110.351 22.711C108.484 22.711 107.006 22.1666 105.918 21.0777C104.868 19.9499 104.284 18.4332 104.284 16.5666ZM107.24 16.4499C107.24 17.6944 107.512 18.6666 108.095 19.3277C108.679 19.9888 109.495 20.3388 110.545 20.3388C111.556 20.3388 112.373 20.0277 112.918 19.3277C113.462 18.6666 113.734 17.6944 113.734 16.3721C113.734 15.0888 113.462 14.1166 112.918 13.4166C112.373 12.7555 111.556 12.4055 110.584 12.4055C109.534 12.4055 108.756 12.7555 108.173 13.4555C107.551 14.1944 107.24 15.1666 107.24 16.4499ZM126.062 12.6777H121.823V22.3999H118.945V12.6777H116.923V10.3444H118.945V8.67214C118.945 7.42769 119.373 6.37769 120.19 5.56102C121.006 4.74436 122.056 4.35547 123.34 4.35547C123.69 4.35547 124.001 4.39436 124.273 4.39436C124.545 4.39436 124.779 4.47214 124.973 4.54991V6.99991C124.895 6.96102 124.701 6.88325 124.468 6.80547C124.234 6.72769 123.962 6.6888 123.651 6.6888C123.068 6.6888 122.601 6.88325 122.29 7.23325C121.979 7.58325 121.823 8.16658 121.823 8.86658V10.3055H126.062V7.58325L128.901 6.72769V10.3055H131.779V12.6388H128.901V18.2777C128.901 19.0166 129.056 19.5221 129.29 19.8332C129.562 20.1444 129.99 20.2999 130.573 20.2999C130.729 20.2999 130.923 20.261 131.156 20.1832C131.39 20.1055 131.584 20.0277 131.74 19.911V22.2444C131.545 22.361 131.273 22.4388 130.845 22.5166C130.418 22.5944 130.029 22.6332 129.601 22.6332C128.395 22.6332 127.501 22.3221 126.918 21.6999C126.334 21.0777 126.023 20.1055 126.023 18.8221L126.062 12.6777Z" fill="white"/>
<path d="M13.7902 0H0.490234V13.3H13.7902V0Z" fill="white"/>
<path d="M28.4904 0H15.1904V13.3H28.4904V0Z" fill="white"/>
<path d="M13.7902 14.6992H0.490234V27.9992H13.7902V14.6992Z" fill="white"/>
<path d="M28.4904 14.6992H15.1904V27.9992H28.4904V14.6992Z" fill="white"/>
</g>
<defs>
<clipPath id="clip0_4083_4734">
<rect width="131.289" height="28" fill="white" transform="translate(0.490234)"/>
</clipPath>
</defs>
</svg>
