<svg width="122" height="20" viewBox="0 0 122 20" fill="none" xmlns="http://www.w3.org/2000/svg">
<path d="M59.9845 0H54.8727V20H59.42V6.81817H59.7023L64.5322 14.4242H66.9461L71.7765 6.81817H72.0585V20H76.637V0H71.6195L65.8491 9.06058L59.9845 0ZM86.1391 0H81.5286V20H86.1391V11.4545H88.4279L94.7943 20H100.785L92.2855 9.33333L100.032 0H94.2923L88.3969 7.36367L86.1391 7.60608V0ZM120.667 0H104.108V20H113.516C114.708 20 115.774 19.8485 116.778 19.5758C117.781 19.2727 118.629 18.8485 119.35 18.3333C120.072 17.7576 120.636 17.0909 121.075 16.303C121.451 15.4545 121.67 14.5758 121.67 13.5152C121.67 12.4545 121.451 11.5152 121.075 10.6667C120.636 9.87875 120.072 9.21208 119.381 8.697C118.629 8.1515 117.781 7.75758 116.778 7.51517C115.774 7.24242 114.708 7.12125 113.516 7.12125H108.719V4.03033H116.559L120.667 0ZM108.75 16V11.0303H113.673C114.739 11.0303 115.555 11.2424 116.119 11.697C116.715 12.1212 116.998 12.697 116.998 13.5152C116.998 14.2727 116.715 14.8485 116.119 15.3333C115.555 15.7576 114.676 16 113.547 16H108.75ZM26.3348 0.0303332L15.9859 10L10.8427 5L16.0172 0H5.66827L0.587891 5L16.1113 20L29.3454 7.09092H37.2795L44.5866 0.0303332H26.3348Z" fill="white"/>
<path d="M18.2441 19.7874L19.7182 18.3631L29.9415 8.48438H44.6183L37.2799 15.545H32.9521L28.6245 19.7874H18.2441Z" fill="white"/>
</svg>
