<svg width="79" height="28" viewBox="0 0 79 28" fill="none" xmlns="http://www.w3.org/2000/svg">
<path d="M48.2894 19.5478C47.8547 19.5131 47.4199 19.4783 47.0025 19.4609C46.5851 19.4435 46.1677 19.4261 45.7329 19.3739C45.3155 19.4087 44.8808 19.4435 44.4634 19.4609C44.046 19.4783 43.6112 19.4957 43.1938 19.5478C43.1764 19.5478 43.159 19.5478 43.1416 19.5478C42.7068 19.5478 42.2373 19.5305 42.2373 19.1131C42.2373 18.6957 42.4807 18.5739 42.8807 18.4C43.3503 18.1913 43.4025 17.8609 43.4025 16.6783V9.77393C43.4025 9.54784 43.3851 9.35654 43.3677 9.28697C43.2808 9.35654 43.159 9.61741 43.0199 9.89567L42.9329 10.087L38.7068 18.9044C38.4981 19.3391 38.2547 19.5652 38.0112 19.5652C37.7155 19.5652 37.5764 19.3044 37.4721 19.0783L37.4547 19.0609L33.3155 9.93045C33.1068 9.44349 33.0025 9.37393 32.9677 9.37393C32.9329 9.37393 32.8981 9.37393 32.8981 9.77393V15.4609C32.8981 16.6435 33.1068 17.8261 34.6199 18.4174C34.9503 18.5391 35.246 18.7131 35.246 19.1305C35.246 19.5652 34.7764 19.5652 34.5851 19.5652C34.2025 19.5652 33.8199 19.5131 33.4547 19.4783C33.0894 19.4435 32.7242 19.3913 32.359 19.3913C31.9938 19.3913 31.6112 19.4261 31.2634 19.4783C30.8981 19.5131 30.5155 19.5652 30.1329 19.5652C29.9242 19.5652 29.5938 19.5652 29.5938 19.1305C29.5938 18.7478 29.8547 18.6261 30.1503 18.4696L30.2199 18.4348C31.246 17.8783 31.5416 17.3391 31.5416 16.1044V7.94784C31.5416 7.11306 31.2807 6.00002 30.5503 5.6348C30.4286 5.56523 30.3068 5.51306 30.2199 5.47828C29.7503 5.25219 29.5068 5.14784 29.5068 4.80002C29.5068 4.48697 29.6112 4.36523 29.8721 4.36523C30.1851 4.36523 30.5155 4.38263 30.8286 4.40002C31.1416 4.41741 31.4547 4.4348 31.7851 4.4348C32.0981 4.4348 32.4286 4.41741 32.7416 4.40002C33.0547 4.38263 33.3851 4.36523 33.6981 4.36523C34.1155 4.36523 34.3242 4.41741 34.4981 4.78263L38.6373 13.5305C38.759 13.7739 38.846 13.9652 38.9329 14.1391C39.0721 14.4174 39.159 14.6261 39.2112 14.7131C39.2634 14.6435 39.3851 14.4174 39.4894 14.2435C39.5416 14.1391 39.5938 14.0522 39.646 13.9478L44.2894 4.92176C44.5155 4.46958 44.6199 4.38263 44.8634 4.38263C45.1764 4.38263 45.5068 4.40002 45.8199 4.41741C46.1329 4.4348 46.446 4.45219 46.7764 4.45219C47.0894 4.45219 47.4199 4.4348 47.7329 4.41741C48.046 4.40002 48.3764 4.38263 48.6894 4.38263C48.759 4.38263 48.8286 4.41741 48.8808 4.45219C48.9503 4.52176 48.9677 4.6435 48.9677 4.81741C48.9677 5.20002 48.6025 5.33915 47.9938 5.54784L47.8894 5.58263C47.1938 5.8261 46.846 5.98263 46.846 7.2348V14.887C46.846 16.6435 46.9329 17.7565 48.5503 18.4C48.9851 18.5739 49.246 18.6957 49.246 19.1131C49.246 19.5478 48.7416 19.5478 48.2894 19.5478Z" fill="white"/>
<path d="M56.6197 19.6869C55.6632 19.6869 54.7588 19.4608 53.9067 19.2521C53.5241 19.1651 53.1241 19.0608 52.7241 18.9738C52.7067 18.9738 52.6719 18.9564 52.6371 18.9564C52.411 18.9217 52.0458 18.8521 51.9415 18.4869L51.1936 15.5303C51.1762 15.4608 51.1588 15.4086 51.1415 15.339C51.0893 15.1651 51.0371 14.9738 51.0371 14.8173C51.0371 14.6956 51.0893 14.3303 51.6458 14.3303C52.098 14.3303 52.2719 14.7825 52.3936 15.113C52.4284 15.1825 52.4458 15.2521 52.4806 15.3217C53.1762 16.7999 54.6371 18.3825 56.6545 18.3825C58.1502 18.3825 59.1936 17.4434 59.1936 16.0869C59.1936 14.6956 57.7675 14.1912 56.098 13.5999C53.9415 12.8347 51.2806 11.8956 51.2806 8.50426C51.2806 6.12165 53.2806 4.17383 55.7502 4.17383C56.898 4.17383 57.7675 4.50426 58.411 4.74774C58.811 4.88687 59.1067 5.00861 59.3502 5.00861C59.4371 5.00861 59.6284 4.92165 59.7675 4.86948C59.9589 4.78252 60.1154 4.71296 60.2371 4.71296C60.6893 4.71296 60.7415 5.026 60.7415 5.28687C60.7067 6.15644 60.8806 7.37383 60.9675 8.08687C61.0197 8.41731 61.0371 8.57383 61.0371 8.66078C61.0371 9.06078 60.811 9.28687 60.4458 9.28687C59.9589 9.28687 59.8371 8.88687 59.6806 8.38252L59.6458 8.29557C59.1762 6.78252 57.4023 5.46078 55.8893 5.46078C54.7588 5.46078 53.6284 6.06948 53.6284 7.25209C53.6284 8.71296 55.0719 9.21731 56.7588 9.79122C59.0023 10.5564 61.5415 11.4086 61.5415 14.8173C61.5762 17.1651 59.6806 19.6869 56.6197 19.6869Z" fill="white"/>
<path d="M71.1932 19.6869C67.5759 19.6869 63.8193 16.9738 63.8193 12.4173C63.8193 9.68687 64.6715 7.47818 66.2715 6.0347C67.6106 4.8347 69.4541 4.17383 71.4715 4.17383C73.0367 4.17383 74.3411 4.67818 75.2106 5.026C75.5932 5.18252 75.9237 5.30426 76.0802 5.30426C76.2367 5.30426 76.2715 5.2347 76.3585 5.07818C76.4628 4.90426 76.6019 4.64339 77.0019 4.64339C77.228 4.64339 77.3846 4.78252 77.4367 5.00861L77.7498 7.91296C77.7672 8.08687 77.8019 8.26079 77.8193 8.4347C77.8541 8.66079 77.8889 8.88687 77.8889 9.04339C77.8889 9.37383 77.7324 9.72165 77.4019 9.72165C77.0889 9.72165 76.8628 9.30426 76.7237 9.04339C76.7063 9.00861 76.6889 8.99122 76.6889 8.97383C75.4367 6.71296 73.7498 5.47818 71.9411 5.47818C68.9672 5.47818 67.5237 7.44339 67.5237 11.4782C67.5237 14.8869 69.628 17.6695 72.2019 17.6695C73.7324 17.6695 75.315 16.939 76.5672 15.6869C76.6193 15.6347 76.6541 15.5825 76.7063 15.5303C76.9498 15.2695 77.228 14.9564 77.5759 14.9564C77.6976 14.9564 77.9759 15.0086 77.9759 15.426C77.9759 16.1217 75.6976 19.6869 71.1932 19.6869Z" fill="white"/>
<path d="M33.3852 24.7997C33.4026 24.904 33.42 25.0258 33.42 25.0953C33.42 25.1649 33.3852 25.2345 33.333 25.2345C33.2635 25.2345 33.2113 25.0953 33.1765 25.0605C32.8287 24.4345 32.3417 24.104 31.8548 24.104C31.1417 24.104 30.62 24.504 30.62 25.7388C30.62 26.6084 31.1765 27.4258 31.9243 27.4258C32.3939 27.4258 32.8287 27.1823 33.1243 26.8866C33.1939 26.8171 33.2809 26.7127 33.3678 26.7127C33.42 26.7127 33.4374 26.7475 33.4374 26.7997C33.4374 26.9736 32.8287 27.8953 31.6461 27.8953C30.7069 27.8953 29.6982 27.2171 29.6982 26.0171C29.6982 24.4518 30.7417 23.8779 31.7156 23.8779C32.3417 23.8779 32.8113 24.1736 32.9504 24.1736C33.0895 24.1736 33.0374 23.9997 33.1939 23.9997C33.2461 23.9997 33.2635 24.0345 33.2635 24.0692L33.3852 24.7997Z" fill="white"/>
<path d="M38.2723 24.5912C38.2723 24.2607 38.081 24.1564 37.8376 24.1216C37.768 24.1042 37.7158 24.0694 37.7158 23.9825C37.7158 23.9303 37.7332 23.8955 37.8723 23.8955C38.0115 23.8955 38.1506 23.9477 38.5506 23.9477C38.8463 23.9477 39.2636 23.8955 39.5245 23.8955C40.2723 23.8955 41.055 24.0346 41.055 24.9564C41.055 25.339 40.8636 25.5303 40.6376 25.6694C40.5332 25.739 40.3593 25.7564 40.3593 25.8259C40.3593 25.9129 40.9854 27.0259 41.2636 27.339C41.3158 27.4086 41.368 27.4259 41.4202 27.4259C41.4897 27.4259 41.5419 27.4086 41.5941 27.4086C41.6636 27.4086 41.681 27.4433 41.681 27.5129C41.681 27.7564 41.0202 27.7912 40.8289 27.7912C40.6723 27.7912 40.4636 27.6868 40.3419 27.4607L39.681 26.2607C39.5941 26.0868 39.4897 25.9477 39.281 25.9477C39.1419 25.9477 39.0897 25.9825 39.0897 26.052V27.0086C39.0897 27.4607 39.281 27.5651 39.5245 27.5825C39.5941 27.5825 39.6463 27.6346 39.6463 27.7216C39.6463 27.7912 39.5767 27.8086 39.3158 27.8086C39.0897 27.8086 38.8636 27.7564 38.6376 27.7564C38.4115 27.7564 38.1854 27.8086 37.9593 27.8086C37.8723 27.8086 37.8028 27.8086 37.8028 27.7216C37.8028 27.6346 37.8897 27.5999 37.9593 27.5825C38.1854 27.5129 38.2376 27.3042 38.2376 27.1129V24.5912H38.2723ZM39.1419 25.5129C39.1419 25.5825 39.1419 25.7042 39.5071 25.7042C40.0115 25.7042 40.2202 25.4607 40.2202 24.9042C40.2202 24.5042 39.9767 24.1042 39.4897 24.1042C39.1941 24.1042 39.1419 24.1912 39.1419 24.3999V25.5129Z" fill="white"/>
<path d="M46.2889 24.5912C46.2889 24.2433 46.0976 24.1216 45.8542 24.1216C45.7846 24.1216 45.7324 24.0694 45.7324 23.9999C45.7324 23.9129 45.7846 23.8955 46.0629 23.8955C46.2889 23.8955 46.515 23.9477 46.7411 23.9477C46.9672 23.9477 47.1933 23.8955 47.4194 23.8955C47.5585 23.8955 47.5759 23.9303 47.5759 23.9825C47.5759 24.052 47.4889 24.0694 47.402 24.1216C47.2107 24.2086 47.1237 24.3825 47.1237 24.5912V26.3303C47.1237 26.9912 47.5585 27.4607 48.2542 27.4607C49.2629 27.4607 49.5063 26.6607 49.5063 26.0346V24.6086C49.5063 24.3303 49.3672 24.139 49.0542 24.1216C48.9672 24.1216 48.8802 24.0694 48.8802 23.9825C48.8802 23.9129 48.9498 23.8955 49.0889 23.8955C49.2629 23.8955 49.4194 23.9129 49.5933 23.9129C49.7672 23.9129 49.9237 23.8955 50.0976 23.8955C50.202 23.8955 50.2194 23.9129 50.2194 23.9825C50.2194 24.0694 50.115 24.0694 50.0281 24.1216C49.8716 24.1912 49.8194 24.2955 49.8194 24.7825V25.9825C49.8194 27.2346 49.1759 27.8607 47.9063 27.8607C46.8802 27.8607 46.2716 27.4259 46.2716 26.3651V24.5912H46.2889Z" fill="white"/>
<path d="M55.9243 27.1129C55.9243 27.4607 56.2374 27.5651 56.3591 27.5825C56.4287 27.5825 56.4808 27.6346 56.4808 27.7216C56.4808 27.8086 56.3243 27.8086 56.1504 27.8086C55.9765 27.8086 55.7504 27.7564 55.5243 27.7564C55.2982 27.7564 55.0721 27.8086 54.8461 27.8086C54.7417 27.8086 54.6548 27.8086 54.6548 27.7216C54.6548 27.6346 54.7417 27.5999 54.8113 27.5825C55.0374 27.5129 55.0721 27.3042 55.0721 27.1129V24.5912C55.0721 24.2433 54.8808 24.139 54.6374 24.1216C54.5678 24.1216 54.5156 24.0694 54.5156 23.9825C54.5156 23.8955 54.6721 23.8955 54.8461 23.8955C55.0721 23.8955 55.2982 23.9477 55.5243 23.9477C55.7504 23.9477 55.9765 23.8955 56.2026 23.8955C56.2895 23.8955 56.3591 23.8955 56.3591 23.9825C56.3591 24.0694 56.2026 24.1042 56.1504 24.1216C55.9243 24.1912 55.9243 24.3999 55.9243 24.5912V27.1129Z" fill="white"/>
<path d="M60.8629 26.7997C60.8455 26.7475 60.8281 26.6779 60.8281 26.6258C60.8281 26.591 60.8455 26.5388 60.9499 26.5388C61.0542 26.5388 61.089 26.6953 61.1238 26.7823C61.3325 27.2345 61.7325 27.6171 62.2716 27.6171C62.6716 27.6171 62.9846 27.3736 62.9846 26.9736C62.9846 26.0518 60.8977 26.504 60.8977 24.9736C60.8977 24.3997 61.3673 23.8779 62.0281 23.8779C62.4977 23.8779 62.7933 24.104 62.9846 24.104C63.0542 24.104 63.176 24.0171 63.2281 24.0171C63.2977 24.0171 63.3151 24.0518 63.3151 24.1214C63.2977 24.4345 63.402 24.9562 63.402 25.0084C63.402 25.0779 63.3673 25.1301 63.2977 25.1301C63.1933 25.1301 63.176 25.0431 63.1238 24.904C63.002 24.4866 62.5151 24.1214 62.0977 24.1214C61.7499 24.1214 61.4542 24.3127 61.4542 24.6431C61.4542 25.5997 63.5412 25.0953 63.5412 26.6431C63.5412 27.1823 63.1064 27.8779 62.2716 27.8779C61.9064 27.8779 61.5933 27.7562 61.2629 27.6866C61.2107 27.6692 61.1238 27.6692 61.089 27.5997L60.8629 26.7997Z" fill="white"/>
<path d="M68.3593 24.8694C68.3593 24.5912 68.3245 24.1738 68.0984 24.139C67.9245 24.1216 67.8027 24.0694 67.8027 23.9825C67.8027 23.8955 67.8897 23.8955 68.0114 23.8955C68.4462 23.9477 68.881 23.9303 69.3158 23.9477C69.7506 23.9477 70.1853 23.8955 70.6201 23.8955C70.7419 23.8955 70.8636 23.8955 70.8636 23.9999C70.8636 24.1216 70.8462 24.2433 70.8462 24.3651C70.8462 24.4868 70.8636 24.6086 70.8636 24.7303C70.8636 24.7999 70.8462 24.8346 70.7593 24.8346C70.6723 24.8346 70.6549 24.7303 70.6549 24.6781C70.6201 24.3303 70.4462 24.1738 69.8027 24.1738H69.4375C69.281 24.1738 69.2462 24.2259 69.2462 24.4346V25.4259C69.2462 25.5129 69.3332 25.5477 69.5593 25.5477C69.8897 25.5477 70.1332 25.4607 70.2201 25.2172C70.2897 25.0607 70.3071 25.0433 70.3593 25.0433C70.4462 25.0433 70.4462 25.1303 70.4462 25.1999C70.4462 25.3738 70.4288 25.5303 70.4288 25.7042C70.4288 25.8781 70.4462 26.0346 70.4462 26.2086C70.4462 26.2955 70.4462 26.3651 70.3419 26.3651C70.2549 26.3651 70.2549 26.1912 70.1853 26.0868C70.0462 25.8607 69.8897 25.8259 69.5593 25.8259C69.281 25.8259 69.2462 25.8955 69.2462 26.0346V26.9912C69.2462 27.4086 69.3158 27.4607 69.6114 27.4607C70.2027 27.4607 70.5332 27.2868 70.7245 27.0955C70.9158 26.9042 70.968 26.7129 71.0549 26.7129C71.1245 26.7129 71.1419 26.7651 71.1419 26.8172C71.1419 26.9216 71.0897 27.1477 71.0549 27.2694C70.9853 27.4955 70.7245 27.7738 70.4636 27.7738C70.081 27.7738 69.7158 27.7216 69.3332 27.7216C68.9506 27.7216 68.5853 27.7738 68.2027 27.7738C68.0288 27.7738 67.9419 27.7738 67.9419 27.6868C67.9419 27.5999 68.0462 27.5651 68.1506 27.5129C68.3419 27.4259 68.3766 27.2868 68.3766 26.9738V24.8694H68.3593Z" fill="white"/>
<path d="M75.4547 26.7997C75.4373 26.7475 75.4199 26.6779 75.4199 26.6258C75.4199 26.591 75.4373 26.5388 75.5417 26.5388C75.646 26.5388 75.6808 26.6953 75.7156 26.7823C75.9243 27.2345 76.3243 27.6171 76.8634 27.6171C77.2634 27.6171 77.5764 27.3736 77.5764 26.9736C77.5764 26.0518 75.4895 26.504 75.4895 24.9736C75.4895 24.3997 75.9591 23.8779 76.6199 23.8779C77.0895 23.8779 77.3851 24.104 77.5764 24.104C77.646 24.104 77.7677 24.0171 77.8199 24.0171C77.8895 24.0171 77.9069 24.0518 77.9069 24.1214C77.8895 24.4345 77.9938 24.9562 77.9938 25.0084C77.9938 25.0779 77.959 25.1301 77.8895 25.1301C77.7851 25.1301 77.7677 25.0431 77.7156 24.904C77.5938 24.4866 77.1069 24.1214 76.6895 24.1214C76.3417 24.1214 76.046 24.3127 76.046 24.6431C76.046 25.5997 78.133 25.0953 78.133 26.6431C78.133 27.1823 77.6982 27.8779 76.8634 27.8779C76.4982 27.8779 76.1851 27.7562 75.8547 27.6866C75.8025 27.6692 75.7156 27.6692 75.6808 27.5997L75.4547 26.7997Z" fill="white"/>
<path d="M12.9336 6.85225L14.064 2.64355V6.76529C13.4206 6.76529 12.9336 6.85225 12.9336 6.85225Z" fill="white"/>
<path d="M7.2981 11.3915L5.59375 9.11328L7.78505 10.3828C7.59375 10.7307 7.43723 11.0263 7.2981 11.3915Z" fill="white"/>
<path d="M6.91554 15.113L2.68945 14H6.82858C6.82858 14.3826 6.84598 14.7652 6.91554 15.113Z" fill="white"/>
<path d="M9.50603 8.36506L9.1582 5.53027L10.4278 7.72158C10.0973 7.93027 9.80168 8.12158 9.50603 8.36506Z" fill="white"/>
<path d="M11.455 20.7477L9.17676 22.4694L10.4463 20.2607C10.7768 20.452 11.0898 20.6086 11.455 20.7477Z" fill="white"/>
<path d="M15.1763 21.1309L14.0459 25.3396V21.2178C14.4285 21.2178 14.8111 21.2004 15.1763 21.1309Z" fill="white"/>
<path d="M8.42853 18.5389L5.59375 18.8868L7.78505 17.6172C7.97636 17.9476 8.18506 18.2259 8.42853 18.5389Z" fill="white"/>
<path d="M20.7936 16.5908L22.4979 18.8691L20.3066 17.5995C20.4979 17.2691 20.6545 16.956 20.7936 16.5908Z" fill="white"/>
<path d="M21.1943 12.8691L25.4204 13.9996H21.2813C21.2639 13.617 21.2465 13.2344 21.1943 12.8691Z" fill="white"/>
<path d="M18.5848 19.6172L18.9327 22.452L17.6631 20.2433C17.9935 20.0694 18.2892 19.8607 18.5848 19.6172Z" fill="white"/>
<path d="M16.6543 7.2522L18.9326 5.54785L17.663 7.73916C17.3152 7.54785 17.0195 7.39133 16.6543 7.2522Z" fill="white"/>
<path d="M19.6807 9.46111L22.5154 9.11328L20.3241 10.3828C20.0981 10.035 19.9241 9.75676 19.6807 9.46111Z" fill="white"/>
<path fill-rule="evenodd" clip-rule="evenodd" d="M14.0459 26.6783L12.5502 21.0783C12.2894 21.0261 12.0459 20.9565 11.8024 20.8696L8.75894 23.1478L9.21112 19.3739C9.01981 19.2 8.82851 19.0087 8.65459 18.8174L4.88068 19.2696L7.15894 16.2261C7.07199 15.9826 7.01981 15.7391 6.95025 15.4783L1.35025 13.9826L6.95025 12.487C7.00242 12.2087 7.07199 11.9826 7.15894 11.7391L4.89807 8.71304L8.67199 9.16522C8.8459 8.97391 9.01981 8.8 9.22851 8.62609L8.77633 4.85217L11.8198 7.13043C12.0633 7.04348 12.3068 6.9913 12.5676 6.93913L14.0633 1.33913L15.5416 6.93913C15.8024 6.9913 16.0633 7.06087 16.3068 7.14783L19.3502 4.86957L18.8807 8.62609C19.072 8.8 19.2459 8.97391 19.4372 9.18261L23.2111 8.73043L20.9329 11.7739C21.0198 12.0174 21.072 12.2435 21.1416 12.5217L26.7416 14.0174L21.1416 15.513C21.072 15.7913 21.0198 16.0174 20.9329 16.2609L23.2111 19.3043L19.4372 18.8522C19.2633 19.0435 19.072 19.2348 18.8807 19.4087L19.3329 23.1826L16.2894 20.9043C16.0459 20.9913 15.8024 21.0435 15.5416 21.0957L14.0459 26.6783ZM15.9242 20.9913L14.0459 28L12.1676 20.9913L8.35894 23.8435L8.91546 19.113L4.18503 19.687L7.05459 15.8783L0.0458984 14L7.05459 12.1217L4.20242 8.31304L8.93285 8.88696L8.37633 4.15652L12.185 7.0087L14.0633 0L15.9242 7.0087L19.7329 4.15652L19.1763 8.88696L23.9068 8.31304L21.0546 12.1217L28.0633 14L21.0546 15.8783L23.9068 19.687L19.1763 19.1304L19.7502 23.8609L15.9242 20.9913Z" fill="white"/>
<path d="M20.6373 14.0003C20.6373 14.1394 20.533 14.2438 20.3939 14.2438C20.2721 14.2438 20.1504 14.1394 20.1504 14.0003C20.1504 13.8612 20.2547 13.7568 20.3939 13.7568C20.533 13.7568 20.6373 13.8612 20.6373 14.0003Z" fill="white"/>
<path d="M17.3503 8.29522C17.472 8.36479 17.5068 8.50392 17.4372 8.62566C17.3677 8.74739 17.2285 8.78218 17.1068 8.71261C16.985 8.64305 16.9503 8.50392 17.0198 8.38218C17.0894 8.26044 17.2285 8.22566 17.3503 8.29522Z" fill="white"/>
<path d="M10.7591 8.29522C10.8809 8.22566 11.02 8.26044 11.0896 8.38218C11.1591 8.50392 11.1243 8.64305 11.0026 8.71261C10.8809 8.78218 10.7417 8.74739 10.6722 8.62566C10.6026 8.50392 10.6374 8.34739 10.7591 8.29522Z" fill="white"/>
<path d="M7.45508 14.0003C7.45508 13.8612 7.55943 13.7568 7.69856 13.7568C7.83769 13.7568 7.94203 13.8612 7.94203 14.0003C7.94203 14.1394 7.83769 14.2438 7.69856 14.2438C7.55943 14.2264 7.45508 14.1221 7.45508 14.0003Z" fill="white"/>
<path d="M10.7591 19.7048C10.6374 19.6352 10.6026 19.4961 10.6722 19.3744C10.7417 19.2526 10.8809 19.2178 11.0026 19.2874C11.1243 19.357 11.1591 19.4961 11.0896 19.6178C11.0026 19.7396 10.8635 19.7744 10.7591 19.7048Z" fill="white"/>
<path fill-rule="evenodd" clip-rule="evenodd" d="M8.27264 13.9997C8.27264 10.7997 10.8639 8.22576 14.0466 8.22576C17.2466 8.22576 19.8205 10.8171 19.8205 13.9997C19.8205 17.1997 17.2292 19.7736 14.0466 19.7736C10.8639 19.7736 8.27264 17.1823 8.27264 13.9997ZM7.10742 13.9997C7.10742 10.1736 10.2031 7.06055 14.0466 7.06055C17.8726 7.06055 20.9857 10.1736 20.9857 13.9997C20.9857 17.8258 17.8726 20.9388 14.0466 20.9388C10.2205 20.9388 7.10742 17.8258 7.10742 13.9997ZM20.777 13.9997C20.777 13.791 20.6031 13.6171 20.3944 13.6171C20.1857 13.6171 20.0118 13.791 20.0118 13.9997C20.0118 14.2084 20.1857 14.3823 20.3944 14.3823C20.6205 14.3823 20.777 14.2084 20.777 13.9997ZM17.4205 8.17359C17.2466 8.06924 17.0031 8.13881 16.8987 8.31272C16.7944 8.48663 16.8639 8.73011 17.0379 8.83446C17.2118 8.93881 17.4552 8.86924 17.5596 8.69533C17.6639 8.50403 17.5944 8.27794 17.4205 8.17359ZM10.69 8.1562C10.5161 8.26055 10.4466 8.48663 10.5509 8.67794C10.6552 8.85185 10.8813 8.92142 11.0726 8.81707C11.2466 8.71272 11.3161 8.48663 11.2118 8.29533C11.09 8.12142 10.8639 8.05185 10.69 8.1562ZM7.31612 13.9997C7.31612 14.2084 7.49003 14.3823 7.69873 14.3823C7.90742 14.3823 8.08134 14.2084 8.08134 13.9997C8.08134 13.791 7.90742 13.6171 7.69873 13.6171C7.49003 13.6171 7.31612 13.791 7.31612 13.9997ZM10.6726 19.8258C10.8466 19.9301 11.09 19.8605 11.1944 19.6866C11.2987 19.5127 11.2292 19.2692 11.0552 19.1649C10.8813 19.0605 10.6379 19.1301 10.5335 19.304C10.4292 19.4953 10.4987 19.7214 10.6726 19.8258ZM17.4205 19.8258C17.5944 19.7214 17.6639 19.4953 17.5596 19.304C17.4552 19.1301 17.2292 19.0605 17.0379 19.1649C16.8466 19.2692 16.7944 19.4953 16.8987 19.6866C17.0031 19.8779 17.2292 19.9301 17.4205 19.8258Z" fill="white"/>
<path d="M17.3503 19.7048C17.2285 19.7744 17.0894 19.7396 17.0198 19.6178C16.9503 19.4961 16.985 19.357 17.1068 19.2874C17.2285 19.2178 17.3677 19.2526 17.4372 19.3744C17.4894 19.4961 17.4546 19.6352 17.3503 19.7048Z" fill="white"/>
<path fill-rule="evenodd" clip-rule="evenodd" d="M11.924 17.0781C11.924 17.1824 11.9936 17.2868 12.0979 17.3215C12.2718 17.3911 12.4457 17.3911 12.6197 17.3215C12.724 17.2868 12.7936 17.1824 12.7936 17.0781C12.7936 16.9737 12.724 16.8868 12.637 16.8346C12.5675 16.7998 12.4805 16.765 12.411 16.7476C12.3066 16.7302 12.2023 16.6955 12.0979 16.6781C12.0457 16.6607 11.9936 16.6607 11.9414 16.6433C11.6283 16.6085 11.3501 16.4694 11.1066 16.2607C11.0544 16.1911 11.0023 16.1215 10.9675 16.0346C10.7588 15.565 10.9675 15.0085 11.437 14.7824C12.011 14.5215 12.6718 14.5215 13.2457 14.765C13.5936 14.8868 13.837 15.2172 13.837 15.5824H12.8457C12.811 15.4433 12.6892 15.3215 12.5501 15.3042C12.4283 15.2694 12.2892 15.2868 12.1675 15.3389C12.0283 15.3911 11.9588 15.5476 12.011 15.6868C12.0805 15.8085 12.2197 15.8955 12.3588 15.9302C12.637 15.965 12.9153 16.0346 13.1936 16.1215C13.3153 16.1389 13.4196 16.1911 13.5066 16.2607C13.5936 16.3302 13.6805 16.4172 13.7327 16.5215C13.9936 16.9563 13.8544 17.5302 13.4196 17.7911C12.8805 18.052 12.2544 18.1042 11.6805 17.9302C11.2457 17.8433 10.9327 17.4781 10.9327 17.0259H11.924V17.0781ZM17.1762 16.0172C17.1588 15.565 16.9327 15.165 16.5501 14.9215C16.011 14.5389 15.2631 14.5737 14.7588 15.0085C14.4631 15.2694 14.2718 15.652 14.2544 16.052C14.2023 16.452 14.2544 16.8694 14.3936 17.2346C14.5501 17.5824 14.8631 17.8607 15.2283 17.9824C15.5936 18.1215 15.9762 18.1042 16.324 17.9128C16.811 17.6868 17.124 17.2172 17.1762 16.6955H16.2544C16.2023 16.8868 16.0979 17.0433 15.9588 17.1302C15.6631 17.3215 15.3153 17.1302 15.1936 16.6955C15.0544 16.2607 15.1936 15.7563 15.4892 15.565C15.7849 15.3737 16.1327 15.565 16.2544 15.9998H17.1762V16.0172ZM15.837 13.7389V11.6172C15.8023 11.3215 15.5588 11.1128 15.2631 11.1476C15.0023 11.165 14.7936 11.3911 14.7762 11.652V14.052C15.124 13.8955 15.4718 13.7911 15.837 13.7389ZM13.3153 14.0172V11.6346C13.3153 11.3389 13.0718 11.1128 12.7762 11.1128C12.5153 11.1128 12.3066 11.3042 12.2544 11.5476V13.7563C12.6197 13.7911 12.9849 13.8781 13.3153 14.0172ZM18.5153 14.3476C18.0979 14.5911 17.5936 14.6085 17.1588 14.4172C16.4979 14.1389 15.7501 14.1389 15.0718 14.4172C14.7414 14.5563 14.3936 14.6085 14.0457 14.6085C13.6979 14.6085 13.3501 14.5563 13.0197 14.4172C12.3414 14.1563 11.611 14.1563 10.9327 14.4172C10.4979 14.6085 9.99356 14.5911 9.57617 14.3476L9.81965 13.9476C10.1153 14.1041 10.4631 14.1215 10.7588 13.9824V10.0172H12.2544V10.3998C12.3066 10.3476 12.3588 10.2955 12.411 10.2607C13.0718 9.72154 14.0457 9.8085 14.5849 10.4694C14.8631 10.1389 15.2805 9.93024 15.7153 9.91285C16.5849 9.87806 17.3153 10.5389 17.3675 11.4085V13.9998C17.6805 14.1389 18.0283 14.1215 18.3066 13.965L18.5153 14.3476Z" fill="white"/>
</svg>
