<svg width="28" height="28" viewBox="0 0 28 28" fill="none" xmlns="http://www.w3.org/2000/svg">
<g clip-path="url(#clip0_4083_4630)">
<mask id="mask0_4083_4630" style="mask-type:luminance" maskUnits="userSpaceOnUse" x="-1" y="0" width="29" height="28">
<path d="M27.9961 0H-0.00390625V28H27.9961V0Z" fill="white"/>
</mask>
<g mask="url(#mask0_4083_4630)">
<path fill-rule="evenodd" clip-rule="evenodd" d="M-0.00390625 0H27.9961V28H-0.00390625V0ZM6.4562 6.4258L8.51802 2.15332H10.763V8.61356H9.18805V3.99174L7.17784 7.89765H5.74033L3.7301 3.99174V8.61356H2.14941V2.15332H4.40018L6.4562 6.4258ZM18.6492 3.44193V2.15332H25.854V3.44193H23.0419V8.61356H21.4669V3.44193H18.6492ZM24.2784 23.6931C24.2383 23.9509 24.1352 24.1628 23.9691 24.3231C23.8144 24.472 23.6025 24.5809 23.3391 24.6439C23.0814 24.7011 22.6977 24.7355 22.2968 24.7355C21.8787 24.7355 21.5121 24.6839 21.1971 24.5751C20.8936 24.472 20.653 24.2888 20.487 24.0368C20.3151 23.7848 20.2292 23.4183 20.2292 22.9429V22.2843C20.2292 21.8146 20.3151 21.4481 20.487 21.1904C20.6588 20.9384 20.8936 20.7552 21.1971 20.6521C21.5064 20.5433 21.8787 20.4917 22.2968 20.4917C22.6977 20.4917 23.0814 20.5261 23.3391 20.5833C23.6025 20.6463 23.8144 20.7494 23.9691 20.904C24.1352 21.0644 24.2383 21.2763 24.2784 21.534H25.8533C25.8075 21.0014 25.63 20.549 25.315 20.1824C25.0286 19.8503 24.6277 19.6097 24.1294 19.4608C23.6483 19.3176 23.0126 19.2432 22.2968 19.2432C21.5408 19.2432 20.8879 19.352 20.3495 19.5639C19.8055 19.7815 19.3817 20.1423 19.0896 20.6406C18.8089 21.1159 18.6658 21.7574 18.6543 22.5363V22.6107L18.7402 22.6165L18.6543 22.6222V22.6279V22.6966C18.6658 23.4756 18.8089 24.1169 19.0896 24.5923C19.3817 25.0906 19.8055 25.4514 20.3495 25.669C20.8879 25.8809 21.5408 25.9898 22.2968 25.9898C23.0126 25.9898 23.6483 25.9153 24.1294 25.7721C24.6277 25.6232 25.0229 25.3827 25.315 25.0505C25.63 24.6897 25.8132 24.2315 25.8533 23.6989H24.2784V23.6931Z" fill="white"/>
</g>
</g>
<defs>
<clipPath id="clip0_4083_4630">
<rect width="28" height="28" fill="white" transform="translate(-0.00390625)"/>
</clipPath>
</defs>
</svg>
