<svg width="90" height="33" viewBox="0 0 90 33" fill="none" xmlns="http://www.w3.org/2000/svg">
<path fill-rule="evenodd" clip-rule="evenodd" d="M50.197 16.1797V32.3595H50.5001H50.8032V16.1797V0H50.5001H50.197V16.1797ZM33.7441 16.2232V27.7491H34.2636H34.7832V16.2232V4.69735H34.2636H33.7441V16.2232ZM16.9447 16.2232V23.1388H17.6808H18.4168V16.2232V9.3077H17.6808H16.9447V16.2232ZM58.4842 11.8853C58.4509 11.9189 58.4235 12.664 58.4235 13.5411V15.1359H58.64C58.854 15.1359 58.8565 15.1272 58.8565 14.3965V13.6571H59.5493H60.242V14.3965C60.242 15.0779 60.2556 15.1359 60.4152 15.1359C60.5823 15.1359 60.5884 15.0779 60.5884 13.4831C60.5884 11.8884 60.5823 11.8304 60.4152 11.8304C60.2556 11.8304 60.242 11.8884 60.242 12.5697V13.3091H59.5493H58.8565L58.8473 12.7655C58.8422 12.4665 58.8325 12.1442 58.8257 12.0494C58.8131 11.8758 58.5971 11.772 58.4842 11.8853ZM61.6877 12.7611C61.6017 12.7835 61.5466 12.8475 61.5651 12.9033C61.5874 12.9702 61.7782 12.9947 62.1258 12.9754C62.6121 12.9482 62.6641 12.9633 62.7992 13.1704C63.0183 13.5064 62.9166 13.6274 62.3557 13.6978C61.9746 13.7457 61.8004 13.818 61.6128 14.0064C60.9776 14.6446 61.7285 15.3911 62.7816 15.1683L63.1429 15.0919L63.1673 14.0785C63.1914 13.0717 63.1901 13.0638 62.9608 12.8826C62.7363 12.7053 62.126 12.647 61.6877 12.7611ZM64.1388 13.9117V15.1359H64.9614H65.7841V15.4838C65.7841 15.724 65.8216 15.8318 65.9052 15.8318C66.0685 15.8318 66.1325 15.072 65.98 14.9448C65.9026 14.8803 65.8707 14.5369 65.8707 13.7705C65.8707 12.7859 65.8569 12.6901 65.7191 12.7167C65.5863 12.7422 65.5646 12.8771 65.5433 13.8104L65.5189 14.8749H65.0047H64.4905L64.4662 13.8104C64.4449 12.8771 64.4232 12.7422 64.2903 12.7167C64.1518 12.69 64.1388 12.7926 64.1388 13.9117ZM66.9098 13.9117C66.9098 15.1243 66.9116 15.1359 67.1046 15.1323C67.2584 15.1295 67.4319 14.9142 67.9273 14.1117L68.5551 13.0946V14.1153C68.5551 15.0779 68.565 15.1359 68.7283 15.1359C68.8933 15.1359 68.9015 15.0779 68.9015 13.9181C68.9015 12.7107 68.8998 12.7002 68.7053 12.7002C68.5108 12.7002 68.3711 12.8826 67.5552 14.2006C67.4146 14.4278 67.2721 14.6137 67.2386 14.6138C67.2052 14.6139 67.1815 14.1932 67.1861 13.6788C67.1932 12.8766 67.1743 12.7397 67.0521 12.7156C66.9255 12.6906 66.9098 12.8225 66.9098 13.9117ZM69.9777 13.0053C69.6074 13.3997 69.5121 13.9377 69.7169 14.4764C69.8884 14.9277 70.0621 15.0962 70.4383 15.1765C71.1179 15.3216 71.6725 14.7849 71.6725 13.9821C71.6725 13.1714 71.2875 12.7002 70.625 12.7002C70.3247 12.7002 70.2162 12.7514 69.9777 13.0053ZM72.3653 13.9181C72.3653 15.0779 72.3735 15.1359 72.5385 15.1359C72.6939 15.1359 72.7116 15.0779 72.7116 14.5705V14.0051H73.2745H73.8374V14.5705C73.8374 15.0779 73.8551 15.1359 74.0106 15.1359C74.1755 15.1359 74.1838 15.0779 74.1838 13.9181C74.1838 12.7583 74.1755 12.7002 74.0106 12.7002C73.855 12.7002 73.8374 12.7583 73.8374 13.2698V13.8393L73.2962 13.8135L72.7549 13.7876L72.7291 13.2439C72.7068 12.7715 72.6813 12.7002 72.5343 12.7002C72.3747 12.7002 72.3653 12.7682 72.3653 13.9181ZM75.2012 12.7602C75.1179 12.7821 75.0497 12.8521 75.0497 12.9158C75.0497 13.0047 75.1706 13.0207 75.5677 12.9845C76.1631 12.9302 76.3486 13.0282 76.3486 13.3967C76.3486 13.6228 76.3204 13.6406 75.8715 13.6969C74.9729 13.8098 74.572 14.4703 75.1 14.9685C75.2866 15.1447 75.4114 15.1794 75.8577 15.1794C76.7134 15.1794 76.695 15.2033 76.695 14.0908C76.695 13.1838 76.6825 13.1147 76.4824 12.9138C76.3067 12.7372 76.1906 12.702 75.8113 12.7103C75.5591 12.7159 75.2845 12.7383 75.2012 12.7602ZM77.95 13.1134C77.8265 14.0481 77.7004 14.4578 77.4549 14.7219C77.1767 15.021 77.1842 15.2919 77.4664 15.1402C77.875 14.9205 78.1268 14.3691 78.2427 13.4396L78.297 13.0047H78.6434H78.9898L79.0898 13.8746C79.1449 14.353 79.1935 14.8325 79.198 14.9402C79.2037 15.0752 79.26 15.1359 79.3794 15.1359C79.4747 15.1359 79.5518 15.1066 79.5509 15.0707C79.55 15.0347 79.4919 14.4965 79.4219 13.8746C79.3519 13.2526 79.2941 12.7339 79.2937 12.722C79.2932 12.7101 79.003 12.7002 78.6487 12.7002H78.0046L77.95 13.1134ZM80.3869 13.8528C80.3982 14.9695 80.4049 15.0089 80.6034 15.1178C80.914 15.2882 81.5931 15.2018 81.8502 14.9592C82.1731 14.6546 82.1468 14.1776 81.7907 13.8766C81.567 13.6875 81.4452 13.6501 81.1195 13.6705L80.7216 13.6955L80.6957 13.1978C80.6748 12.7977 80.6409 12.7002 80.5225 12.7002C80.3908 12.7001 80.3765 12.8213 80.3869 13.8528ZM82.7513 12.8525C82.7483 12.9361 82.7386 13.4842 82.7296 14.0703C82.7134 15.1322 82.714 15.1358 82.9147 15.1359C83.0962 15.1359 83.1146 15.0994 83.1015 14.7662C83.07 13.968 83.0447 14.0051 83.6226 14.0051H84.1421V14.5705C84.1421 15.0779 84.1599 15.1359 84.3153 15.1359C84.4803 15.1359 84.4885 15.0779 84.4885 13.9117C84.4885 12.7927 84.4755 12.69 84.337 12.7165C84.2154 12.7397 84.1803 12.8528 84.1596 13.2883L84.1339 13.8311H83.6243C83.1915 13.8311 83.1065 13.805 83.06 13.6579C83.0298 13.5626 83.0311 13.4427 83.0627 13.3913C83.1591 13.2345 83.0199 12.7002 82.8826 12.7002C82.8133 12.7002 82.7542 12.7688 82.7513 12.8525ZM85.5878 12.7611C85.5018 12.7835 85.4467 12.8475 85.4652 12.9033C85.4875 12.9702 85.6783 12.9947 86.0259 12.9754C86.5122 12.9482 86.5642 12.9633 86.6993 13.1704C86.9184 13.5064 86.8167 13.6274 86.2558 13.6978C85.3927 13.8061 85.0187 14.4003 85.4768 14.9353C85.665 15.1549 85.7407 15.1794 86.2345 15.1794C87.1094 15.1794 87.0864 15.2097 87.0864 14.0576C87.0864 13.0844 87.081 13.0565 86.8582 12.8806C86.6364 12.7053 86.0235 12.6477 85.5878 12.7611ZM88.1188 12.9545C87.7937 13.2811 87.7988 13.5244 88.1369 13.8419C88.3835 14.0732 88.3962 14.11 88.2769 14.2464C88.2047 14.329 88.0624 14.5629 87.9606 14.7662L87.7756 15.1359H87.9765C88.1292 15.1359 88.2048 15.0593 88.2923 14.8164C88.4522 14.3721 88.7545 14.092 89.0741 14.092H89.3378V14.614C89.3378 15.0779 89.357 15.1359 89.511 15.1359C89.6754 15.1359 89.6842 15.0779 89.6842 14.0029V12.8699L89.4621 12.785C89.3399 12.7384 89.0446 12.7002 88.806 12.7002C88.4417 12.7002 88.3312 12.7411 88.1188 12.9545ZM8.19866 16.2232V19.6593H8.97585H9.75304L9.77685 18.2457L9.80066 16.8322H10.7532H11.7057L11.7296 18.2457L11.7534 19.6593H12.5306H13.3077V16.2232V12.7872H12.5306H11.7535L11.7296 14.1573L11.7057 15.5273H10.7532H9.80066L9.77685 14.1573L9.75295 12.7872H8.97585H8.19866V16.2232ZM23.0533 13.0699C22.9242 13.8388 22.3136 19.0687 22.3136 19.4059V19.6593H23.0011H23.6884L23.7398 19.2896C23.8364 18.5943 24.1309 15.4409 24.1315 15.0967C24.1323 14.6114 24.2451 14.7976 24.4713 15.6578C24.5781 16.0645 24.8032 16.867 24.9713 17.4411C25.1394 18.0152 25.3544 18.7492 25.449 19.0721L25.6211 19.6593H26.0834H26.5457L26.7507 18.9851C26.8634 18.6144 27.1873 17.497 27.4706 16.5021L27.9855 14.6934L28.2173 17.0241C28.3449 18.306 28.452 19.4234 28.4555 19.507C28.461 19.6398 28.5575 19.6593 29.2075 19.6593H29.9532L29.904 19.3766C29.862 19.1344 29.6373 17.291 29.2122 13.7006L29.1093 12.8307H28.2077H27.3062L26.8776 14.3095C26.6418 15.1228 26.3692 16.1181 26.2718 16.5211L26.0947 17.2539L25.8202 16.2166C25.6693 15.6462 25.3932 14.6415 25.207 13.9842L24.8681 12.789L23.9844 12.7881L23.1008 12.7872L23.0533 13.0699ZM38.9398 16.2232V19.6593H39.7191H40.4985V16.8757V14.092H41.5342H42.5701L42.6655 13.7223C42.718 13.5191 42.7943 13.2255 42.835 13.0699L42.9092 12.7872H40.9244H38.9398V16.2232ZM89.0672 12.9286C89.33 12.9814 89.3378 12.9964 89.3378 13.4505V13.9181H89.0404C88.8768 13.9181 88.6463 13.8812 88.5282 13.836C88.1429 13.6889 88.1226 13.1602 88.4954 12.9796C88.7361 12.8629 88.7388 12.8626 89.0672 12.9286ZM71.0642 13.133C71.438 13.5085 71.4128 14.4297 71.0194 14.7697C70.4162 15.2909 69.7639 14.4655 70.021 13.5063C70.1597 12.989 70.7208 12.7881 71.0642 13.133ZM62.9265 14.3914C62.9265 14.7983 62.9027 14.861 62.7316 14.9071C62.0008 15.1038 61.4588 14.6502 61.8245 14.1478C61.9265 14.0075 62.7087 13.817 62.8615 13.8951C62.8973 13.9134 62.9265 14.1367 62.9265 14.3914ZM76.3486 14.3437C76.3486 14.7309 76.3151 14.8693 76.2116 14.9091C75.9553 15.0079 75.5401 14.9624 75.3813 14.818C75.194 14.6476 75.1727 14.2422 75.3435 14.0998C75.4408 14.0187 75.8627 13.9024 76.2837 13.8406C76.3194 13.8353 76.3486 14.0618 76.3486 14.3437ZM86.8091 14.3769L86.835 14.8654L86.5146 14.9258C85.9352 15.035 85.5363 14.7639 85.6437 14.334C85.6984 14.1148 85.9578 13.9616 86.3936 13.8911C86.7518 13.8331 86.7822 13.8687 86.8091 14.3769ZM81.5855 14.0362C81.8033 14.1962 81.8002 14.686 81.5804 14.8476C81.485 14.9178 81.2672 14.9588 81.068 14.944C80.7255 14.9187 80.7214 14.9142 80.6945 14.5388C80.6797 14.3299 80.6881 14.1049 80.7135 14.0386C80.7735 13.8814 81.3724 13.8797 81.5855 14.0362ZM58.7699 16.3897C58.7699 16.4094 58.6725 17.137 58.5534 18.0065C58.4344 18.876 58.3369 19.6036 58.3369 19.6233C58.3369 19.6431 58.4114 19.6593 58.5025 19.6593C58.6847 19.6593 58.7017 19.5908 58.8586 18.224C58.9079 17.7934 58.9725 17.3061 59.0019 17.1411L59.0554 16.8411L59.2041 17.3151C59.2859 17.5757 59.4812 18.2098 59.638 18.7241C60.0362 20.0302 60.0965 20.0022 60.6241 18.2661C60.8569 17.4998 61.0616 16.8871 61.079 16.9045C61.1021 16.9277 61.4536 19.4879 61.4543 19.6375C61.4543 19.6494 61.5331 19.6593 61.6292 19.6593C61.7651 19.6593 61.7948 19.6158 61.7622 19.4635C61.7392 19.3559 61.6353 18.6101 61.5313 17.8062L61.3422 16.3447L61.1202 16.3709C60.9449 16.3917 60.8761 16.4706 60.7935 16.7452C60.7359 16.9365 60.565 17.5041 60.4139 18.0065C60.2627 18.5089 60.1088 18.9521 60.0716 18.9915C60.0345 19.0309 59.9779 18.9526 59.9459 18.8175C59.9137 18.6824 59.7323 18.0728 59.5426 17.4628C59.2229 16.435 59.1819 16.3537 58.9838 16.3537C58.8661 16.3537 58.7699 16.3699 58.7699 16.3897ZM74.0106 18.0065C74.0106 19.6012 74.0166 19.6593 74.1838 19.6593C74.3502 19.6593 74.3569 19.6012 74.3569 18.1805V16.7017H75.0064C75.5981 16.7017 75.6559 16.6862 75.6559 16.5277C75.6559 16.3659 75.5981 16.3537 74.8332 16.3537H74.0106V18.0065ZM62.6977 17.3777C62.0973 17.8642 62.0848 19.111 62.6765 19.4979C63.1075 19.7797 64.0642 19.7663 64.1196 19.4775C64.1405 19.3685 64.0498 19.3523 63.5847 19.382C63.0745 19.4147 63.0048 19.398 62.8024 19.1946C62.5694 18.9606 62.5031 18.62 62.6883 18.6089C62.7479 18.6053 63.1083 18.5563 63.4893 18.4999L64.1821 18.3974L64.209 18.0701C64.2311 17.8028 64.1887 17.6953 63.9775 17.4832C63.7612 17.2659 63.651 17.224 63.3012 17.2255C63.0369 17.2267 62.8149 17.2828 62.6977 17.3777ZM65.3065 17.5498C65.1328 18.6302 65.0186 18.9609 64.698 19.3113C64.5294 19.4956 64.5064 19.5924 64.547 19.9454C64.6034 20.4338 64.775 20.4553 64.8151 19.9788L64.842 19.6593H65.7893H66.7366V20.0072C66.7366 20.2585 66.7727 20.3552 66.8665 20.3552C66.9639 20.3552 66.9964 20.2508 66.9964 19.9376C66.9964 19.708 66.9589 19.4824 66.913 19.4363C66.8672 19.3903 66.7874 18.9616 66.7356 18.4838C66.5871 17.1131 66.655 17.2236 65.9595 17.2236H65.359L65.3065 17.5498ZM67.6651 18.3326C67.6757 18.9427 67.6854 19.4908 67.6867 19.5505C67.688 19.6104 67.7621 19.6593 67.8513 19.6593C67.9638 19.6593 68.2089 19.3497 68.6523 18.6476L69.2912 17.6359L69.3156 18.6476C69.3353 19.468 69.364 19.6593 69.4671 19.6593C69.5729 19.6593 69.5942 19.4542 69.5942 18.4414C69.5942 17.2844 69.5857 17.2236 69.4223 17.2236C69.2999 17.2236 69.1063 17.4518 68.7512 18.0142C67.9083 19.3492 67.9552 19.3382 67.9518 18.2022C67.9493 17.3293 67.9326 17.2236 67.7974 17.2235C67.66 17.2235 67.6477 17.3269 67.6651 18.3326ZM70.5204 17.2845C70.4344 17.3069 70.3792 17.3709 70.3978 17.4266C70.4198 17.4932 70.6083 17.5182 70.9458 17.4994C71.373 17.4757 71.4867 17.5004 71.6172 17.6452C71.8907 17.9488 71.7712 18.1265 71.2421 18.2031C70.9827 18.2406 70.6794 18.3311 70.5682 18.4044C70.0316 18.7575 70.174 19.4882 70.8129 19.661C71.1671 19.7568 71.8057 19.7068 71.9756 19.5698C72.0238 19.531 72.0607 19.094 72.0589 18.5828C72.0559 17.7381 72.0392 17.648 71.849 17.4446C71.6725 17.2559 71.5717 17.2251 71.1595 17.2337C70.8939 17.2393 70.6064 17.2621 70.5204 17.2845ZM75.894 17.2835C75.7562 17.3197 75.7425 17.477 75.7425 19.0132C75.7425 20.6451 75.7484 20.7031 75.9156 20.7031C76.0696 20.7031 76.0888 20.6451 76.0888 20.1812V19.6593H76.5559C76.9488 19.6593 77.0646 19.6203 77.2845 19.414C77.8216 18.91 77.8213 17.8941 77.2839 17.4399C77.0726 17.2613 76.9425 17.2253 76.5368 17.2337C76.2666 17.2393 75.9773 17.2617 75.894 17.2835ZM78.0805 17.3449C78.0805 17.575 78.4474 18.6603 78.7043 19.1901L78.962 19.7214L78.7377 20.1659C78.4705 20.6957 78.4695 20.7031 78.6732 20.7031C78.956 20.7031 80.0722 18.0933 80.0722 17.4319C80.0722 17.2905 80.0229 17.2236 79.9188 17.2236C79.7987 17.2236 79.7423 17.3457 79.6593 17.7848C79.5371 18.4321 79.2274 19.3113 79.1216 19.3113C79.037 19.3113 78.5532 18.0033 78.4669 17.5413C78.4235 17.3089 78.3637 17.2236 78.2441 17.2236C78.1541 17.2236 78.0805 17.2782 78.0805 17.3449ZM80.6784 18.4414C80.6784 19.6012 80.6866 19.6593 80.8515 19.6593C81.0155 19.6593 81.0247 19.6012 81.0247 18.5719V17.4846H81.5876H82.1505V18.5719C82.1505 19.6012 82.1597 19.6593 82.3237 19.6593C82.4886 19.6593 82.4968 19.6012 82.4968 18.4414V17.2236H81.5876H80.6784V18.4414ZM83.2762 18.4414C83.2762 19.6012 83.2844 19.6593 83.4494 19.6593C83.6133 19.6593 83.6226 19.6012 83.6226 18.5719V17.4846H84.1854H84.7483V18.5719C84.7483 19.6012 84.7576 19.6593 84.9215 19.6593C85.0864 19.6593 85.0947 19.6012 85.0947 18.4414V17.2236H84.1854H83.2762V18.4414ZM85.9342 17.2845C85.8482 17.3069 85.7931 17.3709 85.8116 17.4266C85.8337 17.4932 86.0222 17.5182 86.3597 17.4994C86.7868 17.4757 86.9005 17.5004 87.031 17.6452C87.3054 17.9498 87.1852 18.1267 86.6524 18.2023C86.391 18.2394 86.0797 18.3417 85.9606 18.4298C85.2273 18.9715 85.8045 19.8249 86.816 19.6942C87.4567 19.6115 87.4327 19.6548 87.4327 18.579C87.4327 17.7184 87.412 17.5821 87.2562 17.414C87.1116 17.258 86.9902 17.2254 86.5851 17.2337C86.3131 17.2393 86.0202 17.2621 85.9342 17.2845ZM63.7235 17.6368C63.7956 17.7205 63.8754 17.8749 63.9007 17.9799C63.9512 18.1889 63.905 18.2068 63.0347 18.3145C62.5944 18.369 62.5801 18.3641 62.5801 18.1569C62.5801 18.0392 62.6609 17.8398 62.7596 17.7138C62.9781 17.4347 63.5127 17.392 63.7235 17.6368ZM66.3309 17.8108C66.3581 17.9902 66.4071 18.4207 66.4398 18.7676L66.4992 19.3983H65.7461H64.993L65.1786 19.1364C65.2807 18.9923 65.4286 18.5617 65.5073 18.1795L65.6504 17.4846H65.9659C66.2641 17.4846 66.2843 17.5026 66.3309 17.8108ZM77.0361 17.6368C77.4247 17.9531 77.4215 18.9323 77.0308 19.2503C76.8994 19.3573 76.7267 19.3986 76.4854 19.3808L76.1321 19.3548L76.107 18.5349C76.0933 18.084 76.1017 17.6632 76.126 17.5998C76.1908 17.4302 76.8133 17.4555 77.0361 17.6368ZM71.7414 18.8946L71.7672 19.3774L71.4652 19.4343C70.9166 19.5377 70.5468 19.3325 70.5468 18.9247C70.5468 18.718 70.8566 18.4913 71.2193 18.4326C71.6975 18.3554 71.7136 18.3698 71.7414 18.8946ZM87.1554 18.8966L87.1811 19.3816L86.8351 19.4403C86.1922 19.5495 85.7493 19.1118 86.0652 18.6795C86.1663 18.5411 86.8287 18.3471 87.0431 18.3931C87.0907 18.4033 87.1413 18.6299 87.1554 18.8966Z" fill="white"/>
<path d="M0.0585251 18.4413V16.1797V13.918H2.30999H4.56145V16.1797V18.4413H2.30999H0.0585251Z" fill="white"/>
</svg>
