<svg width="189" height="28" viewBox="0 0 189 28" fill="none" xmlns="http://www.w3.org/2000/svg">
<g clip-path="url(#clip0_4083_4357)">
<path fill-rule="evenodd" clip-rule="evenodd" d="M32.5992 0.303711C32.5992 0.303711 32.6005 23.1894 32.5992 23.1894L32.5883 23.2763C32.5817 23.2919 32.5787 23.3079 32.5752 23.3268C32.5631 23.3914 32.5446 23.4897 32.3557 23.7215C31.3577 24.8819 27.0919 28.8939 20.562 27.7825C18.3897 27.4119 16.7159 26.7375 15.1157 26.0927C12.7821 25.1524 10.6049 24.2752 7.26594 24.4953C3.33064 24.7537 0.466797 27.3985 0.466797 27.3985V0.303711H32.5992ZM12.9863 10.6514C12.9863 13.3922 15.0719 15.5589 17.8803 15.5589C19.7204 15.5589 20.8112 14.9043 21.7931 13.8554L20.4568 12.505C19.7062 13.1867 19.0381 13.6222 17.9473 13.6222C16.3128 13.6222 15.1814 12.2595 15.1814 10.6237V10.596C15.1814 8.96016 16.3405 7.6252 17.9473 7.6252C18.9022 7.6252 19.6521 8.03303 20.3885 8.70244L21.7248 7.16067C20.8376 6.28895 19.7603 5.68848 17.9609 5.68848C15.0313 5.68848 12.9863 7.91062 12.9863 10.6237V10.6514ZM9.85885 15.3957L5.23804 9.3291V15.3957H3.16602V5.85254H5.10274L9.57343 11.7278V5.85254H11.6461V15.3957H9.85885ZM3.51404 22.4733C4.59257 21.9069 5.54869 21.6189 7.81657 21.4882C11.1403 21.2951 13.2004 21.9671 15.4633 22.7052C16.9317 23.1841 18.4854 23.6909 20.5251 24.0073C24.6008 24.6387 26.899 23.729 28.6328 22.6195C29.3553 22.157 29.3598 22.1531 29.5619 21.9777C29.6171 21.9298 29.6871 21.869 29.7906 21.7826C30.2184 21.4263 30.3215 21.1776 30.2603 20.9296C30.2416 20.8555 30.161 20.8555 30.0058 20.9585C29.884 21.0378 29.6482 21.1937 29.6482 21.1937C25.5699 24.0389 20.2216 22.3663 15.5519 20.9019C11.2068 19.5392 5.87019 20.1358 3.45541 21.8554C3.45541 21.8554 3.1687 22.0403 2.96446 22.3515C2.89746 22.4533 2.74283 22.8714 2.93418 22.7832M3.51404 22.4733C3.42707 22.5127 3.34054 22.5625 3.24948 22.6149L3.51404 22.4733ZM23.1816 15.3947V5.85156H25.282V13.4863H30.0401V15.3947H23.1816Z" fill="white"/>
<path d="M48.2853 14.678L41.309 5.51952V14.6774H38.1816V0.272461H41.1022L47.8537 9.14234V0.272461H50.9817V14.678H48.2853Z" fill="white"/>
<path d="M63.4961 14.9251C59.0505 14.9251 55.8613 11.6109 55.8613 7.51585V7.47462C55.8613 3.3789 59.0918 0.0253906 63.538 0.0253906C67.9823 0.0253906 71.1728 3.34024 71.1728 7.43467V7.47462C71.1721 11.5697 67.9417 14.9251 63.4961 14.9251ZM67.8592 7.47462C67.8592 5.00443 66.0481 2.94722 63.4968 2.94722C60.9454 2.94722 59.1755 4.96577 59.1755 7.43467V7.47462C59.1755 9.94481 60.9853 12.002 63.538 12.002C66.0887 12.002 67.8592 9.98475 67.8592 7.51585V7.47462Z" fill="white"/>
<path d="M84.3998 14.678L81.3131 10.0688H78.8229V14.678H75.6543V0.272461H82.2395C85.6356 0.272461 87.6734 2.06293 87.6734 5.02793V5.06788C87.6734 7.3931 86.419 8.85434 84.5854 9.53406L88.1051 14.678H84.3998ZM84.4617 5.19029C84.4617 3.83278 83.5152 3.13309 81.9728 3.13309H78.8229V7.27069H82.0327C83.5764 7.27069 84.4617 6.44794 84.4617 5.23346V5.19029Z" fill="white"/>
<path d="M108.114 14.7823H105.357L102.105 5.35642L98.8525 14.7823H96.0956L91.1777 0.272368H94.5731L97.5568 10.0275L100.787 0.232422H103.504L106.736 10.0275L109.72 0.272368H113.033L108.114 14.7823Z" fill="white"/>
<path d="M116.83 14.678V0.272461H127.697V3.09121H119.979V6.01304H126.77V8.83308H119.979V11.8593H127.8V14.678H116.83Z" fill="white"/>
<path d="M139.001 14.9251C134.516 14.9251 131.428 11.7772 131.428 7.51585V7.47462C131.428 3.3789 134.618 0.0253906 138.981 0.0253906C141.573 0.0253906 143.138 0.725084 144.64 2.00077L142.643 4.40911C141.531 3.48263 140.544 2.94658 138.876 2.94658C136.571 2.94658 134.74 4.98381 134.74 7.43403V7.47397C134.74 10.1091 136.552 12.042 139.104 12.042C140.255 12.042 141.285 11.7552 142.087 11.1786V9.12012H138.898V6.38513H145.154V12.6405C143.672 13.8949 141.635 14.9251 139.001 14.9251Z" fill="white"/>
<path d="M150.1 14.678V0.272461H153.268V14.678H150.1Z" fill="white"/>
<path d="M169.123 14.6773L167.501 11.4475H161.715L160.398 14.6773H157.166L163.34 0.169922H166.261L172.436 14.6773H169.123ZM164.761 3.97636L162.847 8.64743H166.674L164.761 3.97636Z" fill="white"/>
<path d="M186.306 14.678L179.329 5.51952V14.6774H176.201V0.272461H179.123L185.873 9.14298V0.272461H189.001V14.678H186.306Z" fill="white"/>
<path d="M41.7718 27.1491C39.6514 27.1491 38.0762 25.5132 38.0762 23.4457V23.4245C38.0762 21.3756 39.6212 19.6973 41.8336 19.6973C43.1924 19.6973 44.0055 20.1515 44.6749 20.8099L43.666 21.9729C43.1113 21.4697 42.5449 21.1598 41.824 21.1598C40.6095 21.1598 39.7352 22.1687 39.7352 23.4045V23.4245C39.7352 24.6589 40.5895 25.6898 41.824 25.6898C42.648 25.6898 43.1518 25.3599 43.7175 24.8451L44.7265 25.8631C43.9856 26.6568 43.1628 27.1491 41.7718 27.1491Z" fill="white"/>
<path d="M51.3968 27.0276L49.8531 24.7224H48.6071V27.0276H47.0215V19.8232H50.3157C52.0147 19.8232 53.034 20.7169 53.034 22.1994V22.2193C53.034 23.3836 52.4058 24.1142 51.489 24.4544L53.2504 27.0276H51.3968ZM51.4271 22.2818C51.4271 21.6008 50.9555 21.2523 50.1824 21.2523H48.6071V23.3224H50.2126C50.9851 23.3224 51.4271 22.9094 51.4271 22.3018V22.2818Z" fill="white"/>
<path d="M58.4966 27.1401C56.5599 27.1401 55.377 26.0589 55.377 23.9386V19.8223H56.9613V23.8967C56.9613 25.0706 57.5488 25.6775 58.5166 25.6775C59.4843 25.6775 60.0706 25.0912 60.0706 23.9483V19.8223H61.6562V23.8871C61.6568 26.068 60.4307 27.1401 58.4966 27.1401Z" fill="white"/>
<path d="M64.373 27.0276V19.8232H65.9586V27.0276H64.373Z" fill="white"/>
<path d="M71.3488 27.1287C70.258 27.1287 69.1569 26.7485 68.291 25.976L69.2284 24.8537C69.8766 25.3897 70.5563 25.7293 71.3791 25.7293C72.0285 25.7293 72.4196 25.4728 72.4196 25.0508V25.0296C72.4196 24.6282 72.1728 24.422 70.9687 24.1134C69.5164 23.7423 68.579 23.3409 68.579 21.9112V21.8887C68.579 20.5827 69.6298 19.7168 71.102 19.7168C72.1516 19.7168 73.0478 20.0467 73.7784 20.6343L72.9544 21.8288C72.3165 21.3855 71.6883 21.1175 71.0821 21.1175C70.4732 21.1175 70.1549 21.3958 70.1549 21.7457V21.7669C70.1549 22.2398 70.4642 22.3951 71.7089 22.7134C73.1715 23.0948 73.9955 23.6192 73.9955 24.8762V24.8949C73.9949 26.3272 72.9028 27.1287 71.3488 27.1287Z" fill="white"/>
<path d="M76.4004 27.0276V19.8232H81.8356V21.2317H77.975V22.6942H81.3723V24.1045H77.975V25.6186H81.8871V27.0283L76.4004 27.0276Z" fill="white"/>
<path d="M88.4395 27.0276V19.8232H90.025V25.5851H93.6176V27.027L88.4395 27.0276Z" fill="white"/>
<path d="M95.9121 27.0276V19.8232H97.4977V27.0276H95.9121Z" fill="white"/>
<path d="M105.38 27.0276L101.891 22.4474V27.0276H100.326V19.8232H101.789L105.165 24.2591V19.8232H106.729V27.0276H105.38Z" fill="white"/>
<path d="M109.486 27.0276V19.8232H114.923V21.2317H111.062V22.6942H114.46V24.1045H111.062V25.6186H114.974V27.0283L109.486 27.0276Z" fill="white"/>
<path d="M120.01 23.4829C119.592 23.9004 119.087 24.111 118.494 24.111C117.903 24.111 117.398 23.901 116.982 23.4829C116.568 23.0654 116.361 22.5577 116.361 21.963C116.361 21.3773 116.571 20.8735 116.988 20.4554C117.402 20.0379 117.906 19.8311 118.494 19.8311C119.087 19.8311 119.591 20.0372 120.01 20.4554C120.426 20.8716 120.636 21.3735 120.636 21.963C120.636 22.5577 120.426 23.0615 120.01 23.4829ZM117.195 20.6654C116.838 21.023 116.66 21.4572 116.66 21.9675C116.66 22.4784 116.837 22.9165 117.192 23.2773C117.549 23.6388 117.984 23.8198 118.495 23.8198C119.004 23.8198 119.453 23.5911 119.797 23.2773C120.173 22.9346 120.333 22.4784 120.333 21.9675C120.333 21.4572 120.154 21.0223 119.797 20.6654C119.436 20.3033 119.003 20.1216 118.495 20.1216C117.987 20.1216 117.553 20.3027 117.195 20.6654ZM118.454 20.7833C118.745 20.7833 118.958 20.8123 119.094 20.8684C119.337 20.9708 119.457 21.1686 119.457 21.463C119.457 21.6731 119.381 21.8264 119.23 21.9263C119.147 21.9785 119.035 22.0184 118.888 22.0403C119.075 22.0687 119.207 22.1479 119.292 22.2723C119.379 22.396 119.418 22.5164 119.418 22.6343V22.8064C119.418 22.8598 119.422 22.9191 119.424 22.981C119.429 23.0441 119.436 23.0841 119.446 23.1027L119.462 23.133H119.074C119.071 23.1253 119.068 23.1169 119.067 23.1092C119.064 23.1014 119.063 23.0931 119.062 23.0821L119.053 23.0074V22.8205C119.053 22.5499 118.978 22.3715 118.83 22.2832C118.743 22.2342 118.587 22.2078 118.37 22.2078H118.044V23.133H117.628V20.784H118.454V20.7833ZM118.899 21.1538C118.795 21.0951 118.628 21.0649 118.399 21.0649H118.046V21.9166H118.42C118.594 21.9166 118.726 21.8979 118.816 21.8644C118.975 21.8006 119.058 21.6763 119.058 21.4965C119.058 21.3277 119.003 21.2111 118.899 21.1538Z" fill="white"/>
</g>
<defs>
<clipPath id="clip0_4083_4357">
<rect width="188.533" height="28" fill="white" transform="translate(0.466797)"/>
</clipPath>
</defs>
</svg>
