<svg width="179" height="28" viewBox="0 0 179 28" fill="none" xmlns="http://www.w3.org/2000/svg">
<path d="M151.245 0H150.606V27.8713H151.245V0Z" fill="white"/>
<path d="M161.978 17.1243H159.806V10.6875H163.575V11.3312H160.572V13.3909H161.978C163.255 13.3909 164.086 13.9059 164.086 15.1932V15.2576C164.022 16.4806 163.255 17.1243 161.978 17.1243ZM161.914 16.545C162.872 16.545 163.255 16.0944 163.255 15.322V15.2576C163.255 14.4852 162.808 14.0346 161.85 14.0346H160.508V16.545H161.914Z" fill="white"/>
<path d="M164.789 15.8371C164.789 14.7429 165.939 14.3566 167.153 14.3566H167.855V14.0348C167.855 13.2624 167.6 12.9406 166.833 12.9406C166.195 12.9406 165.811 13.198 165.747 13.7773H164.981C165.108 12.6831 165.939 12.2969 166.833 12.2969C167.728 12.2969 168.558 12.6831 168.558 13.9704V17.1245H167.792V16.5452C167.472 16.9957 167.025 17.2532 166.322 17.2532C165.428 17.2532 164.789 16.8026 164.789 15.8371ZM167.792 15.5153V14.936H167.153C166.195 14.936 165.556 15.1934 165.556 15.8371C165.556 16.352 165.811 16.6095 166.45 16.6095C167.153 16.6095 167.792 16.2233 167.792 15.5153Z" fill="white"/>
<path d="M172.838 15.0649H170.538V17.1246H169.771V12.4258H170.538V14.4212H172.838V12.4258H173.604V17.1246H172.838V15.0649Z" fill="white"/>
<path d="M175.585 14.743V17.1246H174.818V12.4258H175.585V14.6143L177.501 12.4258H178.396L176.415 14.6143L178.587 17.1246H177.693L175.585 14.743Z" fill="white"/>
<path d="M13.9603 0.0625C6.29433 0.0625 0.0976562 6.30618 0.0976562 14.0303C0.0976562 21.7545 6.29433 27.9981 13.9603 27.9981C21.6263 27.9981 27.823 21.7545 27.823 14.0303C27.823 6.30618 21.6263 0.0625 13.9603 0.0625ZM12.0438 19.9522L11.0217 22.9775C7.18869 21.6901 4.63337 18.0211 4.63337 13.9016C4.63337 9.78204 7.1887 6.17744 11.0856 4.82572L12.1077 7.85101C9.55237 8.68779 7.89141 11.1338 7.89141 13.8372C7.76364 16.6694 9.48849 19.1154 12.0438 19.9522ZM16.7712 23.0418L15.8129 19.9522C18.4321 19.1154 20.157 16.6694 20.157 13.9016C20.157 11.1338 18.4321 8.75216 15.8768 7.91538L16.8989 4.82572C20.7958 6.11308 23.415 9.78204 23.415 13.9016C23.415 18.1499 20.7319 21.8188 16.7712 23.0418Z" fill="white"/>
<path d="M140.896 16.5388L142.429 18.4055C140.832 20.0791 138.852 20.5296 137.255 20.5296C135.721 20.5296 134.635 20.2722 133.677 19.8216C131.633 18.7917 130.611 16.7319 130.611 14.2216C130.611 10.4239 133.166 7.59171 136.935 7.59171C141.152 7.59171 143.196 10.7457 142.876 14.8653H133.294C133.358 15.8952 133.933 16.8607 134.763 17.3756C135.466 17.8262 136.296 18.0193 137.382 18.0193C138.596 18.0193 139.81 17.6331 140.896 16.5388ZM133.358 12.6124H140.129C139.938 11.1319 138.724 9.84459 136.807 9.84459C134.827 9.84459 133.613 11.2607 133.358 12.6124ZM69.0274 20.1434H72.4771L67.047 13.771L72.4132 7.78481H69.0274L64.9389 12.548H63.7251V7.78481H61.1059V20.0791H63.7251V15.1871H64.9389L69.0274 20.1434ZM80.2708 10.0377C78.0349 10.0377 76.5656 11.7756 76.5656 13.9641C76.5656 16.1526 78.0349 17.8906 80.2708 17.8906C82.5067 17.8906 83.9122 16.217 83.9122 13.9641C83.9761 11.84 82.5706 10.0377 80.2708 10.0377ZM80.718 7.52734C84.1677 7.52734 86.723 10.2308 86.723 13.9641C86.723 17.6331 84.2316 20.4653 80.718 20.4653C79.057 20.4653 77.7155 19.886 76.7573 18.8561V25.2929H74.0742V7.84918H76.6934V9.32964C77.7155 8.10666 79.057 7.52734 80.718 7.52734ZM115.534 7.84918H104.61V10.2952H108.763V20.1434H111.446V10.2952H115.598V7.84918H115.534ZM59.2532 7.84918H48.2653V10.2952H52.4177V20.1434H55.1008V10.2952H59.2532V7.84918ZM45.0712 14.0285C45.0712 11.7113 43.4741 10.0377 41.2382 10.0377C39.0661 10.0377 37.4052 11.7113 37.4052 14.0285C37.4052 16.3457 39.0023 18.0193 41.2382 18.0193C43.4102 18.0193 45.0712 16.3457 45.0712 14.0285ZM34.6582 14.0285C34.6582 10.3595 37.4691 7.59171 41.2382 7.59171C44.9434 7.59171 47.8181 10.3595 47.8181 14.0285C47.8181 17.6975 45.0073 20.5296 41.2382 20.5296C37.533 20.4653 34.6582 17.6975 34.6582 14.0285ZM128.503 7.84918V20.1434H125.883V12.2262L119.495 20.1434H117.387V7.84918H120.006V15.7664L126.395 7.84918H128.503ZM102.758 20.1434H100.139V7.84918H102.758V20.1434ZM95.9861 15.9595C95.9861 14.8653 95.2195 14.0929 94.1974 14.0929H91.5143V17.8906H94.1974C95.2195 17.8906 95.9861 17.0538 95.9861 15.9595ZM98.6053 15.9595C98.6053 18.4055 96.8166 20.1434 94.2613 20.1434H88.8951V7.84918H91.5143V11.84H94.5168C97.0721 11.84 98.6053 13.5136 98.6053 15.9595Z" fill="white"/>
</svg>
