<svg width="74" height="16" viewBox="0 0 74 16" fill="none" xmlns="http://www.w3.org/2000/svg">
<g clip-path="url(#clip0_4083_4641)">
<path fill-rule="evenodd" clip-rule="evenodd" d="M8.78316 0.044014C7.13989 -0.129083 5.48334 0.21103 4.0412 1.0176C2.59907 1.82418 1.44215 3.05762 0.72946 4.54839C0.0167739 6.03916 -0.216692 7.71407 0.0611526 9.34291C0.338997 10.9718 1.11451 12.4746 2.2811 13.6448C3.4477 14.815 4.94809 15.5951 6.57607 15.878C8.20404 16.1609 9.87966 15.9326 11.3726 15.2245C12.8656 14.5165 14.1026 13.3634 14.9136 11.9237C15.7247 10.4841 16.0699 8.8286 15.9019 7.18479C15.717 5.3576 14.9082 3.64992 13.6116 2.3493C12.3149 1.04867 10.6098 0.234552 8.78316 0.044014ZM8.52399 12.2306C7.64019 12.3492 6.74145 12.1878 5.95409 11.7692C5.16673 11.3506 4.53032 10.6958 4.13432 9.89688C3.73831 9.09792 3.60262 8.19495 3.7463 7.31488C3.88998 6.43482 4.30582 5.6219 4.93538 4.99037C5.56493 4.35884 6.37655 3.94046 7.25616 3.79402C8.13577 3.64759 9.03916 3.78046 9.83936 4.17396C10.6396 4.56746 11.2963 5.20182 11.7174 5.98787C12.1385 6.77392 12.3026 7.67215 12.1868 8.55631C12.0653 9.48631 11.6406 10.3503 10.9784 11.0145C10.3163 11.6788 9.4536 12.1062 8.52399 12.2306ZM20.1797 0.360426C19.9023 0.36109 19.6286 0.423588 19.3784 0.543373C19.1281 0.663159 18.9078 0.837217 18.7333 1.05288C18.5589 1.26855 18.4347 1.5204 18.3698 1.79011C18.3049 2.05981 18.301 2.34059 18.3583 2.61201C18.5338 3.49131 19.3551 4.09212 20.2498 4.09212H25.442L17.3618 14.7852C17.302 14.8641 17.2654 14.9581 17.2561 15.0567C17.2468 15.1553 17.2651 15.2545 17.309 15.3432C17.3529 15.432 17.4207 15.5067 17.5047 15.5591C17.5887 15.6115 17.6856 15.6395 17.7847 15.6399H30.4592C31.3533 15.6399 32.1753 15.0392 32.3508 14.1597C32.4081 13.8884 32.4042 13.6076 32.3393 13.338C32.2745 13.0683 32.1504 12.8164 31.976 12.6008C31.8016 12.3851 31.5814 12.211 31.3312 12.0911C31.0811 11.9713 30.8074 11.9087 30.5301 11.9079H24.2038L32.2778 1.22312C32.3382 1.14341 32.3751 1.04846 32.3845 0.948933C32.3939 0.849401 32.3754 0.749221 32.331 0.659633C32.2866 0.570045 32.2182 0.494593 32.1333 0.441742C32.0484 0.388891 31.9505 0.360733 31.8505 0.360426H20.1797ZM70.8266 0.40347C70.4069 0.50325 70.0339 0.743249 69.7692 1.08378C69.5045 1.42432 69.3639 1.845 69.3708 2.27626V8.48941L59.3031 0.477777C59.2242 0.415107 59.1291 0.375997 59.0289 0.364947C58.9288 0.353897 58.8275 0.371356 58.7368 0.415315C58.6461 0.459274 58.5696 0.527947 58.5162 0.613435C58.4628 0.698922 58.4346 0.797751 58.4348 0.898552V13.7273C58.428 14.1586 58.5686 14.5793 58.8333 14.9198C59.098 15.2604 59.471 15.5004 59.8906 15.6001C60.1631 15.6601 60.4456 15.6581 60.7172 15.5943C60.9888 15.5306 61.2427 15.4066 61.46 15.2317C61.6773 15.0567 61.8526 14.8352 61.9729 14.5835C62.0932 14.3317 62.1555 14.0562 62.1551 13.7772V7.51027L72.2228 15.5221C72.3018 15.5847 72.3968 15.6238 72.4969 15.6348C72.5971 15.6458 72.6983 15.6284 72.789 15.5844C72.8797 15.5405 72.9561 15.4719 73.0095 15.3864C73.0629 15.301 73.0911 15.2022 73.0908 15.1014V2.22582C73.0911 1.94688 73.0288 1.67144 72.9085 1.41979C72.7881 1.16814 72.6129 0.946709 72.3956 0.771819C72.1783 0.59693 71.9245 0.473042 71.6529 0.409291C71.3814 0.34554 71.099 0.34355 70.8266 0.40347ZM44.6132 3.73493C48.8715 3.73493 52.0533 5.9853 52.0533 7.99825C52.0533 10.0112 48.8715 12.2616 44.6132 12.2616C40.3548 12.2616 37.1731 10.0112 37.1731 7.99825C37.1731 5.9853 40.3548 3.73493 44.6132 3.73493ZM44.6132 0.0033865C38.4494 0.0033865 33.4528 3.58284 33.4528 7.99825C33.4528 12.4137 38.4494 15.9931 44.6132 15.9931C50.7769 15.9931 55.7734 12.4137 55.7734 7.99825C55.7734 3.58284 50.7768 0.0033865 44.6132 0.0033865Z" fill="white"/>
</g>
<defs>
<clipPath id="clip0_4083_4641">
<rect width="73.0947" height="16" fill="white" transform="translate(-0.00390625)"/>
</clipPath>
</defs>
</svg>
