<svg width="51" height="29" viewBox="0 0 51 29" fill="none" xmlns="http://www.w3.org/2000/svg">
<path fill-rule="evenodd" clip-rule="evenodd" d="M0.375 14.1797V28.0548H25.6875H51V14.1797V0.304688H25.6875H0.375V14.1797ZM49.86 14.1797V26.9144H25.6875H1.51501V14.1797V1.4451H25.6875H49.86V14.1797ZM4.17504 7.48023V10.7277L5.47339 10.7642C7.57042 10.8232 8.45972 10.8083 9.05176 10.7042C10.2785 10.4885 11.1186 10.1109 11.7885 9.47422C12.6059 8.69739 12.93 7.451 12.5979 6.36152C12.3234 5.46097 11.5284 4.75493 10.3477 4.36317L9.95474 4.23279H7.06489H4.17504V7.48023ZM14.8849 4.412C15.6721 5.26761 15.9988 6.49174 15.8121 7.88634C15.6238 9.29247 15.1012 10.5277 14.284 11.4977C13.7234 12.1631 13.0619 12.607 12.1841 12.907C12.142 12.9214 12.118 12.9501 12.1308 12.9708C12.1436 12.9915 12.6227 13.6902 13.1954 14.5234C13.7681 15.3565 14.8152 16.8982 15.5223 17.9495L16.8079 19.8607H17.5636H18.3193L18.3301 13.9868L18.3408 8.1129L21.2963 12.8249C22.9219 15.4166 24.2614 17.537 24.273 17.5369C24.2847 17.5369 25.6242 15.3802 27.2497 12.7443C28.8753 10.1084 30.2196 7.95126 30.237 7.95071C30.2544 7.95016 30.2687 10.6297 30.2687 13.9052V19.8607H34.3274H38.3861L37.8382 19.5903C34.6566 18.0205 32.6067 15.31 32.2975 12.264C32.0969 10.2874 32.687 8.30361 33.9922 6.56633C34.5336 5.8458 35.4696 4.94179 36.2326 4.40246C36.3429 4.32448 36.4332 4.25441 36.4332 4.24673C36.4332 4.23908 34.4809 4.23321 32.0948 4.23367L27.7564 4.23456L25.9877 7.06359C25.015 8.61959 24.2075 9.89263 24.1932 9.89263C24.179 9.89263 23.4065 8.62394 22.4764 7.07327L20.7854 4.25391L17.7524 4.24305L14.7194 4.23224L14.8849 4.412ZM41.9221 5.2067C39.0882 5.55208 36.7066 7.03487 35.6129 9.13489C34.1829 11.8808 35.1181 14.9755 37.9537 16.8804C38.7267 17.3997 39.8839 17.8838 40.873 18.1017C41.6523 18.2734 42.0983 18.318 43.0199 18.3164C43.8183 18.315 44.1017 18.2914 44.8249 18.166L45.0888 18.1203V15.5904V13.0605H44.0544H43.0199V11.8778V10.6951H45.1522H47.2844V8.43269V6.17027L46.9361 6.01002C46.2077 5.67491 45.4188 5.42938 44.6033 5.28404C44.0303 5.18191 42.4901 5.13747 41.9221 5.2067ZM4.17504 16.5028V19.8607H8.5662C10.9813 19.8607 12.9574 19.8507 12.9574 19.8384C12.9574 19.7375 10.0652 15.6167 8.7709 13.8735L8.22994 13.1449H6.20249H4.17504V16.5028ZM9.39461 21.3066C9.18434 21.3623 8.93755 21.6094 8.8713 21.8307C8.83727 21.9443 8.81987 22.3131 8.82047 22.9067C8.82127 23.6915 8.83157 23.8323 8.89892 23.9806C9.04222 24.2963 9.33723 24.4641 9.74844 24.4641C10.3344 24.4641 10.6773 24.1065 10.6773 23.4956V23.3242H10.3818H10.0862V23.5508C10.0862 23.8555 9.97754 24 9.74844 24C9.62291 24 9.56565 23.9746 9.49818 23.8887C9.41568 23.7838 9.41066 23.7243 9.41066 22.852V21.9265L9.51431 21.8229C9.74869 21.5884 10.0862 21.7629 10.0862 22.1185V22.3105H10.3818H10.6773L10.6771 22.1521C10.6761 21.4847 10.1163 21.1156 9.39461 21.3066ZM11.6423 21.3209C11.4066 21.3934 11.2098 21.6006 11.1342 21.8559C11.0989 21.9747 11.0804 22.3303 11.0796 22.9018C11.0785 23.7649 11.0788 23.7684 11.1962 24.0076C11.3488 24.3183 11.6105 24.4656 12.0051 24.4628C12.6015 24.4584 12.8884 24.1939 12.9441 23.597L12.9696 23.3242H12.6679H12.3662V23.5508C12.3662 23.8562 12.2577 24 12.027 24C11.7038 24 11.6481 23.8248 11.6507 22.8173C11.6524 22.1364 11.6916 21.897 11.818 21.7946C12.057 21.601 12.3662 21.7837 12.3662 22.1185V22.3105H12.6618H12.9574L12.9571 22.1521C12.9561 21.4702 12.3669 21.0977 11.6423 21.3209ZM4.17504 22.8385V24.3801H4.44835H4.7217L4.73335 23.7571L4.74505 23.1341L5.14616 23.113C5.58676 23.0898 5.66348 23.0604 5.85584 22.8412C6.16267 22.4916 6.14861 21.8673 5.82671 21.5452C5.6199 21.3384 5.44261 21.2973 4.7556 21.297L4.17504 21.2968V22.8385ZM6.3284 21.3117C6.3284 21.3219 6.51912 21.8779 6.75219 22.5474L7.17602 23.7644L7.09639 23.8716C7.04673 23.9385 6.96664 23.9839 6.88367 23.9921C6.75464 24.0049 6.75063 24.0115 6.75063 24.2089C6.75063 24.3844 6.76376 24.416 6.84563 24.438C7.14435 24.5181 7.40677 24.4266 7.55189 24.1917C7.60226 24.1101 7.84964 23.4254 8.10158 22.6701L8.55966 21.2968H8.24805H7.93645L7.85323 21.5819C7.8075 21.7387 7.69857 22.1128 7.61121 22.4132C7.52385 22.7136 7.44658 22.9417 7.43945 22.92C7.43235 22.8984 7.32443 22.5291 7.19958 22.0993L6.97263 21.3179L6.65052 21.3056C6.47335 21.2988 6.3284 21.3016 6.3284 21.3117ZM13.3796 22.8365V24.3801H13.6751H13.9707V23.9138C13.9707 23.5004 13.9812 23.4333 14.0631 23.3225C14.1139 23.2537 14.1684 23.1975 14.1841 23.1975C14.1999 23.1975 14.3224 23.4636 14.4563 23.7888L14.6997 24.3801H15.0108C15.1819 24.3801 15.3218 24.3695 15.3218 24.3564C15.3218 24.3434 15.1508 23.9613 14.9418 23.5073C14.7328 23.0534 14.5618 22.6673 14.5618 22.6494C14.5618 22.6315 14.7324 22.3246 14.941 21.9674L15.3201 21.3179L15.0402 21.3053C14.8862 21.2983 14.7367 21.3017 14.7079 21.3127C14.6791 21.3238 14.5062 21.6187 14.3237 21.9682L13.9918 22.6036L13.9707 21.9608L13.9496 21.3179L13.6646 21.3054L13.3796 21.2929V22.8365ZM15.8776 22.8134C15.6648 23.6475 15.4907 24.3413 15.4907 24.355C15.4907 24.3689 15.6289 24.3801 15.7978 24.3801H16.1049L16.1906 23.9894L16.2762 23.5987L16.6153 23.5866L16.9544 23.5745L17.0075 23.8822C17.1018 24.429 17.0612 24.3801 17.4209 24.3801C17.6565 24.3801 17.7326 24.3666 17.7181 24.3273C17.7073 24.2983 17.5502 23.6046 17.3689 22.7857L17.0393 21.2968H16.6518H16.2644L15.8776 22.8134ZM18.5219 21.3385C18.173 21.4438 17.9819 21.7503 17.9819 22.2049C17.9819 22.5474 18.0848 22.7984 18.2979 22.9758L18.4373 23.0919L18.2481 23.5143C18.144 23.7466 18.0137 24.0372 17.9586 24.1601L17.8583 24.3836L18.1763 24.3713L18.4943 24.359L18.7344 23.7888C18.8664 23.4752 18.9897 23.1949 19.0084 23.1658C19.0271 23.1368 19.0983 23.113 19.1666 23.113H19.2908V23.7466V24.3801H19.5863H19.8819V22.8385V21.2968L19.2591 21.3004C18.9165 21.3024 18.5848 21.3196 18.5219 21.3385ZM21.3597 22.8385V24.3801H21.6335H21.9074L21.9185 23.0487L21.9297 21.7173L22.205 23.0382L22.4803 24.359L22.7011 24.3718C22.8225 24.3788 22.9219 24.3678 22.9219 24.3474C22.9219 24.2712 23.4707 21.7052 23.4914 21.6845C23.5033 21.6726 23.513 22.2743 23.513 23.0215V24.3801H23.7664H24.0197V22.8385V21.2968L23.5658 21.2968H23.1119L22.9258 22.2155C22.704 23.31 22.6924 23.3503 22.6544 23.1523C22.6391 23.0726 22.5476 22.6225 22.451 22.1521L22.2754 21.2968H21.8176H21.3597V22.8385ZM24.4842 22.8385V24.3801H25.3075H26.1308V24.1478V23.9155H25.6031H25.0753V23.4298V22.9441H25.5608H26.0464V22.7329V22.5217H25.5608H25.0753V22.1415V21.7614H25.6031H26.1308V21.5291V21.2968H25.3075H24.4842V22.8385ZM26.8895 22.0043C26.888 22.8208 26.8448 23.2297 26.7175 23.6304C26.6392 23.8769 26.6134 23.9155 26.5267 23.9155H26.4264V24.4646V25.0137H26.7008H26.9753V24.6958V24.3779L27.6192 24.3896L28.2631 24.4013L28.2755 24.7075L28.2879 25.0137H28.5618H28.8356L28.8238 24.4752C28.8123 23.953 28.8091 23.9362 28.717 23.9231L28.622 23.9097V22.6032V21.2968H27.7564H26.8908L26.8895 22.0043ZM29.1709 22.8402V24.3837L29.4932 24.3713L29.8154 24.359L30.2108 23.3242C30.4282 22.755 30.6109 22.275 30.6168 22.2574C30.6227 22.2399 30.6211 22.7103 30.6133 23.3028L30.599 24.3801H30.8561H31.1131V22.8366V21.2931L30.8088 21.3055L30.5044 21.3179L30.1121 22.3527C29.8964 22.9219 29.7138 23.4055 29.7065 23.4275C29.6992 23.4495 29.7016 22.9791 29.7119 22.3821L29.7306 21.2968H29.4508H29.1709V22.8402ZM32.1527 21.3692C32.0853 21.5941 31.4087 24.2884 31.4087 24.3321C31.4087 24.3693 31.4937 24.3803 31.7106 24.3714L32.0126 24.359L32.1021 23.9789L32.1916 23.5987H32.5279H32.8643L32.9168 23.8944C33.0108 24.4239 32.9754 24.3801 33.3095 24.3801C33.5629 24.3801 33.604 24.3697 33.6021 24.3062C33.6009 24.2656 33.4531 23.5766 33.2737 22.7751L32.9476 21.3179L32.5615 21.3058C32.2212 21.2951 32.1727 21.3027 32.1527 21.3692ZM33.8998 22.8385V24.3801H34.1743H34.4487V23.0708V21.7614H34.9765H35.5043V21.5291V21.2968H34.702H33.8998V22.8385ZM35.7998 22.8385V24.3801H36.0943H36.3887L36.4004 23.7571L36.4121 23.1341L36.8165 23.113C37.1806 23.094 37.2369 23.0797 37.3809 22.9697C37.707 22.7209 37.8173 22.1574 37.6197 21.7492C37.4394 21.3765 37.2254 21.2968 36.4058 21.2968H35.7998V22.8385ZM37.9954 21.336C37.9954 21.3575 38.1759 21.8972 38.3965 22.5351C38.6171 23.1731 38.7976 23.7214 38.7976 23.7537C38.7976 23.8846 38.6679 24 38.5208 24H38.3754V24.2093C38.3754 24.4156 38.3775 24.419 38.5256 24.4467C38.8514 24.5079 39.1031 24.3911 39.2487 24.1111C39.3117 23.9899 40.191 21.3958 40.191 21.331C40.191 21.3122 40.0528 21.2968 39.8838 21.2968H39.5767L39.3476 22.0993C39.2217 22.5407 39.1082 22.9018 39.0954 22.9017C39.0826 22.9016 38.9699 22.5405 38.8449 22.0992L38.6177 21.2968H38.3066C38.1354 21.2968 37.9954 21.3144 37.9954 21.336ZM40.4866 22.8377V24.3801H40.761H41.0354V23.0708V21.7614H41.4366H41.8377V23.0708V24.3801H42.1337H42.4299L42.4187 22.849L42.4077 21.3179L41.4471 21.3065L40.4866 21.2952V22.8377ZM42.851 22.8385V24.3801H43.1466H43.4421V23.0708V21.7614H43.8221H44.2021V23.0708V24.3801H44.4977H44.7933V22.8385V21.2968H43.8221H42.851V22.8385ZM45.4543 22.7434C45.2521 23.5391 45.0754 24.2329 45.0617 24.2851C45.0375 24.3774 45.0458 24.3801 45.3528 24.3801H45.669L45.7169 24.1373C45.7433 24.0037 45.7847 23.8231 45.8088 23.736L45.8528 23.5776H46.1836H46.5144L46.5866 23.9789L46.6589 24.3801H46.9745C47.2556 24.3801 47.2876 24.3721 47.2672 24.3062C47.2405 24.2197 46.6088 21.3552 46.6088 21.3204C46.6088 21.3074 46.4318 21.2968 46.2154 21.2968H45.8219L45.4543 22.7434ZM16.8815 23.1024C16.8833 23.1391 16.8067 23.1552 16.6307 23.1552C16.4476 23.1552 16.3774 23.1396 16.3774 23.0989C16.3774 23.0576 16.5947 21.8934 16.635 21.7192C16.6407 21.6945 16.8775 23.024 16.8815 23.1024ZM46.3302 22.4253C46.3906 22.8021 46.4399 23.1205 46.4399 23.1328C46.4399 23.1451 46.326 23.1552 46.1866 23.1552C46.0121 23.1552 45.9333 23.1388 45.9332 23.1024C45.9332 23.0259 46.197 21.7154 46.2098 21.7289C46.2157 21.7352 46.2699 22.0485 46.3302 22.4253ZM5.36053 21.8849C5.45591 21.9803 5.48394 22.0468 5.48394 22.1778C5.48394 22.5417 5.30809 22.7058 4.94341 22.6823L4.74505 22.6695L4.73306 22.2155L4.72107 21.7614H4.97909C5.20798 21.7614 5.25104 21.7753 5.36053 21.8849ZM19.2908 22.2311V22.7008L19.0311 22.682C18.6917 22.6574 18.573 22.5378 18.573 22.2204C18.573 22.0423 18.5928 21.9886 18.6964 21.8849C18.8033 21.7779 18.8513 21.7614 19.0553 21.7614H19.2908V22.2311ZM28.0632 22.849L28.0745 23.9155H27.6299H27.1853L27.2479 23.7656C27.3759 23.4592 27.4397 22.9958 27.4397 22.3738V21.7577L27.7459 21.7701L28.052 21.7825L28.0632 22.849ZM32.6788 22.4616C32.7388 22.8199 32.7784 23.1226 32.7668 23.1342C32.7552 23.1457 32.6327 23.1552 32.4945 23.1552C32.2761 23.1552 32.2458 23.1456 32.2624 23.0813C32.2729 23.0407 32.3359 22.7277 32.4024 22.3858C32.4689 22.0439 32.5338 21.7745 32.5466 21.7871C32.5593 21.7998 32.6189 22.1032 32.6788 22.4616ZM36.9398 21.8158C37.098 21.8956 37.1814 22.1691 37.115 22.3907C37.0514 22.6032 36.9024 22.6906 36.6042 22.6906H36.391V22.226V21.7614L36.6126 21.762C36.7346 21.7624 36.8818 21.7866 36.9398 21.8158Z" fill="white"/>
</svg>
