<svg width="95" height="28" viewBox="0 0 95 28" fill="none" xmlns="http://www.w3.org/2000/svg">
<path d="M33.4251 2.93457H33.1484V25.054H33.4251V2.93457Z" fill="white"/>
<path d="M38.2641 12.7344H37.7207V8.48633H38.9754C39.9435 8.48633 40.5461 8.89136 40.5461 9.81013C40.5461 10.6894 39.9435 11.1735 38.926 11.1735H38.2739V12.7344H38.2641ZM38.2641 10.6597H38.9161C39.5879 10.6597 39.9534 10.3831 39.9534 9.82001C39.9534 9.23714 39.5879 8.99016 38.9161 8.99016H38.2641V10.6597Z" fill="white"/>
<path d="M41.7471 10.6101C41.7471 9.24674 42.5275 8.42676 43.6537 8.42676C44.9183 8.42676 45.5999 9.32577 45.5999 10.6101C45.5999 12.0524 44.7899 12.7934 43.6735 12.7934C42.488 12.7934 41.7471 11.9536 41.7471 10.6101ZM45.0072 10.6101C45.0072 9.44432 44.4836 8.9306 43.6439 8.9306C42.893 8.9306 42.3201 9.47396 42.3201 10.6101C42.3201 11.7264 42.8832 12.2895 43.713 12.2895C44.5231 12.2796 45.0072 11.7066 45.0072 10.6101Z" fill="white"/>
<path d="M49.9822 12.6156C49.755 12.7243 49.4191 12.7935 49.0536 12.7935C47.7298 12.7935 46.9395 11.9636 46.9395 10.6596C46.9395 9.21721 47.7495 8.41699 49.024 8.41699C49.508 8.41699 49.7945 8.50591 49.9921 8.58495L49.8933 9.06901C49.6266 8.97022 49.35 8.93072 49.0832 8.93072C48.0756 8.93072 47.5322 9.51359 47.5322 10.6102C47.5322 11.6672 48.1447 12.2896 49.1425 12.2896C49.4092 12.2896 49.6957 12.2402 49.9032 12.1414L49.9822 12.6156Z" fill="white"/>
<path d="M51.8108 10.284H53.589C53.5495 9.36528 52.9568 8.94048 52.1171 8.94048C51.8701 8.94048 51.5144 8.97012 51.2082 9.08867L51.1094 8.64411C51.3168 8.53544 51.7614 8.42676 52.1961 8.42676C53.4112 8.42676 54.1818 9.07879 54.1818 10.5607C54.1818 11.9536 53.4705 12.8032 52.038 12.8032C51.5935 12.8032 51.3168 12.7242 51.1193 12.655L51.218 12.171C51.4749 12.2599 51.8108 12.2895 52.038 12.2895C52.9667 12.2895 53.5693 11.8054 53.589 10.7879H51.8009V10.284H51.8108Z" fill="white"/>
<path d="M58.9434 12.7344H58.4V10.7783H56.2562V12.7344H55.7129V8.48633H56.2562V10.2843H58.4V8.48633H58.9434V12.7344Z" fill="white"/>
<path d="M63.0087 12.7344H60.6377V8.48633H63.0087V9.00004H61.181V10.2843H62.8506V10.7783H61.181V12.2206H63.0087V12.7344Z" fill="white"/>
<path d="M65.0951 12.7344H64.5518V8.48633H65.8064C66.7746 8.48633 67.3772 8.89136 67.3772 9.81013C67.3772 10.6894 66.7746 11.1735 65.757 11.1735H65.105V12.7344H65.0951ZM65.0951 10.6597H65.7471C66.4189 10.6597 66.7845 10.3831 66.7845 9.82001C66.7845 9.23714 66.4189 8.99016 65.7471 8.99016H65.0951V10.6597Z" fill="white"/>
<path d="M69.3158 12.7344H68.7725V8.48633H71.0249V9.00004H69.3158V12.7344Z" fill="white"/>
<path d="M71.9043 10.6101C71.9043 9.24674 72.6848 8.42676 73.811 8.42676C75.0755 8.42676 75.7572 9.32577 75.7572 10.6101C75.7572 12.0524 74.9471 12.7934 73.8307 12.7934C72.6452 12.7934 71.9043 11.9536 71.9043 10.6101ZM75.1644 10.6101C75.1644 9.44432 74.6408 8.9306 73.8011 8.9306C73.0503 8.9306 72.4773 9.47396 72.4773 10.6101C72.4773 11.7264 73.0404 12.2895 73.8703 12.2895C74.6803 12.2796 75.1644 11.7066 75.1644 10.6101Z" fill="white"/>
<path d="M79.4988 11.5983H77.681L77.2661 12.7344H76.7129L78.3331 8.48633H78.8764L80.467 12.7344H79.894L79.4988 11.5983ZM77.8589 11.1043H79.321L78.6097 9.10871H78.5899L77.8589 11.1043Z" fill="white"/>
<path d="M82.756 12.7344H82.2127V9.00004H80.958V8.48633H84.0205V9.00004H82.7659V12.7344H82.756Z" fill="white"/>
<path d="M84.9941 10.6101C84.9941 9.24674 85.7746 8.42676 86.9008 8.42676C88.1654 8.42676 88.847 9.32577 88.847 10.6101C88.847 12.0524 88.0369 12.7934 86.9206 12.7934C85.7351 12.7934 84.9941 11.9536 84.9941 10.6101ZM88.2543 10.6101C88.2543 9.44432 87.7307 8.9306 86.8909 8.9306C86.1401 8.9306 85.5671 9.47396 85.5671 10.6101C85.5671 11.7264 86.1302 12.2895 86.9601 12.2895C87.7603 12.2796 88.2543 11.7066 88.2543 10.6101Z" fill="white"/>
<path d="M94.497 12.7344H93.9536L93.6968 9.41496L92.62 12.7344H92.047L90.98 9.42485L90.7133 12.7344H90.1699L90.5354 8.48633H91.2072L92.3532 12.1416L93.4794 8.48633H94.1512L94.497 12.7344Z" fill="white"/>
<path d="M38.1554 19.2549H37.7207V15.8564H38.7185C39.4891 15.8564 39.9732 16.1726 39.9732 16.9135C39.9732 17.6149 39.4891 18.0002 38.679 18.0002H38.1554V19.2549ZM38.1554 17.5952H38.679C39.2223 17.5952 39.5088 17.3778 39.5088 16.9234C39.5088 16.4591 39.2125 16.2615 38.679 16.2615H38.1554V17.5952Z" fill="white"/>
<path d="M40.8994 17.5552C40.8994 16.4685 41.5218 15.8066 42.4208 15.8066C43.4285 15.8066 43.9718 16.5278 43.9718 17.5552C43.9718 18.7111 43.3198 19.3039 42.4307 19.3039C41.4922 19.3039 40.8994 18.6321 40.8994 17.5552ZM43.5075 17.5552C43.5075 16.6266 43.0926 16.2117 42.4208 16.2117C41.8281 16.2117 41.3637 16.6464 41.3637 17.5552C41.3637 18.4444 41.8083 18.8988 42.4801 18.8988C43.1123 18.8988 43.5075 18.4345 43.5075 17.5552Z" fill="white"/>
<path d="M47.4343 19.1655C47.2466 19.2545 46.9897 19.3039 46.6934 19.3039C45.6363 19.3039 44.9941 18.642 44.9941 17.5948C44.9941 16.4389 45.6462 15.8066 46.6637 15.8066C47.049 15.8066 47.2762 15.8758 47.4442 15.9351L47.3651 16.3204C47.1478 16.2413 46.9305 16.2117 46.7131 16.2117C45.903 16.2117 45.4683 16.676 45.4683 17.5552C45.4683 18.4049 45.9623 18.8988 46.7526 18.8988C46.97 18.8988 47.1972 18.8593 47.3651 18.7803L47.4343 19.1655Z" fill="white"/>
<path d="M50.4943 18.346H49.0421L48.716 19.2549H48.2715L49.5657 15.8564H50.0003L51.2747 19.2549H50.8203L50.4943 18.346ZM49.1804 17.9508H50.356L49.783 16.3504H49.7632L49.1804 17.9508Z" fill="white"/>
<path d="M53.0537 19.2549H52.619V16.2615H51.6113V15.8564H54.0614V16.2615H53.0537V19.2549Z" fill="white"/>
<path d="M54.79 17.5552C54.79 16.4685 55.4124 15.8066 56.3114 15.8066C57.3191 15.8066 57.8625 16.5278 57.8625 17.5552C57.8625 18.7111 57.2104 19.3039 56.3213 19.3039C55.3828 19.3039 54.79 18.6321 54.79 17.5552ZM57.408 17.5552C57.408 16.6266 56.9931 16.2117 56.3213 16.2117C55.7286 16.2117 55.2642 16.6464 55.2642 17.5552C55.2642 18.4444 55.7088 18.8988 56.3806 18.8988C57.0128 18.8988 57.408 18.4345 57.408 17.5552Z" fill="white"/>
<path d="M62.3592 19.2549H61.9245L61.717 16.5974L60.8576 19.2549H60.4031L59.5436 16.6073L59.3263 19.2549H58.8916L59.188 15.8564H59.7215L60.6402 18.7807L61.5392 15.8564H62.0727L62.3592 19.2549Z" fill="white"/>
<path d="M17.8147 13.9987C17.8147 15.6288 16.4909 16.9427 14.8708 16.9328C13.2506 16.9328 11.9268 15.609 11.9268 13.9888C11.9268 12.3588 13.2506 11.0449 14.8708 11.0547C16.5008 11.0646 17.8147 12.3785 17.8147 13.9987Z" fill="white"/>
<path d="M14.9091 0C12.785 0 10.7697 0.474193 8.97168 1.31392C11.3723 1.06694 13.8619 2.10426 15.6994 3.95166C16.6182 4.86055 17.4282 6.03617 18.1099 7.45877C22.0122 8.16019 24.6598 6.22386 25.707 5.068C23.1384 1.97583 19.2559 0 14.9091 0Z" fill="white"/>
<path d="M6.45907 2.82522C4.53263 4.27746 3.00136 6.21378 2.0332 8.44647C3.19894 8.73296 6.68629 9.86906 8.28671 14.1863C8.77079 14.0282 9.80811 13.4256 10.5293 11.0941C11.4085 8.239 13.0188 5.48272 15.1132 4.2577C12.8015 2.02501 9.31415 1.04697 6.45907 2.82522Z" fill="white"/>
<path d="M27.0426 21.0031C28.0996 19.1655 28.7023 17.1897 28.8702 15.2139C27.8823 17.407 25.7484 19.047 23.2094 19.7089C21.9647 20.0546 20.5322 20.1535 18.9614 20.0448C16.4027 23.0678 16.7584 26.3279 17.2326 27.8098C21.2139 27.1281 24.8691 24.7571 27.0426 21.0031Z" fill="white"/>
<path d="M28.8176 12.2902C28.5213 9.89941 27.6124 7.60744 26.1601 5.65137C25.3303 6.51085 22.6036 8.96089 18.0592 8.19032C17.9506 8.68428 17.9604 9.87965 19.6201 11.6678C21.6552 13.861 23.2458 16.6271 23.2557 19.0475C26.338 18.1781 28.9263 15.6392 28.8176 12.2902Z" fill="white"/>
<path d="M2.75258 21.0027C3.80965 22.8402 5.23225 24.3418 6.86231 25.4779C5.44959 23.5317 5.10382 20.8545 5.78548 18.3353C6.1115 17.0905 6.73388 15.7964 7.62301 14.5022C6.27944 10.7777 3.27618 9.45394 1.75479 9.12793C0.351944 12.9018 0.579166 17.2387 2.75258 21.0027Z" fill="white"/>
<path d="M9.43006 26.8911C11.6529 27.8296 14.093 28.1853 16.5233 27.9086C16.1874 26.7528 15.4267 23.1765 18.3707 19.6299C17.9953 19.294 16.9481 18.7013 14.5672 19.2348C11.643 19.8967 8.45202 19.8868 6.34776 18.6914C5.55743 21.8033 6.45643 25.3104 9.43006 26.8911Z" fill="white"/>
</svg>
