<svg width="97" height="28" viewBox="0 0 97 28" fill="none" xmlns="http://www.w3.org/2000/svg">
<g clip-path="url(#clip0_4083_5137)">
<path fill-rule="evenodd" clip-rule="evenodd" d="M12.2488 0.145485C10.0702 0.513605 7.93738 1.44229 6.13966 2.80548C5.41073 3.35818 4.16936 4.54973 4.24737 4.62183C4.27022 4.643 6.83845 4.96195 9.9545 5.33073C13.0706 5.6996 15.736 6.02389 15.8776 6.05152C16.0618 6.08738 16.1351 6.0636 16.1351 5.9678C16.1351 5.89419 16.2632 5.65718 16.4197 5.44104L16.7044 5.0482L15.2725 2.52698L13.8408 0.00585938L13.4194 0.0124146C13.1876 0.0159731 12.6609 0.0759062 12.2488 0.145485ZM15.4854 0.0571771C15.4886 0.102876 15.9216 1.16969 16.4476 2.42781L17.4039 4.71538L17.8698 4.72419C18.4724 4.73552 19.008 5.00653 19.3666 5.48159L19.6521 5.85964L22.2715 5.23268C23.7122 4.88788 24.9039 4.60179 24.9197 4.59711C25.0095 4.57014 24.5631 4.08496 23.9303 3.52187C21.75 1.58154 18.9292 0.324816 16.1117 0.0382607C15.7567 0.0022072 15.4821 0.010448 15.4854 0.0571771ZM22.5498 6.27486C21.0047 6.47086 19.7299 6.63512 19.717 6.63999C19.7042 6.64476 19.6933 6.74356 19.6931 6.8594C19.6927 6.97524 19.6279 7.1939 19.5489 7.34532C19.4135 7.605 19.4176 7.63235 19.6197 7.83181C19.7376 7.94812 21.7514 9.8554 24.0947 12.0703C27.9941 15.7561 28.3624 16.0799 28.4401 15.8914C28.5997 15.5046 28.5516 12.3939 28.3719 11.4714C28.027 9.70107 27.289 7.81477 26.3934 6.41467C25.9919 5.78706 26.3058 5.79849 22.5498 6.27486ZM2.68115 6.62032C1.18872 8.9534 0.416334 12.2001 0.679852 15.0325C0.736789 15.6439 0.801123 16.162 0.822849 16.1837C0.874916 16.2357 0.756829 16.304 8.97122 11.4759C15.5959 7.58225 16.087 7.27621 16.0691 7.05296C16.0585 6.92111 16.0333 6.79665 16.0131 6.77643C15.9761 6.73934 4.03199 6.08804 3.37478 6.08729C3.04843 6.08682 2.9972 6.12615 2.68115 6.62032ZM8.83076 12.8378C4.07881 15.9675 1.2819 17.8647 1.2642 17.9707C1.23096 18.1697 1.66931 19.3022 2.14756 20.2527C3.18908 22.3227 4.90701 24.2383 6.89286 25.544C7.39789 25.8761 7.82435 26.1326 7.84064 26.1139C7.85684 26.0954 9.87715 22.0388 12.3301 17.0993C16.7991 8.10001 16.909 7.85532 16.4748 7.86955C16.4167 7.87142 12.9769 10.1071 8.83076 12.8378ZM18.6255 8.26951C18.4667 8.38563 18.5321 8.85264 19.8801 17.2361C20.6622 22.1003 21.3162 26.0944 21.3334 26.1118C21.3878 26.167 22.233 25.6386 23.0019 25.0685C24.4804 23.9722 25.8925 22.3456 26.8392 20.6482C27.2622 19.8899 27.9099 18.3588 27.9561 18.0083C27.9744 17.8687 26.7651 16.5083 23.4878 12.9819C21.0164 10.3228 18.9491 8.14702 18.8937 8.14702C18.8383 8.14702 18.7176 8.20218 18.6255 8.26951ZM33.9277 13.9062V19.6654H35.1451H36.3625V17.5678V15.4702L37.5588 15.4373C38.6872 15.4064 38.7901 15.3872 39.3747 15.0993C40.0961 14.744 40.5915 14.2361 40.9385 13.4961C41.1638 13.0154 41.1853 12.8683 41.1853 11.7992C41.1853 10.7065 41.1673 10.5897 40.9151 10.0436C40.6026 9.36713 40.0231 8.78615 39.3903 8.51486C38.7393 8.23589 37.9118 8.15096 35.8241 8.1489L33.9277 8.14702V13.9062ZM45.3379 8.2727C44.3702 8.63201 43.7192 9.21917 43.3018 10.1093L43.0582 10.6286V13.9083V17.1879L43.3654 17.8119C44.0806 19.2644 45.6508 19.985 47.4068 19.6665C48.6098 19.4483 49.4572 18.8035 49.9738 17.713L50.2689 17.0902L50.2997 14.234C50.3319 11.2402 50.2836 10.6974 49.9214 9.98322C49.6345 9.41789 48.9407 8.73727 48.3609 8.45249C47.8919 8.22222 47.716 8.19122 46.7572 8.16968C46.0263 8.1533 45.5702 8.18645 45.3379 8.2727ZM54.9347 8.27794C54.0428 8.56571 53.1929 9.37331 52.8258 10.282C52.6162 10.8007 52.61 10.9011 52.61 13.8126C52.61 17.1479 52.6504 17.4358 53.2413 18.3181C54.0936 19.5908 56.0896 20.0953 57.776 19.4643C58.7089 19.1153 59.7066 17.9469 59.7932 17.1022C59.8205 16.8355 59.8118 16.8307 58.7438 16.5194C58.1515 16.3468 57.6437 16.2045 57.6155 16.2031C57.5872 16.2017 57.5114 16.346 57.4472 16.5237C57.2068 17.1884 56.4782 17.5296 55.7835 17.3026C55.4965 17.209 55.3741 17.0945 55.2057 16.7624C54.9962 16.3494 54.9925 16.2891 55.0184 13.735L55.0448 11.129L55.3946 10.8086C55.6907 10.5374 55.8129 10.4883 56.1906 10.4885C56.7861 10.489 57.2082 10.7547 57.4377 11.2736L57.6172 11.6793L58.7451 11.3432L59.873 11.0071L59.8134 10.7242C59.7118 10.2421 59.2019 9.37706 58.8113 9.0242C58.6062 8.83897 58.2017 8.57639 57.9122 8.4406C57.457 8.22718 57.2468 8.19104 56.3558 8.17278C55.6926 8.15929 55.1865 8.19666 54.9347 8.27794ZM63.9626 8.36878C63.1181 8.72379 62.6426 9.17141 62.2355 9.99484L61.8809 10.7119L61.8505 13.5264C61.8175 16.5819 61.8699 17.1181 62.2841 17.9653C62.9222 19.2706 64.5478 19.9715 66.2295 19.6665C67.624 19.4136 68.617 18.5589 69.0017 17.2805L69.1271 16.8639L68.3134 16.6205C67.8658 16.4867 67.3542 16.3314 67.1764 16.2754C66.9945 16.218 66.8409 16.2102 66.825 16.2573C66.4977 17.2338 65.5202 17.6642 64.7527 17.1696C64.3142 16.8871 64.2689 16.5812 64.2689 13.9062C64.2689 11.1544 64.3121 10.8968 64.8188 10.6348C65.5363 10.2638 66.4368 10.5818 66.702 11.2998L66.8442 11.6849L67.968 11.3414C69.2496 10.9496 69.2337 10.9746 68.7952 10.0445C68.4961 9.41002 67.8704 8.78971 67.1943 8.45774C66.7142 8.22203 66.5419 8.19104 65.5799 8.16772C64.6165 8.1444 64.4461 8.16556 63.9626 8.36878ZM71.3353 8.26408C71.3106 8.32851 71.3015 10.9096 71.3149 13.9999L71.3391 19.6186L74.6869 19.6432L78.0348 19.6678V18.4961V17.3243H75.8809H73.7271V16.1537V14.9831H75.5532H77.3792V13.8594V12.7357H75.5503H73.7213L73.7476 11.5885L73.7739 10.4413L75.9043 10.4161L78.0348 10.391V9.26899V8.14702H74.7075C72.1318 8.14702 71.3699 8.17343 71.3353 8.26408ZM79.3146 8.20948C79.2803 8.24376 79.2522 8.74944 79.2522 9.33323V10.3945H80.4687H81.6852L81.7095 15.0066L81.7338 19.6186L82.9277 19.6448L84.1217 19.671V15.0328V10.3945H85.3391H86.5565V9.27077V8.14702H82.9668C80.9924 8.14702 79.3489 8.17512 79.3146 8.20948ZM88.4724 8.26408C88.4478 8.32851 88.4386 10.9096 88.452 13.9999L88.4762 19.6186L89.6 19.6431L90.7237 19.6677L92.2901 16.5997L93.8565 13.5316L93.8587 16.5985L93.8609 19.6654H95.0782H96.2956V13.9062V8.14702H95.2121H94.1286L92.4989 11.448L90.8693 14.749L90.8667 11.448L90.8642 8.14702H89.6907C88.8382 8.14702 88.5049 8.17905 88.4724 8.26408ZM13.4263 17.3485C11.242 22.3055 9.41164 26.4589 9.35882 26.5785C9.23877 26.8503 9.29374 26.8872 10.2818 27.1987C13.1383 28.0995 16.2106 28.0906 18.9779 27.1736C19.6403 26.9541 19.7438 26.8903 19.7664 26.6878C19.79 26.4764 17.8466 8.51112 17.7956 8.46907C17.7836 8.45924 17.6892 8.42534 17.5859 8.39369C17.4151 8.34134 17.0312 9.16804 13.4263 17.3485ZM36.3625 11.7878V13.2039H37.121C38.3457 13.2039 38.7642 12.907 38.8609 11.9696C38.9725 10.8885 38.5328 10.4808 37.1819 10.4128L36.3625 10.3716V11.7878ZM45.9048 10.7021C45.4113 11.0339 45.3637 11.3031 45.3577 13.7945C45.3519 16.2706 45.4183 16.7372 45.8255 17.0798C46.4262 17.5853 47.4638 17.392 47.7436 16.7224C47.9453 16.2397 47.9442 11.5377 47.7423 11.1473C47.3945 10.4747 46.5481 10.2696 45.9048 10.7021Z" fill="white"/>
</g>
<defs>
<clipPath id="clip0_4083_5137">
<rect width="95.893" height="28" fill="white" transform="translate(0.496094)"/>
</clipPath>
</defs>
</svg>
