<svg width="112" height="28" viewBox="0 0 112 28" fill="none" xmlns="http://www.w3.org/2000/svg">
<g clip-path="url(#clip0_4083_4447)">
<path fill-rule="evenodd" clip-rule="evenodd" d="M111.423 0.0273438V27.9839H0.913086V0.0273438H111.423ZM1.44125 27.3617H27.741V0.555509H1.44125V27.3617ZM28.2764 27.3617H110.894V19.432H28.2764V27.3617ZM28.2764 18.8966H110.894V0.555509H28.2764V18.8966Z" fill="white"/>
<path d="M32.6865 21.4609H33.2147V25.2522H32.6865V21.4609Z" fill="white"/>
<path d="M36.9287 21.4609H37.7173L39.3091 24.4563V21.4609H39.8372V25.2522H39.1354L37.4569 22.1627V25.2522H36.9287V21.4609Z" fill="white"/>
<path d="M44.3375 21.9023H43.1943V21.4609H46.016V21.9023H44.8729V25.2522H44.3375V21.9023Z" fill="white"/>
<path d="M49.374 21.4609H51.4939V21.9023H49.989V23.0454H51.313V23.4868H49.989V24.724H51.4939V25.2522H49.374V21.4609Z" fill="white"/>
<path fill-rule="evenodd" clip-rule="evenodd" d="M55.1084 21.4609H55.9911C56.6929 21.4609 57.4019 21.5478 57.4019 22.4304C57.4019 22.8718 57.0474 23.2263 56.6061 23.3131C56.787 23.4 56.8738 23.4868 56.9606 23.6677L57.6696 25.1653H57.0474L56.5193 23.8413C56.3456 23.4868 56.1647 23.4868 55.9043 23.4868H55.6366V25.1653H55.1084V21.4609ZM55.6366 23.1323H56.0779C56.6061 23.1323 56.8738 22.9586 56.8738 22.5173C56.8738 22.1627 56.6061 21.9891 56.1647 21.9891H55.6366V23.1323Z" fill="white"/>
<path d="M61.2881 21.4609H61.9031L63.5816 24.4563V21.4609H64.1098V25.2522H63.408L61.7294 22.1627V25.2522H61.2881V21.4609Z" fill="white"/>
<path fill-rule="evenodd" clip-rule="evenodd" d="M69.0514 21.4609H69.5868L71.1713 25.2522H70.6431L70.2886 24.2826H68.4364L68.0819 25.2522H67.5537L69.0514 21.4609ZM69.3191 21.9891L68.61 23.8413H70.0209L69.3191 21.9891Z" fill="white"/>
<path d="M74.8838 21.9023H73.7334V21.4609H76.5551V21.9023H75.4119V25.2522H74.8838V21.9023Z" fill="white"/>
<path d="M79.9131 21.4609H80.4412V25.2522H79.9131V21.4609Z" fill="white"/>
<path fill-rule="evenodd" clip-rule="evenodd" d="M85.823 25.2491C84.8462 25.2491 84.0576 24.3809 84.0576 23.3101C84.0576 22.2393 84.8462 21.3711 85.823 21.3711C86.7997 21.3711 87.5884 22.2393 87.5884 23.3101C87.5884 24.3809 86.7997 25.2491 85.823 25.2491ZM86.9734 23.3101C86.9734 22.4781 86.438 21.8124 85.7796 21.8124C85.1212 21.8124 84.593 22.4781 84.593 23.3101C84.593 24.1349 85.1212 24.8078 85.7796 24.8078C86.438 24.8078 86.9734 24.1349 86.9734 23.3101Z" fill="white"/>
<path d="M91.2139 21.4609H91.9157L93.5074 24.4563V21.4609H94.1224V25.2522H93.4206L91.742 22.1627V25.2522H91.2139V21.4609Z" fill="white"/>
<path fill-rule="evenodd" clip-rule="evenodd" d="M98.9772 21.4609H99.5053L101.097 25.2522H100.569L100.214 24.2826H98.3622L98.0077 25.2522H97.4795L98.9772 21.4609ZM99.2376 21.9891L98.5358 23.8413H99.9467L99.2376 21.9891Z" fill="white"/>
<path d="M104.542 21.4609H104.983V24.724H106.568V25.2522H104.542V21.4609Z" fill="white"/>
<path d="M14.5933 3.91406C15.5628 4.88357 16.6264 5.85308 17.5091 6.90941L16.4455 8.32026V8.40709L19.3612 9.73112L21.3003 8.32026L20.1571 6.99623V6.90941C21.3003 6.02672 22.3638 5.23086 23.5938 4.35541L22.9788 10.3461H6.20776L5.59277 4.35541C6.82275 5.14404 7.88631 6.02672 9.02947 6.90941V6.99623L7.88631 8.32026L9.82533 9.73112L12.7411 8.40709V8.32026L11.5907 6.90941L14.5933 3.91406Z" fill="white"/>
<path d="M22.8912 11.4102L22.7104 13.436H16.5315V20.3166H19.621C20.33 20.3166 21.039 19.6076 20.8582 19.0794C20.6845 18.3704 20.0623 17.929 19.5341 17.5817C19.621 17.5817 21.7408 15.99 22.7104 15.375C22.6235 15.8164 22.0086 21.3729 22.0086 21.5466L14.7662 24.3683H14.6794L7.44421 21.5466C7.44421 21.4598 6.73517 15.8164 6.73517 15.375C7.70468 16.0841 9.82457 17.5817 9.91139 17.5817C9.38323 17.929 8.76824 18.3704 8.58736 19.0794C8.41372 19.5208 9.12276 20.3166 9.82457 20.3166H12.914V13.436H6.73517L6.56152 11.497H22.8912V11.4102Z" fill="white"/>
<path fill-rule="evenodd" clip-rule="evenodd" d="M32.6034 7.87804C32.6034 5.93902 32.5165 5.5845 31.1925 5.49768V5.32404L34.2819 5.22998C37.4581 5.14316 37.7186 6.73489 37.7186 7.26305C37.7186 8.31939 37.0168 8.93437 36.1341 9.37572L36.2209 9.46254C37.1904 11.2279 38.4276 13.3478 40.4607 13.876L40.2798 13.9628C38.9558 13.876 37.9863 13.9628 37.1904 13.1669C36.3946 12.2842 35.6928 11.1411 35.4251 10.6129C34.8969 9.55659 34.4556 9.90388 33.5729 9.73024V11.7561C33.5729 13.1669 33.5729 13.4346 35.3382 13.6951V13.9628H30.9248V13.7892C32.4225 13.6083 32.4225 13.1669 32.5165 11.8429L32.6034 7.87804ZM33.6597 9.46977C34.8101 9.46977 36.2209 8.85479 36.2209 7.44393C36.2209 5.93902 34.8969 5.32404 33.6597 5.41086V9.46977Z" fill="white"/>
<path fill-rule="evenodd" clip-rule="evenodd" d="M42.1314 14.1382C40.4239 14.1382 39.042 12.8215 39.042 11.1863C39.042 9.55117 40.4239 8.23438 42.1314 8.23438C43.8461 8.23438 45.2208 9.55117 45.2208 11.1863C45.2208 12.8215 43.8461 14.1382 42.1314 14.1382ZM44.0776 11.1429C44.0776 9.6814 43.2094 8.49484 42.1314 8.49484C41.0606 8.49484 40.1924 9.6814 40.1924 11.1429C40.1924 12.6044 41.0606 13.791 42.1314 13.791C43.2094 13.791 44.0776 12.6044 44.0776 11.1429Z" fill="white"/>
<path d="M45.6591 9.37576C45.4854 8.76077 45.3986 8.67395 44.7764 8.58713V8.40625H47.3376V8.58713C46.3681 8.67395 46.6358 9.20212 46.8963 9.8171L48.1335 13.0802L48.9293 10.7866C49.4575 9.11529 49.6311 8.67395 48.6616 8.58713V8.40625H50.8684V8.58713C50.3402 8.67395 50.1665 8.93442 49.8988 9.37576L49.3707 10.613L47.4244 15.5473C46.9831 16.7845 46.6358 17.1391 46.1004 17.1391C45.7531 17.1391 45.4854 16.8714 45.4854 16.5168C45.4854 16.2564 45.6591 15.9887 45.9268 15.9019C46.0136 15.9887 46.4549 16.2564 46.6358 16.2564C46.8963 16.2564 47.164 15.5473 47.164 15.3737L47.6053 14.4042L45.6591 9.37576Z" fill="white"/>
<path fill-rule="evenodd" clip-rule="evenodd" d="M53.3454 10.7016C53.4322 9.29071 53.0777 8.76254 52.1081 8.76254C51.2255 8.76254 51.3123 9.20388 51.3123 9.90569L50.6973 9.99975C50.6105 9.99975 50.3428 9.99975 50.3428 9.90569C50.3428 9.55841 51.7536 8.23438 52.7231 8.23438C53.8735 8.23438 54.228 9.11706 54.228 10.1734V11.9388C54.228 13.0819 54.1412 13.791 55.2844 13.6101V13.8778C54.843 14.0514 54.4017 14.0514 54.0472 14.0514C53.519 14.0514 53.3454 13.6969 53.2585 13.2556C52.8172 13.6969 52.2818 14.1382 51.6668 14.1382C50.8709 14.1382 50.4296 13.4364 50.4296 12.6406C50.4296 12.4669 50.4296 12.2861 50.5164 12.0256L53.3454 10.7016ZM51.58 11.8447C51.4932 12.0256 51.4932 12.1992 51.4932 12.3729C51.4932 12.9083 51.8477 13.3496 52.3758 13.3496C52.7304 13.3496 53.0849 13.1687 53.2585 12.9083V10.962L51.58 11.8447Z" fill="white"/>
<path d="M54.8428 14.0498V13.6953C55.7255 13.6085 55.8123 13.348 55.8123 12.5521V7.17641C55.8123 6.64101 55.8123 6.46737 55.1973 6.02603V5.85238L56.6081 5.32422H56.789V12.5521C56.789 13.6085 56.8758 13.6953 57.7585 13.7893V13.963H54.8428V14.0498Z" fill="white"/>
<path fill-rule="evenodd" clip-rule="evenodd" d="M69.5875 10.7016C69.6744 9.29071 69.3198 8.76254 68.3503 8.76254C67.4676 8.76254 67.5545 9.20388 67.5545 9.90569L66.9395 9.99975C66.8454 9.99975 66.585 9.99975 66.585 9.90569C66.585 9.55841 67.9958 8.23438 68.9653 8.23438C70.1157 8.23438 70.4702 9.11706 70.4702 10.1734V11.9388C70.4702 13.0819 70.3762 13.8778 71.5266 13.6101V13.8778C71.0852 14.0514 70.6439 14.0514 70.2894 14.0514C69.7612 14.0514 69.5875 13.6969 69.4935 13.2556C69.0521 13.6969 68.524 14.1382 67.909 14.1382C67.1131 14.1382 66.6718 13.4364 66.6718 12.6406C66.6718 12.4669 66.6718 12.2861 66.7586 12.0256L69.5875 10.7016ZM67.909 11.8447C67.8222 12.0256 67.8222 12.1992 67.8222 12.3729C67.8222 12.9083 68.1767 13.3496 68.7049 13.3496C69.0594 13.3496 69.4139 13.1687 69.5875 12.9083V10.962L67.909 11.8447Z" fill="white"/>
<path d="M65.8756 7.79259H65.702C65.4343 6.38174 64.6384 5.32541 63.1407 5.32541C60.8472 5.32541 59.61 7.26443 59.61 9.46391C59.61 12.0252 61.549 13.7905 63.3144 13.7905C64.9929 13.7905 65.6151 12.5533 66.1433 11.2293L66.317 11.3161C66.1433 12.112 65.8756 12.821 65.6151 13.6096C64.8193 14.051 63.9366 14.1378 63.0539 14.1378C60.4058 14.1378 58.1123 12.6401 58.1123 9.73161C58.1123 7.43807 59.8777 5.14453 63.2276 5.14453C64.1971 5.14453 65.1738 5.32541 65.9624 5.85358L65.8756 7.79259Z" fill="white"/>
<path fill-rule="evenodd" clip-rule="evenodd" d="M99.3297 10.7875C99.4166 9.37664 99.062 8.84848 98.0925 8.84848C97.2098 8.84848 97.2967 9.28982 97.2967 9.99887L96.6817 10.0857C96.5948 10.0857 96.3271 10.0857 96.3271 9.99887C96.3271 9.64434 97.738 8.32031 98.7147 8.32031C99.8579 8.32031 100.212 9.203 100.212 10.2593V12.0247C100.212 13.1679 100.039 13.8769 101.182 13.7901V13.9637C100.741 14.1374 100.386 14.0505 100.039 14.0505C99.5034 14.0505 99.3297 13.696 99.2429 13.2619C98.8016 13.696 98.2734 14.1374 97.6512 14.1374C96.8553 14.1374 96.414 13.4356 96.414 12.6397C96.414 12.466 96.414 12.2852 96.508 12.0247L99.3297 10.7875ZM97.738 11.9306C97.6512 12.1115 97.6512 12.2852 97.6512 12.4588C97.6512 12.9942 98.0057 13.4356 98.5339 13.4356C98.8884 13.4356 99.2357 13.2547 99.4166 12.9942V11.048L97.738 11.9306Z" fill="white"/>
<path d="M73.024 12.5538C73.024 13.6101 73.118 13.6969 74.2612 13.791V13.9646H71.085V13.6101C71.8808 13.5233 71.9676 13.3496 72.0545 12.3801V10.0866C72.0545 9.55841 72.0545 9.37753 71.4395 8.93618V8.84936L72.9372 8.23438L73.118 8.3212L73.024 9.81887C73.2917 9.11706 74.0007 8.23438 74.7894 8.23438C75.1439 8.23438 75.4116 8.40802 75.4116 8.84936C75.4116 9.29071 75.0571 9.55841 74.7025 9.64523C74.5289 9.46435 74.1744 9.20388 73.9067 9.20388C72.8503 9.29071 72.9372 11.0561 72.9372 11.2297L73.024 12.5538Z" fill="white"/>
<path d="M77.8803 6.02514C77.8803 6.37967 77.533 6.64013 77.2653 6.64013C76.9108 6.64013 76.6504 6.29284 76.6504 6.02514C76.6504 5.67062 76.9976 5.41016 77.2653 5.41016C77.533 5.41016 77.8803 5.76468 77.8803 6.02514ZM75.8545 13.9621V13.7885C76.824 13.6076 76.824 13.4339 76.824 12.5512V10.0841C76.824 9.55589 76.824 9.37501 76.0281 8.93367V8.76003L77.7067 8.23186L77.8803 8.31868V12.5512C77.8803 13.6076 77.9744 13.6944 78.8571 13.7885V13.9621H75.8545Z" fill="white"/>
<path fill-rule="evenodd" clip-rule="evenodd" d="M85.2078 7.17641C85.2078 6.64101 85.2078 6.46737 84.5928 6.02603V5.85238L86.0905 5.32422H86.1773V8.93455C86.7995 8.58727 87.5881 8.23275 88.2103 8.23275C89.6212 8.23275 90.5907 9.55678 90.5907 10.8736C90.5907 13.1671 88.5649 14.1366 87.1468 14.1366C86.3582 14.1366 85.8227 13.963 85.2078 13.6085V7.17641ZM86.1773 11.4958C86.1773 12.733 86.2641 13.7893 87.769 13.7893C88.4708 13.7893 89.6212 13.1743 89.6212 11.4958C89.6212 9.99812 88.6517 8.94179 87.4145 8.94179C86.9731 8.94179 86.6186 9.02861 86.1773 9.20949V11.4958Z" fill="white"/>
<path fill-rule="evenodd" clip-rule="evenodd" d="M79.2039 7.17641C79.2039 6.64101 79.2039 6.46737 78.5889 6.02603V5.85238L80.0865 5.32422H80.1806V8.93455C80.7956 8.58727 81.5915 8.23275 82.2064 8.23275C83.6173 8.23275 84.594 9.55678 84.594 10.8736C84.594 13.1671 82.561 14.1366 81.1501 14.1366C80.3542 14.1366 79.8261 13.963 79.2039 13.6085V7.17641ZM80.1806 11.4958C80.1806 12.733 80.2674 13.7893 81.7651 13.7893C82.4741 13.7893 83.6173 13.1743 83.6173 11.4958C83.6173 9.99812 82.6478 8.94179 81.4106 8.94179C80.9692 8.94179 80.6219 9.02861 80.1806 9.20949V11.4958Z" fill="white"/>
<path fill-rule="evenodd" clip-rule="evenodd" d="M92.2702 10.7016C92.1834 12.0256 93.0661 13.2556 94.4769 13.2556C95.186 13.2556 95.5333 12.9083 95.9746 12.4669L96.1555 12.6406C95.7141 13.5233 94.8314 14.1382 93.8619 14.1382C92.2702 14.1382 91.2139 12.8215 91.2139 11.3165C91.2139 9.64523 92.357 8.23438 94.0356 8.23438C95.186 8.23438 95.8878 8.93618 95.9746 10.1734H92.357L92.2702 10.7016ZM94.7446 9.73205C94.6578 9.11706 94.3033 8.49484 93.5942 8.49484C92.8924 8.49484 92.4511 9.20388 92.2702 9.90569L94.7446 9.73205Z" fill="white"/>
<path d="M101.891 10.2593C101.891 9.73117 101.891 9.55752 101.268 9.11618V8.9353L102.773 8.32031L102.947 8.40713L102.86 9.37664C103.569 8.84848 104.271 8.40713 105.067 8.40713C106.565 8.40713 106.659 9.64434 106.659 10.433V12.7265C106.659 13.7901 106.745 13.8769 107.628 13.9637V14.1374H104.712V13.9637C105.682 13.7901 105.682 13.6092 105.682 12.7265V11.2288C105.682 10.3462 105.776 9.02212 104.184 9.02212C103.656 9.02212 103.302 9.203 102.86 9.55752V12.6397C102.86 13.696 102.947 13.7901 103.83 13.8769V14.0505H100.827V13.8769C101.71 13.7901 101.804 13.6092 101.804 12.6397V10.2593H101.891Z" fill="white"/>
</g>
<defs>
<clipPath id="clip0_4083_4447">
<rect width="110.553" height="28" fill="white" transform="translate(0.913086)"/>
</clipPath>
</defs>
</svg>
