<svg width="145" height="24" viewBox="0 0 145 24" fill="none" xmlns="http://www.w3.org/2000/svg">
<g clip-path="url(#clip0_4083_4592)">
<path d="M64.8537 6.96228L67.8543 4.71973H57.8057V18.1545H67.8543V15.9101H60.6759V12.4811H66.8113V10.2386H60.6759V6.96228H64.8537Z" fill="white"/>
<path d="M50.2137 9.95172H46.7325V6.96228H52.3017L55.3042 4.71973H43.8623V18.1545H49.8431C53.1938 18.1545 55.1291 16.6142 55.1291 13.9321C55.1291 11.3598 53.3894 9.95172 50.2137 9.95172ZM49.735 15.9101H46.7325V12.1943H49.735C51.5622 12.1943 52.4097 12.8108 52.4097 14.0643C52.4097 15.3178 51.497 15.9101 49.735 15.9101Z" fill="white"/>
<path d="M75.9905 4.71973H70.5312V18.1545H73.4015V14.3493H76.0128C79.4921 14.3493 81.6676 12.5035 81.6676 9.5345C81.6676 6.56555 79.4921 4.71973 75.9905 4.71973ZM75.9253 12.1067H73.381V6.96228H75.9253C77.7748 6.96228 78.775 7.88612 78.775 9.5345C78.775 11.1829 77.7748 12.1067 75.9253 12.1067Z" fill="white"/>
<path d="M38.9454 15.251C38.1855 15.67 37.3361 15.8898 36.4663 15.8898C33.8773 15.8898 32.0073 14.0198 32.0073 11.4476C32.0073 8.87534 33.8773 7.0053 36.4663 7.0053C37.4013 6.98482 38.3158 7.29214 39.0758 7.8416L41.1432 6.30311L41.0129 6.17087C39.8171 5.09243 38.2059 4.54297 36.3787 4.54297C34.4007 4.54297 32.594 5.22467 31.2902 6.45584C29.9845 7.73171 29.2451 9.51234 29.2879 11.36C29.2655 13.2282 29.9845 15.0312 31.2902 16.3499C32.6592 17.6481 34.4864 18.3745 36.3583 18.3298C38.4239 18.3298 40.2287 17.6034 41.4468 16.2847L39.5992 14.8989L38.9454 15.251Z" fill="white"/>
<path d="M116.188 4.74208V18.175H119.058V12.6785H125.171V18.175H128.043V4.74208H125.171V10.2609H119.058V4.74208H116.188ZM111.25 18.175H114.273L108.661 4.74208H105.746L100.026 18.175H102.919L104.072 15.4706H110.162L111.25 18.175ZM104.942 13.228L107.16 7.84142L109.248 13.228H104.942ZM134.482 12.7456H136.265L140.659 18.1545H144.356L138.483 11.2052L143.616 4.71973H140.333L136.069 10.4807H134.482V4.71973H131.61V18.1545H134.482V12.7456ZM90.542 9.97407V6.98463H98.0464V4.74208H87.6699V18.175H93.6525C97.0015 18.175 98.9385 16.6365 98.9385 13.9544C98.9385 11.3822 97.1989 9.97407 94.0213 9.97407H90.542ZM90.542 15.9325V12.2166H93.5445C95.3698 12.2166 96.2192 12.8331 96.2192 14.0867C96.2192 15.3402 95.327 15.9548 93.5445 15.9548H90.542V15.9325Z" fill="white"/>
<path d="M20.3044 4.63184C20.8259 5.31354 21.2618 6.06044 21.6306 6.85204L11.5819 14.3489L7.36133 11.6668V8.45758L11.5596 11.1174L20.3044 4.63184Z" fill="white"/>
<path d="M3.07554 11.4468C3.07554 11.2922 3.07554 11.1618 3.09789 11.0072L0.553601 10.875C0.553601 11.0519 0.53125 11.2494 0.53125 11.4245C0.53125 14.5033 1.77173 17.2953 3.77214 19.3181L5.57699 17.4928C4.03291 15.9543 3.07554 13.8216 3.07554 11.4468Z" fill="white"/>
<path d="M11.5599 2.87203C11.7127 2.87203 11.843 2.87203 11.9958 2.89438L12.1261 0.322155C11.9511 0.322155 11.7555 0.299805 11.5823 0.299805C8.53695 0.299805 5.77474 1.55332 3.77246 3.57609L5.5773 5.40142C7.1009 3.84057 9.23169 2.87203 11.5599 2.87203Z" fill="white"/>
<path d="M11.5594 20.0226C11.4067 20.0226 11.2763 20.0226 11.1235 20.0002L10.9932 22.5724C11.1682 22.5724 11.3638 22.5948 11.537 22.5948C14.5824 22.5948 17.3464 21.3413 19.3468 19.3185L17.542 17.4932C16.0184 19.0764 13.9081 20.0226 11.5594 20.0226Z" fill="white"/>
<path d="M16.3445 4.36758L18.4977 2.76203C16.6053 1.22354 14.1914 0.277344 11.5596 0.277344V2.84957C13.3439 2.87192 14.996 3.42138 16.3445 4.36758Z" fill="white"/>
<path d="M22.61 11.4477C22.61 10.766 22.5448 10.1066 22.4349 9.44727L20.0638 11.2279C20.0638 11.2931 20.0638 11.3825 20.0638 11.4477C20.0638 13.9771 18.9761 16.242 17.2588 17.8028L18.9761 19.7157C21.1963 17.6929 22.61 14.724 22.61 11.4477Z" fill="white"/>
<path d="M11.5595 20.0223C9.05801 20.0223 6.81732 18.9233 5.27324 17.1855L3.38086 18.9233C5.40362 21.1882 8.31857 22.5945 11.5595 22.5945V20.0223Z" fill="white"/>
<path d="M5.88245 5.09256L4.16329 3.17969C1.9226 5.2248 0.53125 8.17141 0.53125 11.4477H3.07554C3.07554 8.94066 4.16329 6.65527 5.88245 5.09256Z" fill="white"/>
</g>
<defs>
<clipPath id="clip0_4083_4592">
<rect width="144" height="24" fill="white" transform="translate(0.46582)"/>
</clipPath>
</defs>
</svg>
