<svg width="91" height="16" viewBox="0 0 91 16" fill="none" xmlns="http://www.w3.org/2000/svg">
<g clip-path="url(#clip0_4083_4643)">
<path d="M69.2383 0.894095V2.6719H70.9748C71.7328 2.6719 72.231 3.15025 72.5147 3.45921C72.7421 3.71368 77.7421 9.38291 77.8619 9.53189C77.9821 9.68114 77.9821 9.68275 77.9821 9.77751V12.5866C77.9818 12.7154 77.9689 12.8439 77.9437 12.9702C77.9082 13.0518 77.8553 13.1246 77.7888 13.1836C77.7223 13.2427 77.6437 13.2866 77.5585 13.3122C77.3944 13.3328 77.2292 13.3431 77.0638 13.3431L75.3257 13.3409V15.119H85.0746V13.3409H83.2401C83.0758 13.3418 82.9117 13.3314 82.7489 13.3098C82.6639 13.2844 82.5854 13.2406 82.5192 13.1816C82.453 13.1225 82.4005 13.0496 82.3656 12.9681C82.34 12.8418 82.3267 12.7133 82.3258 12.5845V9.77697C82.315 9.6847 82.3382 9.59165 82.3911 9.51525L87.7999 3.34459C88.2965 2.79162 88.5547 2.67164 89.2057 2.67164H91.0001V0.893555H82.9658V2.66788H84.1783C84.2433 2.66394 84.3081 2.67876 84.3649 2.71057C84.4218 2.74239 84.4683 2.78986 84.4989 2.84734C84.5296 2.90482 84.5431 2.9699 84.5378 3.03482C84.5325 3.09975 84.5088 3.1618 84.4692 3.21359C84.4437 3.24983 81.1056 7.17535 81.0637 7.21347C81.0218 7.25158 80.995 7.24246 80.9638 7.20085C80.933 7.15897 77.6348 3.21359 77.6348 3.21359C77.402 2.92798 77.5838 2.66815 77.8568 2.66815H79.0384V0.893825L69.2383 0.894095Z" fill="white"/>
<path d="M45.3281 0.893555V2.67136H46.8842C48.0079 2.67136 48.0844 3.29707 48.0844 3.84252V12.1644C48.0844 12.6623 48.1134 13.346 47.3972 13.346H45.4768V15.1222H53.6752V13.346H51.6754C50.8771 13.346 50.8406 12.9809 50.8317 12.2044V5.07515L62.0916 15.1225H64.9552L64.804 3.77514C64.8188 2.94596 64.8695 2.66976 65.7277 2.66976H67.5222V0.893555H59.1587V2.66976H60.9953C61.839 2.66976 61.9804 2.99509 61.9912 3.77514L62.0916 9.71335L52.317 0.893555H45.3281Z" fill="white"/>
<path d="M8.4099 -0.000976562C6.6482 -0.000976562 4.64653 0.329996 2.95542 1.08992C1.37706 1.79535 0.0918085 2.92813 0.0918085 4.80607C0.0893934 5.78972 0.463492 6.737 1.13735 7.45359C1.59368 7.87529 2.32998 8.59173 4.25381 9.01343C5.11359 9.19543 6.9518 9.48801 8.78276 9.68075C10.6135 9.87348 12.3883 10.0445 13.1152 10.2391C13.6937 10.3862 14.6662 10.5864 14.6662 11.6773C14.6662 12.7682 13.6427 13.0952 13.4644 13.1663C13.2865 13.2372 12.0571 13.8009 9.84976 13.8009C8.38736 13.7602 6.93826 13.511 5.5463 13.0608C4.72276 12.7661 3.85922 12.379 3.05366 11.3952C2.72856 10.932 2.54818 10.3828 2.53533 9.81712H0.535527V15.4171H2.75731V14.659C2.757 14.6028 2.77167 14.5475 2.79981 14.4989C2.82795 14.4502 2.86855 14.4099 2.91743 14.3821C2.96631 14.3544 3.02171 14.3401 3.07792 14.3409C3.13414 14.3416 3.18914 14.3573 3.23727 14.3863C4.28397 14.8418 5.37271 15.1938 6.48795 15.4372C7.65535 15.6807 8.40991 15.8573 9.86077 15.8573C11.3917 15.8864 12.9175 15.6709 14.3806 15.219C15.3521 14.9527 16.2637 14.5027 17.066 13.8935C17.5172 13.5469 17.8819 13.1003 18.1315 12.589C18.381 12.0776 18.5086 11.5154 18.5042 10.9464C18.512 9.86533 18.0949 8.82445 17.3427 8.04789C16.9244 7.64205 16.4398 7.31069 15.9098 7.06813C15.3401 6.81076 14.7487 6.6045 14.1425 6.45181C12.9899 6.16996 10.4009 5.81724 9.16286 5.6935C7.86447 5.55928 5.61153 5.37165 4.71175 5.09355C4.43903 5.00792 3.88258 4.7446 3.88258 4.09902C3.88258 3.6392 4.13704 3.24997 4.63901 2.93538C5.43705 2.43556 7.04816 2.12445 8.72799 2.12445C10.3542 2.10474 11.967 2.41969 13.4663 3.04973C13.8691 3.22529 14.2478 3.45142 14.5935 3.72268C15.1569 4.20395 15.5471 4.85662 15.7042 5.58075H17.4989V0.706338H15.4991V1.27165C15.4991 1.45364 15.3171 1.69362 14.9534 1.49552C14.0515 1.02631 11.5172 0.0119081 8.4099 -0.000976562Z" fill="white"/>
<path d="M32.4793 0C29.3285 0 25.9828 1.0909 24.0919 2.80885C23.3711 3.46518 22.7956 4.26519 22.4026 5.15736C22.0096 6.04953 21.8077 7.01411 21.81 7.989C21.7987 8.96788 21.9964 9.93791 22.3899 10.8343C22.7833 11.7307 23.3635 12.5328 24.0917 13.1871C26.1283 15.0178 29.183 15.9998 32.4793 15.9998C35.781 15.9998 38.901 15.0288 40.8884 13.1871C41.595 12.5175 42.1587 11.7117 42.5454 10.8183C42.9322 9.92494 43.1341 8.9625 43.1389 7.989C43.1487 7.01651 42.9533 6.05289 42.5655 5.161C42.1778 4.26911 41.6063 3.469 40.8884 2.81288C38.7555 0.878303 35.9646 0 32.4793 0ZM32.4793 2.0798C34.2029 2.0798 35.8629 2.69987 36.9809 3.80016C38.0626 4.86556 38.628 6.37091 38.628 7.98176C38.628 9.66911 38.1136 11.0365 36.9811 12.1636C35.8484 13.291 34.2265 13.8945 32.4793 13.8945C30.7447 13.8945 29.0882 13.2781 27.9702 12.1636C27.4354 11.6087 27.0156 10.9537 26.7347 10.236C26.4539 9.51832 26.3177 8.75224 26.3339 7.98176C26.3339 6.37816 26.8919 4.86744 27.9702 3.80016C29.0882 2.6945 30.7557 2.0798 32.4793 2.0798Z" fill="white"/>
</g>
<defs>
<clipPath id="clip0_4083_4643">
<rect width="90.9091" height="16" fill="white" transform="translate(0.0908203)"/>
</clipPath>
</defs>
</svg>
