<svg width="191" height="28" viewBox="0 0 191 28" fill="none" xmlns="http://www.w3.org/2000/svg">
<path fill-rule="evenodd" clip-rule="evenodd" d="M187.852 0.242204L185.693 0.473471L181.324 5.9377C178.921 8.9431 176.984 11.4306 177.018 11.4654C177.138 11.5846 182.599 9.60813 183.323 9.1832C183.722 8.94995 184.327 8.47676 184.669 8.13192C185.494 7.30018 191 0.344972 191 0.13502C191 -0.0659488 190.602 -0.0523986 187.852 0.242204ZM173.52 6.81892C172.019 6.98776 171.115 7.15722 170.984 7.29424C170.423 7.88192 164.65 15.235 164.706 15.291C164.798 15.3839 169.797 13.6251 170.607 13.2146C170.979 13.026 171.54 12.67 171.853 12.4238C172.331 12.0475 174.696 9.20695 176.294 7.08855L176.725 6.51762L176.288 6.53695C176.048 6.54761 174.802 6.67443 173.52 6.81892ZM178.927 12.6015C175.617 13.7551 174.966 14.0861 173.918 15.1514C172.931 16.1545 167.372 23.134 167.477 23.2386C167.514 23.2763 168.747 23.1845 170.217 23.0347L172.888 22.7623L176.794 17.8753C178.943 15.1873 180.937 12.6971 181.225 12.3412C181.514 11.9852 181.69 11.6977 181.617 11.7022C181.545 11.7066 180.334 12.1113 178.927 12.6015ZM159.333 13.3784C158.035 13.5299 156.886 13.6581 156.781 13.6636C156.572 13.6742 152.275 18.9986 152.386 19.1094C152.502 19.2256 157.85 17.3243 158.552 16.9172C159.491 16.3729 160.25 15.6521 161.227 14.3758C162.111 13.2224 162.197 13.0517 161.883 13.0837C161.778 13.0943 160.63 13.2269 159.333 13.3784ZM43.4708 15.4818C41.1787 16.2337 40.1553 18.0088 40.3128 20.9589C40.4298 23.1469 41.0002 24.2355 42.4425 25.0229C43.1162 25.3908 43.4601 25.4695 44.6213 25.5211C45.7998 25.5736 46.1158 25.5328 46.7953 25.2405C47.8047 24.8063 48.8371 23.6798 49.203 22.6134C49.578 21.521 49.5729 19.3615 49.1929 18.2528C48.8639 17.2929 47.9483 16.227 47.0555 15.7648C46.3862 15.4181 44.1926 15.245 43.4708 15.4818ZM0.243394 15.7668C0.35408 15.9134 0.6499 16.2559 0.900959 16.528L1.3574 17.0228H5.43829H9.51919V16.2616V15.5003H4.78088C0.293028 15.5003 0.0530826 15.5145 0.243394 15.7668ZM11.2299 20.4865L11.2701 25.4727H14.7718H18.2735L18.3195 24.6734L18.3656 23.874H15.9216H13.4777V22.4277V20.9813H15.4569H17.4362V20.2201V19.4588H15.4569H13.4777V18.3169V17.1751H15.7614H18.0451V16.3377V15.5003H14.6174H11.1898L11.2299 20.4865ZM19.721 15.6145C19.7216 15.6772 20.3697 16.7486 21.1615 17.9952C22.3619 19.8851 22.5749 20.3106 22.4435 20.5561C22.3569 20.7181 21.6733 21.8019 20.9245 22.9648C20.1757 24.1277 19.5224 25.1848 19.4729 25.3139C19.3964 25.5135 19.5658 25.5488 20.6011 25.5488H21.8193L22.6971 23.9882C23.1801 23.1298 23.6593 22.3033 23.7623 22.1512C23.9282 21.9061 24.0725 22.0827 25.0364 23.7117L26.1235 25.5488H27.2518C27.8724 25.5488 28.4106 25.4973 28.448 25.4346C28.4853 25.3719 27.7999 24.1985 26.9251 22.8273L25.3342 20.3341L26.8662 18.0266C27.7087 16.7575 28.3981 15.6699 28.3981 15.6096C28.3981 15.5495 27.8552 15.5003 27.1915 15.5003H25.985L25.1863 16.9086C24.7469 17.6833 24.3047 18.4403 24.2035 18.5911C24.0415 18.8326 23.9064 18.6644 23.0738 17.1828L22.128 15.5003H20.924C20.2617 15.5003 19.7203 15.5518 19.721 15.6145ZM30.0728 20.5246V25.5622L31.1767 25.5174L32.2805 25.4727L32.3226 23.3031L32.365 21.1336H34.1877H36.0106V23.3479V25.5622L37.1144 25.5174L38.2182 25.4727V20.5246V15.5765L37.1144 15.5317L36.0106 15.4869V17.4729V19.4588H34.1881H32.3657L32.3231 17.5176L32.2805 15.5765L31.1767 15.5317L30.0728 15.4869V20.5246ZM52.8629 15.6145C52.827 15.6772 52.7516 16.4138 52.6954 17.2512C52.39 21.8024 51.7396 23.874 50.6162 23.874H50.1698V25.937V28L51.0452 27.9543L51.9206 27.9086L51.9651 26.7287L52.0095 25.5488H55.3526H58.6957V26.7668V27.9848H59.5331H60.3705V25.9294V23.874H59.8376H59.3047V19.6872V15.5003H56.1165C54.3629 15.5003 52.8988 15.5518 52.8629 15.6145ZM62.8424 20.4798L62.8826 25.4727H63.9401H64.9975L66.9851 22.2333L68.9726 18.9937L69.0487 22.2333L69.1248 25.4727L70.1525 25.5177L71.1802 25.5626V20.5316V15.5003H70.1497H69.1192L67.0763 18.8498C65.9527 20.692 65.0235 22.1993 65.0113 22.1993C64.9992 22.1993 64.9947 20.7092 65.0016 18.8879L65.0141 15.5765L63.9081 15.5317L62.8023 15.4869L62.8424 20.4798ZM73.6521 20.4865L73.6923 25.4727H74.758H75.8238L75.866 23.3031L75.9083 21.1336H77.7269H79.5455L79.5878 23.3031L79.63 25.4727H80.6958H81.7615L81.8017 20.4865L81.8417 15.5003H80.6979H79.5539V17.4796V19.4588H77.7269H75.8999V17.4796V15.5003H74.7559H73.6121L73.6521 20.4865ZM85.2865 20.2526C84.3979 22.8724 83.6523 25.1187 83.6298 25.2443C83.5963 25.4293 83.7887 25.4727 84.6416 25.4727H85.6946L86.0625 24.3689L86.4305 23.265H88.2088H89.9872L90.3018 24.3689L90.6163 25.4727L91.5776 25.5185C92.1065 25.5438 92.6278 25.5304 92.7361 25.4888C92.881 25.4332 92.4996 24.1129 91.2932 20.4949L89.6532 15.5765L88.2776 15.5329L86.902 15.4894L85.2865 20.2526ZM94.6625 20.4865L94.7027 25.4727H95.6923H96.6819L96.7253 22.2754L96.7687 19.0782L97.8457 21.6664C98.4381 23.09 98.9922 24.3404 99.0771 24.445C99.166 24.5547 99.5795 24.6353 100.054 24.6353C100.765 24.6353 100.895 24.5887 101.014 24.2927C101.089 24.1042 101.599 22.8882 102.147 21.5903L103.144 19.2304L103.186 22.3515L103.229 25.4727H104.294H105.36L105.4 20.4865L105.44 15.5003H104.089H102.738L102.422 16.2996C102.248 16.7393 101.632 18.2507 101.052 19.6584L99.9987 22.218L98.6717 18.8591L97.3448 15.5003H95.9836H94.6225L94.6625 20.4865ZM107.789 15.692C107.749 15.7975 107.734 18.0412 107.756 20.6782L107.796 25.4727L108.761 25.5183C109.304 25.5441 109.813 25.4914 109.926 25.3979C110.036 25.3067 110.972 23.8474 112.006 22.155L113.886 19.0782L113.962 22.2754L114.038 25.4727H115.104H116.17L116.21 20.4798L116.25 15.4869L115.149 15.5317L114.048 15.5765L112.064 18.8267L110.08 22.0769L110.039 18.7886L109.998 15.5003H108.93C108.213 15.5003 107.839 15.5632 107.789 15.692ZM118.566 20.4865L118.606 25.4727H119.672H120.737L120.78 23.3031L120.822 21.1336H121.354C121.863 21.1336 121.929 21.2015 122.932 22.7702C123.507 23.6703 124.156 24.6639 124.373 24.9778L124.769 25.5488H125.912C126.541 25.5488 127.056 25.4841 127.056 25.4049C127.056 25.3257 126.336 24.1604 125.457 22.8155C124.578 21.4703 123.858 20.3347 123.858 20.2918C123.858 20.2488 124.509 19.2178 125.305 18.0007C126.1 16.7835 126.751 15.72 126.751 15.6375C126.751 15.5481 126.279 15.5055 125.582 15.532L124.413 15.5765L123.256 17.4034L122.1 19.2304L121.456 19.2772L120.813 19.3241V17.4121V15.5003H119.669H118.526L118.566 20.4865ZM130.196 18.4256C128.077 24.5916 127.844 25.3239 127.958 25.4425C128.023 25.5095 128.513 25.5438 129.046 25.5186L130.016 25.4727L130.813 22.8844C131.252 21.4609 131.798 19.6296 132.026 18.8148C132.254 18.0001 132.476 17.3681 132.518 17.4104C132.594 17.4863 133.738 21.4064 133.749 21.6284C133.752 21.6911 133.354 21.7425 132.865 21.7425H131.976L131.799 22.3311C131.702 22.6548 131.623 22.9948 131.623 23.0865C131.623 23.1912 132.117 23.2696 132.951 23.2972L134.278 23.3412L134.597 24.4069L134.916 25.4727L136.01 25.5174C137.269 25.5689 137.258 25.587 136.8 24.2547C136.632 23.7679 136.495 23.346 136.495 23.3173C136.495 23.2886 136.781 23.265 137.13 23.265C137.689 23.265 137.849 23.1783 138.459 22.5419L139.152 21.8187L137.556 21.7759L135.961 21.733L134.969 18.6548L133.977 15.5765L132.591 15.5329L131.206 15.4894L130.196 18.4256ZM166.488 16.4717C163.372 17.5813 162.74 17.8888 161.811 18.7446C160.975 19.5151 157.284 24.1597 157.408 24.284C157.457 24.3329 158.685 24.2516 160.138 24.1035L162.779 23.8342L165.89 19.9459C169.378 15.5862 169.446 15.4959 169.276 15.5116C169.208 15.5177 167.954 15.9498 166.488 16.4717ZM43.7523 17.2542C42.826 17.7574 42.3139 20.0683 42.7083 21.9657C42.8482 22.6393 43.0262 23.0032 43.3971 23.3741C43.8516 23.8285 43.9805 23.874 44.8141 23.874C45.5773 23.874 45.8093 23.8083 46.1971 23.482C46.7897 22.9834 47.1248 21.8875 47.1248 20.4484C47.1248 18.1387 46.4097 17.0176 44.9435 17.0289C44.5103 17.0323 43.9743 17.1337 43.7523 17.2542ZM54.6597 18.5073C54.5058 20.6654 54.1963 22.2925 53.7794 23.1349L53.4136 23.874H55.2173H57.021V20.4484V17.0228H55.8933H54.7657L54.6597 18.5073ZM87.5352 19.5052L86.9144 21.6664L88.1251 21.7109C88.7909 21.7354 89.3673 21.7238 89.4059 21.6852C89.4836 21.6075 88.392 17.619 88.2467 17.4499C88.1968 17.3916 87.8766 18.3165 87.5352 19.5052ZM4.26171 17.818C4.21939 17.9281 4.20325 19.6954 4.22578 21.7454L4.26658 25.4727H5.33233H6.39807V21.5903V17.7079L5.36826 17.6629C4.62437 17.6303 4.31713 17.6734 4.26171 17.818ZM154.232 20.2794C152.725 20.8059 151.183 21.3942 150.807 21.5866C150.054 21.9711 148.429 23.5583 147.638 24.681L147.134 25.3965L147.714 25.3847C148.033 25.3781 149.288 25.2581 150.502 25.1182L152.71 24.8637L154.729 22.3515C156.539 20.1001 157.149 19.2906 157.016 19.3143C156.992 19.3187 155.739 19.753 154.232 20.2794Z" fill="white"/>
</svg>
