<svg width="84" height="28" viewBox="0 0 84 28" fill="none" xmlns="http://www.w3.org/2000/svg">
<g clip-path="url(#clip0_4083_5139)">
<path d="M17.6036 27.824L17.407 27.7878L17.2104 27.7516L17.0137 27.7102L16.817 27.6688L16.6203 27.6222L16.4288 27.5757L16.2322 27.5239L16.0407 27.4721L15.7664 27.3892L15.4973 27.3012L15.2282 27.2029L14.9642 27.1046L14.7002 27.0011L14.4414 26.8873L14.1774 26.7734L13.9238 26.6543L13.6702 26.5249L13.4166 26.3955L13.1682 26.261L12.9198 26.1212L12.6765 25.9712L12.4385 25.8211L12.2004 25.6659L11.9623 25.5054L11.5586 25.2208L11.16 24.9154L10.7823 24.6048L10.4096 24.2788L10.0577 23.9424L9.71609 23.5905L9.38489 23.2333L9.0692 22.8659L8.76904 22.4829L8.47926 22.0947L8.21014 21.6962L7.95131 21.2873L7.7081 20.8732L7.47526 20.4488L7.263 20.0192L7.06112 19.5845L6.88 19.1394L6.70916 18.6892L6.55908 18.2285L6.41938 17.7678L6.30034 17.3021L6.19683 16.8311L6.10884 16.3549L6.03637 15.8737L5.97943 15.3923L5.94324 14.9058L5.92257 14.4192L5.91734 13.9276L5.93286 13.4359L5.9639 12.9442L6.0157 12.4526L6.08302 11.9558L0.389648 12.4059L6.2277 11.1121L6.38816 10.4134L6.57966 9.73535L6.80221 9.06771L7.05581 8.41558L7.34044 7.77898L7.65098 7.16305L7.99257 6.56787L8.36005 5.98822L8.75858 5.42923L9.18301 4.89615L9.6281 4.38373L10.1042 3.89206L10.6063 3.42621L11.129 2.98626L11.6776 2.57736L12.2521 2.18921L12.8524 1.83201L13.4684 1.50081L14.1101 1.20065L14.7778 0.936675L15.4609 0.698604L16.1648 0.496724L16.8946 0.325975L17.6398 0.191417L18.4059 0.0879044L19.1873 0.0258139L19.9896 0L20.8073 0.0155226L21.6458 0.0620905L22.4998 0.155226L23.3693 0.289784L24.2544 0.465765L23.8041 0.434719L23.3539 0.413965L22.9139 0.403588L22.4844 0.398357H22.0548L21.6355 0.408734L21.2215 0.419111L20.8125 0.444925L20.4088 0.470825L20.0155 0.50187L19.6273 0.543292L19.2495 0.58986L18.8717 0.641659L18.5042 0.698519L18.1419 0.76584L17.7899 0.833077L17.438 0.905544L17.0964 0.988389L16.7651 1.07123L16.4339 1.15922L16.113 1.25759L15.8024 1.35587L15.4919 1.45938L15.1917 1.56804L14.8967 1.68193L14.6121 1.80097L14.3274 1.92009L14.0583 2.04427L13.7892 2.17368L13.5304 2.30824L13.2768 2.4428L13.0336 2.5825L13.1164 2.80505L13.2043 3.02245L13.2975 3.23463L13.401 3.44688L13.5097 3.65391L13.6236 3.85579L13.7478 4.05767L13.872 4.25432L14.0066 4.45097L14.1412 4.63724L14.2861 4.82351L14.4362 5.00463L14.5915 5.18061L14.7519 5.35136L14.9175 5.51697L15.0884 5.68266L15.285 5.45488L15.4817 5.23233L15.6836 5.01493L15.8906 4.80267L16.0976 4.5905L16.315 4.38347L16.5324 4.18159L16.7498 3.98494L16.9724 3.78829L17.2001 3.59679L17.433 3.41052L17.6659 3.22939L17.904 3.04827L18.1421 2.87229L18.3853 2.70145L18.6337 2.53585L18.2144 2.93961L17.8055 3.34852L17.3966 3.76771L16.9982 4.18691L16.6048 4.61648L16.2166 5.04606L15.8388 5.48601L15.461 5.9311L15.6939 6.08642L15.9268 6.2365L16.17 6.3762L16.4132 6.51076L16.6617 6.63494L16.9101 6.75397L17.1637 6.86263L17.4225 6.961L17.6865 7.05414L17.9505 7.13698L18.2144 7.20945L18.4836 7.27677L18.7579 7.33372L19.0322 7.38551L19.3065 7.42685L19.586 7.4579L19.6636 7.22506L19.7412 6.99736L19.8188 6.76967L19.8965 6.54712L19.9741 6.3142L20.0517 6.08127L20.1344 5.83805L20.2121 5.58437L20.1914 5.70856L20.1603 5.86901L20.1241 6.05537L20.0826 6.28306L20.0413 6.53666L19.9947 6.82644L19.943 7.14753L19.8912 7.50464L20.1603 7.54083L20.4398 7.57187L20.7296 7.60292L21.0246 7.63396L21.3248 7.65472L21.6353 7.68062L21.9511 7.70128L22.2772 7.71681L21.9511 7.75308L21.6302 7.78927L21.3196 7.81517L21.0143 7.84622L20.7141 7.86689L20.4139 7.88241L20.1241 7.89793L19.8343 7.90831L19.8239 8.03249L19.8084 8.15153L19.7929 8.27571L19.7722 8.41027L23.3537 7.7012L23.0483 9.5851L19.5858 10.0923L19.5393 10.3511L19.4978 10.6151L19.4564 10.8739L19.4202 11.1379L19.384 11.4018L19.353 11.6658L19.3219 11.9298L19.2909 12.1938L19.265 12.4577L19.2391 12.7217L19.2184 12.9857L19.1978 13.2496L19.1822 13.5136L19.1667 13.7776L19.1563 14.0467L19.146 14.3107L19.441 14.3572L19.7618 14.3987L20.0879 14.4348L20.4295 14.471L20.7763 14.5021L21.123 14.5331L21.4697 14.5642L21.8113 14.5952L21.4749 14.647L21.1384 14.6884L20.802 14.7246L20.4656 14.7609L20.1292 14.7867L19.7928 14.8075L19.4563 14.8281L19.1147 14.8385L19.0992 15.2009L19.0888 15.558L19.0733 15.9203L19.0681 16.2826L19.0577 16.6397L19.0525 17.002V17.3643V17.7214L19.0577 18.0838L19.0629 18.4409L19.0681 18.8032L19.0785 19.1655L19.094 19.5226L19.1044 19.8849L19.1251 20.242L19.1458 20.6044L19.446 20.6354L19.7565 20.6612L20.0826 20.6871L20.4086 20.7078L20.7451 20.7285L21.0815 20.7492L21.4178 20.7647L21.7543 20.7751L21.4231 20.8113L21.0815 20.8372L20.7451 20.8631L20.4138 20.8838L20.0826 20.9045L19.7616 20.9149L19.446 20.9304L19.1458 20.9356L19.1665 21.3289L19.1975 21.7119L19.2337 22.0949L19.2803 22.4727L19.3321 22.8608L19.3839 23.2593L19.4408 23.6682L19.5029 24.103L19.4304 23.9115L19.3631 23.72L19.3009 23.5285L19.2388 23.337L19.1768 23.1403L19.1198 22.9437L19.0629 22.747L19.0111 22.5504L18.9645 22.3537L18.9127 22.1571L18.8713 21.9552L18.8299 21.7585L18.7884 21.5567L18.7522 21.3548L18.7212 21.1529L18.6901 20.9562L18.333 20.951L17.9759 20.9406L17.624 20.9303L17.272 20.9044L16.9149 20.8785L16.5629 20.8423L16.211 20.8008L15.859 20.7543L15.5123 20.6973L15.1603 20.6404L14.8136 20.5679L14.4669 20.4955L14.1201 20.4178L13.7786 20.3298L13.437 20.2367L13.0954 20.1383L13.1834 20.423L13.2765 20.7076L13.38 20.9871L13.4888 21.2615L13.6078 21.5357L13.7268 21.8101L13.8614 22.074L13.996 22.338L14.1408 22.602L14.2909 22.8556L14.4461 23.1093L14.6118 23.3576L14.7826 23.6061L14.9585 23.8441L15.1398 24.0822L15.3312 24.315L15.5796 24.3875L15.8281 24.4651L16.0817 24.5324L16.3301 24.5997L16.5837 24.667L16.8373 24.724L17.0857 24.786L17.3393 24.8378L17.5981 24.8896L17.8518 24.9414L18.1053 24.9829L18.3642 25.0294L18.6178 25.0656L18.8766 25.1018L19.1302 25.138L19.389 25.169L19.6478 25.1949L19.9066 25.2156L20.1654 25.2364L20.4242 25.257L20.683 25.2674L20.9418 25.2829L21.2006 25.2881L21.4594 25.2933H21.7183H21.9822L22.2411 25.2881L22.4999 25.2829L22.7587 25.2726L23.0174 25.257L23.2814 25.2414L23.5402 25.2208L23.0537 25.2673L22.5621 25.3035L22.0755 25.3294L21.589 25.3501L21.1025 25.3656H20.6108L20.1243 25.3604L19.6379 25.3449L19.1462 25.3242L18.6597 25.2931L18.1732 25.2517L17.6867 25.2052L17.2053 25.1482L16.7188 25.081L16.2375 25.0033L15.7562 24.9205L15.9839 25.1431L16.2168 25.3553L16.4445 25.5572L16.6722 25.7436L16.9051 25.9195L17.1328 26.0904L17.3605 26.2456L17.5934 26.3905L17.8211 26.5302L18.0541 26.6545L18.2921 26.7735L18.525 26.8823L18.763 26.9858L19.0063 27.0789L19.2495 27.1618L19.4979 27.2394L19.7464 27.3066L20 27.3688L20.2536 27.4258L20.5175 27.4723L20.7815 27.5137L21.0558 27.5447L21.3301 27.5757L21.6096 27.5964L21.8942 27.6171L22.1893 27.6275L22.4843 27.6378H22.7897H23.1002L23.4211 27.6326L23.742 27.6222L24.0785 27.6067L23.83 27.6533L23.5764 27.6998L23.328 27.7413L23.0744 27.7826L22.8259 27.8188L22.5723 27.8498L22.3188 27.8809L22.0652 27.9068L21.8167 27.9274L21.5631 27.9481L21.3095 27.9637L21.0558 27.9792L20.8023 27.9896L20.5487 27.9949L20.2898 28H20.0362H19.7309L19.4255 27.9949L19.1201 27.9793L18.8147 27.9587L18.5093 27.9379L18.2091 27.9017L17.9037 27.8655L17.6036 27.824ZM19.5083 27.5963L19.3376 27.5498L19.1667 27.4928L19.0011 27.4359L18.8303 27.3789L18.6647 27.3168L18.499 27.2547L18.3385 27.1874L18.1729 27.1201L18.0125 27.0476L17.852 26.9752L17.6916 26.8975L17.5362 26.8199L17.3809 26.737L17.2256 26.6542L17.0704 26.5663L16.9151 26.4783L16.765 26.3903L16.6149 26.2971L16.4648 26.204L16.3199 26.1057L16.1751 26.0074L16.0301 25.9038L15.8852 25.8003L15.7455 25.6968L15.6058 25.5881L15.4661 25.4793L15.3315 25.3654L15.197 25.2516L15.0624 25.1325L14.9331 25.0135L14.8037 24.8944L14.6742 24.7703L14.4827 24.734L14.2964 24.6874L14.105 24.6409L13.9186 24.5943L13.7323 24.5425L13.546 24.4855L13.3649 24.4234L13.1837 24.3614L13.0026 24.294L12.8215 24.2216L12.6455 24.1492L12.4695 24.0715L12.2935 23.9887L12.1227 23.9059L11.952 23.8179L11.7811 23.7299L11.6103 23.6316L11.4447 23.5385L11.2842 23.435L11.1186 23.3315L10.9582 23.2279L10.8028 23.1141L10.6475 23.0054L10.4923 22.8864L10.337 22.7673L10.1921 22.6483L10.042 22.524L9.89705 22.3946L9.75211 22.2601L9.61241 22.1307L9.47785 21.991L9.34329 21.8512L9.55555 22.1722L9.78324 22.4827L10.0162 22.7881L10.2594 23.083L10.5077 23.3677L10.7666 23.6471L11.0305 23.9215L11.3048 24.1803L11.5843 24.4339L11.8689 24.6823L12.164 24.9152L12.4641 25.1429L12.7695 25.3603L13.0852 25.5726L13.401 25.7692L13.727 25.9607L14.0582 26.1367L14.3894 26.3075L14.731 26.468L15.0777 26.6181L15.4245 26.7578L15.7764 26.8923L16.1335 27.0114L16.4959 27.12L16.8634 27.2183L17.2308 27.3063L17.6035 27.3839L17.9813 27.4461L18.3591 27.503L18.737 27.5444L19.12 27.5754L19.5083 27.5963ZM7.96675 19.3309L8.11683 19.5223L8.27214 19.7138L8.42746 19.9053L8.58791 20.0865L8.75352 20.2728L8.91921 20.4488L9.08996 20.6248L9.26079 20.7956L9.43677 20.9664L9.61275 21.1321L9.79388 21.2977L9.98024 21.4581L10.1665 21.6133L10.358 21.7634L10.5495 21.9135L10.741 22.0583L10.9377 22.2033L11.1395 22.343L11.3414 22.4775L11.5484 22.607L11.7555 22.7364L11.9625 22.8605L12.1747 22.9847L12.3868 23.0986L12.6042 23.2125L12.8216 23.3213L13.0442 23.43L13.2616 23.5283L13.4894 23.6266L13.7119 23.7248L13.9449 23.8128L14.1725 23.9008L14.3692 23.9061L14.1829 23.6784L14.0069 23.4454L13.831 23.2125L13.6654 22.9693L13.4998 22.726L13.3444 22.4776L13.1944 22.2292L13.0494 21.9756L12.9097 21.7168L12.7752 21.4528L12.651 21.1888L12.5268 20.9249L12.4129 20.6557L12.3042 20.3815L12.2007 20.1071L12.1075 19.8276L11.9315 19.7604L11.7556 19.6931L11.5847 19.6206L11.4087 19.543L11.238 19.4654L11.0672 19.3826L10.9016 19.2998L10.7359 19.2169L10.5703 19.1289L10.4047 19.0358L10.2442 18.9427L10.0837 18.8495L9.92329 18.7513L9.76283 18.6477L9.60752 18.5442L9.45221 18.4407L9.30213 18.332L9.14682 18.2233L8.99673 18.1094L8.85188 17.9955L8.70695 17.8765L8.5621 17.7575L8.41716 17.6332L8.27746 17.509L8.13776 17.3848L8.0032 17.2554L7.86864 17.126L7.73408 16.9915L7.60467 16.8569L7.47535 16.7172L7.35082 16.5775L7.22664 16.4378L7.24731 16.6241L7.27835 16.8103L7.3094 16.9915L7.34044 17.1778L7.37663 17.3589L7.41806 17.5453L7.45939 17.7264L7.50596 17.9075L7.55253 18.0887L7.60433 18.2647L7.65613 18.4458L7.71307 18.6218L7.77516 18.8029L7.83725 18.9789L7.89934 19.1548L7.96667 19.3256L7.96675 19.3309ZM12.8524 19.0617L13.1992 19.2066L13.5511 19.3412L13.9082 19.4705L14.2602 19.5948L14.6225 19.7138L14.9796 19.8225L15.342 19.9311L15.7043 20.0244L16.0718 20.1175L16.4393 20.2003L16.8068 20.278L17.1794 20.3504L17.5469 20.4178L17.9195 20.4747L18.2974 20.5265L18.67 20.5731L18.6234 20.2159L18.5821 19.8588L18.5459 19.5017L18.5149 19.1394L18.4838 18.7822L18.458 18.4251L18.4372 18.068L18.4217 17.7057L18.4062 17.3486L18.3958 16.9915L18.3906 16.6292L18.3854 16.272L18.3906 15.9098L18.3958 15.5526L18.4062 15.1903L18.4166 14.8332L18.2199 14.8177L18.0233 14.797L17.8266 14.7763L17.6247 14.7504L17.4281 14.7193L17.2314 14.6883L17.0399 14.6572L16.8433 14.6209L16.6466 14.5848L16.4551 14.5433L16.2585 14.502L16.067 14.4554L15.8755 14.4036L15.684 14.3518L15.4925 14.3L15.301 14.2431L15.1146 14.1861L14.9231 14.1241L14.7369 14.062L14.5505 13.9947L14.3642 13.9223L14.1779 13.8549L13.9968 13.7773L13.8106 13.6997L13.6293 13.6221L13.4482 13.5393L13.2671 13.4564L13.0911 13.3736L12.91 13.2805L12.734 13.1925L12.558 13.0994L12.3872 13.0011L12.3561 13.1926L12.3302 13.379L12.3096 13.5705L12.2888 13.7619L12.2682 13.9534L12.2578 14.1449L12.2423 14.3364L12.237 14.5278L12.2266 14.7193V14.9108V15.1023V15.2938L12.2319 15.4853L12.2423 15.6768L12.2526 15.8683L12.263 16.0547L12.2785 16.2461L12.2993 16.4376L12.32 16.6291L12.3458 16.8154L12.3717 17.0069L12.4028 17.1984L12.4338 17.3847L12.47 17.571L12.5062 17.7625L12.5476 17.9489L12.5942 18.1352L12.6408 18.3214L12.6873 18.5078L12.7391 18.6889L12.7961 18.8752L12.8524 19.0617ZM7.29388 11.7952L7.26806 11.9661L7.24216 12.1369L7.22149 12.3076L7.20083 12.4785L7.1853 12.6493L7.16978 12.8201L7.15426 12.9909L7.14388 13.1617L7.1853 13.3273L7.24739 13.5395L7.28358 13.6585L7.32501 13.788L7.37681 13.9277L7.43375 14.0725L7.50107 14.2226L7.5684 14.383L7.65115 14.5487L7.734 14.7195L7.83237 14.8955L7.93588 15.0818L8.04968 15.2681L8.17395 15.4596L8.30336 15.6511L8.44821 15.8478L8.60352 16.0496L8.76913 16.2515L8.94511 16.4534L9.13146 16.6553L9.33334 16.8623L9.54552 17.0642L9.77329 17.2712L10.0114 17.4731L10.265 17.675L10.5341 17.8716L10.8136 18.0683L11.1085 18.2598L11.419 18.4513L11.7502 18.6376L11.6675 18.265L11.5899 17.8871L11.5278 17.5094L11.4708 17.1315L11.4294 16.7485L11.3932 16.3707L11.3673 15.9877L11.3467 15.6047L11.3414 15.2269V14.8439L11.3569 14.4609L11.3777 14.0779L11.4087 13.7001L11.4502 13.3171L11.502 12.9393L11.5589 12.5563L11.4813 12.4942L11.3261 12.3544L11.119 12.1733L10.8861 11.9662L10.6532 11.7644L10.4513 11.5831L10.3012 11.4538L10.2288 11.3917L7.29388 11.7952ZM12.7644 11.0965L12.7385 11.2001L12.7075 11.3139L12.6765 11.433L12.6454 11.552L12.6196 11.6763L12.5886 11.8005L12.5679 11.9143L12.5471 12.0179L12.8887 12.2145L13.2354 12.406L13.5874 12.5871L13.9445 12.758L14.3016 12.9236L14.664 13.0789L15.0314 13.229L15.3989 13.3688L15.7715 13.4981L16.1442 13.6224L16.522 13.7414L16.8998 13.8449L17.2828 13.9484L17.671 14.0364L18.054 14.1192L18.4421 14.1916L18.4577 13.9433L18.4783 13.6896L18.4938 13.436L18.5145 13.1875L18.5404 12.934L18.5663 12.6855L18.5922 12.4319L18.6233 12.1836L18.6492 11.9352L18.6853 11.6815L18.7164 11.4331L18.7577 11.1847L18.7939 10.9363L18.8353 10.6879L18.8768 10.4343L18.9182 10.1858L12.7644 11.0965ZM11.3515 11.1638L11.8018 11.5416L11.9261 11.0965L11.3515 11.1638ZM7.45433 10.8791L9.28137 10.5117L9.10016 10.3254L8.92941 10.1339L8.76381 9.93723L8.60335 9.74058L8.44289 9.53356L8.29281 9.32653L8.14273 9.1195L8.00303 8.9021L7.92018 9.14532L7.83743 9.38853L7.76496 9.63698L7.69249 9.8802L7.62525 10.1286L7.56308 10.3771L7.50613 10.6307L7.45433 10.8791ZM8.81029 7.09058L8.87238 7.31313L8.93447 7.53054L9.01209 7.75308L9.0897 7.96534L9.17769 8.17751L9.27082 8.38454L9.37434 8.59156L9.48308 8.78821L9.59689 8.99009L9.71592 9.18159L9.84533 9.3731L9.97989 9.55422L10.1196 9.73535L10.2697 9.91133L10.4198 10.0873L10.5802 10.2529L12.3657 9.89066L12.4796 9.65259L12.5987 9.41452L12.7229 9.18159L12.847 8.94867L12.9764 8.71583L13.1058 8.48805L13.2403 8.25521L13.38 8.03266L13.5197 7.81011L13.6647 7.58757L13.8148 7.36502L13.9648 7.14762L14.1201 6.93544L14.2805 6.71804L14.441 6.51102L14.6014 6.29884L14.41 6.14353L14.2237 5.97784L14.0373 5.81224L13.8562 5.64149L13.675 5.46551L13.4991 5.28953L13.3282 5.11355L13.1574 4.92719L12.9918 4.74092L12.8313 4.55465L12.676 4.358L12.5207 4.1665L12.3654 3.96462L12.2206 3.76797L12.0756 3.56094L11.9359 3.35392L11.6978 3.54534L11.4598 3.74722L11.2321 3.9491L11.0095 4.16127L10.7921 4.37352L10.58 4.59607L10.3729 4.82377L10.1711 5.05669L9.97955 5.29476L9.79319 5.53283L9.61207 5.78128L9.43608 6.03487L9.27048 6.2937L9.11002 6.55252L8.95994 6.82164L8.81029 7.09058ZM13.0957 9.80259L19.3013 8.49834L19.3427 8.34311L19.379 8.1878L19.4255 8.03249L19.467 7.87203L19.1719 7.86174L18.8769 7.83584L18.5819 7.8048L18.2869 7.76852L17.9971 7.71672L17.7072 7.65978L17.4226 7.58731L17.1379 7.50961L16.8532 7.42685L16.5738 7.32857L16.2995 7.22506L16.0252 7.11117L15.7561 6.9869L15.4921 6.85757L15.2282 6.71787L14.9693 6.56779L14.8296 6.75929L14.6899 6.94556L14.5554 7.13707L14.4261 7.33372L14.2966 7.52522L14.1725 7.7271L14.0483 7.92375L13.9292 8.12563L13.8154 8.32751L13.7015 8.53453L13.5928 8.74156L13.4841 8.94858L13.3858 9.16084L13.2823 9.37301L13.1891 9.58527L13.0957 9.80259ZM30.2632 19.1963L30.2166 19.4861L30.1804 19.7708L30.1545 20.0451L30.1441 20.3091L30.1389 20.5679V20.8111L30.1544 21.0544L30.1803 21.282L30.2165 21.5046L30.2579 21.7168L30.3149 21.9186L30.377 22.1101L30.4547 22.2964L30.5374 22.4724L30.6306 22.638L30.7341 22.7933L30.848 22.9434L30.9722 23.0831L31.1016 23.2074L31.2465 23.3315L31.3966 23.4402L31.557 23.5386L31.7278 23.6317L31.9089 23.7145L32.1004 23.7869L32.2971 23.849L32.5041 23.9008L32.7266 23.9474L32.9543 23.9784L33.1873 24.0043L33.4357 24.0198L33.6893 24.025L33.9533 24.0198L34.2121 24.0043L34.4657 23.9784L34.7089 23.9474L34.9521 23.9008L35.185 23.849L35.4127 23.7818L35.6353 23.7093L35.8475 23.6266L36.0545 23.5334L36.2564 23.4299L36.453 23.3212L36.6445 23.2021L36.8256 23.0728L37.0016 22.933L37.1725 22.7829L37.3329 22.6276L37.4881 22.462L37.6382 22.286L37.7779 22.1049L37.9125 21.9083L38.0419 21.7116L38.1609 21.4994L38.2748 21.282L38.3835 21.0543L38.4818 20.8162L38.5698 20.573L38.6577 20.3193L38.7302 20.0606L38.8027 19.7914L38.8648 19.5171L38.9166 19.2273L39.8689 13.6066V13.5859V13.56L39.8636 13.5238L39.8533 13.4876L39.8326 13.4566L39.8067 13.4255L39.7808 13.4048L39.7446 13.3893L39.7083 13.3789L39.667 13.3736H37.4056L37.359 13.384L37.3124 13.3944L37.2659 13.4152L37.2297 13.4462L37.1934 13.4772L37.1675 13.5187L37.1468 13.56L37.1313 13.6066L36.1531 19.3722L36.1272 19.5222L36.0962 19.662L36.0651 19.7966L36.0341 19.9311L35.9978 20.0606L35.9616 20.1796L35.9203 20.2986L35.8788 20.4125L35.8323 20.5213L35.7857 20.6248L35.7339 20.7231L35.6821 20.8214L35.6303 20.9094L35.5734 20.9923L35.5164 21.075L35.4543 21.1526L35.3922 21.22L35.3249 21.2873L35.2576 21.3494L35.1851 21.4063L35.1127 21.4581L35.0351 21.5047L34.9574 21.5512L34.8798 21.5874L34.7971 21.6237L34.7142 21.6548L34.6262 21.6755L34.5331 21.6962L34.44 21.7169L34.3467 21.7272L34.2485 21.7325H34.1502H34.0518L33.9587 21.7272L33.8707 21.7117L33.7878 21.6962L33.7051 21.6755L33.6275 21.6496L33.555 21.6186L33.4878 21.5875L33.4204 21.5461L33.3584 21.4995L33.3014 21.453L33.2445 21.4012L33.1927 21.3391L33.1512 21.2769L33.1047 21.2097L33.0684 21.1423L33.0322 21.0647L33.0012 20.982L32.9753 20.8991L32.9494 20.806L32.9338 20.7128L32.9183 20.6145L32.9028 20.511L32.8976 20.4023L32.8924 20.2884V20.1694L32.8976 20.0504L32.9028 19.921L32.9132 19.7916L32.9287 19.6571L32.9494 19.5174L32.9753 19.3724L33.9535 13.6068L33.9588 13.581V13.5551L33.9484 13.5189L33.938 13.4827L33.9173 13.4517L33.8914 13.4258L33.8655 13.3999L33.8293 13.3844L33.7932 13.3792L33.757 13.374H31.4847L31.4691 13.3792L31.4485 13.3844L31.4329 13.3792L31.4226 13.374H23.7264L23.6746 13.3844L23.6281 13.3947L23.5866 13.4206L23.5452 13.4465L23.5142 13.4776L23.4831 13.519L23.4625 13.5604L23.4469 13.6069L23.126 15.5116L23.1208 15.5375V15.5634L23.126 15.6047L23.1364 15.641L23.1571 15.672L23.183 15.6979L23.214 15.7186L23.2451 15.7341L23.2812 15.7445H23.3226H25.7706L24.4456 23.6218L24.4405 23.6476V23.6735L24.4456 23.7149L24.456 23.7511L24.4767 23.7821L24.5026 23.808L24.5336 23.8287L24.5647 23.8442L24.6008 23.8546H24.6423H26.9143L26.9609 23.8494L27.0074 23.8338L27.054 23.8131L27.0902 23.782L27.1264 23.751L27.1523 23.7096L27.1782 23.6682L27.1937 23.6217L28.5186 15.7444H30.8477L30.2632 19.1963ZM75.2133 23.8646L75.177 23.8595L75.1408 23.8543L75.1098 23.8387L75.0787 23.818L75.0581 23.7972L75.0374 23.7662L75.0218 23.7351L75.0115 23.6989L73.495 13.6892V13.6582V13.6324L73.5002 13.6013L73.5105 13.5754L73.5209 13.5495L73.5313 13.5236L73.5468 13.4977L73.5675 13.4718L73.5881 13.4512L73.6089 13.4357L73.6348 13.415L73.6607 13.4046L73.6866 13.3942L73.7175 13.3839L73.7434 13.3787L73.7745 13.3735H76.2536L76.2898 13.3787L76.326 13.3839L76.3571 13.3994L76.3881 13.42L76.4088 13.4459L76.4295 13.477L76.4451 13.508L76.4503 13.5442L76.9523 17.783L76.9885 18.0832L77.0248 18.3937L77.0559 18.7146L77.092 19.0407L77.1231 19.3719L77.1541 19.7135L77.18 20.0602L77.2059 20.4122L77.3353 20.1016L77.4699 19.7807L77.6045 19.465L77.7442 19.139L77.889 18.8181L78.0339 18.492L78.184 18.1608L78.3393 17.8296L80.3371 13.5441L80.3578 13.5079L80.3837 13.4769L80.4096 13.451L80.4406 13.4251L80.4768 13.4044L80.5131 13.3888L80.5493 13.3785L80.5907 13.3732H82.9974H83.0233L83.0492 13.3785L83.0751 13.3888L83.101 13.3992L83.1217 13.4147L83.1424 13.4303L83.1631 13.4509L83.1786 13.4716L83.1889 13.4975L83.1942 13.5285L83.1994 13.5543V13.5802L83.1942 13.6113L83.1889 13.6372L83.1786 13.6631L83.1683 13.689L78.0908 23.699L78.0753 23.7353L78.0494 23.7664L78.0235 23.7923L77.9976 23.8182L77.9614 23.8389L77.9251 23.8492L77.8888 23.8596L77.8475 23.8647H75.2133V23.8646ZM64.8051 23.8646L64.7637 23.8595L64.7274 23.8491L64.6965 23.8336L64.6654 23.8128L64.6395 23.7818L64.6189 23.7507L64.6085 23.7146L64.6033 23.6784V23.6525L64.6085 23.6318L66.3061 13.617L66.3164 13.5705L66.3371 13.5239L66.3631 13.4877L66.3993 13.4515L66.4406 13.4256L66.482 13.4049L66.5286 13.3893L66.5804 13.3841H72.7601L72.7963 13.3893L72.8326 13.3997L72.8688 13.4152L72.8998 13.4359L72.9205 13.467L72.9412 13.498L72.9515 13.5343L72.9568 13.5705V13.5963V13.617L72.2167 15.4751L72.2063 15.5269L72.1856 15.5735L72.1546 15.6097L72.1236 15.646L72.0822 15.6718L72.0408 15.6925L71.989 15.708L71.9425 15.7133H68.687L68.4178 17.3177H71.8699L71.9062 17.3228L71.9425 17.3281L71.9787 17.3488L72.0097 17.3695L72.0304 17.4005L72.051 17.4316L72.0614 17.4678L72.0667 17.504V17.5299V17.5506L71.7509 19.3931L71.7354 19.4397L71.7197 19.4862L71.6887 19.5276L71.6577 19.5586L71.6163 19.5896L71.575 19.6104L71.5232 19.6207L71.4766 19.6259H68.0245L67.7036 21.5306H71.5801H71.6215L71.6577 21.541L71.6939 21.5565L71.7198 21.5824L71.7457 21.6083L71.7664 21.6393L71.7768 21.6756L71.782 21.7169V21.7376V21.7635L71.4662 23.6216L71.456 23.6733L71.4352 23.7147L71.4042 23.7561L71.3732 23.7923L71.3318 23.8234L71.2852 23.8441L71.2386 23.8596L71.1868 23.8647H64.8051V23.8646ZM39.16 23.8646L39.1238 23.8595L39.0824 23.8491L39.0514 23.8336L39.0203 23.8128L38.9944 23.7818L38.9789 23.7507L38.9634 23.7146L38.9582 23.6731V23.6525L38.9634 23.6318L40.6351 13.7515L40.6455 13.7101L40.661 13.6688L40.6869 13.6326L40.7128 13.5963L40.7491 13.5705L40.7853 13.5497L40.8216 13.529L40.8681 13.5187L41.2563 13.4669L41.6497 13.4203L42.0377 13.3841L42.4311 13.3531L42.8245 13.3324L43.2178 13.3169L43.6059 13.3116H43.9993L44.2632 13.3169L44.522 13.3273L44.7653 13.3428L44.9983 13.3635L45.2208 13.3946L45.4381 13.4309L45.6452 13.4722L45.8367 13.524L46.023 13.5809L46.199 13.643L46.3697 13.7103L46.5251 13.788L46.6027 13.8293L46.6751 13.8707L46.7425 13.9173L46.8149 13.9639L46.877 14.0104L46.9443 14.0622L47.0013 14.114L47.0634 14.1658L47.1256 14.2279L47.1825 14.29L47.2394 14.3573L47.2912 14.4246L47.343 14.492L47.3948 14.5592L47.4413 14.6317L47.4827 14.7041L47.5293 14.7766L47.5656 14.8542L47.6069 14.9267L47.638 15.0043L47.6742 15.0819L47.7001 15.1647L47.7311 15.2423L47.757 15.325L47.7777 15.4027L47.7984 15.4855L47.814 15.5683L47.8295 15.6511L47.8399 15.7339L47.8502 15.8219L47.8605 15.9047V15.9875L47.8658 16.0754V16.1583L47.8605 16.2462L47.8553 16.329L47.845 16.417L47.8346 16.4999L47.8191 16.5879L47.7984 16.6706L47.7674 16.857L47.726 17.0381L47.6794 17.2192L47.6224 17.3952L47.5552 17.5712L47.4827 17.742L47.4051 17.9129L47.3171 18.0732L47.224 18.2337L47.1205 18.389L47.0118 18.5443L46.8979 18.6893L46.7737 18.829L46.6495 18.9635L46.5149 19.0981L46.3701 19.2223L46.2718 19.2947L46.1735 19.362L46.0752 19.4294L45.9717 19.4967L45.7647 19.6209L45.5525 19.7348L45.3402 19.8383L45.1176 19.9314L44.8951 20.0194L44.6674 20.0919L44.4397 20.1592L44.2068 20.2161L43.9687 20.2627L43.7358 20.2989L43.4977 20.3248L43.2545 20.3403L43.1355 20.3455H43.0112H42.8922H42.7731L42.6282 20.3403L42.4885 20.3351L42.3591 20.3299L42.2349 20.3247L41.6655 23.6371L41.6552 23.6837L41.6396 23.7302L41.6137 23.7664L41.5827 23.8026L41.5414 23.8285L41.5 23.8492L41.4534 23.8596L41.4068 23.8647H39.16V23.8646ZM43.0573 15.532L42.6173 18.0991L42.7467 18.1095L42.8761 18.1199L43.0055 18.125H43.135H43.2385L43.3367 18.1199L43.4299 18.1095L43.5282 18.0991L43.6162 18.0888L43.7093 18.0732L43.7921 18.0526L43.8801 18.0318L43.9576 18.0059L44.0405 17.98L44.1181 17.949L44.1906 17.9179L44.263 17.8817L44.3304 17.8403L44.3976 17.8041L44.4598 17.7575L44.5219 17.711L44.5788 17.6644L44.6358 17.6126L44.6876 17.5609L44.7394 17.504L44.7859 17.4418L44.8273 17.3797L44.8687 17.3176L44.905 17.2503L44.9412 17.183L44.9722 17.1105L45.0032 17.038L45.0291 16.9656L45.0498 16.8879L45.0705 16.8052L45.086 16.7223L45.1016 16.6241L45.1068 16.5309V16.4429L45.1016 16.3602L45.0964 16.2826L45.0809 16.2101L45.0601 16.1428L45.0342 16.0755L45.0083 16.0186L44.9721 15.9616L44.9358 15.9099L44.8996 15.8581L44.8531 15.8167L44.8064 15.7753L44.7599 15.7339L44.7081 15.7028L44.6563 15.6718L44.5993 15.6407L44.5424 15.6148L44.4803 15.5942L44.3612 15.5579L44.2371 15.5268L44.1179 15.5061L43.9938 15.4957L43.8747 15.4853H43.766H43.59L43.4089 15.4957L43.2329 15.5112L43.0573 15.532ZM57.3419 23.8543L57.3005 23.8491L57.2643 23.8388L57.2333 23.8181L57.2022 23.7973L57.1763 23.7663L57.1608 23.7352L57.1452 23.6938L57.1401 23.6576L57.1452 23.6369V23.6214L57.4351 21.9393L57.5799 21.753L57.7249 21.5615L57.8593 21.3649L57.9888 21.1682L58.1079 20.9612L58.2217 20.7542L58.3304 20.5419L58.4339 20.3298L58.5271 20.1124L58.6099 19.8898L58.6875 19.6673L58.76 19.4395L58.8222 19.2117L58.8791 18.9789L58.9257 18.7459L58.967 18.5131L59.0033 18.3008L59.0343 18.0938L59.055 17.8816L59.0653 17.6694L59.0705 17.4624L59.0653 17.2502L59.055 17.038L59.0343 16.831L59.0033 16.624L58.967 16.4169L58.9204 16.2099L58.8686 16.008L58.8065 15.8062L58.7341 15.6043L58.6564 15.4076L58.5736 15.2161L58.8427 13.6169L58.8583 13.5703L58.879 13.5237L58.9049 13.4875L58.9411 13.4513L58.9825 13.4254L59.0239 13.4047L59.0704 13.3892L59.1222 13.3839H61.3944H61.4306L61.4668 13.3892L61.4979 13.4047L61.5288 13.4254L61.5547 13.4513L61.5754 13.4824L61.5858 13.5134L61.5962 13.5548V13.5858L61.5909 13.6169L60.2608 21.489H64.0028L64.0441 21.4942L64.0804 21.4994L64.1113 21.5149L64.1424 21.5356L64.1683 21.5615L64.1839 21.5925L64.1994 21.6287L64.2047 21.6649V21.6908V21.7167L63.8786 23.6213L63.863 23.6679L63.8423 23.7092L63.8164 23.7507L63.7801 23.7817L63.7439 23.8127L63.6974 23.8335L63.6507 23.849L63.5989 23.8543H57.3419V23.8543ZM56.048 13.6636L55.8513 14.0828L55.6495 14.5383L55.5512 14.7815L55.4477 15.0351L55.3441 15.2939L55.2459 15.5579L55.1423 15.8322L55.0491 16.1117L54.956 16.4015L54.8629 16.6914L54.7749 16.9915L54.6973 17.2969L54.6196 17.6126L54.5472 17.9284L54.485 18.2493L54.4281 18.5754L54.3763 18.9066L54.3349 19.2379L54.3039 19.5742L54.278 19.9158L54.2677 20.2574L54.2624 20.6041L54.2677 20.9508L54.2883 21.3028L54.3194 21.6548L54.366 22.0067L54.4229 22.3638L54.4954 22.7158L54.5834 23.073L54.6816 23.4249L54.8058 23.368L54.9249 23.3007L55.044 23.2386L55.163 23.1713L55.2769 23.0989L55.3907 23.0264L55.5046 22.9539L55.6133 22.8762L55.722 22.7935L55.8308 22.7107L55.9343 22.6279L56.0378 22.5399L56.1361 22.4519L56.2343 22.3588L56.3275 22.2656L56.4258 22.1725L56.5137 22.0742L56.6069 21.9707L56.6897 21.8723L56.7777 21.7688L56.8606 21.6602L56.9381 21.5514L57.0158 21.4428L57.0933 21.334L57.1659 21.2201L57.2383 21.1062L57.3056 20.9872L57.3677 20.8682L57.4298 20.7491L57.492 20.6249L57.549 20.5058L57.6008 20.3764L57.7042 20.1073L57.8026 19.8382L57.8854 19.5742L57.9579 19.3051L58.02 19.0411L58.0769 18.7772L58.1182 18.5132L58.1545 18.2544L58.1804 18.0008L58.1959 17.7471V17.4935V17.2503L58.1804 17.0071L58.1545 16.769L58.1182 16.5361L58.0769 16.3084L58.02 16.091L57.9579 15.8736L57.8854 15.6613L57.8026 15.4594L57.7093 15.2628L57.6058 15.0765L57.492 14.8954L57.373 14.7194L57.2384 14.5538L57.0986 14.3985L56.9486 14.2536L56.7881 14.1138L56.6173 13.9844L56.4362 13.8654L56.2499 13.7619L56.048 13.6636ZM27.0595 8.96411L26.4901 12.38L32.794 7.29761L49.9926 2.17891L24.187 7.50464L23.8714 9.4351L27.0595 8.96411ZM28.2602 2.11682L35.5164 4.36298L27.6133 6.00366L28.2602 2.11682Z" fill="white"/>
<path d="M55.1543 13.3735L54.8645 13.3218L54.5798 13.2803L54.2951 13.2544L54.0105 13.2441H53.731L53.4464 13.2597L53.172 13.2907L52.8926 13.332L52.6234 13.3838L52.3543 13.4512L52.0903 13.5288L51.8315 13.6168L51.5779 13.7203L51.3243 13.8289L51.0811 13.9531L50.843 14.0877L50.6101 14.2326L50.3875 14.3931L50.1701 14.5587L49.958 14.7347L49.7561 14.921L49.5646 15.1125L49.3783 15.3195L49.2023 15.5317L49.0367 15.7543L48.8763 15.9872L48.7313 16.2253L48.5968 16.4737L48.4725 16.7324L48.3587 16.9912L48.2552 17.2655L48.1672 17.5399L48.1 17.7676L48.043 17.9953L47.9861 18.223L47.9343 18.4507L47.8929 18.6837L47.8567 18.9166L47.8256 19.1494L47.7998 19.3824L47.9965 19.3254L48.25 19.2426L48.3949 19.1857L48.5554 19.1236L48.7313 19.0563L48.9177 18.9787L49.1091 18.8907L49.3161 18.7923L49.5336 18.6837L49.7561 18.5646L49.9942 18.4404L50.2322 18.3007L50.4808 18.1453L50.7344 17.985L50.9983 17.809L51.2622 17.6175L51.5313 17.4156L51.8057 17.1983L52.0799 16.9654L52.3594 16.7221L52.6441 16.4633L52.9236 16.1838L53.2082 15.894L53.4929 15.5887L53.7723 15.2626L54.0571 14.921L54.3365 14.5639L54.6108 14.186L54.8852 13.7875L55.1543 13.3735Z" fill="white"/>
<path d="M47.874 20.91L47.9 21.0342L47.931 21.1584L47.962 21.2826L47.9983 21.4016L48.0397 21.5207L48.081 21.6345L48.1328 21.7536L48.1846 21.8623L48.2415 21.9761L48.2985 22.0849L48.3606 22.1935L48.4279 22.297L48.4951 22.3953L48.5676 22.4988L48.6452 22.5921L48.7229 22.6903L48.8056 22.7783L48.8937 22.8715L48.9816 22.9543L49.0696 23.0372L49.1627 23.12L49.2611 23.1975L49.3594 23.2701L49.4629 23.3425L49.5664 23.4098L49.6752 23.4719L49.7839 23.534L49.8977 23.5909L50.0116 23.6426L50.1254 23.6944L50.2445 23.741L50.3635 23.7824L50.5498 23.8445L50.7413 23.8963L50.9277 23.9429L51.1192 23.9843L51.3158 24.0153L51.5074 24.0412L51.6989 24.0567L51.8955 24.067L52.0922 24.0723L52.2837 24.067L52.4804 24.0567L52.6718 24.036L52.8685 24.0101L53.06 23.9791L53.2515 23.9377L53.443 23.8912L53.3756 23.7307L53.2774 23.534L53.2205 23.4253L53.1532 23.3063L53.0807 23.1872L52.9979 23.0578L52.91 22.9284L52.8116 22.7991L52.7029 22.6593L52.5839 22.5247L52.4596 22.3902L52.3251 22.2556L52.175 22.1211L52.0198 21.9865L51.8541 21.8623L51.6781 21.7329L51.4866 21.6139L51.2848 21.5L51.0725 21.3965L50.85 21.2981L50.612 21.205L50.3635 21.1221L50.0996 21.0549L49.8252 20.9928L49.5355 20.9462L49.2352 20.91L48.9144 20.8893L48.5832 20.8789L48.2364 20.8893L47.8793 20.91H47.874Z" fill="white"/>
</g>
<defs>
<clipPath id="clip0_4083_5139">
<rect width="82.8096" height="28" fill="white" transform="translate(0.389648)"/>
</clipPath>
</defs>
</svg>
