<svg width="37" height="44" viewBox="0 0 37 44" fill="none" xmlns="http://www.w3.org/2000/svg">
<g clip-path="url(#clip0_4083_4883)">
<path d="M34.5537 5.09891C32.3412 4.89353 30.0429 4.75789 27.7018 4.75789C19.0195 4.75789 9.71146 6.62423 2.01637 13.6821V25.7458C2.01637 29.6749 3.46939 32.9559 6.23021 35.2062C8.66791 37.1896 16.1698 40.587 18.285 41.5205C20.3734 40.6011 27.856 37.2485 30.3366 35.2062C33.1147 32.9169 34.5537 29.7121 34.5537 25.7458V5.09891ZM3.60696 24.4905V14.693H6.72223V24.6287C6.72223 25.5129 6.93593 26.822 8.36464 26.822C8.8824 26.8429 9.39467 26.7093 9.83622 26.4381V14.693H12.9477V28.2149C11.5424 29.0919 9.9067 29.5278 8.25139 29.4664C5.16747 29.4664 3.60376 27.7926 3.60376 24.4905M17.6682 35.7993H14.551V15.4863C15.812 14.7119 17.2732 14.3262 18.7521 14.3775C22.4726 14.3775 24.5168 17.2004 24.5168 21.7438C24.5168 26.2871 22.5334 29.4126 19.072 29.4126C18.5982 29.4211 18.1257 29.3615 17.6689 29.2354L17.6682 35.7993ZM17.6682 26.6883C17.9919 26.8095 18.3342 26.8732 18.6798 26.8764C20.4713 26.8764 21.3299 25.2301 21.3299 21.8218C21.3299 18.3303 20.5807 16.8863 18.7706 16.8863C18.3909 16.8831 18.0147 16.9596 17.6663 17.1108L17.6682 26.6883ZM25.2232 18.4397C25.2427 17.3477 25.6934 16.3077 26.4768 15.5467C27.2603 14.7857 28.3129 14.3654 29.405 14.3775C30.6275 14.3127 31.8352 14.6701 32.8255 15.3897V18.1006C32.0915 17.3348 31.0933 16.8772 30.034 16.821C29.1504 16.8133 28.231 17.2017 28.2009 18.3099C28.1708 19.4443 29.0883 19.8921 30.2483 20.5742C32.8517 22.1046 33.3553 23.4802 33.2951 25.298C33.2356 27.291 31.8619 29.4676 28.7825 29.4676C27.5749 29.4541 26.3926 29.1203 25.3563 28.5002V25.6294C26.1796 26.3733 27.2284 26.8198 28.3353 26.8975C29.4786 26.9033 30.2311 26.2481 30.2042 25.161C30.1805 24.1827 29.6283 23.6511 28.2572 22.8455C25.6871 21.3381 25.2251 20.0975 25.2206 18.4397M5.1873 36.4768C2.03364 33.8939 0.370117 30.1823 0.370117 25.7458V4.65551C5.34726 2.01691 11.375 0.679688 18.285 0.679688C25.195 0.679688 31.2228 2.01691 36.1999 4.65551V25.7458C36.1999 30.1823 34.5364 33.8939 31.3827 36.4775C28.4997 38.841 19.3369 42.8609 18.285 43.3184C17.2332 42.8609 8.07032 38.841 5.1873 36.4768ZM29.7205 40.8973V42.7279H30.0506V41.9639H30.0973C30.1223 42.001 30.5945 42.7279 30.5945 42.7279H30.9944C30.9944 42.7279 30.4927 41.994 30.4415 41.9249C30.5559 41.9054 30.6596 41.8457 30.7338 41.7565C30.8081 41.6674 30.8481 41.5546 30.8466 41.4386C30.8481 41.3613 30.8328 41.2846 30.8017 41.2138C30.7706 41.143 30.7245 41.0798 30.6666 41.0286C30.6086 40.9774 30.5402 40.9394 30.4661 40.9173C30.392 40.8952 30.314 40.8895 30.2374 40.9005L29.7205 40.8973ZM30.2016 41.1648C30.4825 41.1648 30.5215 41.3023 30.5215 41.4207C30.5215 41.5922 30.4479 41.708 30.0941 41.708H30.0513V41.1635L30.2016 41.1648ZM31.4941 41.8174C31.4935 42.0624 31.4205 42.3017 31.284 42.5051C31.1476 42.7085 30.9539 42.867 30.7275 42.9604C30.5011 43.0539 30.2521 43.0781 30.0118 43.0301C29.7716 42.9821 29.5511 42.864 29.3779 42.6907C29.2048 42.5174 29.0869 42.2967 29.0392 42.0565C28.9914 41.8162 29.0159 41.5672 29.1096 41.3409C29.2033 41.1145 29.3619 40.921 29.5655 40.7848C29.7691 40.6486 30.0085 40.5758 30.2534 40.5755C30.4165 40.5753 30.578 40.6074 30.7287 40.6697C30.8794 40.7321 31.0163 40.8236 31.1315 40.939C31.2468 41.0543 31.3381 41.1913 31.4003 41.3421C31.4625 41.4928 31.4944 41.6543 31.4941 41.8174ZM30.2496 40.3106C29.9523 40.311 29.6618 40.3995 29.4147 40.5649C29.1676 40.7303 28.9751 40.9652 28.8615 41.2399C28.7479 41.5147 28.7182 41.8169 28.7763 42.1085C28.8343 42.4001 28.9775 42.668 29.1877 42.8783C29.3979 43.0885 29.6656 43.2318 29.9572 43.29C30.2488 43.3482 30.551 43.3186 30.8258 43.2051C31.1006 43.0916 31.3356 42.8992 31.5011 42.6522C31.6666 42.4052 31.7552 42.1147 31.7557 41.8174C31.7552 41.418 31.5964 41.0352 31.3141 40.7527C31.0318 40.4703 30.649 40.3113 30.2496 40.3106Z" fill="white"/>
</g>
<defs>
<clipPath id="clip0_4083_4883">
<rect width="35.8298" height="42.64" fill="white" transform="translate(0.370117 0.679688)"/>
</clipPath>
</defs>
</svg>
