<svg width="61" height="18" viewBox="0 0 61 18" fill="none" xmlns="http://www.w3.org/2000/svg">
<path fill-rule="evenodd" clip-rule="evenodd" d="M0.0585327 9.04507C0.0585327 10.2787 0.0734958 12.1112 0.0917728 13.1173L0.125013 14.9467L2.41406 14.9452C4.87363 14.9435 5.29692 14.9149 5.71443 14.7223C6.04798 14.5685 6.47704 14.1664 6.64866 13.847C7.0956 13.015 7.05161 11.8895 6.54242 11.1295C6.45595 11.0004 6.3852 10.8829 6.3852 10.8686C6.3852 10.8542 6.44009 10.77 6.50717 10.6814C6.78725 10.3114 6.94406 9.76851 6.9428 9.17315C6.94019 7.9662 6.2668 7.12555 5.10481 6.87868C4.82407 6.81904 4.28088 6.80381 2.40593 6.80311L0.0585327 6.80225V9.04507ZM7.69071 10.8745V14.9467H8.69494H9.69917V11.5574V8.16809H12.5863H15.4735V7.48517V6.80225H11.5821H7.69071V10.8745ZM16.0258 7.51046V8.21868H17.4505H18.8752L18.9122 9.63603C18.9325 10.4155 18.9324 11.9293 18.912 13.0001L18.8749 14.9467H19.8857H20.8964V11.5827V8.21868H22.3274H23.7584V7.51046V6.80225H19.8921H16.0258V7.51046ZM24.361 10.8745V14.9467H25.1644H25.9678V13.3328V11.7188L27.7628 11.6968C29.6722 11.6734 29.7915 11.6592 30.3074 11.3945C30.589 11.25 31.0161 10.8262 31.1916 10.5172C31.3722 10.1991 31.5416 9.56429 31.5404 9.20968C31.539 8.81556 31.4127 8.29987 31.2354 7.96463C31.0403 7.59601 30.746 7.31424 30.3409 7.1082C29.761 6.81327 29.6541 6.80381 26.8841 6.80301L24.361 6.80225V10.8745ZM32.2442 10.8745V14.9467H33.1731H34.1021V13.5826V12.2184L34.699 11.5971L35.2958 10.9757L35.3918 11.0952C35.4447 11.1608 36.0855 12.0529 36.8159 13.0775L38.1441 14.9403L39.0605 14.9435C39.5645 14.9453 39.9768 14.9332 39.9768 14.9166C39.9768 14.8753 39.9307 14.8101 38.4434 12.7462C36.9152 10.6258 36.462 9.97263 36.462 9.89058C36.462 9.85795 37.1322 9.14973 37.9513 8.31677L39.4406 6.80225H38.5218H37.6031L35.8651 8.53485L34.1272 10.2675L34.1139 8.53485L34.1007 6.80225H33.1725H32.2442V10.8745ZM29.4298 8.48644C29.7285 8.63577 29.8455 8.81065 29.8734 9.14933C29.9004 9.47799 29.7604 9.82537 29.5429 9.96949C29.3488 10.0981 28.3479 10.1555 27.0348 10.1134L25.9678 10.0792V9.23325C25.9678 8.768 25.9771 8.37783 25.9886 8.36624C26.0001 8.35466 26.7288 8.35182 27.6079 8.35997C29.1399 8.37413 29.2157 8.3794 29.4298 8.48644ZM4.68383 8.427C4.86931 8.46711 5.00443 8.53879 5.14708 8.67285C5.33066 8.84535 5.35014 8.88835 5.36776 9.16005C5.39377 9.56075 5.28195 9.76947 4.95076 9.93864C4.70517 10.064 4.69051 10.0653 3.18421 10.0805L1.66531 10.0959V9.23315V8.37044H3.04367C3.87025 8.37044 4.52682 8.3931 4.68383 8.427ZM4.74715 11.7136C4.8542 11.7436 5.0322 11.853 5.14277 11.9569C5.31494 12.1188 5.34728 12.1829 5.36847 12.4053C5.38207 12.5481 5.37961 12.7194 5.36299 12.7861C5.32649 12.9327 5.11209 13.1567 4.90501 13.2646C4.68936 13.377 3.57938 13.4401 2.53146 13.3997L1.66531 13.3663V12.5124V11.6586L3.10889 11.6589C3.98463 11.659 4.62905 11.6806 4.74715 11.7136Z" fill="white"/>
<path d="M42.3105 1.12587L42.907 0.529297C44.4482 0.529297 48.5148 0.767928 52.4522 1.72245C56.3896 2.67697 59.1637 5.00362 60.0585 6.04763C59.6111 6.44535 58.418 7.50925 57.2248 8.58309C56.9265 7.98651 55.7334 5.89849 51.4082 3.51218C47.9481 1.60314 43.9013 1.12587 42.3105 1.12587Z" fill="white"/>
<path d="M36.0029 1.8717L36.8336 1.12598C38.595 1.12598 43.2426 1.48834 47.7424 2.9378C52.2423 4.38726 55.4127 7.92033 56.4354 9.50567C55.924 10.1096 54.3687 11.4269 53.0051 13.0575C52.6642 12.1516 51.4923 9.2792 46.5493 5.65554C42.5948 2.75662 37.821 1.8717 36.0029 1.8717Z" fill="white"/>
<path d="M29.8871 2.31923L30.4837 1.72266C34.5106 1.72266 37.8139 2.24809 42.7408 4.3498C47.6677 6.45152 51.1389 11.5745 52.2587 13.8732C51.3638 14.6982 50.0215 15.8914 48.2318 17.8302C47.8586 16.5167 46.7404 11.3641 41.9678 7.09185C37.9691 3.51239 32.87 2.76667 29.8871 2.31923Z" fill="white"/>
</svg>
