<svg width="81" height="28" viewBox="0 0 81 28" fill="none" xmlns="http://www.w3.org/2000/svg">
<path d="M6.38416 0L5.01597 3.72321H23.9693L25.3375 0H6.38416ZM4.33268 5.58324L2.96449 9.30566H21.9178L23.286 5.58324H4.33268ZM2.28518 11.1665L0.916992 14.8881H19.8703L21.2369 11.1657C21.2377 11.1665 2.28518 11.1665 2.28518 11.1665Z" fill="white"/>
<path d="M40.7622 16.0587V16.136C41.6133 16.4462 42.4271 16.9891 42.8526 17.3379C44.1683 18.4238 44.7498 19.8577 44.7498 21.7185C44.7498 24.7828 43.1239 26.9916 40.4519 27.69C39.6382 27.9228 38.7871 28.0001 37.2001 28.0001H29.1104V5.58984H36.2726C37.7442 5.58984 38.7497 5.66718 39.6398 5.89919C42.2338 6.59759 43.9376 8.38107 43.9376 11.211C43.9376 12.7238 43.3959 14.0038 42.5058 14.856C42.1184 15.2435 41.5767 15.7091 40.7638 16.0579L40.7622 16.0587ZM33.6007 18.4238V24.3172H36.6982C37.6265 24.3172 38.4792 24.2398 39.0981 23.6582C39.7177 23.0766 39.9882 22.3396 39.9882 21.3705C39.9882 20.635 39.7941 19.9366 39.4075 19.4323C38.7497 18.6179 37.9359 18.4238 36.5431 18.4238H33.5999H33.6007ZM33.5609 14.5459H36.0777C36.8517 14.5459 37.2391 14.5459 37.6257 14.4299C38.6717 14.119 39.3296 13.1901 39.3296 11.9101C39.3296 10.3981 38.6327 9.7384 37.6257 9.42906C37.1993 9.31226 36.7746 9.27438 35.9226 9.27438H33.5609V14.5467V14.5459ZM51.4857 28.0009V9.35093H45.021V5.59063H62.9848L61.7073 9.35093H55.9768V28.0009H51.4857ZM64.3784 28.0009V5.59063H78.9353L77.6578 9.35093H68.8314V14.3147H72.4324C75.3358 14.3147 76.8456 15.0131 77.8916 15.904C78.7054 16.6024 80.0982 18.1523 80.0982 21.2166C80.0982 24.2406 78.6664 25.9073 77.4653 26.7612C76.0716 27.7294 74.6008 28.0017 71.6187 28.0017H64.3792H64.3784V28.0009ZM68.8306 24.239H72.1986C73.4761 24.239 74.25 23.9289 74.7917 23.2305C75.0622 22.8825 75.4496 22.2606 75.4496 21.0982C75.4496 19.9358 75.0622 19.1206 74.2882 18.539C73.8245 18.191 73.204 17.9976 72.1588 17.9976H68.829V24.239H68.8306Z" fill="white"/>
</svg>
