<svg width="155" height="40" viewBox="0 0 155 40" fill="none" xmlns="http://www.w3.org/2000/svg">
<g clip-path="url(#clip0_4083_5034)">
<path d="M33.3212 18.8722C33.3212 19.6022 33.3212 20.4172 33.383 21.3133C33.1415 20.523 32.85 19.7489 32.5101 18.9958L30.6136 14.8281H27.7051L27.454 19.1696C27.4227 19.9166 27.4395 20.6649 27.5043 21.4098C27.2968 20.6316 27.0388 19.8678 26.7318 19.1232L24.9048 14.8281H21.8457L26.4266 25.3225H29.7059L29.8295 21.2785C29.86 20.4219 29.8213 19.5642 29.7136 18.7138C30.0187 19.7103 30.3239 20.645 30.6445 21.3866L32.2899 25.3187H35.8048L36.2992 14.8281H33.3946L33.3212 18.8722Z" fill="white"/>
<path d="M48.0259 21.6303C43.4372 18.2699 41.73 12.0899 43.8428 10.2668C32.7343 3.51904 28.0375 8.95744 19.8104 7.82186C16.0676 7.30429 15.1754 4.38424 6.08692 5.05632L6.05216 5.02155C6.41523 4.70483 6.68947 3.82804 6.62767 3.11348C6.53936 2.27092 6.14641 1.48961 5.52265 0.916354C4.89889 0.343094 4.08726 0.0173443 3.24026 0.000309793C2.84001 -0.00560743 2.44304 0.0733027 2.07548 0.231847C1.70791 0.390392 1.37809 0.624976 1.10772 0.920163C0.837342 1.21535 0.632543 1.56445 0.506796 1.94448C0.381049 2.32452 0.337206 2.72687 0.378152 3.12507C0.41371 3.74058 0.624114 4.33317 0.984666 4.8333C1.34522 5.33342 1.84096 5.72031 2.41369 5.94855C2.58364 6.0258 10.2043 37.5013 11.0464 40.0003H13.2943L3.54154 4.56192L3.49132 4.51943C3.13354 4.48504 2.79895 4.32699 2.54515 4.07248C2.29135 3.81797 2.13422 3.48294 2.10083 3.12507C2.08162 2.94588 2.10076 2.76466 2.15695 2.59344C2.21314 2.42221 2.30511 2.26489 2.42675 2.13193C2.54839 1.99896 2.69692 1.89339 2.86248 1.82222C3.02805 1.75105 3.20685 1.7159 3.38704 1.71912C3.7698 1.72331 4.13738 1.86944 4.41854 2.1292C4.69971 2.38895 4.87443 2.74383 4.90886 3.12507C4.93401 3.3764 4.88392 3.62954 4.76495 3.85235C4.64598 4.07516 4.46349 4.2576 4.24065 4.37652V4.44604L15.2874 40.0003H17.7594C16.3766 35.8559 10.7799 19.5291 7.86753 10.7303L7.89843 10.6917C10.3009 14.1911 11.9772 17.2579 14.0359 22.4453C15.0672 25.0834 16.4732 30.4252 17.6821 33.9207L18.1997 33.38C18.8887 32.7724 19.7015 32.322 20.5819 32.0599C21.4623 31.7978 22.3891 31.7302 23.2982 31.862C25.0943 31.9625 24.9166 33.2603 28.2345 33.9169C32.348 34.728 34.8007 32.2212 39.3237 31.7191C46.7281 30.9003 53.36 33.9169 53.5106 33.886C53.5338 33.8358 53.0664 25.3035 48.0259 21.6303ZM38.5589 29.8149C33.5647 30.514 32.3519 32.2637 29.0224 32.0204C26.5581 31.8427 26.1294 30.1355 24.09 29.7029C22.2481 29.3223 20.332 29.5613 18.64 30.3827C14.9089 14.2259 7.60874 7.09185 7.60874 7.09185C13.7887 5.9331 15.0054 9.34755 20.9421 9.71835C28.698 10.1896 32.7497 6.29618 41.1854 10.8153C39.7254 13.9053 43.0355 19.9964 45.6852 21.8273C50.5906 25.2224 51.2897 31.1706 51.2742 31.2093C51.1622 31.2324 45.3724 28.8763 38.5589 29.8149ZM69.5438 24.0984L67.265 14.9057H64.314L62.1279 24.0984L59.9764 14.8323H56.8401L60.6871 28.1733H63.3214L65.7316 18.3047L68.219 28.1733H70.9266L74.5535 14.8323H71.5639L69.5438 24.0984ZM75.5809 18.4167H78.1958V28.1695H75.5809V18.4167ZM75.5423 14.8284H78.2345V17.1846H75.5423V14.8284ZM80.046 14.8284H82.6609V28.1695H80.046V14.8284ZM90.0614 18.1193C89.5032 18.1227 88.9534 18.2548 88.4546 18.5055C87.9188 18.7764 87.4573 19.1742 87.1105 19.6643V14.8284H84.4956V28.1695H87.1105V22.3062C87.1074 22.0308 87.1682 21.7585 87.2881 21.5105C87.3987 21.2787 87.5476 21.0672 87.7285 20.8848C87.9307 20.7105 88.1604 20.5708 88.4083 20.4715C88.6854 20.3654 88.9806 20.3142 89.2773 20.3209C89.4686 20.3133 89.6596 20.3435 89.8392 20.4098C90.0188 20.4761 90.1835 20.5771 90.3241 20.7071C90.5816 20.9646 90.7103 21.432 90.7103 22.1092V28.1695H93.3252V21.7268C93.3252 20.4805 93.0574 19.5677 92.5218 18.9883C91.9862 18.409 91.1661 18.1193 90.0614 18.1193ZM99.5709 18.1193C98.8946 18.1115 98.2227 18.2293 97.5894 18.4669C97.005 18.6877 96.4772 19.0361 96.0444 19.4866C95.6008 19.9556 95.2601 20.5121 95.044 21.1204C94.7968 21.825 94.6765 22.5678 94.6887 23.3143C94.6887 24.9598 95.0968 26.2305 95.9131 27.1266C96.7294 28.0227 97.9473 28.4708 99.567 28.4708C100.911 28.4708 101.941 28.1875 102.657 27.621C103.397 26.9804 103.865 26.0807 103.963 25.1065H101.421C101.233 25.9795 100.623 26.4159 99.5902 26.4159C99.2782 26.4388 98.965 26.3909 98.6741 26.2759C98.3832 26.1609 98.122 25.9816 97.91 25.7516C97.5199 25.2322 97.3146 24.5973 97.3268 23.9478H104.09V22.8817C104.09 21.4243 103.713 20.2655 102.958 19.4055C102.204 18.5454 101.075 18.1167 99.5709 18.1193ZM97.3461 22.2097C97.3559 21.9253 97.4134 21.6446 97.516 21.3792C97.6121 21.1303 97.755 20.9022 97.937 20.7071C98.1236 20.5088 98.35 20.3522 98.6014 20.2475C98.8919 20.1295 99.2033 20.0717 99.5168 20.0776C99.7996 20.0531 100.084 20.0906 100.351 20.1873C100.618 20.284 100.86 20.4377 101.062 20.6376C101.415 21.0813 101.591 21.6399 101.556 22.2058L97.3461 22.2097ZM105.589 14.8284H108.204V28.1695H105.589V14.8284ZM121.131 18.1193C120.559 18.1107 119.994 18.2434 119.486 18.5055C118.922 18.825 118.437 19.2656 118.065 19.7956C117.904 19.2791 117.568 18.835 117.114 18.5403C116.615 18.2642 116.054 18.1162 115.483 18.1094C114.913 18.1027 114.349 18.2375 113.843 18.5017C113.324 18.7934 112.888 19.2103 112.572 19.7145V18.4167H110.034V28.1695H112.649V22.3062C112.646 22.0329 112.7 21.7619 112.808 21.5105C112.907 21.2773 113.05 21.0649 113.229 20.8848C113.411 20.6937 113.631 20.5413 113.874 20.4368C114.103 20.3477 114.346 20.3031 114.592 20.3054C114.751 20.3045 114.909 20.3293 115.059 20.3788C115.21 20.4284 115.344 20.5194 115.446 20.6415C115.565 20.7931 115.65 20.9681 115.697 21.1552C115.766 21.433 115.797 21.7188 115.789 22.0049V28.1849H118.404V22.1903C118.403 21.9446 118.457 21.7017 118.563 21.4796C118.667 21.2572 118.81 21.0546 118.984 20.881C119.167 20.6898 119.386 20.5374 119.629 20.4329C119.858 20.3438 120.102 20.2993 120.347 20.3016C120.506 20.3007 120.664 20.3255 120.815 20.375C120.965 20.4247 121.099 20.5157 121.201 20.6376C121.32 20.7892 121.405 20.9643 121.452 21.1513C121.521 21.4291 121.552 21.715 121.545 22.0011V28.1811H124.16V21.6496C124.16 20.4033 123.902 19.502 123.387 18.9458C122.872 18.3896 122.12 18.1141 121.131 18.1193ZM133.495 23.3027C133.182 23.0202 132.818 22.8011 132.421 22.6577C131.871 22.4575 131.301 22.3138 130.722 22.229L129.486 22.0165C129.088 21.9738 128.703 21.8503 128.354 21.6535C128.254 21.5719 128.175 21.4669 128.124 21.3477C128.074 21.2285 128.053 21.0987 128.065 20.9698C128.068 20.8591 128.097 20.7507 128.149 20.6531C128.216 20.5311 128.313 20.4286 128.431 20.3557C128.598 20.2534 128.781 20.1802 128.972 20.1394C129.258 20.0773 129.549 20.0488 129.841 20.0544C130.315 20.0154 130.789 20.1262 131.197 20.3711C131.501 20.6229 131.709 20.9723 131.784 21.3599L134.102 21.0625C134.031 20.6623 133.909 20.2728 133.739 19.9037C133.566 19.5374 133.309 19.2171 132.989 18.969C132.607 18.6812 132.173 18.4689 131.711 18.3433C131.081 18.1754 130.431 18.0974 129.779 18.1115C129.202 18.106 128.626 18.1787 128.068 18.3278C127.595 18.4508 127.145 18.6532 126.74 18.9265C126.38 19.1731 126.083 19.4997 125.871 19.8806C125.661 20.2708 125.554 20.7083 125.562 21.1513C125.533 21.54 125.596 21.9299 125.748 22.2891C125.899 22.6483 126.133 22.9666 126.431 23.2178C127.218 23.7521 128.126 24.0826 129.073 24.1795L130.417 24.4036C130.771 24.4245 131.108 24.5601 131.379 24.7898C131.543 24.9673 131.632 25.2009 131.63 25.4426C131.645 25.5947 131.617 25.7481 131.548 25.8848C131.48 26.0216 131.374 26.1361 131.243 26.2151C130.824 26.4004 130.365 26.4799 129.907 26.4468C129.445 26.4588 128.986 26.3692 128.563 26.1842C128.356 26.0764 128.181 25.9169 128.054 25.7213C127.928 25.5256 127.854 25.3005 127.84 25.0679H125.338C125.35 25.6457 125.507 26.2113 125.793 26.7133C126.049 27.1376 126.401 27.4961 126.821 27.7601C127.257 28.0293 127.739 28.2165 128.242 28.3124C128.793 28.42 129.353 28.473 129.915 28.4708C131.372 28.4708 132.45 28.1939 133.148 27.6403C133.484 27.3798 133.754 27.0436 133.936 26.659C134.118 26.2744 134.206 25.8524 134.194 25.4271C134.201 25.0173 134.148 24.6087 134.036 24.2143C133.938 23.8686 133.752 23.5544 133.495 23.3027ZM140.042 18.1193C139.366 18.1115 138.694 18.2293 138.061 18.4669C137.476 18.6877 136.948 19.0361 136.516 19.4866C136.072 19.9556 135.731 20.5121 135.515 21.1204C135.268 21.825 135.148 22.5678 135.16 23.3143C135.16 24.9598 135.568 26.2305 136.384 27.1266C137.201 28.0227 138.419 28.4708 140.038 28.4708C141.382 28.4708 142.412 28.1875 143.128 27.621C143.874 26.983 144.347 26.083 144.449 25.1065H141.908C141.72 25.9795 141.109 26.4159 140.077 26.4159C139.765 26.4388 139.452 26.3909 139.161 26.2759C138.87 26.1609 138.609 25.9816 138.397 25.7516C137.995 25.2362 137.779 24.6009 137.783 23.9478H144.546V22.8817C144.546 21.4243 144.169 20.2655 143.414 19.4055C142.66 18.5454 141.536 18.1167 140.042 18.1193ZM137.817 22.2097C137.827 21.9253 137.885 21.6446 137.987 21.3792C138.083 21.1303 138.226 20.9022 138.408 20.7071C138.595 20.5088 138.821 20.3522 139.073 20.2475C139.363 20.1295 139.675 20.0717 139.988 20.0776C140.271 20.0531 140.555 20.0906 140.822 20.1873C141.089 20.284 141.332 20.4377 141.533 20.6376C141.886 21.0813 142.062 21.6399 142.027 22.2058L137.817 22.2097ZM154.075 18.9883C153.539 18.409 152.716 18.1193 151.606 18.1193C151.033 18.1177 150.467 18.25 149.953 18.5055C149.393 18.794 148.918 19.2258 148.578 19.757V18.4167H146.037V28.1695H148.652V22.3062C148.649 22.0308 148.709 21.7585 148.829 21.5105C148.94 21.2787 149.089 21.0672 149.27 20.8848C149.473 20.71 149.704 20.5704 149.953 20.4715C150.23 20.3654 150.526 20.3142 150.822 20.3209C151.014 20.3133 151.205 20.3435 151.384 20.4098C151.564 20.4761 151.729 20.5771 151.869 20.7071C152.127 20.9646 152.255 21.432 152.255 22.1092V28.1695H154.878V21.7268C154.878 20.4805 154.61 19.5677 154.075 18.9883Z" fill="white"/>
</g>
<defs>
<clipPath id="clip0_4083_5034">
<rect width="154.5" height="40" fill="white" transform="translate(0.37793)"/>
</clipPath>
</defs>
</svg>
