<svg width="73" height="21" viewBox="0 0 73 21" fill="none" xmlns="http://www.w3.org/2000/svg">
<circle cx="23" cy="16" r="1.5" transform="rotate(180 23 16)" stroke="#0FB56F" stroke-linecap="round" stroke-linejoin="round"/>
<path d="M21 16H10.6339C9.08783 16 7.68022 15.109 7.01862 13.7117L1 1" stroke="#0FB56F" stroke-linecap="round"/>
<path d="M29.688 13.416H30.592V15.768H31.56L32.552 14.024C32.6747 13.8053 32.8027 13.6507 32.936 13.56C33.0747 13.464 33.2427 13.416 33.44 13.416H33.864V14.216H33.36L32.56 15.624C32.4693 15.7787 32.384 15.8907 32.304 15.96C32.2293 16.0293 32.136 16.0827 32.024 16.12V16.16C32.152 16.1867 32.2613 16.232 32.352 16.296C32.4427 16.36 32.536 16.4773 32.632 16.648L33.52 18.2H34.008V19H33.456C33.28 19 33.128 18.9573 33 18.872C32.872 18.7813 32.744 18.624 32.616 18.4L31.56 16.56H30.592V19H29.688V13.416ZM36.9964 19.096C36.6338 19.096 36.3031 19.0347 36.0044 18.912C35.7111 18.784 35.4578 18.6 35.2444 18.36C35.0364 18.1147 34.8738 17.8133 34.7564 17.456C34.6444 17.0933 34.5884 16.6773 34.5884 16.208C34.5884 15.7387 34.6444 15.3253 34.7564 14.968C34.8738 14.6053 35.0364 14.304 35.2444 14.064C35.4578 13.8187 35.7111 13.6347 36.0044 13.512C36.3031 13.384 36.6338 13.32 36.9964 13.32C37.3591 13.32 37.6871 13.384 37.9804 13.512C38.2791 13.6347 38.5324 13.8187 38.7404 14.064C38.9538 14.304 39.1164 14.6053 39.2284 14.968C39.3458 15.3253 39.4044 15.7387 39.4044 16.208C39.4044 16.6773 39.3458 17.0933 39.2284 17.456C39.1164 17.8133 38.9538 18.1147 38.7404 18.36C38.5324 18.6 38.2791 18.784 37.9804 18.912C37.6871 19.0347 37.3591 19.096 36.9964 19.096ZM36.9964 18.288C37.2098 18.288 37.4044 18.2507 37.5804 18.176C37.7618 18.1013 37.9138 17.9947 38.0364 17.856C38.1644 17.712 38.2631 17.5387 38.3324 17.336C38.4018 17.1333 38.4364 16.904 38.4364 16.648V15.768C38.4364 15.512 38.4018 15.2827 38.3324 15.08C38.2631 14.8773 38.1644 14.7067 38.0364 14.568C37.9138 14.424 37.7618 14.3147 37.5804 14.24C37.4044 14.1653 37.2098 14.128 36.9964 14.128C36.7778 14.128 36.5804 14.1653 36.4044 14.24C36.2284 14.3147 36.0764 14.424 35.9484 14.568C35.8258 14.7067 35.7298 14.8773 35.6604 15.08C35.5911 15.2827 35.5564 15.512 35.5564 15.768V16.648C35.5564 16.904 35.5911 17.1333 35.6604 17.336C35.7298 17.5387 35.8258 17.712 35.9484 17.856C36.0764 17.9947 36.2284 18.1013 36.4044 18.176C36.5804 18.2507 36.7778 18.288 36.9964 18.288ZM43.9638 16.568H41.4358V19H40.5318V13.416H41.4358V15.768H43.9638V13.416H44.8678V19H43.9638V16.568ZM48.3147 14.216V19H47.4107V14.216H45.7467V13.416H49.9787V14.216H48.3147ZM53.8244 19L53.3204 17.488H51.2324L50.7444 19H49.8244L51.7284 13.416H52.8644L54.7684 19H53.8244ZM52.2964 14.248H52.2564L51.4484 16.712H53.0964L52.2964 14.248ZM55.6333 13.416H56.5373V15.768H57.5053L58.4973 14.024C58.62 13.8053 58.748 13.6507 58.8813 13.56C59.02 13.464 59.188 13.416 59.3853 13.416H59.8093V14.216H59.3053L58.5053 15.624C58.4146 15.7787 58.3293 15.8907 58.2493 15.96C58.1746 16.0293 58.0813 16.0827 57.9693 16.12V16.16C58.0973 16.1867 58.2066 16.232 58.2973 16.296C58.388 16.36 58.4813 16.4773 58.5773 16.648L59.4653 18.2H59.9533V19H59.4013C59.2253 19 59.0733 18.9573 58.9453 18.872C58.8173 18.7813 58.6893 18.624 58.5613 18.4L57.5053 16.56H56.5373V19H55.6333V13.416ZM63.0491 14.216V19H62.1451V14.216H60.4811V13.416H64.7131V14.216H63.0491ZM65.5943 13.416H66.4983V15.56H68.0583C68.5756 15.56 68.9756 15.7147 69.2583 16.024C69.5409 16.328 69.6823 16.7467 69.6823 17.28C69.6823 17.8133 69.5409 18.2347 69.2583 18.544C68.9756 18.848 68.5756 19 68.0583 19H65.5943V13.416ZM68.0023 18.208C68.2316 18.208 68.4103 18.1467 68.5383 18.024C68.6663 17.9013 68.7303 17.7173 68.7303 17.472V17.088C68.7303 16.8427 68.6663 16.6587 68.5383 16.536C68.4103 16.4133 68.2316 16.352 68.0023 16.352H66.4983V18.208H68.0023ZM70.5143 13.416H71.4183V19H70.5143V13.416Z" fill="#0FB56F"/>
</svg>
