<svg width="212" height="75" viewBox="0 0 212 75" fill="none" xmlns="http://www.w3.org/2000/svg">
<circle cx="96.6439" cy="67.7933" r="2.66146" transform="rotate(180 96.6439 67.7933)" stroke="#0FB56F" stroke-width="0.760417" stroke-linecap="round" stroke-linejoin="round"/>
<path d="M93.6016 67.793H45.1311C38.1779 67.793 31.8288 63.8419 28.7577 57.6036L0.83073 0.876306" stroke="#0FB56F" stroke-linecap="round"/>
<path d="M116.443 57.2612H118.477V62.5532H120.655L122.887 58.6292C123.163 58.1372 123.451 57.7892 123.751 57.5852C124.063 57.3692 124.441 57.2612 124.885 57.2612H125.839V59.0612H124.705L122.905 62.2292C122.701 62.5772 122.509 62.8292 122.329 62.9852C122.161 63.1412 121.951 63.2612 121.699 63.3452V63.4352C121.987 63.4952 122.233 63.5972 122.437 63.7412C122.641 63.8852 122.851 64.1492 123.067 64.5332L125.065 68.0252H126.163V69.8252H124.921C124.525 69.8252 124.183 69.7292 123.895 69.5372C123.607 69.3332 123.319 68.9792 123.031 68.4752L120.655 64.3352H118.477V69.8252H116.443V57.2612ZM132.887 70.0412C132.071 70.0412 131.327 69.9032 130.655 69.6272C129.995 69.3392 129.425 68.9252 128.945 68.3852C128.477 67.8332 128.111 67.1552 127.847 66.3512C127.595 65.5352 127.469 64.5992 127.469 63.5432C127.469 62.4872 127.595 61.5572 127.847 60.7532C128.111 59.9372 128.477 59.2592 128.945 58.7192C129.425 58.1672 129.995 57.7532 130.655 57.4772C131.327 57.1892 132.071 57.0452 132.887 57.0452C133.703 57.0452 134.441 57.1892 135.101 57.4772C135.773 57.7532 136.343 58.1672 136.811 58.7192C137.291 59.2592 137.657 59.9372 137.909 60.7532C138.173 61.5572 138.305 62.4872 138.305 63.5432C138.305 64.5992 138.173 65.5352 137.909 66.3512C137.657 67.1552 137.291 67.8332 136.811 68.3852C136.343 68.9252 135.773 69.3392 135.101 69.6272C134.441 69.9032 133.703 70.0412 132.887 70.0412ZM132.887 68.2232C133.367 68.2232 133.805 68.1392 134.201 67.9712C134.609 67.8032 134.951 67.5632 135.227 67.2512C135.515 66.9272 135.737 66.5372 135.893 66.0812C136.049 65.6252 136.127 65.1092 136.127 64.5332V62.5532C136.127 61.9772 136.049 61.4612 135.893 61.0052C135.737 60.5492 135.515 60.1652 135.227 59.8532C134.951 59.5292 134.609 59.2832 134.201 59.1152C133.805 58.9472 133.367 58.8632 132.887 58.8632C132.395 58.8632 131.951 58.9472 131.555 59.1152C131.159 59.2832 130.817 59.5292 130.529 59.8532C130.253 60.1652 130.037 60.5492 129.881 61.0052C129.725 61.4612 129.647 61.9772 129.647 62.5532V64.5332C129.647 65.1092 129.725 65.6252 129.881 66.0812C130.037 66.5372 130.253 66.9272 130.529 67.2512C130.817 67.5632 131.159 67.8032 131.555 67.9712C131.951 68.1392 132.395 68.2232 132.887 68.2232ZM148.563 64.3532H142.875V69.8252H140.841V57.2612H142.875V62.5532H148.563V57.2612H150.597V69.8252H148.563V64.3532ZM158.353 59.0612V69.8252H156.319V59.0612H152.575V57.2612H162.097V59.0612H158.353ZM170.75 69.8252L169.616 66.4232H164.918L163.82 69.8252H161.75L166.034 57.2612H168.59L172.874 69.8252H170.75ZM167.312 59.1332H167.222L165.404 64.6772H169.112L167.312 59.1332ZM174.819 57.2612H176.853V62.5532H179.031L181.263 58.6292C181.539 58.1372 181.827 57.7892 182.127 57.5852C182.439 57.3692 182.817 57.2612 183.261 57.2612H184.215V59.0612H183.081L181.281 62.2292C181.077 62.5772 180.885 62.8292 180.705 62.9852C180.537 63.1412 180.327 63.2612 180.075 63.3452V63.4352C180.363 63.4952 180.609 63.5972 180.813 63.7412C181.017 63.8852 181.227 64.1492 181.443 64.5332L183.441 68.0252H184.539V69.8252H183.297C182.901 69.8252 182.559 69.7292 182.271 69.5372C181.983 69.3332 181.695 68.9792 181.407 68.4752L179.031 64.3352H176.853V69.8252H174.819V57.2612ZM191.505 59.0612V69.8252H189.471V59.0612H185.727V57.2612H195.249V59.0612H191.505ZM197.232 57.2612H199.266V62.0852H202.776C203.94 62.0852 204.84 62.4332 205.476 63.1292C206.112 63.8132 206.43 64.7552 206.43 65.9552C206.43 67.1552 206.112 68.1032 205.476 68.7992C204.84 69.4832 203.94 69.8252 202.776 69.8252H197.232V57.2612ZM202.65 68.0432C203.166 68.0432 203.568 67.9052 203.856 67.6292C204.144 67.3532 204.288 66.9392 204.288 66.3872V65.5232C204.288 64.9712 204.144 64.5572 203.856 64.2812C203.568 64.0052 203.166 63.8672 202.65 63.8672H199.266V68.0432H202.65ZM208.302 57.2612H210.336V69.8252H208.302V57.2612Z" fill="#0FB56F"/>
</svg>
