<svg width="194" height="53" viewBox="0 0 194 53" fill="none" xmlns="http://www.w3.org/2000/svg">
<circle cx="3.04167" cy="3.04167" r="2.66146" transform="matrix(1 0 0 -1 93.8652 48.6572)" stroke="#0FB56F" stroke-width="0.760417" stroke-linecap="round" stroke-linejoin="round"/>
<path d="M99.9492 45.6152H150.536C156.345 45.6152 161.808 42.8493 165.246 38.1667L192.72 0.750653" stroke="#0FB56F" stroke-linecap="round"/>
<path d="M6.48222 47.8635C5.66622 47.8635 4.92222 47.7255 4.25022 47.4495C3.59022 47.1615 3.02022 46.7475 2.54022 46.2075C2.07222 45.6555 1.70622 44.9775 1.44222 44.1735C1.19022 43.3575 1.06422 42.4215 1.06422 41.3655C1.06422 40.3095 1.19022 39.3795 1.44222 38.5755C1.70622 37.7595 2.07222 37.0815 2.54022 36.5415C3.02022 35.9895 3.59022 35.5755 4.25022 35.2995C4.92222 35.0115 5.66622 34.8675 6.48222 34.8675C7.29822 34.8675 8.03622 35.0115 8.69622 35.2995C9.36822 35.5755 9.93822 35.9895 10.4062 36.5415C10.8862 37.0815 11.2522 37.7595 11.5042 38.5755C11.7682 39.3795 11.9002 40.3095 11.9002 41.3655C11.9002 42.4215 11.7682 43.3575 11.5042 44.1735C11.2522 44.9775 10.8862 45.6555 10.4062 46.2075C9.93822 46.7475 9.36822 47.1615 8.69622 47.4495C8.03622 47.7255 7.29822 47.8635 6.48222 47.8635ZM6.48222 46.0455C6.96222 46.0455 7.40022 45.9615 7.79622 45.7935C8.20422 45.6255 8.54622 45.3855 8.82222 45.0735C9.11022 44.7495 9.33222 44.3595 9.48822 43.9035C9.64422 43.4475 9.72222 42.9315 9.72222 42.3555V40.3755C9.72222 39.7995 9.64422 39.2835 9.48822 38.8275C9.33222 38.3715 9.11022 37.9875 8.82222 37.6755C8.54622 37.3515 8.20422 37.1055 7.79622 36.9375C7.40022 36.7695 6.96222 36.6855 6.48222 36.6855C5.99022 36.6855 5.54622 36.7695 5.15022 36.9375C4.75422 37.1055 4.41222 37.3515 4.12422 37.6755C3.84822 37.9875 3.63222 38.3715 3.47622 38.8275C3.32022 39.2835 3.24222 39.7995 3.24222 40.3755V42.3555C3.24222 42.9315 3.32022 43.4475 3.47622 43.9035C3.63222 44.3595 3.84822 44.7495 4.12422 45.0735C4.41222 45.3855 4.75422 45.6255 5.15022 45.7935C5.54622 45.9615 5.99022 46.0455 6.48222 46.0455ZM14.4367 35.0835H16.4707V45.8475H20.7547V35.0835H22.7887V45.8475H27.0727V35.0835H29.1067V47.6475H14.4367V35.0835ZM32.2082 35.0835H34.1882V42.2295L33.9902 44.8215H34.0442L35.3042 42.4995L40.1282 35.0835H41.9642V47.6475H39.9842V40.5015L40.1822 37.9095H40.1282L38.8682 40.2315L34.0442 47.6475H32.2082V35.0835ZM45.0578 35.0835H53.0858V36.8835H47.0918V40.0155H50.6018C51.7658 40.0155 52.6658 40.3635 53.3018 41.0595C53.9378 41.7435 54.2558 42.6675 54.2558 43.8315C54.2558 44.9955 53.9378 45.9255 53.3018 46.6215C52.6658 47.3055 51.7658 47.6475 50.6018 47.6475H45.0578V35.0835ZM50.4758 45.8655C50.9918 45.8655 51.3938 45.7275 51.6818 45.4515C51.9698 45.1755 52.1138 44.7615 52.1138 44.2095V43.4535C52.1138 42.9015 51.9698 42.4875 51.6818 42.2115C51.3938 41.9355 50.9918 41.7975 50.4758 41.7975H47.0918V45.8655H50.4758ZM56.6593 35.0835H58.6933V40.3755H60.8713L63.1033 36.4515C63.3793 35.9595 63.6673 35.6115 63.9673 35.4075C64.2793 35.1915 64.6573 35.0835 65.1013 35.0835H66.0553V36.8835H64.9213L63.1213 40.0515C62.9173 40.3995 62.7253 40.6515 62.5453 40.8075C62.3773 40.9635 62.1673 41.0835 61.9153 41.1675V41.2575C62.2033 41.3175 62.4493 41.4195 62.6533 41.5635C62.8573 41.7075 63.0673 41.9715 63.2833 42.3555L65.2813 45.8475H66.3793V47.6475H65.1373C64.7413 47.6475 64.3993 47.5515 64.1113 47.3595C63.8233 47.1555 63.5353 46.8015 63.2473 46.2975L60.8713 42.1575H58.6933V47.6475H56.6593V35.0835ZM76.5308 47.6475L75.3968 44.2455H70.6988L69.6008 47.6475H67.5308L71.8148 35.0835H74.3708L78.6548 47.6475H76.5308ZM73.0928 36.9555H73.0028L71.1848 42.4995H74.8928L73.0928 36.9555Z" fill="#0FB56F"/>
</svg>
