<svg width="41" height="27" viewBox="0 0 41 27" fill="none" xmlns="http://www.w3.org/2000/svg">
<circle cx="2" cy="2" r="1.5" transform="matrix(1 0 0 -1 16 13)" stroke="#0FB56F" stroke-linecap="round" stroke-linejoin="round"/>
<path d="M20 11H30.8326C32.1282 11 33.3436 10.3725 34.0938 9.31613L40 1" stroke="#0FB56F" stroke-linecap="round"/>
<path d="M3.74644 25.096C3.38377 25.096 3.0531 25.0347 2.75444 24.912C2.4611 24.784 2.20777 24.6 1.99444 24.36C1.78644 24.1147 1.62377 23.8133 1.50644 23.456C1.39444 23.0933 1.33844 22.6773 1.33844 22.208C1.33844 21.7387 1.39444 21.3253 1.50644 20.968C1.62377 20.6053 1.78644 20.304 1.99444 20.064C2.20777 19.8187 2.4611 19.6347 2.75444 19.512C3.0531 19.384 3.38377 19.32 3.74644 19.32C4.1091 19.32 4.4371 19.384 4.73044 19.512C5.0291 19.6347 5.28244 19.8187 5.49044 20.064C5.70377 20.304 5.86644 20.6053 5.97844 20.968C6.09577 21.3253 6.15444 21.7387 6.15444 22.208C6.15444 22.6773 6.09577 23.0933 5.97844 23.456C5.86644 23.8133 5.70377 24.1147 5.49044 24.36C5.28244 24.6 5.0291 24.784 4.73044 24.912C4.4371 25.0347 4.1091 25.096 3.74644 25.096ZM3.74644 24.288C3.95977 24.288 4.15444 24.2507 4.33044 24.176C4.51177 24.1013 4.66377 23.9947 4.78644 23.856C4.91444 23.712 5.0131 23.5387 5.08244 23.336C5.15177 23.1333 5.18644 22.904 5.18644 22.648V21.768C5.18644 21.512 5.15177 21.2827 5.08244 21.08C5.0131 20.8773 4.91444 20.7067 4.78644 20.568C4.66377 20.424 4.51177 20.3147 4.33044 20.24C4.15444 20.1653 3.95977 20.128 3.74644 20.128C3.52777 20.128 3.33044 20.1653 3.15444 20.24C2.97844 20.3147 2.82644 20.424 2.69844 20.568C2.57577 20.7067 2.47977 20.8773 2.41044 21.08C2.3411 21.2827 2.30644 21.512 2.30644 21.768V22.648C2.30644 22.904 2.3411 23.1333 2.41044 23.336C2.47977 23.5387 2.57577 23.712 2.69844 23.856C2.82644 23.9947 2.97844 24.1013 3.15444 24.176C3.33044 24.2507 3.52777 24.288 3.74644 24.288ZM7.28175 19.416H8.18575V24.2H10.0898V19.416H10.9938V24.2H12.8978V19.416H13.8018V25H7.28175V19.416ZM15.1802 19.416H16.0602V22.592L15.9722 23.744H15.9962L16.5562 22.712L18.7002 19.416H19.5162V25H18.6362V21.824L18.7242 20.672H18.7002L18.1402 21.704L15.9962 25H15.1802V19.416ZM20.8911 19.416H24.4591V20.216H21.7951V21.608H23.3551C23.8725 21.608 24.2725 21.7627 24.5551 22.072C24.8378 22.376 24.9791 22.7867 24.9791 23.304C24.9791 23.8213 24.8378 24.2347 24.5551 24.544C24.2725 24.848 23.8725 25 23.3551 25H20.8911V19.416ZM23.2991 24.208C23.5285 24.208 23.7071 24.1467 23.8351 24.024C23.9631 23.9013 24.0271 23.7173 24.0271 23.472V23.136C24.0271 22.8907 23.9631 22.7067 23.8351 22.584C23.7071 22.4613 23.5285 22.4 23.2991 22.4H21.7951V24.208H23.2991ZM26.0474 19.416H26.9514V21.768H27.9194L28.9114 20.024C29.034 19.8053 29.162 19.6507 29.2954 19.56C29.434 19.464 29.602 19.416 29.7994 19.416H30.2234V20.216H29.7194L28.9194 21.624C28.8287 21.7787 28.7434 21.8907 28.6634 21.96C28.5887 22.0293 28.4954 22.0827 28.3834 22.12V22.16C28.5114 22.1867 28.6207 22.232 28.7114 22.296C28.802 22.36 28.8954 22.4773 28.9914 22.648L29.8794 24.2H30.3674V25H29.8154C29.6394 25 29.4874 24.9573 29.3594 24.872C29.2314 24.7813 29.1034 24.624 28.9754 24.4L27.9194 22.56H26.9514V25H26.0474V19.416ZM34.8791 25L34.3751 23.488H32.2871L31.7991 25H30.8791L32.7831 19.416H33.9191L35.8231 25H34.8791ZM33.3511 20.248H33.3111L32.5031 22.712H34.1511L33.3511 20.248Z" fill="#0FB56F"/>
</svg>
