<svg width="201" height="83" viewBox="0 0 201 83" fill="none" xmlns="http://www.w3.org/2000/svg">
<circle cx="104.294" cy="15.3356" r="2.66146" stroke="#0FB56F" stroke-width="0.760417" stroke-linecap="round" stroke-linejoin="round"/>
<path d="M107.336 15.3359H155.806C162.76 15.3359 169.109 19.287 172.18 25.5253L200.107 82.2526" stroke="#0FB56F" stroke-linecap="round"/>
<path d="M2.16909 6.3237H11.6551V18.8877H9.62109V8.12369H4.20309V18.8877H2.16909V6.3237ZM14.755 18.8877V6.3237H20.155C21.319 6.3237 22.219 6.66569 22.855 7.34969C23.491 8.03369 23.809 8.95169 23.809 10.1037C23.809 11.2557 23.491 12.1737 22.855 12.8577C22.219 13.5417 21.319 13.8837 20.155 13.8837H16.789V18.8877H14.755ZM16.789 12.1017H20.029C20.545 12.1017 20.947 11.9697 21.235 11.7057C21.523 11.4297 21.667 11.0397 21.667 10.5357V9.67169C21.667 9.16769 21.523 8.78369 21.235 8.51969C20.947 8.24369 20.545 8.10569 20.029 8.10569H16.789V12.1017ZM30.9002 19.1037C30.0842 19.1037 29.3402 18.9657 28.6682 18.6897C28.0082 18.4017 27.4382 17.9877 26.9582 17.4477C26.4902 16.8957 26.1242 16.2177 25.8602 15.4137C25.6082 14.5977 25.4822 13.6617 25.4822 12.6057C25.4822 11.5497 25.6082 10.6197 25.8602 9.8157C26.1242 8.99969 26.4902 8.32169 26.9582 7.78169C27.4382 7.22969 28.0082 6.81569 28.6682 6.53969C29.3402 6.25169 30.0842 6.10769 30.9002 6.10769C31.7162 6.10769 32.4542 6.25169 33.1142 6.53969C33.7862 6.81569 34.3562 7.22969 34.8242 7.78169C35.3042 8.32169 35.6702 8.99969 35.9222 9.8157C36.1862 10.6197 36.3182 11.5497 36.3182 12.6057C36.3182 13.6617 36.1862 14.5977 35.9222 15.4137C35.6702 16.2177 35.3042 16.8957 34.8242 17.4477C34.3562 17.9877 33.7862 18.4017 33.1142 18.6897C32.4542 18.9657 31.7162 19.1037 30.9002 19.1037ZM30.9002 17.2857C31.3802 17.2857 31.8182 17.2017 32.2142 17.0337C32.6222 16.8657 32.9642 16.6257 33.2402 16.3137C33.5282 15.9897 33.7502 15.5997 33.9062 15.1437C34.0622 14.6877 34.1402 14.1717 34.1402 13.5957V11.6157C34.1402 11.0397 34.0622 10.5237 33.9062 10.0677C33.7502 9.6117 33.5282 9.2277 33.2402 8.91569C32.9642 8.59169 32.6222 8.34569 32.2142 8.17769C31.8182 8.00969 31.3802 7.92569 30.9002 7.92569C30.4082 7.92569 29.9642 8.00969 29.5682 8.17769C29.1722 8.34569 28.8302 8.59169 28.5422 8.91569C28.2662 9.2277 28.0502 9.6117 27.8942 10.0677C27.7382 10.5237 27.6602 11.0397 27.6602 11.6157V13.5957C27.6602 14.1717 27.7382 14.6877 27.8942 15.1437C28.0502 15.5997 28.2662 15.9897 28.5422 16.3137C28.8302 16.6257 29.1722 16.8657 29.5682 17.0337C29.9642 17.2017 30.4082 17.2857 30.9002 17.2857ZM38.8546 18.8877V6.3237H46.9006V8.12369H40.8886V11.6157H46.3426V13.4157H40.8886V17.0877H46.9006V18.8877H38.8546ZM49.5246 6.3237H51.5586V11.6157H53.7366L55.9686 7.69169C56.2446 7.19969 56.5326 6.85169 56.8326 6.6477C57.1446 6.4317 57.5226 6.3237 57.9666 6.3237H58.9206V8.12369H57.7866L55.9866 11.2917C55.7826 11.6397 55.5906 11.8917 55.4106 12.0477C55.2426 12.2037 55.0326 12.3237 54.7806 12.4077V12.4977C55.0686 12.5577 55.3146 12.6597 55.5186 12.8037C55.7226 12.9477 55.9326 13.2117 56.1486 13.5957L58.1466 17.0877H59.2446V18.8877H58.0026C57.6066 18.8877 57.2646 18.7917 56.9766 18.5997C56.6886 18.3957 56.4006 18.0417 56.1126 17.5377L53.7366 13.3977H51.5586V18.8877H49.5246V6.3237ZM66.21 8.12369V18.8877H64.176V8.12369H60.432V6.3237H69.954V8.12369H66.21ZM71.9367 6.3237H73.9707V11.1477H77.4807C78.6447 11.1477 79.5447 11.4957 80.1807 12.1917C80.8167 12.8757 81.1347 13.8177 81.1347 15.0177C81.1347 16.2177 80.8167 17.1657 80.1807 17.8617C79.5447 18.5457 78.6447 18.8877 77.4807 18.8877H71.9367V6.3237ZM77.3547 17.1057C77.8707 17.1057 78.2727 16.9677 78.5607 16.6917C78.8487 16.4157 78.9927 16.0017 78.9927 15.4497V14.5857C78.9927 14.0337 78.8487 13.6197 78.5607 13.3437C78.2727 13.0677 77.8707 12.9297 77.3547 12.9297H73.9707V17.1057H77.3547ZM83.0067 6.3237H85.0407V18.8877H83.0067V6.3237Z" fill="#0FB56F"/>
</svg>
