<svg width="201" height="75" viewBox="0 0 201 75" fill="none" xmlns="http://www.w3.org/2000/svg">
<circle cx="3.04167" cy="3.04167" r="2.66146" transform="matrix(1 0 0 -1 101.012 70.8975)" stroke="#0FB56F" stroke-width="0.760417" stroke-linecap="round" stroke-linejoin="round"/>
<path d="M107.096 67.8555H155.566C162.519 67.8555 168.868 63.9044 171.94 57.6661L199.867 0.938806" stroke="#0FB56F" stroke-linecap="round"/>
<path d="M1.92691 57.3227H11.4129V69.8867H9.37891V59.1227H3.96091V69.8867H1.92691V57.3227ZM14.5128 69.8867V57.3227H19.9128C21.0768 57.3227 21.9768 57.6647 22.6128 58.3487C23.2488 59.0327 23.5668 59.9507 23.5668 61.1027C23.5668 62.2547 23.2488 63.1727 22.6128 63.8567C21.9768 64.5407 21.0768 64.8827 19.9128 64.8827H16.5468V69.8867H14.5128ZM16.5468 63.1007H19.7868C20.3028 63.1007 20.7048 62.9687 20.9928 62.7047C21.2808 62.4287 21.4248 62.0387 21.4248 61.5347V60.6707C21.4248 60.1667 21.2808 59.7827 20.9928 59.5187C20.7048 59.2427 20.3028 59.1047 19.7868 59.1047H16.5468V63.1007ZM30.658 70.1027C29.842 70.1027 29.098 69.9647 28.426 69.6887C27.766 69.4007 27.196 68.9867 26.716 68.4467C26.248 67.8947 25.882 67.2167 25.618 66.4127C25.366 65.5967 25.24 64.6607 25.24 63.6047C25.24 62.5487 25.366 61.6187 25.618 60.8147C25.882 59.9987 26.248 59.3207 26.716 58.7807C27.196 58.2287 27.766 57.8147 28.426 57.5387C29.098 57.2507 29.842 57.1067 30.658 57.1067C31.474 57.1067 32.212 57.2507 32.872 57.5387C33.544 57.8147 34.114 58.2287 34.582 58.7807C35.062 59.3207 35.428 59.9987 35.68 60.8147C35.944 61.6187 36.076 62.5487 36.076 63.6047C36.076 64.6607 35.944 65.5967 35.68 66.4127C35.428 67.2167 35.062 67.8947 34.582 68.4467C34.114 68.9867 33.544 69.4007 32.872 69.6887C32.212 69.9647 31.474 70.1027 30.658 70.1027ZM30.658 68.2847C31.138 68.2847 31.576 68.2007 31.972 68.0327C32.38 67.8647 32.722 67.6247 32.998 67.3127C33.286 66.9887 33.508 66.5987 33.664 66.1427C33.82 65.6867 33.898 65.1707 33.898 64.5947V62.6147C33.898 62.0387 33.82 61.5227 33.664 61.0667C33.508 60.6107 33.286 60.2267 32.998 59.9147C32.722 59.5907 32.38 59.3447 31.972 59.1767C31.576 59.0087 31.138 58.9247 30.658 58.9247C30.166 58.9247 29.722 59.0087 29.326 59.1767C28.93 59.3447 28.588 59.5907 28.3 59.9147C28.024 60.2267 27.808 60.6107 27.652 61.0667C27.496 61.5227 27.418 62.0387 27.418 62.6147V64.5947C27.418 65.1707 27.496 65.6867 27.652 66.1427C27.808 66.5987 28.024 66.9887 28.3 67.3127C28.588 67.6247 28.93 67.8647 29.326 68.0327C29.722 68.2007 30.166 68.2847 30.658 68.2847ZM38.6125 69.8867V57.3227H46.6585V59.1227H40.6465V62.6147H46.1005V64.4147H40.6465V68.0867H46.6585V69.8867H38.6125ZM49.2824 57.3227H51.3164V62.6147H53.4944L55.7264 58.6907C56.0024 58.1987 56.2904 57.8507 56.5904 57.6467C56.9024 57.4307 57.2804 57.3227 57.7244 57.3227H58.6784V59.1227H57.5444L55.7444 62.2907C55.5404 62.6387 55.3484 62.8907 55.1684 63.0467C55.0004 63.2027 54.7904 63.3227 54.5384 63.4067V63.4967C54.8264 63.5567 55.0724 63.6587 55.2764 63.8027C55.4804 63.9467 55.6904 64.2107 55.9064 64.5947L57.9044 68.0867H59.0024V69.8867H57.7604C57.3644 69.8867 57.0224 69.7907 56.7344 69.5987C56.4464 69.3947 56.1584 69.0407 55.8704 68.5367L53.4944 64.3967H51.3164V69.8867H49.2824V57.3227ZM65.9678 59.1227V69.8867H63.9338V59.1227H60.1898V57.3227H69.7118V59.1227H65.9678ZM71.6945 57.3227H73.7285V62.1467H77.2385C78.4025 62.1467 79.3025 62.4947 79.9385 63.1907C80.5745 63.8747 80.8925 64.8167 80.8925 66.0167C80.8925 67.2167 80.5745 68.1647 79.9385 68.8607C79.3025 69.5447 78.4025 69.8867 77.2385 69.8867H71.6945V57.3227ZM77.1125 68.1047C77.6285 68.1047 78.0305 67.9667 78.3185 67.6907C78.6065 67.4147 78.7505 67.0007 78.7505 66.4487V65.5847C78.7505 65.0327 78.6065 64.6187 78.3185 64.3427C78.0305 64.0667 77.6285 63.9287 77.1125 63.9287H73.7285V68.1047H77.1125ZM82.7645 57.3227H84.7985V69.8867H82.7645V57.3227Z" fill="#0FB56F"/>
</svg>
