<svg width="68" height="21" viewBox="0 0 68 21" fill="none" xmlns="http://www.w3.org/2000/svg">
<circle cx="2" cy="2" r="1.5" transform="matrix(1 0 0 -1 43 18)" stroke="#0FB56F" stroke-linecap="round" stroke-linejoin="round"/>
<path d="M47 16H57.3661C58.9122 16 60.3198 15.109 60.9814 13.7117L67 1" stroke="#0FB56F" stroke-linecap="round"/>
<path d="M1.47706 13.416H5.69306V19H4.78906V14.216H2.38106V19H1.47706V13.416ZM7.07081 19V13.416H9.47081C9.98815 13.416 10.3881 13.568 10.6708 13.872C10.9535 14.176 11.0948 14.584 11.0948 15.096C11.0948 15.608 10.9535 16.016 10.6708 16.32C10.3881 16.624 9.98815 16.776 9.47081 16.776H7.97481V19H7.07081ZM7.97481 15.984H9.41481C9.64415 15.984 9.82281 15.9253 9.95081 15.808C10.0788 15.6853 10.1428 15.512 10.1428 15.288V14.904C10.1428 14.68 10.0788 14.5093 9.95081 14.392C9.82281 14.2693 9.64415 14.208 9.41481 14.208H7.97481V15.984ZM14.2464 19.096C13.8838 19.096 13.5531 19.0347 13.2544 18.912C12.9611 18.784 12.7078 18.6 12.4944 18.36C12.2864 18.1147 12.1238 17.8133 12.0064 17.456C11.8944 17.0933 11.8384 16.6773 11.8384 16.208C11.8384 15.7387 11.8944 15.3253 12.0064 14.968C12.1238 14.6053 12.2864 14.304 12.4944 14.064C12.7078 13.8187 12.9611 13.6347 13.2544 13.512C13.5531 13.384 13.8838 13.32 14.2464 13.32C14.6091 13.32 14.9371 13.384 15.2304 13.512C15.5291 13.6347 15.7824 13.8187 15.9904 14.064C16.2038 14.304 16.3664 14.6053 16.4784 14.968C16.5958 15.3253 16.6544 15.7387 16.6544 16.208C16.6544 16.6773 16.5958 17.0933 16.4784 17.456C16.3664 17.8133 16.2038 18.1147 15.9904 18.36C15.7824 18.6 15.5291 18.784 15.2304 18.912C14.9371 19.0347 14.6091 19.096 14.2464 19.096ZM14.2464 18.288C14.4598 18.288 14.6544 18.2507 14.8304 18.176C15.0118 18.1013 15.1638 17.9947 15.2864 17.856C15.4144 17.712 15.5131 17.5387 15.5824 17.336C15.6518 17.1333 15.6864 16.904 15.6864 16.648V15.768C15.6864 15.512 15.6518 15.2827 15.5824 15.08C15.5131 14.8773 15.4144 14.7067 15.2864 14.568C15.1638 14.424 15.0118 14.3147 14.8304 14.24C14.6544 14.1653 14.4598 14.128 14.2464 14.128C14.0278 14.128 13.8304 14.1653 13.6544 14.24C13.4784 14.3147 13.3264 14.424 13.1984 14.568C13.0758 14.7067 12.9798 14.8773 12.9104 15.08C12.8411 15.2827 12.8064 15.512 12.8064 15.768V16.648C12.8064 16.904 12.8411 17.1333 12.9104 17.336C12.9798 17.5387 13.0758 17.712 13.1984 17.856C13.3264 17.9947 13.4784 18.1013 13.6544 18.176C13.8304 18.2507 14.0278 18.288 14.2464 18.288ZM17.7818 19V13.416H21.3578V14.216H18.6858V15.768H21.1098V16.568H18.6858V18.2H21.3578V19H17.7818ZM22.5239 13.416H23.4279V15.768H24.3959L25.3879 14.024C25.5106 13.8053 25.6386 13.6507 25.7719 13.56C25.9106 13.464 26.0786 13.416 26.2759 13.416H26.6999V14.216H26.1959L25.3959 15.624C25.3053 15.7787 25.2199 15.8907 25.1399 15.96C25.0653 16.0293 24.9719 16.0827 24.8599 16.12V16.16C24.9879 16.1867 25.0973 16.232 25.1879 16.296C25.2786 16.36 25.3719 16.4773 25.4679 16.648L26.3559 18.2H26.8439V19H26.2919C26.1159 19 25.9639 18.9573 25.8359 18.872C25.7079 18.7813 25.5799 18.624 25.4519 18.4L24.3959 16.56H23.4279V19H22.5239V13.416ZM29.9397 14.216V19H29.0357V14.216H27.3717V13.416H31.6037V14.216H29.9397ZM32.4849 13.416H33.3889V15.56H34.9489C35.4662 15.56 35.8662 15.7147 36.1489 16.024C36.4315 16.328 36.5729 16.7467 36.5729 17.28C36.5729 17.8133 36.4315 18.2347 36.1489 18.544C35.8662 18.848 35.4662 19 34.9489 19H32.4849V13.416ZM34.8929 18.208C35.1222 18.208 35.3009 18.1467 35.4289 18.024C35.5569 17.9013 35.6209 17.7173 35.6209 17.472V17.088C35.6209 16.8427 35.5569 16.6587 35.4289 16.536C35.3009 16.4133 35.1222 16.352 34.8929 16.352H33.3889V18.208H34.8929ZM37.4049 13.416H38.3089V19H37.4049V13.416Z" fill="#0FB56F"/>
</svg>
