<svg width="68" height="21" viewBox="0 0 68 21" fill="none" xmlns="http://www.w3.org/2000/svg">
<circle cx="45" cy="5" r="1.5" stroke="#0FB56F" stroke-linecap="round" stroke-linejoin="round"/>
<path d="M47 5H57.3661C58.9122 5 60.3198 5.89095 60.9814 7.28829L67 20" stroke="#0FB56F" stroke-linecap="round"/>
<path d="M1.47706 2.416H5.69306V8H4.78906V3.216H2.38106V8H1.47706V2.416ZM7.07081 8V2.416H9.47081C9.98815 2.416 10.3881 2.568 10.6708 2.872C10.9535 3.176 11.0948 3.584 11.0948 4.096C11.0948 4.608 10.9535 5.016 10.6708 5.32C10.3881 5.624 9.98815 5.776 9.47081 5.776H7.97481V8H7.07081ZM7.97481 4.984H9.41481C9.64415 4.984 9.82281 4.92533 9.95081 4.808C10.0788 4.68533 10.1428 4.512 10.1428 4.288V3.904C10.1428 3.68 10.0788 3.50933 9.95081 3.392C9.82281 3.26933 9.64415 3.208 9.41481 3.208H7.97481V4.984ZM14.2464 8.096C13.8838 8.096 13.5531 8.03467 13.2544 7.912C12.9611 7.784 12.7078 7.6 12.4944 7.36C12.2864 7.11467 12.1238 6.81333 12.0064 6.456C11.8944 6.09333 11.8384 5.67733 11.8384 5.208C11.8384 4.73867 11.8944 4.32533 12.0064 3.968C12.1238 3.60533 12.2864 3.304 12.4944 3.064C12.7078 2.81867 12.9611 2.63467 13.2544 2.512C13.5531 2.384 13.8838 2.32 14.2464 2.32C14.6091 2.32 14.9371 2.384 15.2304 2.512C15.5291 2.63467 15.7824 2.81867 15.9904 3.064C16.2038 3.304 16.3664 3.60533 16.4784 3.968C16.5958 4.32533 16.6544 4.73867 16.6544 5.208C16.6544 5.67733 16.5958 6.09333 16.4784 6.456C16.3664 6.81333 16.2038 7.11467 15.9904 7.36C15.7824 7.6 15.5291 7.784 15.2304 7.912C14.9371 8.03467 14.6091 8.096 14.2464 8.096ZM14.2464 7.288C14.4598 7.288 14.6544 7.25067 14.8304 7.176C15.0118 7.10133 15.1638 6.99467 15.2864 6.856C15.4144 6.712 15.5131 6.53867 15.5824 6.336C15.6518 6.13333 15.6864 5.904 15.6864 5.648V4.768C15.6864 4.512 15.6518 4.28267 15.5824 4.08C15.5131 3.87733 15.4144 3.70667 15.2864 3.568C15.1638 3.424 15.0118 3.31467 14.8304 3.24C14.6544 3.16533 14.4598 3.128 14.2464 3.128C14.0278 3.128 13.8304 3.16533 13.6544 3.24C13.4784 3.31467 13.3264 3.424 13.1984 3.568C13.0758 3.70667 12.9798 3.87733 12.9104 4.08C12.8411 4.28267 12.8064 4.512 12.8064 4.768V5.648C12.8064 5.904 12.8411 6.13333 12.9104 6.336C12.9798 6.53867 13.0758 6.712 13.1984 6.856C13.3264 6.99467 13.4784 7.10133 13.6544 7.176C13.8304 7.25067 14.0278 7.288 14.2464 7.288ZM17.7818 8V2.416H21.3578V3.216H18.6858V4.768H21.1098V5.568H18.6858V7.2H21.3578V8H17.7818ZM22.5239 2.416H23.4279V4.768H24.3959L25.3879 3.024C25.5106 2.80533 25.6386 2.65067 25.7719 2.56C25.9106 2.464 26.0786 2.416 26.2759 2.416H26.6999V3.216H26.1959L25.3959 4.624C25.3053 4.77867 25.2199 4.89067 25.1399 4.96C25.0653 5.02933 24.9719 5.08267 24.8599 5.12V5.16C24.9879 5.18667 25.0973 5.232 25.1879 5.296C25.2786 5.36 25.3719 5.47733 25.4679 5.648L26.3559 7.2H26.8439V8H26.2919C26.1159 8 25.9639 7.95733 25.8359 7.872C25.7079 7.78133 25.5799 7.624 25.4519 7.4L24.3959 5.56H23.4279V8H22.5239V2.416ZM29.9397 3.216V8H29.0357V3.216H27.3717V2.416H31.6037V3.216H29.9397ZM32.4849 2.416H33.3889V4.56H34.9489C35.4662 4.56 35.8662 4.71467 36.1489 5.024C36.4315 5.328 36.5729 5.74667 36.5729 6.28C36.5729 6.81333 36.4315 7.23467 36.1489 7.544C35.8662 7.848 35.4662 8 34.9489 8H32.4849V2.416ZM34.8929 7.208C35.1222 7.208 35.3009 7.14667 35.4289 7.024C35.5569 6.90133 35.6209 6.71733 35.6209 6.472V6.088C35.6209 5.84267 35.5569 5.65867 35.4289 5.536C35.3009 5.41333 35.1222 5.352 34.8929 5.352H33.3889V7.208H34.8929ZM37.4049 2.416H38.3089V8H37.4049V2.416Z" fill="#0FB56F"/>
</svg>
