<svg width="69" height="21" viewBox="0 0 69 21" fill="none" xmlns="http://www.w3.org/2000/svg">
<circle cx="2" cy="2" r="1.5" transform="matrix(-1 0 0 1 25 3)" stroke="#0FB56F" stroke-linecap="round" stroke-linejoin="round"/>
<path d="M21 5H10.6339C9.08783 5 7.68022 5.89095 7.01862 7.28829L1 20" stroke="#0FB56F" stroke-linecap="round"/>
<path d="M28.69 2.416H29.594V4.768H30.562L31.554 3.024C31.6766 2.80533 31.8046 2.65067 31.938 2.56C32.0766 2.464 32.2446 2.416 32.442 2.416H32.866V3.216H32.362L31.562 4.624C31.4713 4.77867 31.386 4.89067 31.306 4.96C31.2313 5.02933 31.138 5.08267 31.026 5.12V5.16C31.154 5.18667 31.2633 5.232 31.354 5.296C31.4446 5.36 31.538 5.47733 31.634 5.648L32.522 7.2H33.01V8H32.458C32.282 8 32.13 7.95733 32.002 7.872C31.874 7.78133 31.746 7.624 31.618 7.4L30.562 5.56H29.594V8H28.69V2.416ZM35.9984 8.096C35.6357 8.096 35.3051 8.03467 35.0064 7.912C34.7131 7.784 34.4597 7.6 34.2464 7.36C34.0384 7.11467 33.8757 6.81333 33.7584 6.456C33.6464 6.09333 33.5904 5.67733 33.5904 5.208C33.5904 4.73867 33.6464 4.32533 33.7584 3.968C33.8757 3.60533 34.0384 3.304 34.2464 3.064C34.4597 2.81867 34.7131 2.63467 35.0064 2.512C35.3051 2.384 35.6357 2.32 35.9984 2.32C36.3611 2.32 36.6891 2.384 36.9824 2.512C37.2811 2.63467 37.5344 2.81867 37.7424 3.064C37.9557 3.304 38.1184 3.60533 38.2304 3.968C38.3477 4.32533 38.4064 4.73867 38.4064 5.208C38.4064 5.67733 38.3477 6.09333 38.2304 6.456C38.1184 6.81333 37.9557 7.11467 37.7424 7.36C37.5344 7.6 37.2811 7.784 36.9824 7.912C36.6891 8.03467 36.3611 8.096 35.9984 8.096ZM35.9984 7.288C36.2117 7.288 36.4064 7.25067 36.5824 7.176C36.7637 7.10133 36.9157 6.99467 37.0384 6.856C37.1664 6.712 37.2651 6.53867 37.3344 6.336C37.4037 6.13333 37.4384 5.904 37.4384 5.648V4.768C37.4384 4.512 37.4037 4.28267 37.3344 4.08C37.2651 3.87733 37.1664 3.70667 37.0384 3.568C36.9157 3.424 36.7637 3.31467 36.5824 3.24C36.4064 3.16533 36.2117 3.128 35.9984 3.128C35.7797 3.128 35.5824 3.16533 35.4064 3.24C35.2304 3.31467 35.0784 3.424 34.9504 3.568C34.8277 3.70667 34.7317 3.87733 34.6624 4.08C34.5931 4.28267 34.5584 4.512 34.5584 4.768V5.648C34.5584 5.904 34.5931 6.13333 34.6624 6.336C34.7317 6.53867 34.8277 6.712 34.9504 6.856C35.0784 6.99467 35.2304 7.10133 35.4064 7.176C35.5824 7.25067 35.7797 7.288 35.9984 7.288ZM43.8057 3.728H43.7657L43.3257 4.632L42.1017 6.864L40.8777 4.632L40.4377 3.728H40.3977V8H39.5337V2.416H40.6057L42.1017 5.256H42.1497L43.6457 2.416H44.6697V8H43.8057V3.728ZM49.5373 8L49.0333 6.488H46.9453L46.4573 8H45.5373L47.4413 2.416H48.5773L50.4813 8H49.5373ZM48.0093 3.248H47.9693L47.1613 5.712H48.8093L48.0093 3.248ZM54.7782 5.568H52.2502V8H51.3462V2.416H52.2502V4.768H54.7782V2.416H55.6822V8H54.7782V5.568ZM56.4731 7.2H57.0651C57.1718 7.06667 57.2678 6.90933 57.3531 6.728C57.4438 6.54133 57.5185 6.32533 57.5771 6.08C57.6411 5.82933 57.6891 5.544 57.7211 5.224C57.7531 4.89867 57.7691 4.528 57.7691 4.112V2.416H61.4091V7.2H62.2411V9.2H61.4011V8H57.3131V9.2H56.4731V7.2ZM60.5051 7.2V3.216H58.6411V4.216C58.6411 4.616 58.6278 4.97067 58.6011 5.28C58.5798 5.58933 58.5451 5.864 58.4971 6.104C58.4545 6.33867 58.3985 6.544 58.3291 6.72C58.2651 6.89067 58.1905 7.04 58.1051 7.168V7.2H60.5051ZM66.6545 8L66.1505 6.488H64.0625L63.5745 8H62.6545L64.5585 2.416H65.6945L67.5985 8H66.6545ZM65.1265 3.248H65.0865L64.2785 5.712H65.9265L65.1265 3.248Z" fill="#0FB56F"/>
</svg>
