<svg width="206" height="83" viewBox="0 0 206 83" fill="none" xmlns="http://www.w3.org/2000/svg">
<circle cx="3.04167" cy="3.04167" r="2.66146" transform="matrix(-1 0 0 1 100.029 11.5645)" stroke="#0FB56F" stroke-width="0.760417" stroke-linecap="round" stroke-linejoin="round"/>
<path d="M93.9453 14.6064H45.4749C38.5216 14.6064 32.1725 18.5575 29.1015 24.7958L1.17448 81.5231" stroke="#0FB56F" stroke-linecap="round"/>
<path d="M116.786 5.5942H118.82V10.8862H120.998L123.23 6.9622C123.506 6.4702 123.794 6.1222 124.094 5.9182C124.406 5.7022 124.784 5.5942 125.228 5.5942H126.182V7.3942H125.048L123.248 10.5622C123.044 10.9102 122.852 11.1622 122.672 11.3182C122.504 11.4742 122.294 11.5942 122.042 11.6782V11.7682C122.33 11.8282 122.576 11.9302 122.78 12.0742C122.984 12.2182 123.194 12.4822 123.41 12.8662L125.408 16.3582H126.506V18.1582H125.264C124.868 18.1582 124.526 18.0622 124.238 17.8702C123.95 17.6662 123.662 17.3122 123.374 16.8082L120.998 12.6682H118.82V18.1582H116.786V5.5942ZM133.23 18.3742C132.414 18.3742 131.67 18.2362 130.998 17.9602C130.338 17.6722 129.768 17.2582 129.288 16.7182C128.82 16.1662 128.454 15.4882 128.19 14.6842C127.938 13.8682 127.812 12.9322 127.812 11.8762C127.812 10.8202 127.938 9.8902 128.19 9.0862C128.454 8.2702 128.82 7.5922 129.288 7.0522C129.768 6.5002 130.338 6.0862 130.998 5.8102C131.67 5.5222 132.414 5.3782 133.23 5.3782C134.046 5.3782 134.784 5.5222 135.444 5.8102C136.116 6.0862 136.686 6.5002 137.154 7.0522C137.634 7.5922 138 8.2702 138.252 9.0862C138.516 9.8902 138.648 10.8202 138.648 11.8762C138.648 12.9322 138.516 13.8682 138.252 14.6842C138 15.4882 137.634 16.1662 137.154 16.7182C136.686 17.2582 136.116 17.6722 135.444 17.9602C134.784 18.2362 134.046 18.3742 133.23 18.3742ZM133.23 16.5562C133.71 16.5562 134.148 16.4722 134.544 16.3042C134.952 16.1362 135.294 15.8962 135.57 15.5842C135.858 15.2602 136.08 14.8702 136.236 14.4142C136.392 13.9582 136.47 13.4422 136.47 12.8662V10.8862C136.47 10.3102 136.392 9.7942 136.236 9.3382C136.08 8.8822 135.858 8.4982 135.57 8.1862C135.294 7.8622 134.952 7.6162 134.544 7.4482C134.148 7.2802 133.71 7.1962 133.23 7.1962C132.738 7.1962 132.294 7.2802 131.898 7.4482C131.502 7.6162 131.16 7.8622 130.872 8.1862C130.596 8.4982 130.38 8.8822 130.224 9.3382C130.068 9.7942 129.99 10.3102 129.99 10.8862V12.8662C129.99 13.4422 130.068 13.9582 130.224 14.4142C130.38 14.8702 130.596 15.2602 130.872 15.5842C131.16 15.8962 131.502 16.1362 131.898 16.3042C132.294 16.4722 132.738 16.5562 133.23 16.5562ZM150.797 8.5462H150.707L149.717 10.5802L146.963 15.6022L144.209 10.5802L143.219 8.5462H143.129V18.1582H141.185V5.5942H143.597L146.963 11.9842H147.071L150.437 5.5942H152.741V18.1582H150.797V8.5462ZM163.693 18.1582L162.559 14.7562H157.861L156.763 18.1582H154.693L158.977 5.5942H161.533L165.817 18.1582H163.693ZM160.255 7.4662H160.165L158.347 13.0102H162.055L160.255 7.4662ZM175.485 12.6862H169.797V18.1582H167.763V5.5942H169.797V10.8862H175.485V5.5942H177.519V18.1582H175.485V12.6862ZM179.298 16.3582H180.63C180.87 16.0582 181.086 15.7042 181.278 15.2962C181.482 14.8762 181.65 14.3902 181.782 13.8382C181.926 13.2742 182.034 12.6322 182.106 11.9122C182.178 11.1802 182.214 10.3462 182.214 9.4102V5.5942H190.404V16.3582H192.276V20.8582H190.386V18.1582H181.188V20.8582H179.298V16.3582ZM188.37 16.3582V7.3942H184.176V9.6442C184.176 10.5442 184.146 11.3422 184.086 12.0382C184.038 12.7342 183.96 13.3522 183.852 13.8922C183.756 14.4202 183.63 14.8822 183.474 15.2782C183.33 15.6622 183.162 15.9982 182.97 16.2862V16.3582H188.37ZM202.207 18.1582L201.073 14.7562H196.375L195.277 18.1582H193.207L197.491 5.5942H200.047L204.331 18.1582H202.207ZM198.769 7.4662H198.679L196.861 13.0102H200.569L198.769 7.4662Z" fill="#0FB56F"/>
</svg>
