<svg width="179" height="48" viewBox="0 0 179 48" fill="none" xmlns="http://www.w3.org/2000/svg">
<path d="M0 24C0 10.7452 10.7452 0 24 0H147C151.418 0 155 3.58172 155 8C155 12.4183 151.418 16 147 16H137.375C134.959 16 133 17.9588 133 20.375C133 22.7912 134.959 24.75 137.375 24.75H167.375C173.795 24.75 179 29.9547 179 36.375C179 42.7953 173.795 48 167.375 48H24C10.7452 48 0 37.2548 0 24Z" fill="#242B2F"/>
<circle cx="167" cy="8" r="8" fill="#242B2F"/>
<path d="M33.096 33.36C35.076 33.36 36.744 32.868 38.088 31.884C39.432 30.9 40.392 29.568 40.944 27.888L37.656 26.976C37.332 28.02 36.792 28.836 36.036 29.412C35.268 30 34.296 30.288 33.096 30.288C31.992 30.288 31.08 30.048 30.348 29.556C29.616 29.076 29.064 28.38 28.704 27.492C28.332 26.604 28.152 25.56 28.152 24.36C28.152 23.16 28.332 22.116 28.704 21.228C29.064 20.34 29.616 19.656 30.348 19.164C31.08 18.684 31.992 18.432 33.096 18.432C34.296 18.432 35.268 18.732 36.036 19.308C36.792 19.884 37.332 20.7 37.656 21.744L40.944 20.832C40.392 19.152 39.432 17.82 38.088 16.836C36.744 15.852 35.076 15.36 33.096 15.36C31.368 15.36 29.868 15.744 28.62 16.488C27.372 17.244 26.4 18.3 25.728 19.644C25.056 21 24.72 22.572 24.72 24.36C24.72 26.16 25.056 27.732 25.728 29.076C26.4 30.432 27.372 31.488 28.62 32.232C29.868 32.988 31.368 33.36 33.096 33.36ZM44.0662 33H47.3302V25.128L54.2183 33H58.3463L50.6663 24.24L57.8903 15.72H53.9062L47.3302 23.688V15.72H44.0662V33ZM66.9622 33.36C68.6902 33.36 70.1782 32.988 71.4262 32.232C72.6743 31.488 73.6462 30.432 74.3182 29.076C74.9902 27.732 75.3383 26.16 75.3383 24.36C75.3383 22.572 74.9902 21 74.3182 19.644C73.6462 18.3 72.6743 17.244 71.4262 16.488C70.1782 15.744 68.6902 15.36 66.9622 15.36C65.2342 15.36 63.7342 15.744 62.4862 16.488C61.2382 17.244 60.2662 18.3 59.5942 19.644C58.9222 21 58.5862 22.572 58.5862 24.36C58.5862 26.16 58.9222 27.732 59.5942 29.076C60.2662 30.432 61.2382 31.488 62.4862 32.232C63.7342 32.988 65.2342 33.36 66.9622 33.36ZM66.9622 30.288C65.8582 30.276 64.9462 30.024 64.2262 29.532C63.4942 29.052 62.9422 28.368 62.5822 27.48C62.2222 26.604 62.0422 25.56 62.0422 24.36C62.0422 23.16 62.2222 22.116 62.5822 21.216C62.9422 20.328 63.4942 19.632 64.2262 19.14C64.9462 18.66 65.8582 18.42 66.9622 18.432C68.0542 18.456 68.9662 18.708 69.6982 19.188C70.4182 19.68 70.9702 20.364 71.3303 21.24C71.6902 22.128 71.8823 23.16 71.8823 24.36C71.8823 25.56 71.6902 26.616 71.3303 27.504C70.9702 28.404 70.4182 29.1 69.6982 29.58C68.9662 30.072 68.0542 30.312 66.9622 30.288ZM78.2137 33H81.4777V27.144H85.5097C85.6657 27.144 85.8937 27.144 86.1817 27.12C86.4697 27.108 86.7217 27.084 86.9497 27.048C87.9697 26.892 88.8097 26.556 89.4697 26.028C90.1297 25.512 90.6217 24.864 90.9337 24.072C91.2457 23.28 91.4137 22.404 91.4137 21.432C91.4137 20.472 91.2578 19.596 90.9457 18.804C90.6337 18.012 90.1417 17.364 89.4817 16.836C88.8217 16.32 87.9817 15.984 86.9497 15.816C86.7217 15.78 86.4697 15.756 86.1817 15.744C85.8937 15.732 85.6777 15.72 85.5097 15.72H78.2137V33ZM81.4777 24.096V18.768H85.3657C85.5337 18.768 85.7137 18.78 85.9177 18.792C86.1097 18.816 86.3017 18.84 86.4697 18.888C86.9017 19.008 87.2497 19.212 87.4897 19.5C87.7297 19.788 87.8857 20.1 87.9817 20.448C88.0777 20.796 88.1257 21.12 88.1257 21.432C88.1257 21.744 88.0777 22.08 87.9817 22.428C87.8857 22.776 87.7297 23.088 87.4897 23.376C87.2497 23.664 86.9017 23.856 86.4697 23.976C86.3017 24.024 86.1097 24.06 85.9177 24.072C85.7137 24.096 85.5337 24.096 85.3657 24.096H81.4777ZM101.719 33.36C103.447 33.36 104.935 32.988 106.183 32.232C107.431 31.488 108.403 30.432 109.075 29.076C109.747 27.732 110.095 26.16 110.095 24.36C110.095 22.572 109.747 21 109.075 19.644C108.403 18.3 107.431 17.244 106.183 16.488C104.935 15.744 103.447 15.36 101.719 15.36C99.9911 15.36 98.4911 15.744 97.2431 16.488C95.9951 17.244 95.0231 18.3 94.3511 19.644C93.6791 21 93.3431 22.572 93.3431 24.36C93.3431 26.16 93.6791 27.732 94.3511 29.076C95.0231 30.432 95.9951 31.488 97.2431 32.232C98.4911 32.988 99.9911 33.36 101.719 33.36ZM101.719 30.288C100.615 30.276 99.7031 30.024 98.9831 29.532C98.2511 29.052 97.6991 28.368 97.3391 27.48C96.9791 26.604 96.7991 25.56 96.7991 24.36C96.7991 23.16 96.9791 22.116 97.3391 21.216C97.6991 20.328 98.2511 19.632 98.9831 19.14C99.7031 18.66 100.615 18.42 101.719 18.432C102.811 18.456 103.723 18.708 104.455 19.188C105.175 19.68 105.727 20.364 106.087 21.24C106.447 22.128 106.639 23.16 106.639 24.36C106.639 25.56 106.447 26.616 106.087 27.504C105.727 28.404 105.175 29.1 104.455 29.58C103.723 30.072 102.811 30.312 101.719 30.288Z" fill="white"/>
</svg>
