<svg width="56" height="219" viewBox="0 0 56 219" fill="none" xmlns="http://www.w3.org/2000/svg">
<path d="M0 0.00012207L7.4965e-06 171.5C7.72182e-06 176.655 4.17868 180.833 9.33334 180.833V180.833C14.488 180.833 18.6667 176.655 18.6667 171.5L18.6667 160.271C18.6667 157.452 20.9519 155.167 23.7708 155.167V155.167C26.5898 155.167 28.875 157.452 28.875 160.271L28.875 195.271C28.875 202.761 34.9471 208.833 42.4375 208.833V208.833C49.9279 208.833 56 202.761 56 195.271L56 0.000119622L0 0.00012207Z" fill="#242B2F"/>
<circle cx="13.9998" cy="208.833" r="9.33333" transform="rotate(-90 13.9998 208.833)" fill="#242B2F"/>
<path d="M38.9199 125.888C38.9199 127.904 38.4813 129.645 37.6039 131.11C36.7266 132.566 35.4993 133.691 33.9219 134.484C32.3446 135.268 30.5106 135.66 28.4199 135.66C26.3293 135.66 24.4953 135.268 22.9179 134.484C21.3406 133.691 20.1133 132.566 19.2359 131.11C18.3586 129.645 17.9199 127.904 17.9199 125.888C17.9199 123.573 18.4939 121.632 19.6419 120.064C20.7899 118.487 22.3439 117.376 24.3039 116.732L25.3679 120.568C24.1453 120.941 23.1979 121.571 22.5259 122.458C21.8446 123.345 21.5039 124.488 21.5039 125.888C21.5039 127.167 21.7886 128.235 22.3579 129.094C22.9273 129.943 23.7299 130.583 24.7659 131.012C25.8019 131.441 27.0199 131.656 28.4199 131.656C29.8199 131.656 31.0379 131.441 32.0739 131.012C33.1099 130.583 33.9126 129.943 34.4819 129.094C35.0513 128.235 35.3359 127.167 35.3359 125.888C35.3359 124.488 34.9952 123.345 34.3139 122.458C33.6326 121.571 32.6853 120.941 31.4719 120.568L32.5359 116.732C34.4959 117.376 36.0499 118.487 37.1979 120.064C38.3459 121.632 38.9199 123.573 38.9199 125.888Z" fill="white"/>
<path d="M38.4999 113.089L18.3399 113.089L18.3399 109.281L27.6359 109.281L18.3399 101.609L18.3399 96.9614L28.2799 105.389L38.4999 96.4294L38.4999 101.245L29.3159 109.281L38.4999 109.281L38.4999 113.089Z" fill="white"/>
<path d="M38.9199 86.3774C38.9199 88.3934 38.4813 90.1341 37.6039 91.5994C36.7266 93.0554 35.4992 94.1801 33.9219 94.9734C32.3446 95.7574 30.5106 96.1494 28.4199 96.1494C26.3293 96.1494 24.4953 95.7574 22.9179 94.9734C21.3406 94.1801 20.1133 93.0554 19.2359 91.5994C18.3586 90.1341 17.9199 88.3934 17.9199 86.3774C17.9199 84.3614 18.3586 82.6254 19.2359 81.1694C20.1133 79.7041 21.3406 78.5794 22.9179 77.7954C24.4953 77.0021 26.3293 76.6054 28.4199 76.6054C30.5106 76.6054 32.3446 77.0021 33.9219 77.7954C35.4992 78.5794 36.7266 79.7041 37.6039 81.1694C38.4812 82.6254 38.9199 84.3614 38.9199 86.3774ZM35.3359 86.3774C35.3546 85.0987 35.0792 84.0347 34.5099 83.1854C33.9406 82.3361 33.1332 81.7014 32.0879 81.2814C31.0426 80.8521 29.8199 80.6374 28.4199 80.6374C27.0199 80.6374 25.8066 80.8521 24.7799 81.2814C23.7533 81.7014 22.9553 82.3361 22.3859 83.1854C21.8166 84.0347 21.5226 85.0987 21.5039 86.3774C21.4853 87.6561 21.7606 88.7201 22.3299 89.5694C22.8993 90.4187 23.7066 91.0581 24.7519 91.4874C25.7973 91.9074 27.0199 92.1174 28.4199 92.1174C29.8199 92.1174 31.0332 91.9074 32.0599 91.4874C33.0866 91.0581 33.8846 90.4187 34.4539 89.5694C35.0232 88.7201 35.3172 87.6561 35.3359 86.3774Z" fill="white"/>
<path d="M38.4999 73.2507L18.3399 73.2507L18.3399 64.7387C18.3399 64.5427 18.3493 64.2813 18.3679 63.9547C18.3773 63.6187 18.4053 63.32 18.4519 63.0587C18.6386 61.8547 19.0353 60.87 19.6419 60.1047C20.2486 59.33 21.0139 58.7607 21.9379 58.3967C22.8526 58.0327 23.8746 57.8507 25.0039 57.8507C26.1332 57.8507 27.1599 58.0373 28.0839 58.4107C28.9986 58.7747 29.7592 59.344 30.3659 60.1187C30.9726 60.884 31.3692 61.864 31.5559 63.0587C31.5932 63.32 31.6212 63.6187 31.6399 63.9547C31.6586 64.2907 31.6679 64.552 31.6679 64.7387L31.6679 69.4427L38.4999 69.4427L38.4999 73.2507ZM28.1119 69.4427L28.1119 64.9067C28.1119 64.7107 28.1026 64.496 28.0839 64.2627C28.0653 64.0293 28.0279 63.8147 27.9719 63.6187C27.8319 63.1053 27.5986 62.7087 27.2719 62.4287C26.9359 62.1487 26.5672 61.9573 26.1659 61.8547C25.7552 61.7427 25.3679 61.6867 25.0039 61.6867C24.6399 61.6867 24.2573 61.7427 23.8559 61.8547C23.4453 61.9573 23.0766 62.1487 22.7499 62.4287C22.4139 62.7087 22.1759 63.1053 22.0359 63.6187C21.9799 63.8147 21.9426 64.0293 21.9239 64.2627C21.9053 64.496 21.8959 64.7107 21.8959 64.9067L21.8959 69.4427L28.1119 69.4427Z" fill="white"/>
<path d="M38.9199 45.8277C38.9199 47.8437 38.4812 49.5844 37.6039 51.0497C36.7266 52.5057 35.4992 53.6304 33.9219 54.4237C32.3446 55.2077 30.5106 55.5997 28.4199 55.5997C26.3293 55.5997 24.4952 55.2077 22.9179 54.4237C21.3406 53.6304 20.1133 52.5057 19.2359 51.0497C18.3586 49.5844 17.9199 47.8437 17.9199 45.8277C17.9199 43.8117 18.3586 42.0757 19.2359 40.6197C20.1132 39.1544 21.3406 38.0297 22.9179 37.2457C24.4952 36.4524 26.3292 36.0557 28.4199 36.0557C30.5106 36.0557 32.3446 36.4524 33.9219 37.2457C35.4992 38.0297 36.7266 39.1544 37.6039 40.6197C38.4812 42.0757 38.9199 43.8117 38.9199 45.8277ZM35.3359 45.8277C35.3546 44.5491 35.0792 43.4851 34.5099 42.6357C33.9406 41.7864 33.1332 41.1517 32.0879 40.7317C31.0426 40.3024 29.8199 40.0877 28.4199 40.0877C27.0199 40.0877 25.8066 40.3024 24.7799 40.7317C23.7532 41.1517 22.9552 41.7864 22.3859 42.6357C21.8166 43.4851 21.5226 44.5491 21.5039 45.8277C21.4853 47.1064 21.7606 48.1704 22.3299 49.0197C22.8992 49.8691 23.7066 50.5084 24.7519 50.9377C25.7972 51.3577 27.0199 51.5677 28.4199 51.5677C29.8199 51.5677 31.0332 51.3577 32.0599 50.9377C33.0866 50.5084 33.8846 49.8691 34.4539 49.0197C35.0232 48.1704 35.3172 47.1064 35.3359 45.8277Z" fill="white"/>
</svg>
