<svg width="196" height="196" viewBox="0 0 196 196" fill="none" xmlns="http://www.w3.org/2000/svg">
<rect x="0.980602" y="0.593883" width="194.251" height="194.251" stroke="url(#paint0_linear_1610_15754)" stroke-width="0.812766"/>
<g opacity="0.2">
<mask id="mask0_1610_15754" style="mask-type:alpha" maskUnits="userSpaceOnUse" x="7" y="6" width="183" height="183">
<rect x="7.07422" y="6.68994" width="182.06" height="182.06" fill="white"/>
</mask>
<g mask="url(#mask0_1610_15754)">
<line x1="140.354" y1="-83.6387" x2="-84.2657" y2="140.981" stroke="#0FB56F" stroke-width="0.812766" stroke-linecap="round"/>
<line x1="254.146" y1="30.1533" x2="29.5272" y2="254.773" stroke="#0FB56F" stroke-width="0.812766" stroke-linecap="round"/>
<line x1="98.9746" y1="-125.018" x2="-125.645" y2="99.6012" stroke="#0FB56F" stroke-width="0.812766" stroke-linecap="round"/>
<line x1="212.768" y1="-11.2256" x2="-11.8517" y2="213.394" stroke="#0FB56F" stroke-width="0.812766" stroke-linecap="round"/>
<line x1="202.422" y1="-21.5703" x2="-22.1974" y2="203.049" stroke="#0FB56F" stroke-width="0.812766" stroke-linecap="round"/>
<line x1="316.215" y1="92.2227" x2="91.5956" y2="316.842" stroke="#0FB56F" stroke-width="0.812766" stroke-linecap="round"/>
<line x1="126.561" y1="-97.4321" x2="-98.0587" y2="127.187" stroke="#0FB56F" stroke-width="0.812766" stroke-linecap="round"/>
<line x1="240.352" y1="16.3608" x2="15.7323" y2="240.98" stroke="#0FB56F" stroke-width="0.812766" stroke-linecap="round"/>
<line x1="167.941" y1="-56.0532" x2="-56.6778" y2="168.566" stroke="#0FB56F" stroke-width="0.812766" stroke-linecap="round"/>
<line x1="281.732" y1="57.7402" x2="57.1132" y2="282.359" stroke="#0FB56F" stroke-width="0.812766" stroke-linecap="round"/>
<line x1="112.77" y1="-111.225" x2="-111.85" y2="113.394" stroke="#0FB56F" stroke-width="0.812766" stroke-linecap="round"/>
<line x1="226.559" y1="2.56788" x2="1.93934" y2="227.187" stroke="#0FB56F" stroke-width="0.812766" stroke-linecap="round"/>
<line x1="188.627" y1="-35.3633" x2="-35.9923" y2="189.256" stroke="#0FB56F" stroke-width="0.812766" stroke-linecap="round"/>
<line x1="302.424" y1="78.4297" x2="77.8046" y2="303.049" stroke="#0FB56F" stroke-width="0.812766" stroke-linecap="round"/>
<line x1="143.803" y1="-80.1909" x2="-80.8165" y2="144.428" stroke="#0FB56F" stroke-width="0.812766" stroke-linecap="round"/>
<line x1="257.594" y1="33.6021" x2="32.9745" y2="258.221" stroke="#0FB56F" stroke-width="0.812766" stroke-linecap="round"/>
<line x1="154.146" y1="-69.8462" x2="-70.4728" y2="154.773" stroke="#0FB56F" stroke-width="0.812766" stroke-linecap="round"/>
<line x1="267.939" y1="43.9463" x2="43.3202" y2="268.566" stroke="#0FB56F" stroke-width="0.812766" stroke-linecap="round"/>
<line x1="209.32" y1="-14.6738" x2="-15.2989" y2="209.945" stroke="#0FB56F" stroke-width="0.812766" stroke-linecap="round"/>
<line x1="323.109" y1="99.1196" x2="98.4901" y2="323.739" stroke="#0FB56F" stroke-width="0.812766" stroke-linecap="round"/>
<line x1="181.73" y1="-42.2602" x2="-42.8888" y2="182.359" stroke="#0FB56F" stroke-width="0.812766" stroke-linecap="round"/>
<line x1="295.525" y1="71.5332" x2="70.9061" y2="296.152" stroke="#0FB56F" stroke-width="0.812766" stroke-linecap="round"/>
<line x1="133.455" y1="-90.5361" x2="-91.1642" y2="134.083" stroke="#0FB56F" stroke-width="0.812766" stroke-linecap="round"/>
<line x1="247.252" y1="23.2568" x2="22.6327" y2="247.876" stroke="#0FB56F" stroke-width="0.812766" stroke-linecap="round"/>
<line x1="174.834" y1="-49.1562" x2="-49.7853" y2="175.463" stroke="#0FB56F" stroke-width="0.812766" stroke-linecap="round"/>
<line x1="288.631" y1="64.6372" x2="64.0116" y2="289.256" stroke="#0FB56F" stroke-width="0.812766" stroke-linecap="round"/>
<line x1="119.664" y1="-104.329" x2="-104.955" y2="120.29" stroke="#0FB56F" stroke-width="0.812766" stroke-linecap="round"/>
<line x1="233.457" y1="9.46436" x2="8.83778" y2="234.084" stroke="#0FB56F" stroke-width="0.812766" stroke-linecap="round"/>
<line x1="195.525" y1="-28.4668" x2="-29.0939" y2="196.152" stroke="#0FB56F" stroke-width="0.812766" stroke-linecap="round"/>
<line x1="309.318" y1="85.3267" x2="84.6991" y2="309.946" stroke="#0FB56F" stroke-width="0.812766" stroke-linecap="round"/>
<line x1="0.406383" y1="-0.406383" x2="318.147" y2="-0.406383" transform="matrix(-0.706744 0.70747 -0.709096 -0.705112 157.65 -67.0303)" stroke="#0FB56F" stroke-width="0.812766" stroke-linecap="round"/>
<line x1="0.406383" y1="-0.406383" x2="318.147" y2="-0.406383" transform="matrix(-0.706744 0.70747 -0.709096 -0.705112 271.445 46.7627)" stroke="#0FB56F" stroke-width="0.812766" stroke-linecap="round"/>
<line x1="147.248" y1="-76.7427" x2="-77.3712" y2="147.877" stroke="#0FB56F" stroke-width="0.812766" stroke-linecap="round"/>
<line x1="261.045" y1="37.0503" x2="36.4257" y2="261.67" stroke="#0FB56F" stroke-width="0.812766" stroke-linecap="round"/>
<line x1="102.422" y1="-121.57" x2="-122.197" y2="103.049" stroke="#0FB56F" stroke-width="0.812766" stroke-linecap="round"/>
<line x1="216.217" y1="-7.77734" x2="-8.40245" y2="216.842" stroke="#0FB56F" stroke-width="0.812766" stroke-linecap="round"/>
<line x1="106.879" y1="-119.131" x2="-117.74" y2="105.488" stroke="#0FB56F" stroke-width="0.812766" stroke-linecap="round"/>
<line x1="220.674" y1="-5.33837" x2="-3.94542" y2="219.281" stroke="#0FB56F" stroke-width="0.812766" stroke-linecap="round"/>
<line x1="205.871" y1="-18.1226" x2="-18.7482" y2="206.497" stroke="#0FB56F" stroke-width="0.812766" stroke-linecap="round"/>
<line x1="319.666" y1="95.6714" x2="95.0468" y2="320.291" stroke="#0FB56F" stroke-width="0.812766" stroke-linecap="round"/>
<line x1="130.008" y1="-93.9839" x2="-94.6114" y2="130.635" stroke="#0FB56F" stroke-width="0.812766" stroke-linecap="round"/>
<line x1="243.801" y1="19.8086" x2="19.1815" y2="244.428" stroke="#0FB56F" stroke-width="0.812766" stroke-linecap="round"/>
<line x1="171.389" y1="-52.6045" x2="-53.2306" y2="172.015" stroke="#0FB56F" stroke-width="0.812766" stroke-linecap="round"/>
<line x1="285.178" y1="61.189" x2="60.5585" y2="285.808" stroke="#0FB56F" stroke-width="0.812766" stroke-linecap="round"/>
<line x1="116.215" y1="-107.777" x2="-108.404" y2="116.842" stroke="#0FB56F" stroke-width="0.812766" stroke-linecap="round"/>
<line x1="230.008" y1="6.01563" x2="5.38856" y2="230.635" stroke="#0FB56F" stroke-width="0.812766" stroke-linecap="round"/>
<line x1="192.078" y1="-31.9155" x2="-32.5411" y2="192.704" stroke="#0FB56F" stroke-width="0.812766" stroke-linecap="round"/>
<line x1="305.873" y1="81.8774" x2="81.2538" y2="306.497" stroke="#0FB56F" stroke-width="0.812766" stroke-linecap="round"/>
<line x1="150.697" y1="-73.2939" x2="-73.922" y2="151.325" stroke="#0FB56F" stroke-width="0.812766" stroke-linecap="round"/>
<line x1="264.492" y1="40.4985" x2="39.8729" y2="265.118" stroke="#0FB56F" stroke-width="0.812766" stroke-linecap="round"/>
<line x1="161.043" y1="-62.9497" x2="-63.5763" y2="161.67" stroke="#0FB56F" stroke-width="0.812766" stroke-linecap="round"/>
<line x1="274.836" y1="50.8438" x2="50.2167" y2="275.463" stroke="#0FB56F" stroke-width="0.812766" stroke-linecap="round"/>
<line x1="109.318" y1="-114.673" x2="-115.301" y2="109.946" stroke="#0FB56F" stroke-width="0.812766" stroke-linecap="round"/>
<line x1="223.111" y1="-0.880366" x2="-1.50792" y2="223.739" stroke="#0FB56F" stroke-width="0.812766" stroke-linecap="round"/>
<line x1="185.182" y1="-38.8115" x2="-39.4376" y2="185.808" stroke="#0FB56F" stroke-width="0.812766" stroke-linecap="round"/>
<line x1="298.973" y1="74.9815" x2="74.3534" y2="299.601" stroke="#0FB56F" stroke-width="0.812766" stroke-linecap="round"/>
<line x1="136.904" y1="-87.0869" x2="-87.715" y2="137.532" stroke="#0FB56F" stroke-width="0.812766" stroke-linecap="round"/>
<line x1="250.697" y1="26.7051" x2="26.078" y2="251.324" stroke="#0FB56F" stroke-width="0.812766" stroke-linecap="round"/>
<line x1="178.283" y1="-45.708" x2="-46.336" y2="178.911" stroke="#0FB56F" stroke-width="0.812766" stroke-linecap="round"/>
<line x1="292.076" y1="68.085" x2="67.4569" y2="292.704" stroke="#0FB56F" stroke-width="0.812766" stroke-linecap="round"/>
<line x1="123.111" y1="-100.88" x2="-101.508" y2="123.739" stroke="#0FB56F" stroke-width="0.812766" stroke-linecap="round"/>
<line x1="236.904" y1="12.9126" x2="12.285" y2="237.532" stroke="#0FB56F" stroke-width="0.812766" stroke-linecap="round"/>
<line x1="198.975" y1="-25.0181" x2="-25.6446" y2="199.601" stroke="#0FB56F" stroke-width="0.812766" stroke-linecap="round"/>
<line x1="312.768" y1="88.7749" x2="88.1483" y2="313.394" stroke="#0FB56F" stroke-width="0.812766" stroke-linecap="round"/>
<line x1="164.49" y1="-59.5015" x2="-60.129" y2="165.118" stroke="#0FB56F" stroke-width="0.812766" stroke-linecap="round"/>
<line x1="278.283" y1="54.292" x2="53.664" y2="278.911" stroke="#0FB56F" stroke-width="0.812766" stroke-linecap="round"/>
</g>
</g>
<path d="M28.4938 24.6182H28.4418L25.3078 30.171L22.1738 24.6182H22.1217V32.6938H21.3675V23.6169H22.4338L25.3078 28.7275H25.3468L28.2207 23.6169H29.2481V32.6938H28.4938V24.6182ZM34.1079 32.8499C33.6658 32.8499 33.267 32.7719 32.9115 32.6158C32.5561 32.4598 32.2526 32.2344 32.0012 31.9396C31.7498 31.6362 31.5547 31.2677 31.416 30.8342C31.2773 30.4008 31.208 29.9109 31.208 29.3648C31.208 28.8186 31.2773 28.3331 31.416 27.9083C31.5547 27.4748 31.7498 27.1107 32.0012 26.8159C32.2526 26.5125 32.5561 26.2827 32.9115 26.1267C33.267 25.962 33.6658 25.8796 34.1079 25.8796C34.5501 25.8796 34.9489 25.962 35.3043 26.1267C35.6598 26.2827 35.9632 26.5125 36.2146 26.8159C36.466 27.1107 36.6611 27.4748 36.7998 27.9083C36.9385 28.3331 37.0079 28.8186 37.0079 29.3648C37.0079 29.9109 36.9385 30.4008 36.7998 30.8342C36.6611 31.2677 36.466 31.6362 36.2146 31.9396C35.9632 32.2344 35.6598 32.4598 35.3043 32.6158C34.9489 32.7719 34.5501 32.8499 34.1079 32.8499ZM34.1079 32.1867C34.7581 32.1867 35.2696 31.9829 35.6424 31.5755C36.0239 31.168 36.2146 30.5698 36.2146 29.7809V28.9486C36.2146 28.1684 36.0239 27.5745 35.6424 27.167C35.2696 26.7509 34.7581 26.5428 34.1079 26.5428C33.4577 26.5428 32.9419 26.7466 32.5604 27.154C32.1876 27.5615 32.0012 28.1597 32.0012 28.9486V29.7809C32.0012 30.5611 32.1876 31.1593 32.5604 31.5755C32.9419 31.9829 33.4577 32.1867 34.1079 32.1867ZM38.8909 23.0707H39.6322V27.102H39.6712C39.8359 26.7292 40.0873 26.4345 40.4254 26.2177C40.7636 25.9923 41.1884 25.8796 41.6999 25.8796C42.5581 25.8796 43.23 26.183 43.7155 26.7899C44.201 27.3968 44.4438 28.2551 44.4438 29.3648C44.4438 30.4745 44.201 31.3327 43.7155 31.9396C43.23 32.5465 42.5581 32.8499 41.6999 32.8499C41.1884 32.8499 40.7679 32.7415 40.4384 32.5248C40.109 32.2994 39.8533 32.0003 39.6712 31.6275H39.6322V32.6938H38.8909V23.0707ZM41.5308 32.1867C42.1984 32.1867 42.7185 31.9743 43.0913 31.5495C43.4641 31.1247 43.6505 30.5525 43.6505 29.8329V28.8966C43.6505 28.177 43.4641 27.6048 43.0913 27.18C42.7185 26.7552 42.1984 26.5428 41.5308 26.5428C41.2707 26.5428 41.0236 26.5818 40.7896 26.6599C40.5642 26.7292 40.3648 26.8289 40.1914 26.959C40.018 27.089 39.8793 27.2451 39.7752 27.4271C39.6799 27.6092 39.6322 27.8086 39.6322 28.0253V30.6652C39.6322 30.8993 39.6799 31.1117 39.7752 31.3024C39.8793 31.4845 40.018 31.6448 40.1914 31.7835C40.3648 31.9136 40.5642 32.0133 40.7896 32.0826C41.0236 32.152 41.2707 32.1867 41.5308 32.1867ZM46.7223 24.2281C46.549 24.2281 46.4189 24.1847 46.3322 24.098C46.2542 24.0113 46.2152 23.8986 46.2152 23.7599V23.6299C46.2152 23.4912 46.2542 23.3785 46.3322 23.2918C46.4189 23.2051 46.549 23.1617 46.7223 23.1617C46.8957 23.1617 47.0214 23.2051 47.0995 23.2918C47.1862 23.3785 47.2295 23.4912 47.2295 23.6299V23.7599C47.2295 23.8986 47.1862 24.0113 47.0995 24.098C47.0214 24.1847 46.8957 24.2281 46.7223 24.2281ZM46.3582 26.0357H47.0995V32.6938H46.3582V26.0357ZM50.3397 32.6938C50.0709 32.6938 49.8672 32.6202 49.7285 32.4728C49.5898 32.3254 49.5204 32.1303 49.5204 31.8876V23.0707H50.2616V32.0436H51.289V32.6938H50.3397ZM55.329 32.8499C54.8869 32.8499 54.4838 32.7719 54.1196 32.6158C53.7642 32.4598 53.4564 32.2344 53.1963 31.9396C52.9449 31.6362 52.7499 31.2677 52.6111 30.8342C52.4811 30.4008 52.4161 29.9109 52.4161 29.3648C52.4161 28.8186 52.4811 28.3331 52.6111 27.9083C52.7499 27.4748 52.9449 27.1107 53.1963 26.8159C53.4564 26.5125 53.7642 26.2827 54.1196 26.1267C54.4751 25.962 54.8739 25.8796 55.316 25.8796C55.7408 25.8796 56.1266 25.962 56.4734 26.1267C56.8202 26.2827 57.115 26.5038 57.3577 26.7899C57.6004 27.076 57.7868 27.4228 57.9169 27.8303C58.0556 28.2291 58.125 28.6712 58.125 29.1567V29.5078H53.1963V29.8329C53.1963 30.1797 53.244 30.5005 53.3394 30.7952C53.4434 31.0813 53.5865 31.3284 53.7685 31.5365C53.9593 31.7445 54.189 31.9093 54.4578 32.0306C54.7265 32.1433 55.0299 32.1997 55.368 32.1997C56.339 32.1997 57.0109 31.7532 57.3837 30.8602L57.9299 31.2244C57.7218 31.7185 57.3924 32.113 56.9416 32.4078C56.4994 32.7025 55.9619 32.8499 55.329 32.8499ZM55.316 26.5038C54.9953 26.5038 54.7048 26.5645 54.4447 26.6859C54.1847 26.7986 53.9593 26.959 53.7685 27.167C53.5865 27.3751 53.4434 27.6265 53.3394 27.9213C53.244 28.2074 53.1963 28.5238 53.1963 28.8706V28.9356H57.3187V28.8316C57.3187 28.4848 57.271 28.1684 57.1756 27.8823C57.0803 27.5875 56.9416 27.3404 56.7595 27.141C56.5861 26.9416 56.3737 26.7856 56.1223 26.6729C55.8795 26.5602 55.6108 26.5038 55.316 26.5038ZM68.8443 32.6938L67.856 29.8719H63.9937L63.0054 32.6938H62.2252L65.4372 23.6169H66.4385L69.6636 32.6938H68.8443ZM65.9444 24.3581H65.8924L64.1888 29.1957H67.6479L65.9444 24.3581ZM71.2891 32.6938V23.6169H74.8523C75.6412 23.6169 76.2437 23.8466 76.6599 24.3061C77.076 24.7569 77.2841 25.3724 77.2841 26.1527C77.2841 26.9416 77.076 27.5658 76.6599 28.0253C76.2437 28.4761 75.6412 28.7015 74.8523 28.7015H72.0694V32.6938H71.2891ZM72.0694 28.0123H74.8523C75.3725 28.0123 75.7669 27.8693 76.0357 27.5832C76.3131 27.2884 76.4518 26.9156 76.4518 26.4648V25.8406C76.4518 25.3985 76.3131 25.0343 76.0357 24.7482C75.7669 24.4535 75.3725 24.3061 74.8523 24.3061H72.0694V28.0123ZM79.0993 32.6938V23.6169H82.6625C83.4514 23.6169 84.0539 23.8466 84.4701 24.3061C84.8862 24.7569 85.0943 25.3724 85.0943 26.1527C85.0943 26.9416 84.8862 27.5658 84.4701 28.0253C84.0539 28.4761 83.4514 28.7015 82.6625 28.7015H79.8796V32.6938H79.0993ZM79.8796 28.0123H82.6625C83.1826 28.0123 83.5771 27.8693 83.8459 27.5832C84.1233 27.2884 84.262 26.9156 84.262 26.4648V25.8406C84.262 25.3985 84.1233 25.0343 83.8459 24.7482C83.5771 24.4535 83.1826 24.3061 82.6625 24.3061H79.8796V28.0123Z" fill="#0FB56F"/>
<path d="M86.2395 95.12H94.0421C95.4785 95.12 96.6429 93.9555 96.6429 92.5191V84.7166C96.6429 83.2802 95.4785 82.1157 94.0421 82.1157H86.2395C84.8031 82.1157 83.6387 83.2802 83.6387 84.7166V92.5191C83.6387 93.9555 84.8031 95.12 86.2395 95.12ZM86.2395 84.7166H94.0421V92.5191H86.2395V84.7166Z" fill="white"/>
<path d="M101.845 95.12H109.648C111.084 95.12 112.248 93.9555 112.248 92.5191V84.7166C112.248 83.2802 111.084 82.1157 109.648 82.1157H101.845C100.409 82.1157 99.2441 83.2802 99.2441 84.7166V92.5191C99.2441 93.9555 100.409 95.12 101.845 95.12ZM101.845 84.7166H109.648V92.5191H101.845V84.7166Z" fill="white"/>
<path d="M120.457 83.09H126.959L136.306 54.2368H173.287" stroke="white" stroke-width="0.812766" stroke-linecap="round"/>
<path d="M120.051 120.477H126.553L128.991 168.43H172.881" stroke="white" stroke-width="0.812766" stroke-linecap="round"/>
<path d="M76.1602 120.477H69.658L67.2197 168.43H23.3304" stroke="white" stroke-width="0.812766" stroke-linecap="round"/>
<path d="M86.2395 110.723H94.0421C95.4785 110.723 96.6429 109.559 96.6429 108.123V100.32C96.6429 98.8837 95.4785 97.7192 94.0421 97.7192H86.2395C84.8031 97.7192 83.6387 98.8837 83.6387 100.32V108.123C83.6387 109.559 84.8031 110.723 86.2395 110.723ZM86.2395 100.32H94.0421V108.123H86.2395V100.32Z" fill="white"/>
<path d="M100.545 105.522H104.446V109.423C104.446 110.141 105.028 110.723 105.746 110.723C106.464 110.723 107.047 110.141 107.047 109.423V105.522H110.948C111.666 105.522 112.248 104.94 112.248 104.221C112.248 103.503 111.666 102.921 110.948 102.921H107.047V99.0197C107.047 98.3015 106.464 97.7192 105.746 97.7192C105.028 97.7192 104.446 98.3015 104.446 99.0197V102.921H100.545C99.8264 102.921 99.2441 103.503 99.2441 104.221C99.2441 104.94 99.8264 105.522 100.545 105.522Z" fill="#0FB56F"/>
<path d="M116.151 58.7065H79.7388C76.866 58.7065 74.5371 61.0354 74.5371 63.9082V131.53C74.5371 134.403 76.866 136.732 79.7388 136.732H116.151C119.024 136.732 121.352 134.403 121.352 131.53V63.9082C121.352 61.0354 119.024 58.7065 116.151 58.7065ZM107.945 61.3074L106.281 63.089C105.804 63.5965 105.143 63.8917 104.447 63.9082H91.5727C90.8538 63.9093 90.1665 63.6127 89.6741 63.089L87.9445 61.3074H107.945ZM77.138 63.9082C77.138 62.4718 78.3024 61.3074 79.7388 61.3074H84.3813L87.7104 64.8706C88.6953 65.9181 90.0699 66.5112 91.5077 66.5091H104.447C105.885 66.5112 107.259 65.9181 108.244 64.8706L111.508 61.3074H116.151C117.587 61.3074 118.752 62.4718 118.752 63.9082V125.028C118.752 126.465 117.587 127.629 116.151 127.629H79.7388C78.3024 127.629 77.138 126.465 77.138 125.028V63.9082ZM116.151 134.131H79.7388C78.3024 134.131 77.138 132.967 77.138 131.53V129.502C77.9234 129.975 78.8221 130.226 79.7388 130.23H116.151C117.068 130.226 117.966 129.975 118.752 129.502V131.53C118.752 132.967 117.587 134.131 116.151 134.131Z" fill="#0FB56F"/>
<line x1="136.307" y1="33.511" x2="172.069" y2="33.511" stroke="#0FB56F" stroke-width="1.62553" stroke-linecap="round"/>
<line x1="24.1448" y1="46.5154" x2="59.9065" y2="46.5154" stroke="#0FB56F" stroke-width="1.62553" stroke-linecap="round"/>
<line x1="24.1448" y1="74.9621" x2="59.9065" y2="74.9621" stroke="#0FB56F" stroke-width="1.62553" stroke-linecap="round"/>
<line x1="31.4593" y1="139.983" x2="59.9061" y2="139.983" stroke="#0FB56F" stroke-width="1.62553" stroke-linecap="round"/>
<line x1="136.307" y1="40.0129" x2="172.069" y2="40.0129" stroke="#0FB56F" stroke-width="1.62553" stroke-linecap="round"/>
<line x1="24.1448" y1="53.0173" x2="53.4044" y2="53.0173" stroke="#0FB56F" stroke-width="1.62553" stroke-linecap="round"/>
<line x1="24.1448" y1="81.4636" x2="59.9065" y2="81.4636" stroke="#0FB56F" stroke-width="1.62553" stroke-linecap="round"/>
<line x1="31.4593" y1="148.924" x2="59.9061" y2="148.924" stroke="#0FB56F" stroke-width="1.62553" stroke-linecap="round"/>
<line x1="136.307" y1="153.801" x2="172.069" y2="153.801" stroke="#0FB56F" stroke-width="1.62553" stroke-linecap="round"/>
<line x1="136.307" y1="46.5154" x2="156.626" y2="46.5154" stroke="#0FB56F" stroke-width="1.62553" stroke-linecap="round"/>
<line x1="24.1448" y1="59.5198" x2="44.464" y2="59.5198" stroke="#0FB56F" stroke-width="1.62553" stroke-linecap="round"/>
<line x1="24.1448" y1="87.966" x2="34.7108" y2="87.966" stroke="#0FB56F" stroke-width="1.62553" stroke-linecap="round"/>
<line x1="31.4593" y1="157.864" x2="40.3997" y2="157.864" stroke="#0FB56F" stroke-width="1.62553" stroke-linecap="round"/>
<line x1="136.307" y1="160.302" x2="156.626" y2="160.302" stroke="#0FB56F" stroke-width="1.62553" stroke-linecap="round"/>
<line x1="146.873" y1="134.056" x2="138.507" y2="142.422" stroke="white" stroke-width="0.812766" stroke-linecap="round" stroke-dasharray="0.81 1.63"/>
<line x1="0.406383" y1="-0.406383" x2="12.2373" y2="-0.406383" transform="matrix(0.707107 0.707107 0.707107 -0.707107 161.5 133.481)" stroke="white" stroke-width="0.812766" stroke-linecap="round" stroke-dasharray="0.81 1.63"/>
<circle cx="142.403" cy="137.951" r="6.50213" stroke="#0FB56F" stroke-width="0.812766"/>
<circle cx="25.7703" cy="140.796" r="2.03192" stroke="white" stroke-width="0.812766"/>
<circle cx="25.7703" cy="149.736" r="2.03192" stroke="white" stroke-width="0.812766"/>
<circle cx="25.7703" cy="158.677" r="2.03192" stroke="white" stroke-width="0.812766"/>
<circle cx="165.973" cy="137.951" r="6.50213" stroke="#0FB56F" stroke-width="0.812766"/>
<defs>
<linearGradient id="paint0_linear_1610_15754" x1="195.638" y1="0.182111" x2="0.574219" y2="0.182111" gradientUnits="userSpaceOnUse">
<stop stop-color="white" stop-opacity="0.12"/>
<stop offset="0.499248" stop-color="white" stop-opacity="0.4"/>
<stop offset="1" stop-color="white" stop-opacity="0.12"/>
</linearGradient>
</defs>
</svg>
