<svg width="196" height="196" viewBox="0 0 196 196" fill="none" xmlns="http://www.w3.org/2000/svg">
<rect x="1.32045" y="0.593883" width="194.251" height="194.251" stroke="url(#paint0_linear_1610_15856)" stroke-width="0.812766"/>
<g opacity="0.2">
<mask id="mask0_1610_15856" style="mask-type:alpha" maskUnits="userSpaceOnUse" x="7" y="6" width="183" height="183">
<rect x="7.41602" y="6.68994" width="182.06" height="182.06" fill="white"/>
</mask>
<g mask="url(#mask0_1610_15856)">
<line x1="140.695" y1="-83.6392" x2="-83.9239" y2="140.98" stroke="#0FB56F" stroke-width="0.812766" stroke-linecap="round"/>
<line x1="254.488" y1="30.1528" x2="29.869" y2="254.772" stroke="#0FB56F" stroke-width="0.812766" stroke-linecap="round"/>
<line x1="99.3164" y1="-125.019" x2="-125.303" y2="99.6007" stroke="#0FB56F" stroke-width="0.812766" stroke-linecap="round"/>
<line x1="213.109" y1="-11.2261" x2="-11.5099" y2="213.393" stroke="#0FB56F" stroke-width="0.812766" stroke-linecap="round"/>
<line x1="202.764" y1="-21.5708" x2="-21.8556" y2="203.048" stroke="#0FB56F" stroke-width="0.812766" stroke-linecap="round"/>
<line x1="316.557" y1="92.2222" x2="91.9374" y2="316.841" stroke="#0FB56F" stroke-width="0.812766" stroke-linecap="round"/>
<line x1="126.902" y1="-97.4326" x2="-97.7169" y2="127.187" stroke="#0FB56F" stroke-width="0.812766" stroke-linecap="round"/>
<line x1="240.693" y1="16.3604" x2="16.0741" y2="240.98" stroke="#0FB56F" stroke-width="0.812766" stroke-linecap="round"/>
<line x1="168.283" y1="-56.0537" x2="-56.336" y2="168.566" stroke="#0FB56F" stroke-width="0.812766" stroke-linecap="round"/>
<line x1="282.074" y1="57.7398" x2="57.455" y2="282.359" stroke="#0FB56F" stroke-width="0.812766" stroke-linecap="round"/>
<line x1="113.111" y1="-111.226" x2="-111.508" y2="113.394" stroke="#0FB56F" stroke-width="0.812766" stroke-linecap="round"/>
<line x1="226.9" y1="2.56739" x2="2.28114" y2="227.187" stroke="#0FB56F" stroke-width="0.812766" stroke-linecap="round"/>
<line x1="188.969" y1="-35.3638" x2="-35.6505" y2="189.255" stroke="#0FB56F" stroke-width="0.812766" stroke-linecap="round"/>
<line x1="302.766" y1="78.4292" x2="78.1464" y2="303.048" stroke="#0FB56F" stroke-width="0.812766" stroke-linecap="round"/>
<line x1="144.145" y1="-80.1914" x2="-80.4747" y2="144.428" stroke="#0FB56F" stroke-width="0.812766" stroke-linecap="round"/>
<line x1="257.936" y1="33.6011" x2="33.3163" y2="258.22" stroke="#0FB56F" stroke-width="0.812766" stroke-linecap="round"/>
<line x1="154.488" y1="-69.8467" x2="-70.131" y2="154.773" stroke="#0FB56F" stroke-width="0.812766" stroke-linecap="round"/>
<line x1="268.281" y1="43.9458" x2="43.662" y2="268.565" stroke="#0FB56F" stroke-width="0.812766" stroke-linecap="round"/>
<line x1="209.662" y1="-14.6743" x2="-14.9571" y2="209.945" stroke="#0FB56F" stroke-width="0.812766" stroke-linecap="round"/>
<line x1="323.451" y1="99.1191" x2="98.8319" y2="323.738" stroke="#0FB56F" stroke-width="0.812766" stroke-linecap="round"/>
<line x1="182.072" y1="-42.2607" x2="-42.547" y2="182.359" stroke="#0FB56F" stroke-width="0.812766" stroke-linecap="round"/>
<line x1="295.867" y1="71.5327" x2="71.2479" y2="296.152" stroke="#0FB56F" stroke-width="0.812766" stroke-linecap="round"/>
<line x1="133.797" y1="-90.5366" x2="-90.8224" y2="134.083" stroke="#0FB56F" stroke-width="0.812766" stroke-linecap="round"/>
<line x1="247.594" y1="23.2564" x2="22.9745" y2="247.876" stroke="#0FB56F" stroke-width="0.812766" stroke-linecap="round"/>
<line x1="175.176" y1="-49.1567" x2="-49.4435" y2="175.463" stroke="#0FB56F" stroke-width="0.812766" stroke-linecap="round"/>
<line x1="288.973" y1="64.6367" x2="64.3534" y2="289.256" stroke="#0FB56F" stroke-width="0.812766" stroke-linecap="round"/>
<line x1="120.006" y1="-104.33" x2="-104.613" y2="120.29" stroke="#0FB56F" stroke-width="0.812766" stroke-linecap="round"/>
<line x1="233.799" y1="9.46338" x2="9.17958" y2="234.083" stroke="#0FB56F" stroke-width="0.812766" stroke-linecap="round"/>
<line x1="195.867" y1="-28.4673" x2="-28.7521" y2="196.152" stroke="#0FB56F" stroke-width="0.812766" stroke-linecap="round"/>
<line x1="309.66" y1="85.3262" x2="85.0409" y2="309.945" stroke="#0FB56F" stroke-width="0.812766" stroke-linecap="round"/>
<line x1="0.406383" y1="-0.406383" x2="318.147" y2="-0.406383" transform="matrix(-0.706744 0.70747 -0.709096 -0.705112 157.992 -67.0308)" stroke="#0FB56F" stroke-width="0.812766" stroke-linecap="round"/>
<line x1="0.406383" y1="-0.406383" x2="318.147" y2="-0.406383" transform="matrix(-0.706744 0.70747 -0.709096 -0.705112 271.787 46.7622)" stroke="#0FB56F" stroke-width="0.812766" stroke-linecap="round"/>
<line x1="147.59" y1="-76.7432" x2="-77.0294" y2="147.876" stroke="#0FB56F" stroke-width="0.812766" stroke-linecap="round"/>
<line x1="261.387" y1="37.0498" x2="36.7675" y2="261.669" stroke="#0FB56F" stroke-width="0.812766" stroke-linecap="round"/>
<line x1="102.764" y1="-121.57" x2="-121.856" y2="103.049" stroke="#0FB56F" stroke-width="0.812766" stroke-linecap="round"/>
<line x1="216.559" y1="-7.77783" x2="-8.06066" y2="216.841" stroke="#0FB56F" stroke-width="0.812766" stroke-linecap="round"/>
<line x1="107.221" y1="-119.132" x2="-117.399" y2="105.487" stroke="#0FB56F" stroke-width="0.812766" stroke-linecap="round"/>
<line x1="221.016" y1="-5.33886" x2="-3.60363" y2="219.28" stroke="#0FB56F" stroke-width="0.812766" stroke-linecap="round"/>
<line x1="206.213" y1="-18.123" x2="-18.4064" y2="206.496" stroke="#0FB56F" stroke-width="0.812766" stroke-linecap="round"/>
<line x1="320.008" y1="95.6704" x2="95.3886" y2="320.29" stroke="#0FB56F" stroke-width="0.812766" stroke-linecap="round"/>
<line x1="130.35" y1="-93.9844" x2="-94.2696" y2="130.635" stroke="#0FB56F" stroke-width="0.812766" stroke-linecap="round"/>
<line x1="244.143" y1="19.8081" x2="19.5233" y2="244.427" stroke="#0FB56F" stroke-width="0.812766" stroke-linecap="round"/>
<line x1="171.73" y1="-52.6055" x2="-52.8888" y2="172.014" stroke="#0FB56F" stroke-width="0.812766" stroke-linecap="round"/>
<line x1="285.52" y1="61.1885" x2="60.9003" y2="285.808" stroke="#0FB56F" stroke-width="0.812766" stroke-linecap="round"/>
<line x1="116.557" y1="-107.777" x2="-108.063" y2="116.842" stroke="#0FB56F" stroke-width="0.812766" stroke-linecap="round"/>
<line x1="230.35" y1="6.01514" x2="5.73036" y2="230.634" stroke="#0FB56F" stroke-width="0.812766" stroke-linecap="round"/>
<line x1="192.418" y1="-31.9155" x2="-32.2013" y2="192.704" stroke="#0FB56F" stroke-width="0.812766" stroke-linecap="round"/>
<line x1="306.215" y1="81.877" x2="81.5956" y2="306.496" stroke="#0FB56F" stroke-width="0.812766" stroke-linecap="round"/>
<line x1="151.039" y1="-73.2944" x2="-73.5802" y2="151.325" stroke="#0FB56F" stroke-width="0.812766" stroke-linecap="round"/>
<line x1="264.834" y1="40.4981" x2="40.2147" y2="265.117" stroke="#0FB56F" stroke-width="0.812766" stroke-linecap="round"/>
<line x1="161.385" y1="-62.9502" x2="-63.2345" y2="161.669" stroke="#0FB56F" stroke-width="0.812766" stroke-linecap="round"/>
<line x1="275.178" y1="50.8433" x2="50.5585" y2="275.463" stroke="#0FB56F" stroke-width="0.812766" stroke-linecap="round"/>
<line x1="109.66" y1="-114.674" x2="-114.959" y2="109.945" stroke="#0FB56F" stroke-width="0.812766" stroke-linecap="round"/>
<line x1="223.453" y1="-0.880854" x2="-1.16613" y2="223.738" stroke="#0FB56F" stroke-width="0.812766" stroke-linecap="round"/>
<line x1="185.523" y1="-38.8125" x2="-39.0958" y2="185.807" stroke="#0FB56F" stroke-width="0.812766" stroke-linecap="round"/>
<line x1="299.314" y1="74.981" x2="74.6952" y2="299.6" stroke="#0FB56F" stroke-width="0.812766" stroke-linecap="round"/>
<line x1="137.246" y1="-87.0874" x2="-87.3732" y2="137.532" stroke="#0FB56F" stroke-width="0.812766" stroke-linecap="round"/>
<line x1="251.039" y1="26.7046" x2="26.4198" y2="251.324" stroke="#0FB56F" stroke-width="0.812766" stroke-linecap="round"/>
<line x1="178.625" y1="-45.7085" x2="-45.9943" y2="178.911" stroke="#0FB56F" stroke-width="0.812766" stroke-linecap="round"/>
<line x1="292.418" y1="68.0845" x2="67.7987" y2="292.704" stroke="#0FB56F" stroke-width="0.812766" stroke-linecap="round"/>
<line x1="123.453" y1="-100.881" x2="-101.166" y2="123.738" stroke="#0FB56F" stroke-width="0.812766" stroke-linecap="round"/>
<line x1="237.246" y1="12.9121" x2="12.6268" y2="237.531" stroke="#0FB56F" stroke-width="0.812766" stroke-linecap="round"/>
<line x1="199.316" y1="-25.0185" x2="-25.3028" y2="199.601" stroke="#0FB56F" stroke-width="0.812766" stroke-linecap="round"/>
<line x1="313.109" y1="88.7744" x2="88.4901" y2="313.394" stroke="#0FB56F" stroke-width="0.812766" stroke-linecap="round"/>
<line x1="164.832" y1="-59.5019" x2="-59.7872" y2="165.117" stroke="#0FB56F" stroke-width="0.812766" stroke-linecap="round"/>
<line x1="278.625" y1="54.2915" x2="54.0057" y2="278.911" stroke="#0FB56F" stroke-width="0.812766" stroke-linecap="round"/>
</g>
</g>
<path d="M28.8356 24.6182H28.7836L25.6496 30.171L22.5156 24.6182H22.4635V32.6938H21.7093V23.6169H22.7756L25.6496 28.7275H25.6886L28.5625 23.6169H29.5899V32.6938H28.8356V24.6182ZM36.6604 32.6938C36.3743 32.6938 36.1663 32.6202 36.0362 32.4728C35.9062 32.3254 35.8325 32.126 35.8152 31.8746V31.6405H35.7501C35.6028 32.0133 35.36 32.3081 35.0219 32.5248C34.6838 32.7415 34.2546 32.8499 33.7345 32.8499C33.0322 32.8499 32.4904 32.6808 32.1089 32.3427C31.7275 31.996 31.5368 31.5105 31.5368 30.8863C31.5368 30.2967 31.7448 29.8286 32.161 29.4818C32.5858 29.135 33.2793 28.9616 34.2416 28.9616H35.7761V28.1814C35.7761 27.0803 35.2083 26.5298 34.0726 26.5298C33.6304 26.5298 33.262 26.6252 32.9672 26.8159C32.6725 26.998 32.4341 27.2624 32.252 27.6092L31.7838 27.2191C31.9659 26.8289 32.2433 26.5082 32.6161 26.2567C32.9976 26.0053 33.4917 25.8796 34.0986 25.8796C34.8789 25.8796 35.477 26.0747 35.8932 26.4648C36.3093 26.8549 36.5174 27.4011 36.5174 28.1033V32.0436H37.4147V32.6938H36.6604ZM33.8385 32.2127C34.1073 32.2127 34.3587 32.178 34.5928 32.1087C34.8268 32.0393 35.0306 31.9439 35.204 31.8226C35.386 31.6925 35.5247 31.5408 35.6201 31.3674C35.7241 31.1854 35.7761 30.9816 35.7761 30.7562V29.5208H34.2156C33.5481 29.5208 33.0626 29.6292 32.7592 29.8459C32.4644 30.054 32.317 30.3444 32.317 30.7172V31.0293C32.317 31.4194 32.4557 31.7142 32.7331 31.9136C33.0106 32.113 33.379 32.2127 33.8385 32.2127ZM38.9407 32.6938V26.0357H39.6819V27.2321H39.7339C39.864 26.92 40.085 26.6425 40.3971 26.3998C40.7092 26.157 41.1514 26.0357 41.7236 26.0357H42.1657V26.7639H41.5805C41.0257 26.7639 40.5705 26.8853 40.2151 27.128C39.8596 27.3708 39.6819 27.7089 39.6819 28.1424V32.6938H38.9407ZM43.5887 23.0707H44.3299V29.4298H44.3689L45.4093 28.3244L47.62 26.0357H48.5303L45.9164 28.7406L48.8164 32.6938H47.9061L45.3832 29.2087L44.3299 30.2751V32.6938H43.5887V23.0707ZM52.4579 32.8499C52.0157 32.8499 51.6126 32.7719 51.2485 32.6158C50.893 32.4598 50.5853 32.2344 50.3252 31.9396C50.0738 31.6362 49.8787 31.2677 49.74 30.8342C49.6099 30.4008 49.5449 29.9109 49.5449 29.3648C49.5449 28.8186 49.6099 28.3331 49.74 27.9083C49.8787 27.4748 50.0738 27.1107 50.3252 26.8159C50.5853 26.5125 50.893 26.2827 51.2485 26.1267C51.6039 25.962 52.0027 25.8796 52.4449 25.8796C52.8697 25.8796 53.2555 25.962 53.6022 26.1267C53.949 26.2827 54.2438 26.5038 54.4865 26.7899C54.7293 27.076 54.9157 27.4228 55.0457 27.8303C55.1844 28.2291 55.2538 28.6712 55.2538 29.1567V29.5078H50.3252V29.8329C50.3252 30.1797 50.3728 30.5005 50.4682 30.7952C50.5722 31.0813 50.7153 31.3284 50.8974 31.5365C51.0881 31.7445 51.3178 31.9093 51.5866 32.0306C51.8553 32.1433 52.1588 32.1997 52.4969 32.1997C53.4679 32.1997 54.1398 31.7532 54.5125 30.8602L55.0587 31.2244C54.8506 31.7185 54.5212 32.113 54.0704 32.4078C53.6282 32.7025 53.0907 32.8499 52.4579 32.8499ZM52.4449 26.5038C52.1241 26.5038 51.8337 26.5645 51.5736 26.6859C51.3135 26.7986 51.0881 26.959 50.8974 27.167C50.7153 27.3751 50.5722 27.6265 50.4682 27.9213C50.3728 28.2074 50.3252 28.5238 50.3252 28.8706V28.9356H54.4475V28.8316C54.4475 28.4848 54.3998 28.1684 54.3045 27.8823C54.2091 27.5875 54.0704 27.3404 53.8883 27.141C53.7149 26.9416 53.5025 26.7856 53.2511 26.6729C53.0084 26.5602 52.7396 26.5038 52.4449 26.5038ZM58.2834 32.6938C58.0146 32.6938 57.8109 32.6202 57.6722 32.4728C57.5335 32.3254 57.4641 32.126 57.4641 31.8746V26.6859H56.3067V26.0357H57.061C57.243 26.0357 57.3644 26.001 57.4251 25.9316C57.4944 25.8536 57.5291 25.7192 57.5291 25.5285V24.1761H58.2053V26.0357H59.7138V26.6859H58.2053V32.0436H59.6098V32.6938H58.2834ZM61.4949 26.0357H62.2362V27.102H62.2752C62.4399 26.7292 62.6913 26.4345 63.0294 26.2177C63.3675 25.9923 63.7923 25.8796 64.3038 25.8796C65.1621 25.8796 65.834 26.183 66.3195 26.7899C66.805 27.3968 67.0477 28.2551 67.0477 29.3648C67.0477 30.4745 66.805 31.3327 66.3195 31.9396C65.834 32.5465 65.1621 32.8499 64.3038 32.8499C63.7923 32.8499 63.3719 32.7415 63.0424 32.5248C62.713 32.2994 62.4572 32.0003 62.2752 31.6275H62.2362V35.2947H61.4949V26.0357ZM64.1348 32.1867C64.8023 32.1867 65.3225 31.9743 65.6953 31.5495C66.0681 31.1247 66.2545 30.5525 66.2545 29.8329V28.8966C66.2545 28.177 66.0681 27.6048 65.6953 27.18C65.3225 26.7552 64.8023 26.5428 64.1348 26.5428C63.8747 26.5428 63.6276 26.5818 63.3935 26.6599C63.1681 26.7292 62.9687 26.8289 62.7953 26.959C62.6219 27.089 62.4832 27.2451 62.3792 27.4271C62.2838 27.6092 62.2362 27.8086 62.2362 28.0253V30.6652C62.2362 30.8993 62.2838 31.1117 62.3792 31.3024C62.4832 31.4845 62.6219 31.6448 62.7953 31.7835C62.9687 31.9136 63.1681 32.0133 63.3935 32.0826C63.6276 32.152 63.8747 32.1867 64.1348 32.1867ZM69.7815 32.6938C69.5127 32.6938 69.309 32.6202 69.1703 32.4728C69.0316 32.3254 68.9622 32.1303 68.9622 31.8876V23.0707H69.7034V32.0436H70.7308V32.6938H69.7815ZM76.9686 32.6938C76.6825 32.6938 76.4744 32.6202 76.3444 32.4728C76.2143 32.3254 76.1406 32.126 76.1233 31.8746V31.6405H76.0583C75.9109 32.0133 75.6681 32.3081 75.33 32.5248C74.9919 32.7415 74.5628 32.8499 74.0426 32.8499C73.3404 32.8499 72.7985 32.6808 72.4171 32.3427C72.0356 31.996 71.8449 31.5105 71.8449 30.8863C71.8449 30.2967 72.0529 29.8286 72.4691 29.4818C72.8939 29.135 73.5874 28.9616 74.5498 28.9616H76.0843V28.1814C76.0843 27.0803 75.5164 26.5298 74.3807 26.5298C73.9386 26.5298 73.5701 26.6252 73.2753 26.8159C72.9806 26.998 72.7422 27.2624 72.5601 27.6092L72.092 27.2191C72.274 26.8289 72.5514 26.5082 72.9242 26.2567C73.3057 26.0053 73.7999 25.8796 74.4067 25.8796C75.187 25.8796 75.7852 26.0747 76.2013 26.4648C76.6174 26.8549 76.8255 27.4011 76.8255 28.1033V32.0436H77.7228V32.6938H76.9686ZM74.1466 32.2127C74.4154 32.2127 74.6668 32.178 74.9009 32.1087C75.135 32.0393 75.3387 31.9439 75.5121 31.8226C75.6941 31.6925 75.8328 31.5408 75.9282 31.3674C76.0322 31.1854 76.0843 30.9816 76.0843 30.7562V29.5208H74.5238C73.8562 29.5208 73.3707 29.6292 73.0673 29.8459C72.7725 30.054 72.6251 30.3444 72.6251 30.7172V31.0293C72.6251 31.4194 72.7638 31.7142 73.0413 31.9136C73.3187 32.113 73.6871 32.2127 74.1466 32.2127ZM81.5895 32.8499C80.6706 32.8499 79.9597 32.5465 79.4568 31.9396C78.9627 31.3327 78.7156 30.4745 78.7156 29.3648C78.7156 28.2551 78.9627 27.3968 79.4568 26.7899C79.9597 26.183 80.6706 25.8796 81.5895 25.8796C82.2051 25.8796 82.7036 26.014 83.085 26.2827C83.4665 26.5515 83.7569 26.907 83.9563 27.3491L83.3321 27.6612C83.1761 27.2971 82.955 27.0197 82.6689 26.8289C82.3915 26.6382 82.0317 26.5428 81.5895 26.5428C80.9133 26.5428 80.3975 26.7596 80.042 27.193C79.6866 27.6265 79.5089 28.1944 79.5089 28.8966V29.8329C79.5089 30.5351 79.6866 31.103 80.042 31.5365C80.3975 31.9699 80.9133 32.1867 81.5895 32.1867C82.049 32.1867 82.4348 32.087 82.7469 31.8876C83.059 31.6882 83.3104 31.4021 83.5012 31.0293L84.0473 31.3934C83.8306 31.8356 83.5185 32.191 83.111 32.4598C82.7122 32.7199 82.2051 32.8499 81.5895 32.8499ZM87.9783 32.8499C87.5361 32.8499 87.133 32.7719 86.7689 32.6158C86.4134 32.4598 86.1057 32.2344 85.8456 31.9396C85.5942 31.6362 85.3991 31.2677 85.2604 30.8342C85.1304 30.4008 85.0653 29.9109 85.0653 29.3648C85.0653 28.8186 85.1304 28.3331 85.2604 27.9083C85.3991 27.4748 85.5942 27.1107 85.8456 26.8159C86.1057 26.5125 86.4134 26.2827 86.7689 26.1267C87.1243 25.962 87.5231 25.8796 87.9653 25.8796C88.3901 25.8796 88.7759 25.962 89.1227 26.1267C89.4694 26.2827 89.7642 26.5038 90.007 26.7899C90.2497 27.076 90.4361 27.4228 90.5661 27.8303C90.7048 28.2291 90.7742 28.6712 90.7742 29.1567V29.5078H85.8456V29.8329C85.8456 30.1797 85.8933 30.5005 85.9886 30.7952C86.0927 31.0813 86.2357 31.3284 86.4178 31.5365C86.6085 31.7445 86.8382 31.9093 87.107 32.0306C87.3758 32.1433 87.6792 32.1997 88.0173 32.1997C88.9883 32.1997 89.6602 31.7532 90.033 30.8602L90.5791 31.2244C90.3711 31.7185 90.0416 32.113 89.5908 32.4078C89.1487 32.7025 88.6112 32.8499 87.9783 32.8499ZM87.9653 26.5038C87.6445 26.5038 87.3541 26.5645 87.094 26.6859C86.8339 26.7986 86.6085 26.959 86.4178 27.167C86.2357 27.3751 86.0927 27.6265 85.9886 27.9213C85.8933 28.2074 85.8456 28.5238 85.8456 28.8706V28.9356H89.9679V28.8316C89.9679 28.4848 89.9203 28.1684 89.8249 27.8823C89.7295 27.5875 89.5908 27.3404 89.4088 27.141C89.2354 26.9416 89.023 26.7856 88.7715 26.6729C88.5288 26.5602 88.26 26.5038 87.9653 26.5038Z" fill="#0FB56F"/>
<line x1="31.7988" y1="154.375" x2="23.4331" y2="162.741" stroke="white" stroke-width="0.812766" stroke-linecap="round" stroke-dasharray="0.81 1.63"/>
<path d="M103.324 133.481H92.9208L89.0195 174.932H18.7965" stroke="white" stroke-width="0.812766" stroke-linecap="round"/>
<path d="M92.7578 133.481H103.161L107.062 174.932H177.286" stroke="white" stroke-width="0.812766" stroke-linecap="round"/>
<line x1="124.455" y1="151.362" x2="169.97" y2="151.362" stroke="#0FB56F" stroke-width="1.62553" stroke-linecap="round"/>
<line x1="124.455" y1="157.864" x2="169.97" y2="157.864" stroke="#0FB56F" stroke-width="1.62553" stroke-linecap="round"/>
<line x1="124.455" y1="164.366" x2="150.464" y2="164.366" stroke="#0FB56F" stroke-width="1.62553" stroke-linecap="round"/>
<line x1="0.406383" y1="-0.406383" x2="12.2373" y2="-0.406383" transform="matrix(0.707107 0.707107 0.707107 -0.707107 45.6172 153.8)" stroke="white" stroke-width="0.812766" stroke-linecap="round" stroke-dasharray="0.81 1.63"/>
<line x1="77.3164" y1="154.375" x2="68.9507" y2="162.741" stroke="white" stroke-width="0.812766" stroke-linecap="round" stroke-dasharray="0.81 1.63"/>
<circle cx="27.3304" cy="158.271" r="6.50213" stroke="#0FB56F" stroke-width="0.812766"/>
<circle cx="50.0882" cy="158.271" r="6.50213" stroke="#0FB56F" stroke-width="0.812766"/>
<circle cx="72.8441" cy="158.271" r="6.50213" stroke="#0FB56F" stroke-width="0.812766"/>
<path d="M135.02 64.802V130.636C135.017 132.655 133.382 134.29 131.363 134.293H65.5285C63.5093 134.29 61.8741 132.655 61.8711 130.636V64.802C61.8741 62.7828 63.5093 61.1476 65.5285 61.1445H131.363C133.382 61.1476 135.017 62.7828 135.02 64.802ZM132.582 130.636V64.802C132.58 64.1284 132.036 63.5844 131.363 63.5828H65.5285C64.855 63.5844 64.3109 64.1284 64.3094 64.802V130.636C64.3109 131.31 64.855 131.854 65.5285 131.855H131.363C132.036 131.854 132.58 131.31 132.582 130.636Z" fill="#0FB56F"/>
<path d="M124.048 116.006V118.445H72.8438V116.006H83.2538C83.0313 115.622 82.8621 115.209 82.7509 114.78C82.0803 112.174 83.6485 109.518 86.2544 108.845V108.692H81.3778V106.253H114.295V103.815H92.3501C91.8701 103.815 91.4358 103.533 91.2392 103.096L80.5899 79.432H75.282V76.9937H81.3778C81.8578 76.9937 82.2922 77.2756 82.4887 77.713L83.8115 80.6511H114.295C114.968 80.6511 115.514 81.1967 115.514 81.8702V89.1851C115.514 89.5082 115.386 89.8191 115.157 90.0477L106.623 98.5817C106.395 98.8103 106.084 98.9383 105.761 98.9383H92.0408L93.138 101.377H115.514C116.188 101.377 116.733 101.922 116.733 102.596V107.472C116.733 108.146 116.188 108.692 115.514 108.692H111.857V108.845C114.008 109.405 115.511 111.345 115.514 113.568C115.514 114.425 115.288 115.266 114.857 116.006H124.048ZM110.64 116.009C111.988 116.008 113.077 114.915 113.076 113.568C113.074 112.698 112.609 111.895 111.857 111.461V112.349C111.857 113.023 111.311 113.568 110.637 113.568C109.964 113.568 109.418 113.023 109.418 112.349V111.461C108.662 111.896 108.198 112.703 108.199 113.574C108.201 114.921 109.293 116.011 110.64 116.009ZM113.076 88.6807V83.0894H84.9088L90.9435 96.5H105.256L113.076 88.6807ZM109.418 108.845V108.692H88.6927V108.845C89.1224 108.957 89.5354 109.126 89.9195 109.348C92.248 110.697 93.042 113.678 91.6933 116.006H106.418C106.195 115.622 106.026 115.209 105.915 114.78C105.244 112.174 106.812 109.518 109.418 108.845ZM89.5811 114.79C90.2563 113.625 89.8585 112.134 88.6927 111.461V112.349C88.6927 113.023 88.1471 113.568 87.4735 113.568C86.8 113.568 86.2544 113.023 86.2544 112.349V111.461C85.5016 111.895 85.0368 112.698 85.0352 113.568C85.0352 114.438 85.4985 115.243 86.2513 115.679C87.4172 116.352 88.9076 115.955 89.5811 114.79Z" fill="white"/>
<path d="M108.199 123.321H110.638V125.76H108.199V123.321Z" fill="#0FB56F"/>
<path d="M100.885 123.321H103.323V125.76H100.885V123.321Z" fill="#0FB56F"/>
<path d="M93.5684 123.321H96.0067V125.76H93.5684V123.321Z" fill="#0FB56F"/>
<path d="M86.2539 123.321H88.6922V125.76H86.2539V123.321Z" fill="#0FB56F"/>
<path d="M75.2816 68.4593C75.955 68.4593 76.5008 67.9135 76.5008 67.2401C76.5008 66.5668 75.955 66.021 75.2816 66.021C74.6083 66.021 74.0625 66.5668 74.0625 67.2401C74.0625 67.9135 74.6083 68.4593 75.2816 68.4593Z" fill="#0FB56F"/>
<path d="M71.6254 68.4593C72.2987 68.4593 72.8445 67.9135 72.8445 67.2401C72.8445 66.5668 72.2987 66.021 71.6254 66.021C70.9521 66.021 70.4062 66.5668 70.4062 67.2401C70.4062 67.9135 70.9521 68.4593 71.6254 68.4593Z" fill="#0FB56F"/>
<path d="M67.9672 68.4593C68.6405 68.4593 69.1863 67.9135 69.1863 67.2401C69.1863 66.5668 68.6405 66.021 67.9672 66.021C67.2939 66.021 66.748 66.5668 66.748 67.2401C66.748 67.9135 67.2939 68.4593 67.9672 68.4593Z" fill="#0FB56F"/>
<line x1="135.834" y1="29.4475" x2="171.596" y2="29.4475" stroke="#0FB56F" stroke-width="1.62553" stroke-linecap="round"/>
<line x1="135.834" y1="35.949" x2="156.153" y2="35.949" stroke="#0FB56F" stroke-width="1.62553" stroke-linecap="round"/>
<circle cx="162.655" cy="74.1492" r="2.03192" stroke="white" stroke-width="0.812766"/>
<path d="M34.2363 71.7109L36.6746 74.1492L34.2363 76.5875" stroke="white" stroke-width="0.812766" stroke-linecap="round"/>
<path d="M34.2363 87.1533L36.6746 89.5916L34.2363 92.0299" stroke="white" stroke-width="0.812766" stroke-linecap="round"/>
<path d="M34.2363 102.596L36.6746 105.034L34.2363 107.473" stroke="white" stroke-width="0.812766" stroke-linecap="round"/>
<path d="M34.2363 118.039L36.6746 120.477L34.2363 122.915" stroke="white" stroke-width="0.812766" stroke-linecap="round"/>
<circle cx="162.655" cy="105.034" r="2.03192" stroke="white" stroke-width="0.812766"/>
<circle cx="162.655" cy="89.5916" r="2.03192" stroke="white" stroke-width="0.812766"/>
<circle cx="162.655" cy="120.477" r="2.03192" stroke="white" stroke-width="0.812766"/>
<defs>
<linearGradient id="paint0_linear_1610_15856" x1="195.978" y1="0.182111" x2="0.914062" y2="0.182111" gradientUnits="userSpaceOnUse">
<stop stop-color="white" stop-opacity="0.12"/>
<stop offset="0.499248" stop-color="white" stop-opacity="0.4"/>
<stop offset="1" stop-color="white" stop-opacity="0.12"/>
</linearGradient>
</defs>
</svg>
