<svg width="196" height="196" viewBox="0 0 196 196" fill="none" xmlns="http://www.w3.org/2000/svg">
<rect x="0.660289" y="0.593883" width="194.251" height="194.251" stroke="url(#paint0_linear_1610_16109)" stroke-width="0.812766"/>
<g opacity="0.2">
<mask id="mask0_1610_16109" style="mask-type:alpha" maskUnits="userSpaceOnUse" x="6" y="6" width="183" height="183">
<rect x="6.75586" y="6.68994" width="182.06" height="182.06" fill="white"/>
</mask>
<g mask="url(#mask0_1610_16109)">
<line x1="140.035" y1="-83.6392" x2="-84.5841" y2="140.98" stroke="#0FB56F" stroke-width="0.812766" stroke-linecap="round"/>
<line x1="253.828" y1="30.1528" x2="29.2089" y2="254.772" stroke="#0FB56F" stroke-width="0.812766" stroke-linecap="round"/>
<line x1="98.6562" y1="-125.019" x2="-125.963" y2="99.6007" stroke="#0FB56F" stroke-width="0.812766" stroke-linecap="round"/>
<line x1="212.449" y1="-11.2261" x2="-12.17" y2="213.393" stroke="#0FB56F" stroke-width="0.812766" stroke-linecap="round"/>
<line x1="202.104" y1="-21.5708" x2="-22.5157" y2="203.048" stroke="#0FB56F" stroke-width="0.812766" stroke-linecap="round"/>
<line x1="315.896" y1="92.2222" x2="91.2772" y2="316.841" stroke="#0FB56F" stroke-width="0.812766" stroke-linecap="round"/>
<line x1="126.242" y1="-97.4326" x2="-98.3771" y2="127.187" stroke="#0FB56F" stroke-width="0.812766" stroke-linecap="round"/>
<line x1="240.033" y1="16.3604" x2="15.414" y2="240.98" stroke="#0FB56F" stroke-width="0.812766" stroke-linecap="round"/>
<line x1="167.623" y1="-56.0537" x2="-56.9962" y2="168.566" stroke="#0FB56F" stroke-width="0.812766" stroke-linecap="round"/>
<line x1="281.414" y1="57.7398" x2="56.7948" y2="282.359" stroke="#0FB56F" stroke-width="0.812766" stroke-linecap="round"/>
<line x1="112.451" y1="-111.226" x2="-112.168" y2="113.394" stroke="#0FB56F" stroke-width="0.812766" stroke-linecap="round"/>
<line x1="226.24" y1="2.56739" x2="1.62098" y2="227.187" stroke="#0FB56F" stroke-width="0.812766" stroke-linecap="round"/>
<line x1="188.309" y1="-35.3638" x2="-36.3107" y2="189.255" stroke="#0FB56F" stroke-width="0.812766" stroke-linecap="round"/>
<line x1="302.105" y1="78.4292" x2="77.4862" y2="303.048" stroke="#0FB56F" stroke-width="0.812766" stroke-linecap="round"/>
<line x1="143.484" y1="-80.1914" x2="-81.1349" y2="144.428" stroke="#0FB56F" stroke-width="0.812766" stroke-linecap="round"/>
<line x1="257.275" y1="33.6016" x2="32.6561" y2="258.221" stroke="#0FB56F" stroke-width="0.812766" stroke-linecap="round"/>
<line x1="153.828" y1="-69.8467" x2="-70.7911" y2="154.773" stroke="#0FB56F" stroke-width="0.812766" stroke-linecap="round"/>
<line x1="267.621" y1="43.9458" x2="43.0018" y2="268.565" stroke="#0FB56F" stroke-width="0.812766" stroke-linecap="round"/>
<line x1="209.002" y1="-14.6743" x2="-15.6173" y2="209.945" stroke="#0FB56F" stroke-width="0.812766" stroke-linecap="round"/>
<line x1="322.791" y1="99.1191" x2="98.1718" y2="323.738" stroke="#0FB56F" stroke-width="0.812766" stroke-linecap="round"/>
<line x1="181.412" y1="-42.2607" x2="-43.2071" y2="182.359" stroke="#0FB56F" stroke-width="0.812766" stroke-linecap="round"/>
<line x1="295.207" y1="71.5322" x2="70.5878" y2="296.151" stroke="#0FB56F" stroke-width="0.812766" stroke-linecap="round"/>
<line x1="133.137" y1="-90.5366" x2="-91.4825" y2="134.083" stroke="#0FB56F" stroke-width="0.812766" stroke-linecap="round"/>
<line x1="246.934" y1="23.2564" x2="22.3143" y2="247.876" stroke="#0FB56F" stroke-width="0.812766" stroke-linecap="round"/>
<line x1="174.516" y1="-49.1567" x2="-50.1036" y2="175.463" stroke="#0FB56F" stroke-width="0.812766" stroke-linecap="round"/>
<line x1="288.312" y1="64.6367" x2="63.6932" y2="289.256" stroke="#0FB56F" stroke-width="0.812766" stroke-linecap="round"/>
<line x1="119.346" y1="-104.33" x2="-105.274" y2="120.29" stroke="#0FB56F" stroke-width="0.812766" stroke-linecap="round"/>
<line x1="233.139" y1="9.46387" x2="8.51942" y2="234.083" stroke="#0FB56F" stroke-width="0.812766" stroke-linecap="round"/>
<line x1="195.207" y1="-28.4673" x2="-29.4122" y2="196.152" stroke="#0FB56F" stroke-width="0.812766" stroke-linecap="round"/>
<line x1="309" y1="85.3257" x2="84.3808" y2="309.945" stroke="#0FB56F" stroke-width="0.812766" stroke-linecap="round"/>
<line x1="0.406383" y1="-0.406383" x2="318.147" y2="-0.406383" transform="matrix(-0.706744 0.70747 -0.709096 -0.705112 157.332 -67.0308)" stroke="#0FB56F" stroke-width="0.812766" stroke-linecap="round"/>
<line x1="0.406383" y1="-0.406383" x2="318.147" y2="-0.406383" transform="matrix(-0.706744 0.70747 -0.709096 -0.705112 271.127 46.7622)" stroke="#0FB56F" stroke-width="0.812766" stroke-linecap="round"/>
<line x1="146.93" y1="-76.7432" x2="-77.6896" y2="147.876" stroke="#0FB56F" stroke-width="0.812766" stroke-linecap="round"/>
<line x1="260.727" y1="37.0498" x2="36.1073" y2="261.669" stroke="#0FB56F" stroke-width="0.812766" stroke-linecap="round"/>
<line x1="102.104" y1="-121.57" x2="-122.516" y2="103.049" stroke="#0FB56F" stroke-width="0.812766" stroke-linecap="round"/>
<line x1="215.898" y1="-7.77783" x2="-8.72081" y2="216.841" stroke="#0FB56F" stroke-width="0.812766" stroke-linecap="round"/>
<line x1="106.561" y1="-119.132" x2="-118.059" y2="105.487" stroke="#0FB56F" stroke-width="0.812766" stroke-linecap="round"/>
<line x1="220.355" y1="-5.33886" x2="-4.26378" y2="219.28" stroke="#0FB56F" stroke-width="0.812766" stroke-linecap="round"/>
<line x1="205.553" y1="-18.123" x2="-19.0665" y2="206.496" stroke="#0FB56F" stroke-width="0.812766" stroke-linecap="round"/>
<line x1="319.348" y1="95.6704" x2="94.7284" y2="320.29" stroke="#0FB56F" stroke-width="0.812766" stroke-linecap="round"/>
<line x1="129.689" y1="-93.9844" x2="-94.9298" y2="130.635" stroke="#0FB56F" stroke-width="0.812766" stroke-linecap="round"/>
<line x1="243.482" y1="19.8081" x2="18.8632" y2="244.427" stroke="#0FB56F" stroke-width="0.812766" stroke-linecap="round"/>
<line x1="171.07" y1="-52.6055" x2="-53.5489" y2="172.014" stroke="#0FB56F" stroke-width="0.812766" stroke-linecap="round"/>
<line x1="284.859" y1="61.1885" x2="60.2401" y2="285.808" stroke="#0FB56F" stroke-width="0.812766" stroke-linecap="round"/>
<line x1="115.896" y1="-107.777" x2="-108.723" y2="116.842" stroke="#0FB56F" stroke-width="0.812766" stroke-linecap="round"/>
<line x1="229.689" y1="6.01514" x2="5.0702" y2="230.634" stroke="#0FB56F" stroke-width="0.812766" stroke-linecap="round"/>
<line x1="191.76" y1="-31.916" x2="-32.8595" y2="192.703" stroke="#0FB56F" stroke-width="0.812766" stroke-linecap="round"/>
<line x1="305.551" y1="81.877" x2="80.9315" y2="306.496" stroke="#0FB56F" stroke-width="0.812766" stroke-linecap="round"/>
<line x1="150.379" y1="-73.2944" x2="-74.2404" y2="151.325" stroke="#0FB56F" stroke-width="0.812766" stroke-linecap="round"/>
<line x1="264.174" y1="40.4981" x2="39.5545" y2="265.117" stroke="#0FB56F" stroke-width="0.812766" stroke-linecap="round"/>
<line x1="160.725" y1="-62.9502" x2="-63.8946" y2="161.669" stroke="#0FB56F" stroke-width="0.812766" stroke-linecap="round"/>
<line x1="274.518" y1="50.8433" x2="49.8983" y2="275.463" stroke="#0FB56F" stroke-width="0.812766" stroke-linecap="round"/>
<line x1="109" y1="-114.674" x2="-115.619" y2="109.945" stroke="#0FB56F" stroke-width="0.812766" stroke-linecap="round"/>
<line x1="222.793" y1="-0.880854" x2="-1.82628" y2="223.738" stroke="#0FB56F" stroke-width="0.812766" stroke-linecap="round"/>
<line x1="184.863" y1="-38.8125" x2="-39.756" y2="185.807" stroke="#0FB56F" stroke-width="0.812766" stroke-linecap="round"/>
<line x1="298.652" y1="74.981" x2="74.0331" y2="299.6" stroke="#0FB56F" stroke-width="0.812766" stroke-linecap="round"/>
<line x1="136.586" y1="-87.0874" x2="-88.0333" y2="137.532" stroke="#0FB56F" stroke-width="0.812766" stroke-linecap="round"/>
<line x1="250.379" y1="26.7046" x2="25.7597" y2="251.324" stroke="#0FB56F" stroke-width="0.812766" stroke-linecap="round"/>
<line x1="177.965" y1="-45.7085" x2="-46.6544" y2="178.911" stroke="#0FB56F" stroke-width="0.812766" stroke-linecap="round"/>
<line x1="291.758" y1="68.0845" x2="67.1386" y2="292.704" stroke="#0FB56F" stroke-width="0.812766" stroke-linecap="round"/>
<line x1="122.793" y1="-100.881" x2="-101.826" y2="123.738" stroke="#0FB56F" stroke-width="0.812766" stroke-linecap="round"/>
<line x1="236.586" y1="12.9121" x2="11.9667" y2="237.531" stroke="#0FB56F" stroke-width="0.812766" stroke-linecap="round"/>
<line x1="198.656" y1="-25.0185" x2="-25.963" y2="199.601" stroke="#0FB56F" stroke-width="0.812766" stroke-linecap="round"/>
<line x1="312.449" y1="88.7744" x2="87.83" y2="313.394" stroke="#0FB56F" stroke-width="0.812766" stroke-linecap="round"/>
<line x1="164.172" y1="-59.5019" x2="-60.4474" y2="165.117" stroke="#0FB56F" stroke-width="0.812766" stroke-linecap="round"/>
<line x1="277.965" y1="54.2915" x2="53.3456" y2="278.911" stroke="#0FB56F" stroke-width="0.812766" stroke-linecap="round"/>
</g>
</g>
<path d="M22.3626 32.6934L20.0738 23.6164H20.9061L22.8437 31.731H22.8827L25.0284 23.6164H25.9778L28.0974 31.731H28.1365L30.1391 23.6164H30.9454L28.5786 32.6934H27.6683L25.4966 24.4877H25.4706L23.2729 32.6934H22.3626ZM34.7042 32.8494C34.2621 32.8494 33.8589 32.7714 33.4948 32.6153C33.1394 32.4593 32.8316 32.2339 32.5715 31.9391C32.3201 31.6357 32.125 31.2672 31.9863 30.8338C31.8563 30.4003 31.7913 29.9104 31.7913 29.3643C31.7913 28.8181 31.8563 28.3326 31.9863 27.9078C32.125 27.4743 32.3201 27.1102 32.5715 26.8154C32.8316 26.512 33.1394 26.2823 33.4948 26.1262C33.8503 25.9615 34.2491 25.8791 34.6912 25.8791C35.116 25.8791 35.5018 25.9615 35.8486 26.1262C36.1954 26.2823 36.4901 26.5033 36.7329 26.7894C36.9756 27.0755 37.162 27.4223 37.2921 27.8298C37.4308 28.2286 37.5001 28.6707 37.5001 29.1562V29.5073H32.5715V29.8324C32.5715 30.1792 32.6192 30.5 32.7146 30.7947C32.8186 31.0808 32.9617 31.3279 33.1437 31.536C33.3344 31.744 33.5642 31.9088 33.8329 32.0301C34.1017 32.1428 34.4051 32.1992 34.7432 32.1992C35.7142 32.1992 36.3861 31.7527 36.7589 30.8598L37.3051 31.2239C37.097 31.718 36.7676 32.1125 36.3167 32.4073C35.8746 32.702 35.3371 32.8494 34.7042 32.8494ZM34.6912 26.5033C34.3704 26.5033 34.08 26.564 33.8199 26.6854C33.5598 26.7981 33.3344 26.9585 33.1437 27.1665C32.9617 27.3746 32.8186 27.626 32.7146 27.9208C32.6192 28.2069 32.5715 28.5233 32.5715 28.8701V28.9351H36.6939V28.8311C36.6939 28.4843 36.6462 28.1679 36.5508 27.8818C36.4555 27.587 36.3167 27.3399 36.1347 27.1405C35.9613 26.9411 35.7489 26.7851 35.4975 26.6724C35.2547 26.5597 34.986 26.5033 34.6912 26.5033ZM39.3853 23.0702H40.1266V27.1015H40.1656C40.3303 26.7287 40.5817 26.434 40.9198 26.2172C41.258 25.9918 41.6828 25.8791 42.1943 25.8791C43.0525 25.8791 43.7244 26.1826 44.2099 26.7894C44.6954 27.3963 44.9382 28.2546 44.9382 29.3643C44.9382 30.474 44.6954 31.3322 44.2099 31.9391C43.7244 32.546 43.0525 32.8494 42.1943 32.8494C41.6828 32.8494 41.2623 32.741 40.9329 32.5243C40.6034 32.2989 40.3477 31.9998 40.1656 31.627H40.1266V32.6934H39.3853V23.0702ZM42.0252 32.1862C42.6928 32.1862 43.2129 31.9738 43.5857 31.549C43.9585 31.1242 44.1449 30.552 44.1449 29.8324V28.8961C44.1449 28.1765 43.9585 27.6044 43.5857 27.1796C43.2129 26.7547 42.6928 26.5423 42.0252 26.5423C41.7651 26.5423 41.518 26.5814 41.284 26.6594C41.0586 26.7287 40.8592 26.8284 40.6858 26.9585C40.5124 27.0885 40.3737 27.2446 40.2696 27.4266C40.1743 27.6087 40.1266 27.8081 40.1266 28.0248V30.6647C40.1266 30.8988 40.1743 31.1112 40.2696 31.3019C40.3737 31.484 40.5124 31.6443 40.6858 31.7831C40.8592 31.9131 41.0586 32.0128 41.284 32.0822C41.518 32.1515 41.7651 32.1862 42.0252 32.1862ZM51.8115 32.8494C51.2307 32.8494 50.7322 32.741 50.316 32.5243C49.9086 32.3076 49.5531 31.9911 49.2497 31.575L49.7959 31.1459C50.0733 31.51 50.3767 31.7787 50.7062 31.9521C51.0356 32.1255 51.4214 32.2122 51.8635 32.2122C52.375 32.2122 52.7695 32.1038 53.0469 31.8871C53.3244 31.6704 53.4631 31.3583 53.4631 30.9508C53.4631 30.5953 53.3547 30.3179 53.138 30.1185C52.9299 29.9104 52.5831 29.7717 52.0976 29.7024L51.5514 29.6113C51.248 29.568 50.9706 29.503 50.7192 29.4163C50.4678 29.3296 50.251 29.2126 50.069 29.0652C49.8956 28.9178 49.7569 28.7401 49.6528 28.532C49.5575 28.3153 49.5098 28.0552 49.5098 27.7517C49.5098 27.4396 49.5661 27.1665 49.6788 26.9325C49.8002 26.6984 49.9606 26.5033 50.16 26.3473C50.3594 26.1912 50.5978 26.0742 50.8752 25.9962C51.1526 25.9181 51.4517 25.8791 51.7725 25.8791C52.3274 25.8791 52.7825 25.9745 53.138 26.1652C53.4934 26.356 53.7968 26.603 54.0483 26.9065L53.5541 27.3616C53.3807 27.1535 53.1466 26.9628 52.8519 26.7894C52.5658 26.6074 52.193 26.5163 51.7335 26.5163C51.2567 26.5163 50.8839 26.6204 50.6151 26.8284C50.355 27.0365 50.225 27.3313 50.225 27.7127C50.225 28.1029 50.342 28.3846 50.5761 28.558C50.8189 28.7314 51.1787 28.8571 51.6555 28.9351L52.1886 29.0132C52.8649 29.1172 53.3634 29.3209 53.6841 29.6244C54.0136 29.9191 54.1783 30.3353 54.1783 30.8728C54.1783 31.497 53.9659 31.9825 53.5411 32.3292C53.125 32.676 52.5484 32.8494 51.8115 32.8494ZM58.503 32.8494C58.0609 32.8494 57.6578 32.7714 57.2936 32.6153C56.9382 32.4593 56.6304 32.2339 56.3703 31.9391C56.1189 31.6357 55.9239 31.2672 55.7851 30.8338C55.6551 30.4003 55.5901 29.9104 55.5901 29.3643C55.5901 28.8181 55.6551 28.3326 55.7851 27.9078C55.9239 27.4743 56.1189 27.1102 56.3703 26.8154C56.6304 26.512 56.9382 26.2823 57.2936 26.1262C57.6491 25.9615 58.0479 25.8791 58.49 25.8791C58.9148 25.8791 59.3006 25.9615 59.6474 26.1262C59.9942 26.2823 60.2889 26.5033 60.5317 26.7894C60.7744 27.0755 60.9608 27.4223 61.0909 27.8298C61.2296 28.2286 61.2989 28.6707 61.2989 29.1562V29.5073H56.3703V29.8324C56.3703 30.1792 56.418 30.5 56.5134 30.7947C56.6174 31.0808 56.7605 31.3279 56.9425 31.536C57.1332 31.744 57.363 31.9088 57.6317 32.0301C57.9005 32.1428 58.2039 32.1992 58.542 32.1992C59.513 32.1992 60.1849 31.7527 60.5577 30.8598L61.1039 31.2239C60.8958 31.718 60.5664 32.1125 60.1156 32.4073C59.6734 32.702 59.1359 32.8494 58.503 32.8494ZM58.49 26.5033C58.1693 26.5033 57.8788 26.564 57.6187 26.6854C57.3587 26.7981 57.1332 26.9585 56.9425 27.1665C56.7605 27.3746 56.6174 27.626 56.5134 27.9208C56.418 28.2069 56.3703 28.5233 56.3703 28.8701V28.9351H60.4927V28.8311C60.4927 28.4843 60.445 28.1679 60.3496 27.8818C60.2543 27.587 60.1156 27.3399 59.9335 27.1405C59.7601 26.9411 59.5477 26.7851 59.2963 26.6724C59.0535 26.5597 58.7848 26.5033 58.49 26.5033ZM63.1842 32.6934V26.0352H63.9254V27.2316H63.9774C64.1075 26.9195 64.3285 26.642 64.6406 26.3993C64.9527 26.1566 65.3949 26.0352 65.9671 26.0352H66.4092V26.7634H65.824C65.2692 26.7634 64.814 26.8848 64.4586 27.1275C64.1031 27.3703 63.9254 27.7084 63.9254 28.1419V32.6934H63.1842ZM67.0736 26.0352H67.8539L69.8956 31.9001H69.9476L71.9763 26.0352H72.7305L70.3247 32.6934H69.4794L67.0736 26.0352ZM74.5587 24.2276C74.3853 24.2276 74.2553 24.1842 74.1686 24.0975C74.0906 24.0108 74.0516 23.8981 74.0516 23.7594V23.6294C74.0516 23.4907 74.0906 23.378 74.1686 23.2913C74.2553 23.2046 74.3853 23.1612 74.5587 23.1612C74.7321 23.1612 74.8578 23.2046 74.9358 23.2913C75.0225 23.378 75.0659 23.4907 75.0659 23.6294V23.7594C75.0659 23.8981 75.0225 24.0108 74.9358 24.0975C74.8578 24.1842 74.7321 24.2276 74.5587 24.2276ZM74.1946 26.0352H74.9358V32.6934H74.1946V26.0352ZM79.6975 32.8494C78.7786 32.8494 78.0677 32.546 77.5648 31.9391C77.0707 31.3322 76.8236 30.474 76.8236 29.3643C76.8236 28.2546 77.0707 27.3963 77.5648 26.7894C78.0677 26.1826 78.7786 25.8791 79.6975 25.8791C80.3131 25.8791 80.8116 26.0135 81.193 26.2823C81.5745 26.551 81.8649 26.9065 82.0643 27.3486L81.4401 27.6607C81.2841 27.2966 81.063 27.0192 80.7769 26.8284C80.4995 26.6377 80.1397 26.5423 79.6975 26.5423C79.0213 26.5423 78.5055 26.7591 78.15 27.1926C77.7946 27.626 77.6169 28.1939 77.6169 28.8961V29.8324C77.6169 30.5347 77.7946 31.1025 78.15 31.536C78.5055 31.9695 79.0213 32.1862 79.6975 32.1862C80.157 32.1862 80.5428 32.0865 80.8549 31.8871C81.167 31.6877 81.4184 31.4016 81.6092 31.0288L82.1553 31.3929C81.9386 31.8351 81.6265 32.1905 81.219 32.4593C80.8202 32.7194 80.3131 32.8494 79.6975 32.8494ZM86.0863 32.8494C85.6441 32.8494 85.241 32.7714 84.8769 32.6153C84.5214 32.4593 84.2137 32.2339 83.9536 31.9391C83.7022 31.6357 83.5071 31.2672 83.3684 30.8338C83.2383 30.4003 83.1733 29.9104 83.1733 29.3643C83.1733 28.8181 83.2383 28.3326 83.3684 27.9078C83.5071 27.4743 83.7022 27.1102 83.9536 26.8154C84.2137 26.512 84.5214 26.2823 84.8769 26.1262C85.2323 25.9615 85.6311 25.8791 86.0733 25.8791C86.4981 25.8791 86.8839 25.9615 87.2307 26.1262C87.5774 26.2823 87.8722 26.5033 88.1149 26.7894C88.3577 27.0755 88.5441 27.4223 88.6741 27.8298C88.8128 28.2286 88.8822 28.6707 88.8822 29.1562V29.5073H83.9536V29.8324C83.9536 30.1792 84.0013 30.5 84.0966 30.7947C84.2007 31.0808 84.3437 31.3279 84.5258 31.536C84.7165 31.744 84.9462 31.9088 85.215 32.0301C85.4837 32.1428 85.7872 32.1992 86.1253 32.1992C87.0963 32.1992 87.7682 31.7527 88.141 30.8598L88.6871 31.2239C88.4791 31.718 88.1496 32.1125 87.6988 32.4073C87.2567 32.702 86.7192 32.8494 86.0863 32.8494ZM86.0733 26.5033C85.7525 26.5033 85.4621 26.564 85.202 26.6854C84.9419 26.7981 84.7165 26.9585 84.5258 27.1665C84.3437 27.3746 84.2007 27.626 84.0966 27.9208C84.0013 28.2069 83.9536 28.5233 83.9536 28.8701V28.9351H88.0759V28.8311C88.0759 28.4843 88.0282 28.1679 87.9329 27.8818C87.8375 27.587 87.6988 27.3399 87.5167 27.1405C87.3434 26.9411 87.131 26.7851 86.8795 26.6724C86.6368 26.5597 86.368 26.5033 86.0733 26.5033ZM92.653 32.8494C92.0722 32.8494 91.5737 32.741 91.1575 32.5243C90.7501 32.3076 90.3946 31.9911 90.0912 31.575L90.6374 31.1459C90.9148 31.51 91.2182 31.7787 91.5477 31.9521C91.8771 32.1255 92.2629 32.2122 92.705 32.2122C93.2165 32.2122 93.611 32.1038 93.8884 31.8871C94.1659 31.6704 94.3046 31.3583 94.3046 30.9508C94.3046 30.5953 94.1962 30.3179 93.9795 30.1185C93.7714 29.9104 93.4246 29.7717 92.9391 29.7024L92.3929 29.6113C92.0895 29.568 91.8121 29.503 91.5607 29.4163C91.3093 29.3296 91.0925 29.2126 90.9105 29.0652C90.7371 28.9178 90.5984 28.7401 90.4943 28.532C90.399 28.3153 90.3513 28.0552 90.3513 27.7517C90.3513 27.4396 90.4076 27.1665 90.5203 26.9325C90.6417 26.6984 90.8021 26.5033 91.0015 26.3473C91.2009 26.1912 91.4393 26.0742 91.7167 25.9962C91.9941 25.9181 92.2932 25.8791 92.614 25.8791C93.1689 25.8791 93.624 25.9745 93.9795 26.1652C94.3349 26.356 94.6383 26.603 94.8898 26.9065L94.3956 27.3616C94.2222 27.1535 93.9881 26.9628 93.6934 26.7894C93.4073 26.6074 93.0345 26.5163 92.575 26.5163C92.0982 26.5163 91.7254 26.6204 91.4566 26.8284C91.1966 27.0365 91.0665 27.3313 91.0665 27.7127C91.0665 28.1029 91.1835 28.3846 91.4176 28.558C91.6604 28.7314 92.0202 28.8571 92.497 28.9351L93.0302 29.0132C93.7064 29.1172 94.2049 29.3209 94.5256 29.6244C94.8551 29.9191 95.0198 30.3353 95.0198 30.8728C95.0198 31.497 94.8074 31.9825 94.3826 32.3292C93.9665 32.676 93.3899 32.8494 92.653 32.8494Z" fill="#0FB56F"/>
<path d="M55.0679 162.741V162.051H57.7208V154.236H57.6558L55.1589 156.459L54.7168 155.965L57.3046 153.664H58.501V162.051H60.9979V162.741H55.0679Z" fill="white"/>
<path d="M99.6455 157.643C100.27 157.643 100.755 157.491 101.102 157.188C101.457 156.876 101.635 156.473 101.635 155.979V155.81C101.635 155.298 101.466 154.904 101.128 154.626C100.79 154.349 100.356 154.21 99.8276 154.21C99.2987 154.21 98.8739 154.318 98.5532 154.535C98.2411 154.743 97.9896 155.029 97.7989 155.393L97.2137 154.977C97.3178 154.787 97.4478 154.605 97.6039 154.431C97.7599 154.249 97.942 154.089 98.15 153.95C98.3668 153.811 98.6139 153.703 98.8913 153.625C99.1687 153.547 99.4851 153.508 99.8406 153.508C100.213 153.508 100.56 153.56 100.881 153.664C101.202 153.768 101.479 153.92 101.713 154.119C101.947 154.31 102.129 154.548 102.259 154.834C102.398 155.112 102.467 155.428 102.467 155.784C102.467 156.399 102.298 156.88 101.96 157.227C101.622 157.574 101.202 157.808 100.699 157.929V157.981C100.968 158.025 101.219 158.107 101.453 158.228C101.687 158.341 101.891 158.493 102.064 158.684C102.246 158.874 102.389 159.104 102.493 159.373C102.597 159.641 102.65 159.945 102.65 160.283C102.65 160.673 102.58 161.033 102.441 161.362C102.303 161.683 102.103 161.956 101.843 162.182C101.592 162.407 101.284 162.585 100.92 162.715C100.564 162.836 100.166 162.897 99.7236 162.897C98.9953 162.897 98.4058 162.758 97.955 162.481C97.5042 162.195 97.1357 161.839 96.8496 161.414L97.4348 160.972C97.6862 161.362 97.9853 161.666 98.3321 161.883C98.6875 162.091 99.147 162.195 99.7105 162.195C100.369 162.195 100.885 162.034 101.258 161.714C101.631 161.384 101.817 160.933 101.817 160.361V160.153C101.817 159.581 101.635 159.134 101.271 158.814C100.907 158.484 100.387 158.319 99.7105 158.319H98.5662V157.643H99.6455Z" fill="white"/>
<path d="M81.8936 162.741H76.0676V161.948L79.2407 158.905C79.6655 158.488 80.0123 158.064 80.281 157.63C80.5498 157.188 80.6842 156.737 80.6842 156.278V156.031C80.6842 155.493 80.5281 155.055 80.216 154.717C79.9039 154.379 79.4357 154.21 78.8115 154.21C78.2047 154.21 77.7409 154.362 77.4201 154.665C77.0993 154.969 76.8652 155.363 76.7179 155.849L76.0156 155.588C76.1023 155.311 76.2194 155.047 76.3667 154.795C76.5141 154.544 76.7005 154.323 76.9259 154.132C77.16 153.941 77.4331 153.79 77.7452 153.677C78.0573 153.564 78.4214 153.508 78.8375 153.508C79.2624 153.508 79.6395 153.573 79.9689 153.703C80.307 153.824 80.5888 153.998 80.8142 154.223C81.0483 154.448 81.2217 154.722 81.3344 155.042C81.4557 155.354 81.5164 155.706 81.5164 156.096C81.5164 156.425 81.4731 156.737 81.3864 157.032C81.2997 157.318 81.1783 157.595 81.0223 157.864C80.8662 158.124 80.6755 158.384 80.4501 158.644C80.2247 158.896 79.9776 159.147 79.7088 159.399L76.9129 162.052H81.8936V162.741Z" fill="white"/>
<path d="M122.352 162.741V160.842H117.84V160.153L121.975 153.664H123.094V160.192H124.498V160.842H123.094V162.741H122.352ZM118.568 160.192H122.352V154.327H122.313L118.568 160.192Z" fill="white"/>
<line x1="142.489" y1="154.613" x2="178.25" y2="154.613" stroke="#0FB56F" stroke-width="1.62553" stroke-linecap="round"/>
<line x1="142.489" y1="161.115" x2="162.808" y2="161.115" stroke="#0FB56F" stroke-width="1.62553" stroke-linecap="round"/>
<line x1="20.5745" y1="64.3957" x2="41.7064" y2="64.3957" stroke="#0FB56F" stroke-width="1.62553" stroke-linecap="round"/>
<line x1="20.5745" y1="92.8425" x2="45.7702" y2="92.8425" stroke="#0FB56F" stroke-width="1.62553" stroke-linecap="round"/>
<line x1="20.1681" y1="174.526" x2="178.658" y2="174.526" stroke="white" stroke-width="0.812766" stroke-linecap="round"/>
<line x1="20.5745" y1="117.226" x2="45.7702" y2="117.226" stroke="#0FB56F" stroke-width="1.62553" stroke-linecap="round"/>
<line x1="20.5745" y1="70.8977" x2="45.7702" y2="70.8977" stroke="#0FB56F" stroke-width="1.62553" stroke-linecap="round"/>
<line x1="20.5745" y1="123.728" x2="41.7064" y2="123.728" stroke="#0FB56F" stroke-width="1.62553" stroke-linecap="round"/>
<line x1="20.5745" y1="77.4001" x2="34.3915" y2="77.4001" stroke="#0FB56F" stroke-width="1.62553" stroke-linecap="round"/>
<line x1="20.5745" y1="99.3449" x2="34.3915" y2="99.3449" stroke="#0FB56F" stroke-width="1.62553" stroke-linecap="round"/>
<line x1="20.5745" y1="130.23" x2="26.2638" y2="130.23" stroke="#0FB56F" stroke-width="1.62553" stroke-linecap="round"/>
<path d="M133.549 87.9658H140.776L150.454 43.2637H179.064" stroke="white" stroke-width="0.812766" stroke-linecap="round"/>
<path d="M133.549 109.098H140.776L150.454 71.7104H179.064" stroke="white" stroke-width="0.812766" stroke-linecap="round"/>
<path d="M133.549 128.604H140.776L150.454 97.7188H179.064" stroke="white" stroke-width="0.812766" stroke-linecap="round"/>
<rect x="20.1681" y="152.581" width="12.1915" height="12.1915" stroke="#0FB56F" stroke-width="0.812766"/>
<path d="M23.6639 159.327H25.6145V161.277C25.6145 161.636 25.9056 161.927 26.2647 161.927C26.6238 161.927 26.9149 161.636 26.9149 161.277V159.327H28.8656C29.2247 159.327 29.5158 159.035 29.5158 158.676C29.5158 158.317 29.2247 158.026 28.8656 158.026H26.9149V156.076C26.9149 155.716 26.6238 155.425 26.2647 155.425C25.9056 155.425 25.6145 155.716 25.6145 156.076V158.026H23.6639C23.3048 158.026 23.0137 158.317 23.0137 158.676C23.0137 159.035 23.3048 159.327 23.6639 159.327Z" fill="white"/>
<rect x="159.965" y="24.1637" width="12.1915" height="12.1915" stroke="#0FB56F" stroke-width="0.812766"/>
<path d="M163.461 30.9096H165.411V32.8602C165.411 33.2193 165.703 33.5104 166.062 33.5104C166.421 33.5104 166.712 33.2193 166.712 32.8602V30.9096H168.662C169.022 30.9096 169.313 30.6185 169.313 30.2594C169.313 29.9003 169.022 29.6092 168.662 29.6092H166.712V27.6585C166.712 27.2994 166.421 27.0083 166.062 27.0083C165.703 27.0083 165.411 27.2994 165.411 27.6585V29.6092H163.461C163.102 29.6092 162.811 29.9003 162.811 30.2594C162.811 30.6185 163.102 30.9096 163.461 30.9096Z" fill="white"/>
<rect x="159.965" y="52.6105" width="12.1915" height="12.1915" stroke="#0FB56F" stroke-width="0.812766"/>
<path d="M163.461 59.3568H165.411V61.3075C165.411 61.6666 165.703 61.9577 166.062 61.9577C166.421 61.9577 166.712 61.6666 166.712 61.3075V59.3568H168.662C169.022 59.3568 169.313 59.0657 169.313 58.7066C169.313 58.3475 169.022 58.0564 168.662 58.0564H166.712V56.1058C166.712 55.7467 166.421 55.4556 166.062 55.4556C165.703 55.4556 165.411 55.7467 165.411 56.1058V58.0564H163.461C163.102 58.0564 162.811 58.3475 162.811 58.7066C162.811 59.0657 163.102 59.3568 163.461 59.3568Z" fill="white"/>
<rect x="159.965" y="78.6193" width="12.1915" height="12.1915" stroke="#0FB56F" stroke-width="0.812766"/>
<path d="M163.461 85.3651H165.411V87.3158C165.411 87.6749 165.703 87.966 166.062 87.966C166.421 87.966 166.712 87.6749 166.712 87.3158V85.3651H168.662C169.022 85.3651 169.313 85.074 169.313 84.7149C169.313 84.3558 169.022 84.0647 168.662 84.0647H166.712V82.1141C166.712 81.755 166.421 81.4639 166.062 81.4639C165.703 81.4639 165.411 81.755 165.411 82.1141V84.0647H163.461C163.102 84.0647 162.811 84.3558 162.811 84.7149C162.811 85.074 163.102 85.3651 163.461 85.3651Z" fill="white"/>
<path d="M134.364 64.802V130.636C134.361 132.655 132.726 134.29 130.706 134.293H64.8723C62.8531 134.29 61.2179 132.655 61.2148 130.636V64.802C61.2179 62.7828 62.8531 61.1476 64.8723 61.1445H130.706C132.726 61.1476 134.361 62.7828 134.364 64.802ZM131.925 130.636V64.802C131.924 64.1284 131.38 63.5844 130.706 63.5828H64.8723C64.1987 63.5844 63.6547 64.1284 63.6531 64.802V130.636C63.6547 131.31 64.1987 131.854 64.8723 131.855H130.706C131.38 131.854 131.924 131.31 131.925 130.636Z" fill="#0FB56F"/>
<path d="M74.6254 68.4593C75.2987 68.4593 75.8445 67.9135 75.8445 67.2401C75.8445 66.5668 75.2987 66.021 74.6254 66.021C73.9521 66.021 73.4062 66.5668 73.4062 67.2401C73.4062 67.9135 73.9521 68.4593 74.6254 68.4593Z" fill="#0FB56F"/>
<path d="M70.9691 68.4593C71.6425 68.4593 72.1883 67.9135 72.1883 67.2401C72.1883 66.5668 71.6425 66.021 70.9691 66.021C70.2958 66.021 69.75 66.5668 69.75 67.2401C69.75 67.9135 70.2958 68.4593 70.9691 68.4593Z" fill="#0FB56F"/>
<path d="M67.3109 68.4593C67.9843 68.4593 68.5301 67.9135 68.5301 67.2401C68.5301 66.5668 67.9843 66.021 67.3109 66.021C66.6376 66.021 66.0918 66.5668 66.0918 67.2401C66.0918 67.9135 66.6376 68.4593 67.3109 68.4593Z" fill="#0FB56F"/>
<path d="M67.6102 97.4774C67.6102 93.48 67.6439 89.4827 67.5943 85.4853C67.5724 83.7528 68.242 82.4078 69.5155 81.3131C71.3214 79.7813 73.479 78.9687 75.7559 78.5018C81.14 77.3932 86.4844 77.4727 91.6003 79.678C92.8201 80.2025 93.9228 81.0926 94.936 81.9767C95.8837 82.8032 96.2294 83.9853 96.2274 85.2727C96.2135 93.341 96.1996 101.409 96.2274 109.479C96.2521 110.287 96.0889 111.089 95.7506 111.823C95.4124 112.556 94.9084 113.202 94.2784 113.707C92.8142 114.955 91.0996 115.724 89.2559 116.203C83.7903 117.625 78.3565 117.579 73.0022 115.672C71.3989 115.102 69.9287 114.281 68.7903 112.964C68.0051 112.086 67.5796 110.944 67.5982 109.766C67.6221 105.671 67.6102 101.574 67.6102 97.4774ZM82.2208 80.2164C79.6559 80.2164 77.4188 80.4826 75.2373 81.1184C73.7552 81.5495 72.3247 82.1118 71.1188 83.1052C69.6227 84.3489 69.6009 85.6621 71.1466 86.8601C71.8869 87.4392 72.7074 87.9077 73.5824 88.2509C78.5989 90.1641 83.7148 90.2376 88.8327 88.7495C90.1351 88.357 91.369 87.7652 92.4903 86.9952C94.3182 85.7575 94.2784 84.2456 92.4903 82.9323C91.8063 82.4412 91.0676 82.0312 90.289 81.7104C87.6168 80.5899 84.7936 80.2522 82.2208 80.2164ZM69.9943 89.0952C69.9943 90.2257 70.0916 91.2469 69.9724 92.2423C69.7737 93.9986 70.6439 95.0595 72.0347 95.8542C72.5246 96.1445 73.036 96.3969 73.5645 96.6092C78.0049 98.3138 82.5585 98.4708 87.1777 97.5489C89.0612 97.1734 90.9009 96.6151 92.4248 95.4012C92.997 94.9463 93.6566 94.2648 93.746 93.6131C93.9447 92.1688 93.8076 90.6767 93.8076 89.1588C87.7658 93.3032 75.4142 92.9317 69.9943 89.0952ZM69.9943 97.4595C69.9943 98.58 70.0916 99.6052 69.9724 100.603C69.7737 102.365 70.6618 103.414 72.0486 104.207C72.5393 104.496 73.0514 104.747 73.5804 104.958C77.995 106.658 82.5208 106.809 87.1201 105.907C89.0036 105.538 90.8453 104.981 92.3791 103.781C92.9552 103.328 93.6427 102.661 93.7301 102.015C93.9288 100.549 93.7937 99.035 93.7937 97.4953C88.0301 101.487 75.7559 101.445 69.9943 97.4595ZM93.8354 106.003C85.8407 109.861 77.9413 109.855 69.9943 106.003C69.9943 106.936 70.0916 107.96 69.9724 108.959C69.7737 110.717 70.6579 111.77 72.0466 112.563C72.5349 112.848 73.0443 113.095 73.5704 113.302C78.0089 115.007 82.5645 115.162 87.1817 114.234C89.1387 113.836 91.0182 113.222 92.6195 111.963C93.2334 111.48 93.7917 110.914 93.8115 110.075C93.8572 108.691 93.8354 107.304 93.8354 105.993V106.003Z" fill="white"/>
<path d="M111.716 83.794C114.877 83.8151 117.901 85.0912 120.121 87.3417C122.342 89.5921 123.578 92.6325 123.557 95.7941C123.536 98.9556 122.26 101.979 120.009 104.2C117.759 106.421 114.718 107.656 111.557 107.635C105.048 107.599 99.7672 102.195 99.7931 95.5994C99.8229 89.1126 105.219 83.7702 111.716 83.794ZM111.716 90.9464C110.773 90.9464 109.852 91.2255 109.069 91.7485C108.285 92.2714 107.674 93.0149 107.312 93.8849C106.951 94.7549 106.855 95.7125 107.037 96.6368C107.22 97.5612 107.672 98.4108 108.336 99.0785C109.001 99.7462 109.849 100.202 110.772 100.389C111.696 100.575 112.654 100.484 113.525 100.126C114.397 99.7686 115.143 99.1608 115.67 98.3796C116.196 97.5983 116.48 96.6786 116.484 95.7365C116.487 95.1084 116.366 94.4861 116.127 93.905C115.889 93.324 115.538 92.7958 115.095 92.3507C114.652 91.9056 114.125 91.5524 113.545 91.3114C112.965 91.0704 112.344 90.9464 111.716 90.9464ZM110.478 86.2497C107.031 86.8457 104.494 88.5901 103.061 91.7391C101.496 95.1762 101.986 98.4384 104.094 101.46C104.702 100.894 105.286 100.362 105.851 99.8312C104.46 97.6457 104.122 95.3749 105.106 92.9927C106.089 90.6106 107.967 89.204 110.47 88.6477L110.478 86.2497ZM118.787 96.9345C117.676 102.18 112.016 104.508 107.621 101.613L105.932 103.24C108.658 105.466 112.665 105.893 115.902 104.256C118.882 102.742 120.604 100.282 121.159 96.9345H118.787ZM121.093 94.4967C120.72 90.0523 116.627 86.5258 112.932 86.351V88.6457C116.11 89.3907 118.041 91.3517 118.783 94.4987L121.093 94.4967Z" fill="#0FB56F"/>
<path d="M98.6348 120.696V118.403H122.381V120.696H98.6348Z" fill="white"/>
<path d="M122.408 123.183V125.477H98.6621V123.183H122.408Z" fill="white"/>
<path d="M105.789 115.927V113.595H122.383V115.927H105.789Z" fill="white"/>
<path d="M98.6426 81.4438H103.313V83.7465H98.6426V81.4438Z" fill="#0FB56F"/>
<path d="M124.863 83.8262H129.542V86.1348H124.863V83.8262Z" fill="white"/>
<path d="M124.859 90.8943V88.6016H129.534V90.8943H124.859Z" fill="white"/>
<path d="M123.652 105.203V102.928H128.349V105.203H123.652Z" fill="white"/>
<path d="M128.37 107.688V109.979H123.695V107.688H128.37Z" fill="white"/>
<path d="M98.6348 115.927V113.634H103.31V115.927H98.6348Z" fill="#0FB56F"/>
<path d="M74.7949 86.1283V83.8315H89.0042V86.1283H74.7949Z" fill="white"/>
<path d="M75.9883 95.6629V93.3682H78.281V95.6629H75.9883Z" fill="#0FB56F"/>
<path d="M73.5194 94.4866H71.2227V92.1958H73.5194V94.4866Z" fill="#0FB56F"/>
<path d="M71.2383 100.515H73.529V102.807H71.2383V100.515Z" fill="#0FB56F"/>
<path d="M76.6716 104.027H74.3789V101.72H76.6716V104.027Z" fill="#0FB56F"/>
<path d="M71.2441 108.854H73.5269V111.173H71.2441V108.854Z" fill="#0FB56F"/>
<path d="M78.3046 110.059V112.35H76.002V110.059H78.3046Z" fill="#0FB56F"/>
<defs>
<linearGradient id="paint0_linear_1610_16109" x1="195.318" y1="0.182111" x2="0.253906" y2="0.182111" gradientUnits="userSpaceOnUse">
<stop stop-color="white" stop-opacity="0.12"/>
<stop offset="0.499248" stop-color="white" stop-opacity="0.4"/>
<stop offset="1" stop-color="white" stop-opacity="0.12"/>
</linearGradient>
</defs>
</svg>
