<svg width="196" height="196" viewBox="0 0 196 196" fill="none" xmlns="http://www.w3.org/2000/svg">
<rect x="1.00209" y="0.593883" width="194.251" height="194.251" stroke="url(#paint0_linear_1610_15960)" stroke-width="0.812766"/>
<g opacity="0.2">
<mask id="mask0_1610_15960" style="mask-type:alpha" maskUnits="userSpaceOnUse" x="7" y="6" width="183" height="183">
<rect x="7.0957" y="6.68994" width="182.06" height="182.06" fill="white"/>
</mask>
<g mask="url(#mask0_1610_15960)">
<line x1="140.375" y1="-83.6387" x2="-84.2442" y2="140.981" stroke="#0FB56F" stroke-width="0.812766" stroke-linecap="round"/>
<line x1="254.168" y1="30.1533" x2="29.5487" y2="254.773" stroke="#0FB56F" stroke-width="0.812766" stroke-linecap="round"/>
<line x1="98.9961" y1="-125.018" x2="-125.623" y2="99.6012" stroke="#0FB56F" stroke-width="0.812766" stroke-linecap="round"/>
<line x1="212.789" y1="-11.2256" x2="-11.8302" y2="213.394" stroke="#0FB56F" stroke-width="0.812766" stroke-linecap="round"/>
<line x1="202.443" y1="-21.5703" x2="-22.1759" y2="203.049" stroke="#0FB56F" stroke-width="0.812766" stroke-linecap="round"/>
<line x1="316.236" y1="92.2227" x2="91.6171" y2="316.842" stroke="#0FB56F" stroke-width="0.812766" stroke-linecap="round"/>
<line x1="126.582" y1="-97.4321" x2="-98.0372" y2="127.187" stroke="#0FB56F" stroke-width="0.812766" stroke-linecap="round"/>
<line x1="240.373" y1="16.3608" x2="15.7538" y2="240.98" stroke="#0FB56F" stroke-width="0.812766" stroke-linecap="round"/>
<line x1="167.963" y1="-56.0532" x2="-56.6564" y2="168.566" stroke="#0FB56F" stroke-width="0.812766" stroke-linecap="round"/>
<line x1="281.754" y1="57.7402" x2="57.1347" y2="282.359" stroke="#0FB56F" stroke-width="0.812766" stroke-linecap="round"/>
<line x1="112.791" y1="-111.225" x2="-111.828" y2="113.394" stroke="#0FB56F" stroke-width="0.812766" stroke-linecap="round"/>
<line x1="226.58" y1="2.56788" x2="1.96083" y2="227.187" stroke="#0FB56F" stroke-width="0.812766" stroke-linecap="round"/>
<line x1="188.648" y1="-35.3633" x2="-35.9708" y2="189.256" stroke="#0FB56F" stroke-width="0.812766" stroke-linecap="round"/>
<line x1="302.445" y1="78.4297" x2="77.8261" y2="303.049" stroke="#0FB56F" stroke-width="0.812766" stroke-linecap="round"/>
<line x1="143.824" y1="-80.1909" x2="-80.795" y2="144.428" stroke="#0FB56F" stroke-width="0.812766" stroke-linecap="round"/>
<line x1="257.617" y1="33.6021" x2="32.9979" y2="258.221" stroke="#0FB56F" stroke-width="0.812766" stroke-linecap="round"/>
<line x1="154.168" y1="-69.8462" x2="-70.4513" y2="154.773" stroke="#0FB56F" stroke-width="0.812766" stroke-linecap="round"/>
<line x1="267.961" y1="43.9463" x2="43.3417" y2="268.566" stroke="#0FB56F" stroke-width="0.812766" stroke-linecap="round"/>
<line x1="209.342" y1="-14.6738" x2="-15.2775" y2="209.945" stroke="#0FB56F" stroke-width="0.812766" stroke-linecap="round"/>
<line x1="323.131" y1="99.1196" x2="98.5116" y2="323.739" stroke="#0FB56F" stroke-width="0.812766" stroke-linecap="round"/>
<line x1="181.752" y1="-42.2602" x2="-42.8673" y2="182.359" stroke="#0FB56F" stroke-width="0.812766" stroke-linecap="round"/>
<line x1="295.547" y1="71.5332" x2="70.9276" y2="296.152" stroke="#0FB56F" stroke-width="0.812766" stroke-linecap="round"/>
<line x1="133.477" y1="-90.5361" x2="-91.1427" y2="134.083" stroke="#0FB56F" stroke-width="0.812766" stroke-linecap="round"/>
<line x1="247.273" y1="23.2568" x2="22.6542" y2="247.876" stroke="#0FB56F" stroke-width="0.812766" stroke-linecap="round"/>
<line x1="174.855" y1="-49.1562" x2="-49.7638" y2="175.463" stroke="#0FB56F" stroke-width="0.812766" stroke-linecap="round"/>
<line x1="288.652" y1="64.6372" x2="64.0331" y2="289.256" stroke="#0FB56F" stroke-width="0.812766" stroke-linecap="round"/>
<line x1="119.686" y1="-104.329" x2="-104.934" y2="120.29" stroke="#0FB56F" stroke-width="0.812766" stroke-linecap="round"/>
<line x1="233.479" y1="9.46436" x2="8.85927" y2="234.084" stroke="#0FB56F" stroke-width="0.812766" stroke-linecap="round"/>
<line x1="195.547" y1="-28.4668" x2="-29.0724" y2="196.152" stroke="#0FB56F" stroke-width="0.812766" stroke-linecap="round"/>
<line x1="309.34" y1="85.3267" x2="84.7206" y2="309.946" stroke="#0FB56F" stroke-width="0.812766" stroke-linecap="round"/>
<line x1="0.406383" y1="-0.406383" x2="318.147" y2="-0.406383" transform="matrix(-0.706744 0.70747 -0.709096 -0.705112 157.672 -67.0303)" stroke="#0FB56F" stroke-width="0.812766" stroke-linecap="round"/>
<line x1="0.406383" y1="-0.406383" x2="318.147" y2="-0.406383" transform="matrix(-0.706744 0.70747 -0.709096 -0.705112 271.467 46.7627)" stroke="#0FB56F" stroke-width="0.812766" stroke-linecap="round"/>
<line x1="147.27" y1="-76.7427" x2="-77.3497" y2="147.877" stroke="#0FB56F" stroke-width="0.812766" stroke-linecap="round"/>
<line x1="261.066" y1="37.0503" x2="36.4472" y2="261.67" stroke="#0FB56F" stroke-width="0.812766" stroke-linecap="round"/>
<line x1="102.443" y1="-121.57" x2="-122.176" y2="103.049" stroke="#0FB56F" stroke-width="0.812766" stroke-linecap="round"/>
<line x1="216.238" y1="-7.77734" x2="-8.38097" y2="216.842" stroke="#0FB56F" stroke-width="0.812766" stroke-linecap="round"/>
<line x1="106.9" y1="-119.131" x2="-117.719" y2="105.488" stroke="#0FB56F" stroke-width="0.812766" stroke-linecap="round"/>
<line x1="220.695" y1="-5.33837" x2="-3.92394" y2="219.281" stroke="#0FB56F" stroke-width="0.812766" stroke-linecap="round"/>
<line x1="205.893" y1="-18.1226" x2="-18.7267" y2="206.497" stroke="#0FB56F" stroke-width="0.812766" stroke-linecap="round"/>
<line x1="319.687" y1="95.6709" x2="95.0683" y2="320.29" stroke="#0FB56F" stroke-width="0.812766" stroke-linecap="round"/>
<line x1="130.029" y1="-93.9839" x2="-94.59" y2="130.635" stroke="#0FB56F" stroke-width="0.812766" stroke-linecap="round"/>
<line x1="243.822" y1="19.8086" x2="19.203" y2="244.428" stroke="#0FB56F" stroke-width="0.812766" stroke-linecap="round"/>
<line x1="171.41" y1="-52.6045" x2="-53.2091" y2="172.015" stroke="#0FB56F" stroke-width="0.812766" stroke-linecap="round"/>
<line x1="285.199" y1="61.189" x2="60.58" y2="285.808" stroke="#0FB56F" stroke-width="0.812766" stroke-linecap="round"/>
<line x1="116.236" y1="-107.777" x2="-108.383" y2="116.842" stroke="#0FB56F" stroke-width="0.812766" stroke-linecap="round"/>
<line x1="230.029" y1="6.01563" x2="5.41005" y2="230.635" stroke="#0FB56F" stroke-width="0.812766" stroke-linecap="round"/>
<line x1="192.1" y1="-31.9155" x2="-32.5196" y2="192.704" stroke="#0FB56F" stroke-width="0.812766" stroke-linecap="round"/>
<line x1="305.895" y1="81.8774" x2="81.2753" y2="306.497" stroke="#0FB56F" stroke-width="0.812766" stroke-linecap="round"/>
<line x1="150.719" y1="-73.2939" x2="-73.9005" y2="151.325" stroke="#0FB56F" stroke-width="0.812766" stroke-linecap="round"/>
<line x1="264.514" y1="40.4985" x2="39.8944" y2="265.118" stroke="#0FB56F" stroke-width="0.812766" stroke-linecap="round"/>
<line x1="161.064" y1="-62.9497" x2="-63.5548" y2="161.67" stroke="#0FB56F" stroke-width="0.812766" stroke-linecap="round"/>
<line x1="274.857" y1="50.8438" x2="50.2382" y2="275.463" stroke="#0FB56F" stroke-width="0.812766" stroke-linecap="round"/>
<line x1="109.34" y1="-114.673" x2="-115.279" y2="109.946" stroke="#0FB56F" stroke-width="0.812766" stroke-linecap="round"/>
<line x1="223.133" y1="-0.880366" x2="-1.48644" y2="223.739" stroke="#0FB56F" stroke-width="0.812766" stroke-linecap="round"/>
<line x1="185.203" y1="-38.8115" x2="-39.4161" y2="185.808" stroke="#0FB56F" stroke-width="0.812766" stroke-linecap="round"/>
<line x1="298.994" y1="74.9815" x2="74.3749" y2="299.601" stroke="#0FB56F" stroke-width="0.812766" stroke-linecap="round"/>
<line x1="136.926" y1="-87.0869" x2="-87.6935" y2="137.532" stroke="#0FB56F" stroke-width="0.812766" stroke-linecap="round"/>
<line x1="250.719" y1="26.7051" x2="26.0995" y2="251.324" stroke="#0FB56F" stroke-width="0.812766" stroke-linecap="round"/>
<line x1="178.305" y1="-45.708" x2="-46.3146" y2="178.911" stroke="#0FB56F" stroke-width="0.812766" stroke-linecap="round"/>
<line x1="292.098" y1="68.085" x2="67.4784" y2="292.704" stroke="#0FB56F" stroke-width="0.812766" stroke-linecap="round"/>
<line x1="123.133" y1="-100.88" x2="-101.486" y2="123.739" stroke="#0FB56F" stroke-width="0.812766" stroke-linecap="round"/>
<line x1="236.926" y1="12.9126" x2="12.3065" y2="237.532" stroke="#0FB56F" stroke-width="0.812766" stroke-linecap="round"/>
<line x1="198.996" y1="-25.0181" x2="-25.6232" y2="199.601" stroke="#0FB56F" stroke-width="0.812766" stroke-linecap="round"/>
<line x1="312.789" y1="88.7749" x2="88.1698" y2="313.394" stroke="#0FB56F" stroke-width="0.812766" stroke-linecap="round"/>
<line x1="164.512" y1="-59.5015" x2="-60.1075" y2="165.118" stroke="#0FB56F" stroke-width="0.812766" stroke-linecap="round"/>
<line x1="278.305" y1="54.292" x2="53.6854" y2="278.911" stroke="#0FB56F" stroke-width="0.812766" stroke-linecap="round"/>
</g>
</g>
<path d="M21.387 23.6169H24.9372C25.6481 23.6169 26.2029 23.8206 26.6017 24.2281C27.0092 24.6269 27.2129 25.1861 27.2129 25.9056C27.2129 26.2177 27.1696 26.4908 27.0829 26.7249C27.0049 26.959 26.9008 27.154 26.7708 27.3101C26.6408 27.4661 26.489 27.5918 26.3156 27.6872C26.1509 27.7826 25.9862 27.8476 25.8215 27.8823V27.9343C26.0296 27.9603 26.2376 28.0253 26.4457 28.1294C26.6538 28.2247 26.8402 28.3634 27.0049 28.5455C27.1696 28.7189 27.304 28.94 27.408 29.2087C27.512 29.4688 27.5641 29.7766 27.5641 30.132C27.5641 30.5048 27.5077 30.8472 27.395 31.1593C27.291 31.4714 27.1349 31.7445 26.9268 31.9786C26.7274 32.204 26.4847 32.3817 26.1986 32.5118C25.9212 32.6332 25.6091 32.6938 25.2623 32.6938H21.387V23.6169ZM22.1673 32.0046H25.0542C25.6004 32.0046 26.0165 31.8572 26.3026 31.5625C26.5887 31.259 26.7318 30.8689 26.7318 30.3921V29.9109C26.7318 29.4428 26.5887 29.0613 26.3026 28.7666C26.0165 28.4631 25.6004 28.3114 25.0542 28.3114H22.1673V32.0046ZM22.1673 27.6352H24.8592C25.3533 27.6352 25.7305 27.5051 25.9905 27.2451C26.2506 26.9763 26.3807 26.6339 26.3807 26.2177V25.7236C26.3807 25.3074 26.2506 24.9693 25.9905 24.7092C25.7305 24.4405 25.3533 24.3061 24.8592 24.3061H22.1673V27.6352ZM35.2586 32.6938H29.4327V31.9006L32.6057 28.8576C33.0305 28.4415 33.3773 28.0166 33.6461 27.5832C33.9148 27.141 34.0492 26.6902 34.0492 26.2307V25.9837C34.0492 25.4461 33.8932 25.0083 33.5811 24.6702C33.269 24.3321 32.8008 24.1631 32.1766 24.1631C31.5697 24.1631 31.1059 24.3148 30.7851 24.6182C30.4644 24.9216 30.2303 25.3161 30.0829 25.8016L29.3807 25.5415C29.4674 25.2641 29.5844 24.9997 29.7318 24.7482C29.8792 24.4968 30.0656 24.2758 30.291 24.085C30.5251 23.8943 30.7982 23.7426 31.1103 23.6299C31.4224 23.5172 31.7865 23.4608 32.2026 23.4608C32.6274 23.4608 33.0045 23.5258 33.334 23.6559C33.6721 23.7773 33.9539 23.9507 34.1793 24.1761C34.4133 24.4015 34.5867 24.6746 34.6994 24.9953C34.8208 25.3074 34.8815 25.6585 34.8815 26.0487C34.8815 26.3781 34.8381 26.6902 34.7514 26.985C34.6648 27.2711 34.5434 27.5485 34.3873 27.8173C34.2313 28.0773 34.0405 28.3374 33.8151 28.5975C33.5897 28.8489 33.3427 29.1003 33.0739 29.3518L30.278 32.0046H35.2586V32.6938ZM37.4773 23.6169H41.0274C41.7383 23.6169 42.2932 23.8206 42.692 24.2281C43.0994 24.6269 43.3032 25.1861 43.3032 25.9056C43.3032 26.2177 43.2598 26.4908 43.1731 26.7249C43.0951 26.959 42.9911 27.154 42.861 27.3101C42.731 27.4661 42.5793 27.5918 42.4059 27.6872C42.2412 27.7826 42.0764 27.8476 41.9117 27.8823V27.9343C42.1198 27.9603 42.3278 28.0253 42.5359 28.1294C42.744 28.2247 42.9304 28.3634 43.0951 28.5455C43.2598 28.7189 43.3942 28.94 43.4982 29.2087C43.6023 29.4688 43.6543 29.7766 43.6543 30.132C43.6543 30.5048 43.5979 30.8472 43.4852 31.1593C43.3812 31.4714 43.2251 31.7445 43.0171 31.9786C42.8177 32.204 42.5749 32.3817 42.2888 32.5118C42.0114 32.6332 41.6993 32.6938 41.3525 32.6938H37.4773V23.6169ZM38.2575 32.0046H41.1445C41.6906 32.0046 42.1068 31.8572 42.3929 31.5625C42.679 31.259 42.822 30.8689 42.822 30.3921V29.9109C42.822 29.4428 42.679 29.0613 42.3929 28.7666C42.1068 28.4631 41.6906 28.3114 41.1445 28.3114H38.2575V32.0046ZM38.2575 27.6352H40.9494C41.4436 27.6352 41.8207 27.5051 42.0808 27.2451C42.3409 26.9763 42.4709 26.6339 42.4709 26.2177V25.7236C42.4709 25.3074 42.3409 24.9693 42.0808 24.7092C41.8207 24.4405 41.4436 24.3061 40.9494 24.3061H38.2575V27.6352ZM48.7653 26.0357H49.5065V27.102H49.5455C49.7102 26.7292 49.9617 26.4345 50.2998 26.2177C50.6379 25.9923 51.0627 25.8796 51.5742 25.8796C52.4325 25.8796 53.1043 26.183 53.5898 26.7899C54.0753 27.3968 54.3181 28.2551 54.3181 29.3648C54.3181 30.4745 54.0753 31.3327 53.5898 31.9396C53.1043 32.5465 52.4325 32.8499 51.5742 32.8499C51.0627 32.8499 50.6422 32.7415 50.3128 32.5248C49.9833 32.2994 49.7276 32.0003 49.5455 31.6275H49.5065V35.2947H48.7653V26.0357ZM51.4051 32.1867C52.0727 32.1867 52.5928 31.9743 52.9656 31.5495C53.3384 31.1247 53.5248 30.5525 53.5248 29.8329V28.8966C53.5248 28.177 53.3384 27.6048 52.9656 27.18C52.5928 26.7552 52.0727 26.5428 51.4051 26.5428C51.145 26.5428 50.898 26.5818 50.6639 26.6599C50.4385 26.7292 50.2391 26.8289 50.0657 26.959C49.8923 27.089 49.7536 27.2451 49.6496 27.4271C49.5542 27.6092 49.5065 27.8086 49.5065 28.0253V30.6652C49.5065 30.8993 49.5542 31.1117 49.6496 31.3024C49.7536 31.4845 49.8923 31.6448 50.0657 31.7835C50.2391 31.9136 50.4385 32.0133 50.6639 32.0826C50.898 32.152 51.145 32.1867 51.4051 32.1867ZM57.0518 32.6938C56.7831 32.6938 56.5793 32.6202 56.4406 32.4728C56.3019 32.3254 56.2326 32.1303 56.2326 31.8876V23.0707H56.9738V32.0436H58.0011V32.6938H57.0518ZM64.2389 32.6938C63.9528 32.6938 63.7447 32.6202 63.6147 32.4728C63.4847 32.3254 63.411 32.126 63.3936 31.8746V31.6405H63.3286C63.1812 32.0133 62.9385 32.3081 62.6004 32.5248C62.2623 32.7415 61.8331 32.8499 61.3129 32.8499C60.6107 32.8499 60.0689 32.6808 59.6874 32.3427C59.306 31.996 59.1152 31.5105 59.1152 30.8863C59.1152 30.2967 59.3233 29.8286 59.7394 29.4818C60.1642 29.135 60.8578 28.9616 61.8201 28.9616H63.3546V28.1814C63.3546 27.0803 62.7868 26.5298 61.6511 26.5298C61.2089 26.5298 60.8405 26.6252 60.5457 26.8159C60.2509 26.998 60.0125 27.2624 59.8305 27.6092L59.3623 27.2191C59.5444 26.8289 59.8218 26.5082 60.1946 26.2567C60.576 26.0053 61.0702 25.8796 61.6771 25.8796C62.4573 25.8796 63.0555 26.0747 63.4717 26.4648C63.8878 26.8549 64.0959 27.4011 64.0959 28.1033V32.0436H64.9932V32.6938H64.2389ZM61.417 32.2127C61.6857 32.2127 61.9372 32.178 62.1712 32.1087C62.4053 32.0393 62.609 31.9439 62.7824 31.8226C62.9645 31.6925 63.1032 31.5408 63.1986 31.3674C63.3026 31.1854 63.3546 30.9816 63.3546 30.7562V29.5208H61.7941C61.1266 29.5208 60.6411 29.6292 60.3376 29.8459C60.0429 30.054 59.8955 30.3444 59.8955 30.7172V31.0293C59.8955 31.4194 60.0342 31.7142 60.3116 31.9136C60.589 32.113 60.9575 32.2127 61.417 32.2127ZM67.6889 32.6938C67.4201 32.6938 67.2164 32.6202 67.0777 32.4728C66.939 32.3254 66.8696 32.126 66.8696 31.8746V26.6859H65.7122V26.0357H66.4665C66.6486 26.0357 66.7699 26.001 66.8306 25.9316C66.9 25.8536 66.9346 25.7192 66.9346 25.5285V24.1761H67.6109V26.0357H69.1194V26.6859H67.6109V32.0436H69.0153V32.6938H67.6889ZM71.0601 26.6859H69.9158V26.0357H71.0601V24.1761C71.0601 23.8379 71.1425 23.5692 71.3072 23.3698C71.4806 23.1704 71.745 23.0707 72.1005 23.0707H73.2709V23.7209H71.8014V26.0357H73.2709V26.6859H71.8014V32.6938H71.0601V26.6859ZM77.0771 32.8499C76.6349 32.8499 76.2361 32.7719 75.8807 32.6158C75.5252 32.4598 75.2218 32.2344 74.9704 31.9396C74.719 31.6362 74.5239 31.2677 74.3852 30.8342C74.2465 30.4008 74.1771 29.9109 74.1771 29.3648C74.1771 28.8186 74.2465 28.3331 74.3852 27.9083C74.5239 27.4748 74.719 27.1107 74.9704 26.8159C75.2218 26.5125 75.5252 26.2827 75.8807 26.1267C76.2361 25.962 76.6349 25.8796 77.0771 25.8796C77.5192 25.8796 77.918 25.962 78.2734 26.1267C78.6289 26.2827 78.9323 26.5125 79.1837 26.8159C79.4352 27.1107 79.6302 27.4748 79.7689 27.9083C79.9076 28.3331 79.977 28.8186 79.977 29.3648C79.977 29.9109 79.9076 30.4008 79.7689 30.8342C79.6302 31.2677 79.4352 31.6362 79.1837 31.9396C78.9323 32.2344 78.6289 32.4598 78.2734 32.6158C77.918 32.7719 77.5192 32.8499 77.0771 32.8499ZM77.0771 32.1867C77.7273 32.1867 78.2388 31.9829 78.6116 31.5755C78.993 31.168 79.1837 30.5698 79.1837 29.7809V28.9486C79.1837 28.1684 78.993 27.5745 78.6116 27.167C78.2388 26.7509 77.7273 26.5428 77.0771 26.5428C76.4268 26.5428 75.911 26.7466 75.5295 27.154C75.1568 27.5615 74.9704 28.1597 74.9704 28.9486V29.7809C74.9704 30.5611 75.1568 31.1593 75.5295 31.5755C75.911 31.9829 76.4268 32.1867 77.0771 32.1867ZM81.8601 32.6938V26.0357H82.6013V27.2321H82.6533C82.7834 26.92 83.0045 26.6425 83.3166 26.3998C83.6287 26.157 84.0708 26.0357 84.643 26.0357H85.0851V26.7639H84.4999C83.9451 26.7639 83.49 26.8853 83.1345 27.128C82.7791 27.3708 82.6013 27.7089 82.6013 28.1424V32.6938H81.8601ZM86.5081 32.6938V26.0357H87.2493V27.089H87.2883C87.3577 26.9243 87.4444 26.7726 87.5484 26.6339C87.6525 26.4865 87.7782 26.3564 87.9256 26.2437C88.0729 26.131 88.2463 26.0443 88.4457 25.9837C88.6538 25.9143 88.8965 25.8796 89.174 25.8796C89.6508 25.8796 90.0713 25.9923 90.4354 26.2177C90.7995 26.4431 91.0639 26.7986 91.2286 27.2841H91.2676C91.389 26.8939 91.6188 26.5645 91.9569 26.2958C92.3037 26.0183 92.7718 25.8796 93.3613 25.8796C94.0722 25.8796 94.6184 26.1007 94.9999 26.5428C95.3813 26.9763 95.5721 27.6005 95.5721 28.4154V32.6938H94.8308V28.5455C94.8308 27.2104 94.2716 26.5428 93.1533 26.5428C92.9192 26.5428 92.6981 26.5732 92.49 26.6339C92.282 26.6945 92.0956 26.7899 91.9309 26.92C91.7748 27.0413 91.6491 27.1974 91.5537 27.3881C91.4584 27.5702 91.4107 27.7826 91.4107 28.0253V32.6938H90.6694V28.5455C90.6694 27.2104 90.1146 26.5428 89.0049 26.5428C88.7795 26.5428 88.5584 26.5732 88.3417 26.6339C88.1336 26.6945 87.9472 26.7856 87.7825 26.907C87.6178 27.0283 87.4877 27.1844 87.3924 27.3751C87.297 27.5572 87.2493 27.7696 87.2493 28.0123V32.6938H86.5081ZM99.7851 32.8499C99.2043 32.8499 98.7058 32.7415 98.2896 32.5248C97.8822 32.3081 97.5267 31.9916 97.2233 31.5755L97.7695 31.1463C98.0469 31.5105 98.3503 31.7792 98.6798 31.9526C99.0092 32.126 99.395 32.2127 99.8371 32.2127C100.349 32.2127 100.743 32.1043 101.021 31.8876C101.298 31.6708 101.437 31.3587 101.437 30.9513C101.437 30.5958 101.328 30.3184 101.112 30.119C100.903 29.9109 100.557 29.7722 100.071 29.7029L99.525 29.6118C99.2216 29.5685 98.9442 29.5035 98.6928 29.4168C98.4414 29.3301 98.2246 29.213 98.0426 29.0657C97.8692 28.9183 97.7305 28.7406 97.6264 28.5325C97.5311 28.3157 97.4834 28.0557 97.4834 27.7522C97.4834 27.4401 97.5397 27.167 97.6524 26.933C97.7738 26.6989 97.9342 26.5038 98.1336 26.3478C98.333 26.1917 98.5714 26.0747 98.8488 25.9967C99.1262 25.9186 99.4253 25.8796 99.7461 25.8796C100.301 25.8796 100.756 25.975 101.112 26.1657C101.467 26.3564 101.77 26.6035 102.022 26.907L101.528 27.3621C101.354 27.154 101.12 26.9633 100.825 26.7899C100.539 26.6079 100.167 26.5168 99.7071 26.5168C99.2303 26.5168 98.8575 26.6209 98.5887 26.8289C98.3287 27.037 98.1986 27.3318 98.1986 27.7132C98.1986 28.1033 98.3156 28.3851 98.5497 28.5585C98.7925 28.7319 99.1523 28.8576 99.6291 28.9356L100.162 29.0136C100.838 29.1177 101.337 29.3214 101.658 29.6248C101.987 29.9196 102.152 30.3357 102.152 30.8733C102.152 31.4975 101.94 31.9829 101.515 32.3297C101.099 32.6765 100.522 32.8499 99.7851 32.8499Z" fill="#0FB56F"/>
<path d="M101.377 60.3323H110.58L123.809 41.6387H176.151" stroke="white" stroke-width="0.812766" stroke-linecap="round"/>
<line x1="134.701" y1="25.145" x2="126.335" y2="33.5107" stroke="white" stroke-width="0.812766" stroke-linecap="round" stroke-dasharray="0.81 1.63"/>
<circle cx="130.231" cy="29.0403" r="6.50213" stroke="#0FB56F" stroke-width="0.812766"/>
<line x1="143.641" y1="25.383" x2="175.339" y2="25.383" stroke="#0FB56F" stroke-width="1.62553" stroke-linecap="round"/>
<line x1="143.641" y1="31.8855" x2="161.522" y2="31.8855" stroke="#0FB56F" stroke-width="1.62553" stroke-linecap="round"/>
<path d="M98.0439 56.7891H132.596C135.457 56.7891 136.985 58.3302 136.985 61.2133V130.278C136.985 133.191 135.455 134.711 132.523 134.711H63.5805C60.6133 134.711 59.1113 133.196 59.1113 130.204V61.302C59.1113 58.2717 60.6047 56.7891 63.6628 56.7891H98.0439ZM98.0591 59.3865H63.6628C62.0525 59.3865 61.7122 59.7284 61.7122 61.3345V130.165C61.7122 131.778 62.0546 132.126 63.6476 132.126H132.429C134.038 132.126 134.38 131.778 134.38 130.189V61.3583C134.38 59.7501 134.035 59.4103 132.442 59.4103L98.0591 59.3865Z" fill="#0FB56F"/>
<path d="M86.3652 85.3602V126.209C86.3652 127.882 86.0358 128.217 84.3994 128.217H67.5286C65.9659 128.217 65.5996 127.86 65.5996 126.332V71.6309C65.5996 70.1503 65.9789 69.7759 67.4766 69.7759H128.631C130.118 69.7759 130.493 70.1547 130.495 71.646C130.495 75.6229 130.495 79.5998 130.495 83.5767C130.495 84.9533 130.09 85.3602 128.709 85.3602H86.3652ZM83.7362 85.4187H68.259V125.577H83.7362V85.4187ZM68.233 82.7066H127.836V72.4144H68.233V82.7066Z" fill="white"/>
<path d="M90.2623 93.0834C90.2623 92.2999 90.2515 91.5142 90.2623 90.7306C90.2797 89.7674 90.7543 89.2718 91.7058 89.2609C93.327 89.2451 94.9489 89.2451 96.5716 89.2609C97.536 89.2609 98.0302 89.7544 98.0389 90.7046C98.0562 92.328 98.0562 93.9514 98.0389 95.5748C98.0389 96.538 97.5447 97.0336 96.5954 97.0444C94.9713 97.0618 93.3494 97.0618 91.7297 97.0444C90.7652 97.0444 90.2797 96.5509 90.2602 95.6007C90.2493 94.7609 90.2623 93.9232 90.2623 93.0834ZM92.9022 91.8908V94.4016H95.3968V91.8908H92.9022Z" fill="white"/>
<path d="M98.0465 103.572C98.0465 104.383 98.0617 105.195 98.0465 106.007C98.0248 106.92 97.5437 107.42 96.6399 107.431C94.9912 107.451 93.3426 107.451 91.6939 107.431C90.7814 107.431 90.2808 106.931 90.2699 106.026C90.2512 104.377 90.2512 102.727 90.2699 101.076C90.2699 100.163 90.7684 99.6627 91.6722 99.6519C93.3223 99.6317 94.9717 99.6317 96.6204 99.6519C97.5328 99.6519 98.0227 100.152 98.0443 101.057C98.0638 101.894 98.0465 102.734 98.0465 103.572ZM92.9207 102.273V104.797H95.4023V102.271L92.9207 102.273Z" fill="white"/>
<path d="M94.0904 117.828C93.3058 117.828 92.5234 117.839 91.7388 117.828C90.7743 117.811 90.2758 117.337 90.265 116.388C90.2476 114.765 90.2476 113.142 90.265 111.518C90.265 110.553 90.7548 110.055 91.7041 110.047C93.3253 110.027 94.9552 110.029 96.5699 110.047C97.5343 110.047 98.0328 110.538 98.0415 111.486C98.061 113.109 98.0588 114.733 98.0415 116.356C98.0415 117.352 97.5408 117.817 96.5243 117.832C95.7137 117.828 94.901 117.828 94.0904 117.828ZM95.4341 112.7H92.9222V115.17H95.445L95.4341 112.7Z" fill="white"/>
<path d="M98.0474 124.375C98.0474 125.159 98.0474 125.944 98.0474 126.728C98.03 127.7 97.5619 128.2 96.6191 128.211C94.9704 128.229 93.321 128.229 91.6709 128.211C90.7671 128.2 90.2795 127.698 90.2708 126.784C90.2535 125.133 90.2535 123.483 90.2708 121.834C90.2817 120.929 90.7823 120.44 91.697 120.431C93.3456 120.414 94.995 120.414 96.6451 120.431C97.5467 120.442 98.0257 120.944 98.0474 121.858C98.0604 122.698 98.0474 123.535 98.0474 124.375ZM92.8933 125.574H95.3988V123.083H92.8933V125.574Z" fill="white"/>
<path d="M108.471 94.3972V91.895H126.538V94.3972H108.471Z" fill="white"/>
<path d="M126.568 102.302V104.797H108.471V102.302H126.568Z" fill="white"/>
<path d="M126.563 112.687V115.191H108.496V112.687H126.563Z" fill="white"/>
<path d="M108.471 125.566V123.063H126.538V125.566H108.471Z" fill="white"/>
<path d="M105.793 91.9019V94.391H101.996V91.9019H105.793Z" fill="#0FB56F"/>
<path d="M101.98 104.786V102.284H105.773V104.786H101.98Z" fill="#0FB56F"/>
<path d="M105.801 112.691V115.187H102.008V112.691H105.801Z" fill="#0FB56F"/>
<path d="M102.004 123.053H105.784V125.579H102.004V123.053Z" fill="#0FB56F"/>
<path d="M66.8897 63.261C66.894 63.5182 66.8217 63.7708 66.682 63.9869C66.5423 64.203 66.3415 64.3729 66.1051 64.4748C65.8687 64.5768 65.6072 64.6064 65.3539 64.5598C65.1006 64.5132 64.8669 64.3925 64.6823 64.2131C64.4978 64.0337 64.3708 63.8036 64.3173 63.5519C64.2639 63.3003 64.2865 63.0385 64.3823 62.7997C64.478 62.561 64.6426 62.356 64.8552 62.2107C65.0678 62.0655 65.3188 61.9866 65.5763 61.984C65.9197 61.9805 66.2506 62.1128 66.4966 62.3521C66.7427 62.5913 66.884 62.9181 66.8897 63.261Z" fill="#0FB56F"/>
<path d="M70.7842 63.3084C70.779 63.5654 70.6975 63.815 70.5502 64.0257C70.4028 64.2364 70.1961 64.3987 69.9564 64.4921C69.7166 64.5854 69.4544 64.6056 69.2032 64.5501C68.9519 64.4946 68.7227 64.3659 68.5447 64.1803C68.3668 63.9946 68.2479 63.7604 68.2033 63.5073C68.1587 63.2542 68.1902 62.9935 68.294 62.7583C68.3978 62.5232 68.5692 62.324 68.7863 62.1861C69.0035 62.0482 69.2568 61.9778 69.5141 61.9837C69.8583 61.9917 70.1852 62.1356 70.4233 62.3839C70.6614 62.6322 70.7912 62.9647 70.7842 63.3084Z" fill="#0FB56F"/>
<path d="M74.6807 63.3064C74.6759 63.5638 74.5946 63.8139 74.4472 64.025C74.2998 64.2361 74.0928 64.3987 73.8527 64.4921C73.6126 64.5856 73.3501 64.6057 73.0985 64.5499C72.8469 64.4941 72.6176 64.3648 72.4397 64.1786C72.2617 63.9924 72.1432 63.7576 72.0992 63.504C72.0552 63.2504 72.0876 62.9895 72.1923 62.7543C72.297 62.5191 72.4694 62.3204 72.6875 62.1832C72.9055 62.046 73.1595 61.9767 73.4171 61.9839C73.7598 61.9936 74.0847 62.1379 74.3214 62.3856C74.558 62.6332 74.6871 62.9642 74.6807 63.3064Z" fill="#0FB56F"/>
<path d="M22.5391 148.509L24.9774 150.944L22.5391 153.379" stroke="white" stroke-width="0.812766" stroke-linecap="round"/>
<path d="M117.631 148.509L120.069 150.944L117.631 153.379" stroke="white" stroke-width="0.812766" stroke-linecap="round"/>
<line x1="34.7327" y1="152.988" x2="80.2476" y2="152.988" stroke="#0FB56F" stroke-width="1.62553" stroke-linecap="round"/>
<line x1="129.824" y1="152.988" x2="175.339" y2="152.988" stroke="#0FB56F" stroke-width="1.62553" stroke-linecap="round"/>
<line x1="34.7327" y1="159.489" x2="80.2476" y2="159.489" stroke="#0FB56F" stroke-width="1.62553" stroke-linecap="round"/>
<line x1="34.7327" y1="172.494" x2="71.3072" y2="172.494" stroke="#0FB56F" stroke-width="1.62553" stroke-linecap="round"/>
<line x1="129.824" y1="159.489" x2="175.339" y2="159.489" stroke="#0FB56F" stroke-width="1.62553" stroke-linecap="round"/>
<line x1="129.824" y1="172.494" x2="146.893" y2="172.494" stroke="#0FB56F" stroke-width="1.62553" stroke-linecap="round"/>
<line x1="34.7327" y1="165.992" x2="60.7412" y2="165.992" stroke="#0FB56F" stroke-width="1.62553" stroke-linecap="round"/>
<line x1="129.824" y1="165.992" x2="155.833" y2="165.992" stroke="#0FB56F" stroke-width="1.62553" stroke-linecap="round"/>
<mask id="mask1_1610_15960" style="mask-type:alpha" maskUnits="userSpaceOnUse" x="20" y="64" width="33" height="63">
<rect x="20.0996" y="64.9053" width="32.5106" height="61.6881" fill="#C4C4C4"/>
</mask>
<g mask="url(#mask1_1610_15960)">
<path d="M51.3876 64.9067H79.1555C81.4546 64.9067 82.6826 66.1268 82.6826 68.4093V123.085C82.6826 125.392 81.4529 126.595 79.0962 126.595H23.6912C21.3067 126.595 20.0996 125.395 20.0996 123.027V68.4795C20.0996 66.0805 21.2997 64.9067 23.7574 64.9067H51.3876ZM51.3998 66.963H23.7574C22.4632 66.963 22.1898 67.2338 22.1898 68.5052V122.996C22.1898 124.273 22.465 124.549 23.7452 124.549H79.0213C80.3138 124.549 80.589 124.273 80.589 123.015V68.5241C80.589 67.2509 80.312 66.9819 79.0318 66.9819L51.3998 66.963Z" fill="#0FB56F"/>
<path d="M42.0027 87.5261V119.864C42.0027 121.189 41.7379 121.455 40.4228 121.455H26.8647C25.6088 121.455 25.3145 121.172 25.3145 119.962V76.657C25.3145 75.4849 25.6193 75.1885 26.8229 75.1885H75.9696C77.1644 75.1885 77.4658 75.4883 77.4675 76.669C77.4675 79.8174 77.4675 82.9657 77.4675 86.1141C77.4675 87.2039 77.1418 87.5261 76.0323 87.5261H42.0027ZM39.8899 87.5724H27.4516V119.364H39.8899V87.5724ZM27.4307 85.4253H75.3303V77.2773H27.4307V85.4253Z" fill="#0FB56F"/>
<path d="M45.1322 93.6396C45.1322 93.0193 45.1235 92.3972 45.1322 91.7769C45.1461 91.0144 45.5275 90.622 46.2922 90.6134C47.5951 90.6009 48.8985 90.6009 50.2025 90.6134C50.9776 90.6134 51.3748 91.0041 51.3817 91.7564C51.3957 93.0415 51.3957 94.3267 51.3817 95.6119C51.3817 96.3744 50.9846 96.7668 50.2217 96.7754C48.9165 96.7891 47.6131 96.7891 46.3114 96.7754C45.5363 96.7754 45.1461 96.3847 45.1304 95.6324C45.1217 94.9676 45.1322 94.3044 45.1322 93.6396ZM47.2537 92.6954V94.6831H49.2585V92.6954H47.2537Z" fill="#0FB56F"/>
<path d="M51.3879 101.943C51.3879 102.586 51.4001 103.229 51.3879 103.871C51.3705 104.594 50.9838 104.99 50.2574 104.999C48.9325 105.015 47.6076 105.015 46.2826 104.999C45.5493 104.999 45.147 104.603 45.1383 103.887C45.1232 102.581 45.1232 101.275 45.1383 99.9676C45.1383 99.2445 45.5389 98.8487 46.2652 98.8401C47.5913 98.8241 48.9168 98.8241 50.2418 98.8401C50.9751 98.8401 51.3687 99.236 51.3861 99.9522C51.4018 100.615 51.3879 101.28 51.3879 101.943ZM47.2685 100.915V102.913H49.2629V100.914L47.2685 100.915Z" fill="#0FB56F"/>
<path d="M48.2097 113.229C47.5792 113.229 46.9504 113.238 46.3199 113.229C45.5448 113.216 45.1442 112.84 45.1355 112.09C45.1215 110.805 45.1215 109.519 45.1355 108.234C45.1355 107.47 45.5291 107.076 46.292 107.069C47.5949 107.054 48.9047 107.055 50.2024 107.069C50.9775 107.069 51.3781 107.458 51.385 108.209C51.4007 109.494 51.399 110.779 51.385 112.064C51.385 112.852 50.9827 113.221 50.1658 113.233C49.5143 113.229 48.8612 113.229 48.2097 113.229ZM49.2897 109.17H47.2709V111.125H49.2984L49.2897 109.17Z" fill="#0FB56F"/>
<path d="M51.3929 118.412C51.3929 119.032 51.3929 119.655 51.3929 120.275C51.3789 121.044 51.0027 121.44 50.245 121.449C48.9201 121.463 47.5946 121.463 46.2685 121.449C45.5421 121.44 45.1502 121.042 45.1433 120.319C45.1293 119.012 45.1293 117.706 45.1433 116.4C45.152 115.684 45.5543 115.297 46.2894 115.29C47.6143 115.276 48.9398 115.276 50.2659 115.29C50.9905 115.299 51.3754 115.696 51.3929 116.419C51.4033 117.084 51.3929 117.747 51.3929 118.412ZM47.2508 119.361H49.2644V117.389H47.2508V119.361Z" fill="#0FB56F"/>
<path d="M26.3517 70.0306C26.3552 70.2342 26.2971 70.4342 26.1848 70.6053C26.0726 70.7764 25.9112 70.9108 25.7212 70.9915C25.5311 71.0723 25.321 71.0957 25.1175 71.0588C24.9139 71.0219 24.7261 70.9264 24.5778 70.7843C24.4295 70.6423 24.3274 70.4601 24.2844 70.2609C24.2415 70.0617 24.2597 69.8544 24.3366 69.6654C24.4136 69.4764 24.5459 69.3141 24.7167 69.1991C24.8875 69.0841 25.0892 69.0216 25.2962 69.0196C25.5722 69.0168 25.8381 69.1216 26.0358 69.311C26.2336 69.5004 26.3472 69.7591 26.3517 70.0306Z" fill="#0FB56F"/>
<path d="M29.4825 70.0685C29.4783 70.2719 29.4129 70.4696 29.2945 70.6364C29.176 70.8032 29.0099 70.9317 28.8172 71.0056C28.6245 71.0795 28.4139 71.0955 28.2119 71.0515C28.01 71.0076 27.8259 70.9057 27.6828 70.7587C27.5398 70.6118 27.4443 70.4263 27.4084 70.226C27.3725 70.0256 27.3979 69.8192 27.4813 69.633C27.5647 69.4468 27.7024 69.2892 27.877 69.18C28.0515 69.0709 28.2551 69.0151 28.4618 69.0198C28.7384 69.0261 29.0012 69.14 29.1925 69.3366C29.3838 69.5332 29.4881 69.7964 29.4825 70.0685Z" fill="#0FB56F"/>
<path d="M32.6115 70.0669C32.6076 70.2706 32.5423 70.4686 32.4238 70.6358C32.3053 70.8029 32.139 70.9316 31.9461 71.0056C31.7531 71.0796 31.5421 71.0955 31.3399 71.0513C31.1377 71.0071 30.9534 70.9048 30.8105 70.7574C30.6675 70.61 30.5722 70.4241 30.5369 70.2234C30.5015 70.0226 30.5275 69.816 30.6117 69.6298C30.6958 69.4437 30.8344 69.2863 31.0096 69.1777C31.1849 69.0691 31.389 69.0142 31.596 69.0199C31.8714 69.0276 32.1325 69.1418 32.3227 69.3379C32.5128 69.534 32.6166 69.796 32.6115 70.0669Z" fill="#0FB56F"/>
</g>
<mask id="mask2_1610_15960" style="mask-type:alpha" maskUnits="userSpaceOnUse" x="143" y="64" width="34" height="63">
<rect x="143.643" y="64.9053" width="32.5106" height="61.6881" fill="#C4C4C4"/>
</mask>
<g mask="url(#mask2_1610_15960)">
<path d="M144.858 64.9058H172.626C174.925 64.9058 176.153 66.1258 176.153 68.4083V123.084C176.153 125.391 174.924 126.594 172.567 126.594H117.162C114.777 126.594 113.57 125.394 113.57 123.026V68.4785C113.57 66.0795 114.77 64.9058 117.228 64.9058H144.858ZM144.871 66.962H117.228C115.934 66.962 115.66 67.2328 115.66 68.5042V122.995C115.66 124.272 115.936 124.548 117.216 124.548H172.492C173.784 124.548 174.06 124.272 174.06 123.014V68.5231C174.06 67.2499 173.783 66.9809 172.502 66.9809L144.871 66.962Z" fill="#0FB56F"/>
<path d="M135.473 87.5251V119.863C135.473 121.188 135.209 121.454 133.894 121.454H120.335C119.08 121.454 118.785 121.171 118.785 119.961V76.656C118.785 75.4839 119.09 75.1875 120.294 75.1875H169.44C170.635 75.1875 170.936 75.4874 170.938 76.668C170.938 79.8164 170.938 82.9648 170.938 86.1131C170.938 87.203 170.612 87.5251 169.503 87.5251H135.473ZM133.361 87.5714H120.922V119.363H133.361V87.5714ZM120.901 85.4243H168.801V77.2763H120.901V85.4243Z" fill="#0FB56F"/>
<path d="M138.603 93.6391C138.603 93.0188 138.594 92.3968 138.603 91.7764C138.617 91.0139 138.998 90.6215 139.763 90.6129C141.066 90.6004 142.369 90.6004 143.673 90.6129C144.448 90.6129 144.845 91.0036 144.852 91.7559C144.866 93.041 144.866 94.3262 144.852 95.6114C144.852 96.3739 144.455 96.7663 143.692 96.7749C142.387 96.7886 141.084 96.7886 139.782 96.7749C139.007 96.7749 138.617 96.3842 138.601 95.6319C138.592 94.9671 138.603 94.3039 138.603 93.6391ZM140.724 92.6949V94.6826H142.729V92.6949H140.724Z" fill="#0FB56F"/>
<path d="M144.859 101.943C144.859 102.585 144.871 103.228 144.859 103.871C144.841 104.594 144.454 104.99 143.728 104.998C142.403 105.014 141.078 105.014 139.753 104.998C139.02 104.998 138.618 104.602 138.609 103.886C138.594 102.58 138.594 101.274 138.609 99.9672C138.609 99.244 139.01 98.8482 139.736 98.8396C141.062 98.8236 142.388 98.8236 143.712 98.8396C144.446 98.8396 144.839 99.2355 144.857 99.9517C144.873 100.615 144.859 101.28 144.859 101.943ZM140.739 100.915V102.913H142.734V100.913L140.739 100.915Z" fill="#0FB56F"/>
<path d="M141.68 113.228C141.05 113.228 140.421 113.237 139.791 113.228C139.015 113.215 138.615 112.839 138.606 112.089C138.592 110.804 138.592 109.518 138.606 108.233C138.606 107.469 139 107.075 139.763 107.068C141.066 107.053 142.375 107.054 143.673 107.068C144.448 107.068 144.849 107.457 144.856 108.208C144.871 109.493 144.87 110.778 144.856 112.063C144.856 112.851 144.453 113.22 143.636 113.232C142.985 113.228 142.332 113.228 141.68 113.228ZM142.76 109.169H140.742V111.124H142.769L142.76 109.169Z" fill="#0FB56F"/>
<path d="M144.864 118.411C144.864 119.032 144.864 119.654 144.864 120.274C144.85 121.043 144.473 121.439 143.716 121.448C142.391 121.462 141.065 121.462 139.739 121.448C139.013 121.439 138.621 121.042 138.614 120.318C138.6 119.012 138.6 117.705 138.614 116.399C138.623 115.683 139.025 115.296 139.76 115.289C141.085 115.275 142.411 115.275 143.737 115.289C144.461 115.298 144.846 115.695 144.864 116.418C144.874 117.083 144.864 117.746 144.864 118.411ZM140.722 119.361H142.735V117.388H140.722V119.361Z" fill="#0FB56F"/>
<path d="M153.238 94.6791V92.6982H167.758V94.6791H153.238Z" fill="#0FB56F"/>
<path d="M167.782 100.937V102.913H153.238V100.937H167.782Z" fill="#0FB56F"/>
<path d="M167.777 109.159V111.141H153.258V109.159H167.777Z" fill="#0FB56F"/>
<path d="M153.24 119.354V117.374H167.76V119.354H153.24Z" fill="#0FB56F"/>
<path d="M151.085 92.7031V94.6737H148.033V92.7031H151.085Z" fill="#0FB56F"/>
<path d="M148.021 102.904V100.923H151.07V102.904H148.021Z" fill="#0FB56F"/>
<path d="M151.091 109.162V111.138H148.043V109.162H151.091Z" fill="#0FB56F"/>
<path d="M148.041 117.365H151.079V119.364H148.041V117.365Z" fill="#0FB56F"/>
</g>
<defs>
<linearGradient id="paint0_linear_1610_15960" x1="195.66" y1="0.182111" x2="0.595703" y2="0.182111" gradientUnits="userSpaceOnUse">
<stop stop-color="white" stop-opacity="0.12"/>
<stop offset="0.499248" stop-color="white" stop-opacity="0.4"/>
<stop offset="1" stop-color="white" stop-opacity="0.12"/>
</linearGradient>
</defs>
</svg>
