<svg width="196" height="196" viewBox="0 0 196 196" fill="none" xmlns="http://www.w3.org/2000/svg">
<rect x="1.34193" y="0.593883" width="194.251" height="194.251" stroke="url(#paint0_linear_1610_16236)" stroke-width="0.812766"/>
<g opacity="0.2">
<mask id="mask0_1610_16236" style="mask-type:alpha" maskUnits="userSpaceOnUse" x="7" y="6" width="183" height="183">
<rect x="7.4375" y="6.68994" width="182.06" height="182.06" fill="white"/>
</mask>
<g mask="url(#mask0_1610_16236)">
<line x1="140.717" y1="-83.6392" x2="-83.9025" y2="140.98" stroke="#0FB56F" stroke-width="0.812766" stroke-linecap="round"/>
<line x1="254.51" y1="30.1528" x2="29.8905" y2="254.772" stroke="#0FB56F" stroke-width="0.812766" stroke-linecap="round"/>
<line x1="99.3379" y1="-125.019" x2="-125.281" y2="99.6007" stroke="#0FB56F" stroke-width="0.812766" stroke-linecap="round"/>
<line x1="213.131" y1="-11.2261" x2="-11.4884" y2="213.393" stroke="#0FB56F" stroke-width="0.812766" stroke-linecap="round"/>
<line x1="202.785" y1="-21.5708" x2="-21.8341" y2="203.048" stroke="#0FB56F" stroke-width="0.812766" stroke-linecap="round"/>
<line x1="316.578" y1="92.2222" x2="91.9589" y2="316.841" stroke="#0FB56F" stroke-width="0.812766" stroke-linecap="round"/>
<line x1="126.924" y1="-97.4326" x2="-97.6954" y2="127.187" stroke="#0FB56F" stroke-width="0.812766" stroke-linecap="round"/>
<line x1="240.715" y1="16.3604" x2="16.0956" y2="240.98" stroke="#0FB56F" stroke-width="0.812766" stroke-linecap="round"/>
<line x1="168.305" y1="-56.0537" x2="-56.3146" y2="168.566" stroke="#0FB56F" stroke-width="0.812766" stroke-linecap="round"/>
<line x1="282.096" y1="57.7398" x2="57.4765" y2="282.359" stroke="#0FB56F" stroke-width="0.812766" stroke-linecap="round"/>
<line x1="113.133" y1="-111.226" x2="-111.486" y2="113.394" stroke="#0FB56F" stroke-width="0.812766" stroke-linecap="round"/>
<line x1="226.922" y1="2.56739" x2="2.30262" y2="227.187" stroke="#0FB56F" stroke-width="0.812766" stroke-linecap="round"/>
<line x1="188.99" y1="-35.3638" x2="-35.629" y2="189.255" stroke="#0FB56F" stroke-width="0.812766" stroke-linecap="round"/>
<line x1="302.787" y1="78.4292" x2="78.1679" y2="303.048" stroke="#0FB56F" stroke-width="0.812766" stroke-linecap="round"/>
<line x1="144.166" y1="-80.1914" x2="-80.4532" y2="144.428" stroke="#0FB56F" stroke-width="0.812766" stroke-linecap="round"/>
<line x1="257.957" y1="33.6011" x2="33.3378" y2="258.22" stroke="#0FB56F" stroke-width="0.812766" stroke-linecap="round"/>
<line x1="154.51" y1="-69.8467" x2="-70.1095" y2="154.773" stroke="#0FB56F" stroke-width="0.812766" stroke-linecap="round"/>
<line x1="268.303" y1="43.9458" x2="43.6835" y2="268.565" stroke="#0FB56F" stroke-width="0.812766" stroke-linecap="round"/>
<line x1="209.684" y1="-14.6743" x2="-14.9357" y2="209.945" stroke="#0FB56F" stroke-width="0.812766" stroke-linecap="round"/>
<line x1="323.473" y1="99.1191" x2="98.8534" y2="323.738" stroke="#0FB56F" stroke-width="0.812766" stroke-linecap="round"/>
<line x1="182.094" y1="-42.2607" x2="-42.5255" y2="182.359" stroke="#0FB56F" stroke-width="0.812766" stroke-linecap="round"/>
<line x1="295.889" y1="71.5327" x2="71.2694" y2="296.152" stroke="#0FB56F" stroke-width="0.812766" stroke-linecap="round"/>
<line x1="133.818" y1="-90.5366" x2="-90.8009" y2="134.083" stroke="#0FB56F" stroke-width="0.812766" stroke-linecap="round"/>
<line x1="247.615" y1="23.2564" x2="22.996" y2="247.876" stroke="#0FB56F" stroke-width="0.812766" stroke-linecap="round"/>
<line x1="175.197" y1="-49.1567" x2="-49.422" y2="175.463" stroke="#0FB56F" stroke-width="0.812766" stroke-linecap="round"/>
<line x1="288.994" y1="64.6367" x2="64.3749" y2="289.256" stroke="#0FB56F" stroke-width="0.812766" stroke-linecap="round"/>
<line x1="120.027" y1="-104.33" x2="-104.592" y2="120.29" stroke="#0FB56F" stroke-width="0.812766" stroke-linecap="round"/>
<line x1="233.82" y1="9.46338" x2="9.20106" y2="234.083" stroke="#0FB56F" stroke-width="0.812766" stroke-linecap="round"/>
<line x1="195.889" y1="-28.4673" x2="-28.7306" y2="196.152" stroke="#0FB56F" stroke-width="0.812766" stroke-linecap="round"/>
<line x1="309.682" y1="85.3262" x2="85.0624" y2="309.945" stroke="#0FB56F" stroke-width="0.812766" stroke-linecap="round"/>
<line x1="0.406383" y1="-0.406383" x2="318.147" y2="-0.406383" transform="matrix(-0.706744 0.70747 -0.709096 -0.705112 158.014 -67.0308)" stroke="#0FB56F" stroke-width="0.812766" stroke-linecap="round"/>
<line x1="0.406383" y1="-0.406383" x2="318.147" y2="-0.406383" transform="matrix(-0.706744 0.70747 -0.709096 -0.705112 271.809 46.7622)" stroke="#0FB56F" stroke-width="0.812766" stroke-linecap="round"/>
<line x1="147.611" y1="-76.7432" x2="-77.0079" y2="147.876" stroke="#0FB56F" stroke-width="0.812766" stroke-linecap="round"/>
<line x1="261.408" y1="37.0498" x2="36.789" y2="261.669" stroke="#0FB56F" stroke-width="0.812766" stroke-linecap="round"/>
<line x1="102.785" y1="-121.57" x2="-121.834" y2="103.049" stroke="#0FB56F" stroke-width="0.812766" stroke-linecap="round"/>
<line x1="216.58" y1="-7.77783" x2="-8.03917" y2="216.841" stroke="#0FB56F" stroke-width="0.812766" stroke-linecap="round"/>
<line x1="107.242" y1="-119.132" x2="-117.377" y2="105.487" stroke="#0FB56F" stroke-width="0.812766" stroke-linecap="round"/>
<line x1="221.037" y1="-5.33886" x2="-3.58214" y2="219.28" stroke="#0FB56F" stroke-width="0.812766" stroke-linecap="round"/>
<line x1="206.234" y1="-18.123" x2="-18.3849" y2="206.496" stroke="#0FB56F" stroke-width="0.812766" stroke-linecap="round"/>
<line x1="320.029" y1="95.6704" x2="95.41" y2="320.29" stroke="#0FB56F" stroke-width="0.812766" stroke-linecap="round"/>
<line x1="130.371" y1="-93.9844" x2="-94.2482" y2="130.635" stroke="#0FB56F" stroke-width="0.812766" stroke-linecap="round"/>
<line x1="244.164" y1="19.8081" x2="19.5448" y2="244.427" stroke="#0FB56F" stroke-width="0.812766" stroke-linecap="round"/>
<line x1="171.752" y1="-52.6055" x2="-52.8673" y2="172.014" stroke="#0FB56F" stroke-width="0.812766" stroke-linecap="round"/>
<line x1="285.541" y1="61.1885" x2="60.9218" y2="285.808" stroke="#0FB56F" stroke-width="0.812766" stroke-linecap="round"/>
<line x1="116.578" y1="-107.777" x2="-108.041" y2="116.842" stroke="#0FB56F" stroke-width="0.812766" stroke-linecap="round"/>
<line x1="230.371" y1="6.01514" x2="5.75184" y2="230.634" stroke="#0FB56F" stroke-width="0.812766" stroke-linecap="round"/>
<line x1="192.439" y1="-31.9155" x2="-32.1798" y2="192.704" stroke="#0FB56F" stroke-width="0.812766" stroke-linecap="round"/>
<line x1="306.236" y1="81.877" x2="81.6171" y2="306.496" stroke="#0FB56F" stroke-width="0.812766" stroke-linecap="round"/>
<line x1="151.061" y1="-73.2944" x2="-73.5587" y2="151.325" stroke="#0FB56F" stroke-width="0.812766" stroke-linecap="round"/>
<line x1="264.855" y1="40.4981" x2="40.2362" y2="265.117" stroke="#0FB56F" stroke-width="0.812766" stroke-linecap="round"/>
<line x1="161.406" y1="-62.9502" x2="-63.213" y2="161.669" stroke="#0FB56F" stroke-width="0.812766" stroke-linecap="round"/>
<line x1="275.199" y1="50.8433" x2="50.58" y2="275.463" stroke="#0FB56F" stroke-width="0.812766" stroke-linecap="round"/>
<line x1="109.682" y1="-114.674" x2="-114.938" y2="109.945" stroke="#0FB56F" stroke-width="0.812766" stroke-linecap="round"/>
<line x1="223.475" y1="-0.880854" x2="-1.14464" y2="223.738" stroke="#0FB56F" stroke-width="0.812766" stroke-linecap="round"/>
<line x1="185.545" y1="-38.8125" x2="-39.0743" y2="185.807" stroke="#0FB56F" stroke-width="0.812766" stroke-linecap="round"/>
<line x1="299.336" y1="74.981" x2="74.7167" y2="299.6" stroke="#0FB56F" stroke-width="0.812766" stroke-linecap="round"/>
<line x1="137.268" y1="-87.0874" x2="-87.3517" y2="137.532" stroke="#0FB56F" stroke-width="0.812766" stroke-linecap="round"/>
<line x1="251.061" y1="26.7046" x2="26.4413" y2="251.324" stroke="#0FB56F" stroke-width="0.812766" stroke-linecap="round"/>
<line x1="178.646" y1="-45.7085" x2="-45.9728" y2="178.911" stroke="#0FB56F" stroke-width="0.812766" stroke-linecap="round"/>
<line x1="292.439" y1="68.0845" x2="67.8202" y2="292.704" stroke="#0FB56F" stroke-width="0.812766" stroke-linecap="round"/>
<line x1="123.475" y1="-100.881" x2="-101.145" y2="123.738" stroke="#0FB56F" stroke-width="0.812766" stroke-linecap="round"/>
<line x1="237.268" y1="12.9121" x2="12.6483" y2="237.531" stroke="#0FB56F" stroke-width="0.812766" stroke-linecap="round"/>
<line x1="199.338" y1="-25.0185" x2="-25.2814" y2="199.601" stroke="#0FB56F" stroke-width="0.812766" stroke-linecap="round"/>
<line x1="313.131" y1="88.7744" x2="88.5116" y2="313.394" stroke="#0FB56F" stroke-width="0.812766" stroke-linecap="round"/>
<line x1="164.854" y1="-59.5019" x2="-59.7657" y2="165.117" stroke="#0FB56F" stroke-width="0.812766" stroke-linecap="round"/>
<line x1="278.646" y1="54.2915" x2="54.0272" y2="278.911" stroke="#0FB56F" stroke-width="0.812766" stroke-linecap="round"/>
</g>
</g>
<path d="M135.855 66.0218H142.358L151.704 45.7026L175.681 45.7026" stroke="white" stroke-width="0.812766" stroke-linecap="round"/>
<rect x="157.395" y="26.6027" width="12.1915" height="12.1915" stroke="#0FB56F" stroke-width="0.812766"/>
<path d="M160.89 31.464H162.841V33.412C162.841 33.7706 163.132 34.0614 163.491 34.0614C163.85 34.0614 164.142 33.7706 164.142 33.412V31.464H166.092C166.451 31.464 166.742 31.1732 166.742 30.8146C166.742 30.456 166.451 30.1653 166.092 30.1653H164.142V28.2172C164.142 27.8586 163.85 27.5679 163.491 27.5679C163.132 27.5679 162.841 27.8586 162.841 28.2172V30.1653H160.89C160.531 30.1653 160.24 30.456 160.24 30.8146C160.24 31.1732 160.531 31.464 160.89 31.464Z" fill="white"/>
<path d="M135.855 129.418H142.358L151.704 109.099L175.681 109.099" stroke="white" stroke-width="0.812766" stroke-linecap="round"/>
<path d="M60.2676 97.72H53.7654L44.4186 77.4009L20.442 77.4009" stroke="white" stroke-width="0.812766" stroke-linecap="round"/>
<path d="M98.3058 134.295L84.3262 175.746H178.932" stroke="white" stroke-width="0.812766" stroke-linecap="round"/>
<line x1="21.2542" y1="53.8308" x2="42.3861" y2="53.8308" stroke="#0FB56F" stroke-width="1.62553" stroke-linecap="round"/>
<line x1="21.2542" y1="153.801" x2="42.3861" y2="153.801" stroke="#0FB56F" stroke-width="1.62553" stroke-linecap="round"/>
<line x1="21.2542" y1="60.3323" x2="46.4499" y2="60.3323" stroke="#0FB56F" stroke-width="1.62553" stroke-linecap="round"/>
<line x1="21.2542" y1="160.303" x2="46.4499" y2="160.303" stroke="#0FB56F" stroke-width="1.62553" stroke-linecap="round"/>
<line x1="21.2542" y1="147.299" x2="46.4499" y2="147.299" stroke="#0FB56F" stroke-width="1.62553" stroke-linecap="round"/>
<line x1="21.2542" y1="140.797" x2="46.4499" y2="140.797" stroke="#0FB56F" stroke-width="1.62553" stroke-linecap="round"/>
<line x1="21.2542" y1="66.8347" x2="35.0712" y2="66.8347" stroke="#0FB56F" stroke-width="1.62553" stroke-linecap="round"/>
<line x1="21.2542" y1="166.805" x2="35.0712" y2="166.805" stroke="#0FB56F" stroke-width="1.62553" stroke-linecap="round"/>
<line x1="167.553" y1="91.7925" x2="159.187" y2="100.158" stroke="white" stroke-width="0.812766" stroke-linecap="round" stroke-dasharray="0.81 1.63"/>
<circle cx="163.084" cy="95.6878" r="6.50213" stroke="#0FB56F" stroke-width="0.812766"/>
<path d="M67.582 134.295L52.1395 175.746H20.4416" stroke="white" stroke-width="0.812766" stroke-linecap="round"/>
<path d="M24.7978 32.8504C23.6708 32.8504 22.7995 32.4603 22.184 31.68C21.5684 30.8911 21.2607 29.725 21.2607 28.1819C21.2607 26.6474 21.5684 25.477 22.184 24.6707C22.7995 23.8644 23.6708 23.4613 24.7978 23.4613C25.5261 23.4613 26.1373 23.6347 26.6314 23.9815C27.1343 24.3283 27.5244 24.8008 27.8018 25.3989L27.1646 25.7761C26.9652 25.2819 26.6618 24.8918 26.2543 24.6057C25.8555 24.3109 25.37 24.1635 24.7978 24.1635C23.9482 24.1635 23.285 24.467 22.8082 25.0738C22.3314 25.6807 22.0929 26.5477 22.0929 27.6747V28.702C22.0929 29.8204 22.3314 30.6743 22.8082 31.2639C23.285 31.8534 23.9482 32.1482 24.7978 32.1482C25.4047 32.1482 25.9119 31.9964 26.3193 31.693C26.7268 31.3809 27.0302 30.9648 27.2296 30.4446L27.8668 30.8217C27.5981 31.4459 27.2036 31.9401 26.6835 32.3042C26.1633 32.6683 25.5347 32.8504 24.7978 32.8504ZM32.0436 32.8504C31.6015 32.8504 31.2027 32.7724 30.8473 32.6163C30.4918 32.4603 30.1884 32.2349 29.937 31.9401C29.6855 31.6367 29.4905 31.2682 29.3518 30.8347C29.213 30.4013 29.1437 29.9114 29.1437 29.3652C29.1437 28.8191 29.213 28.3336 29.3518 27.9088C29.4905 27.4753 29.6855 27.1112 29.937 26.8164C30.1884 26.513 30.4918 26.2832 30.8473 26.1272C31.2027 25.9625 31.6015 25.8801 32.0436 25.8801C32.4858 25.8801 32.8846 25.9625 33.24 26.1272C33.5955 26.2832 33.8989 26.513 34.1503 26.8164C34.4017 27.1112 34.5968 27.4753 34.7355 27.9088C34.8742 28.3336 34.9436 28.8191 34.9436 29.3652C34.9436 29.9114 34.8742 30.4013 34.7355 30.8347C34.5968 31.2682 34.4017 31.6367 34.1503 31.9401C33.8989 32.2349 33.5955 32.4603 33.24 32.6163C32.8846 32.7724 32.4858 32.8504 32.0436 32.8504ZM32.0436 32.1872C32.6939 32.1872 33.2054 31.9834 33.5781 31.576C33.9596 31.1685 34.1503 30.5703 34.1503 29.7814V28.9491C34.1503 28.1689 33.9596 27.575 33.5781 27.1675C33.2054 26.7514 32.6939 26.5433 32.0436 26.5433C31.3934 26.5433 30.8776 26.7471 30.4961 27.1545C30.1233 27.562 29.937 28.1602 29.937 28.9491V29.7814C29.937 30.5616 30.1233 31.1598 30.4961 31.576C30.8776 31.9834 31.3934 32.1872 32.0436 32.1872ZM36.8267 32.6943V26.0362H37.5679V27.0895H37.6069C37.6763 26.9248 37.763 26.7731 37.867 26.6344C37.971 26.487 38.0968 26.3569 38.2441 26.2442C38.3915 26.1315 38.5649 26.0448 38.7643 25.9841C38.9724 25.9148 39.2151 25.8801 39.4925 25.8801C39.9694 25.8801 40.3898 25.9928 40.754 26.2182C41.1181 26.4436 41.3825 26.7991 41.5472 27.2846H41.5862C41.7076 26.8944 41.9373 26.565 42.2755 26.2962C42.6222 26.0188 43.0904 25.8801 43.6799 25.8801C44.3908 25.8801 44.937 26.1012 45.3185 26.5433C45.6999 26.9768 45.8906 27.601 45.8906 28.4159V32.6943H45.1494V28.546C45.1494 27.2109 44.5902 26.5433 43.4718 26.5433C43.2378 26.5433 43.0167 26.5737 42.8086 26.6344C42.6006 26.695 42.4142 26.7904 42.2494 26.9204C42.0934 27.0418 41.9677 27.1979 41.8723 27.3886C41.777 27.5707 41.7293 27.7831 41.7293 28.0258V32.6943H40.988V28.546C40.988 27.2109 40.4332 26.5433 39.3235 26.5433C39.0981 26.5433 38.877 26.5737 38.6603 26.6344C38.4522 26.695 38.2658 26.7861 38.1011 26.9074C37.9364 27.0288 37.8063 27.1849 37.711 27.3756C37.6156 27.5577 37.5679 27.7701 37.5679 28.0128V32.6943H36.8267ZM48.2181 26.0362H48.9593V27.1025H48.9984C49.1631 26.7297 49.4145 26.435 49.7526 26.2182C50.0907 25.9928 50.5155 25.8801 51.027 25.8801C51.8853 25.8801 52.5572 26.1835 53.0427 26.7904C53.5282 27.3973 53.7709 28.2555 53.7709 29.3652C53.7709 30.4749 53.5282 31.3332 53.0427 31.9401C52.5572 32.547 51.8853 32.8504 51.027 32.8504C50.5155 32.8504 50.095 32.742 49.7656 32.5253C49.4362 32.2999 49.1804 32.0008 48.9984 31.628H48.9593V35.2952H48.2181V26.0362ZM50.858 32.1872C51.5255 32.1872 52.0457 31.9748 52.4185 31.55C52.7913 31.1252 52.9777 30.553 52.9777 29.8334V28.8971C52.9777 28.1775 52.7913 27.6053 52.4185 27.1805C52.0457 26.7557 51.5255 26.5433 50.858 26.5433C50.5979 26.5433 50.3508 26.5823 50.1167 26.6604C49.8913 26.7297 49.6919 26.8294 49.5185 26.9595C49.3451 27.0895 49.2064 27.2456 49.1024 27.4276C49.007 27.6097 48.9593 27.8091 48.9593 28.0258V30.6657C48.9593 30.8997 49.007 31.1122 49.1024 31.3029C49.2064 31.4849 49.3451 31.6453 49.5185 31.784C49.6919 31.9141 49.8913 32.0138 50.1167 32.0831C50.3508 32.1525 50.5979 32.1872 50.858 32.1872ZM56.5047 32.6943C56.2359 32.6943 56.0322 32.6206 55.8935 32.4733C55.7547 32.3259 55.6854 32.1308 55.6854 31.8881V23.0712H56.4266V32.0441H57.454V32.6943H56.5047ZM61.494 32.8504C61.0519 32.8504 60.6487 32.7724 60.2846 32.6163C59.9292 32.4603 59.6214 32.2349 59.3613 31.9401C59.1099 31.6367 58.9148 31.2682 58.7761 30.8347C58.6461 30.4013 58.5811 29.9114 58.5811 29.3652C58.5811 28.8191 58.6461 28.3336 58.7761 27.9088C58.9148 27.4753 59.1099 27.1112 59.3613 26.8164C59.6214 26.513 59.9292 26.2832 60.2846 26.1272C60.6401 25.9625 61.0389 25.8801 61.481 25.8801C61.9058 25.8801 62.2916 25.9625 62.6384 26.1272C62.9852 26.2832 63.2799 26.5043 63.5227 26.7904C63.7654 27.0765 63.9518 27.4233 64.0819 27.8307C64.2206 28.2295 64.2899 28.6717 64.2899 29.1572V29.5083H59.3613V29.8334C59.3613 30.1802 59.409 30.501 59.5044 30.7957C59.6084 31.0818 59.7515 31.3289 59.9335 31.537C60.1242 31.745 60.354 31.9097 60.6227 32.0311C60.8915 32.1438 61.1949 32.2002 61.533 32.2002C62.504 32.2002 63.1759 31.7537 63.5487 30.8607L64.0949 31.2249C63.8868 31.719 63.5574 32.1135 63.1065 32.4082C62.6644 32.703 62.1269 32.8504 61.494 32.8504ZM61.481 26.5043C61.1602 26.5043 60.8698 26.565 60.6097 26.6864C60.3496 26.7991 60.1242 26.9595 59.9335 27.1675C59.7515 27.3756 59.6084 27.627 59.5044 27.9218C59.409 28.2079 59.3613 28.5243 59.3613 28.8711V28.9361H63.4837V28.8321C63.4837 28.4853 63.436 28.1689 63.3406 27.8828C63.2453 27.588 63.1065 27.3409 62.9245 27.1415C62.7511 26.9421 62.5387 26.7861 62.2873 26.6734C62.0445 26.5607 61.7758 26.5043 61.481 26.5043ZM65.1642 32.6943L67.635 29.3392L65.2552 26.0362H66.1265L68.0251 28.754H68.0641L70.0018 26.0362H70.834L68.4672 29.2872L70.899 32.6943H70.0278L68.0641 29.8854H68.0381L65.9964 32.6943H65.1642ZM77.4076 32.8504C76.8267 32.8504 76.3282 32.742 75.9121 32.5253C75.5046 32.3085 75.1492 31.9921 74.8457 31.576L75.3919 31.1468C75.6693 31.5109 75.9728 31.7797 76.3022 31.9531C76.6317 32.1265 77.0174 32.2132 77.4596 32.2132C77.9711 32.2132 78.3656 32.1048 78.643 31.8881C78.9204 31.6713 79.0591 31.3592 79.0591 30.9518C79.0591 30.5963 78.9507 30.3189 78.734 30.1195C78.5259 29.9114 78.1792 29.7727 77.6937 29.7034L77.1475 29.6123C76.8441 29.569 76.5666 29.504 76.3152 29.4173C76.0638 29.3306 75.8471 29.2135 75.665 29.0661C75.4916 28.9188 75.3529 28.741 75.2489 28.533C75.1535 28.3162 75.1058 28.0562 75.1058 27.7527C75.1058 27.4406 75.1622 27.1675 75.2749 26.9334C75.3962 26.6994 75.5566 26.5043 75.756 26.3483C75.9554 26.1922 76.1938 26.0752 76.4713 25.9971C76.7487 25.9191 77.0478 25.8801 77.3686 25.8801C77.9234 25.8801 78.3786 25.9755 78.734 26.1662C79.0895 26.3569 79.3929 26.604 79.6443 26.9074L79.1501 27.3626C78.9768 27.1545 78.7427 26.9638 78.4479 26.7904C78.1618 26.6083 77.789 26.5173 77.3295 26.5173C76.8527 26.5173 76.4799 26.6213 76.2112 26.8294C75.9511 27.0375 75.8211 27.3322 75.8211 27.7137C75.8211 28.1038 75.9381 28.3856 76.1722 28.559C76.4149 28.7324 76.7747 28.8581 77.2515 28.9361L77.7847 29.0141C78.4609 29.1182 78.9594 29.3219 79.2802 29.6253C79.6096 29.9201 79.7743 30.3362 79.7743 30.8737C79.7743 31.4979 79.5619 31.9834 79.1371 32.3302C78.721 32.677 78.1445 32.8504 77.4076 32.8504ZM82.0834 24.2286C81.91 24.2286 81.78 24.1852 81.6933 24.0985C81.6153 24.0118 81.5763 23.8991 81.5763 23.7604V23.6304C81.5763 23.4917 81.6153 23.379 81.6933 23.2923C81.78 23.2056 81.91 23.1622 82.0834 23.1622C82.2568 23.1622 82.3825 23.2056 82.4605 23.2923C82.5472 23.379 82.5906 23.4917 82.5906 23.6304V23.7604C82.5906 23.8991 82.5472 24.0118 82.4605 24.0985C82.3825 24.1852 82.2568 24.2286 82.0834 24.2286ZM81.7193 26.0362H82.4605V32.6943H81.7193V26.0362ZM86.0258 32.6943C85.7571 32.6943 85.5534 32.6206 85.4146 32.4733C85.2759 32.3259 85.2066 32.1265 85.2066 31.8751V26.6864H84.0492V26.0362H84.8034C84.9855 26.0362 85.1069 26.0015 85.1676 25.9321C85.2369 25.8541 85.2716 25.7197 85.2716 25.529V24.1765H85.9478V26.0362H87.4563V26.6864H85.9478V32.0441H87.3523V32.6943H86.0258ZM91.5664 32.8504C91.1242 32.8504 90.7211 32.7724 90.357 32.6163C90.0015 32.4603 89.6938 32.2349 89.4337 31.9401C89.1823 31.6367 88.9872 31.2682 88.8485 30.8347C88.7184 30.4013 88.6534 29.9114 88.6534 29.3652C88.6534 28.8191 88.7184 28.3336 88.8485 27.9088C88.9872 27.4753 89.1823 27.1112 89.4337 26.8164C89.6938 26.513 90.0015 26.2832 90.357 26.1272C90.7124 25.9625 91.1112 25.8801 91.5534 25.8801C91.9782 25.8801 92.364 25.9625 92.7107 26.1272C93.0575 26.2832 93.3523 26.5043 93.595 26.7904C93.8378 27.0765 94.0242 27.4233 94.1542 27.8307C94.2929 28.2295 94.3623 28.6717 94.3623 29.1572V29.5083H89.4337V29.8334C89.4337 30.1802 89.4814 30.501 89.5767 30.7957C89.6808 31.0818 89.8238 31.3289 90.0059 31.537C90.1966 31.745 90.4263 31.9097 90.6951 32.0311C90.9638 32.1438 91.2673 32.2002 91.6054 32.2002C92.5764 32.2002 93.2483 31.7537 93.621 30.8607L94.1672 31.2249C93.9592 31.719 93.6297 32.1135 93.1789 32.4082C92.7368 32.703 92.1992 32.8504 91.5664 32.8504ZM91.5534 26.5043C91.2326 26.5043 90.9422 26.565 90.6821 26.6864C90.422 26.7991 90.1966 26.9595 90.0059 27.1675C89.8238 27.3756 89.6808 27.627 89.5767 27.9218C89.4814 28.2079 89.4337 28.5243 89.4337 28.8711V28.9361H93.556V28.8321C93.556 28.4853 93.5083 28.1689 93.413 27.8828C93.3176 27.588 93.1789 27.3409 92.9968 27.1415C92.8234 26.9421 92.611 26.7861 92.3596 26.6734C92.1169 26.5607 91.8481 26.5043 91.5534 26.5043ZM98.1331 32.8504C97.5523 32.8504 97.0538 32.742 96.6376 32.5253C96.2302 32.3085 95.8747 31.9921 95.5713 31.576L96.1175 31.1468C96.3949 31.5109 96.6983 31.7797 97.0278 31.9531C97.3572 32.1265 97.743 32.2132 98.1851 32.2132C98.6966 32.2132 99.0911 32.1048 99.3685 31.8881C99.6459 31.6713 99.7847 31.3592 99.7847 30.9518C99.7847 30.5963 99.6763 30.3189 99.4595 30.1195C99.2515 29.9114 98.9047 29.7727 98.4192 29.7034L97.873 29.6123C97.5696 29.569 97.2922 29.504 97.0408 29.4173C96.7893 29.3306 96.5726 29.2135 96.3905 29.0661C96.2172 28.9188 96.0784 28.741 95.9744 28.533C95.879 28.3162 95.8314 28.0562 95.8314 27.7527C95.8314 27.4406 95.8877 27.1675 96.0004 26.9334C96.1218 26.6994 96.2822 26.5043 96.4816 26.3483C96.681 26.1922 96.9194 26.0752 97.1968 25.9971C97.4742 25.9191 97.7733 25.8801 98.0941 25.8801C98.649 25.8801 99.1041 25.9755 99.4595 26.1662C99.815 26.3569 100.118 26.604 100.37 26.9074L99.8757 27.3626C99.7023 27.1545 99.4682 26.9638 99.1735 26.7904C98.8874 26.6083 98.5146 26.5173 98.0551 26.5173C97.5783 26.5173 97.2055 26.6213 96.9367 26.8294C96.6766 27.0375 96.5466 27.3322 96.5466 27.7137C96.5466 28.1038 96.6636 28.3856 96.8977 28.559C97.1405 28.7324 97.5002 28.8581 97.9771 28.9361L98.5102 29.0141C99.1865 29.1182 99.685 29.3219 100.006 29.6253C100.335 29.9201 100.5 30.3362 100.5 30.8737C100.5 31.4979 100.287 31.9834 99.8627 32.3302C99.4465 32.677 98.87 32.8504 98.1331 32.8504Z" fill="#0FB56F"/>
<path d="M59.4531 131.493V122.212C60.4891 118.932 63.1717 118.948 65.9317 119.151V102.245C65.4941 102.245 65.0931 102.258 64.6942 102.245C62.4553 102.16 60.8453 100.619 60.7781 98.4017C60.7252 96.6292 60.7252 94.8554 60.7781 93.0802C60.8433 90.8565 62.4451 89.3178 64.6881 89.2344C65.0951 89.2202 65.488 89.2344 65.9765 89.2344V88.4214C65.9765 83.8073 65.9765 79.1945 65.9765 74.5831C65.9765 73.8798 66.18 72.9224 65.8157 72.5504C65.4513 72.1784 64.4845 72.3634 63.7803 72.3797C62.5835 72.4041 61.462 72.1642 60.6601 71.2536C60.1574 70.6824 59.8459 69.9405 59.4572 69.2758V59.9825C59.9253 58.3198 60.9925 57.2547 62.6588 56.7872H71.9706C72.0754 56.848 72.1842 56.9017 72.2963 56.9478C74.0487 57.5576 75.0196 58.8646 75.0704 60.7163C75.1061 61.2978 75.1061 61.8809 75.0704 62.4624C75.0012 63.1555 75.274 63.3039 75.9314 63.2998C81.028 63.2754 86.1448 63.2917 91.2556 63.2917C91.4795 63.2917 91.7014 63.2693 92.0006 63.2531C92.0006 62.9095 92.0006 62.6107 92.0006 62.314C92.0148 59.7345 93.6044 58.1186 96.169 58.0962C97.7973 58.082 99.4256 58.0718 101.054 58.0962C103.407 58.143 105 59.7447 105.066 62.0863C105.066 62.4583 105.066 62.8303 105.066 63.2429H122.004C122.004 62.2916 121.99 61.3871 122.004 60.4826C122.003 59.9468 122.127 59.4181 122.365 58.9384C122.604 58.4586 122.952 58.0409 123.38 57.7181C123.887 57.3279 124.518 57.0921 125.091 56.7852H134.403C136.074 57.2506 137.135 58.3218 137.609 59.9805V69.2636C136.573 72.5443 133.888 72.526 131.13 72.3268V89.2304C131.566 89.2304 131.965 89.2182 132.364 89.2304C134.603 89.3117 136.213 90.8565 136.282 93.0701C136.339 94.8425 136.339 96.6164 136.282 98.3916C136.217 100.615 134.613 102.156 132.372 102.241C131.965 102.256 131.57 102.241 131.126 102.241V119.112H133.664C134.886 119.112 135.924 119.543 136.667 120.499C137.061 121.005 137.298 121.633 137.605 122.204V131.485C137.513 131.719 137.428 131.957 137.33 132.188C136.673 133.739 135.498 134.628 133.813 134.662C131.12 134.719 128.423 134.709 125.731 134.662C124.767 134.642 123.846 134.257 123.155 133.586C122.464 132.914 122.053 132.006 122.006 131.044C121.961 130.387 121.957 129.728 121.994 129.07C122.038 128.408 121.867 128.154 121.127 128.16C116.016 128.194 110.907 128.176 105.796 128.176C105.574 128.176 105.353 128.2 105.057 128.217C105.057 128.562 105.057 128.861 105.057 129.16C105.047 131.727 103.445 133.353 100.887 133.374C99.3102 133.388 97.7342 133.388 96.1588 133.374C93.6248 133.345 92.025 131.747 91.9965 129.227C91.9965 128.904 91.9965 128.583 91.9965 128.223H75.0745C75.0745 129.036 75.0745 129.82 75.0745 130.599C75.0379 133.081 73.434 134.664 70.9468 134.678C68.4596 134.693 66.0151 134.678 63.5483 134.678C63.219 134.682 62.8902 134.651 62.5672 134.587C60.8636 134.231 59.9416 133.075 59.4531 131.493ZM91.9314 65.9484H75.1254C75.1051 66.1008 75.0888 66.1984 75.0806 66.298C74.9748 67.5176 74.8567 68.7514 74.7835 69.9811C74.7835 70.16 74.9524 70.3877 75.0989 70.53C75.9518 71.3999 76.8555 72.2232 77.6757 73.1236C78.2476 73.7538 78.7911 74.1725 79.6724 73.7334C79.8759 73.6298 80.1731 73.6765 80.4275 73.6765C82.0802 73.6765 83.7329 73.6765 85.3857 73.6765C87.7263 73.6928 89.3709 75.3026 89.4035 77.6361C89.4218 79.059 89.432 80.4818 89.3912 81.9047C89.3689 82.6568 89.2081 83.4028 89.1572 84.1548C89.1562 84.3858 89.2411 84.6088 89.3953 84.7809C90.2603 85.6773 91.1681 86.529 92.027 87.4234C92.5684 87.9905 93.0447 88.521 93.9464 88.0331C94.2293 87.8827 94.6466 87.9701 95.0027 87.9681C95.709 87.9681 96.4153 87.9681 97.1663 87.9681V71.1499C92.8758 70.6418 92.5522 70.3186 91.9314 65.9484ZM99.8896 71.0727V87.9031C100.055 87.9254 100.177 87.9478 100.297 87.9579C101.504 88.0575 102.711 88.1714 103.918 88.2405C104.134 88.217 104.334 88.1159 104.481 87.9559C105.32 87.1428 106.126 86.2952 106.975 85.4923C107.608 84.8947 108.277 84.35 107.712 83.3418C107.622 83.1832 107.667 82.9353 107.665 82.7422C107.665 81.0164 107.644 79.2866 107.665 77.569C107.695 75.3331 109.346 73.707 111.587 73.6745C113.012 73.6582 114.436 73.6501 115.861 73.6745C116.567 73.6907 117.27 73.8249 117.976 73.8513C118.257 73.8513 118.627 73.8168 118.814 73.6481C119.692 72.835 120.498 71.9569 121.371 71.1438C121.981 70.5747 122.519 70.0564 122.057 69.1112C121.914 68.8185 121.99 68.4119 121.986 68.0583C121.986 67.355 121.986 66.6537 121.986 65.9301H105.045C105.114 67.4098 105.007 68.8063 103.903 69.9141C102.8 71.0219 101.41 71.152 99.8896 71.0727ZM128.436 72.3919L127.98 72.3594C126.797 72.2618 125.617 72.1561 124.432 72.0849C124.199 72.1105 123.982 72.2186 123.821 72.3898C122.96 73.2192 122.15 74.0973 121.269 74.9022C120.636 75.4815 120.135 76.0263 120.618 76.9471C120.713 77.132 120.673 77.3963 120.673 77.6219C120.673 79.3212 120.689 81.0205 120.673 82.7178C120.648 84.9537 119.018 86.592 116.765 86.6306C115.367 86.655 113.966 86.6672 112.568 86.6306C111.764 86.6083 110.966 86.4456 110.16 86.3928C109.927 86.3959 109.703 86.4849 109.531 86.6428C108.597 87.5412 107.716 88.4925 106.761 89.3666C106.205 89.8747 105.892 90.326 106.252 91.1106C106.419 91.4744 106.334 91.9582 106.34 92.3891C106.34 93.0416 106.34 93.6941 106.34 94.3791H123.288C123.199 92.8729 123.331 91.4846 124.442 90.3788C125.554 89.2731 126.964 89.1979 128.44 89.2263L128.436 72.3919ZM90.6695 94.3913C90.6918 94.188 90.7122 94.0092 90.7264 93.8364C90.8241 92.6839 90.93 91.5334 91.0012 90.3809C90.9805 90.1664 90.882 89.9669 90.7244 89.8199C89.839 88.9092 88.9129 88.0372 88.0459 87.1124C87.533 86.5656 87.0628 86.1184 86.2527 86.5656C86.0695 86.6672 85.8029 86.6326 85.5749 86.6326C83.796 86.6326 82.0151 86.6672 80.2362 86.6326C78.0441 86.592 76.4219 84.9273 76.3955 82.73C76.3792 81.2847 76.371 79.8395 76.3955 78.3963C76.4077 77.7174 76.54 77.0426 76.5644 76.3637C76.5644 76.0811 76.5379 75.7112 76.3609 75.5262C75.4775 74.581 74.529 73.6968 73.6355 72.7598C73.1552 72.2516 72.7501 71.8634 71.9625 72.2537C71.5859 72.4407 71.0649 72.3472 70.6069 72.3553C69.9536 72.3695 69.3002 72.3553 68.6143 72.3553V89.2263C70.0899 89.1613 71.4923 89.2629 72.6077 90.3544C73.723 91.446 73.8431 92.8953 73.8004 94.3791L90.6695 94.3913ZM68.6448 102.319V119.037C68.71 119.067 68.7782 119.091 68.8484 119.106C70.1306 119.216 71.4129 119.338 72.6972 119.415C72.8763 119.427 73.1043 119.247 73.2468 119.1C74.1199 118.251 74.9504 117.354 75.852 116.535C76.4789 115.966 76.9226 115.425 76.4626 114.547C76.4017 114.353 76.383 114.149 76.4077 113.947C76.4077 112.197 76.3894 110.447 76.4077 108.699C76.4023 107.685 76.8 106.71 77.5135 105.988C78.2271 105.266 79.1982 104.857 80.2138 104.849C81.2824 104.823 82.353 104.803 83.4195 104.849C84.602 104.902 85.7826 105.038 86.9651 105.12C87.1319 105.126 87.2949 105.068 87.421 104.959C88.5649 103.838 89.6979 102.708 90.8201 101.569C90.9413 101.424 91.0031 101.239 90.9931 101.05C90.9198 99.9973 90.818 98.9444 90.7285 97.8915C90.7061 97.6273 90.7041 97.361 90.6918 97.0968H73.8594C73.3363 101.398 73.0127 101.719 68.6448 102.319ZM128.432 119.119V102.233C126.94 102.313 125.543 102.191 124.432 101.093C123.321 99.9953 123.195 98.5521 123.268 97.0947H106.336C106.336 97.6212 106.358 98.0989 106.336 98.5725C106.293 99.3266 106.193 100.079 106.167 100.835C106.157 101.113 106.195 101.483 106.37 101.668C107.199 102.561 108.112 103.374 108.933 104.274C109.497 104.884 110.022 105.372 110.911 104.896C111.108 104.834 111.317 104.817 111.522 104.845C113.276 104.845 115.031 104.817 116.785 104.845C119.024 104.878 120.652 106.528 120.681 108.77C120.697 110.468 120.697 112.167 120.681 113.866C120.694 114.271 120.631 114.674 120.494 115.055C120.302 115.502 120.459 115.75 120.758 116.039C121.633 116.889 122.513 117.732 123.341 118.627C123.87 119.198 124.336 119.629 125.199 119.208C125.556 119.033 126.05 119.131 126.482 119.123C127.098 119.11 127.731 119.119 128.432 119.119ZM97.1745 120.409V103.573C97.0096 103.55 96.8875 103.53 96.7674 103.52C95.5604 103.418 94.3535 103.317 93.1465 103.235C92.9306 103.26 92.731 103.362 92.5847 103.522C91.7441 104.335 90.9361 105.179 90.0914 105.986C89.4666 106.583 88.7806 107.124 89.3526 108.134C89.4442 108.293 89.3974 108.541 89.3994 108.744C89.3994 110.468 89.4218 112.199 89.3994 113.915C89.3668 116.151 87.7223 117.777 85.4752 117.809C84.0749 117.826 82.6766 117.836 81.2783 117.809C80.5456 117.793 79.8169 117.659 79.0862 117.633C78.8053 117.633 78.4369 117.669 78.2497 117.836C77.3724 118.649 76.5664 119.529 75.6912 120.34C75.0806 120.911 74.5494 121.432 75.0074 122.373C75.1498 122.666 75.0745 123.072 75.0786 123.426C75.0786 124.127 75.0786 124.83 75.0786 125.548H91.9965C91.9701 124.076 92.0413 122.67 93.1546 121.564C94.268 120.458 95.652 120.316 97.1745 120.409ZM121.99 125.538C121.99 125.117 121.971 124.741 121.99 124.369C122.005 123.537 122.073 122.706 122.193 121.883C122.273 121.46 122.264 121.202 121.945 120.899C121.045 120.041 120.156 119.167 119.299 118.257C118.782 117.708 118.297 117.293 117.489 117.716C117.261 117.834 116.942 117.797 116.663 117.797C114.986 117.797 113.307 117.809 111.628 117.797C109.342 117.775 107.689 116.145 107.661 113.866C107.638 112.167 107.646 110.47 107.661 108.77C107.661 108.345 107.823 107.925 107.832 107.5C107.832 107.219 107.793 106.856 107.628 106.673C106.724 105.711 105.749 104.817 104.842 103.857C104.39 103.378 104.017 103.144 103.285 103.38C102.611 103.599 101.829 103.487 101.093 103.51C100.696 103.524 100.299 103.51 99.8835 103.51V120.381C101.369 120.326 102.768 120.426 103.885 121.523C105.002 122.621 105.092 124.072 105.078 125.532L121.99 125.538ZM98.5321 90.5536C97.2864 90.5536 96.0387 90.5435 94.7931 90.5536C93.8141 90.5638 93.3378 91.0293 93.3337 92.0009C93.3229 94.4875 93.3229 96.9728 93.3337 99.4567C93.3337 100.434 93.8121 100.904 94.789 100.91C97.283 100.924 99.7763 100.924 102.269 100.91C103.246 100.91 103.724 100.432 103.728 99.4607C103.739 96.9768 103.739 94.4922 103.728 92.007C103.728 91.0293 103.25 90.5638 102.273 90.5516C101.025 90.5435 99.7777 90.5557 98.5321 90.5536ZM72.4611 64.6048C72.4611 63.3649 72.4733 62.1249 72.4611 60.885C72.4489 59.8687 71.9828 59.387 70.9712 59.3829C68.5084 59.3734 66.045 59.3734 63.5808 59.3829C62.5367 59.3829 62.0584 59.8768 62.0543 60.9379C62.0462 63.3662 62.0462 65.7959 62.0543 68.227C62.0543 69.286 62.5245 69.7494 63.5951 69.7535C66.0579 69.7643 68.5213 69.7643 70.9855 69.7535C72.0174 69.7535 72.4469 69.3043 72.455 68.2554C72.4794 67.0358 72.4611 65.8203 72.4611 64.6048ZM135.008 64.5926C135.008 63.3994 135.008 62.2083 135.008 61.0171C135.008 59.8565 134.542 59.391 133.398 59.391C130.981 59.3815 128.565 59.3815 126.15 59.391C125.075 59.391 124.609 59.8504 124.603 60.9155C124.593 63.3547 124.593 65.7885 124.603 68.2168C124.603 69.3124 125.037 69.7515 126.121 69.7576C128.588 69.7711 131.055 69.7711 133.522 69.7576C134.54 69.7576 134.998 69.2697 135.008 68.2473C135.02 67.0257 135.01 65.8081 135.008 64.5926ZM67.2974 121.72C66.0253 121.72 64.7532 121.706 63.4811 121.72C62.553 121.735 62.0564 122.212 62.0564 123.143C62.0401 125.627 62.0401 128.112 62.0564 130.597C62.0564 131.601 62.555 132.089 63.5707 132.093C66.0375 132.107 68.5051 132.107 70.9733 132.093C71.9909 132.093 72.455 131.609 72.4591 130.585C72.4713 128.128 72.4713 125.669 72.4591 123.208C72.4591 122.17 72.0072 121.739 70.9611 121.724C69.7398 121.708 68.5186 121.72 67.2974 121.72ZM124.603 126.873C124.603 128.093 124.603 129.312 124.603 130.52C124.603 131.632 125.065 132.091 126.172 132.095C128.583 132.103 130.996 132.103 133.41 132.095C134.519 132.095 135.006 131.619 135.01 130.534C135.018 128.103 135.018 125.672 135.01 123.243C135.01 122.192 134.531 121.726 133.463 121.722C131 121.713 128.537 121.713 126.073 121.722C125.055 121.722 124.613 122.18 124.607 123.224C124.595 124.444 124.603 125.66 124.603 126.873ZM98.5321 60.694C97.7179 60.694 96.9038 60.6797 96.0896 60.694C95.1025 60.7143 94.6282 61.1594 94.6119 62.1371C94.5875 63.7633 94.5875 65.384 94.6119 66.9992C94.6262 67.9668 95.1208 68.4607 96.0754 68.4729C97.7037 68.4932 99.332 68.4932 100.96 68.4729C101.888 68.4607 102.413 67.9891 102.432 67.0866C102.466 65.4158 102.466 63.7443 102.432 62.0721C102.416 61.1452 101.927 60.7122 100.974 60.6919C100.16 60.6797 99.3462 60.694 98.5321 60.694ZM63.3732 95.7654C63.3732 96.5784 63.3569 97.3915 63.3732 98.2045C63.3956 99.1436 63.8393 99.6274 64.7797 99.6396C66.4297 99.6694 68.081 99.6694 69.7337 99.6396C70.6619 99.6233 71.1585 99.1294 71.1748 98.2167C71.1992 96.5703 71.1992 94.9245 71.1748 93.2794C71.1626 92.3647 70.672 91.8566 69.75 91.8444C68.1 91.8159 66.4487 91.8159 64.7959 91.8444C63.821 91.8606 63.3875 92.3383 63.3712 93.3363C63.359 94.1433 63.3732 94.9543 63.3732 95.7654ZM133.691 95.7796C133.691 94.9421 133.707 94.1067 133.691 93.2713C133.666 92.3363 133.217 91.8484 132.266 91.8484C130.616 91.8227 128.965 91.8227 127.312 91.8484C126.384 91.8627 125.887 92.3586 125.877 93.2713C125.854 94.9164 125.854 96.5622 125.877 98.2086C125.889 99.0928 126.362 99.6132 127.229 99.6315C128.93 99.6681 130.632 99.6681 132.335 99.6315C133.221 99.6132 133.656 99.1172 133.681 98.2086C133.707 97.3996 133.691 96.5886 133.691 95.7796ZM98.5158 130.776C99.3543 130.776 100.193 130.794 101.031 130.776C101.929 130.751 102.418 130.308 102.434 129.418C102.469 127.723 102.469 126.029 102.434 124.336C102.416 123.505 101.905 123.025 101.066 123.011C99.3889 122.985 97.7118 122.985 96.0347 123.011C95.1574 123.023 94.6486 123.509 94.6323 124.383C94.5997 126.054 94.5997 127.725 94.6323 129.398C94.6486 130.329 95.133 130.766 96.0815 130.788C96.8895 130.798 97.7016 130.776 98.5158 130.776ZM82.9615 76.2641C82.123 76.2641 81.2844 76.2519 80.4458 76.2641C79.5197 76.2803 79.0089 76.7621 78.9987 77.6605C78.9811 79.3286 78.979 81.0015 78.9926 82.6791C78.9926 83.541 79.5075 84.0268 80.3888 84.0349C82.066 84.0512 83.7438 84.0512 85.4223 84.0349C86.3016 84.0248 86.7738 83.541 86.7819 82.6507C86.7996 80.9785 86.7996 79.3063 86.7819 77.6341C86.7717 76.7661 86.2751 76.2885 85.3938 76.2681C84.5878 76.2478 83.7737 76.2641 82.9615 76.2641ZM114.174 76.2641C113.36 76.2641 112.546 76.2641 111.731 76.2641C110.756 76.2803 110.276 76.7458 110.268 77.7093C110.254 79.3354 110.254 80.9554 110.268 82.5694C110.268 83.5593 110.732 84.0207 111.709 84.0309C113.36 84.0471 115.011 84.0471 116.661 84.0309C117.573 84.0207 118.053 83.5268 118.061 82.5978C118.076 80.9717 118.076 79.351 118.061 77.7357C118.061 76.7682 117.569 76.2864 116.61 76.2641C115.8 76.2499 114.988 76.2641 114.174 76.262V76.2641ZM82.8292 115.212C83.6943 115.212 84.5573 115.23 85.4203 115.212C86.2833 115.193 86.784 114.702 86.7921 113.828C86.8084 112.157 86.8084 110.486 86.7921 108.815C86.7799 107.929 86.3097 107.459 85.4162 107.449C83.7391 107.429 82.0626 107.429 80.3868 107.449C79.5096 107.459 79.015 107.949 79.0048 108.821C78.9858 110.492 78.9858 112.163 79.0048 113.834C79.0048 114.7 79.5197 115.187 80.3909 115.212C81.201 115.226 82.0151 115.21 82.8272 115.21L82.8292 115.212ZM114.188 107.437C113.374 107.437 112.56 107.437 111.746 107.437C110.752 107.451 110.28 107.898 110.272 108.86C110.258 110.506 110.258 112.153 110.272 113.799C110.272 114.712 110.771 115.193 111.697 115.202C113.348 115.218 115 115.218 116.653 115.202C117.559 115.191 118.051 114.683 118.061 113.767C118.076 112.14 118.076 110.519 118.061 108.902C118.061 107.902 117.569 107.443 116.543 107.431C115.761 107.429 114.974 107.435 114.186 107.435L114.188 107.437Z" fill="#0FB56F"/>
<rect x="92.7793" y="59.2236" width="11.3787" height="11.3636" rx="3.25106" stroke="white" stroke-width="4.8766"/>
<rect x="92.7793" y="120.912" width="11.3787" height="11.3636" rx="3.25106" stroke="white" stroke-width="4.8766"/>
<rect x="92.7793" y="90.0679" width="11.3787" height="11.3636" rx="3.25106" stroke="white" stroke-width="4.8766"/>
<rect x="61.8945" y="90.0679" width="11.3787" height="11.3636" rx="3.25106" stroke="white" stroke-width="4.8766"/>
<rect x="123.664" y="90.0679" width="11.3787" height="11.3636" rx="3.25106" stroke="white" stroke-width="4.8766"/>
<path d="M154.932 166.399L162.675 152.988L170.418 166.399H154.932Z" stroke="#0FB56F" stroke-width="0.812766"/>
<path d="M162.677 157.052L165.492 161.928H159.861L162.677 157.052Z" fill="white"/>
<path d="M127.817 154.848L135.857 150.206L143.897 154.848V164.132L135.857 168.774L127.817 164.132V154.848Z" stroke="#0FB56F" stroke-width="0.812766"/>
<path d="M129.76 155.833L135.856 152.175L141.951 155.833L135.856 159.084L129.76 155.833Z" fill="white"/>
<mask id="path-97-inside-1_1610_16236" fill="white">
<path d="M109.034 167.618C107.587 167.618 106.173 167.189 104.97 166.385C103.767 165.581 102.829 164.439 102.276 163.102C101.722 161.765 101.577 160.295 101.859 158.876C102.142 157.457 102.838 156.153 103.861 155.13C104.884 154.107 106.188 153.411 107.607 153.128C109.026 152.846 110.496 152.991 111.833 153.545C113.17 154.098 114.312 155.036 115.116 156.239C115.92 157.442 116.349 158.856 116.349 160.303L109.034 160.303L109.034 167.618Z"/>
</mask>
<path d="M109.034 167.618C107.587 167.618 106.173 167.189 104.97 166.385C103.767 165.581 102.829 164.439 102.276 163.102C101.722 161.765 101.577 160.295 101.859 158.876C102.142 157.457 102.838 156.153 103.861 155.13C104.884 154.107 106.188 153.411 107.607 153.128C109.026 152.846 110.496 152.991 111.833 153.545C113.17 154.098 114.312 155.036 115.116 156.239C115.92 157.442 116.349 158.856 116.349 160.303L109.034 160.303L109.034 167.618Z" stroke="#0FB56F" stroke-width="1.62553" mask="url(#path-97-inside-1_1610_16236)"/>
<path d="M116.224 161.649C115.966 163.025 115.319 164.299 114.358 165.318C113.398 166.338 112.165 167.06 110.806 167.4L110.162 164.82C111.027 164.604 111.811 164.144 112.423 163.495C113.034 162.846 113.446 162.036 113.61 161.159L116.224 161.649Z" fill="white"/>
<defs>
<linearGradient id="paint0_linear_1610_16236" x1="195.999" y1="0.182111" x2="0.935547" y2="0.182111" gradientUnits="userSpaceOnUse">
<stop stop-color="white" stop-opacity="0.12"/>
<stop offset="0.499248" stop-color="white" stop-opacity="0.4"/>
<stop offset="1" stop-color="white" stop-opacity="0.12"/>
</linearGradient>
</defs>
</svg>
