<svg width="207" height="206" viewBox="0 0 207 206" fill="none" xmlns="http://www.w3.org/2000/svg">
<rect x="1.16146" y="0.734212" width="204.552" height="204.552" stroke="url(#paint0_linear_1608_11925)" stroke-width="0.760417"/>
<g opacity="0.2">
<mask id="mask0_1608_11925" style="mask-type:alpha" maskUnits="userSpaceOnUse" x="7" y="7" width="193" height="192">
<rect x="7.62305" y="7.19824" width="191.625" height="191.625" fill="white"/>
</mask>
<g mask="url(#mask0_1608_11925)">
<line x1="147.906" y1="-88.1593" x2="-88.7967" y2="148.544" stroke="#0FB56F" stroke-width="0.45625" stroke-linecap="round"/>
<line x1="267.678" y1="31.6117" x2="30.9747" y2="268.315" stroke="#0FB56F" stroke-width="0.45625" stroke-linecap="round"/>
<line x1="104.354" y1="-131.714" x2="-132.349" y2="104.989" stroke="#0FB56F" stroke-width="0.45625" stroke-linecap="round"/>
<line x1="224.125" y1="-11.9406" x2="-12.578" y2="224.762" stroke="#0FB56F" stroke-width="0.45625" stroke-linecap="round"/>
<line x1="213.236" y1="-22.8292" x2="-23.4667" y2="213.874" stroke="#0FB56F" stroke-width="0.45625" stroke-linecap="round"/>
<line x1="333.008" y1="96.9427" x2="96.3048" y2="333.646" stroke="#0FB56F" stroke-width="0.45625" stroke-linecap="round"/>
<line x1="133.387" y1="-102.677" x2="-103.316" y2="134.026" stroke="#0FB56F" stroke-width="0.45625" stroke-linecap="round"/>
<line x1="253.16" y1="17.0946" x2="16.4572" y2="253.798" stroke="#0FB56F" stroke-width="0.45625" stroke-linecap="round"/>
<line x1="176.941" y1="-59.1242" x2="-59.7616" y2="177.579" stroke="#0FB56F" stroke-width="0.45625" stroke-linecap="round"/>
<line x1="296.713" y1="60.6473" x2="60.0099" y2="297.35" stroke="#0FB56F" stroke-width="0.45625" stroke-linecap="round"/>
<line x1="118.871" y1="-117.195" x2="-117.832" y2="119.508" stroke="#0FB56F" stroke-width="0.45625" stroke-linecap="round"/>
<line x1="238.643" y1="2.57604" x2="1.93958" y2="239.279" stroke="#0FB56F" stroke-width="0.45625" stroke-linecap="round"/>
<line x1="198.719" y1="-37.3483" x2="-37.9842" y2="199.355" stroke="#0FB56F" stroke-width="0.45625" stroke-linecap="round"/>
<line x1="318.49" y1="82.4247" x2="81.7872" y2="319.128" stroke="#0FB56F" stroke-width="0.45625" stroke-linecap="round"/>
<line x1="151.537" y1="-84.5304" x2="-85.1659" y2="152.173" stroke="#0FB56F" stroke-width="0.45625" stroke-linecap="round"/>
<line x1="271.307" y1="35.2416" x2="34.6036" y2="271.945" stroke="#0FB56F" stroke-width="0.45625" stroke-linecap="round"/>
<line x1="162.422" y1="-73.6412" x2="-74.2811" y2="163.062" stroke="#0FB56F" stroke-width="0.45625" stroke-linecap="round"/>
<line x1="282.193" y1="46.1302" x2="45.4904" y2="282.833" stroke="#0FB56F" stroke-width="0.45625" stroke-linecap="round"/>
<line x1="220.494" y1="-15.5714" x2="-16.2089" y2="221.132" stroke="#0FB56F" stroke-width="0.45625" stroke-linecap="round"/>
<line x1="340.268" y1="104.2" x2="103.565" y2="340.903" stroke="#0FB56F" stroke-width="0.45625" stroke-linecap="round"/>
<line x1="191.461" y1="-44.6066" x2="-45.2421" y2="192.096" stroke="#0FB56F" stroke-width="0.45625" stroke-linecap="round"/>
<line x1="311.23" y1="75.1649" x2="74.5275" y2="311.868" stroke="#0FB56F" stroke-width="0.45625" stroke-linecap="round"/>
<line x1="140.646" y1="-95.4196" x2="-96.0565" y2="141.283" stroke="#0FB56F" stroke-width="0.45625" stroke-linecap="round"/>
<line x1="260.418" y1="24.3534" x2="23.715" y2="261.056" stroke="#0FB56F" stroke-width="0.45625" stroke-linecap="round"/>
<line x1="184.199" y1="-51.8644" x2="-52.5038" y2="184.839" stroke="#0FB56F" stroke-width="0.45625" stroke-linecap="round"/>
<line x1="303.973" y1="67.9066" x2="67.2697" y2="304.61" stroke="#0FB56F" stroke-width="0.45625" stroke-linecap="round"/>
<line x1="126.129" y1="-109.936" x2="-110.574" y2="126.767" stroke="#0FB56F" stroke-width="0.45625" stroke-linecap="round"/>
<line x1="245.902" y1="9.83531" x2="9.19935" y2="246.538" stroke="#0FB56F" stroke-width="0.45625" stroke-linecap="round"/>
<line x1="205.979" y1="-30.089" x2="-30.7245" y2="206.614" stroke="#0FB56F" stroke-width="0.45625" stroke-linecap="round"/>
<line x1="325.748" y1="89.6835" x2="89.0451" y2="326.386" stroke="#0FB56F" stroke-width="0.45625" stroke-linecap="round"/>
<line x1="0.228125" y1="-0.228125" x2="335.062" y2="-0.228125" transform="matrix(-0.706744 0.70747 -0.709096 -0.705112 166.113 -70.3955)" stroke="#0FB56F" stroke-width="0.45625" stroke-linecap="round"/>
<line x1="0.228125" y1="-0.228125" x2="335.062" y2="-0.228125" transform="matrix(-0.706744 0.70747 -0.709096 -0.705112 285.887 49.376)" stroke="#0FB56F" stroke-width="0.45625" stroke-linecap="round"/>
<line x1="155.164" y1="-80.9" x2="-81.5389" y2="155.803" stroke="#0FB56F" stroke-width="0.45625" stroke-linecap="round"/>
<line x1="274.936" y1="38.8705" x2="38.2326" y2="275.573" stroke="#0FB56F" stroke-width="0.45625" stroke-linecap="round"/>
<line x1="107.982" y1="-128.084" x2="-128.721" y2="108.619" stroke="#0FB56F" stroke-width="0.45625" stroke-linecap="round"/>
<line x1="227.754" y1="-8.31117" x2="-8.94909" y2="228.392" stroke="#0FB56F" stroke-width="0.45625" stroke-linecap="round"/>
<line x1="112.676" y1="-125.517" x2="-124.027" y2="111.186" stroke="#0FB56F" stroke-width="0.45625" stroke-linecap="round"/>
<line x1="232.445" y1="-5.74525" x2="-4.25768" y2="230.958" stroke="#0FB56F" stroke-width="0.45625" stroke-linecap="round"/>
<line x1="216.865" y1="-19.1998" x2="-19.8378" y2="217.503" stroke="#0FB56F" stroke-width="0.45625" stroke-linecap="round"/>
<line x1="336.637" y1="100.571" x2="99.9337" y2="337.274" stroke="#0FB56F" stroke-width="0.45625" stroke-linecap="round"/>
<line x1="137.018" y1="-99.0485" x2="-99.6854" y2="137.655" stroke="#0FB56F" stroke-width="0.45625" stroke-linecap="round"/>
<line x1="256.791" y1="20.724" x2="20.088" y2="257.427" stroke="#0FB56F" stroke-width="0.45625" stroke-linecap="round"/>
<line x1="180.57" y1="-55.4948" x2="-56.1327" y2="181.208" stroke="#0FB56F" stroke-width="0.45625" stroke-linecap="round"/>
<line x1="300.344" y1="64.2757" x2="63.6408" y2="300.979" stroke="#0FB56F" stroke-width="0.45625" stroke-linecap="round"/>
<line x1="122.5" y1="-113.566" x2="-114.203" y2="123.137" stroke="#0FB56F" stroke-width="0.45625" stroke-linecap="round"/>
<line x1="242.27" y1="6.20592" x2="5.56654" y2="242.909" stroke="#0FB56F" stroke-width="0.45625" stroke-linecap="round"/>
<line x1="202.346" y1="-33.7184" x2="-34.3573" y2="202.985" stroke="#0FB56F" stroke-width="0.45625" stroke-linecap="round"/>
<line x1="322.121" y1="86.0541" x2="85.4181" y2="322.757" stroke="#0FB56F" stroke-width="0.45625" stroke-linecap="round"/>
<line x1="158.795" y1="-77.2721" x2="-77.9081" y2="159.431" stroke="#0FB56F" stroke-width="0.45625" stroke-linecap="round"/>
<line x1="278.568" y1="42.5008" x2="41.8653" y2="279.204" stroke="#0FB56F" stroke-width="0.45625" stroke-linecap="round"/>
<line x1="169.682" y1="-66.3829" x2="-67.0214" y2="170.32" stroke="#0FB56F" stroke-width="0.45625" stroke-linecap="round"/>
<line x1="289.453" y1="53.3885" x2="52.7501" y2="290.092" stroke="#0FB56F" stroke-width="0.45625" stroke-linecap="round"/>
<line x1="115.242" y1="-120.825" x2="-121.461" y2="115.878" stroke="#0FB56F" stroke-width="0.45625" stroke-linecap="round"/>
<line x1="235.014" y1="-1.05336" x2="-1.68932" y2="235.65" stroke="#0FB56F" stroke-width="0.45625" stroke-linecap="round"/>
<line x1="195.09" y1="-40.9772" x2="-41.6132" y2="195.726" stroke="#0FB56F" stroke-width="0.45625" stroke-linecap="round"/>
<line x1="314.859" y1="78.7943" x2="78.1564" y2="315.497" stroke="#0FB56F" stroke-width="0.45625" stroke-linecap="round"/>
<line x1="144.277" y1="-91.7892" x2="-92.4257" y2="144.914" stroke="#0FB56F" stroke-width="0.45625" stroke-linecap="round"/>
<line x1="264.049" y1="27.9828" x2="27.3458" y2="264.686" stroke="#0FB56F" stroke-width="0.45625" stroke-linecap="round"/>
<line x1="187.828" y1="-48.235" x2="-48.8749" y2="188.468" stroke="#0FB56F" stroke-width="0.45625" stroke-linecap="round"/>
<line x1="307.602" y1="71.5355" x2="70.8986" y2="308.238" stroke="#0FB56F" stroke-width="0.45625" stroke-linecap="round"/>
<line x1="129.758" y1="-106.307" x2="-106.945" y2="130.396" stroke="#0FB56F" stroke-width="0.45625" stroke-linecap="round"/>
<line x1="249.531" y1="13.4647" x2="12.8283" y2="250.168" stroke="#0FB56F" stroke-width="0.45625" stroke-linecap="round"/>
<line x1="209.605" y1="-26.4586" x2="-27.0975" y2="210.244" stroke="#0FB56F" stroke-width="0.45625" stroke-linecap="round"/>
<line x1="329.377" y1="93.3119" x2="92.674" y2="330.015" stroke="#0FB56F" stroke-width="0.45625" stroke-linecap="round"/>
<line x1="173.314" y1="-62.754" x2="-63.3885" y2="173.949" stroke="#0FB56F" stroke-width="0.45625" stroke-linecap="round"/>
<line x1="293.084" y1="57.0179" x2="56.381" y2="293.721" stroke="#0FB56F" stroke-width="0.45625" stroke-linecap="round"/>
</g>
</g>
<path d="M21.5218 23.8853V23.7192H21.8606V21.7329H21.5218V21.5668H22.3986V21.7329H22.0598V23.7192H22.3986V23.8853H21.5218ZM22.9356 23.8853V21.5668H23.8457C24.0472 21.5668 24.2011 21.6255 24.3074 21.7429C24.4136 21.858 24.4668 22.0152 24.4668 22.2145C24.4668 22.416 24.4136 22.5755 24.3074 22.6928C24.2011 22.808 24.0472 22.8655 23.8457 22.8655H23.1349V23.8853H22.9356ZM23.1349 22.6895H23.8457C23.9785 22.6895 24.0793 22.653 24.1479 22.5799C24.2188 22.5046 24.2542 22.4094 24.2542 22.2942V22.1348C24.2542 22.0219 24.2188 21.9289 24.1479 21.8558C24.0793 21.7805 23.9785 21.7429 23.8457 21.7429H23.1349V22.6895ZM25.9878 23.8853C25.9191 23.8853 25.8671 23.8664 25.8317 23.8288C25.7962 23.7911 25.7785 23.7402 25.7785 23.676V22.3507H25.4829V22.1846H25.6755C25.722 22.1846 25.753 22.1758 25.7685 22.1581C25.7863 22.1381 25.7951 22.1038 25.7951 22.0551V21.7096H25.9678V22.1846H26.3531V22.3507H25.9678V23.7192H26.3266V23.8853H25.9878ZM27.4029 23.9251C27.29 23.9251 27.187 23.9052 27.094 23.8653C27.0032 23.8255 26.9246 23.7679 26.8582 23.6926C26.794 23.6151 26.7442 23.521 26.7087 23.4103C26.6755 23.2996 26.6589 23.1744 26.6589 23.0349C26.6589 22.8954 26.6755 22.7714 26.7087 22.6629C26.7442 22.5522 26.794 22.4592 26.8582 22.3839C26.9246 22.3064 27.0032 22.2477 27.094 22.2079C27.1848 22.1658 27.2867 22.1448 27.3996 22.1448C27.5081 22.1448 27.6066 22.1658 27.6952 22.2079C27.7838 22.2477 27.8591 22.3042 27.9211 22.3773C27.9831 22.4503 28.0307 22.5389 28.0639 22.643C28.0993 22.7449 28.1171 22.8578 28.1171 22.9818V23.0715H26.8582V23.1545C26.8582 23.2431 26.8704 23.325 26.8947 23.4003C26.9213 23.4734 26.9578 23.5365 27.0043 23.5896C27.0531 23.6428 27.1117 23.6849 27.1804 23.7159C27.249 23.7446 27.3265 23.759 27.4129 23.759C27.6609 23.759 27.8325 23.645 27.9277 23.4169L28.0672 23.5099C28.0141 23.6361 27.9299 23.7369 27.8148 23.8122C27.7019 23.8875 27.5646 23.9251 27.4029 23.9251ZM27.3996 22.3042C27.3177 22.3042 27.2435 22.3197 27.1771 22.3507C27.1106 22.3795 27.0531 22.4205 27.0043 22.4736C26.9578 22.5267 26.9213 22.591 26.8947 22.6662C26.8704 22.7393 26.8582 22.8201 26.8582 22.9087V22.9253H27.9111V22.8988C27.9111 22.8102 27.8989 22.7294 27.8746 22.6563C27.8502 22.581 27.8148 22.5179 27.7683 22.467C27.724 22.416 27.6698 22.3762 27.6055 22.3474C27.5435 22.3186 27.4749 22.3042 27.3996 22.3042ZM28.8078 23.8853C28.7392 23.8853 28.6872 23.8664 28.6517 23.8288C28.6163 23.7911 28.5986 23.7413 28.5986 23.6793V21.4273H28.7879V23.7192H29.0503V23.8853H28.8078ZM30.0822 23.9251C29.9693 23.9251 29.8663 23.9052 29.7733 23.8653C29.6825 23.8255 29.6039 23.7679 29.5375 23.6926C29.4733 23.6151 29.4234 23.521 29.388 23.4103C29.3548 23.2996 29.3382 23.1744 29.3382 23.0349C29.3382 22.8954 29.3548 22.7714 29.388 22.6629C29.4234 22.5522 29.4733 22.4592 29.5375 22.3839C29.6039 22.3064 29.6825 22.2477 29.7733 22.2079C29.8641 22.1658 29.966 22.1448 30.0789 22.1448C30.1874 22.1448 30.2859 22.1658 30.3745 22.2079C30.4631 22.2477 30.5384 22.3042 30.6004 22.3773C30.6624 22.4503 30.71 22.5389 30.7432 22.643C30.7786 22.7449 30.7963 22.8578 30.7963 22.9818V23.0715H29.5375V23.1545C29.5375 23.2431 29.5497 23.325 29.574 23.4003C29.6006 23.4734 29.6371 23.5365 29.6836 23.5896C29.7323 23.6428 29.791 23.6849 29.8597 23.7159C29.9283 23.7446 30.0058 23.759 30.0922 23.759C30.3402 23.759 30.5118 23.645 30.607 23.4169L30.7465 23.5099C30.6934 23.6361 30.6092 23.7369 30.4941 23.8122C30.3812 23.8875 30.2439 23.9251 30.0822 23.9251ZM30.0789 22.3042C29.997 22.3042 29.9228 22.3197 29.8563 22.3507C29.7899 22.3795 29.7323 22.4205 29.6836 22.4736C29.6371 22.5267 29.6006 22.591 29.574 22.6662C29.5497 22.7393 29.5375 22.8201 29.5375 22.9087V22.9253H30.5904V22.8988C30.5904 22.8102 30.5782 22.7294 30.5539 22.6563C30.5295 22.581 30.4941 22.5179 30.4476 22.467C30.4033 22.416 30.349 22.3762 30.2848 22.3474C30.2228 22.3186 30.1542 22.3042 30.0789 22.3042ZM31.2779 22.1846H31.4672V22.457H31.4772C31.5192 22.3618 31.5834 22.2865 31.6698 22.2311C31.7562 22.1736 31.8647 22.1448 31.9953 22.1448C32.2145 22.1448 32.3861 22.2223 32.5102 22.3773C32.6342 22.5323 32.6962 22.7515 32.6962 23.0349C32.6962 23.3184 32.6342 23.5376 32.5102 23.6926C32.3861 23.8476 32.2145 23.9251 31.9953 23.9251C31.8647 23.9251 31.7573 23.8974 31.6731 23.8421C31.589 23.7845 31.5237 23.7081 31.4772 23.6129H31.4672V24.5496H31.2779V22.1846ZM31.9521 23.7557C32.1226 23.7557 32.2555 23.7015 32.3507 23.593C32.4459 23.4845 32.4935 23.3383 32.4935 23.1545V22.9154C32.4935 22.7316 32.4459 22.5854 32.3507 22.4769C32.2555 22.3684 32.1226 22.3142 31.9521 22.3142C31.8857 22.3142 31.8226 22.3241 31.7628 22.3441C31.7052 22.3618 31.6543 22.3872 31.61 22.4205C31.5657 22.4537 31.5303 22.4935 31.5037 22.54C31.4794 22.5865 31.4672 22.6375 31.4672 22.6928V23.3671C31.4672 23.4269 31.4794 23.4811 31.5037 23.5298C31.5303 23.5764 31.5657 23.6173 31.61 23.6527C31.6543 23.686 31.7052 23.7114 31.7628 23.7291C31.8226 23.7469 31.8857 23.7557 31.9521 23.7557ZM33.1852 21.4273H33.3745V22.4537H33.3844C33.4221 22.3651 33.4808 22.292 33.5605 22.2345C33.6402 22.1747 33.7487 22.1448 33.886 22.1448C34.0676 22.1448 34.2082 22.2012 34.3078 22.3142C34.4097 22.4249 34.4606 22.5843 34.4606 22.7925V23.8853H34.2713V22.8257C34.2713 22.653 34.2336 22.5245 34.1584 22.4404C34.0853 22.3562 33.9779 22.3142 33.8362 22.3142C33.7764 22.3142 33.7188 22.3219 33.6635 22.3374C33.6081 22.3529 33.5583 22.3762 33.514 22.4072C33.4719 22.4382 33.4376 22.478 33.411 22.5267C33.3867 22.5732 33.3745 22.6275 33.3745 22.6895V23.8853H33.1852V21.4273ZM35.6613 23.9251C35.5483 23.9251 35.4465 23.9052 35.3557 23.8653C35.2649 23.8255 35.1874 23.7679 35.1232 23.6926C35.059 23.6151 35.0092 23.521 34.9737 23.4103C34.9383 23.2996 34.9206 23.1744 34.9206 23.0349C34.9206 22.8954 34.9383 22.7714 34.9737 22.6629C35.0092 22.5522 35.059 22.4592 35.1232 22.3839C35.1874 22.3064 35.2649 22.2477 35.3557 22.2079C35.4465 22.1658 35.5483 22.1448 35.6613 22.1448C35.7742 22.1448 35.8761 22.1658 35.9669 22.2079C36.0576 22.2477 36.1352 22.3064 36.1994 22.3839C36.2636 22.4592 36.3134 22.5522 36.3488 22.6629C36.3843 22.7714 36.402 22.8954 36.402 23.0349C36.402 23.1744 36.3843 23.2996 36.3488 23.4103C36.3134 23.521 36.2636 23.6151 36.1994 23.6926C36.1352 23.7679 36.0576 23.8255 35.9669 23.8653C35.8761 23.9052 35.7742 23.9251 35.6613 23.9251ZM35.6613 23.7557C35.8274 23.7557 35.958 23.7037 36.0532 23.5996C36.1507 23.4955 36.1994 23.3427 36.1994 23.1412V22.9287C36.1994 22.7294 36.1507 22.5777 36.0532 22.4736C35.958 22.3673 35.8274 22.3142 35.6613 22.3142C35.4952 22.3142 35.3634 22.3662 35.266 22.4703C35.1708 22.5744 35.1232 22.7271 35.1232 22.9287V23.1412C35.1232 23.3405 35.1708 23.4933 35.266 23.5996C35.3634 23.7037 35.4952 23.7557 35.6613 23.7557ZM36.883 23.8853V22.1846H37.0723V22.4537H37.0822C37.1199 22.3651 37.1786 22.292 37.2583 22.2345C37.338 22.1747 37.4465 22.1448 37.5838 22.1448C37.7654 22.1448 37.906 22.2012 38.0056 22.3142C38.1075 22.4249 38.1584 22.5843 38.1584 22.7925V23.8853H37.9691V22.8257C37.9691 22.653 37.9315 22.5245 37.8562 22.4404C37.7831 22.3562 37.6757 22.3142 37.534 22.3142C37.4742 22.3142 37.4166 22.3219 37.3613 22.3374C37.3059 22.3529 37.2561 22.3762 37.2118 22.4072C37.1697 22.4382 37.1354 22.478 37.1088 22.5267C37.0845 22.5732 37.0723 22.6275 37.0723 22.6895V23.8853H36.883ZM39.7418 22.1846H39.9344L39.1472 24.3636C39.1206 24.4344 39.0885 24.4831 39.0509 24.5097C39.0132 24.5363 38.9512 24.5496 38.8649 24.5496H38.6722V24.3835H38.9579L39.1206 23.9351L38.4895 22.1846H38.6888L39.2103 23.6826H39.2236L39.7418 22.1846Z" fill="#0FB56F"/>
<path d="M106.434 77.7739L121.49 48.2603H185.564" stroke="white" stroke-width="0.207596" stroke-linecap="round"/>
<line x1="128.454" y1="24.0995" x2="179.367" y2="24.0995" stroke="#0FB56F" stroke-width="0.415192" stroke-linecap="round"/>
<line x1="128.454" y1="30.9433" x2="179.367" y2="30.9433" stroke="#0FB56F" stroke-width="0.415192" stroke-linecap="round"/>
<line x1="128.454" y1="37.787" x2="145.148" y2="37.787" stroke="#0FB56F" stroke-width="0.415192" stroke-linecap="round"/>
<path d="M139.691 144.074H138.244C138.129 144.015 138.008 143.967 137.884 143.93C136.996 143.774 136.164 143.391 135.466 142.82C134.769 142.248 134.231 141.506 133.904 140.666C133.705 140.197 133.475 140.047 132.968 140.051C130.074 140.077 127.181 140.028 124.29 140.083C123.188 140.105 122.511 139.719 121.964 138.761C118.784 133.189 115.556 127.651 112.346 122.1C112.204 121.856 112.052 121.616 111.883 121.339C109.549 124.009 107.286 126.611 105.007 129.198C103.989 130.355 103.064 130.358 102.056 129.211C100.007 126.879 97.9842 124.53 95.9396 122.19C95.7038 121.92 95.4616 121.652 95.1809 121.333C94.9815 121.652 94.8358 121.871 94.7051 122.098C91.546 127.554 88.3569 132.996 85.2557 138.487C84.5849 139.672 83.7876 140.131 82.4374 140.088C79.6513 140 76.8651 140.077 74.079 140.049C73.5753 140.049 73.3396 140.191 73.1424 140.662C72.8146 141.502 72.2764 142.244 71.5794 142.815C70.8825 143.387 70.0502 143.771 69.1625 143.928C69.0384 143.965 68.9179 144.013 68.8024 144.072H67.3579C67.1543 144.016 66.955 143.952 66.7493 143.903C65.0583 143.474 63.7488 142.567 62.9794 140.971C62.7456 140.411 62.5438 139.839 62.375 139.256V137.651C62.4222 137.529 62.4779 137.411 62.5122 137.287C63.2194 134.635 65.0261 133.084 67.6558 132.869C70.0583 132.674 72.0922 133.977 73.2453 136.389C73.3309 136.515 73.444 136.62 73.5761 136.697C73.7083 136.773 73.856 136.819 74.0083 136.83C76.6344 136.861 79.2591 136.861 81.8823 136.83C82.0405 136.821 82.1949 136.778 82.3351 136.704C82.4752 136.63 82.5978 136.527 82.6946 136.401C86.0616 130.634 89.3964 124.845 92.7676 119.074C93.0162 118.645 92.8512 118.407 92.6176 118.09C91.381 116.412 90.1486 114.729 88.9377 113.032C88.4577 112.361 88.0333 111.652 87.5361 110.889C86.6788 112.37 85.8215 113.756 85.0586 115.19C84.5678 116.105 83.8841 116.476 82.8575 116.459C79.9385 116.423 77.0173 116.459 74.0983 116.435C73.6032 116.435 73.3546 116.564 73.1488 117.04C72.1115 119.417 70.0283 120.6 67.4051 120.362C64.9811 120.147 63.1187 118.499 62.5293 116.048C62.4873 115.921 62.4357 115.798 62.375 115.679V113.915C62.4311 113.828 62.4778 113.735 62.5143 113.639C63.1573 111.133 65.0111 109.479 67.4308 109.269C70.0433 109.054 72.0944 110.248 73.181 112.713C73.3953 113.188 73.6761 113.24 74.1047 113.238C76.6487 113.227 79.1905 113.218 81.7323 113.238C82.251 113.238 82.551 113.103 82.8039 112.636C83.584 111.206 84.392 109.789 85.2493 108.407C85.4199 108.179 85.5186 107.906 85.5327 107.622C85.5469 107.338 85.4758 107.056 85.3286 106.812C83.344 102.822 82.1738 98.6555 82.7868 94.1398C82.8446 93.7112 82.8939 93.2825 82.9454 92.8539C82.865 92.8212 82.7818 92.7961 82.6968 92.7789C79.8849 92.7789 77.0752 92.7789 74.2654 92.7532C73.6525 92.7532 73.3439 92.8989 73.0803 93.5033C72.103 95.7558 69.949 96.9431 67.4286 96.7288C66.2904 96.629 65.211 96.1793 64.3387 95.4413C63.4665 94.7034 62.8441 93.7134 62.5572 92.6074C62.51 92.4338 62.4372 92.2666 62.375 92.0973V90.3313C62.4285 90.2412 62.4724 90.1457 62.5057 90.0463C63.1358 87.5002 64.9233 85.8907 67.3922 85.6528C70.0241 85.3999 72.0944 86.5893 73.166 89.0454C73.3803 89.5255 73.6546 89.5769 74.0833 89.5748C77.1373 89.5748 80.1892 89.5577 83.2433 89.5748C83.7469 89.5748 83.9912 89.4248 84.1841 88.949C85.6434 85.3322 88.0951 82.2014 91.2567 79.9176C91.4003 79.8126 91.5246 79.6818 91.6853 79.5447C89.735 76.1777 87.8276 72.845 85.8644 69.5359C85.7337 69.3216 85.3072 69.1673 85.0071 69.1652C81.3637 69.1416 77.7203 69.1652 74.0768 69.1373C73.5818 69.1373 73.3353 69.2595 73.1317 69.7374C72.1758 72.0221 70.0198 73.323 67.6601 73.1322C65.0883 72.9179 63.1787 71.3384 62.54 68.8758C62.4929 68.7001 62.4307 68.5286 62.375 68.3529V66.7498C62.4264 66.6019 62.4864 66.4562 62.525 66.3062C63.1873 63.7579 65.0518 62.1805 67.658 61.9683C70.0391 61.7733 72.1715 63.0807 73.1724 65.4296C73.3867 65.9182 73.6632 65.9525 74.0876 65.9525C78.0782 65.9525 82.0688 65.9718 86.0573 65.9311C87.0924 65.9311 87.7526 66.2826 88.2626 67.1827C90.1701 70.5518 92.1204 73.8952 94.0664 77.2557C94.2078 77.5001 94.3622 77.7401 94.495 77.9587C100.562 75.3033 106.546 75.3183 112.556 77.9587C112.719 77.6908 112.871 77.4443 113.017 77.1936C114.945 73.8416 116.911 70.4961 118.825 67.1206C119.303 66.2804 119.933 65.9268 120.903 65.9354C124.92 65.9675 128.936 65.9354 132.955 65.9611C133.445 65.9611 133.694 65.8432 133.898 65.361C134.33 64.2839 135.096 63.3736 136.083 62.7631C137.071 62.1527 138.227 61.8742 139.384 61.9683C141.956 62.1827 143.885 63.7729 144.509 66.2226C144.554 66.4005 144.618 66.5741 144.674 66.7498V68.3529C144.62 68.4738 144.574 68.5976 144.534 68.7237C143.857 71.3427 142.016 72.92 139.391 73.1322C137.005 73.323 134.89 72.0156 133.876 69.6667C133.692 69.238 133.463 69.1459 133.04 69.148C129.371 69.1609 125.702 69.1673 122.035 69.148C121.828 69.1296 121.62 69.1768 121.44 69.283C121.261 69.3891 121.12 69.5488 121.036 69.7396C119.262 72.8472 117.461 75.9398 115.678 79.0389C115.575 79.2189 115.496 79.4118 115.415 79.5789C115.446 79.6356 115.483 79.6888 115.526 79.7375C118.855 82.0707 121.427 85.3273 122.927 89.1054C123.12 89.5834 123.426 89.5727 123.807 89.5727C126.862 89.5727 129.913 89.5577 132.965 89.5727C133.469 89.5727 133.703 89.4226 133.908 88.9554C134.939 86.5979 137.057 85.3913 139.656 85.6442C142.102 85.8821 143.943 87.5088 144.526 89.9627C144.565 90.0862 144.614 90.2066 144.671 90.3228V92.0888C144.616 92.1765 144.57 92.2699 144.534 92.3674C143.879 94.8363 141.99 96.5445 139.691 96.7459C137.061 96.9774 134.939 95.7429 133.857 93.2868C133.643 92.8067 133.36 92.7639 132.931 92.7639C130.229 92.7746 127.526 92.7639 124.823 92.7639C124.592 92.7639 124.363 92.7939 124.105 92.811C124.21 93.8526 124.358 94.8299 124.399 95.8115C124.564 99.8171 123.375 103.497 121.613 107.031C121.509 107.195 121.455 107.385 121.458 107.579C121.462 107.773 121.521 107.962 121.63 108.122C122.526 109.609 123.398 111.11 124.232 112.623C124.491 113.092 124.793 113.229 125.303 113.223C127.82 113.197 130.335 113.197 132.85 113.223C133.403 113.223 133.681 113.083 133.921 112.539C134.914 110.233 137.057 109.026 139.609 109.247C140.763 109.348 141.856 109.809 142.734 110.565C143.611 111.321 144.228 112.334 144.498 113.461C144.545 113.607 144.601 113.75 144.665 113.889V115.653C144.611 115.743 144.567 115.837 144.532 115.936C143.913 118.471 142.095 120.107 139.646 120.332C136.995 120.572 134.946 119.395 133.872 116.937C133.658 116.453 133.377 116.41 132.952 116.412C130.006 116.412 127.059 116.399 124.112 116.425C123.152 116.425 122.496 116.086 122.031 115.233C121.24 113.78 120.385 112.363 119.577 110.966C117.785 113.437 116.008 115.874 114.264 118.334C114.15 118.497 114.219 118.894 114.341 119.102C117.65 124.864 120.974 130.607 124.313 136.331C124.411 136.471 124.539 136.589 124.687 136.675C124.835 136.762 125 136.815 125.171 136.832C127.794 136.871 130.419 136.847 133.045 136.864C133.473 136.864 133.688 136.766 133.876 136.341C134.886 133.997 137.007 132.685 139.395 132.876C141.995 133.09 143.896 134.683 144.539 137.209C144.577 137.362 144.639 137.507 144.691 137.657V139.263C144.624 139.488 144.556 139.715 144.491 139.942C144.261 140.835 143.805 141.655 143.167 142.321C142.529 142.988 141.73 143.479 140.848 143.748C140.458 143.875 140.072 143.967 139.691 144.074ZM103.548 126.095C106.12 123.049 108.638 120.171 111.049 117.203C114.101 113.439 116.921 109.513 119.013 105.115C120.672 101.626 121.658 98.0168 121.013 94.1055C119.485 84.8812 111.424 78.5588 102.024 79.2382C93.237 79.8811 86.0423 87.4423 85.8515 96.223C85.7808 99.5192 86.7903 102.535 88.2091 105.439C90.6244 110.402 93.9528 114.751 97.4569 118.975C99.4072 121.339 101.441 123.641 103.548 126.095ZM141.459 67.5406C141.461 66.9017 141.21 66.288 140.76 65.8344C140.31 65.3809 139.698 65.1246 139.06 65.122C138.421 65.1195 137.807 65.3708 137.353 65.8208C136.9 66.2707 136.643 66.8825 136.641 67.5213C136.64 67.8374 136.701 68.1506 136.82 68.4431C136.94 68.7356 137.116 69.0017 137.339 69.226C137.562 69.4504 137.826 69.6288 138.118 69.7509C138.409 69.873 138.722 69.9365 139.038 69.9378C139.354 69.9391 139.667 69.8781 139.96 69.7583C140.252 69.6385 140.518 69.4623 140.743 69.2397C140.967 69.0171 141.146 68.7525 141.268 68.4609C141.39 68.1694 141.453 67.8567 141.455 67.5406H141.459ZM139.052 140.851C139.366 140.854 139.678 140.795 139.97 140.677C140.261 140.559 140.526 140.384 140.75 140.163C140.974 139.942 141.152 139.679 141.273 139.389C141.395 139.099 141.458 138.788 141.459 138.474C141.458 138.158 141.395 137.845 141.273 137.553C141.151 137.262 140.973 136.997 140.749 136.774C140.525 136.551 140.259 136.374 139.967 136.254C139.675 136.134 139.362 136.073 139.046 136.074C138.73 136.074 138.417 136.137 138.125 136.259C137.833 136.381 137.569 136.559 137.346 136.783C137.123 137.007 136.946 137.273 136.826 137.565C136.706 137.858 136.644 138.171 136.645 138.487C136.647 138.8 136.712 139.11 136.834 139.399C136.956 139.687 137.134 139.949 137.358 140.168C137.581 140.388 137.846 140.561 138.137 140.678C138.428 140.796 138.739 140.854 139.052 140.851ZM70.4077 67.5556C70.4037 66.9167 70.1461 66.3056 69.6915 65.8566C69.2369 65.4077 68.6226 65.1577 67.9837 65.1617C67.3448 65.1657 66.7337 65.4233 66.2847 65.8779C65.8358 66.3324 65.5858 66.9467 65.5898 67.5856C65.5938 68.224 65.8512 68.8346 66.3053 69.2831C66.7595 69.7317 67.3733 69.9814 68.0116 69.9774C68.6499 69.9735 69.2605 69.7161 69.7091 69.2619C70.1576 68.8077 70.4074 68.194 70.4034 67.5556H70.4077ZM139.08 93.5568C139.396 93.5616 139.709 93.5025 140.001 93.3831C140.294 93.2637 140.559 93.0865 140.781 92.8622C141.003 92.6378 141.178 92.3709 141.294 92.0774C141.411 91.784 141.467 91.47 141.459 91.1543C141.463 90.8326 141.403 90.5133 141.282 90.2152C141.161 89.9171 140.981 89.6463 140.753 89.4188C140.526 89.1913 140.255 89.0117 139.957 88.8905C139.659 88.7694 139.34 88.7092 139.018 88.7135C138.696 88.7178 138.379 88.7865 138.084 88.9156C137.789 89.0446 137.523 89.2314 137.302 89.4649C137.08 89.6984 136.908 89.9739 136.795 90.2751C136.682 90.5763 136.63 90.8971 136.643 91.2186C136.643 91.5341 136.707 91.8463 136.831 92.1364C136.954 92.4266 137.135 92.6888 137.363 92.9072C137.591 93.1256 137.86 93.2957 138.155 93.4074C138.45 93.519 138.765 93.5698 139.08 93.5568ZM68.0052 112.453C67.6904 112.444 67.3769 112.498 67.0835 112.612C66.7901 112.727 66.5227 112.899 66.2974 113.119C66.0722 113.339 65.8936 113.603 65.7724 113.893C65.6511 114.184 65.5898 114.496 65.5919 114.811C65.5979 115.449 65.852 116.06 66.3005 116.514C66.7489 116.968 67.3564 117.23 67.9945 117.243C68.6302 117.232 69.2369 116.976 69.6873 116.527C70.1376 116.078 70.3966 115.472 70.4098 114.837C70.4133 114.521 70.3534 114.208 70.2335 113.915C70.1136 113.623 69.9363 113.358 69.712 113.136C69.4877 112.914 69.2211 112.739 68.9279 112.621C68.6347 112.504 68.3209 112.447 68.0052 112.453ZM68.0159 140.864C68.6484 140.852 69.2517 140.595 69.698 140.146C70.1444 139.698 70.3989 139.094 70.4077 138.461C70.4057 138.145 70.3415 137.832 70.2187 137.541C70.096 137.25 69.917 136.986 69.6921 136.764C69.4673 136.541 69.2008 136.366 68.9081 136.247C68.6153 136.128 68.3019 136.067 67.9859 136.069C67.6698 136.071 67.3572 136.135 67.066 136.258C66.7747 136.381 66.5105 136.56 66.2884 136.785C66.0663 137.01 65.8907 137.276 65.7715 137.569C65.6524 137.862 65.5921 138.175 65.5941 138.491C65.6097 139.124 65.8714 139.726 66.3236 140.169C66.7758 140.612 67.3829 140.861 68.0159 140.864ZM67.9859 93.574C68.301 93.5774 68.6137 93.5186 68.9061 93.4011C69.1985 93.2836 69.4649 93.1096 69.69 92.889C69.9151 92.6685 70.0946 92.4058 70.2181 92.1158C70.3416 91.8259 70.4068 91.5145 70.4098 91.1993C70.413 90.8838 70.3532 90.5708 70.2339 90.2787C70.1146 89.9865 69.9382 89.7212 69.7151 89.498C69.4919 89.2749 69.2265 89.0985 68.9344 88.9792C68.6423 88.8599 68.3293 88.8001 68.0137 88.8033C67.6994 88.797 67.3869 88.8532 67.0945 88.9687C66.802 89.0842 66.5354 89.2566 66.3101 89.4759C66.0848 89.6952 65.9053 89.9571 65.7821 90.2463C65.6588 90.5355 65.5941 90.8464 65.5919 91.1608C65.59 91.4766 65.6504 91.7897 65.7698 92.0821C65.8891 92.3746 66.0651 92.6405 66.2875 92.8648C66.51 93.089 66.7745 93.2671 67.066 93.3888C67.3574 93.5105 67.67 93.5734 67.9859 93.574ZM139.022 112.434C138.707 112.435 138.396 112.499 138.106 112.621C137.815 112.743 137.552 112.921 137.331 113.145C137.11 113.369 136.935 113.635 136.816 113.926C136.698 114.218 136.638 114.53 136.641 114.845C136.665 115.472 136.933 116.065 137.387 116.497C137.841 116.93 138.447 117.168 139.074 117.161C139.701 117.154 140.301 116.903 140.746 116.461C141.191 116.019 141.446 115.421 141.457 114.794C141.446 114.159 141.184 113.554 140.727 113.112C140.27 112.67 139.657 112.428 139.022 112.438V112.434Z" fill="#0FB56F"/>
<path d="M112.81 105.865C112.388 104.859 111.862 103.901 111.241 103.004L111.051 102.708C110.566 101.925 109.956 101.227 109.246 100.64C108.08 99.7033 106.837 99.5211 105.553 100.102C105.313 100.209 105.073 100.314 104.833 100.417L104.417 100.601C103.989 100.792 103.869 100.743 103.616 100.471C102.686 99.4662 102.067 98.2142 101.833 96.8657C101.734 96.3299 101.811 96.092 102.444 95.8306L102.872 95.6484C103.142 95.5391 103.412 95.4341 103.68 95.3141C104.162 95.127 104.589 94.8242 104.926 94.4325C105.262 94.0407 105.497 93.5721 105.609 93.068C105.711 92.6304 105.771 92.184 105.787 91.7349C105.821 90.6333 105.573 89.5917 105.33 88.6037L105.255 88.3058C105.082 87.4474 104.793 86.6163 104.398 85.8347C103.592 84.3881 102.148 83.8416 100.628 84.4052C99.583 84.8188 98.5897 85.3532 97.6686 85.9976C95.5597 87.4057 94.3445 89.5017 94.0573 92.2129C93.9118 93.7925 94.0262 95.3853 94.3959 96.9279C94.9046 99.1193 95.679 101.24 96.702 103.244C97.8315 105.516 99.0316 107.194 100.483 108.52C101.934 109.847 103.483 110.664 105.14 110.964L105.568 111.039H106.837H106.895L106.981 111.022C107.006 111.022 107.03 111.011 107.056 111.009C108.531 110.873 109.972 110.487 111.319 109.868C111.772 109.679 112.169 109.375 112.469 108.986C112.77 108.597 112.964 108.137 113.033 107.65C113.115 107.046 113.038 106.431 112.81 105.865ZM98.8109 97.0115C98.9609 98.5353 99.5889 99.819 100.18 100.869C100.589 101.641 101.141 102.328 101.807 102.892C102.945 103.829 104.231 103.985 105.628 103.362C105.748 103.308 105.866 103.257 105.986 103.207C106.239 103.1 106.501 102.993 106.758 102.856C106.832 102.8 106.925 102.775 107.017 102.785C107.109 102.796 107.194 102.842 107.253 102.914C107.674 103.294 108.054 103.719 108.385 104.18C108.813 104.823 109.199 105.522 109.578 106.195C109.72 106.444 109.859 106.694 109.996 106.932C110.012 106.977 110.024 107.023 110.033 107.069C110.038 107.093 110.043 107.116 110.045 107.14L110.015 107.155C108.515 107.783 107.242 108.057 106.023 108.023C105.288 108.002 104.565 107.749 103.685 107.204C102.536 106.47 101.562 105.493 100.83 104.343C99.0368 101.689 97.7976 98.7005 97.1864 95.5562C97.1052 95.0958 97.0472 94.6316 97.0128 94.1653C96.9913 93.951 96.972 93.7367 96.9485 93.5224C96.9594 92.4501 97.1838 91.3908 97.6086 90.4061C97.8553 89.8753 98.2152 89.405 98.663 89.0281C99.4972 88.3155 100.437 87.7371 101.449 87.3135C101.528 87.2781 101.61 87.248 101.693 87.2235C101.726 87.2823 101.755 87.3432 101.779 87.4057C102.019 88.0472 102.221 88.702 102.386 89.3667L102.416 89.4739C102.638 90.2081 102.757 90.9699 102.767 91.7371C102.765 91.881 102.75 92.0244 102.722 92.1657C102.671 92.4379 102.574 92.5215 102.411 92.5815C101.888 92.7671 101.376 92.9818 100.877 93.2244C100.175 93.555 99.5973 94.1001 99.2259 94.7808C98.8545 95.4615 98.7092 96.2427 98.8109 97.0115Z" fill="white"/>
<line x1="31.7857" y1="166.963" x2="80.9877" y2="166.963" stroke="#0FB56F" stroke-width="0.415192" stroke-linecap="round"/>
<circle cx="23.8789" cy="166.315" r="2.46261" stroke="white" stroke-width="0.207596"/>
<circle cx="128.248" cy="166.315" r="2.46261" stroke="white" stroke-width="0.207596"/>
<circle cx="23.8789" cy="173.159" r="2.46261" stroke="white" stroke-width="0.207596"/>
<circle cx="128.248" cy="173.159" r="2.46261" stroke="white" stroke-width="0.207596"/>
<circle cx="23.8789" cy="180.003" r="2.46261" stroke="white" stroke-width="0.207596"/>
<circle cx="128.248" cy="180.003" r="2.46261" stroke="white" stroke-width="0.207596"/>
<line x1="136.153" y1="166.963" x2="185.355" y2="166.963" stroke="#0FB56F" stroke-width="0.415192" stroke-linecap="round"/>
<line x1="31.7857" y1="173.806" x2="80.9877" y2="173.806" stroke="#0FB56F" stroke-width="0.415192" stroke-linecap="round"/>
<line x1="136.153" y1="173.806" x2="185.355" y2="173.806" stroke="#0FB56F" stroke-width="0.415192" stroke-linecap="round"/>
<line x1="31.7857" y1="180.651" x2="60.4565" y2="180.651" stroke="#0FB56F" stroke-width="0.415192" stroke-linecap="round"/>
<line x1="136.153" y1="180.651" x2="164.824" y2="180.651" stroke="#0FB56F" stroke-width="0.415192" stroke-linecap="round"/>
<g clip-path="url(#clip0_1608_11925)">
<path d="M176.593 73.0684H176.312C176.212 73.0682 176.115 73.0303 176.041 72.9621C175.967 72.8939 175.921 72.8004 175.913 72.7001C175.788 71.045 175.087 69.6672 173.784 68.5928C172.656 67.662 171.339 67.2425 169.881 67.3027C168.901 67.3399 167.949 67.6351 167.12 68.1585C166.283 68.6773 165.591 69.4003 165.111 70.2595C164.691 71.0051 164.445 71.8358 164.391 72.6897C164.383 72.791 164.338 72.8857 164.263 72.9547C164.189 73.0237 164.091 73.0619 163.989 73.0617H163.723C163.668 73.0618 163.613 73.0505 163.562 73.0285C163.512 73.0066 163.466 72.9743 163.428 72.9339C163.391 72.8934 163.362 72.8456 163.343 72.7935C163.325 72.7413 163.317 72.6859 163.321 72.6307C163.406 71.3454 163.812 70.1681 164.571 69.1057C165.413 67.9278 166.523 67.0968 167.9 66.6003C167.861 66.5668 167.836 66.5437 167.809 66.5236C166.477 65.5299 165.888 63.8973 166.345 62.2938C166.765 60.8172 167.756 59.8881 169.241 59.494C169.449 59.4368 169.669 59.417 169.884 59.3809H170.42C170.634 59.417 170.853 59.4368 171.062 59.4924C172.547 59.8864 173.55 60.8129 173.955 62.2935C174.379 63.842 173.948 65.1843 172.783 66.2876C172.669 66.3957 172.54 66.4884 172.408 66.5969C172.448 66.6147 172.475 66.6304 172.503 66.6395C173.417 66.9714 174.249 67.4983 174.94 68.1837C175.978 69.2082 176.634 70.4377 176.886 71.8774C176.932 72.1389 176.958 72.4041 176.993 72.6672C176.993 72.7735 176.951 72.8753 176.876 72.9504C176.801 73.0256 176.699 73.068 176.593 73.0684ZM170.15 60.4523C168.565 60.4523 167.27 61.746 167.264 63.3318C167.257 64.9175 168.561 66.2246 170.152 66.2243C171.742 66.2239 173.031 64.9305 173.038 63.3448C173.045 61.7591 171.739 60.4499 170.15 60.4523Z" fill="white"/>
</g>
<g clip-path="url(#clip1_1608_11925)">
<path d="M42.2844 73.0693H42.0038C41.9032 73.0692 41.8063 73.0313 41.7322 72.9631C41.6582 72.8948 41.6125 72.8013 41.6041 72.701C41.4795 71.046 40.7781 69.6682 39.4749 68.5938C38.3469 67.663 37.0307 67.2434 35.5723 67.3037C34.5925 67.3409 33.64 67.6361 32.811 68.1595C31.9741 68.6783 31.2829 69.4013 30.8021 70.2605C30.3822 71.006 30.1361 71.8367 30.0822 72.6907C30.0747 72.792 30.029 72.8867 29.9545 72.9557C29.8799 73.0247 29.782 73.0629 29.6804 73.0626H29.4146C29.3593 73.0628 29.3045 73.0515 29.2538 73.0295C29.203 73.0075 29.1574 72.9753 29.1196 72.9349C29.0819 72.8944 29.053 72.8466 29.0346 72.7944C29.0162 72.7423 29.0088 72.6869 29.0128 72.6317C29.0972 71.3463 29.503 70.1691 30.2627 69.1067C31.1047 67.9288 32.2147 67.0978 33.5915 66.6013C33.552 66.5678 33.5275 66.5447 33.5007 66.5246C32.1688 65.5308 31.5799 63.8982 32.0362 62.2948C32.4561 60.8182 33.4475 59.8891 34.9321 59.495C35.14 59.4378 35.36 59.418 35.5753 59.3818H36.111C36.3256 59.418 36.5443 59.4378 36.7535 59.4933C38.2384 59.8874 39.2412 60.8139 39.6464 62.2944C40.0699 63.843 39.639 65.1853 38.4745 66.2885C38.36 66.3967 38.2311 66.4894 38.0995 66.5979C38.139 66.6157 38.1665 66.6314 38.1939 66.6404C39.1087 66.9724 39.9403 67.4993 40.6311 68.1846C41.669 69.2092 42.3256 70.4386 42.5777 71.8784C42.6236 72.1399 42.6497 72.4051 42.6849 72.6682C42.6847 72.7744 42.6425 72.8763 42.5674 72.9514C42.4924 73.0266 42.3906 73.069 42.2844 73.0693ZM35.8411 60.4533C34.2561 60.4533 32.9617 61.747 32.955 63.3327C32.9483 64.9184 34.2527 66.2256 35.8431 66.2253C37.4335 66.2249 38.7226 64.9315 38.7293 63.3458C38.736 61.7601 37.4309 60.4509 35.8411 60.4533Z" fill="white"/>
</g>
<g clip-path="url(#clip2_1608_11925)">
<path d="M176.593 97.0225H176.312C176.212 97.0223 176.115 96.9844 176.041 96.9162C175.967 96.848 175.921 96.7545 175.913 96.6542C175.788 94.9991 175.087 93.6213 173.784 92.5469C172.656 91.6161 171.339 91.1966 169.881 91.2568C168.901 91.294 167.949 91.5892 167.12 92.1126C166.283 92.6314 165.591 93.3544 165.111 94.2136C164.691 94.9592 164.445 95.7899 164.391 96.6438C164.383 96.7451 164.338 96.8398 164.263 96.9088C164.189 96.9778 164.091 97.016 163.989 97.0158H163.723C163.668 97.0159 163.613 97.0046 163.562 96.9826C163.512 96.9607 163.466 96.9284 163.428 96.888C163.391 96.8475 163.362 96.7997 163.343 96.7476C163.325 96.6954 163.317 96.64 163.321 96.5849C163.406 95.2995 163.812 94.1222 164.571 93.0599C165.413 91.8819 166.523 91.0509 167.9 90.5544C167.861 90.5209 167.836 90.4978 167.809 90.4777C166.477 89.484 165.888 87.8514 166.345 86.2479C166.765 84.7713 167.756 83.8422 169.241 83.4481C169.449 83.3909 169.669 83.3711 169.884 83.335H170.42C170.634 83.3711 170.853 83.3909 171.062 83.4465C172.547 83.8405 173.55 84.767 173.955 86.2476C174.379 87.7961 173.948 89.1384 172.783 90.2417C172.669 90.3498 172.54 90.4426 172.408 90.551C172.448 90.5688 172.475 90.5845 172.503 90.5936C173.417 90.9255 174.249 91.4524 174.94 92.1378C175.978 93.1623 176.634 94.3918 176.886 95.8315C176.932 96.093 176.958 96.3582 176.993 96.6213C176.993 96.7276 176.951 96.8294 176.876 96.9045C176.801 96.9797 176.699 97.0221 176.593 97.0225ZM170.15 84.4064C168.565 84.4064 167.27 85.7001 167.264 87.2859C167.257 88.8716 168.561 90.1787 170.152 90.1784C171.742 90.178 173.031 88.8846 173.038 87.2989C173.045 85.7132 171.739 84.404 170.15 84.4064Z" fill="white"/>
</g>
<g clip-path="url(#clip3_1608_11925)">
<path d="M42.2844 97.022H42.0038C41.9032 97.0218 41.8063 96.9839 41.7322 96.9157C41.6582 96.8475 41.6125 96.754 41.6041 96.6537C41.4795 94.9986 40.7781 93.6209 39.4749 92.5464C38.3469 91.6156 37.0307 91.1961 35.5723 91.2563C34.5925 91.2935 33.64 91.5887 32.811 92.1122C31.9741 92.6309 31.2829 93.3539 30.8021 94.2132C30.3822 94.9587 30.1361 95.7894 30.0822 96.6433C30.0747 96.7446 30.029 96.8393 29.9545 96.9083C29.8799 96.9773 29.782 97.0156 29.6804 97.0153H29.4146C29.3593 97.0154 29.3045 97.0041 29.2538 96.9822C29.203 96.9602 29.1574 96.9279 29.1196 96.8875C29.0819 96.847 29.053 96.7992 29.0346 96.7471C29.0162 96.6949 29.0088 96.6395 29.0128 96.5844C29.0972 95.299 29.503 94.1218 30.2627 93.0594C31.1047 91.8815 32.2147 91.0504 33.5915 90.5539C33.552 90.5204 33.5275 90.4973 33.5007 90.4772C32.1688 89.4835 31.5799 87.8509 32.0362 86.2474C32.4561 84.7709 33.4475 83.8417 34.9321 83.4476C35.14 83.3904 35.36 83.3706 35.5753 83.3345H36.111C36.3256 83.3706 36.5443 83.3904 36.7535 83.446C38.2384 83.8401 39.2412 84.7665 39.6464 86.2471C40.0699 87.7956 39.639 89.1379 38.4745 90.2412C38.36 90.3493 38.2311 90.4421 38.0995 90.5505C38.139 90.5683 38.1665 90.584 38.1939 90.5931C39.1087 90.925 39.9403 91.4519 40.6311 92.1373C41.669 93.1618 42.3256 94.3913 42.5777 95.831C42.6236 96.0925 42.6497 96.3577 42.6849 96.6209C42.6847 96.7271 42.6425 96.8289 42.5674 96.9041C42.4924 96.9792 42.3906 97.0216 42.2844 97.022ZM35.8411 84.4059C34.2561 84.4059 32.9617 85.6997 32.955 87.2854C32.9483 88.8711 34.2527 90.1782 35.8431 90.1779C37.4335 90.1776 38.7226 88.8841 38.7293 87.2984C38.736 85.7127 37.4309 84.4036 35.8411 84.4059Z" fill="white"/>
</g>
<g clip-path="url(#clip4_1608_11925)">
<path d="M176.593 120.976H176.312C176.212 120.975 176.115 120.938 176.041 120.869C175.967 120.801 175.921 120.708 175.913 120.607C175.788 118.952 175.087 117.574 173.784 116.5C172.656 115.569 171.339 115.15 169.881 115.21C168.901 115.247 167.949 115.542 167.12 116.066C166.283 116.585 165.591 117.308 165.111 118.167C164.691 118.912 164.445 119.743 164.391 120.597C164.383 120.698 164.338 120.793 164.263 120.862C164.189 120.931 164.091 120.969 163.989 120.969H163.723C163.668 120.969 163.613 120.958 163.562 120.936C163.512 120.914 163.466 120.882 163.428 120.841C163.391 120.801 163.362 120.753 163.343 120.701C163.325 120.649 163.317 120.593 163.321 120.538C163.406 119.253 163.812 118.075 164.571 117.013C165.413 115.835 166.523 115.004 167.9 114.508C167.861 114.474 167.836 114.451 167.809 114.431C166.477 113.437 165.888 111.804 166.345 110.201C166.765 108.724 167.756 107.795 169.241 107.401C169.449 107.344 169.669 107.324 169.884 107.288H170.42C170.634 107.324 170.853 107.344 171.062 107.4C172.547 107.794 173.55 108.72 173.955 110.201C174.379 111.749 173.948 113.092 172.783 114.195C172.669 114.303 172.54 114.396 172.408 114.504C172.448 114.522 172.475 114.538 172.503 114.547C173.417 114.879 174.249 115.406 174.94 116.091C175.978 117.115 176.634 118.345 176.886 119.785C176.932 120.046 176.958 120.311 176.993 120.574C176.993 120.681 176.951 120.783 176.876 120.858C176.801 120.933 176.699 120.975 176.593 120.976ZM170.15 108.36C168.565 108.36 167.27 109.653 167.264 111.239C167.257 112.825 168.561 114.132 170.152 114.132C171.742 114.131 173.031 112.838 173.038 111.252C173.045 109.666 171.739 108.357 170.15 108.36Z" fill="white"/>
</g>
<g clip-path="url(#clip5_1608_11925)">
<path d="M42.2844 120.976H42.0038C41.9032 120.975 41.8063 120.938 41.7322 120.869C41.6582 120.801 41.6125 120.708 41.6041 120.607C41.4795 118.952 40.7781 117.574 39.4749 116.5C38.3469 115.569 37.0307 115.15 35.5723 115.21C34.5925 115.247 33.64 115.542 32.811 116.066C31.9741 116.585 31.2829 117.308 30.8021 118.167C30.3822 118.912 30.1361 119.743 30.0822 120.597C30.0747 120.698 30.029 120.793 29.9545 120.862C29.8799 120.931 29.782 120.969 29.6804 120.969H29.4146C29.3593 120.969 29.3045 120.958 29.2538 120.936C29.203 120.914 29.1574 120.882 29.1196 120.841C29.0819 120.801 29.053 120.753 29.0346 120.701C29.0162 120.649 29.0088 120.593 29.0128 120.538C29.0972 119.253 29.503 118.075 30.2627 117.013C31.1047 115.835 32.2147 115.004 33.5915 114.508C33.552 114.474 33.5275 114.451 33.5007 114.431C32.1688 113.437 31.5799 111.804 32.0362 110.201C32.4561 108.724 33.4475 107.795 34.9321 107.401C35.14 107.344 35.36 107.324 35.5753 107.288H36.111C36.3256 107.324 36.5443 107.344 36.7535 107.4C38.2384 107.794 39.2412 108.72 39.6464 110.201C40.0699 111.749 39.639 113.092 38.4745 114.195C38.36 114.303 38.2311 114.396 38.0995 114.504C38.139 114.522 38.1665 114.538 38.1939 114.547C39.1087 114.879 39.9403 115.406 40.6311 116.091C41.669 117.115 42.3256 118.345 42.5777 119.785C42.6236 120.046 42.6497 120.311 42.6849 120.574C42.6847 120.681 42.6425 120.783 42.5674 120.858C42.4924 120.933 42.3906 120.975 42.2844 120.976ZM35.8411 108.36C34.2561 108.36 32.9617 109.653 32.955 111.239C32.9483 112.825 34.2527 114.132 35.8431 114.132C37.4335 114.131 38.7226 112.838 38.7293 111.252C38.736 109.666 37.4309 108.357 35.8411 108.36Z" fill="white"/>
</g>
<g clip-path="url(#clip6_1608_11925)">
<path d="M176.593 144.928H176.312C176.212 144.928 176.115 144.89 176.041 144.822C175.967 144.754 175.921 144.66 175.913 144.56C175.788 142.905 175.087 141.527 173.784 140.453C172.656 139.522 171.339 139.102 169.881 139.163C168.901 139.2 167.949 139.495 167.12 140.018C166.283 140.537 165.591 141.26 165.111 142.119C164.691 142.865 164.445 143.696 164.391 144.55C164.383 144.651 164.338 144.746 164.263 144.815C164.189 144.884 164.091 144.922 163.989 144.922H163.723C163.668 144.922 163.613 144.91 163.562 144.888C163.512 144.866 163.466 144.834 163.428 144.794C163.391 144.753 163.362 144.705 163.343 144.653C163.325 144.601 163.317 144.546 163.321 144.491C163.406 143.205 163.812 142.028 164.571 140.966C165.413 139.788 166.523 138.957 167.9 138.46C167.861 138.427 167.836 138.404 167.809 138.383C166.477 137.39 165.888 135.757 166.345 134.154C166.765 132.677 167.756 131.748 169.241 131.354C169.449 131.297 169.669 131.277 169.884 131.241H170.42C170.634 131.277 170.853 131.297 171.062 131.352C172.547 131.746 173.55 132.673 173.955 134.153C174.379 135.702 173.948 137.044 172.783 138.147C172.669 138.256 172.54 138.348 172.408 138.457C172.448 138.475 172.475 138.49 172.503 138.499C173.417 138.831 174.249 139.358 174.94 140.044C175.978 141.068 176.634 142.298 176.886 143.737C176.932 143.999 176.958 144.264 176.993 144.527C176.993 144.633 176.951 144.735 176.876 144.81C176.801 144.885 176.699 144.928 176.593 144.928ZM170.15 132.312C168.565 132.312 167.27 133.606 167.264 135.192C167.257 136.777 168.561 138.084 170.152 138.084C171.742 138.084 173.031 136.79 173.038 135.205C173.045 133.619 171.739 132.31 170.15 132.312Z" fill="white"/>
</g>
<g clip-path="url(#clip7_1608_11925)">
<path d="M42.2844 144.928H42.0038C41.9032 144.928 41.8063 144.89 41.7322 144.822C41.6582 144.754 41.6125 144.66 41.6041 144.56C41.4795 142.905 40.7781 141.527 39.4749 140.453C38.3469 139.522 37.0307 139.102 35.5723 139.163C34.5925 139.2 33.64 139.495 32.811 140.018C31.9741 140.537 31.2829 141.26 30.8021 142.119C30.3822 142.865 30.1361 143.696 30.0822 144.55C30.0747 144.651 30.029 144.746 29.9545 144.815C29.8799 144.884 29.782 144.922 29.6804 144.922H29.4146C29.3593 144.922 29.3045 144.91 29.2538 144.888C29.203 144.866 29.1574 144.834 29.1196 144.794C29.0819 144.753 29.053 144.705 29.0346 144.653C29.0162 144.601 29.0088 144.546 29.0128 144.491C29.0972 143.205 29.503 142.028 30.2627 140.966C31.1047 139.788 32.2147 138.957 33.5915 138.46C33.552 138.427 33.5275 138.404 33.5007 138.383C32.1688 137.39 31.5799 135.757 32.0362 134.154C32.4561 132.677 33.4475 131.748 34.9321 131.354C35.14 131.297 35.36 131.277 35.5753 131.241H36.111C36.3256 131.277 36.5443 131.297 36.7535 131.352C38.2384 131.746 39.2412 132.673 39.6464 134.153C40.0699 135.702 39.639 137.044 38.4745 138.147C38.36 138.256 38.2311 138.348 38.0995 138.457C38.139 138.475 38.1665 138.49 38.1939 138.499C39.1087 138.831 39.9403 139.358 40.6311 140.044C41.669 141.068 42.3256 142.298 42.5777 143.737C42.6236 143.999 42.6497 144.264 42.6849 144.527C42.6847 144.633 42.6425 144.735 42.5674 144.81C42.4924 144.885 42.3906 144.928 42.2844 144.928ZM35.8411 132.312C34.2561 132.312 32.9617 133.606 32.955 135.192C32.9483 136.777 34.2527 138.084 35.8431 138.084C37.4335 138.084 38.7226 136.79 38.7293 135.205C38.736 133.619 37.4309 132.31 35.8411 132.312Z" fill="white"/>
</g>
<defs>
<linearGradient id="paint0_linear_1608_11925" x1="206.094" y1="0.348332" x2="0.78125" y2="0.348332" gradientUnits="userSpaceOnUse">
<stop stop-color="white" stop-opacity="0.12"/>
<stop offset="0.499248" stop-color="white" stop-opacity="0.4"/>
<stop offset="1" stop-color="white" stop-opacity="0.12"/>
</linearGradient>
<clipPath id="clip0_1608_11925">
<rect width="13.6728" height="13.6875" fill="white" transform="translate(163.32 59.3813)"/>
</clipPath>
<clipPath id="clip1_1608_11925">
<rect width="13.6728" height="13.6875" fill="white" transform="translate(29.0117 59.3813)"/>
</clipPath>
<clipPath id="clip2_1608_11925">
<rect width="13.6728" height="13.6875" fill="white" transform="translate(163.32 83.335)"/>
</clipPath>
<clipPath id="clip3_1608_11925">
<rect width="13.6728" height="13.6875" fill="white" transform="translate(29.0117 83.335)"/>
</clipPath>
<clipPath id="clip4_1608_11925">
<rect width="13.6728" height="13.6875" fill="white" transform="translate(163.32 107.288)"/>
</clipPath>
<clipPath id="clip5_1608_11925">
<rect width="13.6728" height="13.6875" fill="white" transform="translate(29.0117 107.288)"/>
</clipPath>
<clipPath id="clip6_1608_11925">
<rect width="13.6728" height="13.6875" fill="white" transform="translate(163.32 131.241)"/>
</clipPath>
<clipPath id="clip7_1608_11925">
<rect width="13.6728" height="13.6875" fill="white" transform="translate(29.0117 131.241)"/>
</clipPath>
</defs>
</svg>
