<svg width="160" height="161" viewBox="0 0 160 161" fill="none" xmlns="http://www.w3.org/2000/svg">
<rect x="0.43099" y="1.08822" width="158.927" height="158.927" stroke="url(#paint0_linear_1608_12054)" stroke-width="0.760417"/>
<g opacity="0.2">
<mask id="mask0_1608_12054" style="mask-type:alpha" maskUnits="userSpaceOnUse" x="5" y="6" width="150" height="150">
<rect x="5.37305" y="6.03125" width="149.042" height="149.042" fill="white"/>
</mask>
<g mask="url(#mask0_1608_12054)">
<line x1="114.48" y1="-68.0641" x2="-69.5502" y2="115.967" stroke="#0FB56F" stroke-width="0.45625" stroke-linecap="round"/>
<line x1="207.639" y1="25.0912" x2="23.608" y2="209.122" stroke="#0FB56F" stroke-width="0.45625" stroke-linecap="round"/>
<line x1="80.6074" y1="-101.94" x2="-103.423" y2="82.091" stroke="#0FB56F" stroke-width="0.45625" stroke-linecap="round"/>
<line x1="173.764" y1="-8.78334" x2="-10.267" y2="175.247" stroke="#0FB56F" stroke-width="0.45625" stroke-linecap="round"/>
<line x1="165.295" y1="-17.2526" x2="-18.7357" y2="166.778" stroke="#0FB56F" stroke-width="0.45625" stroke-linecap="round"/>
<line x1="258.449" y1="75.9042" x2="74.4186" y2="259.935" stroke="#0FB56F" stroke-width="0.45625" stroke-linecap="round"/>
<line x1="103.191" y1="-79.3561" x2="-80.8392" y2="104.675" stroke="#0FB56F" stroke-width="0.45625" stroke-linecap="round"/>
<line x1="196.346" y1="13.8002" x2="12.3151" y2="197.831" stroke="#0FB56F" stroke-width="0.45625" stroke-linecap="round"/>
<line x1="137.064" y1="-45.4816" x2="-46.9662" y2="138.549" stroke="#0FB56F" stroke-width="0.45625" stroke-linecap="round"/>
<line x1="230.221" y1="47.6747" x2="46.1901" y2="231.705" stroke="#0FB56F" stroke-width="0.45625" stroke-linecap="round"/>
<line x1="91.8984" y1="-90.6476" x2="-92.1322" y2="93.383" stroke="#0FB56F" stroke-width="0.45625" stroke-linecap="round"/>
<line x1="185.055" y1="2.50768" x2="1.02405" y2="186.538" stroke="#0FB56F" stroke-width="0.45625" stroke-linecap="round"/>
<line x1="154.004" y1="-28.5441" x2="-30.0267" y2="155.487" stroke="#0FB56F" stroke-width="0.45625" stroke-linecap="round"/>
<line x1="247.158" y1="64.6122" x2="63.1276" y2="248.643" stroke="#0FB56F" stroke-width="0.45625" stroke-linecap="round"/>
<line x1="117.305" y1="-65.2418" x2="-66.726" y2="118.789" stroke="#0FB56F" stroke-width="0.45625" stroke-linecap="round"/>
<line x1="210.461" y1="27.9144" x2="26.4303" y2="211.945" stroke="#0FB56F" stroke-width="0.45625" stroke-linecap="round"/>
<line x1="125.771" y1="-56.7726" x2="-58.2592" y2="127.258" stroke="#0FB56F" stroke-width="0.45625" stroke-linecap="round"/>
<line x1="218.928" y1="36.3832" x2="34.8971" y2="220.414" stroke="#0FB56F" stroke-width="0.45625" stroke-linecap="round"/>
<line x1="170.941" y1="-11.6071" x2="-13.0892" y2="172.424" stroke="#0FB56F" stroke-width="0.45625" stroke-linecap="round"/>
<line x1="264.096" y1="81.5487" x2="80.0651" y2="265.579" stroke="#0FB56F" stroke-width="0.45625" stroke-linecap="round"/>
<line x1="148.357" y1="-34.1901" x2="-35.6732" y2="149.841" stroke="#0FB56F" stroke-width="0.45625" stroke-linecap="round"/>
<line x1="241.514" y1="58.9662" x2="57.483" y2="242.997" stroke="#0FB56F" stroke-width="0.45625" stroke-linecap="round"/>
<line x1="108.834" y1="-73.7106" x2="-75.1967" y2="110.32" stroke="#0FB56F" stroke-width="0.45625" stroke-linecap="round"/>
<line x1="201.992" y1="19.4457" x2="17.9615" y2="203.476" stroke="#0FB56F" stroke-width="0.45625" stroke-linecap="round"/>
<line x1="142.711" y1="-39.8346" x2="-41.3197" y2="144.196" stroke="#0FB56F" stroke-width="0.45625" stroke-linecap="round"/>
<line x1="235.865" y1="53.3207" x2="51.8346" y2="237.351" stroke="#0FB56F" stroke-width="0.45625" stroke-linecap="round"/>
<line x1="97.5449" y1="-85.0021" x2="-86.4857" y2="99.0285" stroke="#0FB56F" stroke-width="0.45625" stroke-linecap="round"/>
<line x1="190.703" y1="8.15367" x2="6.67249" y2="192.184" stroke="#0FB56F" stroke-width="0.45625" stroke-linecap="round"/>
<line x1="159.648" y1="-22.8986" x2="-24.3822" y2="161.132" stroke="#0FB56F" stroke-width="0.45625" stroke-linecap="round"/>
<line x1="252.803" y1="70.2577" x2="68.7721" y2="254.288" stroke="#0FB56F" stroke-width="0.45625" stroke-linecap="round"/>
<line x1="0.228125" y1="-0.228125" x2="260.553" y2="-0.228125" transform="matrix(-0.706744 0.70747 -0.709096 -0.705112 128.643 -54.3198)" stroke="#0FB56F" stroke-width="0.45625" stroke-linecap="round"/>
<line x1="0.228125" y1="-0.228125" x2="260.553" y2="-0.228125" transform="matrix(-0.706744 0.70747 -0.709096 -0.705112 221.799 38.8359)" stroke="#0FB56F" stroke-width="0.45625" stroke-linecap="round"/>
<line x1="120.127" y1="-62.4181" x2="-63.9037" y2="121.613" stroke="#0FB56F" stroke-width="0.45625" stroke-linecap="round"/>
<line x1="213.281" y1="30.7367" x2="29.2506" y2="214.767" stroke="#0FB56F" stroke-width="0.45625" stroke-linecap="round"/>
<line x1="83.4297" y1="-99.1168" x2="-100.601" y2="84.9138" stroke="#0FB56F" stroke-width="0.45625" stroke-linecap="round"/>
<line x1="176.586" y1="-5.96059" x2="-7.4447" y2="178.07" stroke="#0FB56F" stroke-width="0.45625" stroke-linecap="round"/>
<line x1="87.0801" y1="-97.1203" x2="-96.9506" y2="86.9104" stroke="#0FB56F" stroke-width="0.45625" stroke-linecap="round"/>
<line x1="180.234" y1="-3.96449" x2="-3.79626" y2="180.066" stroke="#0FB56F" stroke-width="0.45625" stroke-linecap="round"/>
<line x1="168.119" y1="-14.4293" x2="-15.9115" y2="169.601" stroke="#0FB56F" stroke-width="0.45625" stroke-linecap="round"/>
<line x1="261.271" y1="78.7264" x2="77.2408" y2="262.757" stroke="#0FB56F" stroke-width="0.45625" stroke-linecap="round"/>
<line x1="106.014" y1="-76.5338" x2="-78.017" y2="107.497" stroke="#0FB56F" stroke-width="0.45625" stroke-linecap="round"/>
<line x1="199.17" y1="16.6224" x2="15.1393" y2="200.653" stroke="#0FB56F" stroke-width="0.45625" stroke-linecap="round"/>
<line x1="139.887" y1="-42.6583" x2="-44.1439" y2="141.372" stroke="#0FB56F" stroke-width="0.45625" stroke-linecap="round"/>
<line x1="233.043" y1="50.4969" x2="49.0123" y2="234.528" stroke="#0FB56F" stroke-width="0.45625" stroke-linecap="round"/>
<line x1="94.7207" y1="-87.8248" x2="-89.3099" y2="96.2058" stroke="#0FB56F" stroke-width="0.45625" stroke-linecap="round"/>
<line x1="187.877" y1="5.33092" x2="3.84631" y2="189.362" stroke="#0FB56F" stroke-width="0.45625" stroke-linecap="round"/>
<line x1="156.826" y1="-25.7213" x2="-27.2045" y2="158.309" stroke="#0FB56F" stroke-width="0.45625" stroke-linecap="round"/>
<line x1="249.98" y1="67.4354" x2="65.9498" y2="251.466" stroke="#0FB56F" stroke-width="0.45625" stroke-linecap="round"/>
<line x1="122.951" y1="-59.5963" x2="-61.0795" y2="124.434" stroke="#0FB56F" stroke-width="0.45625" stroke-linecap="round"/>
<line x1="216.107" y1="33.5604" x2="32.0767" y2="217.591" stroke="#0FB56F" stroke-width="0.45625" stroke-linecap="round"/>
<line x1="131.418" y1="-51.1271" x2="-52.6127" y2="132.904" stroke="#0FB56F" stroke-width="0.45625" stroke-linecap="round"/>
<line x1="224.574" y1="42.0287" x2="40.5436" y2="226.059" stroke="#0FB56F" stroke-width="0.45625" stroke-linecap="round"/>
<line x1="89.0762" y1="-93.4704" x2="-94.9545" y2="90.5603" stroke="#0FB56F" stroke-width="0.45625" stroke-linecap="round"/>
<line x1="182.23" y1="-0.315078" x2="-1.80017" y2="183.716" stroke="#0FB56F" stroke-width="0.45625" stroke-linecap="round"/>
<line x1="151.18" y1="-31.3668" x2="-32.851" y2="152.664" stroke="#0FB56F" stroke-width="0.45625" stroke-linecap="round"/>
<line x1="244.336" y1="61.7884" x2="60.3053" y2="245.819" stroke="#0FB56F" stroke-width="0.45625" stroke-linecap="round"/>
<line x1="111.658" y1="-70.8873" x2="-72.3724" y2="113.143" stroke="#0FB56F" stroke-width="0.45625" stroke-linecap="round"/>
<line x1="204.814" y1="22.2684" x2="20.7838" y2="206.299" stroke="#0FB56F" stroke-width="0.45625" stroke-linecap="round"/>
<line x1="145.531" y1="-37.0119" x2="-38.4994" y2="147.019" stroke="#0FB56F" stroke-width="0.45625" stroke-linecap="round"/>
<line x1="238.689" y1="56.1429" x2="54.6588" y2="240.174" stroke="#0FB56F" stroke-width="0.45625" stroke-linecap="round"/>
<line x1="100.367" y1="-82.1788" x2="-83.6635" y2="101.852" stroke="#0FB56F" stroke-width="0.45625" stroke-linecap="round"/>
<line x1="193.521" y1="10.9769" x2="9.49084" y2="195.008" stroke="#0FB56F" stroke-width="0.45625" stroke-linecap="round"/>
<line x1="162.471" y1="-20.0748" x2="-21.5599" y2="163.956" stroke="#0FB56F" stroke-width="0.45625" stroke-linecap="round"/>
<line x1="255.627" y1="73.0799" x2="71.5963" y2="257.111" stroke="#0FB56F" stroke-width="0.45625" stroke-linecap="round"/>
<line x1="134.242" y1="-48.3048" x2="-49.7885" y2="135.726" stroke="#0FB56F" stroke-width="0.45625" stroke-linecap="round"/>
<line x1="227.396" y1="44.8509" x2="43.3658" y2="228.882" stroke="#0FB56F" stroke-width="0.45625" stroke-linecap="round"/>
</g>
</g>
<path d="M17.4743 19.6768L17.268 19.0878H16.4619L16.2557 19.6768H16.0928L16.7632 17.7823H16.9722L17.6453 19.6768H17.4743ZM16.869 17.937H16.8582L16.5026 18.9467H17.2246L16.869 17.937ZM18.8368 19.4569H18.8259C18.8132 19.4895 18.7961 19.5211 18.7743 19.5519C18.7526 19.5827 18.7255 19.6098 18.6929 19.6333C18.6603 19.655 18.6214 19.6731 18.5762 19.6876C18.5328 19.7021 18.4812 19.7093 18.4215 19.7093C18.2731 19.7093 18.1573 19.6641 18.0741 19.5736C17.9909 19.4813 17.9493 19.3502 17.9493 19.1801V18.2871H18.104V19.1502C18.104 19.2932 18.1347 19.399 18.1962 19.4678C18.2578 19.5365 18.3464 19.5709 18.4622 19.5709C18.5111 19.5709 18.5572 19.5646 18.6006 19.5519C18.6459 19.5392 18.6857 19.5202 18.7201 19.4949C18.7562 19.4696 18.7843 19.4379 18.8042 19.3999C18.8259 19.3601 18.8368 19.314 18.8368 19.2615V18.2871H18.9915V19.6768H18.8368V19.4569ZM19.7364 19.6768C19.6803 19.6768 19.6378 19.6614 19.6089 19.6306C19.5799 19.5999 19.5654 19.5582 19.5654 19.5058V18.4228H19.3239V18.2871H19.4813C19.5193 18.2871 19.5446 18.2799 19.5573 18.2654C19.5718 18.2491 19.579 18.2211 19.579 18.1813V17.899H19.7201V18.2871H20.035V18.4228H19.7201V19.5411H20.0133V19.6768H19.7364ZM20.8901 19.7093C20.7978 19.7093 20.7146 19.693 20.6404 19.6605C20.5662 19.6279 20.5029 19.5809 20.4504 19.5193C20.3979 19.456 20.3572 19.3791 20.3282 19.2886C20.2993 19.1982 20.2848 19.0959 20.2848 18.9819C20.2848 18.868 20.2993 18.7666 20.3282 18.678C20.3572 18.5875 20.3979 18.5115 20.4504 18.45C20.5029 18.3867 20.5662 18.3387 20.6404 18.3061C20.7146 18.2718 20.7978 18.2546 20.8901 18.2546C20.9823 18.2546 21.0656 18.2718 21.1398 18.3061C21.2139 18.3387 21.2773 18.3867 21.3297 18.45C21.3822 18.5115 21.4229 18.5875 21.4519 18.678C21.4808 18.7666 21.4953 18.868 21.4953 18.9819C21.4953 19.0959 21.4808 19.1982 21.4519 19.2886C21.4229 19.3791 21.3822 19.456 21.3297 19.5193C21.2773 19.5809 21.2139 19.6279 21.1398 19.6605C21.0656 19.693 20.9823 19.7093 20.8901 19.7093ZM20.8901 19.5709C21.0258 19.5709 21.1325 19.5284 21.2103 19.4433C21.2899 19.3583 21.3297 19.2335 21.3297 19.0688V18.8951C21.3297 18.7323 21.2899 18.6083 21.2103 18.5233C21.1325 18.4364 21.0258 18.393 20.8901 18.393C20.7544 18.393 20.6467 18.4355 20.5671 18.5206C20.4893 18.6056 20.4504 18.7304 20.4504 18.8951V19.0688C20.4504 19.2316 20.4893 19.3565 20.5671 19.4433C20.6467 19.5284 20.7544 19.5709 20.8901 19.5709Z" fill="#0FB56F"/>
<line x1="51.6745" y1="81.6995" x2="145.221" y2="81.6995" stroke="#0FB56F" stroke-width="1.52083" stroke-linecap="round"/>
<line x1="51.6745" y1="87.2918" x2="145.221" y2="87.2918" stroke="#0FB56F" stroke-width="1.52083" stroke-linecap="round"/>
<line x1="51.6745" y1="92.8841" x2="145.221" y2="92.8841" stroke="#0FB56F" stroke-width="1.52083" stroke-linecap="round"/>
<line x1="51.6745" y1="98.4759" x2="145.221" y2="98.4759" stroke="#0FB56F" stroke-width="1.52083" stroke-linecap="round"/>
<line x1="51.6745" y1="104.068" x2="114.153" y2="104.068" stroke="#0FB56F" stroke-width="1.52083" stroke-linecap="round"/>
<line x1="51.6745" y1="109.66" x2="81.8426" y2="109.66" stroke="#0FB56F" stroke-width="1.52083" stroke-linecap="round"/>
<path d="M25.7853 142.348C26.2706 142.833 27.0575 142.833 27.5428 142.348L35.4513 134.439C35.9366 133.954 35.9366 133.167 35.4513 132.682C34.966 132.197 34.1792 132.197 33.6939 132.682L26.6641 139.712L19.6343 132.682C19.149 132.197 18.3621 132.197 17.8768 132.682C17.3915 133.167 17.3915 133.954 17.8768 134.439L25.7853 142.348ZM27.9068 85.2829C27.9068 84.5966 27.3504 84.0402 26.6641 84.0402C25.9777 84.0402 25.4214 84.5966 25.4214 85.2829L27.9068 85.2829ZM27.9068 141.469L27.9068 85.2829L25.4214 85.2829L25.4214 141.469L27.9068 141.469Z" fill="#0FB56F"/>
<path d="M25.7853 32.9494C26.2706 32.4641 27.0575 32.4641 27.5428 32.9494L35.4513 40.8579C35.9366 41.3432 35.9366 42.1301 35.4513 42.6154C34.966 43.1007 34.1792 43.1007 33.6939 42.6154L26.6641 35.5856L19.6343 42.6154C19.149 43.1007 18.3621 43.1007 17.8768 42.6154C17.3915 42.1301 17.3915 41.3432 17.8768 40.8579L25.7853 32.9494ZM27.9068 90.0145C27.9068 90.7008 27.3504 91.2572 26.6641 91.2572C25.9777 91.2572 25.4214 90.7008 25.4214 90.0145L27.9068 90.0145ZM27.9068 33.8281L27.9068 90.0145L25.4214 90.0145L25.4214 33.8281L27.9068 33.8281Z" fill="#0FB56F"/>
<path d="M139.998 68.857H52.3169C51.6306 68.857 51.0742 68.3006 51.0742 67.6143V30.9307C51.0742 30.2444 51.6306 29.688 52.3169 29.688H139.998C140.684 29.688 141.241 30.2444 141.241 30.9307V67.6143C141.241 68.3006 140.684 68.857 139.998 68.857Z" stroke="white" stroke-width="1.52083" stroke-linecap="round"/>
<path d="M140.161 141.012H52.1568C51.4704 141.012 50.9141 140.456 50.9141 139.77V123.92C50.9141 123.234 51.4704 122.678 52.1568 122.678H140.161C140.847 122.678 141.404 123.234 141.404 123.92V139.77C141.404 140.456 140.847 141.012 140.161 141.012Z" stroke="white" stroke-width="1.52083" stroke-linecap="round"/>
<path d="M61.5653 39.5759C61.5653 39.0057 61.5574 38.4339 61.5653 37.8638C61.5779 37.1629 61.9233 36.8022 62.6156 36.7943C63.7954 36.7828 64.9756 36.7828 66.1564 36.7943C66.8582 36.7943 67.2178 37.1534 67.2241 37.8449C67.2367 39.0262 67.2367 40.2075 67.2241 41.3888C67.2241 42.0897 66.8645 42.4504 66.1737 42.4582C64.9919 42.4708 63.8117 42.4708 62.633 42.4582C61.9312 42.4582 61.5779 42.0991 61.5637 41.4077C61.5558 40.7965 61.5653 40.187 61.5653 39.5759ZM63.4862 38.708V40.5351H65.3016V38.708H63.4862Z" fill="white"/>
<path d="M74.8164 40.5317V38.7109H87.9636V40.5317H74.8164Z" fill="white"/>
<path d="M72.8687 38.7158V40.5271H70.1055V38.7158H72.8687Z" fill="#0FB56F"/>
<path d="M61.5653 49.0388C61.5653 48.4686 61.5574 47.8968 61.5653 47.3267C61.5779 46.6258 61.9233 46.2651 62.6156 46.2572C63.7954 46.2456 64.9756 46.2456 66.1564 46.2572C66.8582 46.2572 67.2178 46.6163 67.2241 47.3078C67.2367 48.4891 67.2367 49.6704 67.2241 50.8517C67.2241 51.5526 66.8645 51.9132 66.1737 51.9211C64.9919 51.9337 63.8117 51.9337 62.633 51.9211C61.9312 51.9211 61.5779 51.562 61.5637 50.8706C61.5558 50.2594 61.5653 49.6499 61.5653 49.0388ZM63.4862 48.1709V49.998H65.3016V48.1709H63.4862Z" fill="white"/>
<path d="M74.8164 49.9946V48.1738H87.9636V49.9946H74.8164Z" fill="white"/>
<path d="M72.8687 48.1787V49.99H70.1055V48.1787H72.8687Z" fill="#0FB56F"/>
<path d="M61.5653 58.5016C61.5653 57.9315 61.5574 57.3597 61.5653 56.7896C61.5779 56.0887 61.9233 55.728 62.6156 55.7201C63.7954 55.7085 64.9756 55.7085 66.1564 55.7201C66.8582 55.7201 67.2178 56.0792 67.2241 56.7707C67.2367 57.952 67.2367 59.1332 67.2241 60.3145C67.2241 61.0154 66.8645 61.3761 66.1737 61.384C64.9919 61.3966 63.8117 61.3966 62.633 61.384C61.9312 61.384 61.5779 61.0249 61.5637 60.3334C61.5558 59.7223 61.5653 59.1128 61.5653 58.5016ZM63.4862 57.6338V59.4609H65.3016V57.6338H63.4862Z" fill="white"/>
<path d="M74.8164 59.4575V57.6367H87.9636V59.4575H74.8164Z" fill="white"/>
<path d="M72.8687 57.6416V59.4529H70.1055V57.6416H72.8687Z" fill="#0FB56F"/>
<path d="M124.844 46.2481H119.166C118.121 46.2481 117.273 45.4008 117.273 44.3555V38.6777C117.273 37.6325 118.121 36.7852 119.166 36.7852H124.844C125.889 36.7852 126.736 37.6325 126.736 38.6777V44.3555C126.736 45.4008 125.889 46.2481 124.844 46.2481ZM124.844 38.6777H119.166V44.3555H124.844V38.6777Z" fill="white"/>
<path d="M113.488 46.2486H107.81C106.765 46.2486 105.918 45.4013 105.918 44.356V38.6782C105.918 37.633 106.765 36.7856 107.81 36.7856H113.488C114.534 36.7856 115.381 37.633 115.381 38.6782V44.356C115.381 45.4013 114.534 46.2486 113.488 46.2486ZM113.488 38.6782H107.81V44.356H113.488V38.6782Z" fill="white"/>
<path d="M124.844 57.6036H119.166C118.121 57.6036 117.273 56.7562 117.273 55.711V50.0332C117.273 48.988 118.121 48.1406 119.166 48.1406H124.844C125.889 48.1406 126.736 48.988 126.736 50.0332V55.711C126.736 56.7562 125.889 57.6036 124.844 57.6036ZM124.844 50.0332H119.166V55.711H124.844V50.0332Z" fill="white"/>
<path d="M113.488 57.6036H107.81C106.765 57.6036 105.918 56.7562 105.918 55.711V50.0332C105.918 48.988 106.765 48.1406 107.81 48.1406H113.488C114.534 48.1406 115.381 48.988 115.381 50.0332V55.711C115.381 56.7562 114.534 57.6036 113.488 57.6036ZM113.488 50.0332H107.81V55.711H113.488V50.0332Z" fill="white"/>
<defs>
<linearGradient id="paint0_linear_1608_12054" x1="159.738" y1="0.703596" x2="0.0507812" y2="0.703596" gradientUnits="userSpaceOnUse">
<stop stop-color="white" stop-opacity="0.12"/>
<stop offset="0.499248" stop-color="white" stop-opacity="0.4"/>
<stop offset="1" stop-color="white" stop-opacity="0.12"/>
</linearGradient>
</defs>
</svg>
