<svg width="90" height="813" viewBox="0 0 90 813" fill="none" xmlns="http://www.w3.org/2000/svg">
<g opacity="0.79">
<circle cx="44.8646" cy="44.8646" r="44.3038" stroke="url(#paint0_linear_1608_11677)" stroke-width="1.12161"/>
<mask id="mask0_1608_11677" style="mask-type:alpha" maskUnits="userSpaceOnUse" x="8" y="8" width="73" height="73">
<circle cx="44.8643" cy="44.8643" r="35.8917" fill="white"/>
</mask>
<g mask="url(#mask0_1608_11677)">
<g opacity="0.2">
<line x1="102.084" y1="-206.533" x2="-207.89" y2="103.441" stroke="#0FB56F" stroke-width="1.12161" stroke-linecap="round"/>
<line x1="259.119" y1="-49.4994" x2="-50.8547" y2="260.474" stroke="#0FB56F" stroke-width="1.12161" stroke-linecap="round"/>
<line x1="44.9824" y1="-263.637" x2="-264.991" y2="46.3372" stroke="#0FB56F" stroke-width="1.12161" stroke-linecap="round"/>
<line x1="202.016" y1="-106.602" x2="-107.958" y2="203.372" stroke="#0FB56F" stroke-width="1.12161" stroke-linecap="round"/>
<line x1="187.74" y1="-120.878" x2="-122.234" y2="189.096" stroke="#0FB56F" stroke-width="1.12161" stroke-linecap="round"/>
<line x1="344.773" y1="36.1564" x2="34.7996" y2="346.13" stroke="#0FB56F" stroke-width="1.12161" stroke-linecap="round"/>
<line x1="83.0508" y1="-225.568" x2="-226.923" y2="84.4061" stroke="#0FB56F" stroke-width="1.12161" stroke-linecap="round"/>
<line x1="240.086" y1="-68.5336" x2="-69.8879" y2="241.44" stroke="#0FB56F" stroke-width="1.12161" stroke-linecap="round"/>
<line x1="140.152" y1="-168.464" x2="-169.821" y2="141.51" stroke="#0FB56F" stroke-width="1.12161" stroke-linecap="round"/>
<line x1="297.187" y1="-11.4305" x2="-12.7863" y2="298.543" stroke="#0FB56F" stroke-width="1.12161" stroke-linecap="round"/>
<line x1="64.0156" y1="-244.602" x2="-245.958" y2="65.3719" stroke="#0FB56F" stroke-width="1.12161" stroke-linecap="round"/>
<line x1="221.049" y1="-87.5682" x2="-88.925" y2="222.406" stroke="#0FB56F" stroke-width="1.12161" stroke-linecap="round"/>
<line x1="168.705" y1="-139.913" x2="-141.269" y2="170.061" stroke="#0FB56F" stroke-width="1.12161" stroke-linecap="round"/>
<line x1="325.738" y1="17.1217" x2="15.7645" y2="327.096" stroke="#0FB56F" stroke-width="1.12161" stroke-linecap="round"/>
<line x1="106.844" y1="-201.775" x2="-203.13" y2="108.199" stroke="#0FB56F" stroke-width="1.12161" stroke-linecap="round"/>
<line x1="263.877" y1="-44.7401" x2="-46.0969" y2="265.234" stroke="#0FB56F" stroke-width="1.12161" stroke-linecap="round"/>
<line x1="121.119" y1="-187.498" x2="-188.855" y2="122.475" stroke="#0FB56F" stroke-width="1.12161" stroke-linecap="round"/>
<line x1="278.152" y1="-30.4647" x2="-31.8215" y2="279.509" stroke="#0FB56F" stroke-width="1.12161" stroke-linecap="round"/>
<line x1="197.256" y1="-111.361" x2="-112.718" y2="198.613" stroke="#0FB56F" stroke-width="1.12161" stroke-linecap="round"/>
<line x1="354.291" y1="45.673" x2="44.3172" y2="355.647" stroke="#0FB56F" stroke-width="1.12161" stroke-linecap="round"/>
<line x1="159.187" y1="-149.431" x2="-150.786" y2="160.543" stroke="#0FB56F" stroke-width="1.12161" stroke-linecap="round"/>
<line x1="316.223" y1="7.60462" x2="6.24884" y2="317.578" stroke="#0FB56F" stroke-width="1.12161" stroke-linecap="round"/>
<line x1="92.5684" y1="-216.05" x2="-217.405" y2="93.9237" stroke="#0FB56F" stroke-width="1.12161" stroke-linecap="round"/>
<line x1="249.602" y1="-59.0165" x2="-60.3723" y2="250.957" stroke="#0FB56F" stroke-width="1.12161" stroke-linecap="round"/>
<line x1="149.672" y1="-158.947" x2="-160.302" y2="151.027" stroke="#0FB56F" stroke-width="1.12161" stroke-linecap="round"/>
<line x1="306.705" y1="-1.91247" x2="-3.26874" y2="308.061" stroke="#0FB56F" stroke-width="1.12161" stroke-linecap="round"/>
<line x1="73.5332" y1="-235.085" x2="-236.441" y2="74.889" stroke="#0FB56F" stroke-width="1.12161" stroke-linecap="round"/>
<line x1="230.566" y1="-78.0511" x2="-79.4074" y2="231.923" stroke="#0FB56F" stroke-width="1.12161" stroke-linecap="round"/>
<line x1="178.223" y1="-130.395" x2="-131.751" y2="179.578" stroke="#0FB56F" stroke-width="1.12161" stroke-linecap="round"/>
<line x1="335.256" y1="26.6393" x2="25.282" y2="336.613" stroke="#0FB56F" stroke-width="1.12161" stroke-linecap="round"/>
<line x1="0.560807" y1="-0.560807" x2="439.041" y2="-0.560807" transform="matrix(-0.706744 0.70747 -0.709096 -0.705112 125.957 -183.612)" stroke="#0FB56F" stroke-width="1.12161" stroke-linecap="round"/>
<line x1="0.560807" y1="-0.560807" x2="439.041" y2="-0.560807" transform="matrix(-0.706744 0.70747 -0.709096 -0.705112 282.992 -26.5786)" stroke="#0FB56F" stroke-width="1.12161" stroke-linecap="round"/>
<line x1="111.602" y1="-197.015" x2="-198.372" y2="112.958" stroke="#0FB56F" stroke-width="1.12161" stroke-linecap="round"/>
<line x1="268.637" y1="-39.9818" x2="-41.3371" y2="269.992" stroke="#0FB56F" stroke-width="1.12161" stroke-linecap="round"/>
<line x1="49.7402" y1="-258.877" x2="-260.234" y2="51.0965" stroke="#0FB56F" stroke-width="1.12161" stroke-linecap="round"/>
<line x1="206.773" y1="-101.844" x2="-103.2" y2="208.13" stroke="#0FB56F" stroke-width="1.12161" stroke-linecap="round"/>
<line x1="55.8926" y1="-255.513" x2="-254.081" y2="54.4613" stroke="#0FB56F" stroke-width="1.12161" stroke-linecap="round"/>
<line x1="212.926" y1="-98.4789" x2="-97.048" y2="211.495" stroke="#0FB56F" stroke-width="1.12161" stroke-linecap="round"/>
<line x1="192.498" y1="-116.119" x2="-117.476" y2="193.855" stroke="#0FB56F" stroke-width="1.12161" stroke-linecap="round"/>
<line x1="349.531" y1="40.9142" x2="39.5574" y2="350.888" stroke="#0FB56F" stroke-width="1.12161" stroke-linecap="round"/>
<line x1="87.8086" y1="-220.809" x2="-222.165" y2="89.1644" stroke="#0FB56F" stroke-width="1.12161" stroke-linecap="round"/>
<line x1="244.842" y1="-63.7748" x2="-65.132" y2="246.199" stroke="#0FB56F" stroke-width="1.12161" stroke-linecap="round"/>
<line x1="144.912" y1="-163.706" x2="-165.062" y2="146.268" stroke="#0FB56F" stroke-width="1.12161" stroke-linecap="round"/>
<line x1="301.945" y1="-6.67174" x2="-8.02851" y2="303.302" stroke="#0FB56F" stroke-width="1.12161" stroke-linecap="round"/>
<line x1="68.7754" y1="-239.843" x2="-241.198" y2="70.1312" stroke="#0FB56F" stroke-width="1.12161" stroke-linecap="round"/>
<line x1="225.809" y1="-82.8094" x2="-84.1652" y2="227.164" stroke="#0FB56F" stroke-width="1.12161" stroke-linecap="round"/>
<line x1="173.465" y1="-135.154" x2="-136.509" y2="174.82" stroke="#0FB56F" stroke-width="1.12161" stroke-linecap="round"/>
<line x1="330.498" y1="21.88" x2="20.5242" y2="331.854" stroke="#0FB56F" stroke-width="1.12161" stroke-linecap="round"/>
<line x1="116.361" y1="-192.258" x2="-193.612" y2="117.716" stroke="#0FB56F" stroke-width="1.12161" stroke-linecap="round"/>
<line x1="273.395" y1="-35.2225" x2="-36.5793" y2="274.751" stroke="#0FB56F" stroke-width="1.12161" stroke-linecap="round"/>
<line x1="130.637" y1="-177.981" x2="-179.337" y2="131.993" stroke="#0FB56F" stroke-width="1.12161" stroke-linecap="round"/>
<line x1="287.67" y1="-20.9476" x2="-22.3039" y2="289.026" stroke="#0FB56F" stroke-width="1.12161" stroke-linecap="round"/>
<line x1="59.2578" y1="-249.36" x2="-250.716" y2="60.6136" stroke="#0FB56F" stroke-width="1.12161" stroke-linecap="round"/>
<line x1="216.291" y1="-92.3265" x2="-93.6828" y2="217.647" stroke="#0FB56F" stroke-width="1.12161" stroke-linecap="round"/>
<line x1="163.945" y1="-144.671" x2="-146.029" y2="165.303" stroke="#0FB56F" stroke-width="1.12161" stroke-linecap="round"/>
<line x1="320.98" y1="12.3624" x2="11.0066" y2="322.336" stroke="#0FB56F" stroke-width="1.12161" stroke-linecap="round"/>
<line x1="97.3262" y1="-211.292" x2="-212.648" y2="98.6815" stroke="#0FB56F" stroke-width="1.12161" stroke-linecap="round"/>
<line x1="254.359" y1="-54.2572" x2="-55.6144" y2="255.717" stroke="#0FB56F" stroke-width="1.12161" stroke-linecap="round"/>
<line x1="154.428" y1="-154.188" x2="-155.546" y2="155.785" stroke="#0FB56F" stroke-width="1.12161" stroke-linecap="round"/>
<line x1="311.463" y1="2.84535" x2="1.48907" y2="312.819" stroke="#0FB56F" stroke-width="1.12161" stroke-linecap="round"/>
<line x1="78.291" y1="-230.326" x2="-231.683" y2="79.6483" stroke="#0FB56F" stroke-width="1.12161" stroke-linecap="round"/>
<line x1="235.326" y1="-73.2919" x2="-74.6476" y2="236.682" stroke="#0FB56F" stroke-width="1.12161" stroke-linecap="round"/>
<line x1="182.98" y1="-125.637" x2="-126.993" y2="184.337" stroke="#0FB56F" stroke-width="1.12161" stroke-linecap="round"/>
<line x1="340.016" y1="31.3971" x2="30.0418" y2="341.371" stroke="#0FB56F" stroke-width="1.12161" stroke-linecap="round"/>
<line x1="135.396" y1="-173.223" x2="-174.577" y2="136.751" stroke="#0FB56F" stroke-width="1.12161" stroke-linecap="round"/>
<line x1="292.43" y1="-16.1888" x2="-17.5441" y2="293.785" stroke="#0FB56F" stroke-width="1.12161" stroke-linecap="round"/>
</g>
</g>
<g clip-path="url(#clip0_1608_11677)">
<path d="M67.2952 45.2144C67.2251 45.4785 67.1631 45.746 67.0825 46.0077C66.8311 46.8054 66.3855 47.528 65.7857 48.1108C62.5423 51.3487 59.3002 54.5881 56.0592 57.8291C54.0262 59.8515 51.096 59.8492 49.0619 57.8209C43.3487 52.1186 37.6413 46.4101 31.9398 40.6953C29.8566 38.6086 29.8741 35.6959 31.962 33.6057C34.9214 30.6405 37.9019 27.6962 40.8414 24.7099C41.8929 23.6409 42.9772 22.6875 44.5147 22.4316H45.7415C46.8631 22.6653 47.8445 23.1385 48.6705 23.9645C54.3604 29.6707 60.0572 35.3695 65.7611 41.061C66.373 41.6504 66.828 42.3833 67.0849 43.1932C67.1655 43.4549 67.2251 43.7225 67.2952 43.9877V45.2144ZM46.9472 26.0757C46.9589 26.2498 46.9636 26.4087 46.9823 26.5664C47.5641 31.2274 48.1428 35.8879 48.7184 40.5481C48.7605 40.8845 48.91 40.9757 49.215 41.0061C50.0562 41.0902 50.8951 41.1988 51.7351 41.3028L62.6744 42.6756C62.9945 42.7153 63.3169 42.7492 63.6558 42.7866L46.9472 26.0757ZM34.0405 38.9579L50.7654 55.684C50.263 51.6633 49.7614 47.652 49.2605 43.65C48.6916 43.5811 48.1857 43.5133 47.6798 43.4584C46.8082 43.3649 46.3724 42.9362 46.2707 42.0669C46.21 41.547 46.1422 41.0282 46.0721 40.4639L34.0405 38.9579ZM53.5087 56.4399C54.0788 56.1876 64.171 46.0872 64.4 45.5416L51.9536 43.9853C52.4758 48.1669 52.9922 52.2946 53.5087 56.4399ZM33.2226 36.0674L33.3032 36.2158L45.7403 37.7697C45.2146 33.5754 44.6981 29.4534 44.1817 25.3303L44.017 25.2614C40.4185 28.8622 36.8204 32.4643 33.2226 36.0674Z" fill="#0FB56F"/>
<path d="M22.4297 56.8689C22.7101 56.5184 22.9648 56.1527 23.2756 55.8361C24.5537 54.5369 25.842 53.2474 27.1405 51.9677C27.9291 51.1907 29.1126 51.4863 29.3907 52.5145C29.4552 52.7335 29.4577 52.9662 29.3981 53.1866C29.3385 53.407 29.2191 53.6067 29.0531 53.7634C27.5961 55.2344 26.1392 56.7065 24.6577 58.1529C23.9871 58.806 22.9998 58.6074 22.5617 57.7826C22.522 57.7089 22.4741 57.6412 22.4297 57.5699V56.8689Z" fill="#0FB56F"/>
<path d="M32.1556 67.2958C32.0855 67.2514 32.0166 67.2024 31.943 67.1638C31.1357 66.7362 30.9137 65.7525 31.5446 65.1017C33.0074 63.5957 34.497 62.1154 35.9972 60.6456C36.2444 60.416 36.571 60.2911 36.9083 60.2971C37.2457 60.3031 37.5676 60.4394 37.8066 60.6777C38.0455 60.9159 38.1829 61.2374 38.19 61.5747C38.197 61.912 38.0731 62.239 37.8443 62.4869C36.3757 63.9883 34.8826 65.465 33.3917 66.943C33.2253 67.0771 33.0461 67.1945 32.8566 67.2935L32.1556 67.2958Z" fill="#0FB56F"/>
<path d="M22.4297 65.6311C23.2183 64.7876 23.9742 63.9101 24.8073 63.1122C25.2746 62.6588 26.0551 62.7804 26.5072 63.2489C26.9594 63.7174 27.0563 64.4569 26.6124 64.9184C25.8179 65.7503 24.9381 66.5074 24.0946 67.296H23.3936C22.9686 67.0985 22.6272 66.7571 22.4297 66.3321V65.6311Z" fill="#0FB56F"/>
<path d="M37.4319 53.7201C37.3314 53.9001 37.2193 54.2669 36.9798 54.5088C34.6843 56.8361 32.3745 59.1514 30.0503 61.4546C29.493 62.0096 28.6856 62.0072 28.1646 61.4897C27.6435 60.9721 27.6341 60.1636 28.1903 59.6051C30.5036 57.2746 32.8259 54.9512 35.1571 52.6347C35.342 52.4335 35.5871 52.2977 35.8558 52.2478C36.1244 52.1979 36.402 52.2365 36.6468 52.3578C37.1515 52.5915 37.3758 53.0039 37.4319 53.7201Z" fill="#0FB56F"/>
</g>
<circle cx="44.8639" cy="408.261" r="44.3038" transform="rotate(180 44.8639 408.261)" stroke="url(#paint1_linear_1608_11677)" stroke-width="1.12161"/>
<mask id="mask1_1608_11677" style="mask-type:alpha" maskUnits="userSpaceOnUse" x="8" y="372" width="73" height="73">
<circle cx="44.8643" cy="408.262" r="35.8917" fill="white"/>
</mask>
<g mask="url(#mask1_1608_11677)">
<g opacity="0.2">
<line x1="102.047" y1="156.865" x2="-207.927" y2="466.839" stroke="#FFBF1C" stroke-width="1.12161" stroke-linecap="round"/>
<line x1="259.082" y1="313.899" x2="-50.8918" y2="623.873" stroke="#FFBF1C" stroke-width="1.12161" stroke-linecap="round"/>
<line x1="44.9453" y1="99.7614" x2="-265.029" y2="409.735" stroke="#FFBF1C" stroke-width="1.12161" stroke-linecap="round"/>
<line x1="201.979" y1="256.797" x2="-107.995" y2="566.77" stroke="#FFBF1C" stroke-width="1.12161" stroke-linecap="round"/>
<line x1="187.703" y1="242.52" x2="-122.271" y2="552.494" stroke="#FFBF1C" stroke-width="1.12161" stroke-linecap="round"/>
<line x1="344.736" y1="399.555" x2="34.7625" y2="709.529" stroke="#FFBF1C" stroke-width="1.12161" stroke-linecap="round"/>
<line x1="83.0137" y1="137.831" x2="-226.96" y2="447.805" stroke="#FFBF1C" stroke-width="1.12161" stroke-linecap="round"/>
<line x1="240.049" y1="294.865" x2="-69.925" y2="604.839" stroke="#FFBF1C" stroke-width="1.12161" stroke-linecap="round"/>
<line x1="140.117" y1="194.935" x2="-169.857" y2="504.909" stroke="#FFBF1C" stroke-width="1.12161" stroke-linecap="round"/>
<line x1="297.15" y1="351.968" x2="-12.8234" y2="661.942" stroke="#FFBF1C" stroke-width="1.12161" stroke-linecap="round"/>
<line x1="63.9785" y1="118.797" x2="-245.995" y2="428.77" stroke="#FFBF1C" stroke-width="1.12161" stroke-linecap="round"/>
<line x1="221.012" y1="275.83" x2="-88.9621" y2="585.804" stroke="#FFBF1C" stroke-width="1.12161" stroke-linecap="round"/>
<line x1="168.668" y1="223.485" x2="-141.306" y2="533.459" stroke="#FFBF1C" stroke-width="1.12161" stroke-linecap="round"/>
<line x1="325.701" y1="380.52" x2="15.7274" y2="690.494" stroke="#FFBF1C" stroke-width="1.12161" stroke-linecap="round"/>
<line x1="106.807" y1="161.623" x2="-203.167" y2="471.597" stroke="#FFBF1C" stroke-width="1.12161" stroke-linecap="round"/>
<line x1="263.84" y1="318.658" x2="-46.134" y2="628.632" stroke="#FFBF1C" stroke-width="1.12161" stroke-linecap="round"/>
<line x1="121.082" y1="175.9" x2="-188.892" y2="485.873" stroke="#FFBF1C" stroke-width="1.12161" stroke-linecap="round"/>
<line x1="278.115" y1="332.934" x2="-31.8586" y2="642.908" stroke="#FFBF1C" stroke-width="1.12161" stroke-linecap="round"/>
<line x1="197.219" y1="252.037" x2="-112.755" y2="562.011" stroke="#FFBF1C" stroke-width="1.12161" stroke-linecap="round"/>
<line x1="354.254" y1="409.07" x2="44.2801" y2="719.044" stroke="#FFBF1C" stroke-width="1.12161" stroke-linecap="round"/>
<line x1="159.15" y1="213.968" x2="-150.823" y2="523.942" stroke="#FFBF1C" stroke-width="1.12161" stroke-linecap="round"/>
<line x1="316.186" y1="371.003" x2="6.21173" y2="680.977" stroke="#FFBF1C" stroke-width="1.12161" stroke-linecap="round"/>
<line x1="92.5293" y1="147.348" x2="-217.445" y2="457.322" stroke="#FFBF1C" stroke-width="1.12161" stroke-linecap="round"/>
<line x1="249.564" y1="304.382" x2="-60.4094" y2="614.356" stroke="#FFBF1C" stroke-width="1.12161" stroke-linecap="round"/>
<line x1="149.635" y1="204.452" x2="-160.339" y2="514.426" stroke="#FFBF1C" stroke-width="1.12161" stroke-linecap="round"/>
<line x1="306.668" y1="361.486" x2="-3.30585" y2="671.46" stroke="#FFBF1C" stroke-width="1.12161" stroke-linecap="round"/>
<line x1="73.4961" y1="128.314" x2="-236.478" y2="438.287" stroke="#FFBF1C" stroke-width="1.12161" stroke-linecap="round"/>
<line x1="230.529" y1="285.347" x2="-79.4445" y2="595.321" stroke="#FFBF1C" stroke-width="1.12161" stroke-linecap="round"/>
<line x1="178.186" y1="233.003" x2="-131.788" y2="542.977" stroke="#FFBF1C" stroke-width="1.12161" stroke-linecap="round"/>
<line x1="335.219" y1="390.037" x2="25.2449" y2="700.011" stroke="#FFBF1C" stroke-width="1.12161" stroke-linecap="round"/>
<line x1="0.560807" y1="-0.560807" x2="439.041" y2="-0.560807" transform="matrix(-0.706744 0.70747 -0.709096 -0.705112 125.92 179.787)" stroke="#FFBF1C" stroke-width="1.12161" stroke-linecap="round"/>
<line x1="0.560807" y1="-0.560807" x2="439.041" y2="-0.560807" transform="matrix(-0.706744 0.70747 -0.709096 -0.705112 282.955 336.82)" stroke="#FFBF1C" stroke-width="1.12161" stroke-linecap="round"/>
<line x1="111.564" y1="166.382" x2="-198.409" y2="476.356" stroke="#FFBF1C" stroke-width="1.12161" stroke-linecap="round"/>
<line x1="268.6" y1="323.416" x2="-41.3742" y2="633.39" stroke="#FFBF1C" stroke-width="1.12161" stroke-linecap="round"/>
<line x1="49.7031" y1="104.521" x2="-260.271" y2="414.494" stroke="#FFBF1C" stroke-width="1.12161" stroke-linecap="round"/>
<line x1="206.736" y1="261.554" x2="-103.237" y2="571.528" stroke="#FFBF1C" stroke-width="1.12161" stroke-linecap="round"/>
<line x1="55.8555" y1="107.885" x2="-254.118" y2="417.859" stroke="#FFBF1C" stroke-width="1.12161" stroke-linecap="round"/>
<line x1="212.889" y1="264.92" x2="-97.0851" y2="574.893" stroke="#FFBF1C" stroke-width="1.12161" stroke-linecap="round"/>
<line x1="192.461" y1="247.279" x2="-117.513" y2="557.253" stroke="#FFBF1C" stroke-width="1.12161" stroke-linecap="round"/>
<line x1="349.494" y1="404.313" x2="39.5203" y2="714.286" stroke="#FFBF1C" stroke-width="1.12161" stroke-linecap="round"/>
<line x1="87.7715" y1="142.589" x2="-222.202" y2="452.563" stroke="#FFBF1C" stroke-width="1.12161" stroke-linecap="round"/>
<line x1="244.805" y1="299.623" x2="-65.1691" y2="609.597" stroke="#FFBF1C" stroke-width="1.12161" stroke-linecap="round"/>
<line x1="144.875" y1="199.693" x2="-165.099" y2="509.666" stroke="#FFBF1C" stroke-width="1.12161" stroke-linecap="round"/>
<line x1="301.908" y1="356.727" x2="-8.06562" y2="666.701" stroke="#FFBF1C" stroke-width="1.12161" stroke-linecap="round"/>
<line x1="68.7383" y1="123.556" x2="-241.236" y2="433.53" stroke="#FFBF1C" stroke-width="1.12161" stroke-linecap="round"/>
<line x1="225.771" y1="280.589" x2="-84.2023" y2="590.563" stroke="#FFBF1C" stroke-width="1.12161" stroke-linecap="round"/>
<line x1="173.428" y1="228.244" x2="-136.546" y2="538.218" stroke="#FFBF1C" stroke-width="1.12161" stroke-linecap="round"/>
<line x1="330.463" y1="385.279" x2="20.4891" y2="695.253" stroke="#FFBF1C" stroke-width="1.12161" stroke-linecap="round"/>
<line x1="116.324" y1="171.141" x2="-193.65" y2="481.115" stroke="#FFBF1C" stroke-width="1.12161" stroke-linecap="round"/>
<line x1="273.357" y1="328.175" x2="-36.6164" y2="638.149" stroke="#FFBF1C" stroke-width="1.12161" stroke-linecap="round"/>
<line x1="130.6" y1="185.418" x2="-179.374" y2="495.391" stroke="#FFBF1C" stroke-width="1.12161" stroke-linecap="round"/>
<line x1="287.633" y1="342.451" x2="-22.341" y2="652.425" stroke="#FFBF1C" stroke-width="1.12161" stroke-linecap="round"/>
<line x1="59.2207" y1="114.038" x2="-250.753" y2="424.012" stroke="#FFBF1C" stroke-width="1.12161" stroke-linecap="round"/>
<line x1="216.254" y1="271.072" x2="-93.7199" y2="581.046" stroke="#FFBF1C" stroke-width="1.12161" stroke-linecap="round"/>
<line x1="163.91" y1="218.727" x2="-146.064" y2="528.701" stroke="#FFBF1C" stroke-width="1.12161" stroke-linecap="round"/>
<line x1="320.943" y1="375.761" x2="10.9695" y2="685.735" stroke="#FFBF1C" stroke-width="1.12161" stroke-linecap="round"/>
<line x1="97.2891" y1="152.106" x2="-212.685" y2="462.08" stroke="#FFBF1C" stroke-width="1.12161" stroke-linecap="round"/>
<line x1="254.322" y1="309.141" x2="-55.6516" y2="619.115" stroke="#FFBF1C" stroke-width="1.12161" stroke-linecap="round"/>
<line x1="154.391" y1="209.211" x2="-155.583" y2="519.184" stroke="#FFBF1C" stroke-width="1.12161" stroke-linecap="round"/>
<line x1="311.426" y1="366.244" x2="1.45196" y2="676.218" stroke="#FFBF1C" stroke-width="1.12161" stroke-linecap="round"/>
<line x1="78.2539" y1="133.073" x2="-231.72" y2="443.047" stroke="#FFBF1C" stroke-width="1.12161" stroke-linecap="round"/>
<line x1="235.287" y1="290.106" x2="-74.6867" y2="600.08" stroke="#FFBF1C" stroke-width="1.12161" stroke-linecap="round"/>
<line x1="182.943" y1="237.761" x2="-127.03" y2="547.735" stroke="#FFBF1C" stroke-width="1.12161" stroke-linecap="round"/>
<line x1="339.979" y1="394.796" x2="30.0047" y2="704.77" stroke="#FFBF1C" stroke-width="1.12161" stroke-linecap="round"/>
<line x1="135.359" y1="190.175" x2="-174.614" y2="500.149" stroke="#FFBF1C" stroke-width="1.12161" stroke-linecap="round"/>
<line x1="292.393" y1="347.209" x2="-17.5812" y2="657.182" stroke="#FFBF1C" stroke-width="1.12161" stroke-linecap="round"/>
</g>
</g>
<g clip-path="url(#clip1_1608_11677)">
<path d="M54.7191 388.072L63.4432 393.858C63.793 394.091 64.1428 394.324 64.4904 394.56C64.6686 394.674 64.8139 394.832 64.9119 395.02C65.0099 395.207 65.0571 395.417 65.0488 395.628C65.0488 396.115 65.0488 396.6 65.0488 397.087C65.0488 406.036 65.0488 414.985 65.0488 423.934C65.0488 425.985 63.8899 427.659 62.0389 428.224C61.5748 428.363 61.0928 428.434 60.6082 428.435C53.3151 428.448 46.0216 428.45 38.7277 428.442C36.1867 428.442 34.303 426.546 34.2967 424C34.2903 419.295 34.2903 414.589 34.2967 409.883V409.356H33.7025C32.9408 409.356 32.178 409.363 31.4163 409.356C30.7158 409.348 30.1964 408.837 30.1953 408.178C30.1943 407.518 30.7147 407.008 31.4163 407.001C32.3645 406.992 33.3042 407.001 34.2977 407.001V406.516C34.2977 401.891 34.3262 397.265 34.2872 392.639C34.2608 390.063 36.1308 388.357 37.9797 388.128C38.0145 388.128 38.0461 388.091 38.0851 388.072H54.7191ZM62.6847 396.747H62.2096C59.6601 396.747 57.1106 396.747 54.561 396.747C53.6929 396.747 53.2231 396.276 53.222 395.407C53.222 393.896 53.222 392.386 53.222 390.877V390.438H52.7342C48.122 390.438 43.509 390.438 38.8953 390.438C37.4372 390.438 36.6618 391.215 36.6618 392.678V423.825C36.6618 425.312 37.433 426.082 38.9184 426.082H60.4102C61.9241 426.082 62.6879 425.319 62.6879 423.808C62.6879 414.95 62.6879 406.091 62.6879 397.233L62.6847 396.747ZM59.935 394.363L55.6072 391.479V394.363H59.935Z" fill="#FFBF1C"/>
<path d="M24.6749 407.865C24.9909 407.186 25.5261 406.93 26.2604 406.992C26.6502 407.026 27.0463 406.992 27.4393 407C27.7522 407 28.0524 407.125 28.2737 407.346C28.4949 407.567 28.6192 407.867 28.6192 408.18C28.6192 408.493 28.4949 408.793 28.2737 409.015C28.0524 409.236 27.7522 409.36 27.4393 409.36C26.9126 409.374 26.3858 409.365 25.8654 409.36C25.2617 409.36 24.9267 408.982 24.6738 408.494L24.6749 407.865Z" fill="#FFBF1C"/>
<path d="M28.6234 402.268C29.2555 402.268 29.8876 402.268 30.5124 402.268C31.2414 402.274 31.7682 402.771 31.7703 403.445C31.7724 404.12 31.2435 404.626 30.5197 404.631C29.2471 404.636 27.9751 404.636 26.7039 404.631C25.9833 404.631 25.4555 404.104 25.465 403.434C25.4734 402.778 25.9917 402.275 26.6965 402.269C27.3381 402.261 27.9808 402.268 28.6234 402.268Z" fill="#FFBF1C"/>
<path d="M28.6085 414.094C27.9764 414.094 27.3443 414.094 26.7206 414.094C25.9927 414.087 25.4659 413.587 25.4648 412.913C25.4638 412.239 25.9916 411.735 26.7185 411.732C27.9898 411.725 29.2617 411.725 30.5344 411.732C31.255 411.732 31.7817 412.259 31.7701 412.931C31.7585 413.603 31.2434 414.09 30.5365 414.09C29.8938 414.101 29.2512 414.094 28.6085 414.094Z" fill="#FFBF1C"/>
<path d="M49.6431 401.247C46.5303 401.247 43.4178 401.247 40.3058 401.247C39.3744 401.247 38.7782 400.439 39.1142 399.634C39.3144 399.15 39.7 398.902 40.2194 398.887C40.705 398.872 41.1918 398.887 41.6774 398.887H58.7412C58.8729 398.887 59.0036 398.887 59.1352 398.887C59.8253 398.922 60.3384 399.453 60.3173 400.108C60.2962 400.763 59.7905 401.247 59.1026 401.248C56.4112 401.253 53.7191 401.253 51.0263 401.248L49.6431 401.247Z" fill="#FFBF1C"/>
<path d="M49.6763 404.303C52.801 404.303 55.9264 404.303 59.0525 404.303C59.9807 404.303 60.5665 405.122 60.222 405.928C60.0365 406.365 59.6868 406.595 59.2222 406.655C59.1046 406.667 58.9863 406.671 58.8682 406.667C52.736 406.667 46.6035 406.667 40.4706 406.667C40.2742 406.671 40.078 406.65 39.887 406.604C39.6182 406.531 39.3843 406.364 39.2276 406.133C39.071 405.903 39.0018 405.624 39.0325 405.347C39.0633 405.07 39.192 404.814 39.3954 404.623C39.5988 404.433 39.8636 404.322 40.1419 404.309C40.3906 404.297 40.6413 404.304 40.891 404.304L49.6763 404.303Z" fill="#FFBF1C"/>
<path d="M49.6545 412.06C46.5424 412.06 43.4303 412.06 40.3182 412.06C39.3795 412.06 38.7874 411.267 39.114 410.457C39.2921 410.016 39.6355 409.777 40.0991 409.709C40.2166 409.696 40.3349 409.692 40.453 409.696C46.5979 409.696 52.7434 409.696 58.8896 409.696C59.6344 409.696 60.0643 409.961 60.2592 410.528C60.3138 410.694 60.3307 410.869 60.3084 411.042C60.2862 411.215 60.2255 411.38 60.1308 411.527C60.036 411.673 59.9097 411.796 59.7611 411.887C59.6125 411.978 59.4453 412.034 59.272 412.052C59.1279 412.062 58.9834 412.065 58.839 412.061L49.6545 412.06Z" fill="#FFBF1C"/>
<path d="M49.6713 417.481H40.6111C40.4931 417.481 40.3751 417.481 40.2571 417.481C39.5396 417.457 39.0118 416.932 39.0297 416.263C39.0476 415.594 39.5639 415.119 40.2792 415.118C42.5267 415.114 44.7725 415.114 47.0164 415.118C51.0198 415.118 55.0253 415.118 59.0329 415.118C60.0358 415.118 60.63 416.043 60.1622 416.867C59.902 417.326 59.4817 417.485 58.9707 417.485C55.964 417.481 52.9565 417.481 49.9484 417.485L49.6713 417.481Z" fill="#FFBF1C"/>
<path d="M49.674 422.875C46.5991 422.875 43.5236 422.875 40.4473 422.875C40.2379 422.884 40.0284 422.861 39.8257 422.808C39.5801 422.727 39.3683 422.567 39.2242 422.352C39.0801 422.138 39.0118 421.881 39.0303 421.624C39.0481 421.366 39.1507 421.121 39.3222 420.927C39.4938 420.734 39.7245 420.603 39.9785 420.554C40.1598 420.524 40.3435 420.51 40.5274 420.513C46.6251 420.513 52.7232 420.513 58.8216 420.513C59.0318 420.508 59.2418 420.527 59.4474 420.57C59.7102 420.639 59.9408 420.798 60.0994 421.018C60.2581 421.239 60.335 421.508 60.3169 421.779C60.2988 422.05 60.1869 422.306 60.0004 422.504C59.8138 422.701 59.5643 422.828 59.2947 422.861C59.1378 422.876 58.9802 422.881 58.8227 422.876L49.674 422.875Z" fill="#FFBF1C"/>
<path d="M44.5528 393.487C45.9982 393.487 47.4436 393.487 48.8901 393.487C49.1425 393.479 49.3901 393.557 49.5929 393.707C49.7957 393.858 49.9419 394.072 50.0079 394.316C50.1596 394.79 50.0079 395.337 49.5738 395.599C49.3282 395.747 49.0483 395.829 48.7616 395.837C45.9522 395.854 43.1396 395.856 40.3239 395.844C39.6307 395.844 39.1503 395.45 39.0408 394.849C38.9967 394.581 39.048 394.305 39.1855 394.071C39.3231 393.836 39.5383 393.657 39.794 393.565C39.9816 393.507 40.1773 393.48 40.3735 393.486C41.7662 393.483 43.16 393.487 44.5528 393.487Z" fill="#FFBF1C"/>
</g>
<circle cx="44.8646" cy="767.183" r="44.3038" stroke="url(#paint2_linear_1608_11677)" stroke-width="1.12161"/>
<mask id="mask2_1608_11677" style="mask-type:alpha" maskUnits="userSpaceOnUse" x="8" y="731" width="73" height="73">
<circle cx="44.8643" cy="767.184" r="35.8917" fill="white"/>
</mask>
<g mask="url(#mask2_1608_11677)">
<g opacity="0.2">
<line x1="102.045" y1="515.788" x2="-207.929" y2="825.762" stroke="#DB488F" stroke-width="1.12161" stroke-linecap="round"/>
<line x1="259.08" y1="672.821" x2="-50.8937" y2="982.795" stroke="#DB488F" stroke-width="1.12161" stroke-linecap="round"/>
<line x1="44.9434" y1="458.684" x2="-265.03" y2="768.658" stroke="#DB488F" stroke-width="1.12161" stroke-linecap="round"/>
<line x1="201.977" y1="615.719" x2="-107.997" y2="925.693" stroke="#DB488F" stroke-width="1.12161" stroke-linecap="round"/>
<line x1="187.701" y1="601.443" x2="-122.273" y2="911.416" stroke="#DB488F" stroke-width="1.12161" stroke-linecap="round"/>
<line x1="344.734" y1="758.477" x2="34.7606" y2="1068.45" stroke="#DB488F" stroke-width="1.12161" stroke-linecap="round"/>
<line x1="83.0117" y1="496.753" x2="-226.962" y2="806.727" stroke="#DB488F" stroke-width="1.12161" stroke-linecap="round"/>
<line x1="240.047" y1="653.787" x2="-69.9269" y2="963.761" stroke="#DB488F" stroke-width="1.12161" stroke-linecap="round"/>
<line x1="140.115" y1="553.857" x2="-169.859" y2="863.831" stroke="#DB488F" stroke-width="1.12161" stroke-linecap="round"/>
<line x1="297.148" y1="710.89" x2="-12.8254" y2="1020.86" stroke="#DB488F" stroke-width="1.12161" stroke-linecap="round"/>
<line x1="63.9766" y1="477.719" x2="-245.997" y2="787.693" stroke="#DB488F" stroke-width="1.12161" stroke-linecap="round"/>
<line x1="221.01" y1="634.752" x2="-88.9641" y2="944.726" stroke="#DB488F" stroke-width="1.12161" stroke-linecap="round"/>
<line x1="168.666" y1="582.407" x2="-141.308" y2="892.381" stroke="#DB488F" stroke-width="1.12161" stroke-linecap="round"/>
<line x1="325.699" y1="739.443" x2="15.7254" y2="1049.42" stroke="#DB488F" stroke-width="1.12161" stroke-linecap="round"/>
<line x1="106.805" y1="520.546" x2="-203.169" y2="830.519" stroke="#DB488F" stroke-width="1.12161" stroke-linecap="round"/>
<line x1="263.84" y1="677.581" x2="-46.134" y2="987.555" stroke="#DB488F" stroke-width="1.12161" stroke-linecap="round"/>
<line x1="121.08" y1="534.822" x2="-188.894" y2="844.796" stroke="#DB488F" stroke-width="1.12161" stroke-linecap="round"/>
<line x1="278.113" y1="691.856" x2="-31.8605" y2="1001.83" stroke="#DB488F" stroke-width="1.12161" stroke-linecap="round"/>
<line x1="197.217" y1="610.96" x2="-112.757" y2="920.933" stroke="#DB488F" stroke-width="1.12161" stroke-linecap="round"/>
<line x1="354.252" y1="767.993" x2="44.2781" y2="1077.97" stroke="#DB488F" stroke-width="1.12161" stroke-linecap="round"/>
<line x1="159.148" y1="572.89" x2="-150.825" y2="882.864" stroke="#DB488F" stroke-width="1.12161" stroke-linecap="round"/>
<line x1="316.184" y1="729.925" x2="6.20978" y2="1039.9" stroke="#DB488F" stroke-width="1.12161" stroke-linecap="round"/>
<line x1="92.5273" y1="506.271" x2="-217.446" y2="816.244" stroke="#DB488F" stroke-width="1.12161" stroke-linecap="round"/>
<line x1="249.562" y1="663.304" x2="-60.4113" y2="973.278" stroke="#DB488F" stroke-width="1.12161" stroke-linecap="round"/>
<line x1="149.633" y1="563.374" x2="-160.341" y2="873.348" stroke="#DB488F" stroke-width="1.12161" stroke-linecap="round"/>
<line x1="306.666" y1="720.408" x2="-3.3078" y2="1030.38" stroke="#DB488F" stroke-width="1.12161" stroke-linecap="round"/>
<line x1="73.4941" y1="487.236" x2="-236.48" y2="797.21" stroke="#DB488F" stroke-width="1.12161" stroke-linecap="round"/>
<line x1="230.527" y1="644.269" x2="-79.4465" y2="954.243" stroke="#DB488F" stroke-width="1.12161" stroke-linecap="round"/>
<line x1="178.184" y1="591.925" x2="-131.79" y2="901.899" stroke="#DB488F" stroke-width="1.12161" stroke-linecap="round"/>
<line x1="335.217" y1="748.96" x2="25.243" y2="1058.93" stroke="#DB488F" stroke-width="1.12161" stroke-linecap="round"/>
<line x1="0.560807" y1="-0.560807" x2="439.041" y2="-0.560807" transform="matrix(-0.706744 0.70747 -0.709096 -0.705112 125.918 538.709)" stroke="#DB488F" stroke-width="1.12161" stroke-linecap="round"/>
<line x1="0.560807" y1="-0.560807" x2="439.041" y2="-0.560807" transform="matrix(-0.706744 0.70747 -0.709096 -0.705112 282.953 695.742)" stroke="#DB488F" stroke-width="1.12161" stroke-linecap="round"/>
<line x1="111.562" y1="525.305" x2="-198.411" y2="835.279" stroke="#DB488F" stroke-width="1.12161" stroke-linecap="round"/>
<line x1="268.598" y1="682.339" x2="-41.3762" y2="992.312" stroke="#DB488F" stroke-width="1.12161" stroke-linecap="round"/>
<line x1="49.7012" y1="463.443" x2="-260.273" y2="773.417" stroke="#DB488F" stroke-width="1.12161" stroke-linecap="round"/>
<line x1="206.734" y1="620.477" x2="-103.239" y2="930.451" stroke="#DB488F" stroke-width="1.12161" stroke-linecap="round"/>
<line x1="55.8535" y1="466.808" x2="-254.12" y2="776.782" stroke="#DB488F" stroke-width="1.12161" stroke-linecap="round"/>
<line x1="212.887" y1="623.842" x2="-97.0871" y2="933.816" stroke="#DB488F" stroke-width="1.12161" stroke-linecap="round"/>
<line x1="192.459" y1="606.202" x2="-117.515" y2="916.176" stroke="#DB488F" stroke-width="1.12161" stroke-linecap="round"/>
<line x1="349.492" y1="763.235" x2="39.5184" y2="1073.21" stroke="#DB488F" stroke-width="1.12161" stroke-linecap="round"/>
<line x1="87.7695" y1="501.511" x2="-222.204" y2="811.485" stroke="#DB488F" stroke-width="1.12161" stroke-linecap="round"/>
<line x1="244.803" y1="658.546" x2="-65.1711" y2="968.519" stroke="#DB488F" stroke-width="1.12161" stroke-linecap="round"/>
<line x1="144.873" y1="558.615" x2="-165.101" y2="868.589" stroke="#DB488F" stroke-width="1.12161" stroke-linecap="round"/>
<line x1="301.908" y1="715.649" x2="-8.06562" y2="1025.62" stroke="#DB488F" stroke-width="1.12161" stroke-linecap="round"/>
<line x1="68.7363" y1="482.478" x2="-241.237" y2="792.452" stroke="#DB488F" stroke-width="1.12161" stroke-linecap="round"/>
<line x1="225.77" y1="639.511" x2="-84.2043" y2="949.485" stroke="#DB488F" stroke-width="1.12161" stroke-linecap="round"/>
<line x1="173.426" y1="587.167" x2="-136.548" y2="897.14" stroke="#DB488F" stroke-width="1.12161" stroke-linecap="round"/>
<line x1="330.461" y1="744.201" x2="20.4871" y2="1054.17" stroke="#DB488F" stroke-width="1.12161" stroke-linecap="round"/>
<line x1="116.322" y1="530.064" x2="-193.652" y2="840.037" stroke="#DB488F" stroke-width="1.12161" stroke-linecap="round"/>
<line x1="273.355" y1="687.098" x2="-36.6184" y2="997.072" stroke="#DB488F" stroke-width="1.12161" stroke-linecap="round"/>
<line x1="130.596" y1="544.34" x2="-179.378" y2="854.314" stroke="#DB488F" stroke-width="1.12161" stroke-linecap="round"/>
<line x1="287.631" y1="701.373" x2="-22.343" y2="1011.35" stroke="#DB488F" stroke-width="1.12161" stroke-linecap="round"/>
<line x1="59.2187" y1="472.96" x2="-250.755" y2="782.934" stroke="#DB488F" stroke-width="1.12161" stroke-linecap="round"/>
<line x1="216.252" y1="629.994" x2="-93.7219" y2="939.968" stroke="#DB488F" stroke-width="1.12161" stroke-linecap="round"/>
<line x1="163.908" y1="577.65" x2="-146.066" y2="887.623" stroke="#DB488F" stroke-width="1.12161" stroke-linecap="round"/>
<line x1="320.941" y1="734.683" x2="10.9676" y2="1044.66" stroke="#DB488F" stroke-width="1.12161" stroke-linecap="round"/>
<line x1="97.2871" y1="511.028" x2="-212.687" y2="821.002" stroke="#DB488F" stroke-width="1.12161" stroke-linecap="round"/>
<line x1="254.32" y1="668.064" x2="-55.6535" y2="978.037" stroke="#DB488F" stroke-width="1.12161" stroke-linecap="round"/>
<line x1="154.389" y1="568.132" x2="-155.585" y2="878.106" stroke="#DB488F" stroke-width="1.12161" stroke-linecap="round"/>
<line x1="311.424" y1="725.166" x2="1.45001" y2="1035.14" stroke="#DB488F" stroke-width="1.12161" stroke-linecap="round"/>
<line x1="78.252" y1="491.995" x2="-231.722" y2="801.969" stroke="#DB488F" stroke-width="1.12161" stroke-linecap="round"/>
<line x1="235.285" y1="649.028" x2="-74.6887" y2="959.002" stroke="#DB488F" stroke-width="1.12161" stroke-linecap="round"/>
<line x1="182.941" y1="596.684" x2="-127.032" y2="906.658" stroke="#DB488F" stroke-width="1.12161" stroke-linecap="round"/>
<line x1="339.977" y1="753.718" x2="30.0027" y2="1063.69" stroke="#DB488F" stroke-width="1.12161" stroke-linecap="round"/>
<line x1="135.357" y1="549.098" x2="-174.616" y2="859.072" stroke="#DB488F" stroke-width="1.12161" stroke-linecap="round"/>
<line x1="292.391" y1="706.131" x2="-17.5832" y2="1016.1" stroke="#DB488F" stroke-width="1.12161" stroke-linecap="round"/>
</g>
</g>
<g clip-path="url(#clip2_1608_11677)">
<path d="M64.6568 744.751L65.9091 744.916C66.6183 745.011 67.042 745.42 67.1181 746.139C67.8355 752.906 65.8658 758.779 61.2544 763.776C60.7196 764.355 60.1519 764.903 59.5866 765.453C59.4169 765.618 59.3865 765.75 59.4696 765.982C61.6106 771.678 60.5666 776.71 56.3376 781.08C55.1298 782.33 53.8798 783.538 52.6544 784.768C51.9077 785.513 51.2113 785.509 50.4588 784.757C48.26 782.559 46.0624 780.359 43.8659 778.157C43.7548 778.04 43.7009 777.878 43.6038 777.709C42.6195 778.696 41.7663 779.554 40.9119 780.409C40.1453 781.175 39.4454 781.175 38.6823 780.409L31.5897 773.319C30.8672 772.596 30.8649 771.873 31.5827 771.151C32.4476 770.284 33.3184 769.422 34.2161 768.527C34.0885 768.393 33.982 768.278 33.8731 768.168C31.6767 765.977 29.4791 763.78 27.2803 761.578C26.5102 760.808 26.5137 760.126 27.2885 759.354C28.6614 757.981 29.9804 756.545 31.4212 755.251C35.699 751.395 40.5701 750.507 45.9609 752.528C46.2793 752.645 46.4502 752.597 46.6702 752.366C48.4328 750.502 50.3382 748.815 52.5959 747.56C55.3482 746.006 58.4074 745.072 61.5587 744.826C61.6873 744.808 61.8147 744.783 61.9403 744.751H64.6568ZM60.7278 760.493C57.6286 757.391 54.6207 754.386 51.5367 751.305C46.3226 756.297 41.2724 761.54 36.1437 766.585C39.264 769.707 42.3468 772.788 45.4483 775.899C50.5032 770.742 55.7513 765.715 60.7278 760.493ZM62.2493 758.016C62.2376 758.026 62.2668 758.016 62.2797 757.992C62.3452 757.875 62.4084 757.763 62.4693 757.646C64.0716 754.595 64.7715 751.344 64.6521 747.904C64.638 747.5 64.4964 747.396 64.1149 747.382C61.7144 747.299 59.3666 747.596 57.1019 748.403C56.0286 748.784 54.9952 749.279 53.9559 749.718L62.2493 758.016ZM37.9145 760.989L44.3739 754.754C40.5608 753.335 36.0641 754.446 33.7069 756.778L37.9145 760.989ZM57.343 767.831L51.0709 774.106L55.2843 778.329C57.7901 775.598 58.6058 771.269 57.3465 767.831H57.343ZM41.5591 775.982L36.0817 770.5L34.3331 772.233L39.8176 777.717L41.5591 775.982ZM35.981 762.959L31.7372 758.713L29.9816 760.481L34.2184 764.72L35.981 762.959ZM51.5074 782.048L53.311 780.247L49.1397 776.06L47.335 777.862L51.5074 782.048Z" fill="#DB488F"/>
<path d="M22.4297 780.495C22.8978 779.966 23.3531 779.423 23.8342 778.911C24.3959 778.318 24.9858 777.752 25.564 777.175C26.2054 776.538 26.9767 776.486 27.542 777.04C28.1073 777.594 28.0675 778.385 27.4401 779.017C26.6084 779.856 25.7731 780.691 24.9343 781.524C23.9559 782.504 23.121 782.395 22.4297 781.196V780.495Z" fill="#DB488F"/>
<path d="M22.4297 787.938C22.9704 787.338 23.483 786.703 24.0612 786.147C24.5575 785.678 25.3299 785.755 25.8051 786.231C26.0356 786.45 26.1747 786.748 26.1945 787.066C26.2142 787.383 26.1132 787.696 25.9116 787.942C25.49 788.446 25.0243 788.91 24.52 789.331C23.881 789.856 22.9856 789.623 22.5842 788.892C22.5374 788.807 22.4812 788.726 22.4297 788.641V787.938Z" fill="#DB488F"/>
<path d="M33.5723 779.912C33.4108 780.213 33.3055 780.564 33.0796 780.798C31.9548 781.969 30.8055 783.106 29.6492 784.24C29.5271 784.367 29.3809 784.468 29.2193 784.537C29.0577 784.606 28.8838 784.642 28.708 784.643C28.5322 784.644 28.358 784.61 28.1956 784.543C28.0332 784.475 27.886 784.376 27.7625 784.251C27.2557 783.732 27.2662 782.92 27.8152 782.364C28.9434 781.222 30.0787 780.087 31.221 778.958C31.4048 778.756 31.648 778.618 31.9157 778.563C32.1833 778.508 32.4614 778.54 32.7097 778.654C33.1966 778.85 33.4915 779.326 33.5723 779.912Z" fill="#DB488F"/>
<path d="M29.8633 788.082C29.9499 787.923 30.0529 787.586 30.2694 787.359C31.1964 786.391 32.1502 785.448 33.1076 784.508C33.6694 783.957 34.4629 783.957 34.9884 784.48C35.5139 785.003 35.5163 785.793 34.9615 786.361C34.0252 787.319 33.0772 788.267 32.1175 789.206C31.9316 789.405 31.6863 789.539 31.4181 789.588C31.1499 789.637 30.873 789.598 30.6287 789.477C30.1149 789.234 29.8808 788.81 29.8633 788.082Z" fill="#DB488F"/>
<path d="M51.5513 764.401C50.7741 764.397 50.0156 764.162 49.3715 763.727C48.7274 763.292 48.2266 762.676 47.9321 761.957C47.6376 761.238 47.5627 760.447 47.7168 759.686C47.871 758.924 48.2472 758.225 48.7982 757.677C49.3491 757.129 50.0501 756.756 50.8126 756.606C51.5751 756.455 52.365 756.534 53.0828 756.832C53.8005 757.13 54.4139 757.634 54.8456 758.281C55.2773 758.927 55.5079 759.687 55.5084 760.464C55.512 760.983 55.4119 761.499 55.2141 761.979C55.0163 762.46 54.7246 762.896 54.3562 763.263C53.9877 763.629 53.5499 763.919 53.0683 764.114C52.5867 764.31 52.071 764.407 51.5513 764.401ZM51.5688 761.771C51.7407 761.773 51.9112 761.741 52.0704 761.676C52.2296 761.611 52.3744 761.515 52.4962 761.394C52.618 761.273 52.7144 761.128 52.7798 760.97C52.8453 760.811 52.8784 760.64 52.8773 760.468C52.877 760.122 52.7397 759.79 52.4955 759.545C52.2512 759.299 51.9197 759.161 51.5735 759.159C51.2271 759.159 50.8949 759.296 50.6499 759.541C50.405 759.786 50.2674 760.118 50.2674 760.465C50.2674 760.811 50.405 761.144 50.6499 761.388C50.8949 761.633 51.2271 761.771 51.5735 761.771H51.5688Z" fill="#DB488F"/>
</g>
<path d="M43.7441 363.402L43.7441 94.2144" stroke="url(#paint3_linear_1608_11677)" stroke-width="1.12161" stroke-linecap="round" stroke-dasharray="2.24 6.73"/>
<path d="M45.1211 722.315L45.1211 453.128" stroke="url(#paint4_linear_1608_11677)" stroke-width="1.12161" stroke-linecap="round" stroke-dasharray="2.24 6.73"/>
</g>
<defs>
<linearGradient id="paint0_linear_1608_11677" x1="89.7292" y1="-0.00247876" x2="0" y2="-0.00247875" gradientUnits="userSpaceOnUse">
<stop stop-color="white" stop-opacity="0.08"/>
<stop offset="0.499248" stop-color="white"/>
<stop offset="1" stop-color="white" stop-opacity="0.08"/>
</linearGradient>
<linearGradient id="paint1_linear_1608_11677" x1="89.7285" y1="363.394" x2="-0.000652313" y2="363.394" gradientUnits="userSpaceOnUse">
<stop stop-color="white" stop-opacity="0.08"/>
<stop offset="0.499248" stop-color="white"/>
<stop offset="1" stop-color="white" stop-opacity="0.08"/>
</linearGradient>
<linearGradient id="paint2_linear_1608_11677" x1="89.7292" y1="722.316" x2="0" y2="722.316" gradientUnits="userSpaceOnUse">
<stop stop-color="white" stop-opacity="0.08"/>
<stop offset="0.499248" stop-color="white"/>
<stop offset="1" stop-color="white" stop-opacity="0.08"/>
</linearGradient>
<linearGradient id="paint3_linear_1608_11677" x1="43.7441" y1="94.2144" x2="43.7441" y2="363.402" gradientUnits="userSpaceOnUse">
<stop stop-color="white" stop-opacity="0"/>
<stop offset="0.511092" stop-color="white"/>
<stop offset="1" stop-color="white" stop-opacity="0"/>
</linearGradient>
<linearGradient id="paint4_linear_1608_11677" x1="45.1211" y1="453.128" x2="45.1211" y2="722.315" gradientUnits="userSpaceOnUse">
<stop stop-color="white" stop-opacity="0"/>
<stop offset="0.511092" stop-color="white"/>
<stop offset="1" stop-color="white" stop-opacity="0"/>
</linearGradient>
<clipPath id="clip0_1608_11677">
<rect width="44.8646" height="44.8646" fill="white" transform="translate(22.4316 22.4326)"/>
</clipPath>
<clipPath id="clip1_1608_11677">
<rect width="40.3771" height="40.3781" fill="white" transform="translate(24.6758 388.072)"/>
</clipPath>
<clipPath id="clip2_1608_11677">
<rect width="44.833" height="44.8646" fill="white" transform="translate(22.4316 744.751)"/>
</clipPath>
</defs>
</svg>
